<svg width="339" height="337" viewBox="0 0 339 337" fill="none" xmlns="http://www.w3.org/2000/svg">
<path d="M337 182C337 266.493 268.282 335 183.5 335C98.7182 335 30 266.493 30 182C30 97.5065 98.7182 29 183.5 29C268.282 29 337 97.5065 337 182Z" fill="#192A51" stroke="black" stroke-width="4"/>
<circle cx="155" cy="155" r="152.5" fill="#FB6FC6" stroke="black" stroke-width="5"/>
<mask id="path-3-outside-1_0_1" maskUnits="userSpaceOnUse" x="95" y="119" width="122" height="76" fill="black">
<rect fill="white" x="95" y="119" width="122" height="76"/>
<path d="M112.036 143V121.182H121.496C123.158 121.182 124.554 121.406 125.683 121.853C126.82 122.3 127.675 122.933 128.251 123.749C128.833 124.566 129.124 125.528 129.124 126.636C129.124 127.439 128.947 128.17 128.592 128.831C128.244 129.491 127.753 130.045 127.121 130.493C126.489 130.933 125.751 131.239 124.905 131.409V131.622C125.843 131.658 126.695 131.896 127.462 132.336C128.229 132.769 128.84 133.369 129.295 134.136C129.749 134.896 129.976 135.791 129.976 136.821C129.976 138.014 129.664 139.076 129.039 140.006C128.421 140.937 127.54 141.668 126.397 142.201C125.253 142.734 123.89 143 122.306 143H112.036ZM117.959 138.27H120.729C121.724 138.27 122.469 138.085 122.967 137.716C123.464 137.339 123.712 136.786 123.712 136.054C123.712 135.543 123.595 135.109 123.361 134.754C123.126 134.399 122.793 134.129 122.359 133.945C121.933 133.76 121.418 133.668 120.815 133.668H117.959V138.27ZM117.959 130.003H120.388C120.907 130.003 121.365 129.921 121.763 129.758C122.16 129.594 122.469 129.36 122.69 129.055C122.917 128.742 123.03 128.362 123.03 127.915C123.03 127.24 122.789 126.725 122.306 126.37C121.823 126.008 121.212 125.827 120.474 125.827H117.959V130.003ZM132.16 143V126.636H137.871V129.747H138.041C138.339 128.597 138.812 127.755 139.458 127.222C140.111 126.69 140.875 126.423 141.748 126.423C142.004 126.423 142.256 126.445 142.505 126.487C142.761 126.523 143.006 126.576 143.24 126.647V131.665C142.949 131.565 142.59 131.491 142.164 131.441C141.738 131.391 141.372 131.366 141.067 131.366C140.491 131.366 139.973 131.498 139.511 131.761C139.057 132.016 138.698 132.379 138.435 132.847C138.172 133.309 138.041 133.852 138.041 134.477V143H132.16ZM148.966 143.256C147.922 143.256 146.999 143.085 146.196 142.744C145.401 142.396 144.776 141.871 144.321 141.168C143.867 140.464 143.639 139.57 143.639 138.483C143.639 137.588 143.792 136.825 144.098 136.192C144.403 135.553 144.829 135.031 145.376 134.626C145.923 134.222 146.559 133.913 147.283 133.7C148.014 133.487 148.803 133.348 149.648 133.284C150.564 133.213 151.299 133.128 151.853 133.028C152.414 132.922 152.819 132.776 153.068 132.592C153.316 132.4 153.441 132.148 153.441 131.835V131.793C153.441 131.366 153.277 131.04 152.951 130.812C152.624 130.585 152.205 130.472 151.693 130.472C151.132 130.472 150.674 130.596 150.319 130.844C149.971 131.086 149.762 131.459 149.691 131.963H144.279C144.35 130.969 144.666 130.053 145.227 129.214C145.795 128.369 146.622 127.695 147.709 127.19C148.796 126.679 150.152 126.423 151.779 126.423C152.951 126.423 154.002 126.562 154.932 126.839C155.862 127.109 156.654 127.489 157.308 127.979C157.961 128.462 158.458 129.03 158.799 129.683C159.147 130.33 159.321 131.033 159.321 131.793V143H153.824V140.699H153.696C153.37 141.31 152.972 141.803 152.503 142.18C152.041 142.556 151.512 142.83 150.916 143C150.326 143.17 149.676 143.256 148.966 143.256ZM150.884 139.548C151.331 139.548 151.75 139.456 152.141 139.271C152.539 139.087 152.862 138.82 153.11 138.472C153.359 138.124 153.483 137.702 153.483 137.205V135.841C153.327 135.905 153.16 135.965 152.983 136.022C152.812 136.079 152.627 136.132 152.429 136.182C152.237 136.232 152.031 136.278 151.811 136.32C151.598 136.363 151.374 136.402 151.139 136.438C150.685 136.509 150.312 136.626 150.021 136.789C149.737 136.945 149.524 137.141 149.382 137.375C149.247 137.602 149.179 137.858 149.179 138.142C149.179 138.597 149.339 138.945 149.659 139.186C149.978 139.428 150.387 139.548 150.884 139.548ZM168.012 133.795V143H162.131V126.636H167.714V129.747H167.884C168.239 128.71 168.864 127.897 169.759 127.308C170.661 126.718 171.712 126.423 172.912 126.423C174.07 126.423 175.075 126.69 175.927 127.222C176.787 127.748 177.451 128.472 177.919 129.396C178.395 130.319 178.63 131.374 178.623 132.56V143H172.742V133.795C172.749 132.986 172.543 132.35 172.124 131.888C171.712 131.427 171.137 131.196 170.398 131.196C169.915 131.196 169.493 131.303 169.13 131.516C168.775 131.722 168.502 132.02 168.31 132.411C168.118 132.794 168.019 133.256 168.012 133.795ZM187.449 143.213C186.284 143.213 185.212 142.908 184.232 142.297C183.259 141.686 182.477 140.759 181.888 139.516C181.305 138.273 181.014 136.707 181.014 134.818C181.014 132.844 181.32 131.239 181.93 130.003C182.548 128.767 183.344 127.862 184.317 127.286C185.297 126.711 186.327 126.423 187.406 126.423C188.216 126.423 188.926 126.565 189.537 126.849C190.148 127.126 190.659 127.499 191.071 127.968C191.483 128.43 191.796 128.937 192.009 129.491H192.094V121.182H197.975V143H192.136V140.315H192.009C191.781 140.869 191.455 141.366 191.028 141.807C190.609 142.24 190.098 142.585 189.494 142.84C188.898 143.089 188.216 143.213 187.449 143.213ZM189.622 138.696C190.162 138.696 190.624 138.54 191.007 138.227C191.398 137.908 191.696 137.46 191.902 136.885C192.115 136.303 192.222 135.614 192.222 134.818C192.222 134.009 192.115 133.316 191.902 132.741C191.696 132.158 191.398 131.714 191.007 131.409C190.624 131.097 190.162 130.94 189.622 130.94C189.082 130.94 188.621 131.097 188.237 131.409C187.861 131.714 187.57 132.158 187.364 132.741C187.165 133.316 187.065 134.009 187.065 134.818C187.065 135.628 187.165 136.324 187.364 136.906C187.57 137.482 187.861 137.925 188.237 138.238C188.621 138.543 189.082 138.696 189.622 138.696ZM103.794 164.182V186H97.8711V164.182H103.794ZM112.61 186.213C111.445 186.213 110.373 185.908 109.393 185.297C108.42 184.686 107.638 183.759 107.049 182.516C106.467 181.273 106.175 179.707 106.175 177.818C106.175 175.844 106.481 174.239 107.092 173.003C107.71 171.767 108.505 170.862 109.478 170.286C110.458 169.711 111.488 169.423 112.567 169.423C113.377 169.423 114.087 169.565 114.698 169.849C115.309 170.126 115.82 170.499 116.232 170.968C116.644 171.43 116.957 171.937 117.17 172.491H117.255V164.182H123.136V186H117.298V183.315H117.17C116.942 183.869 116.616 184.366 116.19 184.807C115.771 185.24 115.259 185.585 114.656 185.84C114.059 186.089 113.377 186.213 112.61 186.213ZM114.783 181.696C115.323 181.696 115.785 181.54 116.168 181.227C116.559 180.908 116.857 180.46 117.063 179.885C117.276 179.303 117.383 178.614 117.383 177.818C117.383 177.009 117.276 176.316 117.063 175.741C116.857 175.158 116.559 174.714 116.168 174.409C115.785 174.097 115.323 173.94 114.783 173.94C114.244 173.94 113.782 174.097 113.398 174.409C113.022 174.714 112.731 175.158 112.525 175.741C112.326 176.316 112.227 177.009 112.227 177.818C112.227 178.628 112.326 179.324 112.525 179.906C112.731 180.482 113.022 180.925 113.398 181.238C113.782 181.543 114.244 181.696 114.783 181.696ZM133.864 186.298C132.116 186.298 130.611 185.964 129.347 185.297C128.089 184.622 127.12 183.656 126.438 182.399C125.763 181.135 125.426 179.622 125.426 177.861C125.426 176.17 125.767 174.693 126.449 173.429C127.131 172.165 128.093 171.181 129.336 170.478C130.579 169.775 132.045 169.423 133.736 169.423C134.972 169.423 136.09 169.615 137.092 169.999C138.093 170.382 138.949 170.94 139.659 171.671C140.369 172.396 140.916 173.276 141.3 174.313C141.683 175.35 141.875 176.518 141.875 177.818V179.182H127.259V175.943H136.463C136.456 175.474 136.335 175.062 136.101 174.707C135.874 174.345 135.565 174.065 135.174 173.866C134.79 173.66 134.354 173.557 133.864 173.557C133.388 173.557 132.951 173.66 132.553 173.866C132.156 174.065 131.836 174.342 131.594 174.697C131.36 175.052 131.236 175.467 131.222 175.943V179.438C131.222 179.963 131.332 180.432 131.552 180.844C131.772 181.256 132.088 181.579 132.5 181.813C132.912 182.048 133.409 182.165 133.991 182.165C134.396 182.165 134.766 182.108 135.099 181.994C135.44 181.881 135.732 181.717 135.973 181.504C136.214 181.284 136.392 181.021 136.506 180.716H141.875C141.69 181.852 141.254 182.839 140.565 183.678C139.876 184.509 138.963 185.155 137.827 185.616C136.697 186.071 135.376 186.298 133.864 186.298ZM150.155 176.795V186H144.275V169.636H149.857V172.747H150.028C150.383 171.71 151.008 170.897 151.903 170.308C152.805 169.718 153.856 169.423 155.056 169.423C156.214 169.423 157.219 169.69 158.071 170.222C158.93 170.748 159.594 171.472 160.063 172.396C160.539 173.319 160.773 174.374 160.766 175.56V186H154.885V176.795C154.893 175.986 154.687 175.35 154.268 174.888C153.856 174.427 153.28 174.196 152.542 174.196C152.059 174.196 151.636 174.303 151.274 174.516C150.919 174.722 150.645 175.02 150.454 175.411C150.262 175.794 150.162 176.256 150.155 176.795ZM173.428 169.636V173.898H162.646V169.636H173.428ZM164.735 165.716H170.615V180.737C170.615 180.964 170.654 181.156 170.732 181.312C170.811 181.462 170.931 181.575 171.095 181.653C171.258 181.724 171.468 181.76 171.723 181.76C171.901 181.76 172.107 181.739 172.341 181.696C172.583 181.653 172.76 181.618 172.874 181.589L173.726 185.723C173.463 185.801 173.087 185.897 172.597 186.011C172.114 186.124 171.539 186.199 170.871 186.234C169.521 186.305 168.389 186.167 167.472 185.819C166.556 185.464 165.867 184.906 165.406 184.146C164.944 183.386 164.72 182.435 164.735 181.291V165.716ZM175.827 186V169.636H181.708V186H175.827ZM178.768 167.932C177.972 167.932 177.29 167.669 176.722 167.143C176.154 166.618 175.87 165.986 175.87 165.247C175.87 164.509 176.154 163.876 176.722 163.351C177.29 162.825 177.972 162.562 178.768 162.562C179.57 162.562 180.252 162.825 180.813 163.351C181.381 163.876 181.665 164.509 181.665 165.247C181.665 165.986 181.381 166.618 180.813 167.143C180.252 167.669 179.57 167.932 178.768 167.932ZM194.463 169.636V173.898H183.682V169.636H194.463ZM185.77 165.716H191.65V180.737C191.65 180.964 191.689 181.156 191.768 181.312C191.846 181.462 191.966 181.575 192.13 181.653C192.293 181.724 192.503 181.76 192.758 181.76C192.936 181.76 193.142 181.739 193.376 181.696C193.618 181.653 193.795 181.618 193.909 181.589L194.761 185.723C194.498 185.801 194.122 185.897 193.632 186.011C193.149 186.124 192.574 186.199 191.906 186.234C190.557 186.305 189.424 186.167 188.508 185.819C187.591 185.464 186.903 184.906 186.441 184.146C185.979 183.386 185.756 182.435 185.77 181.291V165.716ZM200.442 192.136C199.767 192.136 199.125 192.083 198.514 191.977C197.903 191.877 197.367 191.739 196.905 191.561L198.184 187.385C198.667 187.555 199.107 187.665 199.505 187.715C199.909 187.765 200.254 187.737 200.538 187.63C200.829 187.523 201.039 187.321 201.167 187.023L201.294 186.724L195.542 169.636H201.678L204.32 180.972H204.49L207.175 169.636H213.354L207.388 187.364C207.09 188.266 206.657 189.075 206.088 189.793C205.527 190.517 204.789 191.089 203.873 191.508C202.956 191.927 201.813 192.136 200.442 192.136Z"/>
</mask>
<path d="M112.036 143V121.182H121.496C123.158 121.182 124.554 121.406 125.683 121.853C126.82 122.3 127.675 122.933 128.251 123.749C128.833 124.566 129.124 125.528 129.124 126.636C129.124 127.439 128.947 128.17 128.592 128.831C128.244 129.491 127.753 130.045 127.121 130.493C126.489 130.933 125.751 131.239 124.905 131.409V131.622C125.843 131.658 126.695 131.896 127.462 132.336C128.229 132.769 128.84 133.369 129.295 134.136C129.749 134.896 129.976 135.791 129.976 136.821C129.976 138.014 129.664 139.076 129.039 140.006C128.421 140.937 127.54 141.668 126.397 142.201C125.253 142.734 123.89 143 122.306 143H112.036ZM117.959 138.27H120.729C121.724 138.27 122.469 138.085 122.967 137.716C123.464 137.339 123.712 136.786 123.712 136.054C123.712 135.543 123.595 135.109 123.361 134.754C123.126 134.399 122.793 134.129 122.359 133.945C121.933 133.76 121.418 133.668 120.815 133.668H117.959V138.27ZM117.959 130.003H120.388C120.907 130.003 121.365 129.921 121.763 129.758C122.16 129.594 122.469 129.36 122.69 129.055C122.917 128.742 123.03 128.362 123.03 127.915C123.03 127.24 122.789 126.725 122.306 126.37C121.823 126.008 121.212 125.827 120.474 125.827H117.959V130.003ZM132.16 143V126.636H137.871V129.747H138.041C138.339 128.597 138.812 127.755 139.458 127.222C140.111 126.69 140.875 126.423 141.748 126.423C142.004 126.423 142.256 126.445 142.505 126.487C142.761 126.523 143.006 126.576 143.24 126.647V131.665C142.949 131.565 142.59 131.491 142.164 131.441C141.738 131.391 141.372 131.366 141.067 131.366C140.491 131.366 139.973 131.498 139.511 131.761C139.057 132.016 138.698 132.379 138.435 132.847C138.172 133.309 138.041 133.852 138.041 134.477V143H132.16ZM148.966 143.256C147.922 143.256 146.999 143.085 146.196 142.744C145.401 142.396 144.776 141.871 144.321 141.168C143.867 140.464 143.639 139.57 143.639 138.483C143.639 137.588 143.792 136.825 144.098 136.192C144.403 135.553 144.829 135.031 145.376 134.626C145.923 134.222 146.559 133.913 147.283 133.7C148.014 133.487 148.803 133.348 149.648 133.284C150.564 133.213 151.299 133.128 151.853 133.028C152.414 132.922 152.819 132.776 153.068 132.592C153.316 132.4 153.441 132.148 153.441 131.835V131.793C153.441 131.366 153.277 131.04 152.951 130.812C152.624 130.585 152.205 130.472 151.693 130.472C151.132 130.472 150.674 130.596 150.319 130.844C149.971 131.086 149.762 131.459 149.691 131.963H144.279C144.35 130.969 144.666 130.053 145.227 129.214C145.795 128.369 146.622 127.695 147.709 127.19C148.796 126.679 150.152 126.423 151.779 126.423C152.951 126.423 154.002 126.562 154.932 126.839C155.862 127.109 156.654 127.489 157.308 127.979C157.961 128.462 158.458 129.03 158.799 129.683C159.147 130.33 159.321 131.033 159.321 131.793V143H153.824V140.699H153.696C153.37 141.31 152.972 141.803 152.503 142.18C152.041 142.556 151.512 142.83 150.916 143C150.326 143.17 149.676 143.256 148.966 143.256ZM150.884 139.548C151.331 139.548 151.75 139.456 152.141 139.271C152.539 139.087 152.862 138.82 153.11 138.472C153.359 138.124 153.483 137.702 153.483 137.205V135.841C153.327 135.905 153.16 135.965 152.983 136.022C152.812 136.079 152.627 136.132 152.429 136.182C152.237 136.232 152.031 136.278 151.811 136.32C151.598 136.363 151.374 136.402 151.139 136.438C150.685 136.509 150.312 136.626 150.021 136.789C149.737 136.945 149.524 137.141 149.382 137.375C149.247 137.602 149.179 137.858 149.179 138.142C149.179 138.597 149.339 138.945 149.659 139.186C149.978 139.428 150.387 139.548 150.884 139.548ZM168.012 133.795V143H162.131V126.636H167.714V129.747H167.884C168.239 128.71 168.864 127.897 169.759 127.308C170.661 126.718 171.712 126.423 172.912 126.423C174.07 126.423 175.075 126.69 175.927 127.222C176.787 127.748 177.451 128.472 177.919 129.396C178.395 130.319 178.63 131.374 178.623 132.56V143H172.742V133.795C172.749 132.986 172.543 132.35 172.124 131.888C171.712 131.427 171.137 131.196 170.398 131.196C169.915 131.196 169.493 131.303 169.13 131.516C168.775 131.722 168.502 132.02 168.31 132.411C168.118 132.794 168.019 133.256 168.012 133.795ZM187.449 143.213C186.284 143.213 185.212 142.908 184.232 142.297C183.259 141.686 182.477 140.759 181.888 139.516C181.305 138.273 181.014 136.707 181.014 134.818C181.014 132.844 181.32 131.239 181.93 130.003C182.548 128.767 183.344 127.862 184.317 127.286C185.297 126.711 186.327 126.423 187.406 126.423C188.216 126.423 188.926 126.565 189.537 126.849C190.148 127.126 190.659 127.499 191.071 127.968C191.483 128.43 191.796 128.937 192.009 129.491H192.094V121.182H197.975V143H192.136V140.315H192.009C191.781 140.869 191.455 141.366 191.028 141.807C190.609 142.24 190.098 142.585 189.494 142.84C188.898 143.089 188.216 143.213 187.449 143.213ZM189.622 138.696C190.162 138.696 190.624 138.54 191.007 138.227C191.398 137.908 191.696 137.46 191.902 136.885C192.115 136.303 192.222 135.614 192.222 134.818C192.222 134.009 192.115 133.316 191.902 132.741C191.696 132.158 191.398 131.714 191.007 131.409C190.624 131.097 190.162 130.94 189.622 130.94C189.082 130.94 188.621 131.097 188.237 131.409C187.861 131.714 187.57 132.158 187.364 132.741C187.165 133.316 187.065 134.009 187.065 134.818C187.065 135.628 187.165 136.324 187.364 136.906C187.57 137.482 187.861 137.925 188.237 138.238C188.621 138.543 189.082 138.696 189.622 138.696ZM103.794 164.182V186H97.8711V164.182H103.794ZM112.61 186.213C111.445 186.213 110.373 185.908 109.393 185.297C108.42 184.686 107.638 183.759 107.049 182.516C106.467 181.273 106.175 179.707 106.175 177.818C106.175 175.844 106.481 174.239 107.092 173.003C107.71 171.767 108.505 170.862 109.478 170.286C110.458 169.711 111.488 169.423 112.567 169.423C113.377 169.423 114.087 169.565 114.698 169.849C115.309 170.126 115.82 170.499 116.232 170.968C116.644 171.43 116.957 171.937 117.17 172.491H117.255V164.182H123.136V186H117.298V183.315H117.17C116.942 183.869 116.616 184.366 116.19 184.807C115.771 185.24 115.259 185.585 114.656 185.84C114.059 186.089 113.377 186.213 112.61 186.213ZM114.783 181.696C115.323 181.696 115.785 181.54 116.168 181.227C116.559 180.908 116.857 180.46 117.063 179.885C117.276 179.303 117.383 178.614 117.383 177.818C117.383 177.009 117.276 176.316 117.063 175.741C116.857 175.158 116.559 174.714 116.168 174.409C115.785 174.097 115.323 173.94 114.783 173.94C114.244 173.94 113.782 174.097 113.398 174.409C113.022 174.714 112.731 175.158 112.525 175.741C112.326 176.316 112.227 177.009 112.227 177.818C112.227 178.628 112.326 179.324 112.525 179.906C112.731 180.482 113.022 180.925 113.398 181.238C113.782 181.543 114.244 181.696 114.783 181.696ZM133.864 186.298C132.116 186.298 130.611 185.964 129.347 185.297C128.089 184.622 127.12 183.656 126.438 182.399C125.763 181.135 125.426 179.622 125.426 177.861C125.426 176.17 125.767 174.693 126.449 173.429C127.131 172.165 128.093 171.181 129.336 170.478C130.579 169.775 132.045 169.423 133.736 169.423C134.972 169.423 136.09 169.615 137.092 169.999C138.093 170.382 138.949 170.94 139.659 171.671C140.369 172.396 140.916 173.276 141.3 174.313C141.683 175.35 141.875 176.518 141.875 177.818V179.182H127.259V175.943H136.463C136.456 175.474 136.335 175.062 136.101 174.707C135.874 174.345 135.565 174.065 135.174 173.866C134.79 173.66 134.354 173.557 133.864 173.557C133.388 173.557 132.951 173.66 132.553 173.866C132.156 174.065 131.836 174.342 131.594 174.697C131.36 175.052 131.236 175.467 131.222 175.943V179.438C131.222 179.963 131.332 180.432 131.552 180.844C131.772 181.256 132.088 181.579 132.5 181.813C132.912 182.048 133.409 182.165 133.991 182.165C134.396 182.165 134.766 182.108 135.099 181.994C135.44 181.881 135.732 181.717 135.973 181.504C136.214 181.284 136.392 181.021 136.506 180.716H141.875C141.69 181.852 141.254 182.839 140.565 183.678C139.876 184.509 138.963 185.155 137.827 185.616C136.697 186.071 135.376 186.298 133.864 186.298ZM150.155 176.795V186H144.275V169.636H149.857V172.747H150.028C150.383 171.71 151.008 170.897 151.903 170.308C152.805 169.718 153.856 169.423 155.056 169.423C156.214 169.423 157.219 169.69 158.071 170.222C158.93 170.748 159.594 171.472 160.063 172.396C160.539 173.319 160.773 174.374 160.766 175.56V186H154.885V176.795C154.893 175.986 154.687 175.35 154.268 174.888C153.856 174.427 153.28 174.196 152.542 174.196C152.059 174.196 151.636 174.303 151.274 174.516C150.919 174.722 150.645 175.02 150.454 175.411C150.262 175.794 150.162 176.256 150.155 176.795ZM173.428 169.636V173.898H162.646V169.636H173.428ZM164.735 165.716H170.615V180.737C170.615 180.964 170.654 181.156 170.732 181.312C170.811 181.462 170.931 181.575 171.095 181.653C171.258 181.724 171.468 181.76 171.723 181.76C171.901 181.76 172.107 181.739 172.341 181.696C172.583 181.653 172.76 181.618 172.874 181.589L173.726 185.723C173.463 185.801 173.087 185.897 172.597 186.011C172.114 186.124 171.539 186.199 170.871 186.234C169.521 186.305 168.389 186.167 167.472 185.819C166.556 185.464 165.867 184.906 165.406 184.146C164.944 183.386 164.72 182.435 164.735 181.291V165.716ZM175.827 186V169.636H181.708V186H175.827ZM178.768 167.932C177.972 167.932 177.29 167.669 176.722 167.143C176.154 166.618 175.87 165.986 175.87 165.247C175.87 164.509 176.154 163.876 176.722 163.351C177.29 162.825 177.972 162.562 178.768 162.562C179.57 162.562 180.252 162.825 180.813 163.351C181.381 163.876 181.665 164.509 181.665 165.247C181.665 165.986 181.381 166.618 180.813 167.143C180.252 167.669 179.57 167.932 178.768 167.932ZM194.463 169.636V173.898H183.682V169.636H194.463ZM185.77 165.716H191.65V180.737C191.65 180.964 191.689 181.156 191.768 181.312C191.846 181.462 191.966 181.575 192.13 181.653C192.293 181.724 192.503 181.76 192.758 181.76C192.936 181.76 193.142 181.739 193.376 181.696C193.618 181.653 193.795 181.618 193.909 181.589L194.761 185.723C194.498 185.801 194.122 185.897 193.632 186.011C193.149 186.124 192.574 186.199 191.906 186.234C190.557 186.305 189.424 186.167 188.508 185.819C187.591 185.464 186.903 184.906 186.441 184.146C185.979 183.386 185.756 182.435 185.77 181.291V165.716ZM200.442 192.136C199.767 192.136 199.125 192.083 198.514 191.977C197.903 191.877 197.367 191.739 196.905 191.561L198.184 187.385C198.667 187.555 199.107 187.665 199.505 187.715C199.909 187.765 200.254 187.737 200.538 187.63C200.829 187.523 201.039 187.321 201.167 187.023L201.294 186.724L195.542 169.636H201.678L204.32 180.972H204.49L207.175 169.636H213.354L207.388 187.364C207.09 188.266 206.657 189.075 206.088 189.793C205.527 190.517 204.789 191.089 203.873 191.508C202.956 191.927 201.813 192.136 200.442 192.136Z" fill="#FFF6E3"/>
<path d="M112.036 143H110.036V145H112.036V143ZM112.036 121.182V119.182H110.036V121.182H112.036ZM125.683 121.853L124.946 123.712L124.95 123.714L125.683 121.853ZM128.251 123.749L126.615 124.901L126.622 124.91L128.251 123.749ZM128.592 128.831L126.83 127.884L126.826 127.891L126.822 127.899L128.592 128.831ZM127.121 130.493L128.265 132.134L128.271 132.13L128.277 132.125L127.121 130.493ZM124.905 131.409L124.51 129.449L122.905 129.772V131.409H124.905ZM124.905 131.622H122.905V133.548L124.83 133.621L124.905 131.622ZM127.462 132.336L126.467 134.07L126.479 134.077L127.462 132.336ZM129.295 134.136L127.574 135.156L127.578 135.163L129.295 134.136ZM129.039 140.006L127.379 138.891L127.373 138.9L129.039 140.006ZM126.397 142.201L125.552 140.388L125.552 140.388L126.397 142.201ZM117.959 138.27H115.959V140.27H117.959V138.27ZM122.967 137.716L124.159 139.321L124.167 139.316L124.174 139.31L122.967 137.716ZM122.359 133.945L121.564 135.78L121.575 135.784L122.359 133.945ZM117.959 133.668V131.668H115.959V133.668H117.959ZM117.959 130.003H115.959V132.003H117.959V130.003ZM121.763 129.758L122.523 131.608L122.523 131.608L121.763 129.758ZM122.69 129.055L121.072 127.878L121.067 127.885L122.69 129.055ZM122.306 126.37L121.106 127.97L121.114 127.976L121.121 127.981L122.306 126.37ZM117.959 125.827V123.827H115.959V125.827H117.959ZM114.036 143V121.182H110.036V143H114.036ZM112.036 123.182H121.496V119.182H112.036V123.182ZM121.496 123.182C122.993 123.182 124.121 123.385 124.946 123.712L126.42 119.994C124.987 119.426 123.324 119.182 121.496 119.182V123.182ZM124.95 123.714C125.805 124.05 126.311 124.469 126.616 124.901L129.886 122.598C129.04 121.397 127.834 120.551 126.416 119.992L124.95 123.714ZM126.622 124.91C126.938 125.353 127.124 125.899 127.124 126.636H131.124C131.124 125.158 130.728 123.779 129.879 122.588L126.622 124.91ZM127.124 126.636C127.124 127.132 127.018 127.535 126.83 127.884L130.353 129.778C130.876 128.806 131.124 127.746 131.124 126.636H127.124ZM126.822 127.899C126.626 128.27 126.351 128.588 125.966 128.86L128.277 132.125C129.156 131.503 129.861 130.713 130.361 129.763L126.822 127.899ZM125.978 128.852C125.596 129.118 125.119 129.326 124.51 129.449L125.301 133.37C126.382 133.151 127.382 132.749 128.265 132.134L125.978 128.852ZM122.905 131.409V131.622H126.905V131.409H122.905ZM124.83 133.621C125.464 133.645 125.997 133.801 126.467 134.07L128.458 130.601C127.393 129.99 126.222 129.671 124.981 129.624L124.83 133.621ZM126.479 134.077C126.937 134.336 127.296 134.686 127.574 135.156L131.015 133.117C130.385 132.053 129.521 131.202 128.446 130.595L126.479 134.077ZM127.578 135.163C127.819 135.565 127.976 136.093 127.976 136.821H131.976C131.976 135.489 131.68 134.228 131.011 133.11L127.578 135.163ZM127.976 136.821C127.976 137.644 127.768 138.312 127.379 138.891L130.699 141.122C131.56 139.84 131.976 138.384 131.976 136.821H127.976ZM127.373 138.9C126.984 139.485 126.406 139.99 125.552 140.388L127.241 144.014C128.674 143.346 129.858 142.388 130.705 141.113L127.373 138.9ZM125.552 140.388C124.732 140.77 123.67 141 122.306 141V145C124.109 145 125.775 144.697 127.241 144.014L125.552 140.388ZM122.306 141H112.036V145H122.306V141ZM117.959 140.27H120.729V136.27H117.959V140.27ZM120.729 140.27C121.913 140.27 123.164 140.06 124.159 139.321L121.774 136.11C121.783 136.104 121.729 136.147 121.554 136.19C121.376 136.234 121.109 136.27 120.729 136.27V140.27ZM124.174 139.31C125.261 138.488 125.712 137.289 125.712 136.054H121.712C121.712 136.194 121.689 136.227 121.701 136.199C121.707 136.186 121.717 136.168 121.732 136.149C121.739 136.141 121.746 136.134 121.751 136.129C121.753 136.126 121.755 136.125 121.757 136.123C121.758 136.123 121.758 136.122 121.759 136.122C121.759 136.122 121.759 136.121 121.759 136.121L124.174 139.31ZM125.712 136.054C125.712 135.231 125.52 134.396 125.03 133.653L121.691 135.856C121.685 135.846 121.688 135.846 121.694 135.868C121.7 135.892 121.712 135.951 121.712 136.054H125.712ZM125.03 133.653C124.557 132.935 123.898 132.426 123.143 132.105L121.575 135.784C121.638 135.811 121.667 135.833 121.677 135.841C121.686 135.848 121.688 135.851 121.691 135.856L125.03 133.653ZM123.155 132.109C122.414 131.789 121.613 131.668 120.815 131.668V135.668C121.223 135.668 121.452 135.731 121.564 135.78L123.155 132.109ZM120.815 131.668H117.959V135.668H120.815V131.668ZM115.959 133.668V138.27H119.959V133.668H115.959ZM117.959 132.003H120.388V128.003H117.959V132.003ZM120.388 132.003C121.115 132.003 121.84 131.888 122.523 131.608L121.003 127.908C120.89 127.954 120.699 128.003 120.388 128.003V132.003ZM122.523 131.608C123.215 131.323 123.844 130.874 124.312 130.224L121.067 127.885C121.071 127.88 121.076 127.874 121.08 127.87C121.083 127.866 121.085 127.865 121.084 127.866C121.081 127.868 121.059 127.885 121.003 127.908L122.523 131.608ZM124.307 130.231C124.821 129.525 125.03 128.716 125.03 127.915H121.03C121.03 127.969 121.024 127.98 121.029 127.962C121.032 127.954 121.036 127.94 121.044 127.924C121.052 127.908 121.062 127.893 121.072 127.878L124.307 130.231ZM125.03 127.915C125.03 126.696 124.556 125.542 123.491 124.759L121.121 127.981C121.119 127.98 121.105 127.969 121.086 127.946C121.067 127.923 121.05 127.897 121.039 127.872C121.014 127.818 121.03 127.817 121.03 127.915H125.03ZM123.506 124.77C122.605 124.095 121.546 123.827 120.474 123.827V127.827C120.878 127.827 121.041 127.921 121.106 127.97L123.506 124.77ZM120.474 123.827H117.959V127.827H120.474V123.827ZM115.959 125.827V130.003H119.959V125.827H115.959ZM132.16 143H130.16V145H132.16V143ZM132.16 126.636V124.636H130.16V126.636H132.16ZM137.871 126.636H139.871V124.636H137.871V126.636ZM137.871 129.747H135.871V131.747H137.871V129.747ZM138.041 129.747V131.747H139.589L139.977 130.249L138.041 129.747ZM139.458 127.222L138.194 125.672L138.186 125.679L139.458 127.222ZM142.505 126.487L142.167 128.458L142.198 128.464L142.23 128.468L142.505 126.487ZM143.24 126.647H145.24V125.163L143.82 124.733L143.24 126.647ZM143.24 131.665L142.594 133.557L145.24 134.461V131.665H143.24ZM142.164 131.441L142.396 129.455L142.396 129.455L142.164 131.441ZM139.511 131.761L140.492 133.504L140.501 133.499L139.511 131.761ZM138.435 132.847L140.173 133.837L140.18 133.825L138.435 132.847ZM138.041 143V145H140.041V143H138.041ZM134.16 143V126.636H130.16V143H134.16ZM132.16 128.636H137.871V124.636H132.16V128.636ZM135.871 126.636V129.747H139.871V126.636H135.871ZM137.871 131.747H138.041V127.747H137.871V131.747ZM139.977 130.249C140.212 129.341 140.52 128.938 140.73 128.766L138.186 125.679C137.103 126.571 136.466 127.852 136.105 129.245L139.977 130.249ZM140.722 128.772C141.004 128.542 141.317 128.423 141.748 128.423V124.423C140.433 124.423 139.218 124.837 138.194 125.672L140.722 128.772ZM141.748 128.423C141.892 128.423 142.032 128.435 142.167 128.458L142.843 124.516C142.481 124.454 142.116 124.423 141.748 124.423V128.423ZM142.23 128.468C142.388 128.49 142.531 128.522 142.66 128.561L143.82 124.733C143.481 124.63 143.133 124.555 142.78 124.506L142.23 128.468ZM141.24 126.647V131.665H145.24V126.647H141.24ZM143.886 129.772C143.42 129.613 142.912 129.515 142.396 129.455L141.932 133.428C142.268 133.467 142.478 133.518 142.594 133.557L143.886 129.772ZM142.396 129.455C141.921 129.399 141.473 129.366 141.067 129.366V133.366C141.271 133.366 141.555 133.384 141.932 133.428L142.396 129.455ZM141.067 129.366C140.174 129.366 139.31 129.574 138.522 130.023L140.501 133.499C140.636 133.422 140.809 133.366 141.067 133.366V129.366ZM138.531 130.018C137.746 130.459 137.127 131.09 136.691 131.869L140.18 133.825C140.269 133.667 140.367 133.574 140.492 133.504L138.531 130.018ZM136.697 131.858C136.235 132.67 136.041 133.567 136.041 134.477H140.041C140.041 134.138 140.11 133.947 140.173 133.837L136.697 131.858ZM136.041 134.477V143H140.041V134.477H136.041ZM138.041 141H132.16V145H138.041V141ZM146.196 142.744L145.395 144.577L145.404 144.581L145.414 144.585L146.196 142.744ZM144.321 141.168L142.642 142.253L142.642 142.253L144.321 141.168ZM144.098 136.192L145.898 137.063L145.902 137.055L144.098 136.192ZM145.376 134.626L146.566 136.234L146.566 136.234L145.376 134.626ZM147.283 133.7L146.724 131.779L146.719 131.781L147.283 133.7ZM149.648 133.284L149.799 135.278L149.803 135.278L149.648 133.284ZM151.853 133.028L152.207 134.997L152.216 134.995L152.226 134.993L151.853 133.028ZM153.068 132.592L154.26 134.197L154.275 134.186L154.289 134.175L153.068 132.592ZM152.951 130.812L151.808 132.454L151.808 132.454L152.951 130.812ZM150.319 130.844L151.459 132.488L151.466 132.483L150.319 130.844ZM149.691 131.963V133.963H151.429L151.671 132.242L149.691 131.963ZM144.279 131.963L142.284 131.821L142.131 133.963H144.279V131.963ZM145.227 129.214L143.567 128.099L143.565 128.102L145.227 129.214ZM147.709 127.19L148.551 129.005L148.561 129L147.709 127.19ZM154.932 126.839L154.361 128.756L154.375 128.76L154.932 126.839ZM157.308 127.979L156.108 129.579L156.119 129.587L157.308 127.979ZM158.799 129.683L157.026 130.608L157.032 130.62L157.038 130.631L158.799 129.683ZM159.321 143V145H161.321V143H159.321ZM153.824 143H151.824V145H153.824V143ZM153.824 140.699H155.824V138.699H153.824V140.699ZM153.696 140.699V138.699H152.498L151.933 139.756L153.696 140.699ZM152.503 142.18L151.251 140.62L151.245 140.625L151.239 140.63L152.503 142.18ZM150.916 143L150.366 141.077L150.36 141.079L150.916 143ZM152.141 139.271L151.299 137.457L151.286 137.463L152.141 139.271ZM153.11 138.472L151.483 137.31L151.483 137.31L153.11 138.472ZM153.483 135.841H155.483V132.862L152.726 133.99L153.483 135.841ZM152.983 136.022L152.373 134.117L152.361 134.121L152.35 134.125L152.983 136.022ZM152.429 136.182L151.943 134.242L151.935 134.244L151.927 134.246L152.429 136.182ZM151.811 136.32L151.431 134.357L151.418 134.359L151.811 136.32ZM151.139 136.438L150.84 134.46L150.831 134.461L151.139 136.438ZM150.021 136.789L150.985 138.541L150.992 138.537L150.999 138.533L150.021 136.789ZM149.382 137.375L147.671 136.338L147.667 136.346L147.662 136.354L149.382 137.375ZM149.659 139.186L150.864 137.59L150.864 137.59L149.659 139.186ZM148.966 141.256C148.139 141.256 147.49 141.121 146.978 140.904L145.414 144.585C146.508 145.05 147.705 145.256 148.966 145.256V141.256ZM146.998 140.912C146.548 140.715 146.234 140.443 146.001 140.082L142.642 142.253C143.317 143.299 144.254 144.077 145.395 144.577L146.998 140.912ZM146.001 140.082C145.809 139.786 145.639 139.298 145.639 138.483H141.639C141.639 139.842 141.924 141.143 142.642 142.253L146.001 140.082ZM145.639 138.483C145.639 137.809 145.755 137.359 145.898 137.063L142.297 135.322C141.829 136.29 141.639 137.367 141.639 138.483H145.639ZM145.902 137.055C146.073 136.698 146.293 136.436 146.566 136.234L144.186 133.019C143.365 133.626 142.733 134.409 142.293 135.33L145.902 137.055ZM146.566 136.234C146.905 135.983 147.323 135.772 147.847 135.618L146.719 131.781C145.794 132.053 144.941 132.46 144.186 133.019L146.566 136.234ZM147.842 135.62C148.427 135.45 149.077 135.333 149.799 135.278L149.497 131.29C148.529 131.363 147.602 131.523 146.724 131.779L147.842 135.62ZM149.803 135.278C150.749 135.205 151.559 135.113 152.207 134.997L151.5 131.06C151.04 131.142 150.379 131.221 149.493 131.29L149.803 135.278ZM152.226 134.993C152.874 134.87 153.642 134.656 154.26 134.197L151.875 130.986C151.956 130.926 151.985 130.927 151.901 130.957C151.823 130.985 151.689 131.024 151.48 131.064L152.226 134.993ZM154.289 134.175C155.026 133.607 155.441 132.771 155.441 131.835H151.441C151.441 131.719 151.466 131.553 151.554 131.374C151.641 131.196 151.757 131.077 151.846 131.008L154.289 134.175ZM155.441 131.835V131.793H151.441V131.835H155.441ZM155.441 131.793C155.441 130.766 155 129.802 154.093 129.171L151.808 132.454C151.722 132.394 151.61 132.285 151.529 132.122C151.451 131.965 151.441 131.838 151.441 131.793H155.441ZM154.093 129.171C153.347 128.652 152.497 128.472 151.693 128.472V132.472C151.803 132.472 151.856 132.484 151.868 132.487C151.876 132.489 151.85 132.483 151.808 132.454L154.093 129.171ZM151.693 128.472C150.842 128.472 149.95 128.661 149.172 129.206L151.466 132.483C151.437 132.503 151.426 132.502 151.453 132.495C151.483 132.487 151.559 132.472 151.693 132.472V128.472ZM149.179 129.201C148.282 129.824 147.842 130.749 147.71 131.684L151.671 132.242C151.678 132.19 151.683 132.218 151.645 132.285C151.603 132.36 151.537 132.434 151.459 132.488L149.179 129.201ZM149.691 129.963H144.279V133.963H149.691V129.963ZM146.274 132.106C146.32 131.462 146.519 130.88 146.889 130.327L143.565 128.102C142.813 129.225 142.38 130.475 142.284 131.821L146.274 132.106ZM146.887 130.33C147.218 129.838 147.737 129.382 148.551 129.005L146.867 125.376C145.508 126.007 144.372 126.901 143.567 128.099L146.887 130.33ZM148.561 129C149.304 128.65 150.348 128.423 151.779 128.423V124.423C149.957 124.423 148.287 124.708 146.857 125.381L148.561 129ZM151.779 128.423C152.796 128.423 153.65 128.544 154.361 128.756L155.503 124.922C154.353 124.58 153.105 124.423 151.779 124.423V128.423ZM154.375 128.76C155.116 128.974 155.68 129.258 156.108 129.579L158.508 126.379C157.629 125.72 156.609 125.243 155.489 124.918L154.375 128.76ZM156.119 129.587C156.554 129.908 156.839 130.251 157.026 130.608L160.572 128.758C160.077 127.809 159.369 127.015 158.497 126.37L156.119 129.587ZM157.038 130.631C157.224 130.976 157.321 131.352 157.321 131.793H161.321C161.321 130.714 161.071 129.683 160.56 128.735L157.038 130.631ZM157.321 131.793V143H161.321V131.793H157.321ZM159.321 141H153.824V145H159.321V141ZM155.824 143V140.699H151.824V143H155.824ZM153.824 138.699H153.696V142.699H153.824V138.699ZM151.933 139.756C151.714 140.165 151.48 140.436 151.251 140.62L153.755 143.739C154.464 143.17 155.025 142.455 155.46 141.642L151.933 139.756ZM151.239 140.63C150.997 140.827 150.713 140.978 150.366 141.077L151.465 144.923C152.312 144.681 153.086 144.285 153.767 143.73L151.239 140.63ZM150.36 141.079C149.977 141.19 149.517 141.256 148.966 141.256V145.256C149.836 145.256 150.675 145.151 151.471 144.921L150.36 141.079ZM150.884 141.548C151.616 141.548 152.328 141.395 152.996 141.079L151.286 137.463C151.172 137.517 151.046 137.548 150.884 137.548V141.548ZM152.983 141.085C153.686 140.759 154.283 140.272 154.738 139.635L151.483 137.31C151.441 137.369 151.391 137.414 151.299 137.457L152.983 141.085ZM154.738 139.635C155.266 138.895 155.483 138.049 155.483 137.205H151.483C151.483 137.286 151.473 137.324 151.471 137.33C151.47 137.333 151.471 137.332 151.473 137.326C151.476 137.321 151.479 137.315 151.483 137.31L154.738 139.635ZM155.483 137.205V135.841H151.483V137.205H155.483ZM152.726 133.99C152.623 134.032 152.506 134.075 152.373 134.117L153.592 137.927C153.814 137.856 154.031 137.778 154.24 137.692L152.726 133.99ZM152.35 134.125C152.234 134.163 152.099 134.203 151.943 134.242L152.914 138.122C153.155 138.062 153.39 137.994 153.615 137.919L152.35 134.125ZM151.927 134.246C151.78 134.284 151.615 134.321 151.431 134.357L152.191 138.284C152.447 138.234 152.694 138.179 152.93 138.118L151.927 134.246ZM151.418 134.359C151.239 134.395 151.046 134.429 150.84 134.46L151.439 138.415C151.702 138.375 151.956 138.331 152.203 138.281L151.418 134.359ZM150.831 134.461C150.224 134.556 149.603 134.73 149.042 135.045L150.999 138.533C151.021 138.521 151.146 138.461 151.448 138.414L150.831 134.461ZM149.057 135.037C148.522 135.331 148.026 135.753 147.671 136.338L151.092 138.412C151.06 138.465 151.025 138.504 150.999 138.527C150.975 138.549 150.966 138.552 150.985 138.541L149.057 135.037ZM147.662 136.354C147.33 136.913 147.179 137.526 147.179 138.142H151.179C151.179 138.16 151.177 138.197 151.164 138.248C151.15 138.299 151.129 138.35 151.101 138.396L147.662 136.354ZM147.179 138.142C147.179 139.127 147.561 140.108 148.453 140.782L150.864 137.59C150.956 137.659 151.052 137.769 151.117 137.909C151.177 138.042 151.179 138.134 151.179 138.142H147.179ZM148.453 140.782C149.196 141.343 150.058 141.548 150.884 141.548V137.548C150.796 137.548 150.764 137.538 150.772 137.54C150.776 137.541 150.788 137.545 150.806 137.554C150.824 137.563 150.844 137.575 150.864 137.59L148.453 140.782ZM168.012 133.795L166.012 133.769L166.012 133.782V133.795H168.012ZM168.012 143V145H170.012V143H168.012ZM162.131 143H160.131V145H162.131V143ZM162.131 126.636V124.636H160.131V126.636H162.131ZM167.714 126.636H169.714V124.636H167.714V126.636ZM167.714 129.747H165.714V131.747H167.714V129.747ZM167.884 129.747V131.747H169.313L169.776 130.395L167.884 129.747ZM169.759 127.308L168.665 125.633L168.659 125.637L169.759 127.308ZM175.927 127.222L174.867 128.918L174.876 128.923L174.884 128.929L175.927 127.222ZM177.919 129.396L176.136 130.301L176.142 130.312L177.919 129.396ZM178.623 132.56L176.623 132.548V132.56H178.623ZM178.623 143V145H180.623V143H178.623ZM172.742 143H170.742V145H172.742V143ZM172.742 133.795L170.742 133.778L170.742 133.787V133.795H172.742ZM172.124 131.888L170.632 133.22L170.637 133.226L170.643 133.233L172.124 131.888ZM169.13 131.516L170.134 133.246L170.144 133.239L169.13 131.516ZM168.31 132.411L170.099 133.305L170.102 133.298L170.105 133.292L168.31 132.411ZM166.012 133.795V143H170.012V133.795H166.012ZM168.012 141H162.131V145H168.012V141ZM164.131 143V126.636H160.131V143H164.131ZM162.131 128.636H167.714V124.636H162.131V128.636ZM165.714 126.636V129.747H169.714V126.636H165.714ZM167.714 131.747H167.884V127.747H167.714V131.747ZM169.776 130.395C169.991 129.767 170.343 129.318 170.859 128.978L168.659 125.637C167.385 126.476 166.487 127.654 165.992 129.099L169.776 130.395ZM170.853 128.982C171.393 128.629 172.055 128.423 172.912 128.423V124.423C171.369 124.423 169.928 124.807 168.665 125.633L170.853 128.982ZM172.912 128.423C173.753 128.423 174.379 128.613 174.867 128.918L176.987 125.526C175.771 124.766 174.387 124.423 172.912 124.423V128.423ZM174.884 128.929C175.418 129.255 175.83 129.698 176.136 130.301L179.703 128.49C179.071 127.246 178.155 126.241 176.971 125.516L174.884 128.929ZM176.142 130.312C176.45 130.91 176.628 131.638 176.623 132.548L180.623 132.572C180.631 131.109 180.341 129.728 179.697 128.479L176.142 130.312ZM176.623 132.56V143H180.623V132.56H176.623ZM178.623 141H172.742V145H178.623V141ZM174.742 143V133.795H170.742V143H174.742ZM174.742 133.813C174.752 132.655 174.453 131.479 173.605 130.544L170.643 133.233C170.649 133.239 170.668 133.26 170.69 133.328C170.714 133.403 170.744 133.544 170.742 133.778L174.742 133.813ZM173.616 130.557C172.751 129.588 171.586 129.196 170.398 129.196V133.196C170.56 133.196 170.629 133.221 170.639 133.225C170.644 133.227 170.642 133.227 170.636 133.223C170.63 133.219 170.629 133.216 170.632 133.22L173.616 130.557ZM170.398 129.196C169.613 129.196 168.829 129.372 168.116 129.792L170.144 133.239C170.156 133.233 170.218 133.196 170.398 133.196V129.196ZM168.127 129.786C167.409 130.202 166.87 130.806 166.515 131.529L170.105 133.292C170.115 133.273 170.122 133.261 170.127 133.254C170.129 133.251 170.131 133.248 170.132 133.247C170.133 133.246 170.133 133.245 170.133 133.245C170.133 133.245 170.133 133.246 170.133 133.246C170.132 133.247 170.131 133.247 170.131 133.247C170.13 133.248 170.13 133.248 170.134 133.246L168.127 129.786ZM166.521 131.516C166.164 132.23 166.022 133.004 166.012 133.769L170.012 133.822C170.016 133.508 170.072 133.358 170.099 133.305L166.521 131.516ZM184.232 142.297L183.168 143.991L183.174 143.994L184.232 142.297ZM181.888 139.516L180.077 140.365L180.081 140.373L181.888 139.516ZM181.93 130.003L180.142 129.108L180.138 129.117L181.93 130.003ZM184.317 127.286L183.304 125.561L183.299 125.565L184.317 127.286ZM189.537 126.849L188.694 128.663L188.702 128.667L188.711 128.671L189.537 126.849ZM191.071 127.968L189.569 129.288L189.574 129.294L189.579 129.3L191.071 127.968ZM192.009 129.491L190.142 130.209L190.635 131.491H192.009V129.491ZM192.094 129.491V131.491H194.094V129.491H192.094ZM192.094 121.182V119.182H190.094V121.182H192.094ZM197.975 121.182H199.975V119.182H197.975V121.182ZM197.975 143V145H199.975V143H197.975ZM192.136 143H190.136V145H192.136V143ZM192.136 140.315H194.136V138.315H192.136V140.315ZM192.009 140.315V138.315H190.667L190.158 139.556L192.009 140.315ZM191.028 141.807L189.591 140.416L189.591 140.416L191.028 141.807ZM189.494 142.84L190.264 144.686L190.274 144.682L189.494 142.84ZM191.007 138.227L192.271 139.778L192.274 139.775L191.007 138.227ZM191.902 136.885L190.024 136.198L190.019 136.211L191.902 136.885ZM191.902 132.741L190.017 133.408L190.021 133.422L190.027 133.435L191.902 132.741ZM191.007 131.409L189.744 132.96L189.759 132.972L189.775 132.985L191.007 131.409ZM188.237 131.409L189.497 132.962L189.501 132.96L188.237 131.409ZM187.364 132.741L185.478 132.074L185.476 132.081L185.473 132.087L187.364 132.741ZM187.364 136.906L185.471 137.553L185.476 137.567L185.481 137.58L187.364 136.906ZM188.237 138.238L186.96 139.777L186.975 139.79L186.991 139.802L188.237 138.238ZM187.449 141.213C186.655 141.213 185.949 141.011 185.289 140.599L183.174 143.994C184.474 144.805 185.914 145.213 187.449 145.213V141.213ZM185.295 140.603C184.703 140.232 184.154 139.627 183.695 138.659L180.081 140.373C180.801 141.892 181.814 143.141 183.168 143.991L185.295 140.603ZM183.699 138.668C183.279 137.771 183.014 136.518 183.014 134.818H179.014C179.014 136.897 179.332 138.776 180.077 140.365L183.699 138.668ZM183.014 134.818C183.014 133.027 183.295 131.756 183.723 130.889L180.138 129.117C179.345 130.721 179.014 132.66 179.014 134.818H183.014ZM183.719 130.897C184.204 129.929 184.76 129.348 185.335 129.008L183.299 125.565C181.928 126.375 180.893 127.605 180.142 129.108L183.719 130.897ZM185.329 129.011C186.019 128.606 186.702 128.423 187.406 128.423V124.423C185.952 124.423 184.575 124.816 183.304 125.561L185.329 129.011ZM187.406 128.423C187.983 128.423 188.395 128.524 188.694 128.663L190.38 125.036C189.458 124.607 188.449 124.423 187.406 124.423V128.423ZM188.711 128.671C189.083 128.84 189.358 129.048 189.569 129.288L192.573 126.648C191.96 125.95 191.213 125.413 190.363 125.028L188.711 128.671ZM189.579 129.3C189.837 129.589 190.019 129.89 190.142 130.209L193.875 128.774C193.572 127.985 193.129 127.271 192.563 126.636L189.579 129.3ZM192.009 131.491H192.094V127.491H192.009V131.491ZM194.094 129.491V121.182H190.094V129.491H194.094ZM192.094 123.182H197.975V119.182H192.094V123.182ZM195.975 121.182V143H199.975V121.182H195.975ZM197.975 141H192.136V145H197.975V141ZM194.136 143V140.315H190.136V143H194.136ZM192.136 138.315H192.009V142.315H192.136V138.315ZM190.158 139.556C190.03 139.87 189.845 140.154 189.591 140.416L192.466 143.198C193.064 142.579 193.533 141.869 193.859 141.074L190.158 139.556ZM189.591 140.416C189.374 140.64 189.093 140.838 188.714 140.999L190.274 144.682C191.103 144.331 191.845 143.84 192.466 143.197L189.591 140.416ZM188.725 140.994C188.413 141.124 188 141.213 187.449 141.213V145.213C188.432 145.213 189.382 145.054 190.264 144.686L188.725 140.994ZM189.622 140.696C190.578 140.696 191.497 140.408 192.271 139.778L189.744 136.677C189.74 136.68 189.738 136.681 189.737 136.682C189.736 136.683 189.735 136.683 189.735 136.683C189.735 136.683 189.735 136.683 189.735 136.683C189.734 136.684 189.734 136.684 189.732 136.684C189.729 136.686 189.697 136.696 189.622 136.696V140.696ZM192.274 139.775C192.999 139.182 193.483 138.404 193.785 137.559L190.019 136.211C189.91 136.516 189.796 136.634 189.741 136.679L192.274 139.775ZM193.78 137.572C194.093 136.717 194.222 135.785 194.222 134.818H190.222C190.222 135.442 190.137 135.888 190.024 136.198L193.78 137.572ZM194.222 134.818C194.222 133.843 194.095 132.902 193.778 132.046L190.027 133.435C190.136 133.73 190.222 134.174 190.222 134.818H194.222ZM193.788 132.074C193.486 131.221 192.996 130.425 192.239 129.833L189.775 132.985C189.8 133.004 189.906 133.096 190.017 133.408L193.788 132.074ZM192.271 129.859C191.497 129.228 190.578 128.94 189.622 128.94V132.94C189.697 132.94 189.729 132.951 189.732 132.952C189.734 132.952 189.734 132.953 189.735 132.953C189.735 132.953 189.735 132.953 189.735 132.953C189.735 132.953 189.736 132.953 189.737 132.954C189.738 132.955 189.74 132.957 189.744 132.96L192.271 129.859ZM189.622 128.94C188.667 128.94 187.748 129.228 186.974 129.859L189.501 132.96C189.504 132.957 189.506 132.955 189.508 132.954C189.509 132.953 189.51 132.953 189.51 132.953C189.51 132.953 189.51 132.953 189.51 132.953C189.51 132.953 189.511 132.952 189.512 132.952C189.516 132.951 189.547 132.94 189.622 132.94V128.94ZM186.977 129.856C186.246 130.449 185.774 131.238 185.478 132.074L189.249 133.408C189.366 133.079 189.476 132.98 189.497 132.962L186.977 129.856ZM185.473 132.087C185.182 132.929 185.065 133.855 185.065 134.818H189.065C189.065 134.162 189.147 133.703 189.254 133.394L185.473 132.087ZM185.065 134.818C185.065 135.782 185.183 136.708 185.471 137.553L189.256 136.26C189.147 135.94 189.065 135.473 189.065 134.818H185.065ZM185.481 137.58C185.778 138.41 186.247 139.185 186.96 139.777L189.515 136.699C189.475 136.666 189.362 136.553 189.247 136.232L185.481 137.58ZM186.991 139.802C187.765 140.419 188.678 140.696 189.622 140.696V136.696C189.542 136.696 189.506 136.685 189.499 136.683C189.494 136.681 189.492 136.68 189.483 136.673L186.991 139.802ZM103.794 164.182H105.794V162.182H103.794V164.182ZM103.794 186V188H105.794V186H103.794ZM97.8711 186H95.8711V188H97.8711V186ZM97.8711 164.182V162.182H95.8711V164.182H97.8711ZM101.794 164.182V186H105.794V164.182H101.794ZM103.794 184H97.8711V188H103.794V184ZM99.8711 186V164.182H95.8711V186H99.8711ZM97.8711 166.182H103.794V162.182H97.8711V166.182ZM109.393 185.297L108.329 186.991L108.335 186.994L109.393 185.297ZM107.049 182.516L105.238 183.365L105.242 183.373L107.049 182.516ZM107.092 173.003L105.303 172.108L105.299 172.117L107.092 173.003ZM109.478 170.286L108.466 168.561L108.46 168.565L109.478 170.286ZM114.698 169.849L113.855 171.663L113.863 171.667L113.872 171.671L114.698 169.849ZM116.232 170.968L114.73 172.288L114.735 172.294L114.74 172.3L116.232 170.968ZM117.17 172.491L115.303 173.209L115.796 174.491H117.17V172.491ZM117.255 172.491V174.491H119.255V172.491H117.255ZM117.255 164.182V162.182H115.255V164.182H117.255ZM123.136 164.182H125.136V162.182H123.136V164.182ZM123.136 186V188H125.136V186H123.136ZM117.298 186H115.298V188H117.298V186ZM117.298 183.315H119.298V181.315H117.298V183.315ZM117.17 183.315V181.315H115.828L115.319 182.556L117.17 183.315ZM116.19 184.807L114.752 183.416L114.752 183.416L116.19 184.807ZM114.656 185.84L115.425 187.686L115.436 187.682L114.656 185.84ZM116.168 181.227L117.432 182.778L117.435 182.775L116.168 181.227ZM117.063 179.885L115.185 179.198L115.18 179.211L117.063 179.885ZM117.063 175.741L115.178 176.408L115.183 176.422L115.188 176.435L117.063 175.741ZM116.168 174.409L114.905 175.96L114.921 175.972L114.936 175.985L116.168 174.409ZM113.398 174.409L114.659 175.962L114.662 175.96L113.398 174.409ZM112.525 175.741L110.639 175.074L110.637 175.081L110.635 175.087L112.525 175.741ZM112.525 179.906L110.632 180.553L110.637 180.567L110.642 180.58L112.525 179.906ZM113.398 181.238L112.121 182.777L112.137 182.79L112.153 182.802L113.398 181.238ZM112.61 184.213C111.816 184.213 111.11 184.011 110.451 183.599L108.335 186.994C109.635 187.805 111.075 188.213 112.61 188.213V184.213ZM110.456 183.603C109.864 183.232 109.315 182.627 108.856 181.659L105.242 183.373C105.962 184.892 106.975 186.141 108.329 186.991L110.456 183.603ZM108.86 181.668C108.44 180.771 108.175 179.518 108.175 177.818H104.175C104.175 179.897 104.494 181.776 105.238 183.365L108.86 181.668ZM108.175 177.818C108.175 176.027 108.456 174.756 108.885 173.889L105.299 172.117C104.506 173.721 104.175 175.66 104.175 177.818H108.175ZM108.88 173.897C109.365 172.929 109.921 172.348 110.496 172.008L108.46 168.565C107.089 169.375 106.054 170.605 105.303 172.108L108.88 173.897ZM110.49 172.011C111.18 171.606 111.863 171.423 112.567 171.423V167.423C111.113 167.423 109.736 167.816 108.466 168.561L110.49 172.011ZM112.567 171.423C113.144 171.423 113.556 171.524 113.855 171.663L115.542 168.036C114.619 167.607 113.611 167.423 112.567 167.423V171.423ZM113.872 171.671C114.244 171.84 114.519 172.048 114.73 172.288L117.735 169.648C117.122 168.95 116.374 168.413 115.524 168.028L113.872 171.671ZM114.74 172.3C114.998 172.589 115.18 172.89 115.303 173.209L119.036 171.774C118.733 170.985 118.29 170.271 117.725 169.636L114.74 172.3ZM117.17 174.491H117.255V170.491H117.17V174.491ZM119.255 172.491V164.182H115.255V172.491H119.255ZM117.255 166.182H123.136V162.182H117.255V166.182ZM121.136 164.182V186H125.136V164.182H121.136ZM123.136 184H117.298V188H123.136V184ZM119.298 186V183.315H115.298V186H119.298ZM117.298 181.315H117.17V185.315H117.298V181.315ZM115.319 182.556C115.191 182.87 115.006 183.154 114.752 183.416L117.627 186.198C118.225 185.579 118.694 184.869 119.02 184.074L115.319 182.556ZM114.752 183.416C114.536 183.64 114.254 183.838 113.876 183.999L115.436 187.682C116.265 187.331 117.006 186.84 117.627 186.197L114.752 183.416ZM113.886 183.994C113.575 184.124 113.162 184.213 112.61 184.213V188.213C113.593 188.213 114.543 188.054 115.425 187.686L113.886 183.994ZM114.783 183.696C115.739 183.696 116.658 183.408 117.432 182.778L114.905 179.677C114.902 179.68 114.899 179.681 114.898 179.682C114.897 179.683 114.896 179.683 114.896 179.683C114.896 179.683 114.896 179.683 114.896 179.683C114.896 179.684 114.895 179.684 114.893 179.684C114.89 179.686 114.858 179.696 114.783 179.696V183.696ZM117.435 182.775C118.16 182.182 118.644 181.404 118.946 180.559L115.18 179.211C115.071 179.516 114.958 179.634 114.902 179.679L117.435 182.775ZM118.941 180.572C119.254 179.717 119.383 178.785 119.383 177.818H115.383C115.383 178.442 115.298 178.888 115.185 179.198L118.941 180.572ZM119.383 177.818C119.383 176.843 119.256 175.902 118.939 175.046L115.188 176.435C115.297 176.73 115.383 177.174 115.383 177.818H119.383ZM118.949 175.074C118.647 174.221 118.157 173.425 117.4 172.833L114.936 175.985C114.961 176.004 115.067 176.096 115.178 176.408L118.949 175.074ZM117.432 172.859C116.658 172.228 115.739 171.94 114.783 171.94V175.94C114.858 175.94 114.89 175.951 114.893 175.952C114.895 175.952 114.896 175.953 114.896 175.953C114.896 175.953 114.896 175.953 114.896 175.953C114.896 175.953 114.897 175.953 114.898 175.954C114.899 175.955 114.902 175.957 114.905 175.96L117.432 172.859ZM114.783 171.94C113.828 171.94 112.909 172.228 112.135 172.859L114.662 175.96C114.665 175.957 114.667 175.955 114.669 175.954C114.67 175.953 114.671 175.953 114.671 175.953C114.671 175.953 114.671 175.953 114.671 175.953C114.671 175.953 114.672 175.952 114.674 175.952C114.677 175.951 114.708 175.94 114.783 175.94V171.94ZM112.138 172.856C111.407 173.449 110.935 174.238 110.639 175.074L114.41 176.408C114.527 176.079 114.637 175.98 114.659 175.962L112.138 172.856ZM110.635 175.087C110.344 175.929 110.227 176.855 110.227 177.818H114.227C114.227 177.162 114.308 176.703 114.415 176.394L110.635 175.087ZM110.227 177.818C110.227 178.782 110.344 179.708 110.632 180.553L114.418 179.26C114.308 178.94 114.227 178.473 114.227 177.818H110.227ZM110.642 180.58C110.939 181.41 111.408 182.185 112.121 182.777L114.676 179.699C114.636 179.666 114.523 179.553 114.408 179.232L110.642 180.58ZM112.153 182.802C112.926 183.419 113.84 183.696 114.783 183.696V179.696C114.704 179.696 114.668 179.685 114.66 179.683C114.655 179.681 114.653 179.68 114.644 179.673L112.153 182.802ZM129.347 185.297L128.401 187.059L128.413 187.065L129.347 185.297ZM126.438 182.399L124.674 183.341L124.68 183.353L126.438 182.399ZM126.449 173.429L128.209 174.378L128.209 174.378L126.449 173.429ZM129.336 170.478L130.321 172.219L130.321 172.219L129.336 170.478ZM137.092 169.999L137.807 168.131L137.807 168.131L137.092 169.999ZM139.659 171.671L138.224 173.064L138.231 173.071L139.659 171.671ZM141.3 174.313L139.424 175.007L139.424 175.007L141.3 174.313ZM141.875 179.182V181.182H143.875V179.182H141.875ZM127.259 179.182H125.259V181.182H127.259V179.182ZM127.259 175.943V173.943H125.259V175.943H127.259ZM136.463 175.943V177.943H138.494L138.463 175.913L136.463 175.943ZM136.101 174.707L134.407 175.77L134.419 175.79L134.432 175.809L136.101 174.707ZM135.174 173.866L134.228 175.628L134.247 175.638L134.267 175.648L135.174 173.866ZM132.553 173.866L133.448 175.655L133.46 175.648L133.473 175.642L132.553 173.866ZM131.594 174.697L129.941 173.572L129.933 173.584L129.925 173.595L131.594 174.697ZM131.222 175.943L129.222 175.884L129.222 175.913V175.943H131.222ZM131.552 180.844L129.788 181.787L129.788 181.787L131.552 180.844ZM132.5 181.813L131.511 183.552L131.511 183.552L132.5 181.813ZM135.099 181.994L134.467 180.097L134.455 180.101L135.099 181.994ZM135.973 181.504L137.296 183.004L137.308 182.993L137.321 182.982L135.973 181.504ZM136.506 180.716V178.716H135.116L134.631 180.018L136.506 180.716ZM141.875 180.716L143.849 181.037L144.226 178.716H141.875V180.716ZM140.565 183.678L142.104 184.954L142.11 184.948L140.565 183.678ZM137.827 185.616L138.574 187.472L138.579 187.469L137.827 185.616ZM133.864 184.298C132.371 184.298 131.2 184.014 130.281 183.528L128.413 187.065C130.022 187.915 131.862 188.298 133.864 188.298V184.298ZM130.292 183.535C129.38 183.045 128.693 182.361 128.196 181.446L124.68 183.353C125.548 184.952 126.799 186.199 128.401 187.059L130.292 183.535ZM128.203 181.457C127.714 180.542 127.426 179.368 127.426 177.861H123.426C123.426 179.876 123.813 181.728 124.674 183.341L128.203 181.457ZM127.426 177.861C127.426 176.443 127.71 175.303 128.209 174.378L124.689 172.48C123.824 174.083 123.426 175.898 123.426 177.861H127.426ZM128.209 174.378C128.713 173.444 129.408 172.735 130.321 172.219L128.351 168.737C126.778 169.627 125.548 170.886 124.689 172.48L128.209 174.378ZM130.321 172.219C131.212 171.714 132.327 171.423 133.736 171.423V167.423C131.764 167.423 129.945 167.835 128.351 168.737L130.321 172.219ZM133.736 171.423C134.764 171.423 135.635 171.582 136.376 171.866L137.807 168.131C136.545 167.648 135.179 167.423 133.736 167.423V171.423ZM136.376 171.866C137.121 172.151 137.727 172.552 138.224 173.064L141.094 170.278C140.171 169.327 139.065 168.613 137.807 168.131L136.376 171.866ZM138.231 173.071C138.727 173.577 139.129 174.21 139.424 175.007L143.176 173.619C142.703 172.342 142.012 171.214 141.087 170.271L138.231 173.071ZM139.424 175.007C139.712 175.787 139.875 176.715 139.875 177.818H143.875C143.875 176.322 143.654 174.914 143.176 173.619L139.424 175.007ZM139.875 177.818V179.182H143.875V177.818H139.875ZM141.875 177.182H127.259V181.182H141.875V177.182ZM129.259 179.182V175.943H125.259V179.182H129.259ZM127.259 177.943H136.463V173.943H127.259V177.943ZM138.463 175.913C138.451 175.103 138.236 174.311 137.77 173.606L134.432 175.809C134.435 175.814 134.461 175.846 134.463 175.973L138.463 175.913ZM137.795 173.644C137.37 172.968 136.786 172.442 136.081 172.083L134.267 175.648C134.343 175.687 134.377 175.723 134.407 175.77L137.795 173.644ZM136.12 172.104C135.411 171.723 134.642 171.557 133.864 171.557V175.557C134.066 175.557 134.17 175.597 134.228 175.628L136.12 172.104ZM133.864 171.557C133.088 171.557 132.333 171.727 131.634 172.09L133.473 175.642C133.569 175.592 133.687 175.557 133.864 175.557V171.557ZM131.659 172.077C130.967 172.423 130.381 172.924 129.941 173.572L133.248 175.821C133.291 175.759 133.344 175.706 133.448 175.655L131.659 172.077ZM129.925 173.595C129.463 174.296 129.246 175.082 129.222 175.884L133.221 176.003C133.225 175.853 133.258 175.808 133.264 175.798L129.925 173.595ZM129.222 175.943V179.438H133.222V175.943H129.222ZM129.222 179.438C129.222 180.25 129.394 181.05 129.788 181.787L133.316 179.901C133.269 179.814 133.222 179.676 133.222 179.438H129.222ZM129.788 181.787C130.189 182.537 130.776 183.133 131.511 183.552L133.489 180.075C133.4 180.024 133.355 179.975 133.316 179.901L129.788 181.787ZM131.511 183.552C132.286 183.993 133.141 184.165 133.991 184.165V180.165C133.677 180.165 133.538 180.103 133.489 180.075L131.511 183.552ZM133.991 184.165C134.584 184.165 135.174 184.082 135.744 183.888L134.455 180.101C134.357 180.134 134.209 180.165 133.991 180.165V184.165ZM135.732 183.892C136.298 183.703 136.831 183.414 137.296 183.004L134.65 180.005C134.632 180.021 134.583 180.058 134.467 180.097L135.732 183.892ZM137.321 182.982C137.797 182.548 138.155 182.018 138.38 181.413L134.631 180.018C134.63 180.021 134.63 180.022 134.629 180.023C134.629 180.024 134.629 180.025 134.629 180.025C134.629 180.025 134.629 180.025 134.629 180.024C134.629 180.024 134.63 180.023 134.63 180.022C134.631 180.021 134.632 180.02 134.631 180.02C134.631 180.021 134.63 180.023 134.626 180.026L137.321 182.982ZM136.506 182.716H141.875V178.716H136.506V182.716ZM139.901 180.395C139.769 181.205 139.47 181.859 139.02 182.408L142.11 184.948C143.037 183.82 143.611 182.5 143.849 181.037L139.901 180.395ZM139.025 182.401C138.574 182.945 137.947 183.409 137.074 183.764L138.579 187.469C139.98 186.901 141.177 186.072 142.104 184.954L139.025 182.401ZM137.08 183.761C136.238 184.1 135.181 184.298 133.864 184.298V188.298C135.572 188.298 137.157 188.042 138.574 187.472L137.08 183.761ZM150.155 176.795L148.156 176.769L148.155 176.782V176.795H150.155ZM150.155 186V188H152.155V186H150.155ZM144.275 186H142.275V188H144.275V186ZM144.275 169.636V167.636H142.275V169.636H144.275ZM149.857 169.636H151.857V167.636H149.857V169.636ZM149.857 172.747H147.857V174.747H149.857V172.747ZM150.028 172.747V174.747H151.457L151.92 173.395L150.028 172.747ZM151.903 170.308L150.808 168.633L150.802 168.637L151.903 170.308ZM158.071 170.222L157.011 171.918L157.019 171.923L157.027 171.929L158.071 170.222ZM160.063 172.396L158.28 173.301L158.285 173.312L160.063 172.396ZM160.766 175.56L158.766 175.548V175.56H160.766ZM160.766 186V188H162.766V186H160.766ZM154.885 186H152.885V188H154.885V186ZM154.885 176.795L152.886 176.778L152.885 176.787V176.795H154.885ZM154.268 174.888L152.775 176.22L152.781 176.226L152.787 176.233L154.268 174.888ZM151.274 174.516L152.277 176.246L152.288 176.239L151.274 174.516ZM150.454 175.411L152.243 176.305L152.246 176.298L152.249 176.292L150.454 175.411ZM148.155 176.795V186H152.155V176.795H148.155ZM150.155 184H144.275V188H150.155V184ZM146.275 186V169.636H142.275V186H146.275ZM144.275 171.636H149.857V167.636H144.275V171.636ZM147.857 169.636V172.747H151.857V169.636H147.857ZM149.857 174.747H150.028V170.747H149.857V174.747ZM151.92 173.395C152.135 172.767 152.487 172.318 153.003 171.978L150.802 168.637C149.529 169.476 148.63 170.654 148.135 172.099L151.92 173.395ZM152.997 171.982C153.537 171.629 154.198 171.423 155.056 171.423V167.423C153.513 167.423 152.072 167.807 150.808 168.633L152.997 171.982ZM155.056 171.423C155.897 171.423 156.522 171.613 157.011 171.918L159.131 168.526C157.915 167.766 156.53 167.423 155.056 167.423V171.423ZM157.027 171.929C157.562 172.255 157.974 172.698 158.28 173.301L161.846 171.49C161.215 170.246 160.299 169.241 159.114 168.516L157.027 171.929ZM158.285 173.312C158.593 173.91 158.772 174.638 158.766 175.548L162.766 175.572C162.775 174.109 162.484 172.728 161.841 171.479L158.285 173.312ZM158.766 175.56V186H162.766V175.56H158.766ZM160.766 184H154.885V188H160.766V184ZM156.885 186V176.795H152.885V186H156.885ZM156.885 176.813C156.896 175.655 156.597 174.479 155.748 173.544L152.787 176.233C152.792 176.239 152.812 176.26 152.834 176.328C152.858 176.403 152.888 176.544 152.886 176.778L156.885 176.813ZM155.76 173.557C154.895 172.588 153.73 172.196 152.542 172.196V176.196C152.704 176.196 152.772 176.221 152.782 176.225C152.788 176.227 152.785 176.227 152.779 176.223C152.774 176.219 152.772 176.216 152.775 176.22L155.76 173.557ZM152.542 172.196C151.756 172.196 150.973 172.372 150.26 172.792L152.288 176.239C152.299 176.233 152.361 176.196 152.542 176.196V172.196ZM150.271 172.786C149.552 173.202 149.013 173.806 148.658 174.529L152.249 176.292C152.258 176.273 152.266 176.261 152.27 176.254C152.273 176.251 152.274 176.248 152.275 176.247C152.276 176.246 152.277 176.245 152.277 176.245C152.277 176.245 152.277 176.246 152.276 176.246C152.276 176.247 152.275 176.247 152.274 176.247C152.273 176.248 152.274 176.248 152.277 176.246L150.271 172.786ZM148.665 174.516C148.308 175.23 148.166 176.004 148.156 176.769L152.155 176.822C152.159 176.508 152.216 176.358 152.243 176.305L148.665 174.516ZM173.428 169.636H175.428V167.636H173.428V169.636ZM173.428 173.898V175.898H175.428V173.898H173.428ZM162.646 173.898H160.646V175.898H162.646V173.898ZM162.646 169.636V167.636H160.646V169.636H162.646ZM164.735 165.716V163.716H162.735V165.716H164.735ZM170.615 165.716H172.615V163.716H170.615V165.716ZM170.732 181.312L168.944 182.207L168.952 182.224L168.961 182.241L170.732 181.312ZM171.095 181.653L170.232 183.458L170.264 183.473L170.297 183.488L171.095 181.653ZM172.341 181.696L171.994 179.726L171.983 179.728L172.341 181.696ZM172.874 181.589L174.833 181.186L174.411 179.144L172.389 179.649L172.874 181.589ZM173.726 185.723L174.296 187.64L176.056 187.117L175.685 185.319L173.726 185.723ZM172.597 186.011L172.145 184.062L172.139 184.064L172.597 186.011ZM170.871 186.234L170.976 188.232L170.977 188.232L170.871 186.234ZM167.472 185.819L166.75 187.684L166.762 187.689L167.472 185.819ZM165.406 184.146L163.696 185.185L163.696 185.185L165.406 184.146ZM164.735 181.291L166.734 181.316L166.735 181.304V181.291H164.735ZM171.428 169.636V173.898H175.428V169.636H171.428ZM173.428 171.898H162.646V175.898H173.428V171.898ZM164.646 173.898V169.636H160.646V173.898H164.646ZM162.646 171.636H173.428V167.636H162.646V171.636ZM164.735 167.716H170.615V163.716H164.735V167.716ZM168.615 165.716V180.737H172.615V165.716H168.615ZM168.615 180.737C168.615 181.185 168.691 181.702 168.944 182.207L172.521 180.418C172.569 180.514 172.593 180.597 172.604 180.652C172.61 180.68 172.613 180.701 172.614 180.715C172.615 180.729 172.615 180.737 172.615 180.737H168.615ZM168.961 182.241C169.255 182.802 169.71 183.208 170.232 183.458L171.958 179.849C172.045 179.891 172.149 179.956 172.252 180.053C172.357 180.151 172.441 180.265 172.504 180.384L168.961 182.241ZM170.297 183.488C170.797 183.705 171.303 183.76 171.723 183.76V179.76C171.686 179.76 171.683 179.757 171.709 179.761C171.734 179.766 171.8 179.779 171.892 179.819L170.297 183.488ZM171.723 183.76C172.053 183.76 172.384 183.721 172.699 183.664L171.983 179.728C171.83 179.756 171.748 179.76 171.723 179.76V183.76ZM172.689 183.666C172.938 183.622 173.173 183.576 173.359 183.53L172.389 179.649C172.347 179.66 172.227 179.685 171.994 179.726L172.689 183.666ZM170.915 181.993L171.767 186.127L175.685 185.319L174.833 181.186L170.915 181.993ZM173.156 183.806C172.952 183.867 172.622 183.952 172.145 184.062L173.049 187.959C173.551 187.842 173.974 187.736 174.296 187.64L173.156 183.806ZM172.139 184.064C171.803 184.143 171.352 184.206 170.765 184.237L170.977 188.232C171.725 188.192 172.424 188.106 173.055 187.957L172.139 184.064ZM170.766 184.237C169.595 184.299 168.76 184.169 168.183 183.949L166.762 187.689C168.017 188.165 169.448 188.312 170.976 188.232L170.766 184.237ZM168.195 183.954C167.644 183.741 167.324 183.451 167.115 183.108L163.696 185.185C164.411 186.361 165.468 187.187 166.75 187.684L168.195 183.954ZM167.115 183.108C166.896 182.748 166.724 182.191 166.734 181.316L162.735 181.266C162.717 182.679 162.992 184.025 163.696 185.185L167.115 183.108ZM166.735 181.291V165.716H162.735V181.291H166.735ZM175.827 186H173.827V188H175.827V186ZM175.827 169.636V167.636H173.827V169.636H175.827ZM181.708 169.636H183.708V167.636H181.708V169.636ZM181.708 186V188H183.708V186H181.708ZM176.722 167.143L175.364 168.612L175.364 168.612L176.722 167.143ZM176.722 163.351L175.364 161.883L175.364 161.883L176.722 163.351ZM180.813 163.351L179.446 164.811L179.455 164.819L180.813 163.351ZM180.813 167.143L179.455 165.675L179.446 165.684L180.813 167.143ZM177.827 186V169.636H173.827V186H177.827ZM175.827 171.636H181.708V167.636H175.827V171.636ZM179.708 169.636V186H183.708V169.636H179.708ZM181.708 184H175.827V188H181.708V184ZM178.768 165.932C178.46 165.932 178.268 165.849 178.08 165.675L175.364 168.612C176.313 169.489 177.484 169.932 178.768 169.932V165.932ZM178.08 165.675C177.899 165.508 177.87 165.399 177.87 165.247H173.87C173.87 166.573 174.409 167.728 175.364 168.612L178.08 165.675ZM177.87 165.247C177.87 165.095 177.899 164.986 178.08 164.819L175.364 161.883C174.409 162.766 173.87 163.922 173.87 165.247H177.87ZM178.08 164.819C178.268 164.646 178.46 164.562 178.768 164.562V160.562C177.484 160.562 176.313 161.005 175.364 161.883L178.08 164.819ZM178.768 164.562C179.087 164.562 179.273 164.649 179.446 164.811L182.18 161.891C181.231 161.002 180.054 160.562 178.768 160.562V164.562ZM179.455 164.819C179.636 164.986 179.665 165.095 179.665 165.247H183.665C183.665 163.922 183.127 162.766 182.171 161.883L179.455 164.819ZM179.665 165.247C179.665 165.399 179.636 165.508 179.455 165.675L182.171 168.612C183.127 167.728 183.665 166.573 183.665 165.247H179.665ZM179.446 165.684C179.273 165.846 179.087 165.932 178.768 165.932V169.932C180.054 169.932 181.231 169.492 182.18 168.603L179.446 165.684ZM194.463 169.636H196.463V167.636H194.463V169.636ZM194.463 173.898V175.898H196.463V173.898H194.463ZM183.682 173.898H181.682V175.898H183.682V173.898ZM183.682 169.636V167.636H181.682V169.636H183.682ZM185.77 165.716V163.716H183.77V165.716H185.77ZM191.65 165.716H193.65V163.716H191.65V165.716ZM191.768 181.312L189.979 182.207L189.987 182.224L189.996 182.241L191.768 181.312ZM192.13 181.653L191.267 183.458L191.299 183.473L191.332 183.488L192.13 181.653ZM193.376 181.696L193.029 179.726L193.018 179.728L193.376 181.696ZM193.909 181.589L195.868 181.186L195.447 179.144L193.424 179.649L193.909 181.589ZM194.761 185.723L195.331 187.64L197.091 187.117L196.72 185.319L194.761 185.723ZM193.632 186.011L193.18 184.062L193.174 184.064L193.632 186.011ZM191.906 186.234L192.011 188.232L192.012 188.232L191.906 186.234ZM188.508 185.819L187.785 187.684L187.797 187.689L188.508 185.819ZM186.441 184.146L184.732 185.185L184.732 185.185L186.441 184.146ZM185.77 181.291L187.77 181.316L187.77 181.304V181.291H185.77ZM192.463 169.636V173.898H196.463V169.636H192.463ZM194.463 171.898H183.682V175.898H194.463V171.898ZM185.682 173.898V169.636H181.682V173.898H185.682ZM183.682 171.636H194.463V167.636H183.682V171.636ZM185.77 167.716H191.65V163.716H185.77V167.716ZM189.65 165.716V180.737H193.65V165.716H189.65ZM189.65 180.737C189.65 181.185 189.726 181.702 189.979 182.207L193.556 180.418C193.605 180.514 193.628 180.597 193.639 180.652C193.645 180.68 193.648 180.701 193.649 180.715C193.65 180.729 193.65 180.737 193.65 180.737H189.65ZM189.996 182.241C190.29 182.802 190.745 183.208 191.267 183.458L192.993 179.849C193.08 179.891 193.184 179.956 193.287 180.053C193.392 180.151 193.477 180.265 193.539 180.384L189.996 182.241ZM191.332 183.488C191.832 183.705 192.339 183.76 192.758 183.76V179.76C192.721 179.76 192.718 179.757 192.744 179.761C192.769 179.766 192.835 179.779 192.927 179.819L191.332 183.488ZM192.758 183.76C193.089 183.76 193.419 183.721 193.734 183.664L193.018 179.728C192.865 179.756 192.783 179.76 192.758 179.76V183.76ZM193.724 183.666C193.973 183.622 194.208 183.576 194.394 183.53L193.424 179.649C193.382 179.66 193.262 179.685 193.029 179.726L193.724 183.666ZM191.95 181.993L192.802 186.127L196.72 185.319L195.868 181.186L191.95 181.993ZM194.191 183.806C193.987 183.867 193.657 183.952 193.18 184.062L194.084 187.959C194.587 187.842 195.01 187.736 195.331 187.64L194.191 183.806ZM193.174 184.064C192.838 184.143 192.387 184.206 191.8 184.237L192.012 188.232C192.761 188.192 193.46 188.106 194.09 187.957L193.174 184.064ZM191.801 184.237C190.631 184.299 189.795 184.169 189.218 183.949L187.797 187.689C189.052 188.165 190.483 188.312 192.011 188.232L191.801 184.237ZM189.23 183.954C188.68 183.741 188.359 183.451 188.15 183.108L184.732 185.185C185.446 186.361 186.503 187.187 187.785 187.684L189.23 183.954ZM188.15 183.108C187.931 182.748 187.759 182.191 187.77 181.316L183.77 181.266C183.752 182.679 184.027 184.025 184.732 185.185L188.15 183.108ZM187.77 181.291V165.716H183.77V181.291H187.77ZM198.514 191.977L198.857 190.006L198.846 190.004L198.835 190.003L198.514 191.977ZM196.905 191.561L194.993 190.976L194.447 192.758L196.187 193.428L196.905 191.561ZM198.184 187.385L198.849 185.499L196.882 184.805L196.271 186.8L198.184 187.385ZM199.505 187.715L199.257 189.7L199.261 189.7L199.505 187.715ZM200.538 187.63L199.851 185.752L199.843 185.754L199.836 185.757L200.538 187.63ZM201.167 187.023L203.005 187.811L203.005 187.811L201.167 187.023ZM201.294 186.724L203.133 187.512L203.434 186.81L203.19 186.086L201.294 186.724ZM195.542 169.636V167.636H192.758L193.646 170.274L195.542 169.636ZM201.678 169.636L203.626 169.182L203.265 167.636H201.678V169.636ZM204.32 180.972L202.372 181.426L202.733 182.972H204.32V180.972ZM204.49 180.972V182.972H206.072L206.437 181.433L204.49 180.972ZM207.175 169.636V167.636H205.593L205.229 169.175L207.175 169.636ZM213.354 169.636L215.25 170.274L216.137 167.636H213.354V169.636ZM207.388 187.364L205.493 186.726L205.489 186.736L207.388 187.364ZM206.088 189.793L204.521 188.551L204.514 188.559L204.507 188.568L206.088 189.793ZM203.873 191.508L203.041 189.689L203.041 189.689L203.873 191.508ZM200.442 190.136C199.873 190.136 199.345 190.091 198.857 190.006L198.17 193.947C198.904 194.075 199.662 194.136 200.442 194.136V190.136ZM198.835 190.003C198.328 189.92 197.929 189.812 197.623 189.694L196.187 193.428C196.804 193.665 197.478 193.834 198.192 193.951L198.835 190.003ZM198.818 192.147L200.096 187.97L196.271 186.8L194.993 190.976L198.818 192.147ZM197.518 189.271C198.101 189.477 198.684 189.628 199.257 189.7L199.753 185.731C199.53 185.703 199.232 185.634 198.849 185.499L197.518 189.271ZM199.261 189.7C199.88 189.776 200.569 189.754 201.24 189.503L199.836 185.757C199.889 185.737 199.916 185.737 199.902 185.738C199.888 185.739 199.839 185.741 199.748 185.73L199.261 189.7ZM201.225 189.508C202.06 189.203 202.671 188.589 203.005 187.811L199.328 186.235C199.357 186.167 199.417 186.064 199.524 185.96C199.633 185.855 199.751 185.788 199.851 185.752L201.225 189.508ZM203.005 187.811L203.133 187.512L199.456 185.937L199.328 186.235L203.005 187.811ZM203.19 186.086L197.437 168.998L193.646 170.274L199.399 187.363L203.19 186.086ZM195.542 171.636H201.678V167.636H195.542V171.636ZM199.73 170.09L202.372 181.426L206.268 180.518L203.626 169.182L199.73 170.09ZM204.32 182.972H204.49V178.972H204.32V182.972ZM206.437 181.433L209.121 170.097L205.229 169.175L202.544 180.511L206.437 181.433ZM207.175 171.636H213.354V167.636H207.175V171.636ZM211.459 168.998L205.493 186.726L209.284 188.002L215.25 170.274L211.459 168.998ZM205.489 186.736C205.262 187.424 204.938 188.024 204.521 188.551L207.656 191.034C208.375 190.126 208.918 189.107 209.287 187.992L205.489 186.736ZM204.507 188.568C204.163 189.012 203.693 189.391 203.041 189.689L204.704 193.327C205.885 192.787 206.891 192.022 207.67 191.017L204.507 188.568ZM203.041 189.689C202.462 189.954 201.623 190.136 200.442 190.136V194.136C202.002 194.136 203.451 193.9 204.704 193.327L203.041 189.689Z" fill="black" mask="url(#path-3-outside-1_0_1)"/>
</svg>
