<svg width="256" height="254" viewBox="0 0 256 254" fill="none" xmlns="http://www.w3.org/2000/svg">
<path d="M254 137C254 200.505 202.297 252 138.5 252C74.7031 252 23 200.505 23 137C23 73.4953 74.7031 22 138.5 22C202.297 22 254 73.4953 254 137Z" fill="#192A51" stroke="black" stroke-width="4"/>
<circle cx="117" cy="117" r="115" fill="#FB6FC6" stroke="black" stroke-width="4"/>
<mask id="path-3-outside-1_141_51" maskUnits="userSpaceOnUse" x="70" y="90" width="101" height="63" fill="black">
<rect fill="white" x="70" y="90" width="101" height="63"/>
<path d="M83.7212 110V91.8115H91.6069C92.9904 91.8115 94.1541 92.0028 95.0981 92.3853C96.0422 92.7596 96.7542 93.2886 97.2344 93.9722C97.7145 94.6476 97.9546 95.4411 97.9546 96.3525C97.9546 97.028 97.8081 97.6465 97.5151 98.208C97.2222 98.7614 96.8112 99.2253 96.2822 99.5996C95.7614 99.9658 95.147 100.218 94.439 100.356V100.503C95.2202 100.527 95.9282 100.723 96.563 101.089C97.2059 101.455 97.7145 101.96 98.0889 102.603C98.4632 103.245 98.6504 103.994 98.6504 104.849C98.6504 105.841 98.394 106.729 97.8813 107.51C97.3768 108.283 96.6484 108.893 95.6963 109.341C94.7441 109.78 93.6089 110 92.2905 110H83.7212ZM88.6528 106.094H91.0576C91.8389 106.094 92.4329 105.935 92.8398 105.618C93.2467 105.3 93.4502 104.845 93.4502 104.25C93.4502 103.835 93.3525 103.486 93.1572 103.201C92.9701 102.908 92.7015 102.684 92.3516 102.529C92.0098 102.375 91.5988 102.297 91.1187 102.297H88.6528V106.094ZM88.6528 99.1235H90.7646C91.1797 99.1235 91.5459 99.0584 91.8633 98.9282C92.1807 98.7899 92.4289 98.5946 92.6079 98.3423C92.7869 98.0819 92.8765 97.7686 92.8765 97.4023C92.8765 96.8571 92.6812 96.4339 92.2905 96.1328C91.908 95.8317 91.4198 95.6812 90.8257 95.6812H88.6528V99.1235ZM100.396 110V96.5234H105.157V99.0747H105.279C105.523 98.1307 105.91 97.4471 106.438 97.0239C106.967 96.6007 107.614 96.3892 108.379 96.3892C108.591 96.3892 108.799 96.4014 109.002 96.4258C109.214 96.4502 109.417 96.4868 109.612 96.5356V100.649C109.384 100.584 109.091 100.54 108.733 100.515C108.383 100.483 108.078 100.466 107.818 100.466C107.33 100.466 106.894 100.576 106.512 100.796C106.129 101.016 105.832 101.321 105.621 101.711C105.409 102.102 105.303 102.566 105.303 103.103V110H100.396ZM114.495 110.22C113.624 110.22 112.855 110.077 112.188 109.792C111.521 109.508 111 109.076 110.625 108.499C110.251 107.913 110.064 107.176 110.064 106.289C110.064 105.54 110.19 104.906 110.442 104.385C110.695 103.864 111.049 103.437 111.504 103.103C111.96 102.769 112.489 102.513 113.091 102.334C113.702 102.155 114.357 102.041 115.057 101.992C115.822 101.935 116.432 101.866 116.888 101.785C117.352 101.703 117.685 101.585 117.889 101.431C118.1 101.268 118.206 101.06 118.206 100.808V100.759C118.206 100.531 118.141 100.34 118.011 100.186C117.889 100.031 117.714 99.9129 117.486 99.8315C117.266 99.742 116.998 99.6973 116.68 99.6973C116.371 99.6973 116.09 99.742 115.838 99.8315C115.594 99.9211 115.39 100.055 115.228 100.234C115.073 100.413 114.971 100.637 114.922 100.906L110.491 100.564C110.605 99.7502 110.91 99.0259 111.407 98.3911C111.911 97.7482 112.611 97.2437 113.506 96.8774C114.402 96.5112 115.492 96.3281 116.778 96.3281C117.754 96.3281 118.633 96.438 119.415 96.6577C120.196 96.8774 120.859 97.1908 121.404 97.5977C121.95 97.9964 122.365 98.4684 122.649 99.0137C122.942 99.5589 123.089 100.157 123.089 100.808V110H118.462V108.096H118.377C118.1 108.608 117.771 109.019 117.388 109.329C117.006 109.638 116.574 109.862 116.094 110C115.614 110.146 115.081 110.22 114.495 110.22ZM116.082 107.131C116.448 107.131 116.794 107.058 117.12 106.912C117.453 106.757 117.726 106.541 117.938 106.265C118.149 105.98 118.255 105.634 118.255 105.227V104.128C118.125 104.169 117.986 104.214 117.84 104.263C117.701 104.312 117.547 104.356 117.376 104.397C117.213 104.438 117.042 104.474 116.863 104.507C116.692 104.539 116.505 104.572 116.302 104.604C115.927 104.661 115.618 104.755 115.374 104.885C115.138 105.015 114.959 105.174 114.837 105.361C114.723 105.549 114.666 105.76 114.666 105.996C114.666 106.24 114.727 106.448 114.849 106.619C114.971 106.79 115.138 106.92 115.35 107.009C115.561 107.091 115.805 107.131 116.082 107.131ZM130.401 102.517V110H125.494V96.5234H130.145L130.23 100.027H129.974C130.299 98.9689 130.816 98.09 131.524 97.3901C132.24 96.6821 133.229 96.3281 134.49 96.3281C135.459 96.3281 136.289 96.5438 136.98 96.9751C137.68 97.4064 138.217 98.0086 138.592 98.7817C138.966 99.5467 139.153 100.43 139.153 101.431V110H134.258V102.48C134.258 101.805 134.091 101.28 133.758 100.906C133.424 100.523 132.952 100.332 132.342 100.332C131.943 100.332 131.597 100.422 131.304 100.601C131.019 100.771 130.796 101.02 130.633 101.345C130.478 101.663 130.401 102.053 130.401 102.517ZM146.49 110.195C145.489 110.195 144.577 109.939 143.755 109.426C142.933 108.905 142.278 108.132 141.79 107.107C141.31 106.073 141.07 104.792 141.07 103.262C141.07 101.683 141.322 100.381 141.827 99.3555C142.331 98.3301 142.99 97.5692 143.804 97.0728C144.626 96.5763 145.505 96.3281 146.441 96.3281C147.092 96.3281 147.662 96.4339 148.15 96.6455C148.646 96.8571 149.065 97.146 149.407 97.5122C149.757 97.8784 150.03 98.2935 150.225 98.7573H150.286V91.8115H155.181V110H150.335V107.803H150.237C150.042 108.283 149.769 108.702 149.419 109.06C149.078 109.41 148.659 109.687 148.162 109.89C147.674 110.094 147.116 110.195 146.49 110.195ZM148.223 106.423C148.671 106.423 149.057 106.293 149.383 106.033C149.708 105.772 149.961 105.406 150.14 104.934C150.327 104.462 150.42 103.905 150.42 103.262C150.42 102.603 150.327 102.037 150.14 101.565C149.961 101.093 149.708 100.731 149.383 100.479C149.057 100.218 148.671 100.088 148.223 100.088C147.776 100.088 147.393 100.218 147.076 100.479C146.758 100.731 146.514 101.093 146.343 101.565C146.181 102.037 146.099 102.603 146.099 103.262C146.099 103.913 146.181 104.478 146.343 104.958C146.514 105.431 146.758 105.793 147.076 106.045C147.393 106.297 147.776 106.423 148.223 106.423ZM76.5435 127.812V146H71.5752V127.812H76.5435ZM83.8066 146.195C82.8057 146.195 81.8942 145.939 81.0723 145.426C80.2503 144.905 79.5952 144.132 79.1069 143.107C78.6268 142.073 78.3867 140.792 78.3867 139.262C78.3867 137.683 78.639 136.381 79.1436 135.355C79.6481 134.33 80.3073 133.569 81.1211 133.073C81.943 132.576 82.8219 132.328 83.7578 132.328C84.4089 132.328 84.9785 132.434 85.4668 132.646C85.9632 132.857 86.3823 133.146 86.7241 133.512C87.0741 133.878 87.3467 134.293 87.542 134.757H87.603V127.812H92.498V146H87.6519V143.803H87.5542C87.3589 144.283 87.0863 144.702 86.7363 145.06C86.3945 145.41 85.9754 145.687 85.479 145.89C84.9907 146.094 84.4333 146.195 83.8066 146.195ZM85.54 142.423C85.9876 142.423 86.3742 142.293 86.6997 142.033C87.0252 141.772 87.2775 141.406 87.4565 140.934C87.6437 140.462 87.7373 139.905 87.7373 139.262C87.7373 138.603 87.6437 138.037 87.4565 137.565C87.2775 137.093 87.0252 136.731 86.6997 136.479C86.3742 136.218 85.9876 136.088 85.54 136.088C85.0924 136.088 84.71 136.218 84.3926 136.479C84.0752 136.731 83.8311 137.093 83.6602 137.565C83.4974 138.037 83.416 138.603 83.416 139.262C83.416 139.913 83.4974 140.478 83.6602 140.958C83.8311 141.431 84.0752 141.793 84.3926 142.045C84.71 142.297 85.0924 142.423 85.54 142.423ZM101.421 146.256C99.9891 146.256 98.748 145.976 97.6982 145.414C96.6566 144.853 95.8509 144.051 95.2812 143.009C94.7116 141.968 94.4268 140.727 94.4268 139.286C94.4268 137.903 94.7116 136.69 95.2812 135.648C95.8509 134.599 96.6484 133.785 97.6738 133.207C98.7074 132.621 99.9199 132.328 101.312 132.328C102.329 132.328 103.252 132.491 104.083 132.816C104.921 133.134 105.637 133.594 106.231 134.196C106.825 134.798 107.281 135.526 107.598 136.381C107.924 137.227 108.086 138.179 108.086 139.237V140.409H95.9282V137.711H105.804L103.521 138.249C103.521 137.72 103.44 137.272 103.277 136.906C103.114 136.54 102.874 136.259 102.557 136.063C102.239 135.868 101.845 135.771 101.373 135.771C100.909 135.771 100.518 135.868 100.201 136.063C99.8833 136.259 99.6392 136.54 99.4683 136.906C99.3055 137.272 99.2241 137.72 99.2241 138.249V140.25C99.2241 140.82 99.3177 141.296 99.5049 141.679C99.7002 142.061 99.9688 142.35 100.311 142.545C100.66 142.733 101.071 142.826 101.543 142.826C101.877 142.826 102.182 142.781 102.459 142.692C102.736 142.594 102.972 142.46 103.167 142.289C103.362 142.11 103.509 141.898 103.606 141.654L107.928 142.155C107.716 142.977 107.313 143.697 106.719 144.315C106.133 144.934 105.393 145.414 104.498 145.756C103.602 146.09 102.577 146.256 101.421 146.256ZM114.861 138.517V146H109.954V132.523H114.605L114.69 136.027H114.434C114.76 134.969 115.276 134.09 115.984 133.39C116.701 132.682 117.689 132.328 118.951 132.328C119.919 132.328 120.749 132.544 121.441 132.975C122.141 133.406 122.678 134.009 123.052 134.782C123.427 135.547 123.614 136.43 123.614 137.431V146H118.719V138.48C118.719 137.805 118.552 137.28 118.218 136.906C117.885 136.523 117.413 136.332 116.802 136.332C116.403 136.332 116.058 136.422 115.765 136.601C115.48 136.771 115.256 137.02 115.093 137.345C114.939 137.663 114.861 138.053 114.861 138.517ZM134.209 132.523V136.112H125.066V132.523H134.209ZM126.897 129.215H131.805V141.544C131.805 141.854 131.878 142.082 132.024 142.228C132.171 142.366 132.419 142.436 132.769 142.436C132.932 142.436 133.16 142.423 133.453 142.399C133.746 142.366 133.941 142.338 134.039 142.313L134.502 145.854C134.014 145.976 133.518 146.057 133.013 146.098C132.517 146.138 132.037 146.159 131.573 146.159C130.01 146.159 128.838 145.821 128.057 145.146C127.284 144.462 126.897 143.441 126.897 142.082V129.215ZM136.102 146V132.523H141.009V146H136.102ZM138.555 131.254C137.863 131.254 137.278 131.034 136.797 130.595C136.325 130.147 136.089 129.61 136.089 128.983C136.089 128.34 136.325 127.803 136.797 127.372C137.278 126.933 137.863 126.713 138.555 126.713C139.239 126.713 139.817 126.933 140.289 127.372C140.769 127.803 141.009 128.34 141.009 128.983C141.009 129.618 140.769 130.155 140.289 130.595C139.817 131.034 139.239 131.254 138.555 131.254ZM151.617 132.523V136.112H142.474V132.523H151.617ZM144.305 129.215H149.212V141.544C149.212 141.854 149.285 142.082 149.432 142.228C149.578 142.366 149.826 142.436 150.176 142.436C150.339 142.436 150.567 142.423 150.86 142.399C151.153 142.366 151.348 142.338 151.446 142.313L151.91 145.854C151.421 145.976 150.925 146.057 150.42 146.098C149.924 146.138 149.444 146.159 148.98 146.159C147.417 146.159 146.246 145.821 145.464 145.146C144.691 144.462 144.305 143.441 144.305 142.082V129.215ZM154.217 150.822L155.059 147.282L155.987 147.416C156.467 147.522 156.878 147.542 157.22 147.477C157.562 147.412 157.81 147.282 157.964 147.086C158.127 146.891 158.18 146.647 158.123 146.354L158.025 146.012L152.996 132.523H158.135L159.869 138.578C160.129 139.498 160.341 140.425 160.503 141.361C160.666 142.297 160.857 143.306 161.077 144.389H160.064C160.276 143.306 160.491 142.293 160.711 141.349C160.939 140.405 161.191 139.481 161.468 138.578L163.372 132.523H168.438L162.847 147.331C162.562 148.096 162.192 148.767 161.736 149.345C161.281 149.923 160.699 150.37 159.991 150.688C159.283 151.013 158.396 151.176 157.33 151.176C156.776 151.176 156.223 151.143 155.669 151.078C155.124 151.021 154.64 150.936 154.217 150.822Z"/>
</mask>
<path d="M83.7212 110V91.8115H91.6069C92.9904 91.8115 94.1541 92.0028 95.0981 92.3853C96.0422 92.7596 96.7542 93.2886 97.2344 93.9722C97.7145 94.6476 97.9546 95.4411 97.9546 96.3525C97.9546 97.028 97.8081 97.6465 97.5151 98.208C97.2222 98.7614 96.8112 99.2253 96.2822 99.5996C95.7614 99.9658 95.147 100.218 94.439 100.356V100.503C95.2202 100.527 95.9282 100.723 96.563 101.089C97.2059 101.455 97.7145 101.96 98.0889 102.603C98.4632 103.245 98.6504 103.994 98.6504 104.849C98.6504 105.841 98.394 106.729 97.8813 107.51C97.3768 108.283 96.6484 108.893 95.6963 109.341C94.7441 109.78 93.6089 110 92.2905 110H83.7212ZM88.6528 106.094H91.0576C91.8389 106.094 92.4329 105.935 92.8398 105.618C93.2467 105.3 93.4502 104.845 93.4502 104.25C93.4502 103.835 93.3525 103.486 93.1572 103.201C92.9701 102.908 92.7015 102.684 92.3516 102.529C92.0098 102.375 91.5988 102.297 91.1187 102.297H88.6528V106.094ZM88.6528 99.1235H90.7646C91.1797 99.1235 91.5459 99.0584 91.8633 98.9282C92.1807 98.7899 92.4289 98.5946 92.6079 98.3423C92.7869 98.0819 92.8765 97.7686 92.8765 97.4023C92.8765 96.8571 92.6812 96.4339 92.2905 96.1328C91.908 95.8317 91.4198 95.6812 90.8257 95.6812H88.6528V99.1235ZM100.396 110V96.5234H105.157V99.0747H105.279C105.523 98.1307 105.91 97.4471 106.438 97.0239C106.967 96.6007 107.614 96.3892 108.379 96.3892C108.591 96.3892 108.799 96.4014 109.002 96.4258C109.214 96.4502 109.417 96.4868 109.612 96.5356V100.649C109.384 100.584 109.091 100.54 108.733 100.515C108.383 100.483 108.078 100.466 107.818 100.466C107.33 100.466 106.894 100.576 106.512 100.796C106.129 101.016 105.832 101.321 105.621 101.711C105.409 102.102 105.303 102.566 105.303 103.103V110H100.396ZM114.495 110.22C113.624 110.22 112.855 110.077 112.188 109.792C111.521 109.508 111 109.076 110.625 108.499C110.251 107.913 110.064 107.176 110.064 106.289C110.064 105.54 110.19 104.906 110.442 104.385C110.695 103.864 111.049 103.437 111.504 103.103C111.96 102.769 112.489 102.513 113.091 102.334C113.702 102.155 114.357 102.041 115.057 101.992C115.822 101.935 116.432 101.866 116.888 101.785C117.352 101.703 117.685 101.585 117.889 101.431C118.1 101.268 118.206 101.06 118.206 100.808V100.759C118.206 100.531 118.141 100.34 118.011 100.186C117.889 100.031 117.714 99.9129 117.486 99.8315C117.266 99.742 116.998 99.6973 116.68 99.6973C116.371 99.6973 116.09 99.742 115.838 99.8315C115.594 99.9211 115.39 100.055 115.228 100.234C115.073 100.413 114.971 100.637 114.922 100.906L110.491 100.564C110.605 99.7502 110.91 99.0259 111.407 98.3911C111.911 97.7482 112.611 97.2437 113.506 96.8774C114.402 96.5112 115.492 96.3281 116.778 96.3281C117.754 96.3281 118.633 96.438 119.415 96.6577C120.196 96.8774 120.859 97.1908 121.404 97.5977C121.95 97.9964 122.365 98.4684 122.649 99.0137C122.942 99.5589 123.089 100.157 123.089 100.808V110H118.462V108.096H118.377C118.1 108.608 117.771 109.019 117.388 109.329C117.006 109.638 116.574 109.862 116.094 110C115.614 110.146 115.081 110.22 114.495 110.22ZM116.082 107.131C116.448 107.131 116.794 107.058 117.12 106.912C117.453 106.757 117.726 106.541 117.938 106.265C118.149 105.98 118.255 105.634 118.255 105.227V104.128C118.125 104.169 117.986 104.214 117.84 104.263C117.701 104.312 117.547 104.356 117.376 104.397C117.213 104.438 117.042 104.474 116.863 104.507C116.692 104.539 116.505 104.572 116.302 104.604C115.927 104.661 115.618 104.755 115.374 104.885C115.138 105.015 114.959 105.174 114.837 105.361C114.723 105.549 114.666 105.76 114.666 105.996C114.666 106.24 114.727 106.448 114.849 106.619C114.971 106.79 115.138 106.92 115.35 107.009C115.561 107.091 115.805 107.131 116.082 107.131ZM130.401 102.517V110H125.494V96.5234H130.145L130.23 100.027H129.974C130.299 98.9689 130.816 98.09 131.524 97.3901C132.24 96.6821 133.229 96.3281 134.49 96.3281C135.459 96.3281 136.289 96.5438 136.98 96.9751C137.68 97.4064 138.217 98.0086 138.592 98.7817C138.966 99.5467 139.153 100.43 139.153 101.431V110H134.258V102.48C134.258 101.805 134.091 101.28 133.758 100.906C133.424 100.523 132.952 100.332 132.342 100.332C131.943 100.332 131.597 100.422 131.304 100.601C131.019 100.771 130.796 101.02 130.633 101.345C130.478 101.663 130.401 102.053 130.401 102.517ZM146.49 110.195C145.489 110.195 144.577 109.939 143.755 109.426C142.933 108.905 142.278 108.132 141.79 107.107C141.31 106.073 141.07 104.792 141.07 103.262C141.07 101.683 141.322 100.381 141.827 99.3555C142.331 98.3301 142.99 97.5692 143.804 97.0728C144.626 96.5763 145.505 96.3281 146.441 96.3281C147.092 96.3281 147.662 96.4339 148.15 96.6455C148.646 96.8571 149.065 97.146 149.407 97.5122C149.757 97.8784 150.03 98.2935 150.225 98.7573H150.286V91.8115H155.181V110H150.335V107.803H150.237C150.042 108.283 149.769 108.702 149.419 109.06C149.078 109.41 148.659 109.687 148.162 109.89C147.674 110.094 147.116 110.195 146.49 110.195ZM148.223 106.423C148.671 106.423 149.057 106.293 149.383 106.033C149.708 105.772 149.961 105.406 150.14 104.934C150.327 104.462 150.42 103.905 150.42 103.262C150.42 102.603 150.327 102.037 150.14 101.565C149.961 101.093 149.708 100.731 149.383 100.479C149.057 100.218 148.671 100.088 148.223 100.088C147.776 100.088 147.393 100.218 147.076 100.479C146.758 100.731 146.514 101.093 146.343 101.565C146.181 102.037 146.099 102.603 146.099 103.262C146.099 103.913 146.181 104.478 146.343 104.958C146.514 105.431 146.758 105.793 147.076 106.045C147.393 106.297 147.776 106.423 148.223 106.423ZM76.5435 127.812V146H71.5752V127.812H76.5435ZM83.8066 146.195C82.8057 146.195 81.8942 145.939 81.0723 145.426C80.2503 144.905 79.5952 144.132 79.1069 143.107C78.6268 142.073 78.3867 140.792 78.3867 139.262C78.3867 137.683 78.639 136.381 79.1436 135.355C79.6481 134.33 80.3073 133.569 81.1211 133.073C81.943 132.576 82.8219 132.328 83.7578 132.328C84.4089 132.328 84.9785 132.434 85.4668 132.646C85.9632 132.857 86.3823 133.146 86.7241 133.512C87.0741 133.878 87.3467 134.293 87.542 134.757H87.603V127.812H92.498V146H87.6519V143.803H87.5542C87.3589 144.283 87.0863 144.702 86.7363 145.06C86.3945 145.41 85.9754 145.687 85.479 145.89C84.9907 146.094 84.4333 146.195 83.8066 146.195ZM85.54 142.423C85.9876 142.423 86.3742 142.293 86.6997 142.033C87.0252 141.772 87.2775 141.406 87.4565 140.934C87.6437 140.462 87.7373 139.905 87.7373 139.262C87.7373 138.603 87.6437 138.037 87.4565 137.565C87.2775 137.093 87.0252 136.731 86.6997 136.479C86.3742 136.218 85.9876 136.088 85.54 136.088C85.0924 136.088 84.71 136.218 84.3926 136.479C84.0752 136.731 83.8311 137.093 83.6602 137.565C83.4974 138.037 83.416 138.603 83.416 139.262C83.416 139.913 83.4974 140.478 83.6602 140.958C83.8311 141.431 84.0752 141.793 84.3926 142.045C84.71 142.297 85.0924 142.423 85.54 142.423ZM101.421 146.256C99.9891 146.256 98.748 145.976 97.6982 145.414C96.6566 144.853 95.8509 144.051 95.2812 143.009C94.7116 141.968 94.4268 140.727 94.4268 139.286C94.4268 137.903 94.7116 136.69 95.2812 135.648C95.8509 134.599 96.6484 133.785 97.6738 133.207C98.7074 132.621 99.9199 132.328 101.312 132.328C102.329 132.328 103.252 132.491 104.083 132.816C104.921 133.134 105.637 133.594 106.231 134.196C106.825 134.798 107.281 135.526 107.598 136.381C107.924 137.227 108.086 138.179 108.086 139.237V140.409H95.9282V137.711H105.804L103.521 138.249C103.521 137.72 103.44 137.272 103.277 136.906C103.114 136.54 102.874 136.259 102.557 136.063C102.239 135.868 101.845 135.771 101.373 135.771C100.909 135.771 100.518 135.868 100.201 136.063C99.8833 136.259 99.6392 136.54 99.4683 136.906C99.3055 137.272 99.2241 137.72 99.2241 138.249V140.25C99.2241 140.82 99.3177 141.296 99.5049 141.679C99.7002 142.061 99.9688 142.35 100.311 142.545C100.66 142.733 101.071 142.826 101.543 142.826C101.877 142.826 102.182 142.781 102.459 142.692C102.736 142.594 102.972 142.46 103.167 142.289C103.362 142.11 103.509 141.898 103.606 141.654L107.928 142.155C107.716 142.977 107.313 143.697 106.719 144.315C106.133 144.934 105.393 145.414 104.498 145.756C103.602 146.09 102.577 146.256 101.421 146.256ZM114.861 138.517V146H109.954V132.523H114.605L114.69 136.027H114.434C114.76 134.969 115.276 134.09 115.984 133.39C116.701 132.682 117.689 132.328 118.951 132.328C119.919 132.328 120.749 132.544 121.441 132.975C122.141 133.406 122.678 134.009 123.052 134.782C123.427 135.547 123.614 136.43 123.614 137.431V146H118.719V138.48C118.719 137.805 118.552 137.28 118.218 136.906C117.885 136.523 117.413 136.332 116.802 136.332C116.403 136.332 116.058 136.422 115.765 136.601C115.48 136.771 115.256 137.02 115.093 137.345C114.939 137.663 114.861 138.053 114.861 138.517ZM134.209 132.523V136.112H125.066V132.523H134.209ZM126.897 129.215H131.805V141.544C131.805 141.854 131.878 142.082 132.024 142.228C132.171 142.366 132.419 142.436 132.769 142.436C132.932 142.436 133.16 142.423 133.453 142.399C133.746 142.366 133.941 142.338 134.039 142.313L134.502 145.854C134.014 145.976 133.518 146.057 133.013 146.098C132.517 146.138 132.037 146.159 131.573 146.159C130.01 146.159 128.838 145.821 128.057 145.146C127.284 144.462 126.897 143.441 126.897 142.082V129.215ZM136.102 146V132.523H141.009V146H136.102ZM138.555 131.254C137.863 131.254 137.278 131.034 136.797 130.595C136.325 130.147 136.089 129.61 136.089 128.983C136.089 128.34 136.325 127.803 136.797 127.372C137.278 126.933 137.863 126.713 138.555 126.713C139.239 126.713 139.817 126.933 140.289 127.372C140.769 127.803 141.009 128.34 141.009 128.983C141.009 129.618 140.769 130.155 140.289 130.595C139.817 131.034 139.239 131.254 138.555 131.254ZM151.617 132.523V136.112H142.474V132.523H151.617ZM144.305 129.215H149.212V141.544C149.212 141.854 149.285 142.082 149.432 142.228C149.578 142.366 149.826 142.436 150.176 142.436C150.339 142.436 150.567 142.423 150.86 142.399C151.153 142.366 151.348 142.338 151.446 142.313L151.91 145.854C151.421 145.976 150.925 146.057 150.42 146.098C149.924 146.138 149.444 146.159 148.98 146.159C147.417 146.159 146.246 145.821 145.464 145.146C144.691 144.462 144.305 143.441 144.305 142.082V129.215ZM154.217 150.822L155.059 147.282L155.987 147.416C156.467 147.522 156.878 147.542 157.22 147.477C157.562 147.412 157.81 147.282 157.964 147.086C158.127 146.891 158.18 146.647 158.123 146.354L158.025 146.012L152.996 132.523H158.135L159.869 138.578C160.129 139.498 160.341 140.425 160.503 141.361C160.666 142.297 160.857 143.306 161.077 144.389H160.064C160.276 143.306 160.491 142.293 160.711 141.349C160.939 140.405 161.191 139.481 161.468 138.578L163.372 132.523H168.438L162.847 147.331C162.562 148.096 162.192 148.767 161.736 149.345C161.281 149.923 160.699 150.37 159.991 150.688C159.283 151.013 158.396 151.176 157.33 151.176C156.776 151.176 156.223 151.143 155.669 151.078C155.124 151.021 154.64 150.936 154.217 150.822Z" fill="#FFF6E3"/>
<path d="M83.7212 110H82.4712V111.25H83.7212V110ZM83.7212 91.8115V90.5615H82.4712V91.8115H83.7212ZM95.0981 92.3853L94.6287 93.5438L94.6374 93.5472L95.0981 92.3853ZM97.2344 93.9722L96.2115 94.6906L96.2156 94.6964L97.2344 93.9722ZM97.5151 98.208L98.6199 98.7929L98.6234 98.7862L97.5151 98.208ZM96.2822 99.5996L97.0012 100.622L97.0043 100.62L96.2822 99.5996ZM94.439 100.356L94.1992 99.1296L93.189 99.3271V100.356H94.439ZM94.439 100.503H93.189V101.714L94.3999 101.752L94.439 100.503ZM96.563 101.089L95.9383 102.172L95.9443 102.175L96.563 101.089ZM97.8813 107.51L96.8363 106.824L96.8346 106.827L97.8813 107.51ZM95.6963 109.341L96.2201 110.476L96.2281 110.472L95.6963 109.341ZM88.6528 106.094H87.4028V107.344H88.6528V106.094ZM93.1572 103.201L92.1039 103.874L92.1148 103.891L92.1263 103.908L93.1572 103.201ZM92.3516 102.529L91.8363 103.668L91.8464 103.673L92.3516 102.529ZM88.6528 102.297V101.047H87.4028V102.297H88.6528ZM88.6528 99.1235H87.4028V100.374H88.6528V99.1235ZM91.8633 98.9282L92.3377 100.085L92.3503 100.08L92.3628 100.074L91.8633 98.9282ZM92.6079 98.3423L93.6273 99.0657L93.6327 99.0581L93.638 99.0504L92.6079 98.3423ZM92.2905 96.1328L91.5173 97.115L91.5274 97.1228L92.2905 96.1328ZM88.6528 95.6812V94.4312H87.4028V95.6812H88.6528ZM84.9712 110V91.8115H82.4712V110H84.9712ZM83.7212 93.0615H91.6069V90.5615H83.7212V93.0615ZM91.6069 93.0615C92.8836 93.0615 93.8769 93.2391 94.6287 93.5438L95.5675 91.2267C94.4314 90.7664 93.0972 90.5615 91.6069 90.5615V93.0615ZM94.6374 93.5472C95.4041 93.8513 95.8991 94.2459 96.2115 94.6906L98.2573 93.2537C97.6093 92.3312 96.6802 91.6679 95.5589 91.2233L94.6374 93.5472ZM96.2156 94.6964C96.5303 95.1392 96.7046 95.6735 96.7046 96.3525H99.2046C99.2046 95.2087 98.8987 94.1561 98.2532 93.2479L96.2156 94.6964ZM96.7046 96.3525C96.7046 96.8404 96.6006 97.2586 96.4069 97.6298L98.6234 98.7862C99.0156 98.0344 99.2046 97.2156 99.2046 96.3525H96.7046ZM96.4104 97.6231C96.2123 97.9972 95.935 98.314 95.5601 98.5793L97.0043 100.62C97.6874 100.137 98.232 99.5255 98.6199 98.7929L96.4104 97.6231ZM95.5633 98.5771C95.204 98.8297 94.7578 99.0205 94.1992 99.1296L94.6787 101.583C95.5361 101.416 96.3188 101.102 97.0012 100.622L95.5633 98.5771ZM93.189 100.356V100.503H95.689V100.356H93.189ZM94.3999 101.752C94.9893 101.771 95.4939 101.915 95.9383 102.172L97.1876 100.006C96.3625 99.5301 95.4511 99.2839 94.478 99.2535L94.3999 101.752ZM95.9443 102.175C96.3947 102.432 96.7445 102.778 97.0086 103.232L99.1691 101.974C98.6845 101.141 98.0171 100.479 97.1817 100.003L95.9443 102.175ZM97.0086 103.232C97.2561 103.657 97.4004 104.182 97.4004 104.849H99.9004C99.9004 103.806 99.6703 102.834 99.1691 101.974L97.0086 103.232ZM97.4004 104.849C97.4004 105.614 97.2068 106.259 96.8363 106.824L98.9264 108.196C99.5813 107.198 99.9004 106.069 99.9004 104.849H97.4004ZM96.8346 106.827C96.4737 107.379 95.9367 107.847 95.1645 108.21L96.2281 110.472C97.3601 109.94 98.2798 109.186 98.9281 108.193L96.8346 106.827ZM95.1725 108.206C94.4211 108.553 93.4731 108.75 92.2905 108.75V111.25C93.7446 111.25 95.0672 111.008 96.2201 110.476L95.1725 108.206ZM92.2905 108.75H83.7212V111.25H92.2905V108.75ZM88.6528 107.344H91.0576V104.844H88.6528V107.344ZM91.0576 107.344C91.9812 107.344 92.8946 107.16 93.6086 106.603L92.0711 104.632C91.9713 104.71 91.6965 104.844 91.0576 104.844V107.344ZM93.6086 106.603C94.3676 106.011 94.7002 105.164 94.7002 104.25H92.2002C92.2002 104.525 92.1259 104.589 92.0711 104.632L93.6086 106.603ZM94.7002 104.25C94.7002 103.635 94.5529 103.026 94.1881 102.494L92.1263 103.908C92.1522 103.945 92.2002 104.036 92.2002 104.25H94.7002ZM94.2106 102.528C93.8778 102.007 93.4082 101.63 92.8568 101.386L91.8464 103.673C91.9948 103.738 92.0623 103.809 92.1039 103.874L94.2106 102.528ZM92.8668 101.39C92.3245 101.145 91.7286 101.047 91.1187 101.047V103.547C91.469 103.547 91.695 103.604 91.8364 103.668L92.8668 101.39ZM91.1187 101.047H88.6528V103.547H91.1187V101.047ZM87.4028 102.297V106.094H89.9028V102.297H87.4028ZM88.6528 100.374H90.7646V97.8735H88.6528V100.374ZM90.7646 100.374C91.3091 100.374 91.8418 100.288 92.3377 100.085L91.3888 97.7718C91.25 97.8287 91.0503 97.8735 90.7646 97.8735V100.374ZM92.3628 100.074C92.8632 99.856 93.3014 99.5249 93.6273 99.0657L91.5885 97.6189C91.5563 97.6642 91.4982 97.7238 91.3638 97.7824L92.3628 100.074ZM93.638 99.0504C93.982 98.55 94.1265 97.9801 94.1265 97.4023H91.6265C91.6265 97.557 91.5919 97.6137 91.5779 97.6341L93.638 99.0504ZM94.1265 97.4023C94.1265 96.5164 93.7866 95.7078 93.0537 95.1428L91.5274 97.1228C91.5757 97.16 91.6265 97.1978 91.6265 97.4023H94.1265ZM93.0637 95.1506C92.4156 94.6404 91.6366 94.4312 90.8257 94.4312V96.9312C91.2029 96.9312 91.4005 97.023 91.5173 97.115L93.0637 95.1506ZM90.8257 94.4312H88.6528V96.9312H90.8257V94.4312ZM87.4028 95.6812V99.1235H89.9028V95.6812H87.4028ZM100.396 110H99.146V111.25H100.396V110ZM100.396 96.5234V95.2734H99.146V96.5234H100.396ZM105.157 96.5234H106.407V95.2734H105.157V96.5234ZM105.157 99.0747H103.907V100.325H105.157V99.0747ZM105.279 99.0747V100.325H106.247L106.489 99.3877L105.279 99.0747ZM109.002 96.4258L108.853 97.6669L108.859 97.6675L109.002 96.4258ZM109.612 96.5356H110.862V95.5597L109.915 95.323L109.612 96.5356ZM109.612 100.649L109.269 101.851L110.862 102.307V100.649H109.612ZM108.733 100.515L108.618 101.76L108.633 101.761L108.648 101.762L108.733 100.515ZM105.621 101.711L104.521 101.116L105.621 101.711ZM105.303 110V111.25H106.553V110H105.303ZM101.646 110V96.5234H99.146V110H101.646ZM100.396 97.7734H105.157V95.2734H100.396V97.7734ZM103.907 96.5234V99.0747H106.407V96.5234H103.907ZM105.157 100.325H105.279V97.8247H105.157V100.325ZM106.489 99.3877C106.694 98.5943 106.976 98.1946 107.219 98L105.658 96.0478C104.843 96.6996 104.352 97.6671 104.069 98.7617L106.489 99.3877ZM107.219 98C107.498 97.7769 107.86 97.6392 108.379 97.6392V95.1392C107.369 95.1392 106.437 95.4246 105.658 96.0478L107.219 98ZM108.379 97.6392C108.543 97.6392 108.701 97.6486 108.853 97.6669L109.151 95.1847C108.896 95.1542 108.639 95.1392 108.379 95.1392V97.6392ZM108.859 97.6675C109.019 97.6861 109.169 97.7134 109.309 97.7483L109.915 95.323C109.665 95.2603 109.408 95.2143 109.145 95.184L108.859 97.6675ZM108.362 96.5356V100.649H110.862V96.5356H108.362ZM109.956 99.4475C109.612 99.3494 109.224 99.2957 108.818 99.268L108.648 101.762C108.959 101.783 109.157 101.819 109.269 101.851L109.956 99.4475ZM108.849 99.2705C108.473 99.2355 108.128 99.2163 107.818 99.2163V101.716C108.029 101.716 108.294 101.73 108.618 101.76L108.849 99.2705ZM107.818 99.2163C107.135 99.2163 106.481 99.3721 105.889 99.712L107.134 101.88C107.308 101.78 107.524 101.716 107.818 101.716V99.2163ZM105.889 99.712C105.304 100.048 104.843 100.523 104.521 101.116L106.72 102.307C106.822 102.118 106.954 101.983 107.134 101.88L105.889 99.712ZM104.521 101.116C104.192 101.724 104.053 102.401 104.053 103.103H106.553C106.553 102.731 106.626 102.48 106.72 102.307L104.521 101.116ZM104.053 103.103V110H106.553V103.103H104.053ZM105.303 108.75H100.396V111.25H105.303V108.75ZM110.625 108.499L109.572 109.172L109.576 109.178L110.625 108.499ZM110.442 104.385L109.317 103.84L110.442 104.385ZM111.504 103.103L110.766 102.094L111.504 103.103ZM113.091 102.334L112.739 101.135L112.735 101.136L113.091 102.334ZM115.057 101.992L115.144 103.239L115.149 103.239L115.057 101.992ZM116.888 101.785L116.672 100.553L116.668 100.554L116.888 101.785ZM117.889 101.431L118.645 102.426L118.651 102.421L117.889 101.431ZM118.011 100.186L117.03 100.96L117.042 100.976L117.055 100.991L118.011 100.186ZM117.486 99.8315L117.014 100.989L117.04 101L117.065 101.009L117.486 99.8315ZM115.838 99.8315L115.42 98.6534L115.408 98.6579L115.838 99.8315ZM115.228 100.234L114.303 99.3935L114.292 99.4053L114.282 99.4174L115.228 100.234ZM114.922 100.906L114.826 102.152L115.95 102.239L116.152 101.129L114.922 100.906ZM110.491 100.564L109.253 100.391L109.069 101.708L110.395 101.81L110.491 100.564ZM111.407 98.3911L110.423 97.6194L110.422 97.6211L111.407 98.3911ZM121.404 97.5977L120.657 98.5995L120.666 98.6066L121.404 97.5977ZM122.649 99.0137L121.541 99.5924L121.545 99.5989L121.548 99.6053L122.649 99.0137ZM123.089 110V111.25H124.339V110H123.089ZM118.462 110H117.212V111.25H118.462V110ZM118.462 108.096H119.712V106.846H118.462V108.096ZM118.377 108.096V106.846H117.631L117.277 107.502L118.377 108.096ZM117.388 109.329L116.602 108.357L117.388 109.329ZM116.094 110L115.748 108.799L115.739 108.802L115.729 108.804L116.094 110ZM117.12 106.912L117.633 108.052L117.645 108.046L117.12 106.912ZM117.938 106.265L118.93 107.024L118.936 107.017L118.941 107.01L117.938 106.265ZM118.255 104.128H119.505V102.428L117.882 102.935L118.255 104.128ZM117.84 104.263L117.445 103.077L117.434 103.08L117.424 103.084L117.84 104.263ZM117.376 104.397L117.086 103.181L117.073 103.184L117.376 104.397ZM116.863 104.507L116.64 103.277L116.629 103.279L116.863 104.507ZM116.302 104.604L116.49 105.84L116.499 105.839L116.302 104.604ZM115.374 104.885L114.786 103.782L114.778 103.786L114.77 103.791L115.374 104.885ZM114.837 105.361L113.79 104.678L113.779 104.695L113.769 104.711L114.837 105.361ZM115.35 107.009L114.863 108.16L114.882 108.169L114.901 108.176L115.35 107.009ZM114.495 108.97C113.76 108.97 113.163 108.85 112.679 108.643L111.697 110.942C112.547 111.305 113.489 111.47 114.495 111.47V108.97ZM112.679 108.643C112.227 108.45 111.906 108.176 111.675 107.819L109.576 109.178C110.093 109.976 110.814 110.565 111.697 110.942L112.679 108.643ZM111.679 107.826C111.464 107.489 111.314 107.003 111.314 106.289H108.814C108.814 107.349 109.038 108.336 109.572 109.172L111.679 107.826ZM111.314 106.289C111.314 105.676 111.418 105.238 111.567 104.93L109.317 103.84C108.962 104.573 108.814 105.405 108.814 106.289H111.314ZM111.567 104.93C111.733 104.588 111.956 104.322 112.243 104.112L110.766 102.094C110.141 102.552 109.656 103.14 109.317 103.84L111.567 104.93ZM112.243 104.112C112.571 103.872 112.967 103.675 113.448 103.532L112.735 101.136C112.011 101.351 111.35 101.667 110.766 102.094L112.243 104.112ZM113.443 103.533C113.959 103.382 114.524 103.282 115.144 103.239L114.97 100.745C114.189 100.8 113.444 100.928 112.739 101.135L113.443 103.533ZM115.149 103.239C115.933 103.18 116.591 103.107 117.107 103.015L116.668 100.554C116.272 100.625 115.71 100.69 114.964 100.746L115.149 103.239ZM117.104 103.016C117.625 102.924 118.199 102.765 118.645 102.426L117.132 100.435C117.165 100.411 117.157 100.425 117.069 100.457C116.985 100.486 116.856 100.521 116.672 100.553L117.104 103.016ZM118.651 102.421C119.149 102.038 119.456 101.474 119.456 100.808H116.956C116.956 100.754 116.969 100.672 117.013 100.585C117.056 100.501 117.107 100.455 117.127 100.44L118.651 102.421ZM119.456 100.808V100.759H116.956V100.808H119.456ZM119.456 100.759C119.456 100.277 119.311 99.7891 118.967 99.3804L117.055 100.991C117.02 100.949 116.991 100.899 116.974 100.848C116.957 100.798 116.956 100.765 116.956 100.759H119.456ZM118.992 99.411C118.694 99.0342 118.305 98.7966 117.906 98.6544L117.065 101.009C117.095 101.019 117.1 101.025 117.089 101.017C117.077 101.009 117.054 100.991 117.03 100.96L118.992 99.411ZM117.957 98.6739C117.547 98.5066 117.108 98.4473 116.68 98.4473V100.947C116.887 100.947 116.986 100.977 117.014 100.989L117.957 98.6739ZM116.68 98.4473C116.25 98.4473 115.825 98.5096 115.42 98.6535L116.256 101.01C116.355 100.974 116.492 100.947 116.68 100.947V98.4473ZM115.408 98.6579C114.989 98.8116 114.611 99.0543 114.303 99.3935L116.152 101.075C116.17 101.056 116.199 101.031 116.268 101.005L115.408 98.6579ZM114.282 99.4174C113.96 99.7899 113.775 100.228 113.693 100.682L116.152 101.129C116.16 101.085 116.169 101.062 116.173 101.054C116.177 101.046 116.177 101.047 116.174 101.051L114.282 99.4174ZM115.018 99.6595L110.587 99.3177L110.395 101.81L114.826 102.152L115.018 99.6595ZM111.729 100.737C111.813 100.137 112.033 99.6192 112.391 99.1612L110.422 97.6211C109.787 98.4326 109.397 99.3636 109.253 100.391L111.729 100.737ZM112.39 99.1628C112.738 98.7192 113.248 98.3337 113.98 98.0344L113.033 95.7205C111.974 96.1536 111.084 96.7772 110.423 97.6194L112.39 99.1628ZM113.98 98.0344C114.684 97.7462 115.604 97.5781 116.778 97.5781V95.0781C115.38 95.0781 114.119 95.2762 113.033 95.7205L113.98 98.0344ZM116.778 97.5781C117.662 97.5781 118.425 97.6778 119.076 97.861L119.753 95.4544C118.842 95.1982 117.846 95.0781 116.778 95.0781V97.5781ZM119.076 97.861C119.738 98.0471 120.256 98.3001 120.657 98.5994L122.152 96.5959C121.463 96.0814 120.654 95.7078 119.753 95.4544L119.076 97.861ZM120.666 98.6066C121.072 98.9035 121.354 99.2332 121.541 99.5924L123.757 98.4349C123.375 97.7036 122.827 97.0893 122.142 96.5887L120.666 98.6066ZM121.548 99.6053C121.738 99.9592 121.839 100.352 121.839 100.808H124.339C124.339 99.9616 124.146 99.1587 123.751 98.422L121.548 99.6053ZM121.839 100.808V110H124.339V100.808H121.839ZM123.089 108.75H118.462V111.25H123.089V108.75ZM119.712 110V108.096H117.212V110H119.712ZM118.462 106.846H118.377V109.346H118.462V106.846ZM117.277 107.502C117.065 107.895 116.835 108.169 116.602 108.357L118.174 110.301C118.707 109.87 119.136 109.321 119.477 108.689L117.277 107.502ZM116.602 108.357C116.352 108.559 116.07 108.706 115.748 108.799L116.44 111.201C117.078 111.017 117.66 110.717 118.174 110.301L116.602 108.357ZM115.729 108.804C115.385 108.909 114.978 108.97 114.495 108.97V111.47C115.185 111.47 115.843 111.384 116.459 111.196L115.729 108.804ZM116.082 108.381C116.62 108.381 117.142 108.272 117.633 108.052L116.607 105.772C116.447 105.844 116.276 105.881 116.082 105.881V108.381ZM117.645 108.046C118.152 107.811 118.589 107.471 118.93 107.024L116.945 105.505C116.863 105.612 116.754 105.703 116.594 105.777L117.645 108.046ZM118.941 107.01C119.335 106.479 119.505 105.861 119.505 105.227H117.005C117.005 105.406 116.963 105.481 116.934 105.519L118.941 107.01ZM119.505 105.227V104.128H117.005V105.227H119.505ZM117.882 102.935C117.743 102.979 117.598 103.026 117.445 103.077L118.235 105.449C118.375 105.402 118.506 105.36 118.628 105.322L117.882 102.935ZM117.424 103.084C117.334 103.116 117.223 103.149 117.086 103.181L117.666 105.613C117.871 105.564 118.069 105.507 118.256 105.441L117.424 103.084ZM117.073 103.184C116.938 103.218 116.794 103.249 116.64 103.277L117.087 105.737C117.29 105.7 117.488 105.657 117.679 105.61L117.073 103.184ZM116.629 103.279C116.473 103.309 116.298 103.339 116.104 103.37L116.499 105.839C116.713 105.805 116.912 105.77 117.097 105.735L116.629 103.279ZM116.114 103.369C115.647 103.44 115.191 103.566 114.786 103.782L115.962 105.988C116.045 105.944 116.207 105.883 116.49 105.84L116.114 103.369ZM114.77 103.791C114.392 104 114.045 104.288 113.79 104.678L115.884 106.044C115.873 106.06 115.884 106.031 115.978 105.98L114.77 103.791ZM113.769 104.711C113.527 105.109 113.416 105.549 113.416 105.996H115.916C115.916 105.987 115.917 105.983 115.917 105.981C115.917 105.98 115.917 105.982 115.916 105.985C115.915 105.989 115.913 105.994 115.911 105.999C115.909 106.004 115.907 106.008 115.905 106.011L113.769 104.711ZM113.416 105.996C113.416 106.457 113.535 106.929 113.832 107.345L115.866 105.892C115.889 105.924 115.903 105.956 115.911 105.982C115.918 106.007 115.916 106.014 115.916 105.996H113.416ZM113.832 107.345C114.101 107.721 114.459 107.99 114.863 108.16L115.837 105.858C115.823 105.852 115.825 105.851 115.835 105.859C115.84 105.863 115.845 105.868 115.851 105.874C115.857 105.88 115.862 105.886 115.866 105.892L113.832 107.345ZM114.901 108.176C115.283 108.323 115.685 108.381 116.082 108.381V105.881C115.926 105.881 115.839 105.858 115.798 105.843L114.901 108.176ZM130.401 110V111.25H131.651V110H130.401ZM125.494 110H124.244V111.25H125.494V110ZM125.494 96.5234V95.2734H124.244V96.5234H125.494ZM130.145 96.5234L131.394 96.493L131.364 95.2734H130.145V96.5234ZM130.23 100.027V101.277H131.511L131.48 99.9964L130.23 100.027ZM129.974 100.027L128.779 99.6592L128.281 101.277H129.974V100.027ZM131.524 97.3901L132.403 98.2791L132.403 98.2791L131.524 97.3901ZM136.98 96.9751L136.319 98.0358L136.325 98.0392L136.98 96.9751ZM138.592 98.7817L137.467 99.3265L137.469 99.3312L138.592 98.7817ZM139.153 110V111.25H140.403V110H139.153ZM134.258 110H133.008V111.25H134.258V110ZM133.758 100.906L132.816 101.728L132.825 101.737L133.758 100.906ZM131.304 100.601L131.947 101.672L131.956 101.667L131.304 100.601ZM130.633 101.345L129.515 100.786L129.509 100.798L130.633 101.345ZM129.151 102.517V110H131.651V102.517H129.151ZM130.401 108.75H125.494V111.25H130.401V108.75ZM126.744 110V96.5234H124.244V110H126.744ZM125.494 97.7734H130.145V95.2734H125.494V97.7734ZM128.895 96.5539L128.98 100.057L131.48 99.9964L131.394 96.493L128.895 96.5539ZM130.23 98.7769H129.974V101.277H130.23V98.7769ZM131.168 100.394C131.44 99.5113 131.857 98.8183 132.403 98.2791L130.645 96.5012C129.775 97.3617 129.158 98.4266 128.779 99.6592L131.168 100.394ZM132.403 98.2791C132.829 97.8574 133.47 97.5781 134.49 97.5781V95.0781C132.987 95.0781 131.651 95.5068 130.645 96.5012L132.403 98.2791ZM134.49 97.5781C135.269 97.5781 135.86 97.7498 136.319 98.0358L137.642 95.9144C136.717 95.3378 135.648 95.0781 134.49 95.0781V97.5781ZM136.325 98.0392C136.812 98.3399 137.191 98.7576 137.467 99.3265L139.717 98.237C139.244 97.2597 138.548 96.4729 137.636 95.9109L136.325 98.0392ZM137.469 99.3312C137.746 99.8976 137.903 100.587 137.903 101.431H140.403C140.403 100.272 140.186 99.1959 139.715 98.2323L137.469 99.3312ZM137.903 101.431V110H140.403V101.431H137.903ZM139.153 108.75H134.258V111.25H139.153V108.75ZM135.508 110V102.48H133.008V110H135.508ZM135.508 102.48C135.508 101.606 135.291 100.747 134.691 100.074L132.825 101.737C132.892 101.814 133.008 102.004 133.008 102.48H135.508ZM134.7 100.084C134.081 99.3745 133.233 99.082 132.342 99.082V101.582C132.671 101.582 132.768 101.672 132.816 101.727L134.7 100.084ZM132.342 99.082C131.751 99.082 131.171 99.2168 130.652 99.534L131.956 101.667C132.023 101.626 132.135 101.582 132.342 101.582V99.082ZM130.661 99.5287C130.153 99.8335 129.773 100.269 129.515 100.786L131.751 101.904C131.818 101.77 131.886 101.709 131.947 101.672L130.661 99.5287ZM129.509 100.798C129.25 101.331 129.151 101.921 129.151 102.517H131.651C131.651 102.186 131.707 101.995 131.757 101.893L129.509 100.798ZM143.755 109.426L143.086 110.482L143.094 110.487L143.755 109.426ZM141.79 107.107L140.656 107.634L140.661 107.644L141.79 107.107ZM141.827 99.3555L140.705 98.8036L141.827 99.3555ZM143.804 97.0728L143.158 96.0028L143.153 96.0056L143.804 97.0728ZM148.15 96.6455L147.653 97.7925L147.66 97.7954L148.15 96.6455ZM149.407 97.5122L148.493 98.3651L148.498 98.3705L148.503 98.3758L149.407 97.5122ZM150.225 98.7573L149.073 99.2424L149.395 100.007H150.225V98.7573ZM150.286 98.7573V100.007H151.536V98.7573H150.286ZM150.286 91.8115V90.5615H149.036V91.8115H150.286ZM155.181 91.8115H156.431V90.5615H155.181V91.8115ZM155.181 110V111.25H156.431V110H155.181ZM150.335 110H149.085V111.25H150.335V110ZM150.335 107.803H151.585V106.553H150.335V107.803ZM150.237 107.803V106.553H149.396L149.079 107.332L150.237 107.803ZM149.419 109.06L148.525 108.186L148.525 108.187L149.419 109.06ZM148.162 109.89L147.688 108.733L147.681 108.736L148.162 109.89ZM149.383 106.033L148.602 105.057L149.383 106.033ZM150.14 104.934L148.978 104.473L148.974 104.482L148.971 104.491L150.14 104.934ZM150.14 101.565L148.971 102.008L148.974 102.017L148.978 102.026L150.14 101.565ZM149.383 100.479L148.602 101.455L148.609 101.461L148.617 101.467L149.383 100.479ZM147.076 100.479L147.853 101.457L147.861 101.451L147.869 101.445L147.076 100.479ZM146.343 101.565L145.168 101.139L145.165 101.148L145.162 101.157L146.343 101.565ZM146.343 104.958L145.159 105.36L145.164 105.372L145.168 105.384L146.343 104.958ZM147.076 106.045L146.298 107.023L147.076 106.045ZM146.49 108.945C145.714 108.945 145.034 108.75 144.417 108.366L143.094 110.487C144.121 111.128 145.263 111.445 146.49 111.445V108.945ZM144.424 108.37C143.833 107.995 143.323 107.418 142.919 106.57L140.661 107.644C141.234 108.846 142.034 109.815 143.086 110.482L144.424 108.37ZM142.924 106.58C142.542 105.758 142.32 104.669 142.32 103.262H139.82C139.82 104.914 140.078 106.389 140.656 107.634L142.924 106.58ZM142.32 103.262C142.32 101.805 142.554 100.708 142.948 99.9074L140.705 98.8036C140.09 100.053 139.82 101.56 139.82 103.262H142.32ZM142.948 99.9074C143.369 99.0521 143.881 98.49 144.455 98.1399L143.153 96.0056C142.1 96.6483 141.293 97.608 140.705 98.8036L142.948 99.9074ZM144.45 98.1427C145.083 97.7609 145.739 97.5781 146.441 97.5781V95.0781C145.271 95.0781 144.17 95.3918 143.158 96.0028L144.45 98.1427ZM146.441 97.5781C146.958 97.5781 147.352 97.6622 147.653 97.7925L148.647 95.4986C147.971 95.2056 147.226 95.0781 146.441 95.0781V97.5781ZM147.66 97.7954C148.008 97.944 148.28 98.136 148.493 98.3651L150.321 96.6593C149.851 96.156 149.284 95.7702 148.64 95.4956L147.66 97.7954ZM148.503 98.3758C148.749 98.6327 148.937 98.9197 149.073 99.2424L151.377 98.2723C151.122 97.6672 150.765 97.1241 150.311 96.6486L148.503 98.3758ZM150.225 100.007H150.286V97.5073H150.225V100.007ZM151.536 98.7573V91.8115H149.036V98.7573H151.536ZM150.286 93.0615H155.181V90.5615H150.286V93.0615ZM153.931 91.8115V110H156.431V91.8115H153.931ZM155.181 108.75H150.335V111.25H155.181V108.75ZM151.585 110V107.803H149.085V110H151.585ZM150.335 106.553H150.237V109.053H150.335V106.553ZM149.079 107.332C148.943 107.667 148.758 107.948 148.525 108.186L150.313 109.934C150.781 109.456 151.141 108.899 151.395 108.274L149.079 107.332ZM148.525 108.187C148.314 108.403 148.042 108.588 147.688 108.734L148.636 111.047C149.275 110.785 149.842 110.417 150.314 109.933L148.525 108.187ZM147.681 108.736C147.371 108.866 146.981 108.945 146.49 108.945V111.445C147.251 111.445 147.977 111.321 148.643 111.044L147.681 108.736ZM148.223 107.673C148.932 107.673 149.6 107.46 150.164 107.009L148.602 105.057C148.515 105.126 148.409 105.173 148.223 105.173V107.673ZM150.164 107.009C150.697 106.582 151.067 106.014 151.308 105.377L148.971 104.491C148.854 104.798 148.719 104.963 148.602 105.057L150.164 107.009ZM151.302 105.395C151.56 104.743 151.67 104.022 151.67 103.262H149.17C149.17 103.787 149.093 104.181 148.978 104.473L151.302 105.395ZM151.67 103.262C151.67 102.49 151.561 101.759 151.302 101.104L148.978 102.026C149.092 102.315 149.17 102.716 149.17 103.262H151.67ZM151.308 101.122C151.066 100.483 150.693 99.9125 150.149 99.4905L148.617 101.467C148.724 101.549 148.855 101.703 148.971 102.008L151.308 101.122ZM150.164 99.5024C149.6 99.0512 148.932 98.8379 148.223 98.8379V101.338C148.409 101.338 148.515 101.385 148.602 101.455L150.164 99.5024ZM148.223 98.8379C147.514 98.8379 146.844 99.0514 146.283 99.5122L147.869 101.445C147.942 101.385 148.037 101.338 148.223 101.338V98.8379ZM146.298 99.5C145.761 99.927 145.399 100.501 145.168 101.139L147.519 101.99C147.629 101.684 147.756 101.535 147.853 101.457L146.298 99.5ZM145.162 101.157C144.942 101.795 144.849 102.506 144.849 103.262H147.349C147.349 102.699 147.419 102.279 147.525 101.972L145.162 101.157ZM144.849 103.262C144.849 104.012 144.942 104.72 145.159 105.36L147.527 104.557C147.419 104.237 147.349 103.813 147.349 103.262H144.849ZM145.168 105.384C145.399 106.022 145.761 106.596 146.298 107.023L147.853 105.066C147.756 104.989 147.629 104.839 147.519 104.533L145.168 105.384ZM146.298 107.023C146.86 107.47 147.524 107.673 148.223 107.673V105.173C148.027 105.173 147.926 105.124 147.853 105.066L146.298 107.023ZM76.5435 127.812H77.7935V126.562H76.5435V127.812ZM76.5435 146V147.25H77.7935V146H76.5435ZM71.5752 146H70.3252V147.25H71.5752V146ZM71.5752 127.812V126.562H70.3252V127.812H71.5752ZM75.2935 127.812V146H77.7935V127.812H75.2935ZM76.5435 144.75H71.5752V147.25H76.5435V144.75ZM72.8252 146V127.812H70.3252V146H72.8252ZM71.5752 129.062H76.5435V126.562H71.5752V129.062ZM81.0723 145.426L80.4032 146.482L80.4107 146.487L81.0723 145.426ZM79.1069 143.107L77.9732 143.634L77.9784 143.644L79.1069 143.107ZM79.1436 135.355L78.022 134.804L79.1436 135.355ZM81.1211 133.073L80.4749 132.003L80.4701 132.006L81.1211 133.073ZM85.4668 132.646L84.9698 133.792L84.9767 133.795L85.4668 132.646ZM86.7241 133.512L85.8103 134.365L85.8153 134.37L85.8204 134.376L86.7241 133.512ZM87.542 134.757L86.3899 135.242L86.712 136.007H87.542V134.757ZM87.603 134.757V136.007H88.853V134.757H87.603ZM87.603 127.812V126.562H86.353V127.812H87.603ZM92.498 127.812H93.748V126.562H92.498V127.812ZM92.498 146V147.25H93.748V146H92.498ZM87.6519 146H86.4019V147.25H87.6519V146ZM87.6519 143.803H88.9019V142.553H87.6519V143.803ZM87.5542 143.803V142.553H86.7132L86.3963 143.332L87.5542 143.803ZM86.7363 145.06L85.8423 144.186L85.8421 144.187L86.7363 145.06ZM85.479 145.89L85.005 144.733L84.9982 144.736L85.479 145.89ZM86.6997 142.033L85.9188 141.057L86.6997 142.033ZM87.4565 140.934L86.2946 140.473L86.2911 140.482L86.2878 140.491L87.4565 140.934ZM87.4565 137.565L86.2878 138.008L86.2911 138.017L86.2946 138.026L87.4565 137.565ZM86.6997 136.479L85.9188 137.455L85.9264 137.461L85.934 137.467L86.6997 136.479ZM84.3926 136.479L85.1704 137.457L85.178 137.451L85.1855 137.445L84.3926 136.479ZM83.6602 137.565L82.4848 137.139L82.4816 137.148L82.4784 137.157L83.6602 137.565ZM83.6602 140.958L82.4763 141.36L82.4804 141.372L82.4848 141.384L83.6602 140.958ZM84.3926 142.045L83.6148 143.023L84.3926 142.045ZM83.8066 144.945C83.0314 144.945 82.3505 144.75 81.7338 144.366L80.4107 146.487C81.4379 147.128 82.58 147.445 83.8066 147.445V144.945ZM81.7413 144.37C81.1497 143.995 80.6397 143.418 80.2355 142.57L77.9784 143.644C78.5507 144.846 79.351 145.815 80.4032 146.482L81.7413 144.37ZM80.2406 142.58C79.8586 141.758 79.6367 140.669 79.6367 139.262H77.1367C77.1367 140.914 77.395 142.389 77.9733 143.634L80.2406 142.58ZM79.6367 139.262C79.6367 137.805 79.8709 136.708 80.2651 135.907L78.022 134.804C77.407 136.053 77.1367 137.56 77.1367 139.262H79.6367ZM80.2651 135.907C80.6859 135.052 81.198 134.49 81.772 134.14L80.4701 132.006C79.4166 132.648 78.6103 133.608 78.022 134.804L80.2651 135.907ZM81.7673 134.143C82.3996 133.761 83.0559 133.578 83.7578 133.578V131.078C82.588 131.078 81.4865 131.392 80.4749 132.003L81.7673 134.143ZM83.7578 133.578C84.2751 133.578 84.6693 133.662 84.9698 133.792L85.9638 131.499C85.2877 131.206 84.5426 131.078 83.7578 131.078V133.578ZM84.9767 133.795C85.3252 133.944 85.5965 134.136 85.8103 134.365L87.6379 132.659C87.1682 132.156 86.6012 131.77 85.9569 131.496L84.9767 133.795ZM85.8204 134.376C86.0659 134.633 86.2541 134.92 86.3899 135.242L88.694 134.272C88.4393 133.667 88.0822 133.124 87.6279 132.649L85.8204 134.376ZM87.542 136.007H87.603V133.507H87.542V136.007ZM88.853 134.757V127.812H86.353V134.757H88.853ZM87.603 129.062H92.498V126.562H87.603V129.062ZM91.248 127.812V146H93.748V127.812H91.248ZM92.498 144.75H87.6519V147.25H92.498V144.75ZM88.9019 146V143.803H86.4019V146H88.9019ZM87.6519 142.553H87.5542V145.053H87.6519V142.553ZM86.3963 143.332C86.2599 143.667 86.0751 143.948 85.8423 144.186L87.6303 145.934C88.0975 145.456 88.4579 144.899 88.7121 144.274L86.3963 143.332ZM85.8421 144.187C85.6307 144.403 85.3589 144.588 85.005 144.734L85.953 147.047C86.592 146.785 87.1584 146.417 87.6305 145.933L85.8421 144.187ZM84.9982 144.736C84.6877 144.866 84.2982 144.945 83.8066 144.945V147.445C84.5684 147.445 85.2938 147.321 85.9598 147.044L84.9982 144.736ZM85.54 143.673C86.2491 143.673 86.9165 143.46 87.4806 143.009L85.9188 141.057C85.8318 141.126 85.7262 141.173 85.54 141.173V143.673ZM87.4806 143.009C88.0142 142.582 88.3837 142.014 88.6253 141.377L86.2878 140.491C86.1713 140.798 86.0362 140.963 85.9188 141.057L87.4806 143.009ZM88.6185 141.395C88.8771 140.743 88.9873 140.022 88.9873 139.262H86.4873C86.4873 139.787 86.4104 140.181 86.2946 140.473L88.6185 141.395ZM88.9873 139.262C88.9873 138.49 88.8783 137.759 88.6185 137.104L86.2946 138.026C86.4091 138.315 86.4873 138.716 86.4873 139.262H88.9873ZM88.6253 137.122C88.383 136.483 88.01 135.913 87.4654 135.49L85.934 137.467C86.0405 137.549 86.172 137.703 86.2878 138.008L88.6253 137.122ZM87.4806 135.502C86.9165 135.051 86.2491 134.838 85.54 134.838V137.338C85.7262 137.338 85.8318 137.385 85.9188 137.455L87.4806 135.502ZM85.54 134.838C84.8312 134.838 84.1613 135.051 83.5997 135.512L85.1855 137.445C85.2586 137.385 85.3537 137.338 85.54 137.338V134.838ZM83.6148 135.5C83.0776 135.927 82.7158 136.501 82.4848 137.139L84.8355 137.99C84.9463 137.684 85.0728 137.535 85.1704 137.457L83.6148 135.5ZM82.4784 137.157C82.2586 137.795 82.166 138.506 82.166 139.262H84.666C84.666 138.699 84.7362 138.279 84.8419 137.972L82.4784 137.157ZM82.166 139.262C82.166 140.012 82.2593 140.72 82.4763 141.36L84.844 140.557C84.7355 140.237 84.666 139.813 84.666 139.262H82.166ZM82.4848 141.384C82.7158 142.022 83.0776 142.596 83.6148 143.023L85.1704 141.066C85.0728 140.989 84.9463 140.839 84.8355 140.533L82.4848 141.384ZM83.6148 143.023C84.1765 143.47 84.8411 143.673 85.54 143.673V141.173C85.3437 141.173 85.2434 141.124 85.1704 141.066L83.6148 143.023ZM97.6982 145.414L97.1051 146.514L97.1087 146.516L97.6982 145.414ZM95.2812 143.009L96.378 142.41L95.2812 143.009ZM95.2812 135.648L96.378 136.248L96.3799 136.245L95.2812 135.648ZM97.6738 133.207L98.2875 134.296L98.2903 134.294L97.6738 133.207ZM104.083 132.816L103.626 133.98L103.633 133.983L103.64 133.985L104.083 132.816ZM106.231 134.196L105.341 135.074L106.231 134.196ZM107.598 136.381L106.426 136.816L106.429 136.823L106.431 136.83L107.598 136.381ZM108.086 140.409V141.659H109.336V140.409H108.086ZM95.9282 140.409H94.6782V141.659H95.9282V140.409ZM95.9282 137.711V136.461H94.6782V137.711H95.9282ZM105.804 137.711L106.09 138.928L105.804 136.461V137.711ZM103.521 138.249H102.271V139.827L103.807 139.465L103.521 138.249ZM99.4683 136.906L98.3355 136.377L98.3307 136.388L98.326 136.398L99.4683 136.906ZM99.5049 141.679L98.3821 142.228L98.3868 142.238L98.3916 142.247L99.5049 141.679ZM100.311 142.545L99.6904 143.631L99.7056 143.639L99.721 143.648L100.311 142.545ZM102.459 142.692L102.844 143.881L102.859 143.876L102.875 143.871L102.459 142.692ZM103.167 142.289L103.99 143.23L104.001 143.22L104.012 143.211L103.167 142.289ZM103.606 141.654L103.75 140.413L102.801 140.303L102.446 141.19L103.606 141.654ZM107.928 142.155L109.138 142.466L109.496 141.078L108.072 140.913L107.928 142.155ZM106.719 144.315L105.818 143.449L105.812 143.456L106.719 144.315ZM104.498 145.756L104.934 146.927L104.943 146.924L104.498 145.756ZM101.421 145.006C100.153 145.006 99.1229 144.758 98.2878 144.312L97.1087 146.516C98.3732 147.193 99.8249 147.506 101.421 147.506V145.006ZM98.2914 144.314C97.4632 143.867 96.8321 143.24 96.378 142.41L94.1845 143.609C94.8697 144.862 95.85 145.838 97.1051 146.514L98.2914 144.314ZM96.378 142.41C95.9282 141.587 95.6768 140.561 95.6768 139.286H93.1768C93.1768 140.892 93.495 142.348 94.1845 143.609L96.378 142.41ZM95.6768 139.286C95.6768 138.077 95.9244 137.078 96.378 136.248L94.1845 135.049C93.4988 136.303 93.1768 137.728 93.1768 139.286H95.6768ZM96.3799 136.245C96.8392 135.398 97.4701 134.757 98.2875 134.296L97.0602 132.118C95.8268 132.813 94.8626 133.799 94.1826 135.052L96.3799 136.245ZM98.2903 134.294C99.1059 133.832 100.099 133.578 101.312 133.578V131.078C99.7411 131.078 98.3088 131.41 97.0573 132.12L98.2903 134.294ZM101.312 133.578C102.194 133.578 102.96 133.719 103.626 133.98L104.539 131.653C103.544 131.263 102.463 131.078 101.312 131.078V133.578ZM103.64 133.985C104.32 134.243 104.881 134.607 105.341 135.074L107.121 133.318C106.393 132.58 105.521 132.025 104.525 131.647L103.64 133.985ZM105.341 135.074C105.802 135.54 106.166 136.114 106.426 136.816L108.77 135.946C108.396 134.938 107.849 134.056 107.121 133.318L105.341 135.074ZM106.431 136.83C106.694 137.511 106.836 138.308 106.836 139.237H109.336C109.336 138.051 109.154 136.943 108.765 135.932L106.431 136.83ZM106.836 139.237V140.409H109.336V139.237H106.836ZM108.086 139.159H95.9282V141.659H108.086V139.159ZM97.1782 140.409V137.711H94.6782V140.409H97.1782ZM95.9282 138.961H105.804V136.461H95.9282V138.961ZM105.517 136.495L103.235 137.032L103.807 139.465L106.09 138.928L105.517 136.495ZM104.771 138.249C104.771 137.598 104.672 136.967 104.419 136.398L102.135 137.413C102.207 137.577 102.271 137.841 102.271 138.249H104.771ZM104.419 136.398C104.162 135.82 103.76 135.337 103.212 134.999L101.902 137.128C101.988 137.181 102.066 137.259 102.135 137.413L104.419 136.398ZM103.212 134.999C102.651 134.654 102.015 134.521 101.373 134.521V137.021C101.674 137.021 101.827 137.082 101.902 137.128L103.212 134.999ZM101.373 134.521C100.734 134.521 100.103 134.656 99.5456 134.999L100.856 137.128C100.933 137.08 101.084 137.021 101.373 137.021V134.521ZM99.5456 134.999C99.0024 135.333 98.6007 135.809 98.3355 136.377L100.601 137.434C100.678 137.27 100.764 137.184 100.856 137.128L99.5456 134.999ZM98.326 136.398C98.0734 136.967 97.9741 137.598 97.9741 138.249H100.474C100.474 137.841 100.538 137.577 100.611 137.413L98.326 136.398ZM97.9741 138.249V140.25H100.474V138.249H97.9741ZM97.9741 140.25C97.9741 140.949 98.0879 141.627 98.3821 142.228L100.628 141.129C100.548 140.966 100.474 140.691 100.474 140.25H97.9741ZM98.3916 142.247C98.687 142.826 99.1183 143.304 99.6904 143.631L100.931 141.46C100.819 141.396 100.713 141.297 100.618 141.11L98.3916 142.247ZM99.721 143.648C100.284 143.949 100.905 144.076 101.543 144.076V141.576C101.238 141.576 101.037 141.517 100.9 141.443L99.721 143.648ZM101.543 144.076C101.989 144.076 102.426 144.016 102.844 143.881L102.074 141.503C101.939 141.546 101.765 141.576 101.543 141.576V144.076ZM102.875 143.871C103.282 143.727 103.661 143.518 103.99 143.23L102.344 141.348C102.282 141.402 102.189 141.461 102.043 141.513L102.875 143.871ZM104.012 143.211C104.344 142.906 104.599 142.538 104.767 142.119L102.446 141.19C102.418 141.259 102.38 141.314 102.322 141.368L104.012 143.211ZM103.463 142.896L107.784 143.396L108.072 140.913L103.75 140.413L103.463 142.896ZM106.717 141.843C106.56 142.455 106.264 142.984 105.818 143.45L107.621 145.181C108.362 144.409 108.872 143.499 109.138 142.466L106.717 141.843ZM105.812 143.456C105.37 143.922 104.794 144.305 104.052 144.588L104.943 146.924C105.992 146.523 106.897 145.946 107.627 145.175L105.812 143.456ZM104.061 144.585C103.331 144.857 102.458 145.006 101.421 145.006V147.506C102.696 147.506 103.873 147.322 104.934 146.927L104.061 144.585ZM114.861 146V147.25H116.111V146H114.861ZM109.954 146H108.704V147.25H109.954V146ZM109.954 132.523V131.273H108.704V132.523H109.954ZM114.605 132.523L115.855 132.493L115.825 131.273H114.605V132.523ZM114.69 136.027V137.277H115.971L115.94 135.996L114.69 136.027ZM114.434 136.027L113.239 135.659L112.742 137.277H114.434V136.027ZM115.984 133.39L116.863 134.279L116.863 134.279L115.984 133.39ZM121.441 132.975L120.78 134.036L120.785 134.039L121.441 132.975ZM123.052 134.782L121.927 135.327L121.929 135.331L123.052 134.782ZM123.614 146V147.25H124.864V146H123.614ZM118.719 146H117.469V147.25H118.719V146ZM118.218 136.906L117.276 137.728L117.285 137.737L118.218 136.906ZM115.765 136.601L116.408 137.672L116.416 137.667L115.765 136.601ZM115.093 137.345L113.975 136.786L113.97 136.798L115.093 137.345ZM113.611 138.517V146H116.111V138.517H113.611ZM114.861 144.75H109.954V147.25H114.861V144.75ZM111.204 146V132.523H108.704V146H111.204ZM109.954 133.773H114.605V131.273H109.954V133.773ZM113.355 132.554L113.441 136.057L115.94 135.996L115.855 132.493L113.355 132.554ZM114.69 134.777H114.434V137.277H114.69V134.777ZM115.629 136.394C115.901 135.511 116.318 134.818 116.863 134.279L115.106 132.501C114.235 133.362 113.619 134.427 113.239 135.659L115.629 136.394ZM116.863 134.279C117.29 133.857 117.931 133.578 118.951 133.578V131.078C117.448 131.078 116.111 131.507 115.106 132.501L116.863 134.279ZM118.951 133.578C119.73 133.578 120.321 133.75 120.78 134.036L122.102 131.914C121.178 131.338 120.108 131.078 118.951 131.078V133.578ZM120.785 134.039C121.273 134.34 121.652 134.758 121.927 135.326L124.177 134.237C123.704 133.26 123.009 132.473 122.097 131.911L120.785 134.039ZM121.929 135.331C122.207 135.898 122.364 136.587 122.364 137.431H124.864C124.864 136.272 124.647 135.196 124.175 134.232L121.929 135.331ZM122.364 137.431V146H124.864V137.431H122.364ZM123.614 144.75H118.719V147.25H123.614V144.75ZM119.969 146V138.48H117.469V146H119.969ZM119.969 138.48C119.969 137.606 119.751 136.747 119.151 136.074L117.285 137.737C117.353 137.814 117.469 138.004 117.469 138.48H119.969ZM119.16 136.084C118.541 135.374 117.694 135.082 116.802 135.082V137.582C117.131 137.582 117.228 137.672 117.276 137.727L119.16 136.084ZM116.802 135.082C116.211 135.082 115.632 135.217 115.113 135.534L116.416 137.667C116.483 137.626 116.596 137.582 116.802 137.582V135.082ZM115.122 135.529C114.614 135.834 114.234 136.269 113.975 136.786L116.211 137.904C116.278 137.77 116.346 137.709 116.408 137.672L115.122 135.529ZM113.97 136.798C113.71 137.331 113.611 137.921 113.611 138.517H116.111C116.111 138.186 116.167 137.995 116.217 137.893L113.97 136.798ZM134.209 132.523H135.459V131.273H134.209V132.523ZM134.209 136.112V137.362H135.459V136.112H134.209ZM125.066 136.112H123.816V137.362H125.066V136.112ZM125.066 132.523V131.273H123.816V132.523H125.066ZM126.897 129.215V127.965H125.647V129.215H126.897ZM131.805 129.215H133.055V127.965H131.805V129.215ZM132.024 142.228L131.141 143.112L131.153 143.125L131.166 143.137L132.024 142.228ZM133.453 142.399L133.556 143.645L133.574 143.643L133.591 143.641L133.453 142.399ZM134.039 142.313L135.278 142.151L135.096 140.761L133.735 141.101L134.039 142.313ZM134.502 145.854L134.806 147.066L135.887 146.796L135.742 145.691L134.502 145.854ZM133.013 146.098L132.913 144.852L132.911 144.852L133.013 146.098ZM128.057 145.146L127.229 146.082L127.24 146.091L128.057 145.146ZM132.959 132.523V136.112H135.459V132.523H132.959ZM134.209 134.862H125.066V137.362H134.209V134.862ZM126.316 136.112V132.523H123.816V136.112H126.316ZM125.066 133.773H134.209V131.273H125.066V133.773ZM126.897 130.465H131.805V127.965H126.897V130.465ZM130.555 129.215V141.544H133.055V129.215H130.555ZM130.555 141.544C130.555 142.023 130.666 142.637 131.141 143.112L132.908 141.344C132.996 141.432 133.035 141.519 133.05 141.565C133.062 141.604 133.055 141.605 133.055 141.544H130.555ZM131.166 143.137C131.665 143.608 132.316 143.686 132.769 143.686V141.186C132.67 141.186 132.64 141.175 132.656 141.18C132.674 141.185 132.773 141.215 132.883 141.319L131.166 143.137ZM132.769 143.686C132.984 143.686 133.252 143.67 133.556 143.645L133.349 141.153C133.068 141.177 132.88 141.186 132.769 141.186V143.686ZM133.591 143.641C133.871 143.61 134.149 143.574 134.342 143.526L133.735 141.101C133.749 141.097 133.726 141.103 133.638 141.116C133.56 141.128 133.453 141.141 133.315 141.157L133.591 143.641ZM132.799 142.476L133.263 146.016L135.742 145.691L135.278 142.151L132.799 142.476ZM134.199 144.641C133.778 144.746 133.349 144.816 132.913 144.852L133.114 147.344C133.686 147.297 134.25 147.205 134.806 147.066L134.199 144.641ZM132.911 144.852C132.446 144.89 132 144.909 131.573 144.909V147.409C132.073 147.409 132.587 147.387 133.115 147.343L132.911 144.852ZM131.573 144.909C130.162 144.909 129.337 144.6 128.875 144.2L127.24 146.091C128.34 147.042 129.859 147.409 131.573 147.409V144.909ZM128.885 144.209C128.459 143.832 128.147 143.203 128.147 142.082H125.647C125.647 143.679 126.109 145.092 127.229 146.082L128.885 144.209ZM128.147 142.082V129.215H125.647V142.082H128.147ZM136.102 146H134.852V147.25H136.102V146ZM136.102 132.523V131.273H134.852V132.523H136.102ZM141.009 132.523H142.259V131.273H141.009V132.523ZM141.009 146V147.25H142.259V146H141.009ZM136.797 130.595L135.937 131.502L135.945 131.509L135.953 131.517L136.797 130.595ZM136.797 127.372L137.641 128.295L137.641 128.294L136.797 127.372ZM140.289 127.372L139.437 128.287L139.445 128.295L139.453 128.302L140.289 127.372ZM140.289 130.595L139.445 129.673L139.437 129.68L140.289 130.595ZM137.352 146V132.523H134.852V146H137.352ZM136.102 133.773H141.009V131.273H136.102V133.773ZM139.759 132.523V146H142.259V132.523H139.759ZM141.009 144.75H136.102V147.25H141.009V144.75ZM138.555 130.004C138.154 130.004 137.876 129.887 137.641 129.673L135.953 131.517C136.679 132.181 137.572 132.504 138.555 132.504V130.004ZM137.657 129.688C137.424 129.466 137.339 129.253 137.339 128.983H134.839C134.839 129.967 135.227 130.828 135.937 131.502L137.657 129.688ZM137.339 128.983C137.339 128.689 137.429 128.488 137.641 128.295L135.954 126.449C135.221 127.119 134.839 127.992 134.839 128.983H137.339ZM137.641 128.294C137.876 128.08 138.154 127.963 138.555 127.963V125.463C137.572 125.463 136.679 125.786 135.953 126.45L137.641 128.294ZM138.555 127.963C138.944 127.963 139.211 128.077 139.437 128.287L141.14 126.457C140.422 125.789 139.534 125.463 138.555 125.463V127.963ZM139.453 128.302C139.671 128.497 139.759 128.697 139.759 128.983H142.259C142.259 127.984 141.867 127.109 141.124 126.442L139.453 128.302ZM139.759 128.983C139.759 129.257 139.674 129.463 139.445 129.673L141.133 131.517C141.864 130.847 142.259 129.979 142.259 128.983H139.759ZM139.437 129.68C139.211 129.89 138.944 130.004 138.555 130.004V132.504C139.534 132.504 140.422 132.178 141.14 131.51L139.437 129.68ZM151.617 132.523H152.867V131.273H151.617V132.523ZM151.617 136.112V137.362H152.867V136.112H151.617ZM142.474 136.112H141.224V137.362H142.474V136.112ZM142.474 132.523V131.273H141.224V132.523H142.474ZM144.305 129.215V127.965H143.055V129.215H144.305ZM149.212 129.215H150.462V127.965H149.212V129.215ZM149.432 142.228L148.548 143.112L148.56 143.125L148.573 143.137L149.432 142.228ZM150.86 142.399L150.964 143.645L150.981 143.643L150.998 143.641L150.86 142.399ZM151.446 142.313L152.685 142.151L152.503 140.761L151.143 141.101L151.446 142.313ZM151.91 145.854L152.213 147.066L153.294 146.796L153.149 145.691L151.91 145.854ZM150.42 146.098L150.32 144.852L150.318 144.852L150.42 146.098ZM145.464 145.146L144.636 146.082L144.647 146.091L145.464 145.146ZM150.367 132.523V136.112H152.867V132.523H150.367ZM151.617 134.862H142.474V137.362H151.617V134.862ZM143.724 136.112V132.523H141.224V136.112H143.724ZM142.474 133.773H151.617V131.273H142.474V133.773ZM144.305 130.465H149.212V127.965H144.305V130.465ZM147.962 129.215V141.544H150.462V129.215H147.962ZM147.962 141.544C147.962 142.023 148.073 142.637 148.548 143.112L150.316 141.344C150.403 141.432 150.442 141.519 150.457 141.565C150.47 141.604 150.462 141.605 150.462 141.544H147.962ZM148.573 143.137C149.072 143.608 149.724 143.686 150.176 143.686V141.186C150.077 141.186 150.047 141.175 150.063 141.18C150.082 141.185 150.18 141.215 150.29 141.319L148.573 143.137ZM150.176 143.686C150.391 143.686 150.659 143.67 150.964 143.645L150.756 141.153C150.475 141.177 150.287 141.186 150.176 141.186V143.686ZM150.998 143.641C151.278 143.61 151.557 143.574 151.749 143.526L151.143 141.101C151.156 141.097 151.133 141.103 151.046 141.116C150.967 141.128 150.86 141.141 150.722 141.157L150.998 143.641ZM150.206 142.476L150.67 146.016L153.149 145.691L152.685 142.151L150.206 142.476ZM151.606 144.641C151.185 144.746 150.757 144.816 150.32 144.852L150.521 147.344C151.093 147.297 151.658 147.205 152.213 147.066L151.606 144.641ZM150.318 144.852C149.853 144.89 149.407 144.909 148.98 144.909V147.409C149.48 147.409 149.995 147.387 150.523 147.343L150.318 144.852ZM148.98 144.909C147.569 144.909 146.744 144.6 146.282 144.2L144.647 146.091C145.747 147.042 147.266 147.409 148.98 147.409V144.909ZM146.292 144.209C145.866 143.832 145.555 143.203 145.555 142.082H143.055C143.055 143.679 143.516 145.092 144.636 146.082L146.292 144.209ZM145.555 142.082V129.215H143.055V142.082H145.555ZM154.217 150.822L153.001 150.532L152.72 151.713L153.892 152.029L154.217 150.822ZM155.059 147.282L155.238 146.045L154.107 145.881L153.843 146.992L155.059 147.282ZM155.987 147.416L156.256 146.195L156.211 146.185L156.166 146.179L155.987 147.416ZM157.964 147.086L157.004 146.286L156.994 146.298L156.984 146.311L157.964 147.086ZM158.123 146.354L159.35 146.115L159.34 146.062L159.325 146.011L158.123 146.354ZM158.025 146.012L159.227 145.669L159.214 145.622L159.197 145.576L158.025 146.012ZM152.996 132.523V131.273H151.196L151.825 132.96L152.996 132.523ZM158.135 132.523L159.337 132.179L159.078 131.273H158.135V132.523ZM159.869 138.578L161.071 138.238L161.07 138.234L159.869 138.578ZM161.077 144.389V145.639H162.606L162.302 144.14L161.077 144.389ZM160.064 144.389L158.837 144.149L158.546 145.639H160.064V144.389ZM160.711 141.349L159.496 141.056L159.493 141.066L160.711 141.349ZM161.468 138.578L160.275 138.203L160.273 138.212L161.468 138.578ZM163.372 132.523V131.273H162.455L162.18 132.148L163.372 132.523ZM168.438 132.523L169.607 132.965L170.246 131.273H168.438V132.523ZM162.847 147.331L161.678 146.889L161.676 146.894L162.847 147.331ZM159.991 150.688L159.479 149.547L159.469 149.552L159.991 150.688ZM155.669 151.078L155.815 149.837L155.807 149.836L155.799 149.835L155.669 151.078ZM155.433 151.111L156.275 147.571L153.843 146.992L153.001 150.532L155.433 151.111ZM154.88 148.519L155.808 148.653L156.166 146.179L155.238 146.045L154.88 148.519ZM155.718 148.637C156.3 148.765 156.892 148.812 157.454 148.705L156.986 146.249C156.864 146.272 156.634 146.279 156.256 146.195L155.718 148.637ZM157.454 148.705C157.974 148.606 158.541 148.372 158.944 147.862L156.984 146.311C157.005 146.284 157.027 146.264 157.045 146.248C157.064 146.234 157.077 146.226 157.082 146.224C157.089 146.22 157.064 146.234 156.986 146.249L157.454 148.705ZM158.925 147.887C159.371 147.351 159.465 146.706 159.35 146.115L156.896 146.593C156.898 146.604 156.889 146.565 156.904 146.492C156.921 146.414 156.959 146.341 157.004 146.286L158.925 147.887ZM159.325 146.011L159.227 145.669L156.823 146.356L156.921 146.697L159.325 146.011ZM159.197 145.576L154.167 132.087L151.825 132.96L156.854 146.449L159.197 145.576ZM152.996 133.773H158.135V131.273H152.996V133.773ZM156.934 132.867L158.667 138.922L161.07 138.234L159.337 132.179L156.934 132.867ZM158.666 138.919C158.915 139.797 159.117 140.683 159.272 141.576L161.735 141.147C161.565 140.168 161.343 139.198 161.071 138.238L158.666 138.919ZM159.272 141.576C159.437 142.525 159.63 143.545 159.852 144.637L162.302 144.14C162.084 143.067 161.895 142.07 161.735 141.147L159.272 141.576ZM161.077 143.139H160.064V145.639H161.077V143.139ZM161.291 144.628C161.5 143.559 161.712 142.56 161.928 141.632L159.493 141.066C159.27 142.026 159.051 143.054 158.837 144.149L161.291 144.628ZM161.926 141.642C162.148 140.722 162.394 139.823 162.663 138.944L160.273 138.212C159.988 139.14 159.729 140.088 159.496 141.056L161.926 141.642ZM162.66 138.953L164.564 132.898L162.18 132.148L160.275 138.203L162.66 138.953ZM163.372 133.773H168.438V131.273H163.372V133.773ZM167.269 132.082L161.678 146.889L164.017 147.772L169.607 132.965L167.269 132.082ZM161.676 146.894C161.431 147.551 161.122 148.105 160.755 148.571L162.718 150.119C163.262 149.428 163.693 148.64 164.019 147.767L161.676 146.894ZM160.755 148.571C160.431 148.981 160.014 149.307 159.479 149.547L160.502 151.828C161.384 151.433 162.13 150.864 162.718 150.119L160.755 148.571ZM159.469 149.552C158.973 149.78 158.278 149.926 157.33 149.926V152.426C158.513 152.426 159.592 152.246 160.513 151.823L159.469 149.552ZM157.33 149.926C156.825 149.926 156.321 149.896 155.815 149.837L155.523 152.32C156.125 152.39 156.727 152.426 157.33 152.426V149.926ZM155.799 149.835C155.304 149.783 154.887 149.708 154.542 149.615L153.892 152.029C154.393 152.164 154.944 152.259 155.54 152.321L155.799 149.835Z" fill="black" mask="url(#path-3-outside-1_141_51)"/>
</svg>
