<?xml version="1.0" encoding="UTF-8"?><svg xmlns="http://www.w3.org/2000/svg" viewBox="0 0 962.043 727.66"><g id="a"><path id="b" d="M768.293,472.219c-1.44,6.532-2.357,10.694-4.723,15.957-1.601,3.562-2.387,5.481-3.957,9.319-1.696,4.143-2.357,5.969-2.426,8.553-.075,2.835.602,5.13,1.021,6.511.786,2.588,1.805,4.402,2.897,6.265,3.217,5.485,4.616,7.207,6.422,10.203,1.375,2.283,1.025,2.051,6,12.894,2.974,6.482,4.461,9.724,5.187,11.067,2.661,4.927,4.396,7.173,6.347,12.221.881,2.281,1.411,4.11,1.807,5.547,4.002,14.503,5.054,27.458,10.361,42.399,2.396,6.744,4.638,12.891,9.787,19.234,1.808,2.228,4.693,5.364,7.745,8.681,4.24,4.61,5.695,5.961,8.936,9.787,2.752,3.248,4.127,4.871,5.532,6.894,2.511,3.615,3.006,5.14,5.175,7.167,2.426,2.268,4.828,3.185,6.35,3.831,7.903,3.351,7.358,5.847,19.028,12.577,2.695,1.554,9.483,5.319,14.808,8.511,0,0,1.986,1.19,5.702,4.511,1.404,1.254,2.035,1.94,2.468,2.979.312.747.35,1.267.255,5.021-.098,3.885-.168,4.474-.529,5.328-.554,1.311-1.356,2.208-1.854,2.757-.118.13-1.288,1.4-3.011,2.385-3.589,2.053-8.646,2.336-9.585,2.381-9.988.483-13.106.34-13.106.34-8.577-.392-15.131-.933-18.298-1.191-18.307-1.492-16.854-1.15-19.746-1.6-1.54-.24-8.033-1.839-21.02-5.038-5.699-1.404-11.2-3.758-17.021-4.511-.331-.043-1.399-.171-2.638-.766-1.933-.928-3.16-2.45-3.915-3.66-.1-.061-1.605-1.009-1.617-2.723-.007-1.079.581-1.827.769-2.048.386-.427.889-.688.849-1.101-.027-.277-.285-.483-.426-.596-.388-.311-.823-.363-.882-.372-.614-.087-2.4-1.359-3.821-3.936-1.399-2.538-2.06-5.646-2.956-11.011-.663-3.97-.938-6.081-1.781-9.789-.581-2.557-.975-3.86-1.666-5.318-1.027-2.167-2.018-3.215-3.787-5.489-3.221-4.14-2.967-4.56-5.371-7.635-2.594-3.318-4.894-5.394-7.172-7.471-5.044-4.601-10.043-9.252-14.989-13.957-7.977-7.589-10.182-10.242-17.702-17.702-4.888-4.849-12.193-11.898-21.617-20.255-.254-.631-.697-1.452-1.417-1.599-1.339-.272-2.062,2.32-4.853,4.842-4.652,4.202-7.419,5.611-7.042,7.219.159.68.802,1.061,1.1,1.24,13.658,8.201,25.484,19.256,39.27,27.238.612.354,2.642,1.548,4.772,3.656.948.938,1.421,1.407,1.787,2.043.919,1.597.838,3.767.638,8.043-.051,1.1-.119,1.755-.255,3.064-.302,2.906-.533,3.492-.894,3.957-.778,1.003-2.032,1.277-2.808,1.404-26.938,4.403-49.021,3.83-49.021,3.83s-37.827-.982-52.085-5.106c-3.594-1.039-5.179-2.786-5.901-3.805-1.243-1.753-1.545-3.633-1.631-4.749-.317-2.271-.239-4.073-.128-5.234.153-1.597.846-6.946,2.786-12.391.227-.637.694-1.903.151-3.055-.437-.926-1.131-.942-2.553-1.915-.357-.244-3.056-2.139-4.468-5.489-.304-.722-.459-1.288-.598-1.824-.453-1.756-.529-3.389-.577-5.313-.1-3.978.235-9.539-.907-11.738-.41-.79-.983-1.422-.983-1.422-.787-.869-1.61-1.304-1.893-1.455-7.275-3.879-14.324-8.188-21.724-11.822-8.529-4.188-7.537-4.103-10.758-5.348-2.605-1.008-8.188-3.126-15.199-3.801-3.046-.293-6.909-.367-18.805,1.778-10.478,1.889-15.717,2.833-22.046,4.86-14.824,4.748-32.45,14.038-37.787,16.851-2.503,1.319-7.077,3.776-13.277,3.745-5.286-.027-9.522-1.852-12.085-3.234-14.003-6.161-25.224-11.592-33.021-15.489-11.923-5.959-14.468-7.645-24-11.915-10.722-4.803-11.384-4.409-26.043-10.894-3.534-1.563-9.567-4.272-17.532-7.489-1.067-.431-3.605-1.422-8.681-3.404-3.377-1.319-6.865-2.352-10.213-3.745-3.666-1.525-4.893-2.265-6.468-1.702-2.292.819-3.212,3.641-3.745,5.277-.488,1.498-1.246,4.616.17,11.234.497,2.322,1.243,5.701,3.308,10.08,3.594,7.622,9.592,20.343,22.054,27.537,14.096,8.137,27.75,4.172,35.404,12.596.726.799,2.901,3.363,6.618,5.745,4.412,2.827,8.439,3.758,10.057,4.154,5.021,1.228.266.582,22.474,8.144,0,0,11.471,3.906,31.149,13.447.495.24,1.542.762,2.383,1.872.419.554,1.306,1.939,1.191,6.638-.089,3.619-.133,5.428-1.034,6.429-1.068,1.185-2.46,1.234-7.499,1.69-2.491.225-4.969.617-7.467.732-8.63.398-10.558.862-17.872,1.191-18.461.831-32.809,1.553-43.064,0-.672-.102-2.344-.367-4.641-.562-7.28-.619-12.788.148-14.402.35-6.827.852-21.911,1.309-31.681-1.319-9.703-2.61-10.923-7.391-25.532-19.574-15.317-12.774-29.55-20.508-44.277-28.511-1.285-.698-15.728-8.535-33.681-19.66-8.784-5.443-11.614-7.463-13.907-11.49-3.526-6.193-2.353-11.108-6.178-28.17-1.907-8.508-2.883-10.335-4.426-10.723-1.014-.255-3.126-.1-13.957,14.638-3.254,4.428-7.335,10.225-11.915,17.702-3.215,5.249-5.18,8.859-6.979,13.106-1.487,3.511-3.061,7.292-3.334,11.057-.044.611-.163,2.718-.517,5.667-.244,2.028-.352,2.398-.426,3.234-.305,3.445.723,6.27,1.277,7.745,1.179,3.141,2.099,3.241,6.043,10.128.259.452.655,1.181,1.447,2.638,1.983,3.649,2.313,4.396,2.553,5.447.113.492.018.233.426,2.809.089.56.374,2.364.511,3.064.546,2.789,2.059,4.993,2.574,5.745,1.166,1.698,2.09,2.309,6.362,5.574,5.41,4.136,4.194,3.36,6.808,5.277,3.666,2.687,5.07,3.488,9.021,6.213,2.2,1.517,5.354,3.743,9.128,6.596,2.724,1.806,6.752,4.63,10.267,7.786.787.707,1.613,1.488,2.158,2.767.671,1.573.357,2.584.17,6.809-.168,3.793.045,3.892-.317,4.518-1.013,1.755-3.407,2.047-8.194,2.631-2.651.323-3.766.167-11.828.839h-.009c-6.38-.187-12.762-.318-19.142-.498-5.326-.151-3.843.176-11.17-.059-4.416-.141-8.217-.274-13.141-.976-2.002-.286-1.291-.252-8.703-1.551-7.413-1.299-7.363-1.2-9.381-1.666-4.006-.927-7.023-1.971-10.307-3.109-1.853-.642-4.601-1.594-7.574-2.894-.795-.348-1.378-.62-2.553-1.106-2.751-1.138-4.127-1.707-4.34-1.787-1.583-.592-2.083-.704-2.383-1.277-.268-.512-.183-1.142,0-2.383.033-.223.211-1.433.511-2.298.758-2.188,2.501-2.767,5.661-6.033,1.229-1.271.566-.77,2.687-3.151,1.378-1.547,2.217-2.386,2.205-3.581-.009-.869-.464-1.507-.596-1.702-1.864-2.758-3.758-12.644-5.106-17.957-2.612-10.291-6.942-18.241-8.17-20.426-3.899-6.934-8.189-12.048-10.851-15.192-.329-.389-.3-.349-10.085-11.106-2.022-2.223-6.644-7.365-9.319-13.277-.773-1.709-1.613-3.988-1.329-6.725.149-1.437.565-2.589,1.029-3.846.987-2.681,2.136-4.471,2.854-5.642,0,0,2.078-3.391,4.34-8.298,2.023-4.389,2.541-8.046,3.192-12.638.771-5.443.662-9.513.511-14.298-.227-7.203-1.002-12.933-1.532-16.34-1.577-10.136-3.059-12.991-5.617-24-1.296-5.577-3.346-14.525-4.52-25.809-1.524-14.642-.742-25.227-.544-27.702.445-5.54,1.057-12.656,3.745-21.362.704-2.28,1.49-4.414,3.064-8.681,2.691-7.295,4.079-11.059,6.468-15.83,1.244-2.485,2.81-5.134,5.942-10.433,2.62-4.433,4.869-8.087,6.484-10.673-2.477-.682-5.881-1.683-9.872-3.064-2.244-.776-10.929-3.836-18.383-7.66-13.656-7.006-23.275-16.626-25.996-19.451-21.959-22.797-26.04-50.852-27.025-58.336-2.622-19.91,1.072-35.568,3.057-43.646,3.925-15.973,9.949-27.138,11.666-30.226,10.805-19.425,24.493-30.732,34.043-38.468,11.184-9.061,20.506-14.154,39.149-24.34,10.989-6.004,19.524-10.074,36.596-18.213,2.539-1.211,19.569-9.319,38.298-18.043,6.097-2.84,10.854-5.037,17.532-8.511,4.908-2.553,9.109-4.73,14.809-7.83,24.168-13.143,25.745-14.889,37.277-20.426,7.284-3.497,12.044-5.387,20.061-8.571,14.497-5.757,21.843-7.745,30.313-7.323,7.601.379,12.893,2.538,12.944,4.149.009.278-.118,1.202-.575,2.138-.339.693-.793,1.257-1.212,1.777-.82,1.018-1.397,1.484-1.254,1.752.081.151.293.058.743.205.046.015.908.309,1.277,1.021.196.379.082.545.17,1.447,0,0,.073.741.255,1.447.25.965.587,1.069,1.447,2.638.514.937.77,1.405.913,2.061.183.844.116,1.568.059,2.182-.131,1.412-.456,1.673-.235,2.389.2.647.534.657.795,1.368.287.781.153,1.5.062,1.952-.736,3.688-2.969,6.574-2.969,6.574-3.41,4.41-5.116,6.615-6.2,7.729-4.888,5.02-7.332,7.53-11.312,10.867-.993.832-8.858,7.383-16.944,12.027-3.06,1.758-11.513,6.322-35.319,10.979-11.668,2.282-23.608,3.819-47.489,6.894-6.126.789-13.075,1.651-22.213,4.34-1.759.518-6.961,2.092-19.399,7.481-8.019,3.474-16.94,7.339-28.601,13.626-14.652,7.899-25.074,15.009-28.46,17.354-5.793,4.013-9.542,6.609-14.405,10.714-6.901,5.825-15.529,13.107-23.093,25.123-8.432,13.395-11.034,25.511-11.574,28.17-2.635,12.972-1.37,23.269-.706,28.321.365,2.774,1.649,11.554,5.812,22.147,2.208,5.62,4.097,10.426,8.34,15.915,1.159,1.498,5.448,6.871,12.851,11.745,3.637,2.394,9.144,6.021,16.996,7.459,8.061,1.477,14.317-.134,23.259-2.438,8.643-2.227,14.98-5.254,18.894-7.149,5.863-2.838,10.368-5.652,13.021-7.404,3.526-2.329,5.296-3.783,7.66-5.532,6.18-4.572,13.288-9.83,22.468-13.021,8.781-3.052,17.728-3.612,21.092-3.657,1.096-.015,5.653-.079,11.791-.635,1.058-.096,2.167-.219,3.458-.389,3.023-.396,1.571-.328,13.447-2.383,5.859-1.014,12.925-2.193,16.5-2.738,7.859-1.199,14.885-1.783,31.415-2.539,13.49-.616,20.234-.925,32.536-1.153,17.818-.331,44.951-.835,75.392-5.385,5.363-.802,42.054-6.438,67.731-17.717,2.955-1.298,9.963-4.515,17.872-8.426,12.427-6.144,19.36-10.183,23.111-12.435,2.378-1.428,4.117-2.521,5.821-3.593,9.15-5.761,16.034-10.625,19.323-12.993,4.47-3.217,6.999-5.205,8.781-6.687,1.794-1.492,2.411-2.052,4.401-3.734,2.22-1.877,5.5-4.58,9.711-7.792,10.396-8.19,18.151-14.436,20.851-16.766.438-.378,1.613-1.413,1.362-2.213-.254-.806-1.752-.723-4.085-1.447-1.369-.425-2.416-.992-4.511-2.128-.879-.477-2.997-1.663-5.447-3.489-.928-.692-4.777-3.617-9.021-8.851-2.306-2.844-3.978-4.905-5.44-7.96-1.233-2.575-3.034-7.354-2.828-14.103.006-2.372.024-4.185.097-5.427.017-.289.059-.924-.34-1.362-.414-.454-1.092-.43-1.367-.459-4.026-.426-5.565-.196-7.313-.648-.373-.097-2.075-.565-3.581-1.934-2.155-1.96-2.785-4.744-2.845-6.066-.26-5.752,9.071-10.618,14.17-13.277,2.475-1.29,6.302-3.107,22.553-7.915,8.415-2.489,12.623-3.734,18.808-5.191,4.407-1.038,11.949-2.692,21.375-4.088,4.602-.682,7.106-1.053,10.796-1.359,4.792-.397,14.28-.909,15.318-.965,1.084-.059,2.163-.247,3.249-.244.904.002,1.582.065,2.455-.28.184-.073.805-.332,1.433-.909.888-.814,1.243-1.758,1.312-1.927.613-1.504,5.13-6.819,11.835-11.691,3.43-2.493,8.069-5.331,19.462-10.239,11.838-5.1,17.859-7.693,26.936-9.957,6.013-1.5,14.296-3.087,24.383-3.574h0c.086-.005,48.192-2.697,84.596,21.106,2.401,1.57,3.43,3.029,3.43,3.029,1.516,2.151,2.975,6.159,3.379,7.269.144.397.495,1.378,1.426,2.021.546.377,1.075.488,1.422.558,2.203.442,3.304.662,4.208.669,11.823.084,23.589,1.938,35.413,2.029,4.321.033,15.483.674,37.66,3.319,9.304,1.11,20.396,2.65,32.886,4.832,6.445,1.439,16.784,4.501,24.043,10.912,4.182,3.693,4.549,6.033,4.411,7.426-.29,2.932-3.249,5.053-3.802,5.449-2.314,1.658-4.721,1.973-5.645,2.083-15.005,1.785-32.808,2.17-32.808,2.17-8.506.184-7.48.336-9.069.226-.878-.061-4.966.072-13.141.338-.232.008-.934.036-1.024.33-.088.289.472.665,1.468,1.468.588.474,1.129,1.003,1.723,1.468.641.502,6.516,5.615,9.319,14.106.786,2.382,3.471,10.947-.319,20.553-3.306,8.378-9.581,12.588-12.511,14.553-2.464,1.653-10.206,6.847-19.723,6.064-2.114-.174-5.026-.882-10.851-2.298-4.416-1.073-6.402-1.728-10.851-2.553,0,0-3.438-.637-9.319-.766-2.715-.059-3.86.061-4.965.802-1.547,1.036-2.16,2.714-3.078,5.326-1.09,3.102-1.403,5.428-1.403,5.428-1.394,10.355-2.091,15.532-2.171,16.402-.68,7.385-1.93,12.882-3.064,17.872-2.426,10.676-5.431,18.508-6.128,20.298-1.516,3.893-3.649,8.425-7.915,17.489-2.056,4.368-3.779,7.905-4.851,10.085-3.684,7.494-5.526,11.242-6.202,12.29-.234.363-1.015,1.548-1.712,3.285-.401.998-.64,1.847-.778,2.392.013.801.027,2.062.012,3.608-.026,2.58-.112,3.666-.255,7.021-.303,7.089-.325,11.738-.325,13.792h0c.105,2.138-.29,7.381-1.079,17.868-.362,4.815-.93,12.267-1.915,20.936-1.157,10.182-2.36,17.496-4.085,27.702-3.333,19.727-4.147,20.714-6,33.702-1.005,7.043-2.182,15.293-2.936,26.426-1.016,15.009-.271,20.598-2.681,31.532Z" fill="#320b06"/></g><g id="c"><path id="d" d="M565.165,515.028c-76.334-29.287-101.697-59.407-109.787-82.723-2.731-7.871-8.935-30.648-29.106-45.447-10.861-7.969-22.686-11.36-31.149-13.787-17.148-4.918-31.442-9.018-38.298-2.553-10.059,9.484,8.837,29.499-1.021,48-9.173,17.216-36.283,20.06-59.234,22.468-15.222,1.597-22.959,2.297-29.106-2.553-13.814-10.898-12.954-42.197-12.766-49.021.266-9.662,1.738-16.862-2.01-19.091-3.051-1.814-8.413.349-17.395,7.346-19.893,15.496-26.234,30.313-35.745,41.362-8.367,9.72-23.13,21.102-51.064,26.553-25.319,2.581-33.695-5.576-36.255-8.681-13.878-16.828.031-58.699,40.34-102.128,9.182-6.161,24.308-14.344,43.404-16.34,8.76-.916,14.924-1.56,22.468,1.021,9.959,3.408,12.808,9.181,21.447,9.702,6.83.412,10.642-2.859,16.851-5.617,11.328-5.033,16.278-1.982,39.83-2.553,21.777-.528,38.128-.924,56.681-8.17,7.844-3.064,11.252-5.465,20.426-7.66,1.963-.469,29.508-6.877,33.702,1.021,5.075,9.556-29.257,30.207-24,41.872,3.086,6.848,18.704,8.136,30.109,4.043,10.734-3.852,16.403-11.993,20.955-17.83,12.23-15.684,29.648-26.519,44.426-39.83,41.946-37.784,85.408-64.907,91.404-58.723,2.045,2.109-.924,7.415,2.553,10.723,3.164,3.011,9.121,1.947,13.787.511,1.525,5.998,3.354,13.792,5.106,22.979,4.072,21.351,3.148,26.198,2.553,28.596-2.455,9.892-7.05,9.25-10.213,20.426-3.512,12.41.33,19.648-3.574,21.957-5.083,3.006-11.745-9.17-21.958-8.17-10.135.992-10.522,13.665-28.596,30.128-11.258,10.255-14.985,8.869-19.326,15.746-9.559,15.142-.922,36.806,2.475,45.02,20.345,49.194,70.885,64.063,65.872,81.191-.859,2.934-3.677,7.059-13.787,10.213Z" fill="#42210b"/><path d="M221.819,684.468c-.158.332-.431.797-.894,1.223-.731.67-1.539.876-2.425,1.075-2.747.62-3.759.716-3.759.716-3.475.332-5.213.498-6.539.56-3.14.148-5.529.163-6.126.166-5.053.025-9.376-.116-15.916-.336-3.083-.104-4.453-.164-6.722-.122-2.158.04-3.014.134-5.236.122-1.192-.006-2.419-.041-5.319-.213-4.341-.258-6.511-.386-8.766-.638-2.133-.238-3.3-.45-8.851-1.447-10.431-1.872-10.246-1.83-10.379-1.86,0,0-8.679-1.964-17.15-5.537-.644-.272-2.648-1.128-5.726-2.411-2.043-.852-3.713-1.538-4.787-1.979-.077-.091-.181-.231-.271-.419-.192-.401-.212-.8-.144-1.464.047-.456.113-.821.383-2.043.157-.709.236-1.065.271-1.174.227-.691.521-1.188.941-1.89.17-.284.407-.662.713-1.096,26.902,2.131,54.429,5.975,82.447,11.872,1.59.335,3.176.675,4.756,1.02.206,1.116.324,2.077.396,2.822.208,2.146.316,3.259.124,4.754-.103.803-.208,1.062-.152,1.29.003.014.042.07.067.157.041.145.017.247.021.277.039.255,2.906.01,3.828-.052,3.067-.206,4.601-.309,4.853-.267.059.01.269.049.447-.064.224-.142.27-.445.287-.575.633-4.676.95-7.014.947-7.064-.044-.752-.114-1.343.277-1.745.463-.476,1.163-.265,2.021-.298,1.773-.067,3.669-1.153,4.426-2.468.98-1.704.08-3.855.518-3.962.22-.054.526.471.78.915.851,1.485,1.058,2.854,1.085,3.047.194,1.369.156,2.46-.085,5.362-.082.986-.194,2.258-.34,3.745Z" fill="#290000"/><g id="e"><path d="M882.628,708.319c-.699,1.377-1.538,2.289-2.112,2.825-1.342,1.252-2.691,1.807-3.845,2.282-1.123.462-1.685.693-1.958.596-1.824-.648.75-6.962-1.362-12.255-1.177-2.951-2.859-3.196-11.149-9.106-6.683-4.765-6.292-5.106-13.702-10.298-9.751-6.833-12.65-7.799-13.574-6.936-.259.242-.315.583-.393,1.052-.212,1.282.353,2.653,2.563,5.203,2.044,2.358,3.702,3.702,3.702,3.702,3.868,3.134,7.311,5.304,9.064,6.383,4.332,2.667,6.498,4.001,8.298,4.979,2.134,1.16,4.312,2.251,6,4.723.857,1.255,1.765,3.126,1.276,3.574-.44.404-1.753-.585-3.447-1.404-2.177-1.053-4.034-1.312-7.66-1.787-10.146-1.329-23.872-1.277-23.872-1.277-6.333.024-10.056.158-16.975-.083-2.13-.074-5.679-.223-10.217-1.066-4.48-.833-7.224-1.371-10.085-3.319-3.81-2.593-3.052-4.433-5.745-5.617-5.923-2.605-13.64,4.518-15.191,2.681-.627-.742.221-2.394.894-3.702,2.111-4.109,5.359-5.768,10.851-9.83,0,0,.943-.697,5.617-4.426,6.564-5.236,12.773-14.292,13.957-20.766,1.979-10.819-9.316-18.583-19.404-31.66-7.895-10.234-16.852-26.056-21.106-50.383-9.54-11.128-19.08-22.255-28.621-33.383,3.869-4.256,8.087-9.474,12.195-15.724,4.744-7.218,8.19-14.06,10.705-19.947-.28,1.517-.517,3.828.019,6.501.625,3.12,1.994,5.192,3.234,7.149,0,0,.783,1.235,6.63,11.333,3.031,5.234,4.905,9.442,7.328,14.88,3.092,6.942,2.508,6.607,4.766,11.234,3.471,7.112,4.883,7.968,6.751,12.953,1.422,3.795,1.558,5.846,2.611,11.728,0,0,1.407,7.859,4.255,19.234,3.619,14.451,6.02,24.038,13.277,33.192,5.489,6.923,15.299,15.545,19.021,21.787.273.458,1.545,2.634,3.574,5.362.152.205,2.354,3.153,4.238,5.089,3.533,3.629,7.329,5.119,10.102,6.401,6.873,3.176,4.699,3.797,15.777,10.297,0,0,13.962,8.192,18.947,11.83,1.356.989,2.35,2.004,2.553,2.213.674.694,1.315,1.354,1.787,2.128.489.802.953,1.981.766,6.894-.046,1.198-.138,2.827-.34,4.766Z" fill="#42210b"/></g><path id="f" d="M753.862,510.277c-2.456,5.168-6.547,12.844-12.921,21.205-6.109,8.012-8.272,8.727-18.739,19.902-13.703,14.628-14.863,18.6-26.808,30.638-7.046,7.101-13.25,12.379-17.234,15.617,18.873-35.39,27.646-65.125,32.17-85.787,5.324-24.318,3.57-30.626,11.362-62.851,4.283-17.716,5.916-36.036,10.723-53.617,0,0,1.967-7.194,2.043-19.915.052-8.81-1.087-11.99-3.064-14.298-2.961-3.456-6.762-3.745-6.851-6.17-.086-2.352,3.466-2.714,6.255-7.277.773-1.265,3.245-5.342,1.787-9.447-.864-2.432-2.896-3.951-4.468-4.851,1.591-.214,3.823-.787,5.362-2.553,1.786-2.05.831-3.633,2.426-5.489,1.719-2.001,3.896-1.402,9.574-2.936,1.953-.528,3.472-1.118,6.511-2.298,5.335-2.073,5.922-2.901,11.872-5.617,7.998-3.65,9.612-3.374,12.255-6.128,1.768-1.841,2.218-3.186,4.087-6.842,1.745-3.413,4.379-8.162,8.169-13.711-2.198,50.112-4.783,73.384-6.936,85.064-1.552,8.42-2.482,13.698-4.34,24.255-2.885,16.386-3.274,19.142-3.574,21.447-.828,6.361-1.342,13.175-2.369,26.804-1.137,15.083-1,15.784-1.716,20.175-1.59,9.748-4.012,16.978-5.617,21.702-2.125,6.253-5.268,14.177-9.958,22.979Z" fill="#512d0f"/><g id="g"><path d="M781.277,298.66c-.638,2.317-1.999,5.922-5.16,8.894-2.751,2.586-5.668,3.566-6.872,3.979-17.084,5.859-20.321,11.141-34.553,13.277-4.973.746-16.67,2.502-29.447-2.043-5.282-1.879-10.283-4.669-30.298-24.681-14.882-14.881-26.132-27.352-32.139-34.078-9.541-10.685-17.295-19.688-22.67-26.007-1.712-1.757-4.124-4.678-5.787-8.851-.957-2.402-1.538-4.895-1.872-8.681-.317-3.582-.801-9.609.851-17.532,1.344-6.442,4.831-17.64,3.064-20.596-.097-.162-.499-.784-.681-1.702-.358-1.809.426-3.334.681-3.915,1.053-2.395-.377-3.503-1.021-10.043-.581-5.897.326-7.592-1.362-9.362-1.352-1.418-2.67-1.102-3.574-2.723-1.106-1.981-.245-4.435.17-5.617,1.343-3.826,3.399-3.908,4.426-6.468,1.979-4.937-4.078-8.6-2.383-12.766,1.439-3.537,6.207-1.886,11.745-6.809,3.472-3.087,5.012-6.771,6.192-9.596,1.198-2.869,1.65-5.771,2.553-11.574.888-5.707.674-7.353-.234-8.787-1.255-1.981-3.383-2.841-4.766-3.234,1.37-2.343,3.55-5.631,6.809-9.021,4.959-5.161,9.953-7.997,17.532-11.745,12.284-6.074,18.426-9.112,27.064-11.915,8.352-2.711,21.878-6.983,39.66-6.979,8.158.002,14.479.903,20.085,1.702,12.362,1.762,21.457,4.399,27.915,6.298,4.267,1.255,11.417,3.493,19.915,7.319,6.075,2.735,8.847,4.484,11.404,6.809,4.306,3.913,6.691,8.26,8,11.234-.572.745-1.327,1.886-1.872,3.404-.509,1.416-.964,3.517.511,11.574.733,4.003,1.099,6.005,2,8.511.92,2.559,1.702,4.736,3.447,7.149,2.894,4.003,6.152,5.496,5.617,7.149-.212.655-.804.666-1.702,1.362-2.457,1.904-3.22,5.848-2.724,8.511.568,3.049,2.574,3.273,5.958,8,.371.518,2.731,3.851,4.031,7.422,2.155,5.922-.583,7.066.395,15.216.874,7.278,3.618,11.038,1.532,16.34-.344.874-.544,1.091-1.021,2.383-1.685,4.561-1.583,8.327-1.619,10.422-.013.777-.718,4.761-2.126,12.727,0,0-1.821,10.302-3.745,18.894-4.055,18.111-12.837,36.1-18.662,48.033-3.495,7.16-8.524,16.873-15.263,28.116Z" fill="#3c1b0b"/><path d="M763.788,261.748c1.316,1.181,1.887,2.215,1.712,3.103-.858,4.367-19.747,5.191-56.67,2.47-5.2-5.637-6.617-10.537-6.99-13.875-1.043-9.338,5.428-12.32,6.298-25.191.447-6.621-1.204-6.741-.851-16.511.307-8.492,3.492-10.579,2.034-15.796-1.687-6.036-6.03-6.587-5.843-11.459.154-4.006,3.131-4.703,3.574-10.383.188-2.411-.335-2.462-.34-6.979-.006-4.586.529-7.349,0-7.489-.88-.234-2.113,7.47-6.277,8.489-2.239.548-4.423-1.058-5.468-1.851-25.111-19.058-31.426-30.106-31.426-30.106-9.048-15.832-14.654-37.412-9.192-46.723.62-1.057,1.808-2.648,2.298-5.277,1.382-7.413-4.748-12.562-2.312-16.11.241-.35,1.573-1.038,4.227-2.4,1.652-.848,4.585-2.353,7.021-3.447,17.907-8.041,30.638-10.596,30.638-10.596,11.393-2.286,20.548-2.267,24.426-2.17,7.95.199,13.401,1.221,22.984,3.016,12.733,2.386,21.241,4.99,31.608,8.202,18.254,5.655,20.165,7.658,21.323,9.548,3.523,5.753.431,11.063-2.553,26.638-4.141,21.611-.796,27.962-3.029,32.589-.185.383-.745,1.223-2.078,2.645-6.599,7.047-12.103,5.79-16.468,10.34-5.196,5.417-.688,10.631-6.638,16.851-.786.821-5.284,5.524-10.723,4.596-5.403-.922-8.048-6.772-8.681-8.17-3.165-6.998-.903-13.895-1.064-13.915-.236-.03-6.69,14.733-.255,25.532,5.161,8.661,15.294,9.202,15.064,14.043-.245,5.156-11.798,5.679-13.307,13.26-.761,3.823,2.129,5.455,2.158,12.527.016,3.923-.6,5.91-1.192,10.043,0,0-1.179,8.233-.681,16.851.196,3.387,1.57,14.221,16.671,27.705Z" fill="#320b06"/><path id="h" d="M780.904,283.064c2.202,11.73-.355,22.202-6.665,26.222-3.676,2.342-7.42,2.332-7.42,2.332-3.177-.009-5.821-1.495-10.979-4.468-5.619-3.239-5.953-4.251-9.192-5.106-3.3-.872-6.322-.711-7.532-.638-1.51.091-3.701.224-6.327,1.169-1.932.696-2.533,1.268-5.014,2.086-1.676.552-2.917.79-3.967,1.003-4.698.951-6.53,1.584-9.309,2.188-5.859,1.273-17.95,3.901-25.936-.064-3.303-1.64-6.255-4.085-6.255-4.085-.107-.089-2.103-1.752-3.574-3.447-3.939-4.539-5.187-10.545-5.617-13.404-.287-1.81-1.665-11.545,4.479-17.464,3.549-3.419,7.998-4.014,11.904-4.536,10.524-1.407,13.757,3.152,24.511,1.532,3.612-.544,2.854-.999,9.021-2.213,6.375-1.254,10.694-2.104,16.21-1.681,4.935.379,6.246,1.425,12.131,1.511,2.971.043,5.412-.183,7.021-.383,1.773-.167,5.013-.233,8.681,1.149,3.617,1.363,5.835,3.451,6.894,4.468,5.166,4.964,6.525,11.197,6.936,13.83Z" fill="#2d0000"/><path d="M709.066,206.928c.361,1.993.851,5.106,1.13,8.955.492,6.79-.253,7.847.401,13.002.645,5.08,1.528,5.305,2.233,11.377.53,4.566.776,6.893-.191,9.048-1.864,4.159-5.424,3.715-6.217,7.213-.694,3.059,1.199,7.05,3.919,8.872,1.791,1.2,3.473,1.147,3.574,2.043.1.889-1.51,1.368-4.596,3.574-3.359,2.401-3.191,3.077-4.851,3.574-2.724.816-5.502-.307-6.638-.766-2.85-1.152-3.589-2.613-5.248-2.322-1.59.279-2.533,1.906-2.923,2.578-3.07,5.297,1.24,12.545,1.532,13.021,1.067,1.742,2.888,4.715,6.383,5.617,2.357.609,4.442.009,5.362-.255,1.594-.458,3.678-1.057,4.596-2.809.714-1.363.173-2.373,1.021-3.064.936-.761,2.878-.576,3.319.255.8,1.51-3.094,5.64-7.149,7.915-.631.354-2.256,1.219-8.681,2.553-11.92,2.476-13.894,1.072-14.553.511-.784-.667-1.968-2.066-2.298-5.106-.156-6.479-.476-11.871-.766-15.83-.524-7.155-.888-8.782-2.043-10.468-3.162-4.617-8.204-3.759-12.511-6.638-3.781-2.528-7.726-8.424-7.221-23.725,1.933-2.247,4.478-4.849,7.732-7.424,2.474-1.958,6.282-4.926,11.804-7.123,5.103-2.03,5.674-1.016,10.408-2.834,6.288-2.415,10.357-6.154,12.511-8.17,5.626-5.267,8.646-10.931,10.213-14.553l-.255,10.979Z" fill="#512d0f"/><path d="M791.628,262.213c-1.658.722-4.121,1.482-6.894,1.021-5.437-.903-6.753-5.616-13.787-10.723-5.961-4.329-12.239-6.189-12.766-5.362-.355.557,1.974,2.211,5.106,6.894,3.221,4.815,2.739,6.027,2.553,6.383-.892,1.714-4.242,1.584-5.106,1.532-5.088-4.499-13.29-13.241-15.574-25.532-1.472-7.919-.511-16.085-.511-16.085.648-5.505,1.838-8.086,2.298-14.043.42-5.433-.06-9.904-.511-12.766,2.189,3.894,4.277,6.984,5.872,9.191,5.406,7.481,8.729,9.785,10.213,10.723,2.678,1.693,4.842,3.019,7.404,2.553,2.543-.463,3.788-2.384,5.617-1.787,1.382.451,1.28,1.746,2.808,3.319,2.688,2.765,6.736,2.788,7.915,2.809,1.236.021,3.406.059,5.596-1.213.596-.346,1.975-1.147,3.064-2.723.806-1.166.797-1.807,1.362-2.043.687-.287,2.004.117,4.787,3.426,1.182,6.695.932,12.18.511,15.83-.788,6.827-2.716,11.903-4.596,16.851-1.897,4.995-3.876,8.986-5.362,11.745Z" fill="#512d0f"/><path d="M775.649,305.426c-1.73-.174-4.723-.704-7.915-2.553-2.695-1.562-4.465-3.445-5.489-4.723-.122-.721-.384-1.792-1.021-2.936-.28-.503-.494-.769-1.276-1.787-1.548-2.013-2.325-3.027-2.48-3.409-.575-1.418-.244-2.773.054-3.995.705-2.885,1.984-3.097,3.064-5.745.334-.818,1.847-4.529.255-7.532-1.035-1.953-3.159-3.182-4.04-3.693-.657-.38-1.838-.976-3.502-2.125-.484-.334-.876-.623-1.139-.821.55-.235,1.302-.452,2.156-.345,2.061.259,3.268,2.227,3.589,2.005.154-.106.054-.68-.894-2.553.376-.069.95-.116,1.532.128.844.353,1.051,1.042,1.761,1.742.793.781,1.236.612,2.58,1.322,1.612.851,2.591,1.948,3.702,3.191,1.31,1.467,1.965,2.2,2.042,2.809.225,1.773-1.789,2.728-5.617,7.149-2.459,2.84-2.967,3.992-3.064,5.234-.169,2.166.979,3.733,1.149,3.957,1.168,1.544,3.079,2.412,4.979,2.298,2.306-.138,3.74-1.673,4.085-2.043.848-.908.807-1.417,1.928-3.381,1.176-2.061,1.764-2.454,2.285-3.385,2.359-4.216-1.637-10.565-1.021-10.851.289-.135,1.444,1.144,2.298,3.064,1.577,3.544.506,5.626,1.021,11.234.257,2.803.524,2.268,1.021,6.511.515,4.388.42,6.58-.52,8.737-.49,1.124-1.088,1.961-1.523,2.497Z" fill="#754c24"/><path d="M733.138,318.702c-.802-.523-2.078-1.388-3.574-2.553-4.021-3.131-4.943-4.78-7.404-6.255-1.501-.899-3.93-1.948-7.66-2.043,1.479-.329,2.969-.67,4.468-1.021,2.991-.701,5.927-1.426,8.808-2.17,2.004-1.089,5.437-2.62,9.958-3.064,5.669-.557,10.134.883,12.383,1.787.931.648,2.282,1.583,3.922,2.697,3.045,2.068,4.568,3.102,5.248,3.452,4.569,2.349,8.105,1.529,8.291,2.586.118.672-1.24,1.419-5.716,3.521-9.616,4.516-7.439,3.309-13.404,5.745-2.298.939-4.32,1.81-7.239,1.998-1.072.069-2.674.072-2.719-.211-.095-.609,7.079-2.16,7.021-2.426-.035-.158-2.531.623-5.489.383-2.93-.237-5.277-1.392-6.894-2.426Z" fill="#36150b"/><path d="M707.053,174.106c-.204,1.687-.618,4-1.532,6.638-.491,1.417-1.326,3.827-2.043,3.745-.755-.086-.452-2.827-2.043-5.957-.89-1.751-2.041-2.974-2.894-3.745-.592-.339-1.465-.823-2.553-1.362-1.495-.74-2.056-.92-2.383-1.532-.173-.324-.462-1.109.17-2.553.078-1.233.329-2.758,1.192-3.064,1.207-.428,2.399,1.962,4.085,2.043,1.372.065,3.286-1.389,5.787-7.66,1.055-1.056,1.584-1.149,1.872-1.021.919.407.162,3.389,0,7.489-.115,2.913.113,5.325.34,6.979Z" fill="#42210b"/><path d="M623.479,102.958c-.782-.423-2.011-.978-3.586-1.222-1.95-.302-3.48.021-4.058.134-2.96.576-3.994.119-10.25.4-5.8.26-8.446.812-19.552,1.879-15.45,1.485-16.485,1.011-21.277,2.553-2.923.941-5.044,1.924-9.459,2.898-3.686.813-4.092.543-11.307,1.527-9.28,1.265-12.192,2.2-14.979,3.915-1.72,1.058-2.975,2.158-3.745,2.894-.203.107-2.717,1.476-2.894,4.085-.072,1.054.266,1.903.511,2.383.46.281,1.22.675,2.213.851,1.917.339,3.507-.347,3.915-.511,8.861-3.566,18.86-3.044,28.255-4.766,10.402-1.906,15.603-2.86,21.231-3.697,19.988-2.974,23.255-3.367,23.255-3.367,4.571-.55,8.976-2.172,13.556-2.638,2.884-.294,5.921-.428,7.441-2.6,1.064-1.52.958-3.427.729-4.719Z" fill="#603813"/><path d="M935.84,110.34c1.312,1.947.995,2.948.839,3.289-.786,1.71-4.331,1.573-6.796,1.477-2.798-.108-3.925-.56-6.638-1.021-4.365-.741-5.218-.211-11.404-.681-3.909-.297-6.449-.727-8.511-1.021-10.93-1.561-20.313-1.01-42.213-2.383-11.831-.742-15.422-1.101-18.383-1.532-4.287-.624-6.208-1.101-13.958-2.213-3.028-.434-6.018-1.272-9.076-1.355-3.729-.101-6.77.382-8.456-1.539-.697-.794-.931-1.735-1.021-2.383.456-.676.913-1.353,1.369-2.029.663-.379,1.645-.894,2.886-1.375,4.704-1.824,8.862-1.47,10.723-1.362,9.077.529,13.616.794,16.34,1.191,4.9.716,4.072.295,24.52,1.302,23.777,1.172,35.865,1.798,45.608,3.804,8.45,1.74,15.207,3.901,19.574,5.447,1.532.794,3.064,1.589,4.596,2.383Z" fill="#603813"/><path d="M890.436,135.617c.937,1.453,7.522,12.062,3.447,25.021-3.705,11.783-13.493,16.823-15.218,17.675,1.609-1.109,9.388-6.714,11.26-17.165.182-1.016,1.478-8.85-2.426-16.468-1.822-3.556-4.473-6.473-4.979-7.021-1.949-2.117-2.107-1.731-5.872-5.489-1.567-1.564-2.851-2.94-5.092-4.868-.953-.82-1.763-1.469-2.312-1.898,1.198-.303,2.662-.564,4.34-.638,2.794-.123,5.13.319,6.786.779,1.344,1.028,2.756,2.209,4.192,3.561,2.382,2.243,4.317,4.476,5.872,6.511Z" fill="#603813"/><path d="M854.947,126.936c-.611.482-1.596,1.143-2.936,1.532-1.555.451-2.334.173-3.83.638-1.487.463-1.513.987-3.064,1.787-2.673,1.38-3.533.309-6.511,1.532-2.472,1.016-3.722,2.511-4.085,2.17-.288-.27.27-1.42.894-2.17,1.555-1.869,4.076-1.921,4.723-1.915.326-1.218,1.049-2.958,2.681-4.085,1.366-.944,2.826-1.012,5.745-1.149,2.3-.108,3.394.194,3.958.383,1.087.365,1.901.885,2.426,1.277Z" fill="#603813"/><path d="M762.691,162.213c.198,1.038.412,2.65.255,4.596-.307,3.809-1.712,4.867-2.298,8.936-.521,3.614.23,5.258-.511,5.617-.76.368-2.65-.832-7.66-7.915-1.973-.946-5.072-2.773-7.404-6.128-7.263-10.448-.049-25.586.255-25.532.24.043-3.318,9.571,1.532,16.851,1.072,1.609,2.277,2.692,3.064,3.319.371.384,3.212,3.226,7.404,2.809,2.911-.29,4.781-1.982,5.362-2.553Z" fill="#42210b"/><path id="i" d="M665.18,197.552c-7.896.403-13.66-.797-15.211-1.548-2.259-1.094-3.83-2.599-3.83-2.599h0c-1.872-1.735-2.796-3.471-4.109-5.993-.868-1.667-2.05-3.964-3.027-7.212-1.429-4.75-1.68-9.077-1.544-12.413,1.3-.502,3.217-1.447,4.852-3.273,2.016-2.252,1.463-3.455,3.659-6.6,2.307-3.304,3.852-3.315,4.34-5.702.38-1.857-.531-1.967-.17-4.596.31-2.257,1.112-3.119.838-5.079-.091-.652-.278-1.26-.861-2.471-1.452-3.015-3.097-5.077-3.55-5.68-4.438-5.905-3.338-16.67-3.15-18.515.072-.703.219-1.834-.163-3.245-.748-2.76-2.654-3.38-3.836-5.474-2.12-3.757.289-8.363-.17-8.511-.828-.267-6.857,16.491-7.319,16.34-.23-.075,1.735-5.179,2.553-11.574.798-6.236.225-11.512-.427-15.11.246-.477,4.433-8.268,13.022-8.89,6.023-.436,10.271,2.938,11.234,3.745.962,3.043,2.094,7.631,2.213,13.277.095,4.513-.564,4.62-.512,8.719.103,8.111,2.706,9.612,3.405,18.685.431,5.591.648,8.929-1.532,11.745-2.524,3.26-6.073,3.01-6.638,5.617-.37,1.705,1.58,3.943,5.447,8.34,3.225,3.668,4.218,4.212,6.127,7.017,1.383,2.033,2.497,3.702,3.098,6.175.918,3.773.38,8.331-1.226,8.804-.525.154-1.173-.266-2.468-1.106-1.048-.68-2.32-1.506-3.149-2.894-1.394-2.334-.698-4.856-1.02-4.89-.264-.027-1.177,1.622-.851,3.404.549,3,3.645,3.009,6.298,6.809,1.762,2.523.988,3.366,3.064,6.298,1.417,2.002,2.039,1.831,4.255,4.255,2.214,2.422,1.745,2.682,4.573,6.336,2.468,3.187,3.633,4.034,5.021,6.809.966,1.931,1.655,3.308,1.106,4-1.029,1.298-5.162-1.392-11.745-2.553-3.533-.623-6.54-.589-8.596-.448Z" fill="#603813"/><path id="j" d="M792.011,206.766c-7.494,1.906-11.241,2.86-13.212,2.584-4.41-.618-9.091-3.172-9.022-5.371.034-1.061,1.12-1.929,2.213-2.553,1.675-1.149,3.876-2.86,6.128-5.277,1.003-1.077,2.372-2.561,3.745-4.766.443-.712.828-1.405,3.574-8.17,1.508-3.715,1.84-4.609,2.213-5.957.422-1.525.853-3.086,1.017-5.126.332-4.143-.873-4.867-.336-7.81.371-2.033.962-1.779,2.894-5.957,1.435-3.105,2.361-5.11,2.724-7.83.292-2.194.024-4.129-.511-8-.414-2.993-.698-3.683-1.197-6.602-.044-.258-.834-4.958-1.086-10.111-.056-1.133-.104-2.666.349-11.694.586-11.688.777-11.335.573-13.465-.346-3.605-.978-5.494-.511-9.191.291-2.301.72-3.028,1.362-5.957.489-2.235,1.052-5.525,1.192-9.702.567-.397,1.135-.794,1.702-1.191.479-.098,1.123-.142,1.702.17,1.65.89.182,3.765,1.702,6.468,1.398,2.486,3.694,2.036,4.532,4.574.304.923-.032.881.17,3.574.032.429.111,1.37.681,4.766.403,2.404.605,3.606.851,4.766.871,4.103,1.903,6.729,1.702,6.809-.34.134-2.636-7.63-4.936-7.489-1.402.086-2.429,3.084-3.17,6.489,0,0,0,.002,0,.002-.017.105-.734,4.503-1.532,11.232-.472,3.986-1.449,12.227-.851,22.128.217,3.602.719,8.686-.17,13.787-.145.834-.193.895-.998,4.997-.874,4.453-.962,5.121-1.555,6.237-1.378,2.595-3.475,3.843-3.234,4.17.166.226,1.346-.128,2.37-.878,3.062-2.24,1.937-5.955,5.119-8.569.707-.58,1.397-1.148,2.213-1.021,1.494.232,1.646,2.52,4.085,6.979.935,1.709,1.086,1.69,2.723,4.596,1.596,2.833,2.012,3.078,2.128,4,.215,1.712-.641,2.275-1.34,5.426-.333,1.501-.102,1.207-.511,3.915-.675,4.477-1.329,5.429-.939,7.688.288,1.669.677,1.366.826,2.686.371,3.292-1.995,6.08-3.632,8.009-1.805,2.127-3.593,3.339-4.115,3.682-2.355,1.546-4.424,2.141-7.629,2.956Z" fill="#603813"/><g id="k"><path d="M679.734,197.404c-1.379.321-3.447.675-5.958.596-1.189-.038-1.649-.206-2.652-.342,0,0-.707-.075-1.355-.127-2.193-.177-4.843.019-5.848.078,0,0-2.017.119-5.868-.092-2.932-.16-6.894-.377-10.128-2.07-6.466-3.386-8.416-11.837-9.574-16.851-.736-3.185-.911-6.511-.911-6.511-.091-1.735-.049-3.206.017-4.297.835,1.66,1.798,2.807,2.477,3.51,1.308,1.356,3.459,3.584,5.927,3.383.59-.048.888-.21,1.277,0,1.011.546.562,2.491.851,4.681.383,2.903,1.888,4.932,2.352,5.557.413.557,2.567,3.353,6.458,4.392,1.132.303,2.927.829,4.808.178.964-.334,1.944-.971,2.149-1.106.531-.35,1.152-.76,1.776-1.458,1.031-1.152.95-1.856,1.481-1.925.66-.086.765.797,2.531,2.192.772.609,1.394,1.046,2.227,1.968.161.179.318.392.475.67.634,1.118.692,2.02.851,2.638.372,1.443,1.804,3.3,6.638,4.936Z" fill="#754c24"/></g><g id="m"><path d="M667.011,185c-.375.614-2.736,4.355-6.767,4.745-1.961.19-3.651-.478-4.596-.851-.517-.204-2.453-1.01-4.34-2.894-2.249-2.246-3.081-4.679-3.319-5.447-.874-2.821-.567-5.223-.34-6.383.084-.788.093-1.431.085-1.872-.015-.862-.096-1.212.085-1.702.232-.628.709-.985.984-1.19,1.068-.798,3.796-1.379,7.368-1.422.482.063,1.214.23,1.848.76,1.119.935.969,2.191,1.63,4.065.482,1.369,1.173,2.303,2.553,4.17,1.621,2.193,2.247,2.373,3.234,4,.96,1.582,1.376,3.071,1.575,4.021Z"/></g><path d="M798.223,198.085c-3.28,1.404-5.574.887-8.936,1.021-3.399.136-8.328.955-14.383,4.234.731-1.34,1.575-2.74,2.553-4.17,2.684-3.925,5.604-6.953,8.213-9.234.438-.703,1.043-1.832,1.404-3.319.497-2.047.018-2.66.638-4.213.711-1.779,1.596-1.618,2.34-3.404.66-1.583-.096-1.737.511-4.213.612-2.498,1.681-4.454,2.043-5.106.251-.453.522-.898,1.064-1.787.992-1.629,1.078-2.324,1.872-3.064.525-.49,1.018-.728,1.493-.957.34-.164,1.795-.836,3.826-.745.886.04,1.522.068,2.22.456.848.471,1.187,1.137,1.823,2.14.515.812,1.302,1.967,2.426,3.319-.071.526-.082,1.287.34,1.957.248.393.478.49.766.851.432.542.613,1.202.681,2.298.101,1.64-.135,2.918-.255,3.702-.339,2.22-.145,3.101-.255,4.723-.347,5.096-3.254,9.305-3.489,9.638-.861,1.219-3.038,4.222-6.894,5.872Z" fill="#754c24"/><path id="n" d="M658.372,167.106c.072.549.067,1.239-.353,1.637-.537.508-1.29.1-3.056.043-1.199-.039-2.127.138-3.978.516-.766.156-1.48.351-2.181.87-.281.208-.6.449-.833.874-.319.583-.237,1.074-.236,2.018,0,.525-.024,1.278-.143,2.203-2.07.011-3.689-.418-4.747-.796-1.1-.393-2.226-.795-3.256-1.785-1.739-1.671-2.057-3.912-2.13-4.898.577-.635,1.493-1.518,2.787-2.298,2.27-1.368,4.38-1.631,8.255-2.043,2.462-.262,3.724-.388,5.192-.17,2.532.375,4.452,1.384,5.617,2.128-.312.567-.624,1.135-.936,1.702Z" fill="#2d0000"/><path d="M685.521,200.553c-.496.412-1.394-.834-5.787-3.149-3.755-1.979-5.656-2.818-6.447-4.383-.845-1.672-.229-2.274-1.319-3.723-.412-.548-.71-.74-3.085-2.723-1.162-.97-1.743-1.455-1.872-1.575-1.853-1.718-2.853-3.567-4.235-6.17-.53-.999-.739-1.959-1.593-3.246-.348-.524-.542-.735-.864-1.321-.558-1.015-.695-1.693-1.022-2.649-.123-.358-.234-.636-.34-.874,0,0-.437-1.061-.938-1.997-.979-1.829-13.883-3.939-13.92-4.698-.044-.911,18.19-5.651,23.401,1.273,1.896,2.519,4.576,9.913,4.766,10.468.215.629.327,1.082.327,1.082.19.774.16,1.089.63,2.237.891,2.174,1.704,2.558,3.958,5.872,1.474,2.168,1.626,2.72,2.087,3.403.323.478.621.788.679.853,1.005,1.122,6.888,10.226,5.574,11.319Z" fill="#2d0000"/><path d="M803.188,183.896c-.548,1.517-1.733,4.068-4.198,5.998-1.229.962-2.478,1.537-2.936,1.745-1.123.509-2.402,1.096-4,1.191-2.323.138-4.201-.823-5.234-1.489.282-.576.69-1.454,1.106-2.553,1.096-2.895.851-3.628,1.617-5.617.978-2.539,1.829-2.516,3.234-5.447.872-1.819,1.307-3.417,1.532-4.426-.099-.583-.2-1.774.511-2.638,1.196-1.454,3.823-.928,5.234-.213,1.37.694,2.146,1.8,2.468,2.383.417.755.825,1.671,1.121,2.743,1.003,3.633.101,6.808-.455,8.323Z"/><path d="M777.521,201.907c-1.41,1.242-2.219,2.313-4.063,2.881-1.329.409-2.545.356-3.39.238-.538-.666-1.224-1.752-1.072-2.98.203-1.63,1.773-2.611,2.929-3.385,1.028-.688,5.342-3.575,7.364-5.938,2.402-2.807,2.765-6.271,3.359-11.934.44-4.198-.082-5.329,1.021-8,1.39-3.365,3.763-5.313,4.598-5.947,3.594-2.731,7.408-2.953,8.767-2.968-.146,2.257-.563,5.65-1.876,9.553-.76,2.258-.917,2.004-2.997,6.908-2.506,5.908-4.624,11.627-4.624,11.627-1.383,3.735-1.352,3.924-1.907,4.645-2.194,2.848-4.206,1.862-8.111,5.301Z" fill="#2d0000"/><path d="M812.819,170.106c.137.065,1.117.543,1.191,1.362.076.837-.895,1.46-1.532,1.872-.307.199-1.393.884-2.758.914-2.658.06-3.074-2.436-6.306-3.446-.677-.212-3.957-1.133-6.255.468-1.187.827-1.62,1.985-2.851,2.021-.753.022-1.565-.382-1.872-1-.491-.989.215-2.714,2.085-3.723,0,0-.459-.523-1.192-.936-1.525-.86-4.331-.443-7.168,1.17,1.714-2.31,3.368-4.152,4.743-5.553,2.213-2.254,2.136-1.765,4.468-4.043.397-.387,1.122-1.109,2.298-1.702.721-.364,1.378-.565,1.872-.681.402-.153.973-.29,1.532-.085,1.15.422,1.516,2.024,1.702,2.723,1.196,3.138,2.662,5.382,3.745,6.809,1.535,2.023,2.632,2.842,3.83,3.319.974.388,1.859.489,2.468.511Z" fill="#2d0000"/><path d="M704.351,295.319c-1.65.872-2.527.982-7.66,2.043-4.875,1.008-7.266,1.567-10.851,1.532-1.977-.019-3.235-.209-4.349-1.072-1.698-1.317-2.064-3.429-2.162-4.289-.729-3.281-1.363-7.143-1.66-11.489-.312-4.564-.183-8.654.128-12.128.41-.707,1.205-1.903,2.553-2.936,5.636-4.319,14.8-1.096,15.702-.766,3.506,1.283,3.97,2.479,6.511,2.426,2.412-.05,3.692-1.164,7.149-1.404,1.773-.123,3.242.044,4.204.204-.014.21-.061.565-.247.945-.494,1.009-1.583,1.403-1.915,1.532-3.276,1.273-4.432,4.57-8.426,4.979-.504.052-3.141.322-5.498-1.072-.797-.472-1.459-1.073-2.869-1.573-.973-.345-1.978-.702-2.973-.386-1.484.47-2.126,2.176-2.447,3.031-1.222,3.249-.297,6.387.255,8.17.685,2.214,1.891,6.111,5.617,8.298,2.1,1.233,4.072,1.377,4.596,1.404.433.022,3.299.132,5.9-1.613.651-.436,1.19-.798,1.624-1.502.836-1.357.294-2.381,1.021-3.064.846-.794,2.851-.602,3.319.255.664,1.217-1.795,3.738-3.055,5.03-.871.893-2.231,2.264-4.468,3.447Z" fill="#754c24"/></g><path d="M444.989,474.894c-12.617,7.106-24.862,5.544-28.851-.511-.565-.858-2.629-4.332-.766-10.979.253-3.085.506-6.17.759-9.255-.037-.231-.459-3.123,1.539-4.788,1.318-1.098,3.388-1.411,3.83-.766.561.819-1.952,2.527-1.594,4.797.194,1.23,1.147,2.097,1.85,2.607,1.768.731,4.309,2.074,6.383,4.596,2.406,2.925,2.408,5.28,3.83,7.66,1.496,2.505,4.807,5.447,13.021,6.638Z" fill="#42210b"/><path id="o" d="M654.086,640.448c-1.148-.1-2.78-.256-4.736-.486-3.227-.38-5.837-.789-8.021-1.154-8.905-1.488-9.966-2.126-15.319-2.809-1.974-.252-4.87-.552-8.438-.664-.354-.719-.796-1.801-1.009-3.166-.273-1.744-.085-3.399,1.277-7.66,1.596-4.993,2.096-5.09,2.553-7.66.449-2.523-.005-2.584.255-6.128.448-6.104,2.094-9.973,1.193-10.396-.573-.269-1.192,1.318-2.98,1.715-2.098.466-4.647-.963-5.872-2.808-1.526-2.297-.579-4.604-.255-8.681,0,0,.208-2.612-1.021-11.489-1.465-10.584-10.911-14.612-22.213-31.66-6.051-9.127-5.428-11.117-10.723-16.596-6.041-6.25-12.727-9.74-17.617-11.745,1.016-.636,2.573-1.474,4.596-2.043,3.211-.903,6.031-.689,9.957,0,3.654.641,8.652,1.76,14.553,3.83,4.277,1.841,11.084,5.395,17.617,12,7.848,7.933,11.151,16.073,12.766,20.17,3.67,9.313,6.142,15.588,4.193,22.861-.995,3.711-2.84,6.561-1.385,8.543,2.309,3.145,10.112.275,11.234,2.809.515,1.163-.893,2.299-1.532,3.83-3.54,8.477,18.762,23.595,15.83,29.362-1.268,2.494-6.108.981-7.915,4.596-1.181,2.362-.446,5.672,1.277,7.66,1.243,1.435,2.744,1.883,5.106,2.553,9.546,2.709,13.3,3.481,13.277,4.085-.013.334-1.189.764-6.648,1.129Z" fill="#512d0f"/><path d="M213.415,678.128c-4.704-2.954-8.171-5.788-10.468-7.83-5.221-4.641-11.26-8.449-15.829-13.732-.503-.582-1.924-2.275-3.575-2.098-.967.104-1.798.825-2.043,1.277-2.104,3.889,22.7,18.557,20.715,23.293-.981,2.341-8.707,1.283-24.119-.927-12.865-1.845-13.124-2.548-29.022-5.005-8.003-1.237-12.055-1.695-19.149-3.319-6.32-1.447-11.428-2.988-14.808-4.085,3.189-2.872,5.306-5.532,6.638-7.404,2.49-3.5,2.688-4.883,5.143-7.361,1.04-1.049,2.908-2.345,6.601-4.894,4.688-3.236,7.213-4.756,6.894-5.702-.166-.49-.909-.275-2.043-.936-1.874-1.093-3.227-3.656-2.808-5.617.533-2.5,3.736-3.042,3.574-4.085-.215-1.391-5.952-.701-9.994-1.697-10.989-2.709-8.86-17.743-23.198-31.239-5.573-5.245-7.715-4.688-17.086-13.277-6.975-6.393-10.462-9.589-10.999-12-3.063-13.757,30.177-21.626,33.447-46.043.981-7.328-1.562-9.986-.511-26.553.516-8.128,1.59-14.76,2.43-19.145.327-1.27,1.448-4.931,4.974-7.578,5.632-4.229,12.368-2.092,13.021-1.872,6.724,1.204,15.202,3.813,17.872,10.213,3.413,8.181-5.789,15.068-13.277,32.681-2.487,5.851-13.427,31.585-6.128,56.681,5.241,18.019,10.213,26.553,10.213,26.553,3.57,6.128,7.804,11.531,7.149,18.894-.215,2.417-.932,4.768,0,8.17,1.361,4.969,5.067,7.898,6.128,8.681,4.538,3.347,9.671,3.537,11.234,3.574,5.322.128,7.943-1.873,10.213,0,1.409,1.163.991,2.424,2.959,4.629,1.691,1.896,3.555,2.707,4.565,3.186.514.244,5.153,3.628,14.433,10.397,11.49,8.382,11.137,8.231,12,8.681,1.664.867,3.969,2.465,8.579,5.661,1.045.724,3.017,2.132,3.676,4.551.141.517.418,1.535.068,2.506-.704,1.958-3.732,3.128-7.473,2.77Z" fill="#512d0f"/><path d="M605.074,593.872c-.672-5.074-2.519-12.176-8.17-17.106-3.677-3.208-7.245-3.997-14.466-6.386-7.392-2.447-14.458-5.797-21.79-8.422-14.786-5.294-28.796-11.182-42.894-17.106-31.626-13.291-52.615-22.113-75.319-39.83-9.435-7.363-16.565-14.232-21.19-18.977-1.362-1.759-2.724-3.519-4.086-5.278,11.801,4.419,18.361,3.81,22.213,2.298.904-.355,2.551-1.109,4.111-.439,3.62,1.555,2.184,8.815,4.059,13.461,1.985,4.916,8.823,9.743,28.851,10.723,10.672,9.496,20.429,13.589,27.319,15.574,14.772,4.258,20.148-.079,33.192,5.617,10.08,4.402,7.61,7.314,23.489,16.596,10.797,6.311,14.031,6.187,22.979,12.766,5.655,4.158,10.794,8.011,15.064,14.809,5.333,8.491,6.412,16.961,6.638,21.702Z" fill="#42210b"/><g id="p"><g id="q"><path d="M455.032,637.915c.311,3.856.707,6.902,1.021,9.021.293,1.978.521,3.188-.17,4.426-.288.517-1.121,1.726-5.01,2.859-3.677,1.071-6.394,1.056-6.394,1.056-7.35-.041-23.292.226-50.553.681-.722.012.196-.001-16.681.511-11.634.353-17.599.526-24.851.34-8.401-.214-4.563-.489-13.787-.851-6.389-.251-9.786-.18-13.617-2.383-1.037-.597-2.337-1.703-4.936-3.915-4.242-3.61-7.221-6.556-8-7.319-3.626-3.555-6.956-6.228-13.617-11.574-10.916-8.761-22.099-15.141-32.34-20.936-10.357-5.86-16.806-9.509-26.043-13.957-1.267-.61-8.334-5.003-22.468-13.787-.938-.583-3.06-1.929-4.936-4.426-1.099-1.462-2.058-3.244-3.064-6.638-.869-2.933-1.875-7.413-1.973-13.206-.249-1.564-1.364-8.47-2.964-14.709-.368-1.433-.954-3.585-2.723-5.617-.903-1.037-1.835-1.723-2.495-2.145,2.587-3.103,6.745-7.411,12.793-11.174,4.984-3.101,9.436-4.521,18.34-7.362,9.758-3.113,14.759-4.666,20.723-4.468,4.407.146,7.525,1.032,13.466,2.913,20.147,6.377,32.59,11.303,32.59,11.303,7.33,2.902,16.605,6.659,27.336,11.218,1.126.748,1.37,1.003,1.331,1.076-.054.101-.581-.258-1.106-.085-.58.192-.724.891-1.123,1.733-.538,1.136-1.012,1.419-1.515,2.182-.645.978-.957,2.166-1.021,4.851-.108,4.527.538,7.652.538,7.652,1.952,9.449,5.675,16.263,5.675,16.263,2.798,5.122,5.619,8.293,9.447,12.596,4.331,4.868,6.496,7.302,10.213,9.362,2.956,1.638,5.942,2.369,11.915,3.83,6.952,1.701,7.267,1.116,12.17,2.638,5.828,1.81,8.742,2.714,11.319,5.362,1.873,1.924,2.533,3.642,5.345,5.518,2.271,1.515,4.347,2.066,5.249,2.312,6.046,1.649,11.797,4.264,17.831,5.957,2.203.618,16.889,4.804,32,12.255,5.277,2.602,9.437,5.026,12.085,6.638Z" fill="#36150b"/></g><path d="M455.841,642.02c-.654,2.378-.867,4.338-.936,5.724-.094,1.874.074,3.06-.76,4.042-.975,1.146-2.557,1.289-3.208,1.338-11.528.876-17.292,1.315-17.989,1.258-.531-.043.793.071-19.277,1.021-27.363,1.296-29.772,1.082-30.043.085-1.015-3.742,29.393-13.713,28.255-18.043-.615-2.342-9.394,1.021-19.404-3.404-13.018-5.755-14.775-18.785-21.447-18.043-4.753.529-4.304,7.191-13.617,15.319-3.201,2.793-8.684,7.579-16.34,8.511-11.242,1.369-23.989-5.957-24.17-12.596-.131-4.795,6.396-5.523,7.83-11.915,1.968-8.771-7.754-18.476-14.298-22.808-10.541-6.978-21.865-5.97-25.787-5.43,9.772-4.588,15.763-10.29,19.149-14.144,3.421-3.894,5.911-8.225,10.99-16.802,3.012-5.088,5.361-9.386,6.947-12.37-.111.634-.249,1.538-.348,2.627-.32,3.525.021,6.23.207,7.636,1.078,8.15,5.191,16.028,5.502,16.615,2.398,4.521,4.985,7.802,6.209,9.342,1.305,1.641,2.473,2.942,3.958,4.596,2.193,2.443,3.326,3.696,5.089,5.201,1.008.86,2.278,1.934,4.169,3.071.879.528,3.171,1.838,6.288,2.79.773.236,1.418.396,1.785.486,1.965.483,3.158.61,4.863.891,1.79.295,3.109.579,4.269.85,2.798.654,5.617,1.464,6.516,1.723,1.45.417,2.274.678,3.489,1.064,1.529.485,2.204.724,2.902,1,.685.27,1.281.506,2.056.894,2.113,1.058,3.484,2.212,3.833,2.686.041.056.244.342.576.686.15.156.268.258.305.297.458.472.627.77,1.138,1.417,0,0,.344.435,1.124,1.3,1.708,1.894,5.283,3.152,5.283,3.152,3.3,1.162,6.583,2.372,9.892,3.507,4.479,1.536,4.18,1.547,7.527,2.649,3.85,1.267,4.438,1.316,8.365,2.562,2.047.649,5.593,1.812,9.894,3.433,4.904,1.848,8.586,3.461,10.041,4.108,4.023,1.788,6.983,3.279,7.639,3.611,1.599.809,2.968,1.537,5.192,2.721,3.287,1.749,2.656,1.466,2.894,1.574,1.674.763,2.425.864,2.936,1.702.349.572.415,1.208.511,2.128.084.804.05,1.477.003,1.94Z" fill="#512d0f"/><path d="M267.755,589.447c-6.394-1.394-10.688-4.734-13.404-6.894-8.539-6.791-11.892-15.254-15.915-25.787-2.229-5.837-4.958-14.46-6.426-25.404-.645-4.769-1.29-9.539-1.935-14.308,2.972-1.1,5.943-2.199,8.915-3.299,1.772-.516,4.393-1.153,7.608-1.457,8.978-.848,15.873,1.535,22.05,3.745,15.538,5.558,23.307,8.337,31.989,11.818,17.515,7.023,21.498,9.426,23.254,9.582.207.018,1.298.087,1.486.627.162.467-.432,1.052-.813,1.462-1.045,1.124-1.659,2.583-2.553,3.83-1.579,2.203-1.295,3.317-2.936,7.277-.804,1.941-1.515,3.209-2.936,5.745-4.714,8.411-9.294,16.585-16.723,22.851-2.756,2.324-16.124,13.599-31.66,10.213Z" fill="#2d0000"/></g><g id="r"><path d="M266.207,588.999c-1.34-.35-3.216-.928-5.346-1.893-9.093-4.119-13.955-11.278-16.851-15.66-4.397-6.653-6.196-12.49-8.851-21.106-1.925-6.247-2.849-11.159-3.091-12.49-.995-5.455-1.564-8.575-1.504-11.169.044-1.905-.097-2.71-.379-4.32-.276-1.573-.55-2.138-.642-2.319-.46-.905-.904-1.187-.851-1.702.087-.847,1.421-1.363,1.872-1.532,10.338-3.867,14.281-4.225,14.281-4.225,4.333-.394,8.626-.746,13.974.651,5.781,1.509,7.407,3.654,8,4.596,1.315,2.089,1.79,5.001.851,5.617-1.238.812-3.38-3.381-8.17-4.255-4.703-.858-9.517,1.927-10.894,2.723-2.887,1.67-3.3,2.871-5.617,3.234-3.447.541-5.249-1.69-6.638-.681-1.636,1.188-.966,5.607.851,8.851,1.868,3.335,4.618,4.84,6.298,5.957,7.841,5.214,13.214,15.836,13.277,24.17.056,7.38-4.081,9.346-2.553,14.808,1.546,5.529,7.265,8.812,11.984,10.744Z" fill="#42210b"/></g><g id="s"><path d="M548.587,569.546c-5.403.365-12.598,1.165-20.917,3.008-11.261,2.495-19.46,5.766-21.376,6.544-8.327,3.38-25.366,11.367-34.283,15.924-1.087.556-4.058,2.084-8.052,2.14-2.965.041-5.221-.747-6.246-1.119-16.672-6.041-50.553-22.468-50.553-22.468-1.377-.668-6.505-2.96-16.761-7.545-19.504-8.719-28.192-12.261-57.422-24.732-40.116-17.116-52.594-21.343-67.008-25.68-4.284-1.289-7.828-2.289-10.17-2.936-2.806-.445-7.207-.851-12.425,0-3.935.642-5.768,1.581-14.809,4.936-11.467,4.256-11.038,3.681-13.698,5.029-4.55,2.304-7.993,5.093-14.481,11.722-8.997,9.193-15.151,15.481-22.204,25.972-1.303,1.938-9.984,14.982-13.447,26.553-.865,2.891-2.171,7.254-2.213,13.106-.029,4.071.463,5.53.17,5.617-1.57.468-25.747-38.766-14.468-73.702,4.154-12.868,12.025-21.767,17.499-26.936,7.23-7.484,14.259-12.451,19.438-15.617,4.842-2.961,10.893-6.614,19.574-9.021,5.005-1.388,11.736-2.609,22.681-2.255,16,.517,27.699,3.971,33.958,5.617,11.675,3.07,14.646,2.536,53.106,6.128,19.517,1.823,47.688,4.663,84.309,9.043,12.703.656,21.237.619,27.236.11,1.75-.148,5.701-.542,9.987,1.315,3.625,1.57,5.759,3.999,6.426,4.723,11.158,12.113,59.662,33.187,61.745,34.085,3.764,1.624,5.076,2.112,20.755,8.758,11.023,4.672,12.357,5.271,16.266,6.817,10.579,4.184,10.253,3.536,20.161,7.535,6.25,2.523,9.164,3.905,15.486,6.147,4.973,1.763,7.46,2.645,7.501,2.658,5.223,1.725,6.569,1.908,9.121,3.377,1.376.792,3.642,2.122,5.687,4.623,1.312,1.604,2.236,3.328,2.638,4.085.679,1.279,1.1,2.311,1.481,3.243.914,2.237,1.291,3.679,1.412,4.161.443,1.763.789,3.137.383,3.362-.526.291-1.785-1.641-3.872-3.447-2.171-1.878-3.89-2.454-6.723-3.745-4.503-2.051-3.544-2.138-11.149-6.128-3.075-1.613-6.445-3.381-10.979-5.362-6.087-2.659-9.77-4.239-14.928-5.096-3.66-.608-6.747-.633-8.835-.55Z" fill="#2d0000"/></g><g id="u"><path d="M134.521,328.681c-1.232,1.376-3.183,3.367-5.872,5.362-17.797,13.201-45.206,9.733-63.574-.511-14.78-8.242-22.966-20.457-27.064-28.085-4.305-9.315-10.654-26.267-10.723-48.255-.059-18.595,4.398-33.356,7.915-42.383,2.723-6.358,7.249-15.508,14.553-25.277,17.713-23.69,40.112-35.445,63.064-47.489,13.177-6.915,37.426-18.334,50.553-25.532.742-.407,3.551-1.953,7.392-3.879,5.094-2.554,9.459-4.501,12.552-5.82,2.776-1.184,2.497-.99,4.311-1.79,2.549-1.125,6.192-2.862,10.723-5.532,6.936-4.086,6.27-4.652,12.255-8.17,5.186-3.048,5.418-2.465,12-6.128,5.476-3.047,5.959-3.809,11.745-7.149,4.503-2.6,7.804-4.213,12.766-6.638,8.292-4.053,14.935-6.848,17.945-8.089,9.229-3.805,18.954-7.28,19.076-6.974.098.243-6.015,2.587-15.064,6.894-11.749,5.592-14.14,7.682-31.915,17.106-10.911,5.785-10.423,5.216-18.638,9.702-7.432,4.058-25.141,13.728-24.511,15.064.59,1.252,16.967-5.497,22.213-7.66,11.333-4.671,16.645-7.714,21.447-11.234,3.974-2.913,3.604-3.225,7.668-6.374,12.65-9.806,25.549-14.004,25.779-13.541.174.351-7.085,3.003-16.34,10.468-6.783,5.471-5.725,6.338-11.489,10.468-5.617,4.025-11.342,6.583-18.894,9.957-7.112,3.178-9.57,3.801-9.447,4.34.267,1.172,12.582,1.346,24.255-4.085,6.009-2.795,10.177-6.299,17.872-12.766,4.376-3.677,9.03-8.04,11.662-10.507,6.009-5.633,6.388-6.334,9.785-9.152,3.178-2.637,7.189-5.848,13.021-8.936,3.243-1.718,6.582-3.486,11.234-4.34,6.424-1.18,11.888.018,15.192,1.066-11.926,1.493-17.72,5.819-20.808,9.658-2.679,3.33-3.011,5.907-7.66,10.979-3.271,3.569-6.473,5.966-10.106,8.686-5.295,3.964-10.249,6.994-10.32,6.888-.141-.209,18.832-12.918,28.851-19.66,10.89-7.327,17.085-11.475,17.617-10.809.904,1.131-15.238,15.268-16.851,16.681-5.431,4.756-10.043,8.409-15.319,12-3.54,2.409-5.309,3.614-7.274,4.628-7.045,3.634-11.289,3.574-20.811,7.883-2.572,1.164-5.812,2.646-5.617,3.319.283.978,7.633-.38,9.957-.766,2.426-.403,7.663-1.374,15.83-4.085,5.987-1.987,11.388-3.781,18.128-7.404,6.389-3.435,11.555-7.212,12.511-7.915,1.711-1.26,6.385-4.785,7.149-5.362,5.545-4.183,6.265-4.803,6.383-4.681.397.412-6.298,8.969-16.085,16.426-6.804,5.184-12.76,8.051-18.249,10.694-12.314,5.928-21.2,8.014-21.07,8.455.127.43,8.773-.939,18.638-4.851,11.351-4.501,18.103-9.903,18.638-9.191.506.672-4.791,6.479-11.234,10.979-14.464,10.101-29.046,9.663-48.766,11.234-13.828,1.101-24.282,2.862-45.191,6.383-18.992,3.198-40.117,6.756-64.34,16.511-14.369,5.786-36.089,15.005-58.213,34.979-11.617,10.488-27.452,25.152-34.468,49.532-.977,3.397-4.105,15.049-3.243,30.44.475,8.478,1.866,33.301,20.605,53.56,3.811,4.12,15.156,16.088,32.17,19.915,5.76,1.296,11.566,2.601,18.894,1.277,5.481-.991,8.629-2.878,14.769-2.892,5.078-.012,9.25,1.264,12.04,2.382Z" fill="#512d0f"/><path d="M616.159,170.28c.444,4.388.709,9.656-.701,10.06-1.056.303-1.927-2.445-4.255-4.426-5.015-4.266-12.455-1.282-26.469.419-8.516,1.034-12.774,1.55-16.637.97-14.025-2.109-22.901-12.007-24.98-14.325-2.248-2.506-5.659-6.392-7.66-12.596-1.4-4.342-1.577-8.171-1.498-10.723.045-2.497.091-4.993.136-7.49,6.729-.797,13.595-1.538,20.596-2.213,6.577-.634,13.048-1.189,19.409-1.67,2.592-.421,9.128-1.111,15.995,2.351,2.354,1.187,7.485,3.774,10.042,9.362,2.984,6.521,1.168,14.3.851,15.66-.899,3.852-2.229,5.801-1.192,6.979,1.761,1.999,6.963-2.055,11.404,0,2.879,1.332,4.247,4.679,4.957,7.642Z" fill="#290000"/><path d="M836.819,161.021c-3.294-6.398-2.776-12.628-2.383-15.319,1.207-1.895,3.301-4.689,6.638-7.149,6.694-4.935,17.379-7.779,26.192-3.276,4.083,2.086,6.352,5.028,8.021,7.191,2.353,3.051,8.807,11.418,6.149,19.808-2.687,8.479-13.03,11.773-19.085,12.363-10.016.975-20.705-4.241-25.532-13.617Z" fill="#290000"/><path d="M316.17,79.617c-1.839,2.148-3.068,3.585-5.149,5.489-1.275,1.167-2.961,2.594-5.064,4.085-.47.524-1.166,1.357-1.872,2.468-1.234,1.94-1.776,3.585-1.958,4.085-1.146,3.151-4.35,5.843-6.766,7.872-8.815,7.404-21.191,9.957-21.191,9.957-14.421,4.402-20.035,2.374-42.894,4.34-20.236,1.741-37.457,5.189-52.34,8.17-5.983,1.198-10.971,2.292-14.526,3.095-6.075,1.113-16.973,2.777-17.899.224-1.079-2.974,11.901-10.219,16.862-12.894,1.653-.916,4.211-2.299,7.392-3.879,6.812-3.382,8.795-3.846,16.863-7.61,6.154-2.871,9.31-4.359,13.138-6.894,2.93-1.94,3.451-2.6,6.511-4.596,5.567-3.631,10.185-5.584,12-6.383,10.562-4.651,11.441-7.166,27.319-15.319,8.861-4.55,16.355-7.769,22.34-10.34,5.804-2.493,10.816-4.5,14.681-6,3.54-1.482,6.619-2.44,8.936-3.064,3.74-1.007,8.312-2.205,14.043-2.043,3.214.091,5.471.572,6.468.809,2.017.478,3.676,1.093,4.904,1.619-.362.353-.973.875-1.84,1.275-1.706.785-3.068.48-3.192.936-.181.671,2.752,1.373,3.029,3.169.108.703-.233,1.302-.773,2.108-2.05,3.055-4.128,4.936-4.128,4.936-2.09,1.892-3.422,3.404-6.085,6.426-2.597,2.947-4.423,5.019-4,5.574.922,1.213,13.372-3.713,17.362-4.723.386-.098,1.232-.296,1.532.085.321.408-.148,1.277-.383,1.702-2.254,4.074-3.319,5.319-3.319,5.319Z" fill="#42210b" opacity=".45"/></g><g id="v"><path d="M677.372,598.851c-1.201-.831-2.82-2.04-4.596-3.66-.554-.505-.871-.82-4.17-4.34-3.675-3.922-4.48-4.809-5.311-6.485-.588-1.185-.532-1.441-1.157-3.047-.761-1.956-2.051-4.681-4.342-7.783-2.39-4.329-4.597-7.688-6.211-10.004-2.636-3.783-3.41-4.38-5.277-7.574-1.644-2.813-2.114-4.183-4.085-7.149-1.37-2.061-2.399-3.289-3.574-4.766-1.909-2.397-5.258-6.602-7.66-10.553-1.097-1.805-4.633-7.729-6.383-15.83-.653-3.023-.668-4.546-1.774-8.234-.648-2.161-1.625-5.349-3.587-8.617-1.659-2.763-2.71-3.396-6.128-7.149-2.839-3.117-5.978-7.27-12.255-15.574-2.182-2.887-3.293-4.36-4.298-5.83-3.498-5.119-4.697-7.887-6.538-10.843-2.443-3.923-4.54-5.809-10.611-11.667-4.033-3.891-10.057-9.766-17.872-17.617-3.734-2.775-9.084-6.962-15.149-12.511-7.437-6.804-11.155-10.206-11.234-12.255-.407-10.576,40.444-9.544,62.128-31.83,9.569-9.835,19.337-28.21,15.766-65.787-2.82-8.441-2.986-14.807-.34-16.34,1.419-.822,3.352-.085,4.426.34,6.023,2.385,8.707,9.034,9.532,10.894,5.718,12.897,17.09,10.052,32.681,27.915,8.64,9.9,10.636,17.063,20.83,22.894,5.072,2.901,8.742,3.515,11.915,2.894,5.114-1.002,5.17-4.457,10.894-6.809,10.487-4.308,21.217,2.805,21.787,4.255.035.09.233.67.766,1.192.477.467.979.647,1.277.766.804.322,1.438.771,2.707,1.671,0,0,1.247.884,2.557,2.654,2.549,3.443,2.394,12.533,2.374,13.399-.186,8.103-.288,12.559-1.672,18.296-.391,1.619-1.126,4.344-2.221,9.172,0,0-.651,2.868-1.255,5.775-1.913,9.203-2.656,15.834-4.788,27.077-1.203,6.345-2.388,11.73-3.234,15.574-1.902,8.642-2.059,8.538-2.979,13.192-1.411,7.144-1.48,9.618-2.979,19.319,0,0-1.147,7.424-2.723,15.83-1.549,8.261-3.226,17.201-6.399,28.724-1.209,4.392-3.634,12.784-7.389,23.021-1.778,4.848-3.309,8.622-4.851,12.426-2.602,6.415-4.747,11.705-7.83,18.213-2.032,4.29-4.922,10.059-8.766,16.766Z" fill="#290000"/></g><path d="M456.181,650.798c-.25.518-.694,1.265-1.468,1.915-.766.644-1.525.916-3.128,1.34-2.377.629-3.565.944-5.362,1.149-1.514.173-2.562.181-4.596.191-8.027.041-8.176.016-9.574.064-2.198.076-1.875.139-6.957.447-3.314.201-5.785.315-7.437.392-2.251.104-4.383.189-14.871.49,0,0-12.371.356-16.097-.031-.15-.016-1.236-.131-2.702-.234-.727-.051-1.529-.107-2.426-.128-1.355-.031-2.168.037-3.351.096-1.585.079-1.361.018-4.628.096-1.326.031-1.648.048-5.84.191-3.113.106-4.669.16-4.97.167-.699.016-3.132.067-7.934-.069-1.633-.046-5.342-.234-12.693-.608-2.515-.128-5.024-.41-7.542-.447-.953-.014-2.431-.018-4.394-.351-1.571-.267-2.57-.436-3.777-1.053-.638-.326-.952-.582-2.67-1.532-.882-.487-1.027-.546-1.415-.766-.821-.466-1.964-1.221-3.245-2.457-.918-.84-1.837-1.681-2.755-2.521-1.466-.937-3.11-2.126-2.885-2.695.177-.45,1.452-.338,2.074-.278,6.062.577,9.093.866,11.234,1.66,7.594,2.815,34.952-.755,62.553.511,17.815.817,35.703-.15,53.489,1.149,1.187.087,4.96.395,8.681-1.66,2.053-1.134,3.448-2.632,4.343-3.804.464,1.714.841,3.982.635,6.613-.06.774-.165,1.497-.295,2.165Z" fill="#290000"/><path d="M722.202,650.021c-.247.097-.617.23-1.076.352-.924.245-1.594.28-2.307.35-.475.046-.156.029-2.585.383-1.31.191-3.556.519-6.255.862,0,0-2.64.336-5.524.644-7.346.785-17.057,1.459-24.507,1.638-3.47.084-5.931.048-7.342.016-1.537-.035-2.642-.084-3.67-.128-5.622-.239-7.047-.237-10.528-.383-2.256-.094-8.158-.368-15.611-1.053-1.778-.164-4.593-.48-10.223-1.114-.671-.076-3.879-.441-7.84-1.12-.154-.026-2.207-.384-4.851-1.117-1.999-.554-2.735-.879-3.383-1.245-.727-.41-1.869-1.065-2.872-2.362-1.118-1.446-1.468-2.918-1.666-3.79-.144-.634-.198-1.204-.305-2.343-.081-.856-.169-1.83-.128-3.106.035-1.077.112-.811.17-2.085,0,0,.028-.614.34-2.149.029-.142.038-.182.08-.214.48-.362,2.295,2.657,5.453,3.278.089.017.056.009,1.701.106,2.43.143,4.483.278,4.981.314,2.153.153,3.696.497,6.601,1.04,6.823,1.275,7.481,1.477,10.474,2.013,6.076,1.088,11.003,1.341,11.862,1.543.084.02.471.118.995.106.258-.006.448-.036.527-.048.361-.055,1.477-.159,3.71-.367.225-.021.526-.048.926-.136.521-.114.904-.262,1.089-.336.943-.375,4.181-1.762,4.907-1.498.023.008.122.047.262.076.251.053.443.037.707.021.211-.012.423-.012.634-.028.651-.05,1.305-.071,1.957-.117,1.58-.112,4.49-.06,5.505-.042,1.579.028,2.776.05,4.436.165,1.207.084,1.446.133,2.914.232,1.854.125,3.265.167,3.695.179.927.026,2.662.058,4.816,0,1.422-.039,2.489-.068,3.862-.161.782-.053,1.247-.098,2.042-.098,1.518,0,1.868.008,1.868.008s.733.017,1.372-.096c.11-.019.244-.053.512-.121.223-.057.332-.089.453-.166.16-.101.178-.177.216-.181.497-.045,2.181,12.874,2.178,13.803,0,.147.023.291.071.581.019.117.053.306.184.482.063.085.116.122.17.14.125.041.249-.024.277-.037.293-.14,1.773-.156,4.192-.445.374-.045,1.131-.145,2.643-.345.276-.036.531-.071.531-.071.498-.066.485-.065.495-.066.292-.023.348.002.403-.054.09-.092.032-.255-.029-.59-.04-.218-.048-.441-.085-.66-.135-.791-1.3-8.069-2.164-12.531-.116-.6-.14-.701-.177-.831-.169-.602-.341-.889-.247-.967.116-.095.424.303,1.005.398.277.045.497.001.826-.082,1.038-.262,1.603-.527,2.261-.72.59-.174.928-.194,1.509-.283,2.071-.316,3.906-.989,4.691-1.277.963-.353,2.246-.889,3.702-1.7.152.343.392.87.708,1.515.12.245.182.366.218.44.462.95.501,2.047.511,2.41.054,1.976-.062,4.594-.063,4.609,0,0-.196,4.298-.671,6.418-.053.239-.17.702-.505,1.187-.333.481-.739.778-1.027.951Z" fill="#290000"/><path d="M882.628,708.319c-.321.667-.863,1.616-1.755,2.553-1.115,1.172-2.567,2.106-5.277,2.979-3.494,1.126-6.413,1.29-7.558,1.347-6.529.324-9.794.487-12.782.398-3.612-.107-9.152-.541-20.085-1.404-9.137-.721-9.101-.772-10.774-.793-1.625-.02-3.486.004-6.132-.381-1.649-.24-2.613-.495-5.562-1.21-5.156-1.25-4.005-.905-7.745-1.83-4.682-1.157-4.619-1.235-9.915-2.553-.839-.209-1.782-.441-3.106-.808-2.803-.777-2.976-.956-5.255-1.605-1.191-.339-5.176-1.474-7.298-1.714-.206-.023-.879-.093-1.745-.34-.193-.055-.616-.182-1.431-.525-1.173-.494-1.15-.591-3.633-1.943-.308-.168-.658-.357-.956-.754-.303-.404-.386-.802-.491-1.331-.202-1.021-.352-1.814-.452-2.355-.04-.58-.032-1.704.58-2.879.256-.491.555-.873.82-1.156-.039.113-.121.396-.023.724.093.312.31.536.494.648.615.375,1.253-.262,2.241-.259.942.003,1.609.586,1.872.766,1.716,1.17,17.689,6.607,39.792,6.684,2.581.009,6.456-.051,15.995-.045,2.312.001,4.884.006,8.34.17,1.438.068,4.944.254,9.574.766,6.396.706,9.635,1.082,11.628,2.17,1.184.647,1.682.905,2.148,1.069.285.1.486.149.641.177.235.043.347.134.497.085.14-.046.172-.141.275-.138.148.004.26.208.312.318.965,2.041,1.053,3.319,1.053,3.319.183,2.657.326,4.724.191,5.777-.014.111-.06.434.128.67.199.25.559.274.803.283,1.074.039,1.997-.141,2.42-.219,1.07-.199.857-.11,1.755-.287,1.02-.201,2.335-.46,2.33-.766-.001-.079-.091-.135-.128-.16-.685-.47-.463-2.629-.351-4.245.05-.725.19-2.799.032-3.702-.057-.328-.07-.506-.096-.862-.032-.449-.047-.676.01-.793.183-.374.722-.242,1.671-.484.644-.164,1.127-.42,2.096-.925.325-.17.625-.341.925-.522,1.895-1.143,2.857-1.738,3.574-2.894.355-.572.55-1.104.661-1.476.074,1.408.107,2.905.079,4.482-.038,2.143-.182,4.14-.388,5.972Z" fill="#290000" opacity=".94"/><path d="M723.032,632.491c-1.272.644-2.353,1.112-3.117,1.424-4.732,1.934-5.265,1.151-8.511,2.383-.317.12-.997.388-1.745.17-1.003-.292-1.457-1.331-1.66-1.532-4.076-4.029-6.114-6.043-7.277-7.277-5.078-5.389-6.838-5.518-12.766-11.617-5.902-6.072-7.321-9.2-12.894-12-2.399-1.206-5.643-2.388-6.327-1.484-.458.606.295,2.069,1.22,3.867.756,1.468,1.496,2.494,1.787,2.894,2.636,3.621,4.113,5.324,4.113,5.324,3.531,4.072,5.372,6.195,8.142,8.633,3.749,3.299,4.338,2.897,10.638,8,.605.49,6.626,5.4,5.958,6.468-.169.269-.825.394-1.348.494-.751.143-1.341.086-1.468.075-1.952-.173-6.464.503-13.779.198-4.45-.185-3.828-.479-7.234-.511-6.438-.06-8.099.035-8.099.035-2.233.127-3.366.293-3.561-.163-.368-.86,3.388-2.113,4.723-4.723,1.906-3.726-3.468-7.077-7.787-17.872-3.91-9.771-2.47-14.074-1.365-15.076.194-.176,1.099-.904,1.365-2.115.106-.48.112-1.043-.17-2.043-.287-1.014-.953-3.37-3.064-4.936-1.123-.833-1.793-.804-3.234-1.362-3.55-1.375-5.714-3.966-6.808-5.277-2.65-3.173-3.615-6.367-3.915-7.489-.895-3.353-.06-3.978-.851-6.979-.767-2.912-2.056-4.228-4.766-8-.974-1.355-4.04-5.645-6.468-10.043-2.36-4.276-4.407-7.982-5.368-13.23-.451-2.463-.506-4.404-1.501-9.079-.676-3.176-1.215-4.927-2.492-6.628-1.318-1.754-2.576-2.326-4.426-3.574-5.468-3.69-8.522-8.173-10.723-11.404-2.556-3.752-3.045-5.704-3.234-6.979-.223-1.508-.761-5.136,1.447-6.723,1.813-1.304,4.364-.431,4.851-.255,1.506.731,3.887,2.118,6.128,4.596,2.121,2.345,3.247,4.706,3.838,6.236.437,1.5,1.108,3.863,1.864,6.786,1.862,7.197,2.146,9.697,3.83,13.702,1.236,2.941,1.192,1.852,3.489,6.553,3.754,7.681,3.357,9.533,6.553,14.213,1.007,1.475,1.067,1.321,4.085,5.447,2.881,3.938,2.859,4.123,4.255,5.957,3.883,5.102,4.674,4.488,7.915,8.936.999,1.372,2.227,3.383,4.681,7.404,1.525,2.498,2.287,3.747,2.894,4.936,1.79,3.508,1.814,4.635,3.319,6.979.498.776,1.176,1.711,3.66,4.255,2.491,2.552,5.479,5.589,10.213,9.277,1.329,1.035,3.411,2.506,7.574,5.447,4.357,3.078,4.243,2.91,6.428,4.502,5.023,3.66,5.002,4.09,8.976,6.902,1.177.833.456.284,8.218,5.366,2.213,1.449,4.289,3.116,6.591,4.421,2.084,1.181,4.16,2.165,5.957,4.511.601.784,1,1.499,1.244,1.981Z" fill="#42210b"/></g></svg>