<svg width="512" height="384" viewBox="0 0 512 384" fill="none" xmlns="http://www.w3.org/2000/svg">
<path fill-rule="evenodd" clip-rule="evenodd" d="M364.167 193.931L402.208 194.059C402.167 204.422 398.083 214.358 390.875 221.651C389.167 223.357 387.292 224.935 385.333 226.299L364.167 193.931ZM323.5 5.56319C322.292 4.24116 322.375 2.10886 323.708 0.872124C325.042 -0.364612 327.083 -0.27932 328.333 1.08535C330.792 3.8147 333.208 6.71464 335.583 9.74251C337.875 12.6851 340.083 15.7556 342.208 18.8688C343.208 20.404 342.833 22.451 341.333 23.5172C339.833 24.5407 337.833 24.1569 336.792 22.6216C334.792 19.6364 332.667 16.6938 330.458 13.8792C328.208 10.9792 325.875 8.1646 323.5 5.56319ZM266.875 12.941C265.333 12.0027 264.792 9.95574 265.708 8.37783C266.625 6.79993 268.625 6.24553 270.167 7.1411C278.833 12.3013 289.917 23.176 299.25 35.714C307.542 46.8872 314.542 59.4678 317.292 70.5558C317.75 72.3469 316.667 74.1807 314.917 74.6072C313.167 75.0763 311.375 73.9675 310.958 72.1764C308.417 61.984 301.875 50.2563 294.042 39.7227C285.208 27.9097 274.875 17.6747 266.875 12.941ZM296 8.80429C294.667 7.56756 294.542 5.4779 295.708 4.11323C296.917 2.74855 298.958 2.62061 300.292 3.8147C306.125 9.10282 312.292 15.8835 317.875 23.304C323.125 30.2553 327.917 37.761 331.5 45.0961C332.292 46.7593 331.667 48.7637 330.042 49.5739C328.417 50.3842 326.458 49.7445 325.667 48.0813C322.292 41.1727 317.708 34.0081 312.708 27.3553C307.375 20.2761 301.5 13.8365 296 8.80429ZM185.792 102.327C185.208 104.843 185.5 107.743 186.375 110.728C186.75 112.008 187.292 113.33 187.875 114.567C188.5 115.846 189.208 117.125 190.042 118.362C190.833 119.599 191.75 120.75 192.708 121.816C193.667 122.84 194.625 123.821 195.667 124.631L195.708 124.674C198.208 126.678 201.042 128 203.833 128.256C207.542 128.597 212.958 125.569 216.208 123.352L216.917 122.84L217 122.797C218.25 121.944 219.542 121.134 220.792 120.324C221.542 119.897 222.375 119.769 223.125 119.94C223.875 120.111 224.542 120.58 225 121.262C225.125 121.433 225.208 121.561 225.25 121.731L226.5 123.991L226.542 124.034C228.167 127.019 229.75 129.962 231.417 132.819C233.042 135.591 234.667 138.192 236.292 140.41L236.333 140.453L236.5 140.709C236.667 140.964 236.917 141.348 237.208 141.689L237.25 141.775C238.25 143.182 239.292 144.632 240.375 145.954C241.417 147.233 242.417 148.3 243.417 149.025C244.125 149.536 244.792 149.75 245.5 149.579C246.292 149.408 247.125 148.726 248.083 147.361C248.292 147.02 248.5 146.636 248.708 146.295L249.333 145.272L249.375 145.229C250 144.248 250.625 143.225 251.083 142.201C251.417 141.434 251.667 140.666 251.75 139.856C251.375 139.77 250.917 139.685 250.458 139.642H250.417C247.042 139.216 243.708 138.832 242.625 132.094V132.051L242.5 131.199C242.375 130.303 242.292 129.663 242.208 129.279C242.167 128.981 242.125 128.81 242.083 128.725V128.768C242.083 128.81 242.083 128.81 242.083 128.81C241.792 128.64 241.458 128.469 241 128.256L240.625 128.085H240.583C239.458 127.531 238.583 126.721 237.875 125.74C237.125 124.716 236.583 123.48 236.25 122.2C235.917 120.921 235.708 119.513 235.625 118.149C235.542 116.528 235.583 114.95 235.75 113.628V113.586C235.833 113.031 236 112.562 236.292 112.136L236.333 112.05C236.625 111.624 237.042 111.325 237.5 111.07C237.542 111.07 237.583 111.027 237.625 111.027C247.083 106.677 255.083 104.459 262.042 103.308C267.833 102.37 272.875 102.157 277.417 102.114C268.042 95.7596 258.417 85.6099 250.292 74.3087C242 62.7089 235.25 49.8725 232 38.6139C229.833 45.0961 226.708 52.9856 221.458 61.6001C215.542 71.3661 187.375 95.2905 185.792 102.327ZM247.667 58.9561C250.833 57.6767 253.958 57.0797 257.042 57.4208C265.667 58.4017 271.917 65.3103 271.167 74.394C270.875 77.8056 269.708 81.5585 267.625 85.6952C269.375 87.401 271.25 89.1495 273.25 90.9406C276.125 93.4994 279.042 95.717 281.958 97.5934C284.583 99.2993 287.25 100.664 289.875 101.645C290.125 101.602 290.375 101.56 290.583 101.474C290.833 101.389 291.042 101.261 291.25 101.133C291.417 101.005 291.625 100.835 291.792 100.664C292.208 99.7684 292.5 98.7449 292.625 97.5934C292.75 96.314 292.75 94.8641 292.542 93.2862C291.958 88.5525 289.958 82.8379 287 76.7395C283.75 70.0441 279.417 62.9222 274.5 56.1414C269.708 49.4887 264.417 43.177 259.208 37.8889C254.25 32.8567 249.375 28.7627 245.083 26.2465L245.042 26.2039C243.458 25.3083 242 24.626 240.667 24.1995L240.583 24.1569C239.417 23.8157 238.417 23.6878 237.583 23.8157C237.375 23.8584 237.25 23.8584 237.125 23.901L237.083 23.9437C237 24.0716 236.875 24.2422 236.792 24.4554C236.75 24.5407 236.667 24.6686 236.583 24.8392L236.458 25.0951V25.223V25.2657C236.042 27.9097 236.458 31.3641 237.5 35.3728C238.625 39.6801 240.5 44.5844 243 49.7872C244.583 53.0709 246.125 56.0988 247.667 58.9561ZM280.125 108.511H280.042C270.542 108.596 258.625 108.724 241.792 116.144C241.792 116.827 241.792 117.509 241.833 118.191C241.917 119.002 242 119.769 242.208 120.494C242.375 121.006 242.542 121.475 242.75 121.816C242.917 122.072 243.083 122.285 243.292 122.413L243.667 122.584H243.708L243.792 122.627C245.625 123.565 246.583 124.034 247.417 125.441V125.484C248.125 126.635 248.292 127.829 248.667 130.047L248.708 130.26V130.303L248.833 131.156V131.199C249.167 133.118 250.167 133.246 251.208 133.373C256.292 133.971 258.125 136.444 258.125 139.6C258.125 142.457 256.5 145.826 254.542 148.811C254.292 149.195 254.083 149.494 253.958 149.75C253.792 150.048 253.583 150.347 253.417 150.645L253.333 150.773C253.292 150.816 253.292 150.858 253.25 150.901C251.042 154.142 248.792 155.72 246.5 156.146C244.167 156.573 241.958 155.805 239.792 154.27C237.042 152.308 234.708 149.11 232.458 146.039L232.125 145.57L231.792 145.101L231.208 144.248L231.167 144.163C229.417 141.775 227.75 139.045 226.083 136.188C224.542 133.501 222.917 130.516 221.25 127.488L221.208 127.531C220.875 127.744 220.542 127.957 220.292 128.128L219.083 128.938L219 128.981C214.083 132.265 209.75 135.293 203.125 134.61C199.125 134.184 195.25 132.35 191.792 129.621C190.458 128.554 189.208 127.403 188.083 126.124C186.917 124.844 185.833 123.394 184.833 121.944C183.875 120.494 183 118.959 182.25 117.381C181.5 115.803 180.875 114.183 180.417 112.562V112.52C179.208 108.468 178.875 104.374 179.708 100.749C183.25 85.4393 216.25 69.0206 228.042 30.5111V30.4685C228.583 28.6347 229.125 26.9715 229.625 25.4363C230.167 23.901 230.708 22.579 231.292 21.4702L231.333 21.4275C231.625 20.8731 231.917 20.404 232.208 20.0202C232.542 19.5511 232.917 19.1673 233.375 18.8261C233.833 18.485 234.333 18.2291 234.917 18.0158C235.458 17.8453 236.042 17.6747 236.75 17.5894C238.458 17.3762 240.292 17.5467 242.208 18.1438C244.083 18.6982 246.083 19.5938 248.208 20.8305L248.25 20.8731C252.958 23.6025 258.208 27.995 263.5 33.3258C269 38.8698 274.542 45.5226 279.542 52.4739C284.708 59.6384 289.333 67.1868 292.75 74.3087C295.917 80.9188 298.083 87.1878 298.75 92.5612C299.042 94.8214 299.042 96.9537 298.792 98.9155C298.542 100.835 297.958 102.583 297.125 104.118L297.083 104.161C294.583 108.681 286.583 108.596 281.75 108.553C281.125 108.511 280.542 108.511 280.125 108.511ZM65.2917 82.7099H158.625L156.083 97.2096H71.7083V350.186H439.167V97.2523H329.667L334.792 82.7526H444.333C449.292 82.7526 453.375 86.9319 453.375 92.0068V352.83C453.375 357.137 450.5 360.762 446.583 361.786H501.417C507.25 361.786 512 366.647 512 372.618C512 378.588 507.25 383.45 501.417 383.45H10.5833C4.75 383.45 0 378.588 0 372.618C0 366.647 4.75 361.786 10.5833 361.786H63.0417C59.1667 360.762 56.25 357.095 56.25 352.83V92.0068C56.25 86.8893 60.3333 82.7099 65.2917 82.7099ZM241.125 365.837H270.875C273.667 365.837 275.958 368.183 275.958 371.04C275.958 373.897 273.667 376.243 270.875 376.243H241.125C238.333 376.243 236.042 373.897 236.042 371.04C236.042 368.183 238.333 365.837 241.125 365.837ZM156.625 163.354H168.208C168.833 163.354 169.333 163.865 169.333 164.505V206.767C169.333 207.407 168.833 207.919 168.208 207.919H156.625C156 207.919 155.5 207.407 155.5 206.767V164.505C155.5 163.865 156 163.354 156.625 163.354ZM104.208 149.067H115.792C116.417 149.067 116.917 149.579 116.917 150.219V206.767C116.917 207.407 116.417 207.919 115.792 207.919H104.208C103.583 207.919 103.083 207.407 103.083 206.767V150.219C103.083 149.579 103.583 149.067 104.208 149.067ZM130.417 141.05H142C142.625 141.05 143.125 141.562 143.125 142.201V206.767C143.125 207.407 142.625 207.919 142 207.919H130.417C129.792 207.919 129.292 207.407 129.292 206.767V142.201C129.292 141.562 129.792 141.05 130.417 141.05ZM104.875 317.732C102.333 317.732 100.292 315.6 100.292 312.999C100.292 310.397 102.333 308.265 104.875 308.265H407.083C409.625 308.265 411.667 310.397 411.667 312.999C411.667 315.6 409.625 317.732 407.083 317.732H104.875ZM104.125 283.232C101.583 283.232 99.5417 281.099 99.5417 278.498C99.5417 275.897 101.583 273.764 104.125 273.764H233.958C236.5 273.764 238.542 275.897 238.542 278.498C238.542 281.099 236.5 283.232 233.958 283.232H104.125ZM251.708 283.232C249.167 283.232 247.125 281.099 247.125 278.498C247.125 275.897 249.167 273.764 251.708 273.764H407.083C409.625 273.764 411.667 275.897 411.667 278.498C411.667 281.099 409.625 283.232 407.083 283.232H251.708ZM104.125 252.484C101.583 252.484 99.5417 250.352 99.5417 247.75C99.5417 245.149 101.583 243.017 104.125 243.017H300.25C302.792 243.017 304.833 245.149 304.833 247.75C304.833 250.352 302.792 252.484 300.25 252.484H104.125ZM360.25 186.212L358.208 144.589C358.167 143.779 358.792 143.054 359.583 143.011C359.833 143.011 360.083 142.969 360.417 142.969C360.667 142.969 360.958 142.969 361.25 142.969C372.417 142.841 382.667 147.191 390.333 154.398C398 161.605 403.042 171.712 403.875 183.141C403.917 183.952 403.333 184.677 402.542 184.719L361.875 187.705C361.083 187.747 360.375 187.15 360.333 186.34C360.25 186.255 360.25 186.255 360.25 186.212ZM361.208 145.954L363.083 184.591L400.792 181.819C399.75 171.798 395.125 162.97 388.333 156.573C381.208 149.835 371.667 145.826 361.25 145.911L361.208 145.954ZM355.708 192.14L376.083 228.304C369.875 231.971 362.833 233.89 355.708 233.89C333.167 233.89 314.917 215.211 314.917 192.14C314.917 171.414 329.75 153.844 349.792 150.858L355.708 192.14Z" fill="#192A51"/>
</svg>
