<svg width="254" height="254" viewBox="0 0 254 254" fill="none" xmlns="http://www.w3.org/2000/svg">
<path d="M46.5333 123.627C47.962 122.198 44.0131 105.192 61.6145 92.0554C79.2159 78.9188 91.2214 86.7571 92.9081 86.1816C94.575 85.626 102.413 51.2566 135.374 42.3269C168.334 33.3973 202.704 50.1454 210.8 78.0854C218.202 103.624 212.467 120.829 213.32 121.94C214.153 123.051 230.088 122.496 239.295 137.299C248.503 152.103 245.169 161.33 245.169 161.33L186.511 179.487H92.6501C92.6501 179.487 9.96122 157.698 9.12779 153.789C8.29435 149.88 10.1795 137.18 23.6534 129.481C35.3612 122.793 44.0131 126.147 46.5333 123.627Z" fill="url(#paint0_linear_213_25)"/>
<path d="M69.7707 184.229C69.7707 184.229 38.4573 190.778 17.284 174.387C4.54431 164.505 9.18774 148.491 9.18774 148.491C9.18774 148.491 18.3159 157.718 36.7507 160.218C55.1856 162.739 75.8627 161.885 75.8627 161.885C75.8627 161.885 81.0221 170.696 100.449 174.744C124.797 179.804 137.636 167.342 137.636 167.342C137.636 167.342 144.304 175.319 167.779 175.875C191.254 176.431 204.411 160.04 206.613 159.663C207.724 159.484 214.194 165.358 227.013 163.294C239.217 161.33 245.646 156.031 245.646 156.031C245.646 156.031 247.412 169.168 235.129 177.264C225.544 183.574 208.875 184.249 208.875 184.249C208.875 184.249 206.335 193.992 194.886 201.077C184.249 207.685 165.914 209.887 152.341 205.839C135.295 200.759 131.068 193 131.068 193C131.068 193 118.368 200.442 98.5243 197.922C79.772 195.58 69.7707 184.229 69.7707 184.229Z" fill="url(#paint1_linear_213_25)"/>
<defs>
<linearGradient id="paint0_linear_213_25" x1="127.359" y1="39.9155" x2="127.359" y2="179.487" gradientUnits="userSpaceOnUse">
<stop stop-color="#FFF6E3"/>
<stop offset="1" stop-color="white"/>
</linearGradient>
<linearGradient id="paint1_linear_213_25" x1="205.5" y1="162.5" x2="127.048" y2="207.873" gradientUnits="userSpaceOnUse">
<stop stop-color="#B1CCE4" stop-opacity="0.99"/>
<stop offset="1" stop-color="#EFEFEF"/>
</linearGradient>
</defs>
</svg>
