<svg width="512" height="294" viewBox="0 0 512 294" fill="none" xmlns="http://www.w3.org/2000/svg">
<g clip-path="url(#clip0_177_223)">
<path fill-rule="evenodd" clip-rule="evenodd" d="M10.5833 274.024H63.0417C59.1667 273.079 56.25 269.69 56.25 265.75V103.424C54.6667 102.203 53.125 100.863 51.6667 99.4052C42.9583 90.5009 37.5833 78.2083 37.5833 64.7336V45.4278C37.5833 44.4428 37.7917 43.4972 38.25 42.6304L76.0417 2.87617C77.0417 1.02439 78.9167 0 80.8333 0H428.167C430.375 0 432.208 1.30019 433.125 3.15197L473.625 42.4334C475.5 45.4278 474.458 61.4634 474.458 64.6942C474.458 78.1689 469.042 90.4615 460.375 99.3658C458.208 101.533 455.917 103.503 453.417 105.236V265.711C453.417 269.69 450.542 273.039 446.625 273.985H501.458C507.292 273.985 512.042 278.477 512.042 283.992C512.042 289.508 507.292 294 501.458 294H10.5833C4.75 294 0 289.508 0 283.992C0 278.516 4.75 274.024 10.5833 274.024ZM188.625 133.998C186.042 133.998 183.875 131.91 183.875 129.388C183.875 126.946 186.083 124.897 188.625 124.897H195.208C195.333 124.897 195.583 124.897 195.708 124.897C200.125 125.015 204.042 125.803 207.292 127.773C210.958 129.979 213.625 133.328 215.125 138.293C215.125 138.411 215.125 138.529 215.25 138.647L216.458 143.296H322.167H323.333C326.042 143.296 328.083 145.385 328.083 147.788C328.083 148.261 327.958 148.694 327.833 149.167L315.417 196.604C314.917 198.692 312.958 200.071 310.792 200.071H232.583C234.292 206.06 236 209.291 238.333 210.827C241.125 212.561 246.042 212.679 254.208 212.561H254.333H309.542C312.25 212.561 314.292 214.649 314.292 217.053C314.292 219.574 312.083 221.544 309.542 221.544H254.333C244.208 221.662 237.958 221.426 232.958 218.313C227.833 215.083 225.125 209.527 222.458 199.48L206.083 140.893C206.083 140.775 206.083 140.775 205.958 140.657C205.208 138.096 204 136.402 202.292 135.456C200.583 134.432 198.25 133.959 195.583 133.959C195.458 133.959 195.333 133.959 195.208 133.959L188.625 133.998ZM282.917 174.58C282.917 173.161 284.417 172.019 286.25 172.019C288.083 172.019 289.583 173.161 289.583 174.58V179.977C289.583 181.396 288.083 182.538 286.25 182.538C284.417 182.538 282.917 181.396 282.917 179.977V174.58ZM263.042 174.58C263.042 173.161 264.542 172.019 266.375 172.019C268.208 172.019 269.708 173.161 269.708 174.58V179.977C269.708 181.396 268.208 182.538 266.375 182.538C264.542 182.538 263.042 181.396 263.042 179.977V174.58ZM243.125 174.58C243.125 173.161 244.625 172.019 246.458 172.019C248.292 172.019 249.792 173.161 249.792 174.58V179.977C249.792 181.396 248.292 182.538 246.458 182.538C244.625 182.538 243.125 181.396 243.125 179.977V174.58ZM219.167 152.24L230.042 190.931H307.125L317.25 152.24C284.542 152.24 251.875 152.24 219.167 152.24ZM295.292 226.902C301.75 226.902 307 231.867 307 237.974C307 244.081 301.75 249.045 295.292 249.045C288.833 249.045 283.542 244.081 283.542 237.974C283.542 231.827 288.792 226.902 295.292 226.902ZM243.833 226.902C250.292 226.902 255.542 231.867 255.542 237.974C255.542 244.081 250.292 249.045 243.833 249.045C237.333 249.045 232.125 244.081 232.125 237.974C232.125 231.827 237.375 226.902 243.833 226.902ZM71.7083 111.186V263.308H439.167V111.737C435.583 112.683 431.958 113.195 428.375 113.313C420.917 113.55 413.458 112.053 406.042 109.216C400.958 106.773 396.333 103.424 392.417 99.4446C388.958 95.9381 386.083 91.8799 383.75 87.4672C381.5 91.9193 378.542 95.9381 375.083 99.4446C366.375 108.349 354.333 113.865 341.125 113.865C327.917 113.865 315.917 108.349 307.167 99.4446C303.708 95.9381 300.833 91.8799 298.542 87.4672C296.292 91.9193 293.333 95.9381 289.875 99.4446C281.167 108.349 269.125 113.865 255.917 113.865C242.708 113.865 230.667 108.349 221.958 99.4446C218.5 95.9381 215.625 91.8799 213.333 87.4672C211.083 91.9193 208.125 95.9381 204.667 99.4446C195.958 108.349 183.917 113.865 170.708 113.865C157.5 113.865 145.458 108.349 136.75 99.4446C133.292 95.9381 130.417 91.8799 128.083 87.4672C125.833 91.9193 122.875 95.9381 119.458 99.4446C113.708 105.315 106.583 109.728 98.5833 112.013C88.6667 114.062 79.875 113.589 72 111.304L71.7083 111.186ZM61.4167 40.0694C83.7083 40.0694 104.375 40.0694 123.917 40.0694L137.083 11.1895H84L61.4167 40.0694ZM298 11.1895L303.5 40.0694H376.625L361.667 11.1895H298ZM292.5 40.0694L287.042 11.1895H224.75L219.375 40.0694H292.5ZM208.417 40.0694L213.792 11.1895H148.292L136.125 40.227L208.417 40.0694ZM372.958 11.1895L387.917 40.0694H447.792L425.042 11.1895H372.958ZM389.25 51.2589V64.7336C389.25 75.1351 393.417 84.6304 400.167 91.4859C406.875 98.3415 416.167 102.636 426.375 102.636C436.583 102.636 445.875 98.3809 452.583 91.4859C459.292 84.6304 463.5 75.1351 463.5 64.7336V51.2589H389.25ZM304.042 51.2589V64.7336C304.042 75.1351 308.208 84.6304 314.958 91.4859C321.667 98.3415 330.958 102.636 341.167 102.636C351.375 102.636 360.667 98.3809 367.375 91.4859C374.083 84.6304 378.292 75.1351 378.292 64.7336V51.2589H304.042ZM218.875 51.2589V64.7336C218.875 75.1351 223.042 84.6304 229.792 91.4859C236.5 98.3415 245.792 102.636 256 102.636C266.208 102.636 275.5 98.3809 282.208 91.4859C288.917 84.6304 293.125 75.1351 293.125 64.7336V51.2589H218.875ZM133.708 51.2589V64.7336C133.708 75.1351 137.875 84.6304 144.625 91.4859C151.333 98.3415 160.625 102.636 170.833 102.636C181.042 102.636 190.333 98.3809 197.042 91.4859C203.75 84.6304 207.958 75.1351 207.958 64.7336V51.2589H133.708ZM122.75 51.2589H48.5417V64.7336C48.5417 75.1351 52.7083 84.6304 59.4583 91.4859C66.1667 98.3415 75.4583 102.636 85.6667 102.636C95.875 102.636 105.167 98.3809 111.875 91.4859C118.583 84.6304 122.792 75.1351 122.792 64.7336V51.2589H122.75ZM241.125 277.767H270.875C273.667 277.767 275.958 279.934 275.958 282.574C275.958 285.214 273.667 287.381 270.875 287.381H241.125C238.333 287.381 236.042 285.214 236.042 282.574C236.042 279.895 238.333 277.767 241.125 277.767Z" fill="#192A51"/>
</g>
<defs>
<clipPath id="clip0_177_223">
<rect width="512" height="294" fill="white"/>
</clipPath>
</defs>
</svg>
