<svg width="53" height="58" viewBox="0 0 53 58" fill="none" xmlns="http://www.w3.org/2000/svg">
<circle cx="31.466" cy="37.1575" r="20.5959" fill="black"/>
<circle cx="24.4899" cy="24.2021" r="22.0856" fill="url(#paint0_linear_185_2)" stroke="black" stroke-width="3"/>
<path d="M35.9252 18.4046L35.8176 17.9715C35.675 17.5509 35.4865 17.1474 35.2555 16.7686C34.7304 15.8866 33.9785 15.1635 33.079 14.6754L26.8006 11.2591C25.9703 10.8146 25.0443 10.5822 24.1038 10.5822C23.1634 10.5822 22.2373 10.8146 21.4071 11.2591L15.1287 14.6754C14.2292 15.1635 13.4773 15.8866 12.9521 16.7686C12.7183 17.1442 12.5334 17.5485 12.402 17.9715V18.1399C12.2681 18.6216 12.1997 19.1194 12.1987 19.6196V28.786C12.2019 30.3005 12.8014 31.752 13.866 32.8229C14.9306 33.8938 16.3736 34.4968 17.8792 34.5H30.4361C31.182 34.5 31.9207 34.3522 32.6099 34.0651C33.2991 33.7779 33.9253 33.357 34.4528 32.8264C34.9802 32.2958 35.3987 31.6659 35.6841 30.9727C35.9696 30.2794 36.1165 29.5364 36.1165 28.786V19.6075C36.0951 19.2009 36.031 18.7977 35.9252 18.4046ZM26.0471 22.4345C25.4544 22.7718 24.7849 22.9491 24.1038 22.9491C23.4227 22.9491 22.7533 22.7718 22.1605 22.4345L14.3513 17.8873C14.3872 17.7951 14.4311 17.7069 14.4829 17.6227C14.8438 17.0187 15.3603 16.5241 15.9777 16.1912L22.2562 12.7748C22.8211 12.4652 23.4545 12.3038 24.0978 12.3056C24.745 12.3039 25.3822 12.4652 25.9515 12.7748L32.2299 16.1912C32.9687 16.5929 33.5566 17.2266 33.9041 17.9956L26.0471 22.4345Z" fill="#192A51"/>
<defs>
<linearGradient id="paint0_linear_185_2" x1="24.4899" y1="47.7877" x2="24.4899" y2="0.616455" gradientUnits="userSpaceOnUse">
<stop stop-color="#FB6FC6"/>
<stop offset="1" stop-color="#FCFF6C"/>
</linearGradient>
</defs>
</svg>
