<?xml version="1.0" encoding="UTF-8"?><svg id="d" xmlns="http://www.w3.org/2000/svg" viewBox="0 0 600 900" style="shape-rendering: crispEdges;"><g id="e"><rect x="150" y="150" width="400" height="400" fill="#333"/><rect x="150" y="550" width="100" height="100" fill="#333"/><rect x="150" y="750" width="100" height="100" fill="#333"/><rect x="250" y="550" width="100" height="100" fill="#333"/><rect x="350" y="550" width="100" height="100" fill="#333"/><rect x="150" y="650" width="100" height="100" fill="#333"/><rect x="250" y="650" width="100" height="100" fill="#333"/></g><g id="f"><rect x="75" y="75" width="450" height="413.7931" fill="#333"/><rect x="75" y="488.7931" width="105.88235" height="103.44828" fill="#333"/><rect x="75" y="695.68966" width="105.88235" height="129.31034" fill="#333"/><rect x="180.88235" y="488.7931" width="105.88235" height="103.44828" fill="#333"/><rect x="286.76471" y="488.7931" width="105.88235" height="103.44828" fill="#333"/><rect x="75" y="592.24138" width="105.88235" height="103.44828" fill="#333"/><rect x="180.88235" y="592.24138" width="105.88235" height="103.44828" fill="#333"/></g><g id="g"><rect x="100" y="100" width="400" height="400" fill="#fcd289"/><rect x="100" y="500" width="100" height="100" fill="#fcc492"/><rect x="100" y="700" width="100" height="100" fill="#fca8a3"/><rect x="300" y="500" width="100" height="100" fill="#fcc492"/><rect x="200" y="500" width="100" height="100" fill="#fcc492"/><rect x="100" y="600" width="100" height="100" fill="#fcb69a"/><rect x="200" y="600" width="100" height="100" fill="#fcb69a"/><path d="M447.83404,248.41355l-1.35-5.43191c-1.78856-5.27605-4.15296-10.3365-7.05001-15.0885-6.58602-11.06236-16.01822-20.13232-27.3-26.25409l-78.75-42.85135c-10.41356-5.57444-22.02839-8.48984-33.825-8.48984s-23.41157,2.9154-33.825,8.48984l-78.75,42.85135c-11.28216,6.12177-20.7136,15.19172-27.3,26.25409-2.9331,4.71137-5.2521,9.78246-6.9,15.0885v2.1124c-1.67995,6.04187-2.53777,12.285-2.55,18.55882v114.975c.03963,18.99544,7.55903,37.20137,20.91241,50.63455,13.35343,13.43181,31.45309,20.99589,50.33758,21.03545h157.5c9.35721,0,18.62161-1.85317,27.26568-5.45592,8.64533-3.60135,16.49999-8.87999,23.11524-15.5359,6.61653-6.65455,11.86527-14.55545,15.44493-23.25138,3.58093-8.69591,5.42415-18.015,5.42415-27.42681v-115.12582c-.26822-5.10055-1.07287-10.15828-2.4-15.0885ZM323.93404,298.96014c-7.43517,4.23137-15.83262,6.45546-24.37499,6.45546s-16.93984-2.22409-24.375-6.45546l-97.95-57.03477c.45-1.15677,1.00004-2.26323,1.65-3.31936,4.52708-7.57555,11.00555-13.77941,18.75-17.95541l78.75-42.85132c7.08559-3.8835,15.03051-5.90741,23.10001-5.8845,8.11652-.02236,16.10973,2.00073,23.24999,5.8845l78.75,42.85132c9.26568,5.03905,16.64111,12.987,21.00001,22.63282l-98.55,55.67672Z" fill="#fb6fc6" style="shape-rendering: auto;"/></g></svg>