<svg width="77" height="86" viewBox="0 0 77 86" fill="none" xmlns="http://www.w3.org/2000/svg">
<circle cx="46" cy="55" r="31" fill="#192A51"/>
<circle cx="35.5" cy="35.5" r="33" fill="#FB6FC6" stroke="black" stroke-width="5"/>
<path d="M52.712 26.7739L52.55 26.1221C52.3354 25.4889 52.0516 24.8817 51.704 24.3114C50.9136 22.984 49.7819 21.8955 48.428 21.1609L38.978 16.0188C37.7284 15.3498 36.3345 15 34.919 15C33.5035 15 32.1096 15.3498 30.86 16.0188L21.41 21.1609C20.0561 21.8955 18.9244 22.984 18.134 24.3114C17.782 24.8768 17.5037 25.4853 17.306 26.1221V26.3755C17.1044 27.1006 17.0015 27.8497 17 28.6026V42.3995C17.0048 44.6791 17.9071 46.8638 19.5095 48.4757C21.1119 50.0876 23.2839 50.9952 25.55 51H44.45C45.5728 51 46.6846 50.7775 47.7219 50.3453C48.7593 49.9131 49.7018 49.2796 50.4958 48.481C51.2897 47.6824 51.9195 46.7343 52.3492 45.6908C52.7788 44.6473 53 43.529 53 42.3995V28.5845C52.9677 27.9724 52.8712 27.3655 52.712 26.7739ZM37.844 32.8395C36.9518 33.3472 35.9441 33.6141 34.919 33.6141C33.8939 33.6141 32.8862 33.3472 31.994 32.8395L20.24 25.9953C20.294 25.8565 20.36 25.7237 20.438 25.597C20.9813 24.6879 21.7587 23.9434 22.688 23.4423L32.138 18.3002C32.9883 17.8341 33.9417 17.5913 34.91 17.594C35.884 17.5913 36.8432 17.8341 37.7 18.3002L47.15 23.4423C48.2619 24.047 49.1469 25.0008 49.67 26.1583L37.844 32.8395Z" fill="black"/>
</svg>
