<svg width="52" height="58" viewBox="0 0 52 58" fill="none" xmlns="http://www.w3.org/2000/svg">
<circle cx="30.8015" cy="36.5411" r="20.5959" fill="#76838E"/>
<circle cx="23.8254" cy="23.5856" r="22.0856" fill="#B1CCE4" stroke="#7493AF" stroke-width="3"/>
<path d="M35.2606 17.7881L35.153 17.355C35.0104 16.9344 34.8219 16.5309 34.5909 16.1521C34.0658 15.2701 33.3139 14.547 32.4144 14.0589L26.136 10.6426C25.3058 10.1981 24.3797 9.9657 23.4393 9.9657C22.4988 9.9657 21.5728 10.1981 20.7425 10.6426L14.4641 14.0589C13.5646 14.547 12.8127 15.2701 12.2876 16.1521C12.0537 16.5277 11.8689 16.932 11.7375 17.355V17.5234C11.6035 18.0051 11.5352 18.5029 11.5342 19.003V28.1695C11.5373 29.684 12.1368 31.1355 13.2014 32.2064C14.2661 33.2773 15.7091 33.8803 17.2147 33.8835H29.7715C30.5175 33.8835 31.2561 33.7357 31.9453 33.4486C32.6345 33.1614 33.2607 32.7405 33.7882 32.2099C34.3157 31.6793 34.7341 31.0494 35.0196 30.3562C35.3051 29.6629 35.452 28.9199 35.452 28.1695V18.991C35.4306 18.5844 35.3664 18.1811 35.2606 17.7881ZM25.3826 21.8179C24.7898 22.1553 24.1203 22.3326 23.4393 22.3326C22.7582 22.3326 22.0887 22.1553 21.4959 21.8179L13.6868 17.2708C13.7227 17.1786 13.7665 17.0904 13.8183 17.0062C14.1793 16.4022 14.6958 15.9076 15.3132 15.5746L21.5916 12.1583C22.1565 11.8487 22.79 11.6873 23.4333 11.6891C24.0804 11.6873 24.7177 11.8486 25.2869 12.1583L31.5653 15.5746C32.3041 15.9764 32.892 16.61 33.2396 17.3791L25.3826 21.8179Z" fill="#76838E"/>
</svg>
