<?xml version="1.0" encoding="UTF-8"?><svg id="i" xmlns="http://www.w3.org/2000/svg" xmlns:xlink="http://www.w3.org/1999/xlink" viewBox="0 0 393.005 68.73"><defs><linearGradient id="o" x1="-36.845" y1="34.365" x2="356.16" y2="34.365" gradientUnits="userSpaceOnUse"><stop offset=".187" stop-color="#66ff94"/><stop offset=".419" stop-color="#66ff94"/></linearGradient></defs><g id="k"><g id="n"><path d="M393.005,68.73H0C.002,51.063.003,33.397.005,15.73c11.311-3.63,26.602-7.861,45-11C87.035-2.441,120.642.29,134.005,1.73c0,0,37.058,3.992,85,18,0,0,20.79,6.074,39.682,9.01,3.85.598,8.124,1.204,8.124,1.204,7.328,1.033,13.506,1.76,19.735,2.487,10.279,1.201,34.97,3.915,67.657,5.537,10.065.5,23.253,1.013,38.803,1.23v29.531Z" fill="url(#o)"/></g></g></svg>