<svg width="52" height="58" viewBox="0 0 52 58" fill="none" xmlns="http://www.w3.org/2000/svg">
<circle cx="31.2263" cy="37.1575" r="20.5959" fill="black"/>
<circle cx="24.2502" cy="24.2021" r="22.0856" fill="url(#paint0_linear_185_11)" stroke="black" stroke-width="3"/>
<g clip-path="url(#clip0_185_11)">
<path d="M23.9179 20.2397C23.3313 20.2397 22.7579 20.4136 22.2702 20.7395C21.7824 21.0654 21.4023 21.5286 21.1778 22.0705C20.9534 22.6125 20.8946 23.2088 21.0091 23.7841C21.1235 24.3594 21.406 24.8879 21.8207 25.3026C22.2355 25.7174 22.764 25.9999 23.3393 26.1143C23.9146 26.2287 24.5109 26.17 25.0529 25.9455C25.5948 25.7211 26.058 25.3409 26.3839 24.8532C26.7098 24.3655 26.8837 23.7921 26.8837 23.2055C26.8837 22.816 26.807 22.4303 26.6579 22.0705C26.5089 21.7107 26.2904 21.3837 26.015 21.1083C25.7396 20.8329 25.4127 20.6145 25.0529 20.4654C24.693 20.3164 24.3074 20.2397 23.9179 20.2397ZM35.7931 17.3097C35.7876 16.3862 35.6175 15.4709 35.2908 14.607C35.0508 13.9747 34.6794 13.4005 34.2011 12.9222C33.7229 12.444 33.1487 12.0726 32.5163 11.8326C31.6524 11.5059 30.7372 11.3358 29.8136 11.3303C28.2709 11.2466 27.8165 11.2466 23.9179 11.2466C20.0193 11.2466 19.5648 11.2466 18.0221 11.3303C17.0986 11.3358 16.1833 11.5059 15.3194 11.8326C14.6871 12.0726 14.1129 12.444 13.6346 12.9222C13.1564 13.4005 12.785 13.9747 12.545 14.607C12.2183 15.4709 12.0482 16.3862 12.0427 17.3097C11.959 18.8524 11.959 19.3069 11.959 23.2055C11.959 27.1041 11.959 27.5585 12.0427 29.1012C12.0565 30.0279 12.2263 30.9456 12.545 31.8159C12.7826 32.446 13.1539 33.0172 13.6332 33.4901C14.1097 33.971 14.6851 34.3423 15.3194 34.5784C16.1833 34.9051 17.0986 35.0751 18.0221 35.0807C19.5648 35.1644 20.0193 35.1644 23.9179 35.1644C27.8165 35.1644 28.2709 35.1644 29.8136 35.0807C30.7372 35.0751 31.6524 34.9051 32.5163 34.5784C33.1507 34.3423 33.7261 33.971 34.2025 33.4901C34.6819 33.0172 35.0532 32.446 35.2908 31.8159C35.6164 30.9475 35.7864 30.0286 35.7931 29.1012C35.8768 27.5585 35.8768 27.1041 35.8768 23.2055C35.8768 19.3069 35.8768 18.8524 35.7931 17.3097ZM32.7555 26.8769C32.7178 27.6149 32.5602 28.342 32.2891 29.0295C32.057 29.6031 31.7118 30.1242 31.2742 30.5618C30.8366 30.9994 30.3155 31.3446 29.7419 31.5767C29.0478 31.8328 28.3168 31.9741 27.5773 31.9953H20.2585C19.519 31.9741 18.7879 31.8328 18.0939 31.5767C17.5007 31.3567 16.965 31.0051 16.5273 30.5483C16.0937 30.1195 15.759 29.6011 15.5467 29.0295C15.2904 28.3359 15.153 27.6042 15.1401 26.8649V19.5461C15.153 18.8068 15.2904 18.075 15.5467 17.3815C15.7667 16.7883 16.1183 16.2526 16.5751 15.8149C17.0063 15.3842 17.5239 15.05 18.0939 14.8343C18.7879 14.5782 19.519 14.4368 20.2585 14.4157H27.5773C28.3168 14.4368 29.0478 14.5782 29.7419 14.8343C30.3351 15.0543 30.8707 15.4059 31.3085 15.8627C31.7421 16.2915 32.0768 16.8098 32.2891 17.3815C32.5452 18.0755 32.6865 18.8066 32.7077 19.5461V23.2055C32.7077 25.669 32.7914 25.9202 32.7555 26.8649V26.8769ZM30.8421 17.9794C30.6997 17.5932 30.4752 17.2423 30.1841 16.9512C29.893 16.6601 29.5422 16.4356 29.1559 16.2932C28.6255 16.1094 28.0668 16.0203 27.5056 16.0301H20.3302C19.7661 16.0357 19.2074 16.1409 18.6799 16.3411C18.2995 16.477 17.9524 16.6923 17.6617 16.9727C17.371 17.2532 17.1432 17.5923 16.9937 17.9675C16.8206 18.5002 16.7358 19.0577 16.7425 19.6178V26.7932C16.7551 27.3566 16.8601 27.9141 17.0535 28.4435C17.1959 28.8298 17.4204 29.1806 17.7115 29.4717C18.0026 29.7628 18.3534 29.9873 18.7397 30.1297C19.2501 30.3168 19.7869 30.4217 20.3302 30.4406H27.5056C28.0697 30.4351 28.6284 30.3298 29.1559 30.1297C29.5422 29.9873 29.893 29.7628 30.1841 29.4717C30.4752 29.1806 30.6997 28.8298 30.8421 28.4435C31.0422 27.916 31.1475 27.3573 31.153 26.7932V19.6178C31.1528 19.0532 31.0474 18.4935 30.8421 17.9675V17.9794ZM23.9179 27.7738C23.3185 27.7738 22.7251 27.6555 22.1715 27.4258C21.6179 27.1961 21.1151 26.8594 20.6918 26.435C20.2686 26.0107 19.9332 25.507 19.7049 24.9528C19.4767 24.3986 19.36 23.8048 19.3615 23.2055C19.3615 22.3015 19.6298 21.4177 20.1323 20.6662C20.6348 19.9147 21.349 19.3292 22.1844 18.9838C23.0199 18.6384 23.939 18.5486 24.8255 18.7259C25.712 18.9031 26.5259 19.3394 27.1644 19.9795C27.8028 20.6195 28.2369 21.4347 28.4118 22.3216C28.5867 23.2086 28.4946 24.1275 28.147 24.962C27.7994 25.7965 27.212 26.5092 26.4592 27.0097C25.7063 27.5102 24.8219 27.7762 23.9179 27.7738ZM28.7015 19.5341C28.4371 19.5061 28.1924 19.3813 28.0146 19.1837C27.8368 18.9861 27.7384 18.7296 27.7384 18.4638C27.7384 18.1979 27.8368 17.9415 28.0146 17.7439C28.1924 17.5463 28.4371 17.4214 28.7015 17.3935C28.9658 17.4214 29.2105 17.5463 29.3883 17.7439C29.5661 17.9415 29.6645 18.1979 29.6645 18.4638C29.6645 18.7296 29.5661 18.9861 29.3883 19.1837C29.2105 19.3813 28.9658 19.5061 28.7015 19.5341Z" fill="#192A51"/>
</g>
<defs>
<linearGradient id="paint0_linear_185_11" x1="24.2502" y1="47.7877" x2="24.2502" y2="0.616455" gradientUnits="userSpaceOnUse">
<stop stop-color="#FB6FC6"/>
<stop offset="1" stop-color="#FCFF6C"/>
</linearGradient>
<clipPath id="clip0_185_11">
<rect width="23.9178" height="23.9178" fill="white" transform="translate(11.959 11.2466)"/>
</clipPath>
</defs>
</svg>
