<?xml version="1.0" encoding="UTF-8"?><svg id="a" xmlns="http://www.w3.org/2000/svg" xmlns:xlink="http://www.w3.org/1999/xlink" viewBox="0 0 600 900" style="shape-rendering: crispEdges;"><defs><clipPath id="e"><rect x="148.60008" y="149.90605" width="300" height="300" fill="none"/></clipPath></defs><g id="b"><rect x="149" y="150" width="400" height="400" fill="#333"/><rect x="149" y="550" width="100" height="100" fill="#333"/><rect x="149" y="750" width="100" height="100" fill="#333"/><rect x="249" y="550" width="100" height="100" fill="#333"/><rect x="349" y="550" width="100" height="100" fill="#333"/><rect x="149" y="650" width="100" height="100" fill="#333"/><rect x="249" y="650" width="100" height="100" fill="#333"/><rect x="149" y="150" width="400" height="400" fill="#333"/><rect x="149" y="550" width="100" height="100" fill="#333"/><rect x="149" y="750" width="100" height="100" fill="#333"/><rect x="249" y="550" width="100" height="100" fill="#333"/><rect x="349" y="550" width="100" height="100" fill="#333"/><rect x="149" y="650" width="100" height="100" fill="#333"/><rect x="249" y="650" width="100" height="100" fill="#333"/></g><g id="c"><rect x="80.25" y="81.25" width="437.5" height="403.44828" fill="#333"/><rect x="80.25" y="484.69828" width="102.94118" height="100.86207" fill="#333"/><rect x="80.25" y="686.42241" width="102.94118" height="132.32759" fill="#333"/><rect x="183.19118" y="484.69828" width="102.94118" height="100.86207" fill="#333"/><rect x="286.13235" y="484.69828" width="102.94118" height="100.86207" fill="#333"/><rect x="80.25" y="585.56034" width="102.94118" height="100.86207" fill="#333"/><rect x="183.19118" y="585.56034" width="102.94118" height="100.86207" fill="#333"/></g><g id="d"><rect x="99" y="100" width="400" height="400" fill="#fcd289"/><rect x="99" y="500" width="100" height="100" fill="#fcc492"/><g clip-path="url(#e)" style="shape-rendering: auto;"><path d="M298.60008,262.70605c-7.35696,0-14.54937,2.18178-20.66709,6.26936-6.11759,4.0876-10.88569,9.89773-13.70126,16.69519-2.81557,6.79747-3.55228,14.27721-2.11684,21.49241,1.43532,7.21646,4.97835,13.8443,10.18076,19.04683,5.20317,5.20253,11.83102,8.74557,19.04747,10.18101,7.2152,1.43545,14.69494.69874,21.49241-2.11645,6.79746-2.81519,12.60758-7.58354,16.69493-13.70127,4.08735-6.11771,6.26962-13.31013,6.26962-20.66708,0-4.88481-.96202-9.72278-2.83164-14.23545-1.86963-4.51392-4.61012-8.61519-8.06456-12.06899-3.45316-3.4543-7.55443-6.19443-12.06835-8.06392-4.51266-1.86949-9.35063-2.83164-14.23545-2.83164ZM447.55072,225.95605c-.06963-11.58455-2.20381-23.06405-6.30001-33.9-3.01139-7.93114-7.66963-15.13354-13.66836-21.13228-5.99873-5.99861-13.20127-10.65696-21.13165-13.66772-10.8367-4.09729-22.31644-6.23064-33.89999-6.3-19.35064-1.05-25.05064-1.05-73.95064-1.05s-54.6,0-73.95,1.05c-11.58455.06936-23.06405,2.20271-33.9,6.3-7.93114,3.01076-15.13354,7.66911-21.13228,13.66772-5.99861,5.99873-10.65696,13.20114-13.66772,21.13228-4.09729,10.83595-6.23064,22.31544-6.3,33.9-1.05,19.35-1.05,25.05001-1.05,73.95s0,54.6,1.05,73.95064c.17295,11.62277,2.30275,23.13418,6.3,34.04937,2.98057,7.90378,7.63734,15.06709,13.65,21,5.97595,6.03037,13.19304,10.68861,21.15,13.65063,10.83595,4.09619,22.31544,6.23038,33.9,6.30001,19.35,1.04936,25.05001,1.04936,73.95,1.04936s54.6,0,73.95064-1.04936c11.58355-.06963,23.06329-2.20381,33.89999-6.30001,7.95698-2.96202,15.17342-7.62026,21.14938-13.65063,6.01266-5.93291,10.66962-13.09621,13.65063-21,4.08354-10.89114,6.21645-22.41773,6.30001-34.04937,1.04936-19.35064,1.04936-25.05064,1.04936-73.95064s0-54.6-1.04936-73.95ZM409.44945,345.95669c-.47341,9.25695-2.44811,18.37595-5.84937,27-2.9114,7.19492-7.24051,13.73038-12.72911,19.22024-5.48986,5.48861-12.02532,9.81772-19.22024,12.72911-8.70634,3.2114-17.87596,4.98481-27.15064,5.25065h-91.8c-9.27494-.26583-18.4448-2.03925-27.15-5.25065-7.44076-2.75948-14.15924-7.16962-19.65-12.89999-5.43873-5.37849-9.63671-11.87976-12.3-19.04936-3.21392-8.7-4.93797-17.87849-5.1-27.15064v-91.8c.16203-9.27227,1.88608-18.45101,5.1-27.15,2.75962-7.44076,7.17013-14.15924,12.9-19.65,5.40785-5.40202,11.90101-9.59443,19.05-12.3,8.70519-3.21165,17.87506-4.98481,27.15-5.25h91.8c9.27468.26519,18.4443,2.03835,27.15064,5.25,7.44049,2.75962,14.15822,7.17013,19.64936,12.9,5.43924,5.37823,9.6367,11.87987,12.29999,19.05,3.2114,8.70519,4.98481,17.87506,5.25065,27.15v45.9c0,30.89999,1.04936,34.05063.59872,45.9v.15064ZM385.45072,234.35605c-1.78607-4.84519-4.60253-9.24531-8.25443-12.89683-3.65064-3.65139-8.05063-6.46722-12.89621-8.25317-6.65316-2.30608-13.65949-3.42316-20.7-3.3h-90.00001c-7.07594.06911-14.08392,1.38949-20.7,3.9-4.77101,1.70481-9.12456,4.4057-12.77126,7.92304-3.64659,3.51734-6.50279,7.7705-8.37874,12.47696-2.17038,6.6824-3.23443,13.67443-3.15,20.7v90.00001c.15696,7.06708,1.47443,14.06076,3.9,20.7,1.78595,4.84557,4.60178,9.24557,8.25317,12.89621,3.65152,3.65189,8.05165,6.46836,12.89683,8.25443,6.40203,2.34557,13.1357,3.66203,19.95,3.89874h90.00001c7.07594-.06836,14.08353-1.38861,20.7-3.89874,4.84557-1.78607,9.24557-4.60253,12.89621-8.25443,3.65189-3.65064,6.46836-8.05063,8.25443-12.89621,2.51013-6.61646,3.83038-13.62405,3.89874-20.7v-90.00001c-.00253-7.08241-1.32406-14.10214-3.89874-20.7v.15ZM298.60008,357.20605c-7.51773,0-14.96202-1.48354-21.90506-4.36455-6.94354-2.88101-13.25038-7.10507-18.55924-12.42784-5.30886-5.32279-9.51532-11.64052-12.37848-18.59115-2.86329-6.95063-4.32697-14.39872-4.30722-21.91645,0-11.33924,3.36443-22.42405,9.66734-31.84975,6.30279-9.42608,15.26076-16.77025,25.73962-21.10278,10.47848-4.3324,22.0076-5.45836,33.12658-3.23519,11.11898,2.22303,21.32912,7.69532,29.33672,15.7238,8.00758,8.02861,13.45315,18.25253,15.64683,29.37784,2.19367,11.12405,1.03798,22.65064-3.32151,33.11772-4.36077,10.46836-11.72785,19.40632-21.17089,25.68481-9.44177,6.27849-20.53544,9.61265-31.87468,9.58354ZM358.60008,253.85605c-3.31645-.35101-6.3848-1.91671-8.61519-4.39544-2.23037-2.47873-3.46328-5.69519-3.46328-9.02949s1.23291-6.55089,3.46328-9.02962c2.23039-2.47874,5.29874-4.04443,8.61519-4.39544,3.31647.35101,6.38482,1.91671,8.61519,4.39544,2.23039,2.47873,3.4633,5.69519,3.4633,9.02962s-1.23291,6.55076-3.4633,9.02949c-2.23037,2.47873-5.29872,4.04443-8.61519,4.39544Z" fill="#fb6fc6"/></g><rect x="99" y="700" width="100" height="100" fill="#fca8a3"/><rect x="199" y="500" width="100" height="100" fill="#fcc492"/><rect x="299" y="500" width="100" height="100" fill="#fcc492"/><rect x="99" y="600" width="100" height="100" fill="#fcb69a"/><rect x="199" y="600" width="100" height="100" fill="#fcb69a"/></g></svg>