<svg width="77" height="86" viewBox="0 0 77 86" fill="none" xmlns="http://www.w3.org/2000/svg">
<circle cx="46" cy="55" r="31" fill="#192A51"/>
<circle cx="35.5" cy="35.5" r="33" fill="#FB6FC6" stroke="black" stroke-width="5"/>
<g clip-path="url(#clip0_279_57)">
<path d="M35 29.536C34.1171 29.536 33.254 29.7978 32.5199 30.2883C31.7858 30.7788 31.2137 31.476 30.8758 32.2917C30.5379 33.1074 30.4495 34.005 30.6218 34.8709C30.794 35.7368 31.2192 36.5322 31.8435 37.1565C32.4678 37.7808 33.2632 38.206 34.1291 38.3782C34.995 38.5505 35.8926 38.4621 36.7083 38.1242C37.524 37.7863 38.2212 37.2142 38.7117 36.4801C39.2022 35.746 39.464 34.8829 39.464 34C39.464 33.4138 39.3485 32.8333 39.1242 32.2917C38.8999 31.7501 38.571 31.258 38.1565 30.8435C37.742 30.429 37.2499 30.1001 36.7083 29.8758C36.1667 29.6515 35.5862 29.536 35 29.536ZM52.874 25.126C52.8657 23.7359 52.6097 22.3583 52.118 21.058C51.7567 20.1063 51.1977 19.242 50.4779 18.5221C49.758 17.8023 48.8937 17.2433 47.942 16.882C46.6417 16.3903 45.2641 16.1343 43.874 16.126C41.552 16 40.868 16 35 16C29.132 16 28.448 16 26.126 16.126C24.7359 16.1343 23.3583 16.3903 22.058 16.882C21.1063 17.2433 20.242 17.8023 19.5221 18.5221C18.8023 19.242 18.2433 20.1063 17.882 21.058C17.3903 22.3583 17.1343 23.7359 17.126 25.126C17 27.448 17 28.132 17 34C17 39.868 17 40.552 17.126 42.874C17.1468 44.2688 17.4023 45.6501 17.882 46.96C18.2397 47.9084 18.7985 48.7681 19.52 49.48C20.2371 50.2037 21.1032 50.7626 22.058 51.118C23.3583 51.6097 24.7359 51.8657 26.126 51.874C28.448 52 29.132 52 35 52C40.868 52 41.552 52 43.874 51.874C45.2641 51.8657 46.6417 51.6097 47.942 51.118C48.8968 50.7626 49.7629 50.2037 50.48 49.48C51.2015 48.7681 51.7603 47.9084 52.118 46.96C52.6081 45.653 52.864 44.2698 52.874 42.874C53 40.552 53 39.868 53 34C53 28.132 53 27.448 52.874 25.126ZM48.302 39.526C48.2452 40.6369 48.0081 41.7312 47.6 42.766C47.2506 43.6294 46.7311 44.4138 46.0724 45.0724C45.4138 45.7311 44.6294 46.2506 43.766 46.6C42.7214 46.9854 41.621 47.1982 40.508 47.23H29.492C28.379 47.1982 27.2786 46.9854 26.234 46.6C25.3411 46.2689 24.5349 45.7396 23.876 45.052C23.2233 44.4066 22.7196 43.6264 22.4 42.766C22.0143 41.7221 21.8074 40.6207 21.788 39.508V28.492C21.8074 27.3793 22.0143 26.2779 22.4 25.234C22.7311 24.3411 23.2604 23.5349 23.948 22.876C24.5969 22.2278 25.3761 21.7247 26.234 21.4C27.2786 21.0146 28.379 20.8018 29.492 20.77H40.508C41.621 20.8018 42.7214 21.0146 43.766 21.4C44.6589 21.7311 45.4651 22.2604 46.124 22.948C46.7767 23.5934 47.2804 24.3736 47.6 25.234C47.9854 26.2786 48.1982 27.379 48.23 28.492V34C48.23 37.708 48.356 38.086 48.302 39.508V39.526ZM45.422 26.134C45.2077 25.5526 44.8698 25.0246 44.4316 24.5864C43.9934 24.1482 43.4654 23.8103 42.884 23.596C42.0856 23.3193 41.2448 23.1852 40.4 23.2H29.6C28.7509 23.2083 27.9099 23.3667 27.116 23.668C26.5435 23.8726 26.021 24.1967 25.5835 24.6188C25.1459 25.0408 24.8031 25.5512 24.578 26.116C24.3175 26.9179 24.1899 27.7569 24.2 28.6V39.4C24.2188 40.2481 24.3769 41.0872 24.668 41.884C24.8823 42.4654 25.2202 42.9934 25.6584 43.4316C26.0966 43.8698 26.6246 44.2077 27.206 44.422C27.9742 44.7036 28.7823 44.8615 29.6 44.89H40.4C41.2491 44.8817 42.0901 44.7233 42.884 44.422C43.4654 44.2077 43.9934 43.8698 44.4316 43.4316C44.8698 42.9934 45.2077 42.4654 45.422 41.884C45.7233 41.0901 45.8817 40.2491 45.89 39.4V28.6C45.8897 27.7501 45.731 26.9077 45.422 26.116V26.134ZM35 40.876C34.0979 40.876 33.2046 40.698 32.3714 40.3522C31.5382 40.0065 30.7813 39.4997 30.1443 38.861C29.5072 38.2222 29.0024 37.4641 28.6589 36.63C28.3153 35.7958 28.1396 34.9021 28.142 34C28.142 32.6393 28.5457 31.3092 29.3021 30.178C30.0584 29.0469 31.1334 28.1656 32.3908 27.6457C33.6483 27.1258 35.0318 26.9907 36.3661 27.2575C37.7004 27.5242 38.9255 28.1809 39.8864 29.1443C40.8473 30.1078 41.5008 31.3346 41.7641 32.6696C42.0273 34.0046 41.8886 35.3877 41.3654 36.6438C40.8422 37.8999 39.9581 38.9726 38.825 39.7259C37.6919 40.4793 36.3607 40.8796 35 40.876ZM42.2 28.474C41.8021 28.4319 41.4339 28.244 41.1662 27.9465C40.8986 27.6491 40.7505 27.2631 40.7505 26.863C40.7505 26.4629 40.8986 26.0769 41.1662 25.7795C41.4339 25.482 41.8021 25.2941 42.2 25.252C42.5979 25.2941 42.9661 25.482 43.2338 25.7795C43.5014 26.0769 43.6495 26.4629 43.6495 26.863C43.6495 27.2631 43.5014 27.6491 43.2338 27.9465C42.9661 28.244 42.5979 28.4319 42.2 28.474Z" fill="black"/>
</g>
<defs>
<clipPath id="clip0_279_57">
<rect width="36" height="36" fill="white" transform="translate(17 16)"/>
</clipPath>
</defs>
</svg>
