<svg width="52" height="58" viewBox="0 0 52 58" fill="none" xmlns="http://www.w3.org/2000/svg">
<circle cx="30.5617" cy="36.5411" r="20.5959" fill="#76838E"/>
<circle cx="23.5856" cy="23.5856" r="22.0856" fill="#B1CCE4" stroke="#7493AF" stroke-width="3"/>
<g clip-path="url(#clip0_130_50)">
<path d="M23.2533 19.6232C22.6668 19.6232 22.0933 19.7972 21.6056 20.1231C21.1179 20.4489 20.7378 20.9121 20.5133 21.4541C20.2888 21.996 20.2301 22.5923 20.3445 23.1676C20.459 23.7429 20.7414 24.2714 21.1562 24.6862C21.571 25.101 22.0994 25.3834 22.6747 25.4979C23.25 25.6123 23.8464 25.5536 24.3883 25.3291C24.9302 25.1046 25.3934 24.7245 25.7193 24.2367C26.0452 23.749 26.2191 23.1756 26.2191 22.589C26.2191 22.1996 26.1424 21.8139 25.9934 21.4541C25.8443 21.0942 25.6259 20.7673 25.3505 20.4919C25.0751 20.2165 24.7481 19.998 24.3883 19.849C24.0285 19.6999 23.6428 19.6232 23.2533 19.6232ZM35.1285 16.6933C35.123 15.7697 34.9529 14.8545 34.6263 13.9906C34.3862 13.3583 34.0148 12.784 33.5366 12.3058C33.0583 11.8275 32.4841 11.4561 31.8518 11.2161C30.9879 10.8895 30.0727 10.7194 29.1491 10.7138C27.6064 10.6301 27.1519 10.6301 23.2533 10.6301C19.3547 10.6301 18.9003 10.6301 17.3576 10.7138C16.434 10.7194 15.5188 10.8895 14.6549 11.2161C14.0226 11.4561 13.4483 11.8275 12.9701 12.3058C12.4919 12.784 12.1205 13.3583 11.8804 13.9906C11.5538 14.8545 11.3837 15.7697 11.3781 16.6933C11.2944 18.236 11.2944 18.6904 11.2944 22.589C11.2944 26.4876 11.2944 26.9421 11.3781 28.4848C11.3919 29.4114 11.5617 30.3292 11.8804 31.1994C12.118 31.8295 12.4893 32.4007 12.9687 32.8737C13.4451 33.3545 14.0205 33.7259 14.6549 33.9619C15.5188 34.2886 16.434 34.4587 17.3576 34.4642C18.9003 34.5479 19.3547 34.5479 23.2533 34.5479C27.1519 34.5479 27.6064 34.5479 29.1491 34.4642C30.0727 34.4587 30.9879 34.2886 31.8518 33.9619C32.4862 33.7259 33.0616 33.3545 33.538 32.8737C34.0174 32.4007 34.3886 31.8295 34.6263 31.1994C34.9519 30.3311 35.1219 29.4121 35.1285 28.4848C35.2122 26.9421 35.2122 26.4876 35.2122 22.589C35.2122 18.6904 35.2122 18.236 35.1285 16.6933ZM32.091 26.2604C32.0532 26.9985 31.8957 27.7255 31.6246 28.413C31.3924 28.9867 31.0473 29.5078 30.6097 29.9454C30.1721 30.383 29.651 30.7281 29.0773 30.9603C28.3833 31.2163 27.6522 31.3577 26.9128 31.3788H19.5939C18.8545 31.3577 18.1234 31.2163 17.4294 30.9603C16.8361 30.7403 16.3005 30.3886 15.8627 29.9318C15.4291 29.503 15.0944 28.9847 14.8821 28.413C14.6259 27.7195 14.4884 26.9877 14.4755 26.2485V18.9296C14.4884 18.1904 14.6259 17.4586 14.8821 16.765C15.1021 16.1718 15.4537 15.6362 15.9106 15.1984C16.3417 14.7677 16.8594 14.4335 17.4294 14.2178C18.1234 13.9617 18.8545 13.8204 19.5939 13.7992H26.9128C27.6522 13.8204 28.3833 13.9617 29.0773 14.2178C29.6706 14.4378 30.2062 14.7894 30.6439 15.2463C31.0776 15.675 31.4122 16.1934 31.6246 16.765C31.8806 17.4591 32.022 18.1902 32.0431 18.9296V22.589C32.0431 25.0526 32.1268 25.3037 32.091 26.2485V26.2604ZM30.1775 17.363C30.0352 16.9767 29.8107 16.6259 29.5195 16.3348C29.2284 16.0437 28.8776 15.8192 28.4913 15.6768C27.9609 15.4929 27.4023 15.4039 26.841 15.4137H19.6657C19.1015 15.4192 18.5428 15.5245 18.0153 15.7246C17.635 15.8605 17.2879 16.0759 16.9971 16.3563C16.7064 16.6367 16.4787 16.9758 16.3291 17.351C16.1561 17.8838 16.0713 18.4412 16.078 19.0014V26.1767C16.0905 26.7401 16.1956 27.2977 16.3889 27.827C16.5313 28.2133 16.7558 28.5641 17.0469 28.8552C17.338 29.1464 17.6888 29.3709 18.0751 29.5132C18.5855 29.7003 19.1224 29.8052 19.6657 29.8242H26.841C27.4052 29.8187 27.9639 29.7134 28.4913 29.5132C28.8776 29.3709 29.2284 29.1464 29.5195 28.8552C29.8107 28.5641 30.0352 28.2133 30.1775 27.827C30.3777 27.2996 30.483 26.7408 30.4885 26.1767V19.0014C30.4883 18.4367 30.3828 17.877 30.1775 17.351V17.363ZM23.2533 27.1573C22.654 27.1573 22.0605 27.0391 21.5069 26.8094C20.9534 26.5796 20.4505 26.2429 20.0273 25.8186C19.604 25.3942 19.2687 24.8905 19.0404 24.3363C18.8121 23.7822 18.6954 23.1884 18.697 22.589C18.697 21.685 18.9652 20.8013 19.4677 20.0498C19.9702 19.2983 20.6844 18.7127 21.5199 18.3673C22.3553 18.0219 23.2744 17.9322 24.1609 18.1094C25.0474 18.2866 25.8614 18.7229 26.4998 19.363C27.1382 20.0031 27.5724 20.8182 27.7473 21.7052C27.9222 22.5921 27.83 23.511 27.4824 24.3455C27.1348 25.1801 26.5474 25.8927 25.7946 26.3933C25.0418 26.8938 24.1574 27.1597 23.2533 27.1573ZM28.0369 18.9176C27.7725 18.8897 27.5279 18.7648 27.3501 18.5672C27.1723 18.3696 27.0739 18.1132 27.0739 17.8473C27.0739 17.5815 27.1723 17.3251 27.3501 17.1274C27.5279 16.9298 27.7725 16.805 28.0369 16.777C28.3013 16.805 28.5459 16.9298 28.7237 17.1274C28.9015 17.3251 28.9999 17.5815 28.9999 17.8473C28.9999 18.1132 28.9015 18.3696 28.7237 18.5672C28.5459 18.7648 28.3013 18.8897 28.0369 18.9176Z" fill="#76838E"/>
</g>
<defs>
<clipPath id="clip0_130_50">
<rect width="23.9178" height="23.9178" fill="white" transform="translate(11.2944 10.6301)"/>
</clipPath>
</defs>
</svg>

