<?xml version="1.0" encoding="UTF-8"?><svg xmlns="http://www.w3.org/2000/svg" viewBox="0 0 618.151 756.142"><g id="b"><path id="c" d="M449.081,650.142c-.5,2.411-1.593,9.092-3.999,16.996,0,.003-.001.004-.001.004-1.105,4.082-1.524,5.217-2,8-.785,4.582-.555,6.799-1.648,11.87-.477,2.214-.457,1.493-1.352,5.13,0,0-2.292,9.307-2.839,16.845-.113,1.555-.161,3.155-.161,3.155-.064,2.14-.096,3.209,0,4,.16,1.321.374,1.198,2,6l1,3c.667,2,1,3,1,3,0,0,3.795.906,7,3,1.388.906,2.984,1.977,4,4,.66,1.314.811,2.506,1,4,.174,1.372.118,2.6,0,5-.226,4.598-.591,5.395-1,6-.502.744-1.108,1.252-2,2-.663.556-1.627,1.365-3,2-2.195,1.015-4.187,1.011-5,1-1.831-.024-3.241-.458-5-1-1.044-.322-3-1-3-1,0,0-1.848.628-3.173.76-.954.095-1.042-.127-3.827-.76-3.079-.701-5.121-.919-6-1-.2-.018-.685-.062-1.302-.098-3.941-.232-4.506.386-6.698.098-1.597-.21-3.614-.475-5-2-.814-.895-1.103-1.886-2-2-.696-.088-1.042.442-2,1-1.237.72-2.491.813-5,1-1.356.101-2.551.19-4,0-.733-.096-4.299-.564-7-3-3.574-3.224-3.69-8.145-5-8-.56.062-.593.967-2,2-.815.598-1.563.852-2,1-1.873.635-3.227.191-6,0-4.459-.307-6.06.492-8-1-.262-.202-.639-.496-1-1-.335-.468-1.316-2.036-.042-7.904.271-1.248.242-.84,1.042-4.096.768-3.124.727-3.225,1-4,.367-1.042,1.127-3.198,3-5,2.099-2.02,4.618-2.653,6-3,1.726-.434,2.453-.297,5-1,1.319-.364,2.182-.602,3-1,1.147-.557,2.89-1.761,5-6,2.342-4.706,2.971-8.801,3-9,1.103-7.592.334-13.108,0-21-.465-10.982.584-10.736,0-23-.272-5.715-.446-4.651-1-14-.476-8.044-.449-10.558-1-19-.388-5.952-.591-8.994-1.018-12.25-.78-5.937-1.836-10.741-2.594-14.148-.5-2.249-1.214-5.437-2.388-9.602-1.508-5.349-1.916-5.713-3-10-1.103-4.362-1.667-7.885-2-10-.347-2.204-.565-4.136-1-8-.25-2.219-1.317-11.692-1-14,.015-.11.074-.499,0-1-.166-1.129-.861-1.858-1-2-.349-.355-1.43-1.305-2-1-.648.347-.147,2.057,0,4,.14,1.843-.24,3.562-1,7-.623,2.818-1.396,5.45-3,10-.736,2.088-1.882,5.246-3.951,10.441-3.081,7.735-3.565,8.329-5.049,12.559-.893,2.546-2.025,5.803-3,10-.431,1.853-1.751,7.849-2,16-.131,4.281.246,8.854,1,18,.588,7.131.796,7.567,1,12,.342,7.419.065,12.817,0,14-.168,3.073-.269,2.826-1,11-.69,7.717-.581,7.717-1,12-.773,7.898-1.079,7.21-2,16,0,0-.997,9.524-1,15v5c0,1,0,2,0,3,0,2.974.001,2.932,0,3-.063,3.49-.094,5.236-1,6-.917.774-1.687.133-3,1-1.253.827-1.587,2.094-2,3-.917,2.014-2.612,3.009-6,5-6.202,3.644-12.466,4.012-15.192,4.143-2.618.125-1.988-.183-6.808-.143-6.116.051-7.331.549-9.191-.51-.686-.391-1.911-1.25-3.809-1.49-.921-.116-1.601-.036-2,0-2.918.265-4.409-.586-8-1-2.771-.32-4.886-.16-7,0-1.885.143-2.396.301-7,1-3.665.557-3.056.413-7,1-6.778,1.009-7.759,1.311-10,1-3.115-.433-5.916-1.67-6-3-.026-.413.212-.797,0-1-.369-.354-1.354.561-3,1-.909.242-2.714.833-4,0-.534-.346-.353-.528-1-1-.863-.63-1.411-.47-3-1-1.116-.372-1.674-.559-2-1-.541-.732-.268-1.721,0-3,.689-3.288,1.835-5.664,2-6,1.001-2.041,1.677-3.421,3-5,3.182-3.799,7.263-5.359,9-6,1.385-.511,1.499-.399,3-1,3.479-1.393,3.758-2.353,6-3,2.648-.764,5.023-.223,6,0,2.211.504,2.277,1.128,5,2,1.565.501,3.515,1.126,6,1,3.052-.155,5.393-1.366,7.189-2.294.888-.459,1.529-.875,2.811-1.706,4.518-2.928,4.094-3.38,9-7,.961-.709,1.568-1.127,2-2,.778-1.571.378-3.382,0-5-.403-1.725-.971-2.938-1-3-3.204-6.846-9.766-29.075-10.935-33.159-.234-.819-.629-2.227-1.065-3.841-1.028-3.809-1.543-5.713-2-8-.233-1.167-.493-3.019-1.004-6.675-.242-1.734-.811-5.82-.996-7.325-.759-6.162-.01-9.126,0-17,.004-3.337-.331-7.891-1-17-.588-8-.828-9.167-1-14-.189-5.298-.094-9.299,0-13,.135-5.298.262-10.31,1-17,.126-1.145.762-6.797,2.137-14.022.508-2.67,1.03-5.102,1.863-8.978.905-4.211,1.395-6.493,2-9,.444-1.84,1.835-7.472,4-14,3.247-9.791,3.976-8.759,6-16,0,0,2.723-9.74,1-16-.408-1.484-1-3-1-3-1.008-2.584-2.065-4.278-2.61-5.22-1.322-2.287-2.011-4.451-3.39-8.78-.968-3.04-1.887-5.926-2.432-9.804-.434-3.09-.153-3.416-.568-10.196-.246-4.014-.371-4.342-.602-7.755-.238-3.516-.289-5.884-.398-14.245-.154-11.855-.102-10.953-.177-14.243-.203-8.931-.304-13.397-.823-15.757-.915-4.159-2.3-7.542-3-13-.3-2.343-.464-3.986-.352-6.286.135-2.76.557-3.395.352-5.714-.092-1.042-.395-2.361-1-5-.572-2.496-.858-3.744-1-4-2.031-3.671-9.686-3.156-12-3-3.802.256-6.588,1.188-12,3-4.04,1.352-4.366,1.719-8,3-1.456.513-4.549,1.563-15,4-7.991,1.863-11.986,2.795-14.837,3.217-7.906,1.169-8.813.381-16.163,1.783-8.214,1.568-10,2-10,2-1.237.299-2.783.695-5,1-4.09.563-6.06.215-7,0-.628-.144-1.418-.429-3-1-2.448-.884-3.821-1.522-5-2-2.954-1.198-5.171-1.583-7-2-7.389-1.687-20.19-6.586-30.175-12.358-2.992-1.73-4.955-3.089-6.825-4.642-2.478-2.057-3.652-3.505-7-7-.071-.074-2.381-2.383-7-7-15.902-15.894-16.718-16.011-22-22-4.862-5.513-5.109-6.477-11-13-5.907-6.541-6.361-6.348-8-9-1.369-2.215-3.372-3.969-5-6-.38-.474-1.413-1.77-3-2-.506-.073-.898-.014-1,0-4.168.56-11-4-11-4-2.863-2.045-6.619-4.756-11-8-1.756-1.3-4.499-3.332-8-6-8.378-6.383-8.467-6.779-13-10-5.691-4.044-8.536-6.066-11-7-.849-.322-3.229-1.177-6-3-2.08-1.369-3.406-2.266-4.245-4-.123-.253-1.813-3.898.245-7,1.78-2.683,5.015-2.926,6-3,2.349-.176,4.222.647,5,1,1.946.882,2.244,1.705,5,3,1.165.547,2.873,1.228,3,1,.076-.137-.461-.57-1-1-1.313-1.047-2.431-1.67-3-2-.081-.047-1.054-.698-3-2-3.873-2.591-4.316-3.257-7-5-1.63-1.059-3.42-2.039-7-4-2.18-1.194-3.84-2.057-5-4-.861-1.442-.977-2.693-1-3-.142-1.897.62-3.315,1-4,.318-.573,1.845-3.165,5-4,1.873-.496,3.433-.137,4,0,1.244.301,2.162.867,4,2,1.589.979,1.636,1.176,3,2,1.62.979,2.233,1.113,4,2,2.344,1.177,4.024,2.327,5,3,2.212,1.526,3.786,2.919,5,4,1.594,1.42,3.413,2.573,5,4,.59.531,1.305,1.198,2,1,.706-.201,1.227-1.245,1-2-.174-.579-.751-.87-1-1-1.477-.773-2.594-2.106-4-3-1.575-1.002-2.717-2.001-5-4-2.389-2.091-2.149-2.272-5-5-2.618-2.505-4.359-4.171-7-6-2.395-1.659-3.034-1.723-4-3-1.114-1.473-1.409-2.982-2-6-.849-4.339-.212-5.617,0-6,.636-1.151,1.586-1.747,2-2,3.237-1.977,7.323-.281,8,0,2.396.995,2.968,2.165,6,5,4.022,3.761,4.359,2.958,9,7,3.04,2.648,5.4,4.703,8,8,2.982,3.782,4.678,7.167,7,7,.178-.013,1.478-.106,2-1,.389-.666.162-1.461,0-2-.447-1.489-1.405-2.419-2-3-1.348-1.318-2.62-2.715-4-4-.56-.521-1.706-1.681-4-4-4.375-4.424-4.528-5.31-9-10-2.978-3.123-4.466-4.684-6-6-2.892-2.482-3.581-3.168-5-5-1.734-2.239-2.265-3.657-2-5,.193-.974.763-1.699,1-2,1.031-1.31,2.365-1.784,3-2,2.18-.742,4.107-.244,5,0,1.654.451,2.865,1.251,4,2,1.047.691,1.592,1.204,3,2,.91.514,1.546.788,2,1,3.149,1.469,5.603,3.719,7,5,.102.093,1.068,1.062,3,3,2.713,2.721,2.639,2.666,3,3,2.2,2.035,2.915,2.192,5,4,1.005.872,1.912,1.847,3.726,3.796,1.367,1.47,3.419,3.738,6.274,7.204,2.91,3.531,2.365,3.1,4,5,3.197,3.716,6.079,6.293,8,8,.802.713.259.207,6,5,5.44,4.541,6.135,5.168,7,6,1.137,1.094,1.126,1.157,5,5,0,0,2.067,2.051,5,4,.558.371,1.151.74,2,1,.396.121,2.065.592,4,0,.796-.243,1.025-.479,2-1,.973-.519,3.268-1.631,6-2,1.517-.205,2.651-.111,4,0,1.998.165,3.357.277,5,1,2.323,1.022,3.654,2.578,4,3,.671.819,1.695,2.068,2,4,.409,2.588-.758,4.6-1,5-1.201,1.98-2.989,2.732-6,4-2.931,1.234-5.635,1.773-7,2-3.238.539-5.4.398-7,2-.291.292-1.002,1.023-1,2,.002.868.566,1.495,1,2,1.086,1.264,1.895,2.752,3,4,2.205,2.489,2.164,2.86,4,5,1.424,1.661,2.502,2.667,10,9,3.573,3.018,5.373,4.537,6,5,2.835,2.093,5.798,4.282,10,6,2.755,1.126,2.746.703,10,3,1.88.595,3.661,1.159,6,2,1.466.527,6.109,2.226,12,5,1.385.652,3.394,1.602,6,3,3.186,1.709,3.776,2.217,7,4,3.761,2.08,5.641,3.12,8,4,0,0,0,0,0,0,1.052.394,4.338,1.727,9,2,3.711.218,6.478-.318,10-1,3.324-.644,3.276-.908,8-2,5.073-1.172,5.371-.923,10-2,4.995-1.162,7.492-1.743,10-3,2.918-1.462,2.739-2.027,8-5,3.256-1.84,5.123-2.64,6-3,2.105-.865,3.711-1.336,6-2,1.94-.563,4.578-1.27,8-2,1.421-.303,5.907-1.236,12-2,5.457-.684,5.28-.365,9-1,2.409-.411,4.077-.817,7-1,2.268-.142,3.984-.069,5,0,1.602.108,1.897.233,3.941.476,3.387.402,6.051.472,8.059.524,2.356.062,3.534.092,5,0,2.11-.133,3.74-.422,7-1,2.663-.472,1.773-.403,5-1,2.242-.415,2.913-.493,4-1,.26-.121,1.885-.893,3-2,.101-.1,1-1,1-1l-1-3-1-3c-1.002-3.274-.545-6.801,0-11,.032-.245.143-1.211.169-2.52.016-.822.034-1.985-.169-3.48-.216-1.59-.582-2.719-1-4-.574-1.759-.94-2.354-1.609-4.604-.204-.685-.306-1.027-.391-1.396-.323-1.404-.855-3.72,0-6,.201-.536.011-.395,1-2,.421-.684,1.126-1.828,1-3-.095-.883-.709-.847-1-2-.08-.318-.236-1.106,0-2,.179-.68,1.481-2.866,1-2,0,0-.233-2.979,0-6,.158-2.052.273-3.386,1-5,.605-1.343,1.327-2.201,2-3,.979-1.163,2.513-2.984,5-4,1.295-.529,1.575-.319,3-1,1.211-.578,1.651-1.036,3-2,2.157-1.541,3.985-2.479,5-3,.449-.231,2.239-1.137,4.024-1.766,2.42-.853,4.382-1.036,8.976-1.234,6.949-.299,10.475-.439,13,0,1.415.246,3.931.7,7,2,5.922,2.51,9.315,6.23,10,7,2.028,2.28,3.104,4.31,4,6,.699,1.318,2.937,5.736,4,12,.632,3.723.161,4.052,1,8,.686,3.227,1.614,5.9,2,7,.811,2.31,1.565,4.02,2,5,.254.573,1.315,2.944,3,6,.806,1.462,1.67,3.02,3,5,1.898,2.824,1.637,1.881,3,4,.378.588,1.514,2.395,3,3,.327.133.658.203.658.203,1.101.232,2.011-.089,2.342-.203,6.979-2.396,14.149-4.259,20.999-7,0,0,0,0,0,0,1.734-.734,2.898-1.192,3.854-1.545.591-.218,1.898-.706,3.594-1.267,1.708-.565,3.624-1.147,7.552-2.188,4.334-1.149,6.501-1.723,8-2,2.583-.477,2.214-.229,8-1,4.703-.627,5.435-.855,8-1,1.129-.064,3.256-.177,6,0,4.494.289,5.235,1.008,8,1,2.171-.007,2.638-.453,8-2,6.114-1.764,9.171-2.647,12-3,4.084-.51,6.297-.187,9-2,1.191-.799,2.034-1.715,3-3,3.679-4.894,4.343-8.75,7-15,1.558-3.664,1.333-2.346,5-10,1.843-3.847,2.976-6.426,5-11,5.573-12.596,4.041-8.997,8-18,4.847-11.023,7.285-16.584,8-19,1.318-4.455,1.885-9.101,3.019-18.393.06-.491.318-3.118.344-6.572.006-.836.009-3.121-.364-6.035-.331-2.586-.667-3.399-1-4-.305-.551-1.023-1.677-3-3-2.377-1.591-4.179-1.865-8-3,0,0-2.867-.851-6-2-3.702-1.357-6.151-2.773-10-5-2.55-1.475-6.948-4.042-12.177-8.177-5.381-4.256-4.067-4.182-7.823-6.823-6.331-4.452-10.307-4.831-12-9-1.009-2.483-1-5-1-5,.005-1.305.216-1.699.627-5.036.278-2.259.417-3.389.373-3.964-.168-2.233-1.012-2.536-2.239-6.09-1.387-4.018-.934-5.447-.761-5.91.18-.482.663-1.545,1.752-2.299,1.62-1.122,3.506-.82,4.248-.701.173.028.859.144,2.036.648,2.302.985,3.965,2.373,4.964,3.352.86.842,2.076,2.054,3,4,.458.965.659,1.72,1,3,.92,3.457.42,3.811,1,5,.744,1.524,2.839,2.37,7,4,3.008,1.178,4.512,1.768,6,2,1.402.219,5.094.747,9-1,1.364-.61,2.961-1.324,4-3,1.019-1.642.95-3.318.839-5.328-.476-8.584-.963-9.313-.839-12.672.072-1.939.381-3.959,1-8,.435-2.841.653-4.262,1-6,.648-3.244.993-4.076,1-6,.006-1.644-.245-1.62-.597-4.632-.362-3.093-.386-5.581-.403-7.368-.038-3.893-.056-5.84,0-6,.052-.149.258-.743,0-1-.232-.231-.721-.074-1,0-.017.005,0,0-3,0-4.961,0-4.844.013-5,0-.734-.059-3.387-.304-6-2-2.968-1.926-4.539-4.85-5-7-.132-.616-.353-1.706,0-3,.095-.348.333-1.186,1-2,.495-.603.726-.584,1-1,.565-.858.151-1.802,0-3-.023-.185-.335-2.912,1-5,.142-.222,1.178-1.793,3.125-2.412,1.73-.55,2.591.157,5.875.412,1.84.143,3.233.051,4,0,4.598-.305,5.379-1.56,8-1,1.707.365,2.915,1.227,4,2,1.533,1.093,2.124,1.971,4,4,0,0,2.022,2.187,4,4,2.711,2.484,5.785,4.476,11.933,8.461.321.208,1.116.721,2.067,1.539,1.027.883,1.472,1.463,2,2,1.52,1.547,2.546,1.538,5,3,.549.327,1.7,1.218,4,3,4.629,3.586,5.515,4.485,6,5,1.403,1.488,2.283,2.421,3,4,.967,2.13.993,4.016,1,6,.006,1.845-.329,3.564-1,7-.712,3.646-1.087,5.5-2,7-.463.76-1.211,1.798-1,2,.179.172.864-.447,2-1,1.577-.768,2.98-.902,4-1,.933-.089,2.537-.243,4.168.243,1.749.521,2.547,1.484,4.832,3.757,5.033,5.007,5.333,4.486,6,6,1.578,3.583.255,7.319,0,8-.34.907-.421.744-5,7-1.092,1.492-2.107,2.897-3,5-.592,1.394-1.047,2.5-1,4,.011.341.057,1.006,1,4,.537,1.704.981,2.948,1,3,1.037,2.901,1.061,4.837,2,11,.448,2.94.853,5.193,1,6,.525,2.885.84,4.26,2,10,.66,3.267.99,4.9,1,5,.393,3.849-.391,5.922-2,14-.82,4.118-.559,3.289-1.156,6.163-2.092,10.067-3.427,11.225-4.844,18.837-.974,5.228-.466,5.341-1.723,11.958-.916,4.823-1.669,7.432-2.277,10.042-1.818,7.806-.796,9.347-2,21-.447,4.33-1.631,11.22-4,25-1.065,6.197-1.606,9.33-2,11-.747,3.166-2.741,10.905-8,22-6.291,13.272-9.436,19.908-16,26-6.359,5.902-13.003,8.951-21.588,12.89-2.654,1.218-8.534,3.795-16.412,6.11-8.644,2.54-15.644,3.574-19,4-5.23.664-10.715,1.36-18,1-9.859-.487-12.988-2.412-18,0-3.036,1.461-5.018,3.673-8,7-1.898,2.118-3.881,4.694-7,10-5.012,8.529-5.017,10.6-10.491,20.499-.347.627-2.068,3.585-5.509,9.501-5.419,9.314-5.685,9.272-7,12-1.531,3.175-3.924,8.234-5,15-.227,1.429-.54,3.841-.363,11.54.2,8.69.781,13.554,1.363,21.46.807,10.958.271,9.503,1,19,.873,11.385,1.31,17.078,3,24,2.296,9.406,6,19,6,19,1.219,3.157,2.918,7.239,4.041,13.247.281,1.505.273,1.773.959,7.753,1.462,12.746,1.768,13.849,2,18,.214,3.829-.079,2.304,0,12,.103,12.566.59,14.553,0,21-.394,4.296-.718,4.595-1,9-.292,4.571-.11,6.875,0,13,.136,7.576-.101,6.344,0,16,.108,10.32.176,11.086.151,14.816,0,0-.111,16.697-4.151,36.184Z" fill="#333"/><path id="d" d="M240.081,324.142c-5.536,4.459-10.15.949-22,3-17.519,3.032-26.766,14.052-30,11-3.029-2.857,4.804-12.778,1-17-2.344-2.602-6.807-.483-15,0-11.593.683-21.472-2.45-27-5-7.385-3.406-11.59-7.938-20-17-3.381-3.643-12.208-13.619-17-21-2.085-3.211-3.472-6.033-7-9-1.654-1.392-2.472-1.715-3-3-.872-2.122.748-5.113,4-11,1.509-2.732,2.736-4.637,5-6,1.467-.883,2.862-1.233,3-1,.182.306-1.967,1.365-2,3-.019.938.667,1.651,1,2,3.745,3.927,7.037,8.293,11,12,4.047,3.786,6.046,5.702,6.46,6.103,2.577,2.497,3.54,3.52,4.695,4.489.102.086.914.739,1.846,1.408,4.553,3.268,9.696,5.201,12,6,3.097,1.075,2.517.605,7,2,1.532.477,4.549,1.423,11,4,6.689,2.672,10.034,4.009,12,5,7.212,3.636,7.585,5.267,14,8,2.98,1.27,5.979,2.58,10,3,4.198.439,6.602-.302,14-2,16.438-3.773,17.87-3.149,24-6,5.516-2.566,9.116-5.337,10-6,7.963-5.971,27.391-8.847,28-7,.629,1.909-20.403,4.12-29,20-4.825,8.912-1.965,15.138-8,20Z" fill="#4d4d4d"/><path d="M355.081,530.142c-2.766,4.788-6.615,11.622-11,20-4.454,8.511-6.625,12.877-8,17-3.925,11.768-3.159,22.949-3,25,.761,9.789,3.35,12.722,1,16-3.433,4.789-13.013,4.182-19,2-11.357-4.139-15.351-15.974-16-18,.908-2.564,2.209-6.736,3-12,2.121-14.114-2-18.914-1-34,.584-8.806,2.566-15.881,4-21,1.684-6.011,3.239-8.773,6-17,2.407-7.173,4.02-13.122,5-17,2.979,8.335,7.039,14.296,10,18,7.03,8.794,14.758,13.479,19,16,3.913,2.325,7.404,3.93,10,5Z" fill="#4d4d4d"/><path d="M453.081,598.142c-7.595-14.92-12.193-17.473-15-17-6.135,1.035-5.712,16.871-13,19-6.113,1.786-14.126-7.104-20-15-6.266-15.633-7.372-28.544-7-38,.748-19.012,7.848-33.605,2-38-3.023-2.272-8.071-.741-12,1,4.011-6.626,8.109-11.158,11-14,10.816-10.63,19.851-12.446,28-24,2.56-3.629,4.123-6.931,5-9,9.904,12.218,14.62,23.619,17,31,3.666,11.371,4.286,20.953,5,32,.742,11.469.329,21.781,0,30-.337,8.428-.753,11.723-1,21-.238,8.936-.129,16.233,0,21Z" fill="#4d4d4d"/><path d="M409.081,356.142c-5.501,4.9-12.828,13.049-14,24-1.58,14.764,9.543,20.457,8,34-1.627,14.278-16.194,27.298-32,31-20.273,4.748-35.973-7.379-38-9-6.677-6.893-9.584-13.336-11-18-3.049-10.043.279-13.603-3-26-2.548-9.632-4.41-9.052-6-18-2.035-11.457,1.053-14.358-2-20-4.985-9.214-18.336-10.931-18-12,.467-1.485,24.807,6.435,30-1,.961-1.376,1.519-3.634,4-5,2.636-1.451,4.454-.252,7-1,5.666-1.665,8.348-11.033,7-12-1.493-1.071-7.099,8.762-15,8-2.722-.263-3.561-1.575-6-1-3.486.822-3.868,3.996-8,6-2.806,1.361-5.51,1.126-7,1-10.25-.868-20.544-16.484-17-24,1.814-3.847,5.816-2.525,16-9,6.108-3.884,10.852-6.9,11-11,.164-4.552-5.384-9.172-13-12,18.153,4.227,33.695,5.107,45,5,6.359-.06,25.231-.41,43-6,3.841-1.208,7.292-2.501,10.407-3.814,2.671-1.126,4.861-2.149,6.786-3.121,6.813-3.437,8.683-4.963,12.807-7.065,2.964-1.511,3.18-1.288,14-5,10.617-3.642,11.302-4.164,20-7,5.936-1.936,9.937-3.102,15-4,2.472-.439,4.507-.691,7-1,5.672-.703,8.898-1.103,13-1,2.139.054,5.243.263,9,1-3.499.623-8.243,1.936-13,5-9.818,6.325-14.52,16.779-16,16-.994-.524,1.243-5.183,0-6-1.727-1.136-6.915,7.292-16,13-11.771,7.396-22.646,5.552-23,9-.322,3.136,8.759,3.865,16,13,.692.873,7.926,10.173,5,15-2.518,4.153-9.748.362-15,5-5.025,4.439-2.148,11.218-5,19-2.09,5.704-7.5,12.607-22,18Z" fill="#4d4d4d"/><path d="M392.081,340.142c-1.425-.141-3.922-.427-7-1-11.153-2.077-12.413-4.671-20-5-2.834-.123-4.932.141-8-1-1.217-.452-3.781-1.441-6-4-1.997-2.303-2.718-4.73-3-6v-5c5.212,6.127,9.794,7.693,13,8,6.862.658,10.051-4.201,18-3,5.393.815,6.235,3.401,10,3,5.79-.616,9.202-7.313,12-12,4.337-7.265,15.045-25.199,30-30,11.759-3.775,23.611,1.383,30,5-7.011,3.996-12.788,7.443-17,10-7.391,4.487-11.145,6.777-14,9-6.431,5.008-6.454,6.456-13,11-4.362,3.028-5.757,3.361-8,6-1.394,1.64-2.929,4.094-6,9-1.84,2.94-2.465,4.063-4,5-2.442,1.491-5.222,1.313-7,1Z" fill="#333"/><path d="M52.081,211.142c-.352.656-.752.897-1,1-1.539.641-3.849-1.541-5-3-.821-1.04-.978-1.415-2-3-.666-1.033-2.749-4.163-6-7-2.117-1.847-3.134-2.178-4-2-.96.197-1.052.654-2,1-2.71.988-4.709-2.408-8-2-2.32.288-3.743,2.275-4,2-.35-.375,3.324-2.951,3-6-.244-2.296-2.649-3.764-3-4-1.666-1.118-3.481-1.032-4-1-.935.057-1.689.43-3,1-.852.37-1.534.734-2,1-.154-.363-.89-2.203,0-4,.551-1.112,1.457-1.667,2-2,1.595-.977,3.185-1.034,4-1,3.147.132,4.94,1.11,6,2,.292.245,1.528,1.497,4,4,.726.736.792.805,1,1,1.572,1.475,2.856,2.243,4,3,.778.515,1.852,1.343,4,3,3.077,2.373,4.615,3.56,6,5,.819.852,2.409,2.505,4,5,1.267,1.985,1.99,3.676,4,5,.781.514,1.502.82,2,1Z" fill="#4d4d4d"/><path d="M567.081,168.142c-2.892,11.165-4.098,7.932-10,25-6.648,19.225-5.366,24.045-12,32-1.12,1.344-4.565,5.146-8,11-1.956,3.334-3.132,5.114-4,8-1.102,3.663-.627,5.118-2,8-1.516,3.183-3.473,4.298-5,6-2.289,2.549-4.412,7.301-3,17-4.959-14.154-3.507-21.187-1-25,.777-1.182,5.272-7.556,7-10,2.614-3.696,3.167-4.414,4-6,1.981-3.769,1.939-5.395,3.925-10.069,1.328-3.127,1.439-2.616,4.075-7.931,1.735-3.499,2.33-5.015,5-11,2.513-5.631,2.603-5.673,5-11,3.525-7.834,5.288-11.752,7-16,3.356-8.33,5.614-14.026,7-22,.504-2.901.669-4.934,1-9,1.017-12.507-.278-15.585-2-17-.52-.427-1.778-1.277-3-2-2.016-1.193-3.583-1.833-4-2-1.18-.473-2.214-.789-3-1,2.075-.378,5.25-.69,9,0,5.382.991,9.133,3.529,11,5-1.087.782-2.503,2.079-3,4-.376,1.454-.072,2.675,0,3,.968,4.348-1.185,20.132-4,31Z" fill="#4d4d4d"/></g><g id="e"><path d="M93.081,239.142c-1.702-2.684-4.207-6.788-7-12-2.567-4.791-2.676-5.476-4-7-3.618-4.163-9.842-7.143-16-7-.999.023-8.091.27-14,2-.46.135-3.64.801-4,0-.172-.383.48-.702,1-2,.63-1.572.307-2.68,1-3,.294-.136.373.054,1,0,.082-.007,1.522-.148,2-1,.464-.828-.29-1.775,0-2,.381-.296,1.768,1.272,3,2,3.541,2.092,10.237-.109,11-3,.59-2.236-3.429-2.685-7-9-1.783-3.153-2.63-6.311-6-8-.88-.441-.893-.261-1.761-.659-5.835-2.677-6.985-11.607-8.239-11.341-.368.078-.194.83-1,2-.755,1.095-2.219,2.338-3,2-1.033-.448.391-3.116-1-6-.38-.787-1.586-1.858-4-4-2.081-1.847-3.044-2.489-4-3-1.486-.794-2.807-1.478-4-1-.966.387-.982,1.187-2,2-1.207.963-2.751,1.089-4,1,.135-.488.409-1.245,1-2,1.023-1.307,2.341-1.776,3-2,2.18-.742,4.107-.244,5,0,1.299.354,2.199.903,4,2,1.598.973,1.55,1.138,3,2,2.003,1.191,2.181.927,4,2,1.975,1.165,3.357,2.413,4,3,.394.36.411.397,2,2,0,0,.96.968,3,3,2.388,2.379,4.648,3.965,7,6,3.45,2.985,5.674,5.707,10,11,2.45,2.997,2.223,2.952,4,5,.664.765,3.382,3.867,8,8,1.427,1.277,4.058,3.459,9.319,7.822.755.626,2.5,2.071,4.681,4.178.817.789.765.773,2,2,2.838,2.82,4.758,4.542,7,6,.824.536,1.921,1.185,3.351,1.206.6.009,1.108-.095,1.649-.206,1.509-.309,2.593-.813,3-1,2.438-1.118,3.656-1.677,5-2,2.125-.511,3.893-.278,6,0,1.382.182,2.563.347,4,1,1.375.624,2.368,1.415,3,2,.456.345,2.556,2.012,3,5,.062.416.377,2.779-1,5-1.12,1.807-2.753,2.541-6,4-1.494.671-2.921,1.16-3,1-.112-.228,2.754-1.252,5-4,.786-.962,2.715-3.314,2-5-.969-2.285-6.09-2.055-7-2-5.418.33-7.615,3.376-10,2-1.3-.75-2.251-2.58-2-4,.194-1.099,1.188-1.771,1-2-.206-.251-1.233.714-3,1-1.504.243-1.738-.298-3,0-1.491.352-2.463,1.414-3,2-1.161,1.268-.836,1.728-2,3-.523.571-1.473,1.532-3,2-1.158.355-2.246.197-3,0Z" fill="#4d4d4d"/><path d="M42.081,222.142c-.782.197-1.449.531-2,1-.445.379-.547.619-1,1-.183.154-1.523,1.314-2,1-.364-.239.216-1.042,0-2-.282-1.251-1.64-1.507-4-3-2.511-1.589-1.973-1.931-4-3-2.116-1.116-2.846-.817-4-2-.95-.973-1.34-2.082-2-2-.419.052-.435.522-1,1-1.215,1.029-3.524.874-4,0-.153-.282-.029-.478,0-1,.066-1.167-.45-2.054-1-3-.82-1.411-2.417-3.3-3-3-.483.248.362,1.67,0,4-.135.872-.426,2.747-2,4-1.263,1.006-2.832,1.195-4,1-.975-.163-2.042-.657-2-1,.049-.397,1.511-.038,3-1,1.346-.87,1.755-2.201,2-3,.14-.456.183-.817,0-1-.228-.228-.691-.066-1,0-1.51.322-3.527-.762-4-2-.369-.966.264-1.865,0-2-.298-.151-1.095,1.017-2,2-.818.888-2.076,2.009-4,3-.076-.472-.137-1.176,0-2,.495-2.969,3.211-5.307,6-6,1.659-.412,3.046-.168,4,0,0,0,2.455.432,5,2,.588.362,1.012.654,1.012.654.7.479.995.746,1.988,1.346,1.62.979,2.233,1.113,4,2,1.784.896,2.949,1.67,5,3,2.138,1.386,3.101,2.147,4,3,.582.552.461.501,1,1,1.71,1.583,2.479,1.681,4,3,1.35,1.17,1.087,1.391,2,2,1.385.924,2.928,1.041,4,1Z" fill="#4d4d4d"/><path d="M25.081,239.142c-.152.061-1.453.564-2,0-.105-.109-.344-.423,0-2,.446-2.046,1.055-2.466.844-3.296-.181-.712-.801-1.082-1.844-1.704-1.142-.681-2.543-1.517-4-1-.895.318-1.691,1.072-2,2-.224.672-.131,1.245,0,2,.326,1.876,1.157,2.888,1,3-.229.164-2.436-1.692-4-4-.243-.358-.49-.757-1-1-1.219-.58-2.3.514-3,0-.661-.485-.458-2.017,0-3,.503-1.078,1.373-1.62,2-2,2.697-1.632,5.609-1.082,6-1,.312.065,2.267.497,4,2,.238.206.125.132,1,1,2.227,2.208,2.489,2.224,3,3,.326.494.996,1.543,1,3,.004,1.482-.686,2.565-1,3Z" fill="#4d4d4d"/><path d="M15.081,242.142c-.713-.29-1.854-.862-3-2-.333-.333-.667-.667-1-1,.851.74,3.304,2.675,7,3,2.777.244,4.944-.536,6-1-.448.29-1.124.679-2,1-.747.274-3.745,1.323-7,0Z" fill="#4d4d4d"/><path d="M556.081,91.142c1.042,3.978-15.708,13.357-19,10-1.57-1.601,1.136-4.86-1-8-1.416-2.082-3.812-2.811-8-4-6.201-1.76-8.922-.978-10-3-.98-1.838.584-3.767-1-6-.804-1.133-1.35-.839-2-2-1.012-1.808-.058-3.183-1-5-.413-.798-1.08-1.465-2-2-4.841.658-8.461-.253-9-2-.313-1.013.302-2.28,1-3,1.447-1.492,3.751-1.173,5-1,2.821.391,4.699,1.932,6,3,.854.701,2.771,2.295,4,5,.467,1.027.719,1.961,1,3,.898,3.324.401,3.774,1,5,.744,1.524,2.839,2.37,7,4,3.005,1.177,4.507,1.766,6,2,4.767.748,8.245-.675,9-1,1.335-.574,2.919-1.281,4-3,.716-1.139.929-2.274,1-3,.718,1.097,1.381,2.555,1,4-.296,1.12-.983,1.335-1,2-.057,2.195,7.357,2.544,8,5Z" fill="#4d4d4d"/><path d="M509.081,83.142s-1.206,1.349-2,3c-1.565,3.255-1.029,7.777-1,8-.36-.928-.796-2.297-1-4-.185-1.542-.101-2.702,0-4,.116-1.491.375-3.554,1-6,.232.31.557.67,1,1,1.17.872,2.427.986,3,1-.333.333-.667.667-1,1Z" fill="#4d4d4d"/><path d="M549.081,4.142c-2.723,1.338-3.023,2.941-5,3-1.089.032-1.937-.426-3-1-2.254-1.217-2.185-2.279-4-3-.517-.205-2.345-.932-4,0-1.562.879-1.934,2.653-2,3,.047-.598.222-1.776,1-3,.684-1.075,1.523-1.696,2-2,.431-.274,1.53-.955,3-1,1.576-.048,2.004.684,4,1,.934.148,1.635.1,3,0,4.979-.367,6.098-1.487,9-1,.537.09,1.696.295,3,1,3.038,1.643,5,5,5,5-.657-.586-1.652-1.354-3-2-.57-.273-1.649-.781-3-1-2.922-.473-5.368.689-6,1Z" fill="#4d4d4d"/><path d="M582.081,23.142c-1.272-.603-3.339-1.462-6-2-5.521-1.117-6.335.23-9-1-4.75-2.192-4.247-7.769-9-9-1.461-.379-2.783-.181-4,0-2.902.433-4.95,1.716-7,3-1.048.656-2.458,1.631-4,3-.877.305-2.038.533-3,0-.547-.303-.824-.738-1-1-.495-.739-2.999-4.475-6-5-1.132-.198-1.979.123-2,0-.032-.183,1.84-.883,4-1,1.448-.078,1.741.175,3,0,1.424-.198,2.419-.712,3-1,0,0,3.367-1.666,8-3,2.312-.666,4.35-1.238,7-1,1.33.12,3.506.519,6,2,4.578,4.608,7.828,6.826,10,8,0,0,4.351,2.351,7,5,0,0,.981.981,1,1,.333.333.667.667,1,1s.667.667,1,1Z" fill="#4d4d4d"/><path d="M598.081,59.142c-.515.186-1.347.391-2,0-.976-.584-.999-2.167-1-3-.01-7.209,1.558-10.47,0-14-.828-1.877-2.324-3.339-3-4-1.363-1.333-1.75-1.233-4-3-3.194-2.509-3.265-3.38-5-4-1.696-.607-2.766-.181-5,0-2.136.173-5.178.11-9-1-5.244,2.402-8.234,1.909-10,1-2.199-1.132-3.734-3.545-5-3-.696.299-.876,1.305-1,2-.539,3.018,1.634,5.581,2,6,2.163,2.473,5.004,2.99,5,3-.006.015-5.973-.882-8-5-1.281-2.603-.971-6.464,1-8,1.571-1.224,2.917.023,8-1,1.659-.334,1.558-.475,4-1,2.459-.528,2.834-.443,6-1,4.042-.711,4.365-1.013,6-1,2.126.017,3.859.548,5,1,.986.426,2.387,1.079,4,2,1.386.792,5.026,2.98,9,7,2.168,2.194,3.25,3.292,4,5,1.238,2.817,1.094,5.523,1,7-.05.777-.271,2.022-.315,2.305-.101.648-.274,1.684-.685,3.695-.419,2.051-.529,2.386-.676,3.148-.258,1.34-.496,3.302-.324,5.852Z" fill="#4d4d4d"/><path d="M577.081,54.142c-.189,1.136-.084,1.878,0,3,.106,1.415.18,3.45,0,6-.482-1.711-.876-3.728-1-6-.059-1.074-.103-1.878,0-3,.155-1.693.536-2.924,1-6,.18-1.194.207-1.565,0-2-.478-1.005-1.446-.758-3-2-.553-.442-1.777-1.449-2-3-.06-.416-.032-.768,0-1,.554.848,1.221,1.514,2,2,.781.487,1.069.413,2,1,.863.544,1.706,1.075,2,2,.288.906-.252,1.244,0,2,.476,1.428,3.02,1.423,3,2-.012.364-1,.29-2,1-1.512,1.073-1.847,3.082-2,4Z" fill="#4d4d4d"/><path d="M615.081,77.142c-.336-.144.29-1.239,0-3-.151-.917-.495-1.679-3-5-2.425-3.214-2.455-2.968-3-4-.966-1.831-.849-2.565-2-4-.547-.682-1.622-2.022-3-2-.923.015-1.585.634-2,1,0,0-4.143,3.657-11,5-.257.05-1.037.191-2,0-.215-.043-1.939-.384-2-1-.069-.691,2.017-1.124,6-3,1.516-.714,2.904-.817,4-2,.31-.334.504-.633,1-1,.919-.68,1.842-.828,3-1,.871-.129,2.238-.321,4,0,.379.069,1.546.302,3,1,.464.223,2.141,1.021,5,4,1.834,1.911,3.139,3.698,4,5,.439.799,1.324,2.677,1,5-.401,2.874-2.481,5.222-3,5Z" fill="#4d4d4d"/><path d="M589.081,79.142c-2.735.647-4.88.281-6,0-1.609-.403-4.958-1.219-6-4-.68-1.814-.167-3.483,0-4,.484-1.499,1.401-2.407,2-3,1.043-1.032,2.068-1.546,3-2,.546-.266,7.626-3.697,8-3,.17.317-1.24,1.122-1,2,.103.378.404.373,1,1,.313.329,1.166,1.226,1,2-.112.523-.654.825-1,1-2.351,1.192-5.698,1.631-8,2-2.059.33-2.585.493-3,1-.817.997-.775,2.801,0,4,.329.509.732.82,1,1,2.452,1.643,7.994,1.95,9,2Z" fill="#4d4d4d"/><path d="M592.081,78.142c2.234-1.171,4.579-2.497,7-4,2.153-1.336,4.152-2.679,6-4-1.432,1.954-2.889,3.203-4,4-2.667,1.914-12.076,5.146-9,4Z" fill="#4d4d4d"/><path d="M615.081,124.142c.514,2.941.958,5.051,1,7,.13,6.087-1.678,11.056-2,11-.236-.041.218-2.789,0-8-.163-3.89-.522-4.906-1-5-.526-.104-.906.971-2,2-1.542,1.451-3.513,1.877-5,2-.065-.685-.121-1.734,0-3,.205-2.137.735-3.019,1-5,.223-1.663.102-2.928,0-4-.334-3.505-1.398-4.16-2-7-1.208-5.701,2.048-7.935,0-11-.567-.848-1.697-1.996-2-4-.126-.833-.067-1.539,0-2,.321-.662.654-1.328,1-2,1.289-2.503,2.635-4.835,4-7,.39-.498.875-1.075,1-1,.163.098-.569,1.124-.864,2.49-.345,1.602.195,3.301,1.275,6.699.292.918.333.96.589,1.81.231.766.664,2.217,1,4,.327,1.735.207,1.899.692,5.089.033.217.029.189.308,1.911.788,4.872.832,5.192,1,6,.375,1.806.421,1.487,1,4,.104.453.533,2.33,1,5Z" fill="#4d4d4d"/><path d="M562.081,56.142c-.723.187-4.085.974-7-1-.931-.63-1.571-1.376-2-2-.997-1.444-1.117-1.89-1-2,.161-.151.723.374,2,1,1.08.53,1.901.932,3,1,.713.044.919-.092,2,0,.627.053.81.12,1,0,.579-.365.245-1.835,0-3-.385-1.83-.92-4.374-1-6-.056-1.146.063-2.855,1-5-.333,3.285.327,5.541,1,7,1.238,2.683,3.024,3.773,3,6-.019,1.725-1.112,3.115-2,4Z" fill="#4d4d4d"/><path d="M569.081,38.142c-4.002,2.44-8.983,1.37-9,1-.014-.309,3.441.046,8-2,2.332-1.046,3.833-2.218,4-2,.176.229-1.196,1.9-3,3Z" fill="#4d4d4d"/></g><g id="f"><path d="M441.081,728.142c-3.849.115-5.865-.957-7-2-.816-.75-1.392-1.683-3-3-1.386-1.136-2.564-1.758-3-2-4.925-2.732-6.765-7.694-12-10-5.208-2.294-7.741.697-12-2-2.93-1.856-4.309-4.905-5-7,1.577.946,4.021,2.077,7,2,2.237-.058,2.962-.75,5-1,4.525-.554,8.383,1.951,10,3,4.756,3.087,4.819,6.167,9,8,.071.031,1.796.786,4,2,2.154,1.186,2.674,1.659,3,2,.915.958,1.269,1.893,2,4,.795,2.293,1.462,4.317,2,6Z" fill="#4d4d4d"/><path d="M452.081,739.142c-1.757.514-2.577,1.333-3,2-.633.999-.429,1.739-1,4-.157.623-.506,2.006-1,3-.467.941-1.661,2.74-5,4,.19-.475.507-1.189,1-2,.987-1.624,1.561-1.791,2-3,.146-.403.666-1.833,0-3-.244-.427-.56-.667-1-1-1.302-.986-2.192-.838-2.436-1.483-.123-.325.036-.54.436-1.517.119-.289.754-1.842,1-3,.11-.518.356-1.677,0-3-.416-1.547-1.429-2.477-2-3-1.476-1.354-3.113-1.822-4-2,.817-.485,2.257-1.162,4-1,.755.07,1.514.381,3,1,1.971.821,2.956,1.231,4,2,1.464,1.079,2.396,2.272,2.905,3.022.515.757.863,1.451,1.095,1.978v3Z" fill="#4d4d4d"/><path d="M433.081,748.142c-.658,2.505-.902,3.019-1,3-.197-.038.06-2.25,0-6-.023-1.401-.085-2.762-1-4-.395-.534-.806-.852-1-1-2.149-1.637-5.175-1.156-6-1,1.049-.801,2.384-2.093,3-4,.648-2.008.086-3.423,0-6-.056-1.671.08-4.06,1-7,.724.42,1.789,1.08,3,2,1.821,1.383,3.113,2.365,4,4,.729,1.344.848,2.509,1,4,.346,3.393-.459,6.187-1,8-.42,1.409-.553,1.422-1,3-.588,2.076-.861,3.829-1,5Z" fill="#4d4d4d"/><path d="M420.081,747.142c-.56-.808-.845-1.52-1-2-.83-2.57.212-4.249-1-6-.359-.519-.388-.281-1-1-.311-.366-1.573-1.919-2-5-.194-1.4.05-1.202,0-4-.058-3.254-.105-4.904-1-6-.901-1.103-1.913-1.123-2-2-.117-1.177,1.636-1.852,1.425-2.774-.191-.833-1.813-1.118-2.425-1.226-1.034-.182-3.192-.357-6,1-1.333.667-2.667,1.333-4,2,.55-.79,1.506-1.969,3-3,1.157-.798,3.773-2.604,7-2,3.972.743,5.799,4.561,6,5,.802,1.747,1.467,3.161,2,5,.374,1.29.629,2.496,1,5,.724,4.893,1.086,7.339,1,10-.055,1.693-.268,4.109-1,7Z" fill="#4d4d4d"/><path d="M404.081,745.142c-.605-4.602-1.893-7.845-3-10-.908-1.768-1.412-2.254-2-4-1.133-3.365-.441-5.058-2-7-.322-.401-1.358-1.583-3-2-2.358-.599-5.066.606-7,3l-2,2c.744-4.098,3.546-7.279,7-8,3.11-.649,5.814.89,6,1,1.666.98,2.583,2.3,3,3,.04,3.085.557,5.45,1,7,1.175,4.106,2.735,5.635,3,9,.201,2.551-.46,4.676-1,6Z" fill="#4d4d4d"/><path d="M397.081,713.142c-1.507,1.57-2.947,2.467-4,3-2.965,1.5-4.699,1.039-7,3-1.44,1.227-1.852,2.337-2,3-.214.957-.05,1.74,0,2,.738,3.847-.752,12.016-1,12-.138-.009.025-2.541-.296-7.263-.218-3.215-.495-5.01-1.704-6.737-.304-.434-.912-1.285-2-2-2.443-1.604-5.181-1.14-6-1-4.416.753-6.523,5.348-7,5-.328-.239.617-2.377,2-4,1.161-1.363,2.441-2.14,3.342-2.687.515-.313,1.444-.871,2.658-1.313.715-.26,1.502-.292,2.159-.368.959-.112,1.216-.076,2.027-.207.644-.104,1.08-.224,1.814-.424.892-.244,1.831-.502,3-1,.511-.218,1.204-.541,2-1,1.063-.411,2.411-.809,4-1,3.512-.421,6.376.389,8,1Z" fill="#4d4d4d"/><path d="M377.081,732.142c.122.49.225,1.215,0,2-.421,1.47-1.556,1.635-2,3-.476,1.466.53,2.203,0,3-.728,1.094-3.313.999-5,0-.436-.258-.957-.839-2-2-1.645-1.832-1.895-2.557-2-3-.193-.81-.104-1.527,0-2h2c2,0,4.049-.44,6,0,.563.127,1.282.343,2,0,.515-.246.823-.68,1-1Z" fill="#4d4d4d"/><path d="M397.081,748.142c-2.986-.396-4.67-2.557-5-3,1.021.143,2.021.143,3,0,1.624-.237,2.009-.693,4-1,1.841-.283,2.71-.077,3,0,.905.242,1.577.674,2,1-.126.162-2.848,3.55-7,3Z" fill="#4d4d4d"/><path d="M417.081,749.142c-.436.286-1.937,1.195-4,1-2.294-.217-3.677-1.648-4-2,.989-.629,1.989-.962,3-1,2.021-.075,2.975,1.075,5,1,1.011-.038,2.011-.371,3-1-1,.667-2,1.333-3,2Z" fill="#4d4d4d"/><path d="M432.081,751.142c-.99.435-2.757,1.058-5,1-1.05-.027-4.25-.11-6-2-2.103-2.271-1.871-6.894,1-11v8c.178.231.507.621,1,1,1.973,1.515,3.953.822,7,2,.46.178,1.171.486,2,1Z" fill="#4d4d4d"/><path d="M338.081,710.142c-.233-1.592-1.317-3.15-4-5-1.61-1.111-4.226-2.654-13-5-3.895-1.042-6.032-1.45-6-2,.033-.563,2.318-.954,4-1,1.696-.047,2.538.264,6,1,3.541.753,3.203.537,5,1,1.216.313,3.408.887,6,2,2.99,1.284,5.334,2.782,7,4,3.062,2.239,6.426,4.698,6,7-.24,1.299-1.434,1.178-2,3-.721,2.322.874,4.26,0,5-.347.294-.758.128-2,0,0,0-1.399-.144-4,0-3.765.208-5.292,5.455-7,5-1.909-.508-2.883-7.829,0-10,1.376-1.036,3.146-.584,4-2,.6-.994.116-2.207,0-3Z" fill="#4d4d4d"/><path d="M297.081,715.142c-.801.449-1.685.529-2.264.488-.828-.059-1.735-.28-2.736-.488,0,0-1.394-1.362-8-1-8.049.441-14.741,5.446-15,5-.145-.249,2.024-1.856,4-3,3.131-1.813,6.04-2.614,8-3,.977-.098,2.403-.339,4-1,.94-.389,1.588-.763,2-1,2.769-1.592,3.97-1.912,6-3,2.049-1.098,2.042-1.442,8-6,1.69-1.292,3.087-2.329,4-3,2.228.075,2.846.566,3,1,.453,1.28-3.004,2.457-6,7-1.675,2.54-2.514,3.809-3,5-.458,1.121-.824,2.341-2,3Z" fill="#4d4d4d"/><path d="M268.081,713.142c-2.198,1.61-3.856,2.996-5,4-.998.877-2.144,1.937-4,3-.809.464-1.512.79-2,1,1.073-1.85,2.188-3.157,3-4,1.34-1.392,2.574-2.271,5-4,1.464-1.043,2.196-1.565,3-2,1.18-.639,3.397-1.853,6-2,2.072-.117,3.187.508,5,1,2.187.593,5.47,1.015,10,0-1.288.805-3.364,1.849-6,2-2.854.163-4.231-.702-7-1-1.837-.198-4.52.012-8,2Z" fill="#4d4d4d"/><path d="M247.081,723.142c.583-1.38,1.512-3.169,3-5,1.032-1.27,2.084-2.255,3-3,0,0,2.003-1.508,6-3,.523-.195.887-.31.887-.31.73-.228,1.065-.26,2.113-.69,1.345-.552,1.761-.897,2.742-1.407.101-.053.206-.104.206-.104.216-.108.375-.183.403-.197.153-.073.477-.244,1.234-.676.317-.171.8-.408,1.415-.616.761-.257,2.926-.745,6,0,3.431.832,6.129,2.721,6,3-.162.352-4.472-2.569-10-2-2.535.261-4.576,1.178-6,2-.539.384-1.168.818-1.877,1.284-.371.244-.707.464-1.123.716-.955.578-1.677.929-2.011,1.098-1.838.932-3.123,1.584-3.989,2.902-.12.182-.947,1.471-1,3-.009.27-.014,1.123,0,2,.012.716.026.782,0,1-.118,1.002-.697,2.055-1,2-.587-.106.447-4.255-1-5-.851-.438-2.222.473-3,1-.997.674-1.631,1.461-2,2Z" fill="#4d4d4d"/><path d="M268.081,733.142c-2.35.367-2.928.217-3,0-.141-.422,1.644-1.049,3-3,.536-.771.833-1.502,1-2-.055-.458-.244-1.411-1-2-1.18-.918-3.351-.647-5,1,.462-.74,1.137-1.784,2-3,1.34-1.887,2.57-3.619,4-5,1.2-1.158,3.38-2.88,7-4,.214,1.895.608,7.613-3,13-1.634,2.44-3.565,4.028-5,5Z" fill="#4d4d4d"/><path d="M255.081,731.142c-.771-.865,4.226-5.372,3-8-.085-.183-.397-.85-1-1-.56-.139-1.164.219-2,1-.797.745-1.945,2.004-3,4,.277-.64.607-1.311,1-2,1.246-2.184,2.717-3.82,4-5l3-3c.462.017,1.154.031,2,0,.869-.032.904-.062,1,0,.912.591-1.306,4.376-3,10-.112.373-.349,1.176-1,2-1.298,1.644-3.553,2.501-4,2Z" fill="#4d4d4d"/><path d="M251.081,730.142c.64,2.661,6.089,2.939,6,4-.088,1.054-4.063,2.421-6,1-.526-.386-.392-.606-1-1-1.375-.892-2.533-.069-4-1-.222-.141-.699-.427-1-1-.65-1.237-.134-2.658,0-3,.456.412,1.129.862,2,1,1.826.29,3.826-.899,5-3-.634.815-1.26,1.917-1,3Z" fill="#4d4d4d"/><path d="M258.081,734.142c-.764,1.534-4.693,1.328-7,0-.454-.262-.812-.55-1-1-.549-1.318.898-2.891,1-3,.549.354,1.596.916,3,1,2.78.167,4.675-1.673,5-2-.416.672-.918,1.702-1,3-.075,1.176.265,1.468,0,2Z" fill="#4d4d4d"/><path d="M268.081,738.142c-4.924,1.001-8.987-.462-10-3-.203-.509-.457-1.495,0-3,1.005.419,2.756,1,5,1,1.089,0,2.929-.137,5-1,.045.227.089.587,0,1-.233,1.089-1.166,1.535-1,2,.119.334.638.209,1,.572.501.501.302,1.532,0,2.428Z" fill="#4d4d4d"/><path d="M327.081,722.142c-1.333-.333-2.667-.667-4-1,1.234.003,4.092-.161,7-2,2.119-1.34,3.363-2.999,4-4,2.377,1.962,3.661,4.758,3,7-1.325,4.491-9.912,4.896-11,3-.436-.76.269-2.002,1-3Z" fill="#4d4d4d"/><path d="M315.081,738.142c-2.828.133-4.243.2-5,0-2.457-.649-3.835-2.741-4-3-1.464-2.293-1.421-5.364,0-8,.594-1.361,1.763-3.474,4-5,2.385-1.627,5.947-1.381,13-1,3.358.181,5.972.489,6,1,.043.77-5.803,2.122-10,2-.666-.019-1.333-.012-2,0-4.155.072-4.878.535-5.253.923-.504.52-.627,1.155-.747,2.077-.39,3.001-.813,9.529,1,10,.059.015.035.002,2,0,.825,0,.881.001,1,0,.615-.007,2.405-.029,4-1,.442-.269,1.415-.86,2-2,.326-.636.392-1.171,0-5-.283-2.765-.413-3.422-1-4-.911-.897-1.956-.649-2-1-.107-.853,5.906-3.602,12-2,1.513.398,2.88.771,4,2,3.09,3.392,1.806,10.638-2,13-.815.506-1.877.671-4,1,0,0-3.367.522-8.663.111-.367-.029-.533-.044-.534-.044-.323-.03-.415-.044-.803-.066-1.409-.08-2.451-.026-3,0Z" fill="#4d4d4d"/><path d="M297.081,727.142c-7.745-1.385-11.254.151-13,2-1.339,1.418-1.549,2.893-4,5-2.055,1.767-4.31,2.495-6,3-1.754.524-4.508,1.126-8,1,1.109-.231,2.637-.662,4.314-1.516.711-.361,2.67-1.42,4.686-3.484,1.638-1.678,2.261-2.987,3-4,1.412-1.935,3.969-4.316,9-6,.694.278,1.724.658,3,1,6.596,1.769,11.887.438,12,1,.048.238-.84.757-5,2Z" fill="#4d4d4d"/><path d="M325.081,714.142c-1.383.846-1.533,1.665-3,3-.599.545-1.566,1.311-3,2-.727-.084-1.769-.144-3,0-2.39.279-3.902,1.191-4,1-.095-.185,1.218-1.27,3-2,1.928-.789,2.412-.347,4-1,2.091-.86,1.868-1.882,4-3,2.458-1.29,4.982-1.1,5-1,.014.077-1.444.048-3,1Z" fill="#4d4d4d"/></g><g id="h"><path id="i" d="M351.081,224.142c-1.439-.308-3.566-.544-6,0-6.348,1.42-9.443,6.96-10,8-.182-2.06-.111-3.771,0-5,.235-2.608.693-3.505,1-4,.631-1.016,1.444-1.643,2-2,1.203-.973,2.862-2.099,5-3,1.075-.453,2.089-.772,3-1,.429-.251,1.115-.628,2-1,1.002-.421,1.644-.578,3-1,2.78-.865,2.361-.916,3-1,.485-.064,1.366-.118,5,1,1.694.521,2.541.782,3,1,1.056.501,4.101,1.948,5,5,.244.829.605,2.055,0,3-.383.597-1.325,1.293-7,1-2.225-.115-5.308-.372-9-1Z" fill="#333"/><path id="j" d="M374.081,265.142c-1.6,1.4-9.792,8.282-21,7-4.984-.57-8.754-2.547-11-4-1.313-1.115-2.3-2.173-3-3-1.132-1.336-1.704-2.024-2-3-.388-1.277.129-1.341,0-4-.087-1.792-.398-3.323-.568-4.158-.193-.953-.381-1.651-.432-1.842-.382-1.409-.783-2.444-1-3-1.818-4.653-1.762-4.129-2-5-.237-.867-1.189-4.343,0-7,.643-1.436,1-2,1-2,.462-.728.871-1.18,1-2,.068-.431.014-.677,0-1-.03-.694.13-1.696,1-3,1.542-1.591,4.188-3.851,8-5,.98-.295,3.368-.918,11,0,8.297.998,16,3,16,3h0l5,5c1.291,3.002,3.089,8.268,3,15-.115,8.634-3.272,15.021-5,18Z" fill="#4d4d4d"/><g id="k"><path d="M334.081,226.142c-.19-2.47-.116-4.522,0-6,.254-3.22.769-4.484,1-5,.622-1.391,1.427-2.386,2-3,.442-.753,1.36-2.067,3-3,.223-.127,1.221-.68,3-1,.953-.171,2.317-.108,5,0,1.189.048,1.454.075,2,0,1.128-.156,2.019-.554,3-1,1.164-.529,1.092-.634,2-1,1.066-.43,1.254-.256,2.645-.754,2.713-.971,4.461-1.827,5.355-2.246.364-.17,5.962-2.711,11-1,2.71.921,1.979,1.958,7,5,3.683,2.231,4.993,2.229,6,4,1.685,2.963.134,6.689,0,7-1.836,4.246-5.563,3.619-7,7-2.051,4.826,3.87,10.049,2,12-1.313,1.37-5.692.318-7-2-.753-1.334.056-2.122-1-4-1.006-1.789-2.735-2.842-3-3-.09-.054-.407-.24-.906-.467-2.405-1.094-3.984-.833-7.094-1.533-1.549-.349-3.032-.836-3-1,.028-.145,1.21.079,3,0,2.098-.093,3.458-.154,4-1,.741-1.158-.468-3.131-1-4-.245-.4-1.127-1.767-3-3-2.176-1.433-4.256-1.741-6-2-1.077-.16-3.259-.464-6,0-2.113.357-4.075,1.238-8,3-.182.082-.983.443-2,1-1.884,1.031-2.724,1.755-3,2-.191.169-.502.457-1,1-.773.843-1.849,2.143-3,4Z" fill="#1a1a1a"/></g><path id="l" d="M368.081,248.142c.044,1.007-.05,2.585-1,4-.921,1.372-2.181,1.901-5,3-4.289,1.672-6.433,2.508-8,3-2.286.718-4.858,1.438-8,2-4.572.817-5.47.425-6,0-1.978-1.585-1.126-5.456-1-6-.813-1.718-1.516-3.084-2-4-.972-1.842-1.416-2.544-2-4-.39-.973-.609-1.7-1-3-.649-2.158-.974-3.237-1-4-.03-.881.118-2.714,2-5,.777-1.2,2.04-2.76,4-4,5.607-3.547,12.003-1.359,13-1,1.291.913,3.313,2.149,6,3,4.063,1.286,5.618.416,8,2,3.471,2.309,3.969,6.687,4,7,.367,3.721-1.532,6.381-2,7Z" fill="#1a1a1a"/><path id="m" d="M360.081,219.142c.2.174,1.134,1.018,1,2-.169,1.24-1.928,1.869-3,2-.764.093-.909-.099-3.597-.603-1.296-.243-1.952-.37-2.403-.397-1.99-.12-3,0-3,0-.519.062-.934.145-1,0-.103-.226.735-.814,1-1,.744-.522,1.336-.755,2.293-1.189,1.192-.54,1.075-.542,1.707-.811,1.637-.699,3.235-1.38,5-1,.396.085,1.217.319,2,1Z"/><path id="n" d="M341.081,225.142c-1.09.482-1.643.715-2,1-1.195.953-1.374,2.02-2,2-.23-.007-.583-.163-1-1-.088-.4-.194-1.127,0-2,.223-1.003.727-1.68,1-2,.399-.309,1.071-.747,2-1,1.32-.36,2.384-.137,3,0,.576.128,1.955.434,2,1,.025.318-.38.588-1,1-.717.477-1.249.668-2,1Z"/><path id="o" d="M372.081,218.142c-2.312.279-4.158-.55-5-1-.22-.199-.989-.942-1-2-.014-1.344,1.2-2.689,3-3,.654-.162,1.753-.332,3,0,2.142.571,4.356,2.528,4,4-.378,1.563-3.498,1.939-4,2Z" fill="#c1272d"/><path id="p" d="M372.081,216.142c-.149.5-.584.863-1,1-.308.101-.432.022-1,0-1.25-.049-1.734.291-2,0-.173-.189-.109-.486,0-1,.193-.908.341-1.602,1-2,.589-.355,1.383-.352,2,0,.643.366,1.241,1.194,1,2Z" fill="#1a1a1a"/><path id="q" d="M341.081,219.142c-1,.667-2,1.333-3,2,.076-.426.294-1.275,1-2,1.526-1.565,3.855-1.036,4-1l-2,1Z" fill="#c1272d"/><path id="r" d="M362.081,240.142c-.476.226-2.337,1.061-4.197.662-.782-.168-1.59-.559-1.803-.662-.612-.296-.928-.453-1.24-.796-.524-.575-.349-.917-.76-1.204-.438-.306-.895-.098-2,0-1.025.091-1.033-.052-2,0-1.576.085-2.753.529-4,1-1.071.404-1.614.614-2,1-.689.689-1.247,1.874-1,3,.253,1.154,1.209,1.601,1,2-.203.388-1.271.282-2,0-1.368-.528-1.926-1.821-2-2-.501-1.211-.19-2.323,0-3,.26-.928.697-1.602,1-2,.333-.333.667-.667,1-1,2.023-1.265,3.837-1.772,5-2,2.099-.412,3.737-.239,6,0,1.61.17,3.114.338,5,1,1.752.615,3.098,1.397,4,2v2Z" fill="#f2f2f2"/><path id="s" d="M359.081,255.142c-2.376.959-4.437,1.586-6,2-.397.105.004-.006-5,1-2.423.487-3.796.771-5,0-.497-.318-.813-.718-1-1-.286-.824-.544-2.013,0-3,.576-1.044,1.576-1.004,4-2,2.704-1.111,2.752-1.69,6-3,1.542-.622,2.313-.933,3-1,2.131-.209,3.197.715,6,1,1.287.131,2.345.066,3,0,.191.486.651,1.847,0,3-.258.456-.601.724-1,1-.809.56-2.11,1.335-4,2Z" fill="#c1272d"/><path id="t" d="M401.081,233.142c-.504-.139-1.252-.416-2-1-1.356-1.059-1.84-2.445-2-3-.333-1.333-.667-2.667-1-4-.054-.379-.285-2.271,1-4,1.079-1.451,2.556-1.887,3-2,.535.095,1.361.331,2,1,.354.371.828,1.061,1,4,.132,2.247-.129,2.113,0,4,.157,2.295.59,3.165,0,4-.479.678-1.333.911-2,1Z" fill="#666"/><path id="u" d="M401.081,231.142c-.276.067-.628.104-1,0-1.993-.56-3.074-4.776-2-8,.217-.652.726-1.836,2-3,.269.21.638.536,1,1,.693.889.932,1.735,1,2,.166.648.339,1.86,0,2-.261.107-.86-.404-1-1-.117-.496.163-.717,0-1-.289-.503-1.615-.58-2,0-.226.341-.066.814,0,1,.574,1.624,2.415,1.505,3,3,.284.726.121,1.458,0,2-.222.994-.721,1.671-1,2Z" fill="#333"/></g></svg>