<svg width="277" height="304" viewBox="0 0 277 304" fill="none" xmlns="http://www.w3.org/2000/svg">
<path d="M7.0159 148.21C6.12405 148.241 5.23495 148.093 4.3994 147.775C3.56385 147.457 2.79822 146.975 2.14625 146.356C1.48527 145.716 0.95562 144.95 0.587865 144.101C0.22011 143.253 0.0215377 142.339 0.00360965 141.412C-0.0256034 140.5 0.122735 139.592 0.440106 138.739C0.757478 137.887 1.23763 137.106 1.853 136.442C2.46836 135.778 3.20682 135.244 4.02597 134.871C4.84512 134.497 5.72882 134.292 6.62633 134.267L27.6876 133.525C29.4904 133.48 31.2387 134.155 32.5572 135.404C33.5372 136.345 34.2214 137.559 34.524 138.893C34.8266 140.228 34.734 141.623 34.2579 142.904C33.7818 144.186 32.9434 145.295 31.8481 146.094C30.7527 146.893 29.4493 147.346 28.1015 147.395L7.0159 148.112V148.21ZM165.791 100C167.564 99.9716 169.329 100.265 171.001 100.866C174.426 102.084 177.463 104.22 179.791 107.046C182.342 110.05 183.946 113.762 184.393 117.702C184.596 119.683 184.498 121.685 184.101 123.636C185.856 125.212 187.359 127.055 188.556 129.099C190.251 132.033 191.095 135.392 190.991 138.791C190.867 142.374 189.651 145.83 187.509 148.68C185.889 150.86 183.913 152.742 181.666 154.243C181.934 159.068 180.624 163.849 177.941 167.841C175.473 171.784 171.569 174.575 167.081 175.604C165.883 179.815 163.156 183.408 159.45 185.656C155.744 187.905 151.336 188.642 147.116 187.718C145.229 187.177 143.477 186.236 141.975 184.958C140.472 183.679 139.254 182.092 138.399 180.301C137.383 182.233 135.967 183.919 134.248 185.242C132.529 186.565 130.547 187.494 128.441 187.965C126.244 188.384 123.984 188.316 121.815 187.766C119.647 187.215 117.621 186.195 115.877 184.776C112.956 182.515 110.941 179.257 110.204 175.604C108.703 175.54 107.218 175.257 105.797 174.763C102.456 173.56 99.4841 171.488 97.1774 168.755C94.6929 165.874 93.071 162.331 92.5026 158.545C92.2007 156.381 92.2749 154.18 92.7217 152.042C91.141 150.6 89.7717 148.935 88.6555 147.098C86.8355 144.131 85.8737 140.704 85.8798 137.209C85.9476 133.463 87.1837 129.836 89.4103 126.85C90.9549 124.756 92.8211 122.928 94.9374 121.435C94.9374 120.768 94.9374 120.076 94.9374 119.408C95.1044 114.639 96.8161 110.06 99.807 106.379C102.386 103.033 106.102 100.785 110.228 100.075C110.358 99.4351 110.537 98.8068 110.764 98.1956C112.093 94.712 114.56 91.7971 117.752 89.9381C120.961 87.9847 124.768 87.3065 128.441 88.0345C130.433 88.4701 132.314 89.3242 133.962 90.5419C135.61 91.7597 136.988 93.3141 138.009 95.1052C139.04 93.3172 140.425 91.7657 142.076 90.5486C143.727 89.3316 145.609 88.4755 147.603 88.0345C150.916 87.3886 154.346 87.8936 157.342 89.4684C160.299 90.9787 162.742 93.3558 164.354 96.292C164.966 97.4452 165.424 98.6755 165.718 99.951L165.791 100ZM141.856 102.201V170.214C142.166 170.638 142.374 171.129 142.465 171.648C143.415 177.581 145.947 180.449 148.82 181.24C150.217 181.547 151.663 181.537 153.056 181.213C154.449 180.888 155.754 180.256 156.879 179.361C158.044 178.609 159.019 177.592 159.729 176.391C160.439 175.189 160.864 173.836 160.97 172.439C160.97 169.423 158.827 165.986 152.984 162.97C152.572 162.795 152.2 162.535 151.892 162.208C151.584 161.88 151.346 161.491 151.193 161.065C151.04 160.64 150.975 160.186 151.003 159.734C151.03 159.282 151.15 158.84 151.353 158.437C151.557 158.034 151.84 157.678 152.186 157.391C152.531 157.104 152.932 156.893 153.361 156.771C153.791 156.649 154.241 156.618 154.683 156.681C155.125 156.743 155.549 156.898 155.93 157.135C162.406 160.473 165.669 164.552 166.935 168.78C169.305 167.922 171.332 166.298 172.706 164.157C174.848 161.001 175.767 157.154 175.287 153.353C175.142 152.675 175.213 151.967 175.488 151.332C175.764 150.697 176.23 150.167 176.821 149.817C179.023 148.578 180.953 146.895 182.494 144.873C183.854 143.101 184.63 140.938 184.709 138.692C184.739 136.507 184.166 134.357 183.054 132.487C181.942 130.558 180.46 128.877 178.695 127.542C178.078 127.144 177.609 126.549 177.362 125.851C177.115 125.153 177.104 124.39 177.332 123.685C177.932 121.958 178.14 120.116 177.941 118.295C177.596 115.717 176.522 113.295 174.848 111.324C173.281 109.411 171.238 107.96 168.932 107.121C167.863 106.733 166.729 106.565 165.596 106.626C164.975 108.771 163.904 110.753 162.455 112.436C162.201 112.815 161.872 113.135 161.488 113.376C161.105 113.617 160.676 113.773 160.229 113.834C159.782 113.896 159.327 113.861 158.894 113.732C158.461 113.603 158.06 113.384 157.716 113.087C157.373 112.79 157.094 112.424 156.899 112.011C156.704 111.598 156.597 111.148 156.585 110.69C156.573 110.232 156.655 109.777 156.828 109.353C157 108.93 157.258 108.548 157.585 108.233C158.682 107.097 159.391 105.633 159.605 104.057C159.82 102.481 159.53 100.877 158.778 99.4812C157.817 97.7172 156.347 96.2939 154.566 95.4019C152.856 94.4848 150.892 94.18 148.99 94.5366C146.239 95.1052 143.585 97.4292 141.929 102.225L141.856 102.201ZM158.365 124.452C157.72 123.922 157.3 123.161 157.191 122.326C157.082 121.491 157.293 120.646 157.78 119.964C158.267 119.282 158.993 118.817 159.809 118.663C160.624 118.508 161.467 118.678 162.163 119.136C162.845 119.631 163.453 120.15 164.038 120.669C168.161 124.403 170.7 129.613 171.123 135.206C171.552 140.726 170.014 146.218 166.789 150.683C166.326 151.326 165.791 151.968 165.182 152.661C164.607 153.316 163.8 153.713 162.937 153.764C162.074 153.815 161.226 153.516 160.58 152.933C159.934 152.349 159.543 151.529 159.493 150.653C159.443 149.776 159.738 148.916 160.312 148.26C160.717 147.802 161.099 147.323 161.457 146.826C163.77 143.622 164.883 139.687 164.598 135.725C164.323 131.828 162.579 128.189 159.728 125.564C159.305 125.165 158.858 124.794 158.389 124.452H158.365ZM135.355 105.637L135.209 105.39C133.651 98.9868 130.608 96.0447 127.467 95.5008C125.35 95.1176 123.169 95.5307 121.331 96.6628C119.479 97.4318 117.912 98.7723 116.851 100.495C116.353 102.105 116.363 103.832 116.878 105.436C117.393 107.041 118.388 108.442 119.724 109.445C120.354 110.038 120.725 110.861 120.757 111.733C120.789 112.604 120.479 113.453 119.894 114.093C119.605 114.409 119.257 114.665 118.87 114.845C118.484 115.025 118.066 115.126 117.641 115.142C116.782 115.174 115.946 114.859 115.317 114.266C113.061 112.287 111.378 109.724 110.447 106.849C108.19 107.465 106.195 108.821 104.774 110.706C102.725 113.273 101.562 116.451 101.463 119.754C101.437 120.754 101.494 121.755 101.633 122.746C101.714 123.376 101.614 124.016 101.347 124.59C101.079 125.164 100.655 125.648 100.124 125.984C97.9883 127.261 96.1124 128.939 94.5965 130.929C93.1806 132.807 92.3878 135.092 92.3321 137.456C92.341 139.698 92.974 141.892 94.1582 143.785C95.222 145.511 96.6024 147.013 98.2244 148.21C98.8034 148.622 99.2352 149.213 99.4548 149.895C99.6743 150.578 99.6698 151.314 99.4418 151.993C98.8197 153.835 98.628 155.799 98.8818 157.729C99.2759 160.278 100.373 162.661 102.047 164.602C103.604 166.442 105.599 167.847 107.842 168.681C108.699 168.972 109.593 169.139 110.496 169.176C111.762 164.923 115.366 160.646 121.891 157.21C122.271 156.972 122.696 156.818 123.138 156.755C123.58 156.692 124.029 156.723 124.459 156.845C124.889 156.967 125.289 157.179 125.635 157.465C125.98 157.752 126.264 158.108 126.467 158.511C126.671 158.914 126.79 159.356 126.818 159.808C126.845 160.261 126.781 160.714 126.628 161.139C126.474 161.565 126.236 161.954 125.928 162.282C125.62 162.61 125.249 162.869 124.837 163.044C118.701 166.234 116.388 169.893 116.388 173.107C116.447 174.375 116.786 175.613 117.38 176.731C117.974 177.848 118.809 178.814 119.821 179.559C120.833 180.392 122.007 180.997 123.267 181.334C124.526 181.671 125.841 181.732 127.126 181.512C130.267 180.845 133.31 177.903 134.868 171.475C134.965 171.085 135.13 170.717 135.355 170.387V105.637ZM111.299 121.386C111.608 121.084 111.972 120.847 112.371 120.688C112.77 120.529 113.196 120.451 113.624 120.459C114.052 120.467 114.475 120.561 114.868 120.734C115.261 120.908 115.616 121.159 115.913 121.472C116.211 121.786 116.444 122.155 116.601 122.56C116.758 122.965 116.834 123.398 116.826 123.833C116.818 124.268 116.726 124.697 116.555 125.096C116.384 125.495 116.137 125.855 115.828 126.157C113.085 128.883 111.473 132.572 111.324 136.467C111.168 140.526 112.485 144.503 115.025 147.642C115.564 148.324 115.814 149.195 115.721 150.065C115.627 150.934 115.197 151.73 114.526 152.277C114.193 152.548 113.811 152.75 113.402 152.872C112.992 152.993 112.563 153.031 112.14 152.984C111.283 152.889 110.499 152.452 109.96 151.771C106.424 147.338 104.606 141.746 104.847 136.047C105.042 130.444 107.353 125.133 111.299 121.213V121.386ZM108.524 252.69C107.141 252.728 105.794 252.236 104.753 251.311C103.711 250.386 103.051 249.097 102.904 247.7C102.756 246.303 103.133 244.901 103.957 243.773C104.782 242.646 105.995 241.875 107.355 241.614C104.214 223.492 95.6191 213.529 86.5372 202.972C79.4763 194.764 72.1474 186.234 66.3526 173.675C60.6368 161.698 57.6572 148.565 57.6359 135.256C57.9254 120.893 61.5812 106.808 68.3004 94.1658L68.4465 93.9185C76.9511 78.9236 90.1247 67.2257 105.894 60.666C118.243 55.6266 131.606 53.6845 144.851 55.0044C157.983 56.2141 170.688 60.3595 182.055 67.1435C196.627 75.6567 208.046 88.7885 214.56 104.525C218.31 113.754 220.388 123.595 220.696 133.574C220.944 145.268 218.797 156.886 214.39 167.692C207.938 183.886 199.416 193.948 191.454 203.368C184.149 212.021 177.283 220.105 173.485 232.467C174.723 232.776 175.816 233.513 176.579 234.551C177.341 235.589 177.725 236.863 177.665 238.156C177.604 239.449 177.103 240.681 176.248 241.641C175.392 242.601 174.235 243.229 172.974 243.419L171.123 243.691C170.782 246.386 170.563 249.254 170.466 252.344H171.074C171.791 252.243 172.519 252.287 173.219 252.472C173.919 252.658 174.575 252.981 175.152 253.424C175.729 253.867 176.213 254.421 176.579 255.055C176.945 255.688 177.184 256.388 177.283 257.116C177.382 257.843 177.339 258.583 177.157 259.293C176.974 260.004 176.656 260.671 176.219 261.256C175.783 261.841 175.237 262.334 174.614 262.705C173.99 263.076 173.3 263.319 172.584 263.42L170.709 263.692V264.804C170.854 266.887 170.854 268.977 170.709 271.059H171.026C172.437 270.962 173.832 271.417 174.922 272.332C176.013 273.247 176.716 274.552 176.888 275.978C177.059 277.403 176.686 278.842 175.845 279.996C175.003 281.151 173.758 281.934 172.365 282.185L168.274 282.679C165.615 289.86 160.603 295.893 154.079 299.763C149.932 302.213 145.281 303.651 140.493 303.966C135.687 304.205 130.902 303.192 126.59 301.024C121.138 298.258 116.663 293.844 113.783 288.39C112.977 287.977 112.284 287.368 111.766 286.618C111.248 285.867 110.92 284.998 110.812 284.088C110.721 283.351 110.779 282.602 110.983 281.888C109.972 278.836 109.262 275.688 108.865 272.493H108.694C107.248 272.697 105.781 272.308 104.617 271.413C104.04 270.97 103.555 270.416 103.189 269.783C102.824 269.149 102.584 268.449 102.485 267.722C102.386 266.994 102.429 266.255 102.612 265.544C102.794 264.834 103.113 264.167 103.549 263.581C104.43 262.399 105.738 261.621 107.185 261.417L108.499 261.244C108.499 258.203 108.499 255.36 108.499 252.665L108.524 252.69ZM117.606 240.131L162.382 233.678C166.229 217.188 174.556 207.299 183.662 196.593C191.113 187.792 199.075 178.397 204.87 163.811C208.765 154.326 210.672 144.121 210.47 133.846C210.19 125.111 208.35 116.499 205.04 108.431C199.385 94.8121 189.478 83.4584 176.845 76.1179C166.8 70.1033 155.564 66.43 143.95 65.3634C132.322 64.1991 120.588 65.8951 109.741 70.308C96.09 76.0135 84.6852 86.1507 77.3093 99.1351C71.3925 110.273 68.1631 122.678 67.8865 135.33C67.9153 147.092 70.5622 158.697 75.6292 169.274C80.4929 179.112 86.7704 188.161 94.2556 196.124C104.506 208.04 114.197 219.314 117.606 240.131ZM160.678 245.224L118.75 251.256C118.75 253.951 118.92 256.794 118.75 259.786L160.142 253.827C160.142 250.786 160.312 247.919 160.556 245.224H160.678ZM119.286 271.035C119.552 273.143 119.984 275.226 120.576 277.265L160.629 272.32C160.899 270.081 160.948 267.82 160.775 265.571V265.101L119.383 271.084L119.286 271.035ZM126.274 287.822C127.739 289.388 129.461 290.685 131.362 291.654C134.134 293.01 137.202 293.623 140.274 293.434C143.458 293.212 146.549 292.247 149.307 290.615C152.066 288.977 154.442 286.75 156.271 284.088L126.274 287.822ZM269.466 123.685C270.358 123.589 271.26 123.673 272.12 123.932C272.981 124.191 273.782 124.62 274.479 125.194C275.176 125.769 275.754 126.477 276.181 127.279C276.607 128.08 276.874 128.959 276.965 129.866C277.149 131.698 276.608 133.53 275.462 134.958C274.316 136.386 272.658 137.293 270.853 137.481L249.89 139.73C248.995 139.826 248.091 139.74 247.23 139.477C246.369 139.213 245.568 138.779 244.874 138.198C243.803 137.335 243.011 136.167 242.6 134.843C242.189 133.519 242.178 132.1 242.568 130.77C242.959 129.44 243.733 128.259 244.79 127.38C245.848 126.5 247.14 125.962 248.502 125.836L269.466 123.611V123.685ZM230.021 37.1544C231.04 35.6337 232.604 34.5778 234.38 34.2123C235.257 34.032 236.162 34.0289 237.04 34.2034C237.919 34.3779 238.756 34.7265 239.502 35.2293C240.248 35.7321 240.889 36.3793 241.389 37.1338C241.889 37.8883 242.237 38.7354 242.415 39.6267C242.591 40.5178 242.591 41.4354 242.415 42.3266C242.24 43.2178 241.892 44.0648 241.392 44.8185L229.681 62.6191C229.183 63.3814 228.542 64.0361 227.794 64.5453C227.046 65.0545 226.206 65.4082 225.322 65.5859C223.547 65.9233 221.711 65.5418 220.209 64.5228C219.456 64.0198 218.81 63.3692 218.309 62.6093C217.807 61.8493 217.46 60.9954 217.287 60.0974C217.111 59.2049 217.112 58.2855 217.292 57.3936C217.472 56.5018 217.826 55.6557 218.334 54.9055L230.021 37.1049V37.1544ZM139.495 6.84389C139.521 4.97927 140.274 3.20118 141.589 1.89928C142.569 0.958209 143.801 0.332348 145.131 0.100366C146.46 -0.131616 147.827 0.0406322 149.061 0.59546C150.294 1.15029 151.338 2.06293 152.062 3.21868C152.786 4.37442 153.158 5.72169 153.13 7.09112L152.618 28.4766C152.65 29.4209 152.492 30.3619 152.154 31.2421C151.815 32.1222 151.303 32.923 150.65 33.5955C149.996 34.2679 149.214 34.7979 148.352 35.1529C147.489 35.508 146.565 35.6807 145.634 35.6605C144.704 35.6403 143.787 35.4276 142.941 35.0354C142.094 34.6432 141.335 34.0798 140.71 33.3796C140.086 32.6794 139.608 31.8571 139.307 30.9631C139.006 30.069 138.887 29.122 138.959 28.1799L139.495 6.76972V6.84389ZM34.0668 41.209C32.7936 39.9411 32.0583 38.2187 32.0174 36.4085C31.9764 34.5982 32.6332 32.8433 33.8477 31.5175C35.0635 30.2352 36.7219 29.4818 38.4738 29.4161C40.2728 29.3671 42.0197 30.0323 43.3435 31.2703C48.4323 36.2149 53.6428 41.0359 58.7559 45.8816C59.4268 46.5163 59.9662 47.2806 60.3425 48.1296C60.7188 48.9787 60.9244 49.8955 60.9472 50.8262C60.9878 52.6516 60.3337 54.4226 59.1211 55.7708C57.8725 57.0636 56.1762 57.8103 54.3934 57.8518C52.6106 57.8934 50.8823 57.2266 49.5766 55.9934C44.707 51.2218 39.2286 45.8816 34.1155 41.3573L34.0668 41.209Z" fill="#192A51"/>
</svg>
