<?xml version="1.0" encoding="UTF-8"?><svg id="b" xmlns="http://www.w3.org/2000/svg" xmlns:xlink="http://www.w3.org/1999/xlink" viewBox="0 0 500.25 800" style="shape-rendering: crispEdges;" ><defs><clipPath id="c"><rect x="100.25532" y="100.19149" width="300" height="300" fill="none"/></clipPath></defs><rect x="50" y="50" width="400" height="400" fill="#fcd289"/><rect x="50" y="450" width="100" height="100" fill="#fcc492"/><rect x="50" y="650" width="100" height="100" fill="#fca8a3"/><rect x="250" y="450" width="100" height="100" fill="#fcc492"/><rect x="150" y="450" width="100" height="100" fill="#fcc492"/><rect x="50" y="550" width="100" height="100" fill="#fcb69a"/><rect x="150" y="550" width="100" height="100" fill="#fcb69a"/><g clip-path="url(#c)" style="shape-rendering: auto;"><path d="M355.90532,355.81713h-44.49999v-69.62564c0-16.6-.27566-37.95001-23.12565-37.95001-23.13718,0-26.67436,18.08719-26.67436,36.77565v70.8h-44.45v-143.1632h42.66282v19.57474h.61282c5.93718-11.24974,20.44871-23.12462,42.08718-23.12462,45.06153,0,53.37436,29.63744,53.37436,68.20025l.01281,78.51283ZM166.99289,193.10406c-6.84603,0-13.41154-2.71962-18.25231-7.56039-4.84077-4.84077-7.56026-11.40628-7.56026-18.25218s2.71949-13.41141,7.56026-18.25218c4.84077-4.84077,11.40628-7.56038,18.25231-7.56038s13.41141,2.71962,18.25218,7.56038c4.84077,4.84077,7.56026,11.40628,7.56026,18.25218s-2.71949,13.41141-7.56026,18.25218c-4.84077,4.84077-11.40628,7.56039-18.25218,7.56039ZM189.25532,355.81713h-44.525v-143.1632h44.525v143.1632ZM387.75532,100.19149H112.75532c-3.3152,0-6.49463,1.31696-8.83883,3.66117-2.34421,2.3442-3.66117,5.52363-3.66117,8.83883v275c0,3.31538,1.31696,6.49486,3.66117,8.83846,2.3442,2.34488,5.52363,3.66154,8.83883,3.66154h275c3.31538,0,6.49486-1.31666,8.83846-3.66154,2.34488-2.34359,3.66154-5.52308,3.66154-8.83846V112.69149c0-3.3152-1.31666-6.49463-3.66154-8.83883-2.34359-2.34421-5.52308-3.66117-8.83846-3.66117Z" fill="#fb6fc6" fill-rule="evenodd"/></g></svg>