<svg width="77" height="86" viewBox="0 0 77 86" fill="none" xmlns="http://www.w3.org/2000/svg">
<circle cx="46" cy="55" r="31" fill="#192A51"/>
<circle cx="35.5" cy="35.5" r="33" fill="#FB6FC6" stroke="black" stroke-width="5"/>
<g clip-path="url(#clip0_279_58)">
<path fill-rule="evenodd" clip-rule="evenodd" d="M47.678 48.675H42.338V40.32C42.338 38.328 42.305 35.766 39.563 35.766C36.7865 35.766 36.362 37.9365 36.362 40.179V48.675H31.028V31.4955H36.1475V33.8445H36.221C36.9335 32.4945 38.675 31.0695 41.2715 31.0695C46.679 31.0695 47.6765 34.626 47.6765 39.2535L47.678 48.675ZM25.0085 29.1495C24.187 29.1495 23.3991 28.8232 22.8182 28.2423C22.2373 27.6614 21.911 26.8735 21.911 26.052C21.911 25.2305 22.2373 24.4426 22.8182 23.8617C23.3991 23.2808 24.187 22.9545 25.0085 22.9545C25.83 22.9545 26.6179 23.2808 27.1988 23.8617C27.7797 24.4426 28.106 25.2305 28.106 26.052C28.106 26.8735 27.7797 27.6614 27.1988 28.2423C26.6179 28.8232 25.83 29.1495 25.0085 29.1495ZM27.68 48.675H22.337V31.4955H27.68V48.675ZM51.5 18H18.5C18.1022 18 17.7206 18.158 17.4393 18.4393C17.158 18.7206 17 19.1022 17 19.5V52.5C17 52.8978 17.158 53.2794 17.4393 53.5607C17.7206 53.842 18.1022 54 18.5 54H51.5C51.8978 54 52.2794 53.842 52.5607 53.5607C52.842 53.2794 53 52.8978 53 52.5V19.5C53 19.1022 52.842 18.7206 52.5607 18.4393C52.2794 18.158 51.8978 18 51.5 18Z" fill="black"/>
</g>
<defs>
<clipPath id="clip0_279_58">
<rect width="36" height="36" fill="white" transform="translate(17 18)"/>
</clipPath>
</defs>
</svg>
