<svg width="52" height="58" viewBox="0 0 52 58" fill="none" xmlns="http://www.w3.org/2000/svg">
<circle cx="31.0134" cy="36.5411" r="20.5959" fill="#76838E"/>
<circle cx="24.0373" cy="23.5856" r="22.0856" fill="#B1CCE4" stroke="#7493AF" stroke-width="3"/>
<g clip-path="url(#clip0_130_45)">
<path fill-rule="evenodd" clip-rule="evenodd" d="M32.1281 32.3388H28.5802V26.7879C28.5802 25.4645 28.5583 23.7623 26.7366 23.7623C24.8919 23.7623 24.6099 25.2043 24.6099 26.6942V32.3388H21.0661V20.9251H24.4674V22.4857H24.5162C24.9896 21.5888 26.1466 20.642 27.8717 20.642C31.4643 20.642 32.1271 23.0049 32.1271 26.0793L32.1281 32.3388ZM17.0668 19.3664C16.521 19.3664 15.9976 19.1496 15.6116 18.7637C15.2257 18.3777 15.0089 17.8543 15.0089 17.3085C15.0089 16.7627 15.2257 16.2392 15.6116 15.8533C15.9976 15.4674 16.521 15.2506 17.0668 15.2506C17.6126 15.2506 18.136 15.4674 18.522 15.8533C18.9079 16.2392 19.1247 16.7627 19.1247 17.3085C19.1247 17.8543 18.9079 18.3777 18.522 18.7637C18.136 19.1496 17.6126 19.3664 17.0668 19.3664ZM18.8417 32.3388H15.2919V20.9251H18.8417V32.3388ZM34.6673 11.9589H12.7427C12.4784 11.9589 12.2249 12.0639 12.038 12.2508C11.8511 12.4376 11.7461 12.6911 11.7461 12.9554V34.8801C11.7461 35.1444 11.8511 35.3979 12.038 35.5848C12.2249 35.7717 12.4784 35.8767 12.7427 35.8767H34.6673C34.9316 35.8767 35.1851 35.7717 35.372 35.5848C35.5589 35.3979 35.6639 35.1444 35.6639 34.8801V12.9554C35.6639 12.6911 35.5589 12.4376 35.372 12.2508C35.1851 12.0639 34.9316 11.9589 34.6673 11.9589Z" fill="#76838E"/>
</g>
<defs>
<clipPath id="clip0_130_45">
<rect width="23.9178" height="23.9178" fill="white" transform="translate(11.7461 11.9589)"/>
</clipPath>
</defs>
</svg>
