<svg width="52" height="58" viewBox="0 0 52 58" fill="none" xmlns="http://www.w3.org/2000/svg">
<circle cx="30.6779" cy="37.1575" r="20.5959" fill="black"/>
<circle cx="23.7018" cy="24.2021" r="22.0856" fill="url(#paint0_linear_185_6)" stroke="black" stroke-width="3"/>
<g clip-path="url(#clip0_185_6)">
<path fill-rule="evenodd" clip-rule="evenodd" d="M31.7926 32.9553H28.2448V27.4044C28.2448 26.081 28.2229 24.3788 26.4011 24.3788C24.5565 24.3788 24.2744 25.8209 24.2744 27.3107V32.9553H20.7306V21.5416H24.1319V23.1022H24.1808C24.6541 22.2053 25.8112 21.2585 27.5362 21.2585C31.1289 21.2585 31.7916 23.6214 31.7916 26.6959L31.7926 32.9553ZM16.7314 19.9829C16.1856 19.9829 15.6621 19.7661 15.2762 19.3802C14.8902 18.9942 14.6734 18.4708 14.6734 17.925C14.6734 17.3792 14.8902 16.8558 15.2762 16.4698C15.6621 16.0839 16.1856 15.8671 16.7314 15.8671C17.2772 15.8671 17.8006 16.0839 18.1865 16.4698C18.5725 16.8558 18.7893 17.3792 18.7893 17.925C18.7893 18.4708 18.5725 18.9942 18.1865 19.3802C17.8006 19.7661 17.2772 19.9829 16.7314 19.9829ZM18.5063 32.9553H14.9565V21.5416H18.5063V32.9553ZM34.3319 12.5754H12.4072C12.1429 12.5754 11.8894 12.6804 11.7025 12.8673C11.5156 13.0542 11.4106 13.3076 11.4106 13.572V35.4966C11.4106 35.7609 11.5156 36.0144 11.7025 36.2013C11.8894 36.3882 12.1429 36.4932 12.4072 36.4932H34.3319C34.5962 36.4932 34.8497 36.3882 35.0366 36.2013C35.2235 36.0144 35.3285 35.7609 35.3285 35.4966V13.572C35.3285 13.3076 35.2235 13.0542 35.0366 12.8673C34.8497 12.6804 34.5962 12.5754 34.3319 12.5754Z" fill="#192A51"/>
</g>
<defs>
<linearGradient id="paint0_linear_185_6" x1="23.7018" y1="47.7877" x2="23.7018" y2="0.616455" gradientUnits="userSpaceOnUse">
<stop stop-color="#FB6FC6"/>
<stop offset="1" stop-color="#FCFF6C"/>
</linearGradient>
<clipPath id="clip0_185_6">
<rect width="23.9178" height="23.9178" fill="white" transform="translate(11.4106 12.5754)"/>
</clipPath>
</defs>
</svg>
