<?xml version="1.0" encoding="UTF-8"?><svg xmlns="http://www.w3.org/2000/svg" viewBox="0 0 1450 850" ><g id="pixels" style="shape-rendering: crispEdges"><rect width="200" height="200" fill="#fc98ad"/><rect y="250" width="200" height="200" fill="#fc98ad"/><rect y="500" width="200" height="200" fill="#fc98ad"/><rect x="250" width="200" height="200" fill="#fca8a3"/><rect x="250" y="250" width="200" height="200" fill="#fca8a3"/><rect x="250" y="500" width="200" height="200" fill="#fca8a3"/><rect x="500" width="200" height="200" fill="#fcb69a"/><rect x="500" y="250" width="200" height="200" fill="#fcb69a"/><rect x="500" y="500" width="200" height="200" fill="#fcb69a"/><rect x="750" width="200" height="200" fill="#fcc492"/><rect x="750" y="500" width="200" height="200" fill="#fcc492"/><rect x="1000" width="200" height="200" fill="#fcd289"/><rect x="1000" y="500" width="200" height="200" fill="#fcd289"/><rect x="1250" y="500" width="200" height="200" fill="#fce081"/><rect x="1250" y="700" width="50" height="50" fill="#fcd289"/><rect x="1300" y="700" width="50" height="50" fill="#fcd289"/><rect x="1350" y="700" width="50" height="50" fill="#fcd289"/><rect x="1250" y="750" width="50" height="50" fill="#fcc492"/><rect x="1300" y="750" width="50" height="50" fill="#fcc492"/><rect x="1250" y="800" width="50" height="50" fill="#fcb69a"/><rect x="1000" y="700" width="50" height="50" fill="#fcc492"/><rect x="1050" y="700" width="50" height="50" fill="#fcc492"/><rect x="1100" y="700" width="50" height="50" fill="#fcc492"/><rect x="1000" y="750" width="50" height="50" fill="#fcb69a"/><rect x="1050" y="750" width="50" height="50" fill="#fcb69a"/><rect x="1000" y="800" width="50" height="50" fill="#fca8a3"/><rect x="750" y="700" width="50" height="50" fill="#fcb69a"/><rect x="800" y="700" width="50" height="50" fill="#fcb69a"/><rect x="850" y="700" width="50" height="50" fill="#fcb69a"/><rect x="750" y="750" width="50" height="50" fill="#fca8a3"/><rect x="800" y="750" width="50" height="50" fill="#fca8a3"/><rect x="750" y="800" width="50" height="50" fill="#fc98ad"/><rect x="500" y="700" width="50" height="50" fill="#fca8a3"/><rect x="550" y="700" width="50" height="50" fill="#fca8a3"/><rect x="600" y="700" width="50" height="50" fill="#fca8a3"/><rect x="500" y="750" width="50" height="50" fill="#fc98ad"/><rect x="550" y="750" width="50" height="50" fill="#fc98ad"/><rect x="500" y="800" width="50" height="50" fill="#fc84bb"/><rect x="250" y="700" width="50" height="50" fill="#fc98ad"/><rect x="300" y="700" width="50" height="50" fill="#fc98ad"/><rect x="350" y="700" width="50" height="50" fill="#fc98ad"/><rect x="250" y="750" width="50" height="50" fill="#fc8ab7"/><rect x="300" y="750" width="50" height="50" fill="#fc8ab7"/><rect x="250" y="800" width="50" height="50" fill="#fc7ebe"/><rect y="700" width="50" height="50" fill="#fc8ab7"/><rect x="50" y="700" width="50" height="50" fill="#fc8ab7"/><rect x="100" y="700" width="50" height="50" fill="#fc8ab7"/><rect y="750" width="50" height="50" fill="#fc7ebe"/><rect x="50" y="750" width="50" height="50" fill="#fc7ebe"/><rect y="800" width="50" height="50" fill="#fc71c6"/><rect x="1000" y="200" width="50" height="50" fill="#fcc492"/><rect x="1050" y="200" width="50" height="50" fill="#fcc492"/><rect x="1100" y="200" width="50" height="50" fill="#fcc492"/><rect x="1000" y="250" width="50" height="50" fill="#fcb69a"/><rect x="1050" y="250" width="50" height="50" fill="#fcb69a"/><rect x="1000" y="300" width="50" height="50" fill="#fca8a3"/><rect x="750" y="200" width="50" height="50" fill="#fcb69a"/><rect x="800" y="200" width="50" height="50" fill="#fcb69a"/><rect x="850" y="200" width="50" height="50" fill="#fcb69a"/><rect x="750" y="250" width="50" height="50" fill="#fca8a3"/><rect x="800" y="250" width="50" height="50" fill="#fca8a3"/><rect x="750" y="300" width="50" height="50" fill="#fc98ad"/><rect x="500" y="200" width="50" height="50" fill="#fca8a3"/><rect x="550" y="200" width="50" height="50" fill="#fca8a3"/><rect x="600" y="200" width="50" height="50" fill="#fca8a3"/><rect x="500" y="450" width="50" height="50" fill="#fca8a3"/><rect x="550" y="450" width="50" height="50" fill="#fca8a3"/><rect x="600" y="450" width="50" height="50" fill="#fca8a3"/><rect x="250" y="200" width="50" height="50" fill="#fc98ad"/><rect x="300" y="200" width="50" height="50" fill="#fc98ad"/><rect x="350" y="200" width="50" height="50" fill="#fc98ad"/><rect x="250" y="450" width="50" height="50" fill="#fc98ad"/><rect x="300" y="450" width="50" height="50" fill="#fc98ad"/><rect x="350" y="450" width="50" height="50" fill="#fc98ad"/><rect y="200" width="50" height="50" fill="#fc8ab7"/><rect x="50" y="199.9998" width="50" height="50" fill="#fc8ab7"/><rect x="100" y="200" width="50" height="50" fill="#fc8ab7"/><rect y="450" width="50" height="50" fill="#fc8ab7"/><rect x="50" y="450" width="50" height="50" fill="#fc8ab7"/><rect x="100" y="450" width="50" height="50" fill="#fc8ab7"/></g><g id="c"><path d="M53.6001,168.75V34.5498h51.5c15.46533,0,27.73291,3.71729,36.7998,11.15039,9.06592,7.43408,13.6001,18.41699,13.6001,32.94971,0,14.46729-4.53418,25.4502-13.6001,32.9502-9.06689,7.5-21.33447,11.25-36.7998,11.25h-19.30029v45.8999h-32.19971ZM85.7998,94.8501h19.30029c5.7998,0,10.18262-1.61572,13.1499-4.8501,2.96582-3.23291,4.4502-7.01562,4.4502-11.3501,0-4.3999-1.48438-8.23291-4.4502-11.5-2.96729-3.26562-7.3501-4.8999-13.1499-4.8999h-19.30029v32.6001Z" fill="#192a51"/><path d="M335.6499,168.75V34.5498h32v134.2002h-32Z" fill="#192a51"/><path d="M532.39746,168.75l47.39941-66.8999-47.39941-67.30029h39.69922l29.2002,42.2002,23.40039-42.2002h38.59961l-44,66.7002,51.40039,67.5h-40.5l-31.90039-42-27.09961,42h-38.7998Z" fill="#192a51"/><path d="M804.2002,168.75V34.5498h89.69971v27.7002h-57.69971v25.7998h54.09961v27.80029h-54.09961v24.8999h57.69971v28h-89.69971Z" fill="#192a51"/><path d="M1090.60742,34.5498v106.2002h50.7002v28h-82.7002V34.5498h32Z" fill="#192a51"/></g><g id="d"><path d="M553.6001,418.75v-134.2002h51.5c15.46533,0,27.73291,3.71777,36.7998,11.15039,9.06592,7.43457,13.6001,18.41699,13.6001,32.9502,0,14.4668-4.53418,25.4502-13.6001,32.9502-9.06689,7.5-21.33447,11.25-36.7998,11.25h-19.30029v45.89941h-32.19971ZM585.7998,344.85059h19.30029c5.7998,0,10.18262-1.61621,13.1499-4.85059,2.96582-3.23242,4.4502-7.01562,4.4502-11.34961,0-4.40039-1.48438-8.2334-4.4502-11.5-2.96729-3.26562-7.3501-4.90039-13.1499-4.90039h-19.30029v32.60059Z" fill="#192a51"/><path d="M350.06396,421.9502c-12.73438,0-23.8501-2.68457-33.3501-8.05029s-16.88428-13.2998-22.1499-23.7998c-5.26709-10.5-7.8999-23.4502-7.8999-38.8501,0-15.7998,2.63281-28.8501,7.8999-39.1499,5.26562-10.30029,12.6499-17.96582,22.1499-23,9.5-5.03271,20.61572-7.55029,33.3501-7.55029,12.86572,0,24.08301,2.63477,33.6499,7.90039,9.56592,5.26709,16.98291,13.06689,22.25,23.3999,5.26562,10.33447,7.8999,23.13428,7.8999,38.3999,0,15.66699-2.63428,28.75-7.8999,39.25-5.26709,10.5-12.68408,18.36719-22.25,23.6001-9.56689,5.23291-20.78418,7.8501-33.6499,7.8501ZM350.06396,393.25c9.33301,0,16.7998-3.68262,22.3999-11.0498,5.6001-7.36572,8.3999-17.75,8.3999-31.15039,0-12.59961-2.7998-22.5498-8.3999-29.84961-5.6001-7.30029-13.06689-10.9502-22.3999-10.9502-9.06738,0-16.3999,3.6499-22,10.9502-5.6001,7.2998-8.3999,17.31689-8.3999,30.0498,0,13.26709,2.7998,23.58447,8.3999,30.9502,5.6001,7.36719,12.93262,11.0498,22,11.0498Z" fill="#192a51"/><path d="M53.43896,418.75v-132.85742h50.98486c15.31104,0,27.45557,3.67969,36.43213,11.03809,8.9751,7.36035,13.46387,18.2334,13.46387,32.62012,0,14.32324-4.48877,25.19629-13.46387,32.62109-8.97656,7.4248-21.12109,11.1377-36.43213,11.1377h-19.10693v45.44043h-31.87793ZM85.31689,345.58887h19.10693c5.74219,0,10.08105-1.59863,13.01855-4.80078,2.93604-3.20117,4.40576-6.94629,4.40576-11.2373,0-4.35547-1.46973-8.15039-4.40576-11.38477-2.9375-3.23242-7.27637-4.85059-13.01855-4.85059h-19.10693v32.27344Z" fill="#192a51"/></g><g id="e"><path d="M98.6499,671.95117c-9.6001,0-18.5-1.61719-26.69971-4.85059-8.2002-3.2334-14.86719-8.2998-20-15.2002-5.13477-6.90039-7.96729-15.88281-8.5-26.94922h31.59961c0,4.06641,1.0332,7.43359,3.1001,10.09961,2.06592,2.66699,4.88281,4.63477,8.4502,5.90039,3.56543,1.2666,7.51562,1.89941,11.8501,1.89941,3.46533,0,6.71533-.2998,9.75-.89941,3.03271-.60059,5.48242-1.66602,7.34961-3.20117,1.86572-1.53223,2.80029-3.63281,2.80029-6.29883,0-3.26562-.98438-5.70117-2.9502-7.30078-1.96729-1.59961-5.51709-3.43262-10.6499-5.5l-29.2002-12.69922c-9.59961-4.13281-17.06689-9-22.3999-14.60059-5.33447-5.60059-8-13.2334-8-22.89941,0-11.33398,4.61572-20.4834,13.8501-27.45117,9.23291-6.96484,21.88281-10.44922,37.9502-10.44922,16.33252,0,28.86523,3.84961,37.59961,11.5498,8.73291,7.7002,13.63281,18.68457,14.7002,32.9502h-31.3999c-.80029-4.40039-2.75-8.09961-5.8501-11.09961s-8.11719-4.5-15.0498-4.5c-5,0-9.03467.91602-12.1001,2.75-3.06738,1.83398-4.6001,4.11719-4.6001,6.84961,0,2.53418.98291,4.53418,2.9502,6,1.96533,1.4668,4.91553,3.06641,8.84961,4.7998l30.90039,13.10059c10.26562,4.4668,17.91553,9.69922,22.94971,15.69922,5.03271,6,7.55029,13.2002,7.55029,21.59961,0,9-2.15039,16.51758-6.4502,22.55078-4.2998,6.03418-10.53418,10.56641-18.7002,13.59961-8.16699,3.0332-18.0498,4.55078-29.6499,4.55078Z" fill="#192a51"/><path d="M294.9502,562.25v-27.7002h110.5v27.7002h-46.30029l7.2002-7.2002v113.7002h-32v-113.7002l7.19971,7.2002h-46.59961Z" fill="#192a51"/><path d="M543.35352,534.55078h32v81.40039c0,9.5332,2.43262,16.39941,7.2998,20.59961,4.86621,4.19922,10.96582,6.2998,18.2998,6.2998,7.46582,0,13.65039-2.10059,18.55078-6.2998,4.89941-4.2002,7.34961-11.06641,7.34961-20.59961v-81.40039h31.90039v81.40039c0,11.33398-2.23438,21.19922-6.7002,29.59961-4.46777,8.40039-11,14.90039-19.60059,19.5-8.59961,4.59961-19.09961,6.90039-31.5,6.90039-12.39941,0-22.88379-2.30078-31.44922-6.90039-8.56738-4.59961-15.06738-11.09961-19.5-19.5-4.43457-8.40039-6.65039-18.26562-6.65039-29.59961v-81.40039Z" fill="#192a51"/><path d="M791.8999,534.5498h47.5c13.80029,0,25.96582,2.73438,36.5,8.2002,10.53271,5.46777,18.78271,13.21777,24.75,23.25,5.96582,10.03418,8.9502,21.98438,8.9502,35.85059,0,13.66699-2.98438,25.5166-8.9502,35.5498-5.96729,10.03418-14.21729,17.7666-24.75,23.2002-10.53418,5.43359-22.69971,8.14941-36.5,8.14941h-47.5v-134.2002ZM823.8999,563.9502v75.59961h15.5c7.26562,0,13.55029-1.64941,18.8501-4.94922,5.2998-3.30078,9.3999-7.7832,12.2998-13.4502,2.90039-5.66602,4.3501-12.10059,4.3501-19.2998,0-7.46582-1.44971-14.0332-4.3501-19.7002-2.8999-5.66602-7-10.11621-12.2998-13.35059-5.2998-3.23242-11.58447-4.84961-18.8501-4.84961h-15.5Z" fill="#192a51"/><path d="M1085.65039,668.75v-134.19922h32v134.19922h-32Z" fill="#192a51"/><path d="M1351.08496,668.88672c-12.73438,0-23.84961-2.68457-33.34961-8.05078-9.5-5.36523-16.88477-13.2998-22.15039-23.7998-5.2666-10.5-7.89941-23.4502-7.89941-38.84961,0-15.7998,2.63281-28.85059,7.89941-39.15039,5.26562-10.2998,12.65039-17.96582,22.15039-23,9.5-5.03223,20.61523-7.5498,33.34961-7.5498,12.86621,0,24.08301,2.63477,33.65039,7.90039,9.56543,5.2666,16.98242,13.06641,22.25,23.39941,5.26562,10.33496,7.89941,23.13477,7.89941,38.40039,0,15.66699-2.63379,28.75-7.89941,39.25-5.26758,10.5-12.68457,18.36719-22.25,23.59961-9.56738,5.2334-20.78418,7.85059-33.65039,7.85059ZM1351.08496,640.18652c9.33301,0,16.7998-3.68262,22.40039-11.0498,5.59961-7.36621,8.39941-17.75,8.39941-31.15039,0-12.59961-2.7998-22.5498-8.39941-29.84961-5.60059-7.30078-13.06738-10.9502-22.40039-10.9502-9.06738,0-16.39941,3.64941-22,10.9502-5.59961,7.2998-8.39941,17.31641-8.39941,30.0498,0,13.2666,2.7998,23.58398,8.39941,30.9502,5.60059,7.36719,12.93262,11.0498,22,11.0498Z" fill="#192a51"/></g></svg>