<svg width="368" height="67" viewBox="0 0 368 67" fill="none" xmlns="http://www.w3.org/2000/svg">
<g filter="url(#filter0_d_63_205)">
<mask id="path-1-outside-1_63_205" maskUnits="userSpaceOnUse" x="-2" y="-2" width="366" height="65" fill="black">
<rect fill="white" x="-2" y="-2" width="366" height="65"/>
<path d="M0 47V0.454544H20.0909C23.5455 0.454544 26.5682 1.13636 29.1591 2.5C31.75 3.86363 33.7652 5.7803 35.2045 8.25C36.6439 10.7197 37.3636 13.6061 37.3636 16.9091C37.3636 20.2424 36.6212 23.1288 35.1364 25.5682C33.6667 28.0076 31.5985 29.8864 28.9318 31.2045C26.2803 32.5227 23.1818 33.1818 19.6364 33.1818H7.63636V23.3636H17.0909C18.5758 23.3636 19.8409 23.1061 20.8864 22.5909C21.947 22.0606 22.7576 21.3106 23.3182 20.3409C23.8939 19.3712 24.1818 18.2273 24.1818 16.9091C24.1818 15.5758 23.8939 14.4394 23.3182 13.5C22.7576 12.5455 21.947 11.8182 20.8864 11.3182C19.8409 10.803 18.5758 10.5455 17.0909 10.5455H12.6364V47H0ZM54.8266 47.5455C52.5993 47.5455 50.6296 47.1818 48.9175 46.4545C47.2205 45.7121 45.8872 44.5909 44.9175 43.0909C43.9478 41.5909 43.463 39.6818 43.463 37.3636C43.463 35.4545 43.7887 33.8258 44.4402 32.4773C45.0917 31.1136 46.0008 30 47.1675 29.1364C48.3342 28.2727 49.6902 27.6136 51.2357 27.1591C52.7963 26.7045 54.4781 26.4091 56.2811 26.2727C58.2357 26.1212 59.8039 25.9394 60.9857 25.7273C62.1827 25.5 63.0463 25.1894 63.5766 24.7955C64.1069 24.3864 64.372 23.8485 64.372 23.1818V23.0909C64.372 22.1818 64.0236 21.4848 63.3266 21C62.6296 20.5152 61.7357 20.2727 60.6448 20.2727C59.4478 20.2727 58.4705 20.5379 57.713 21.0682C56.9705 21.5833 56.5236 22.3788 56.372 23.4545H44.8266C44.9781 21.3333 45.6523 19.3788 46.8493 17.5909C48.0614 15.7879 49.8266 14.3485 52.1448 13.2727C54.463 12.1818 57.3569 11.6364 60.8266 11.6364C63.3266 11.6364 65.569 11.9318 67.5539 12.5227C69.5387 13.0985 71.2281 13.9091 72.622 14.9545C74.016 15.9848 75.0766 17.197 75.8039 18.5909C76.5463 19.9697 76.9175 21.4697 76.9175 23.0909V47H65.1902V42.0909H64.9175C64.2205 43.3939 63.372 44.447 62.372 45.25C61.3872 46.053 60.2584 46.6364 58.9857 47C57.7281 47.3636 56.3417 47.5455 54.8266 47.5455ZM58.9175 39.6364C59.872 39.6364 60.766 39.4394 61.5993 39.0455C62.4478 38.6515 63.1372 38.0833 63.6675 37.3409C64.1978 36.5985 64.463 35.697 64.463 34.6364V31.7273C64.1296 31.8636 63.7736 31.9924 63.3948 32.1136C63.0311 32.2348 62.6372 32.3485 62.213 32.4545C61.8039 32.5606 61.3645 32.6591 60.8948 32.75C60.4402 32.8409 59.963 32.9242 59.463 33C58.4933 33.1515 57.6978 33.4015 57.0766 33.75C56.4705 34.0833 56.016 34.5 55.713 35C55.4251 35.4848 55.2811 36.0303 55.2811 36.6364C55.2811 37.6061 55.622 38.3485 56.3039 38.8636C56.9857 39.3788 57.8569 39.6364 58.9175 39.6364ZM104.21 47.6364C100.422 47.6364 97.1797 46.8864 94.4827 45.3864C91.7858 43.8712 89.7176 41.7652 88.2782 39.0682C86.8388 36.3561 86.1191 33.2121 86.1191 29.6364C86.1191 26.0606 86.8388 22.9242 88.2782 20.2273C89.7176 17.5152 91.7858 15.4091 94.4827 13.9091C97.1797 12.3939 100.422 11.6364 104.21 11.6364C107.634 11.6364 110.596 12.2576 113.096 13.5C115.612 14.7273 117.558 16.4697 118.937 18.7273C120.316 20.9697 121.013 23.6061 121.028 26.6364H109.392C109.225 24.803 108.695 23.4091 107.801 22.4545C106.922 21.4848 105.786 21 104.392 21C103.301 21 102.346 21.3182 101.528 21.9545C100.71 22.5758 100.074 23.5227 99.6191 24.7955C99.1645 26.053 98.9373 27.6364 98.9373 29.5455C98.9373 31.4545 99.1645 33.0455 99.6191 34.3182C100.074 35.5758 100.71 36.5227 101.528 37.1591C102.346 37.7803 103.301 38.0909 104.392 38.0909C105.316 38.0909 106.134 37.8788 106.846 37.4545C107.558 37.0152 108.134 36.3788 108.574 35.5455C109.028 34.697 109.301 33.6667 109.392 32.4545H121.028C120.983 35.5303 120.278 38.2121 118.915 40.5C117.551 42.7727 115.619 44.5303 113.119 45.7727C110.634 47.0152 107.665 47.6364 104.21 47.6364ZM141.957 38.7273L142.048 23.8182H143.684L152.139 12.0909H166.23L152.048 30.3636H148.503L141.957 38.7273ZM130.684 47V0.454544H143.23V47H130.684ZM152.23 47L144.23 33.1818L152.412 24.2727L166.593 47H152.23ZM183.704 47.5455C181.477 47.5455 179.507 47.1818 177.795 46.4545C176.098 45.7121 174.765 44.5909 173.795 43.0909C172.825 41.5909 172.34 39.6818 172.34 37.3636C172.34 35.4545 172.666 33.8258 173.318 32.4773C173.969 31.1136 174.878 30 176.045 29.1364C177.212 28.2727 178.568 27.6136 180.113 27.1591C181.674 26.7045 183.356 26.4091 185.159 26.2727C187.113 26.1212 188.681 25.9394 189.863 25.7273C191.06 25.5 191.924 25.1894 192.454 24.7955C192.984 24.3864 193.25 23.8485 193.25 23.1818V23.0909C193.25 22.1818 192.901 21.4848 192.204 21C191.507 20.5152 190.613 20.2727 189.522 20.2727C188.325 20.2727 187.348 20.5379 186.59 21.0682C185.848 21.5833 185.401 22.3788 185.25 23.4545H173.704C173.856 21.3333 174.53 19.3788 175.727 17.5909C176.939 15.7879 178.704 14.3485 181.022 13.2727C183.34 12.1818 186.234 11.6364 189.704 11.6364C192.204 11.6364 194.447 11.9318 196.431 12.5227C198.416 13.0985 200.106 13.9091 201.5 14.9545C202.893 15.9848 203.954 17.197 204.681 18.5909C205.424 19.9697 205.795 21.4697 205.795 23.0909V47H194.068V42.0909H193.795C193.098 43.3939 192.25 44.447 191.25 45.25C190.265 46.053 189.136 46.6364 187.863 47C186.606 47.3636 185.219 47.5455 183.704 47.5455ZM187.795 39.6364C188.75 39.6364 189.643 39.4394 190.477 39.0455C191.325 38.6515 192.015 38.0833 192.545 37.3409C193.075 36.5985 193.34 35.697 193.34 34.6364V31.7273C193.007 31.8636 192.651 31.9924 192.272 32.1136C191.909 32.2348 191.515 32.3485 191.09 32.4545C190.681 32.5606 190.242 32.6591 189.772 32.75C189.318 32.8409 188.84 32.9242 188.34 33C187.371 33.1515 186.575 33.4015 185.954 33.75C185.348 34.0833 184.893 34.5 184.59 35C184.303 35.4848 184.159 36.0303 184.159 36.6364C184.159 37.6061 184.5 38.3485 185.181 38.8636C185.863 39.3788 186.734 39.6364 187.795 39.6364ZM233.087 60.8182C229.587 60.8182 226.587 60.3182 224.087 59.3182C221.603 58.3333 219.671 56.9697 218.292 55.2273C216.928 53.5 216.163 51.5152 215.997 49.2727H228.087C228.209 50.0152 228.512 50.6136 228.997 51.0682C229.481 51.5227 230.103 51.8485 230.86 52.0455C231.633 52.2576 232.497 52.3636 233.451 52.3636C235.072 52.3636 236.413 51.9697 237.474 51.1818C238.55 50.3939 239.087 48.9697 239.087 46.9091V41H238.724C238.269 42.1818 237.572 43.1894 236.633 44.0227C235.694 44.8409 234.565 45.4697 233.247 45.9091C231.928 46.3333 230.481 46.5455 228.906 46.5455C226.421 46.5455 224.133 45.9697 222.042 44.8182C219.966 43.6667 218.3 41.8409 217.042 39.3409C215.8 36.8409 215.178 33.5758 215.178 29.5455C215.178 25.3333 215.83 21.9091 217.133 19.2727C218.451 16.6364 220.148 14.7045 222.224 13.4773C224.315 12.25 226.512 11.6364 228.815 11.6364C230.542 11.6364 232.057 11.9394 233.36 12.5455C234.663 13.1364 235.754 13.9318 236.633 14.9318C237.512 15.9167 238.178 17 238.633 18.1818H238.906V12.0909H251.451V46.9091C251.451 49.8636 250.686 52.3712 249.156 54.4318C247.641 56.5076 245.504 58.0909 242.747 59.1818C239.989 60.2727 236.769 60.8182 233.087 60.8182ZM233.542 37.6364C234.694 37.6364 235.678 37.3182 236.497 36.6818C237.33 36.0303 237.966 35.1061 238.406 33.9091C238.86 32.697 239.087 31.2424 239.087 29.5455C239.087 27.8182 238.86 26.3409 238.406 25.1136C237.966 23.8712 237.33 22.9242 236.497 22.2727C235.678 21.6061 234.694 21.2727 233.542 21.2727C232.391 21.2727 231.406 21.6061 230.587 22.2727C229.784 22.9242 229.163 23.8712 228.724 25.1136C228.3 26.3409 228.087 27.8182 228.087 29.5455C228.087 31.2727 228.3 32.7424 228.724 33.9545C229.163 35.1515 229.784 36.0682 230.587 36.7045C231.406 37.3258 232.391 37.6364 233.542 37.6364ZM279.039 47.6364C275.312 47.6364 272.1 46.9242 269.403 45.5C266.721 44.0606 264.653 42 263.198 39.3182C261.759 36.6212 261.039 33.3939 261.039 29.6364C261.039 26.0303 261.766 22.8788 263.221 20.1818C264.675 17.4848 266.728 15.3864 269.38 13.8864C272.032 12.3864 275.16 11.6364 278.766 11.6364C281.403 11.6364 283.789 12.0455 285.925 12.8636C288.062 13.6818 289.888 14.8712 291.403 16.4318C292.918 17.9773 294.085 19.8561 294.903 22.0682C295.721 24.2803 296.13 26.7727 296.13 29.5455V32.4545H264.948V25.5455H284.585C284.569 24.5455 284.312 23.6667 283.812 22.9091C283.327 22.1364 282.668 21.5379 281.835 21.1136C281.016 20.6742 280.085 20.4545 279.039 20.4545C278.024 20.4545 277.092 20.6742 276.244 21.1136C275.395 21.5379 274.713 22.1288 274.198 22.8864C273.698 23.6439 273.433 24.5303 273.403 25.5455V33C273.403 34.1212 273.638 35.1212 274.107 36C274.577 36.8788 275.251 37.5682 276.13 38.0682C277.009 38.5682 278.069 38.8182 279.312 38.8182C280.175 38.8182 280.963 38.697 281.675 38.4545C282.403 38.2121 283.024 37.8636 283.539 37.4091C284.054 36.9394 284.433 36.3788 284.675 35.7273H296.13C295.736 38.1515 294.804 40.2576 293.335 42.0455C291.865 43.8182 289.918 45.197 287.494 46.1818C285.085 47.1515 282.266 47.6364 279.039 47.6364ZM337.638 23.4545H326.093C326.032 22.7424 325.782 22.1288 325.343 21.6136C324.904 21.0985 324.335 20.7045 323.638 20.4318C322.957 20.1439 322.199 20 321.366 20C320.29 20 319.366 20.197 318.593 20.5909C317.82 20.9848 317.441 21.5455 317.457 22.2727C317.441 22.7879 317.661 23.2652 318.116 23.7045C318.585 24.1439 319.487 24.4848 320.82 24.7273L327.911 26C331.487 26.6515 334.146 27.75 335.888 29.2955C337.646 30.8258 338.532 32.8788 338.547 35.4545C338.532 37.9394 337.79 40.0985 336.32 41.9318C334.866 43.75 332.873 45.1591 330.343 46.1591C327.828 47.1439 324.957 47.6364 321.729 47.6364C316.396 47.6364 312.222 46.5455 309.207 44.3636C306.207 42.1818 304.532 39.303 304.184 35.7273H316.638C316.805 36.8333 317.351 37.6894 318.275 38.2955C319.214 38.8864 320.396 39.1818 321.82 39.1818C322.972 39.1818 323.919 38.9848 324.661 38.5909C325.419 38.197 325.805 37.6364 325.82 36.9091C325.805 36.2424 325.472 35.7121 324.82 35.3182C324.184 34.9242 323.184 34.6061 321.82 34.3636L315.638 33.2727C312.078 32.6515 309.411 31.4697 307.638 29.7273C305.866 27.9848 304.987 25.7424 305.002 23C304.987 20.5758 305.623 18.5227 306.911 16.8409C308.214 15.1439 310.07 13.8561 312.479 12.9773C314.904 12.0833 317.775 11.6364 321.093 11.6364C326.138 11.6364 330.116 12.6818 333.025 14.7727C335.949 16.8636 337.487 19.7576 337.638 23.4545Z"/>
<path d="M354.652 47.7273C352.895 47.7273 351.387 47.1136 350.13 45.8864C348.887 44.6439 348.274 43.1364 348.289 41.3636C348.274 39.6364 348.887 38.1591 350.13 36.9318C351.387 35.7045 352.895 35.0909 354.652 35.0909C356.319 35.0909 357.789 35.7045 359.062 36.9318C360.349 38.1591 361.001 39.6364 361.016 41.3636C361.001 42.5455 360.69 43.6212 360.084 44.5909C359.493 45.5455 358.721 46.3106 357.766 46.8864C356.812 47.447 355.774 47.7273 354.652 47.7273Z"/>
</mask>
<path d="M0 47V0.454544H20.0909C23.5455 0.454544 26.5682 1.13636 29.1591 2.5C31.75 3.86363 33.7652 5.7803 35.2045 8.25C36.6439 10.7197 37.3636 13.6061 37.3636 16.9091C37.3636 20.2424 36.6212 23.1288 35.1364 25.5682C33.6667 28.0076 31.5985 29.8864 28.9318 31.2045C26.2803 32.5227 23.1818 33.1818 19.6364 33.1818H7.63636V23.3636H17.0909C18.5758 23.3636 19.8409 23.1061 20.8864 22.5909C21.947 22.0606 22.7576 21.3106 23.3182 20.3409C23.8939 19.3712 24.1818 18.2273 24.1818 16.9091C24.1818 15.5758 23.8939 14.4394 23.3182 13.5C22.7576 12.5455 21.947 11.8182 20.8864 11.3182C19.8409 10.803 18.5758 10.5455 17.0909 10.5455H12.6364V47H0ZM54.8266 47.5455C52.5993 47.5455 50.6296 47.1818 48.9175 46.4545C47.2205 45.7121 45.8872 44.5909 44.9175 43.0909C43.9478 41.5909 43.463 39.6818 43.463 37.3636C43.463 35.4545 43.7887 33.8258 44.4402 32.4773C45.0917 31.1136 46.0008 30 47.1675 29.1364C48.3342 28.2727 49.6902 27.6136 51.2357 27.1591C52.7963 26.7045 54.4781 26.4091 56.2811 26.2727C58.2357 26.1212 59.8039 25.9394 60.9857 25.7273C62.1827 25.5 63.0463 25.1894 63.5766 24.7955C64.1069 24.3864 64.372 23.8485 64.372 23.1818V23.0909C64.372 22.1818 64.0236 21.4848 63.3266 21C62.6296 20.5152 61.7357 20.2727 60.6448 20.2727C59.4478 20.2727 58.4705 20.5379 57.713 21.0682C56.9705 21.5833 56.5236 22.3788 56.372 23.4545H44.8266C44.9781 21.3333 45.6523 19.3788 46.8493 17.5909C48.0614 15.7879 49.8266 14.3485 52.1448 13.2727C54.463 12.1818 57.3569 11.6364 60.8266 11.6364C63.3266 11.6364 65.569 11.9318 67.5539 12.5227C69.5387 13.0985 71.2281 13.9091 72.622 14.9545C74.016 15.9848 75.0766 17.197 75.8039 18.5909C76.5463 19.9697 76.9175 21.4697 76.9175 23.0909V47H65.1902V42.0909H64.9175C64.2205 43.3939 63.372 44.447 62.372 45.25C61.3872 46.053 60.2584 46.6364 58.9857 47C57.7281 47.3636 56.3417 47.5455 54.8266 47.5455ZM58.9175 39.6364C59.872 39.6364 60.766 39.4394 61.5993 39.0455C62.4478 38.6515 63.1372 38.0833 63.6675 37.3409C64.1978 36.5985 64.463 35.697 64.463 34.6364V31.7273C64.1296 31.8636 63.7736 31.9924 63.3948 32.1136C63.0311 32.2348 62.6372 32.3485 62.213 32.4545C61.8039 32.5606 61.3645 32.6591 60.8948 32.75C60.4402 32.8409 59.963 32.9242 59.463 33C58.4933 33.1515 57.6978 33.4015 57.0766 33.75C56.4705 34.0833 56.016 34.5 55.713 35C55.4251 35.4848 55.2811 36.0303 55.2811 36.6364C55.2811 37.6061 55.622 38.3485 56.3039 38.8636C56.9857 39.3788 57.8569 39.6364 58.9175 39.6364ZM104.21 47.6364C100.422 47.6364 97.1797 46.8864 94.4827 45.3864C91.7858 43.8712 89.7176 41.7652 88.2782 39.0682C86.8388 36.3561 86.1191 33.2121 86.1191 29.6364C86.1191 26.0606 86.8388 22.9242 88.2782 20.2273C89.7176 17.5152 91.7858 15.4091 94.4827 13.9091C97.1797 12.3939 100.422 11.6364 104.21 11.6364C107.634 11.6364 110.596 12.2576 113.096 13.5C115.612 14.7273 117.558 16.4697 118.937 18.7273C120.316 20.9697 121.013 23.6061 121.028 26.6364H109.392C109.225 24.803 108.695 23.4091 107.801 22.4545C106.922 21.4848 105.786 21 104.392 21C103.301 21 102.346 21.3182 101.528 21.9545C100.71 22.5758 100.074 23.5227 99.6191 24.7955C99.1645 26.053 98.9373 27.6364 98.9373 29.5455C98.9373 31.4545 99.1645 33.0455 99.6191 34.3182C100.074 35.5758 100.71 36.5227 101.528 37.1591C102.346 37.7803 103.301 38.0909 104.392 38.0909C105.316 38.0909 106.134 37.8788 106.846 37.4545C107.558 37.0152 108.134 36.3788 108.574 35.5455C109.028 34.697 109.301 33.6667 109.392 32.4545H121.028C120.983 35.5303 120.278 38.2121 118.915 40.5C117.551 42.7727 115.619 44.5303 113.119 45.7727C110.634 47.0152 107.665 47.6364 104.21 47.6364ZM141.957 38.7273L142.048 23.8182H143.684L152.139 12.0909H166.23L152.048 30.3636H148.503L141.957 38.7273ZM130.684 47V0.454544H143.23V47H130.684ZM152.23 47L144.23 33.1818L152.412 24.2727L166.593 47H152.23ZM183.704 47.5455C181.477 47.5455 179.507 47.1818 177.795 46.4545C176.098 45.7121 174.765 44.5909 173.795 43.0909C172.825 41.5909 172.34 39.6818 172.34 37.3636C172.34 35.4545 172.666 33.8258 173.318 32.4773C173.969 31.1136 174.878 30 176.045 29.1364C177.212 28.2727 178.568 27.6136 180.113 27.1591C181.674 26.7045 183.356 26.4091 185.159 26.2727C187.113 26.1212 188.681 25.9394 189.863 25.7273C191.06 25.5 191.924 25.1894 192.454 24.7955C192.984 24.3864 193.25 23.8485 193.25 23.1818V23.0909C193.25 22.1818 192.901 21.4848 192.204 21C191.507 20.5152 190.613 20.2727 189.522 20.2727C188.325 20.2727 187.348 20.5379 186.59 21.0682C185.848 21.5833 185.401 22.3788 185.25 23.4545H173.704C173.856 21.3333 174.53 19.3788 175.727 17.5909C176.939 15.7879 178.704 14.3485 181.022 13.2727C183.34 12.1818 186.234 11.6364 189.704 11.6364C192.204 11.6364 194.447 11.9318 196.431 12.5227C198.416 13.0985 200.106 13.9091 201.5 14.9545C202.893 15.9848 203.954 17.197 204.681 18.5909C205.424 19.9697 205.795 21.4697 205.795 23.0909V47H194.068V42.0909H193.795C193.098 43.3939 192.25 44.447 191.25 45.25C190.265 46.053 189.136 46.6364 187.863 47C186.606 47.3636 185.219 47.5455 183.704 47.5455ZM187.795 39.6364C188.75 39.6364 189.643 39.4394 190.477 39.0455C191.325 38.6515 192.015 38.0833 192.545 37.3409C193.075 36.5985 193.34 35.697 193.34 34.6364V31.7273C193.007 31.8636 192.651 31.9924 192.272 32.1136C191.909 32.2348 191.515 32.3485 191.09 32.4545C190.681 32.5606 190.242 32.6591 189.772 32.75C189.318 32.8409 188.84 32.9242 188.34 33C187.371 33.1515 186.575 33.4015 185.954 33.75C185.348 34.0833 184.893 34.5 184.59 35C184.303 35.4848 184.159 36.0303 184.159 36.6364C184.159 37.6061 184.5 38.3485 185.181 38.8636C185.863 39.3788 186.734 39.6364 187.795 39.6364ZM233.087 60.8182C229.587 60.8182 226.587 60.3182 224.087 59.3182C221.603 58.3333 219.671 56.9697 218.292 55.2273C216.928 53.5 216.163 51.5152 215.997 49.2727H228.087C228.209 50.0152 228.512 50.6136 228.997 51.0682C229.481 51.5227 230.103 51.8485 230.86 52.0455C231.633 52.2576 232.497 52.3636 233.451 52.3636C235.072 52.3636 236.413 51.9697 237.474 51.1818C238.55 50.3939 239.087 48.9697 239.087 46.9091V41H238.724C238.269 42.1818 237.572 43.1894 236.633 44.0227C235.694 44.8409 234.565 45.4697 233.247 45.9091C231.928 46.3333 230.481 46.5455 228.906 46.5455C226.421 46.5455 224.133 45.9697 222.042 44.8182C219.966 43.6667 218.3 41.8409 217.042 39.3409C215.8 36.8409 215.178 33.5758 215.178 29.5455C215.178 25.3333 215.83 21.9091 217.133 19.2727C218.451 16.6364 220.148 14.7045 222.224 13.4773C224.315 12.25 226.512 11.6364 228.815 11.6364C230.542 11.6364 232.057 11.9394 233.36 12.5455C234.663 13.1364 235.754 13.9318 236.633 14.9318C237.512 15.9167 238.178 17 238.633 18.1818H238.906V12.0909H251.451V46.9091C251.451 49.8636 250.686 52.3712 249.156 54.4318C247.641 56.5076 245.504 58.0909 242.747 59.1818C239.989 60.2727 236.769 60.8182 233.087 60.8182ZM233.542 37.6364C234.694 37.6364 235.678 37.3182 236.497 36.6818C237.33 36.0303 237.966 35.1061 238.406 33.9091C238.86 32.697 239.087 31.2424 239.087 29.5455C239.087 27.8182 238.86 26.3409 238.406 25.1136C237.966 23.8712 237.33 22.9242 236.497 22.2727C235.678 21.6061 234.694 21.2727 233.542 21.2727C232.391 21.2727 231.406 21.6061 230.587 22.2727C229.784 22.9242 229.163 23.8712 228.724 25.1136C228.3 26.3409 228.087 27.8182 228.087 29.5455C228.087 31.2727 228.3 32.7424 228.724 33.9545C229.163 35.1515 229.784 36.0682 230.587 36.7045C231.406 37.3258 232.391 37.6364 233.542 37.6364ZM279.039 47.6364C275.312 47.6364 272.1 46.9242 269.403 45.5C266.721 44.0606 264.653 42 263.198 39.3182C261.759 36.6212 261.039 33.3939 261.039 29.6364C261.039 26.0303 261.766 22.8788 263.221 20.1818C264.675 17.4848 266.728 15.3864 269.38 13.8864C272.032 12.3864 275.16 11.6364 278.766 11.6364C281.403 11.6364 283.789 12.0455 285.925 12.8636C288.062 13.6818 289.888 14.8712 291.403 16.4318C292.918 17.9773 294.085 19.8561 294.903 22.0682C295.721 24.2803 296.13 26.7727 296.13 29.5455V32.4545H264.948V25.5455H284.585C284.569 24.5455 284.312 23.6667 283.812 22.9091C283.327 22.1364 282.668 21.5379 281.835 21.1136C281.016 20.6742 280.085 20.4545 279.039 20.4545C278.024 20.4545 277.092 20.6742 276.244 21.1136C275.395 21.5379 274.713 22.1288 274.198 22.8864C273.698 23.6439 273.433 24.5303 273.403 25.5455V33C273.403 34.1212 273.638 35.1212 274.107 36C274.577 36.8788 275.251 37.5682 276.13 38.0682C277.009 38.5682 278.069 38.8182 279.312 38.8182C280.175 38.8182 280.963 38.697 281.675 38.4545C282.403 38.2121 283.024 37.8636 283.539 37.4091C284.054 36.9394 284.433 36.3788 284.675 35.7273H296.13C295.736 38.1515 294.804 40.2576 293.335 42.0455C291.865 43.8182 289.918 45.197 287.494 46.1818C285.085 47.1515 282.266 47.6364 279.039 47.6364ZM337.638 23.4545H326.093C326.032 22.7424 325.782 22.1288 325.343 21.6136C324.904 21.0985 324.335 20.7045 323.638 20.4318C322.957 20.1439 322.199 20 321.366 20C320.29 20 319.366 20.197 318.593 20.5909C317.82 20.9848 317.441 21.5455 317.457 22.2727C317.441 22.7879 317.661 23.2652 318.116 23.7045C318.585 24.1439 319.487 24.4848 320.82 24.7273L327.911 26C331.487 26.6515 334.146 27.75 335.888 29.2955C337.646 30.8258 338.532 32.8788 338.547 35.4545C338.532 37.9394 337.79 40.0985 336.32 41.9318C334.866 43.75 332.873 45.1591 330.343 46.1591C327.828 47.1439 324.957 47.6364 321.729 47.6364C316.396 47.6364 312.222 46.5455 309.207 44.3636C306.207 42.1818 304.532 39.303 304.184 35.7273H316.638C316.805 36.8333 317.351 37.6894 318.275 38.2955C319.214 38.8864 320.396 39.1818 321.82 39.1818C322.972 39.1818 323.919 38.9848 324.661 38.5909C325.419 38.197 325.805 37.6364 325.82 36.9091C325.805 36.2424 325.472 35.7121 324.82 35.3182C324.184 34.9242 323.184 34.6061 321.82 34.3636L315.638 33.2727C312.078 32.6515 309.411 31.4697 307.638 29.7273C305.866 27.9848 304.987 25.7424 305.002 23C304.987 20.5758 305.623 18.5227 306.911 16.8409C308.214 15.1439 310.07 13.8561 312.479 12.9773C314.904 12.0833 317.775 11.6364 321.093 11.6364C326.138 11.6364 330.116 12.6818 333.025 14.7727C335.949 16.8636 337.487 19.7576 337.638 23.4545Z" fill="#B1CCE4"/>
<path d="M354.652 47.7273C352.895 47.7273 351.387 47.1136 350.13 45.8864C348.887 44.6439 348.274 43.1364 348.289 41.3636C348.274 39.6364 348.887 38.1591 350.13 36.9318C351.387 35.7045 352.895 35.0909 354.652 35.0909C356.319 35.0909 357.789 35.7045 359.062 36.9318C360.349 38.1591 361.001 39.6364 361.016 41.3636C361.001 42.5455 360.69 43.6212 360.084 44.5909C359.493 45.5455 358.721 46.3106 357.766 46.8864C356.812 47.447 355.774 47.7273 354.652 47.7273Z" fill="#FB6FC6"/>
<path d="M0 47H-2V49H0V47ZM0 0.454544V-1.54546H-2V0.454544H0ZM29.1591 2.5L28.2276 4.26984L28.2276 4.26984L29.1591 2.5ZM35.2045 8.25L36.9325 7.24292L36.9325 7.24292L35.2045 8.25ZM35.1364 25.5682L33.4279 24.5283L33.4233 24.5361L35.1364 25.5682ZM28.9318 31.2045L28.0455 29.4116L28.0415 29.4136L28.9318 31.2045ZM7.63636 33.1818H5.63636V35.1818H7.63636V33.1818ZM7.63636 23.3636V21.3636H5.63636V23.3636H7.63636ZM20.8864 22.5909L21.7704 24.385L21.7808 24.3798L20.8864 22.5909ZM23.3182 20.3409L21.5985 19.3198L21.5925 19.3298L21.5867 19.3399L23.3182 20.3409ZM23.3182 13.5L21.5936 14.5128L21.6031 14.5291L21.613 14.5451L23.3182 13.5ZM20.8864 11.3182L20.0024 13.1122L20.0179 13.1199L20.0335 13.1272L20.8864 11.3182ZM12.6364 10.5455V8.54545H10.6364V10.5455H12.6364ZM12.6364 47V49H14.6364V47H12.6364ZM2 47V0.454544H-2V47H2ZM0 2.45454H20.0909V-1.54546H0V2.45454ZM20.0909 2.45454C23.2792 2.45454 25.9714 3.08237 28.2276 4.26984L30.0906 0.730164C27.1649 -0.809648 23.8117 -1.54546 20.0909 -1.54546V2.45454ZM28.2276 4.26984C30.4953 5.46335 32.2307 7.11943 33.4766 9.25708L36.9325 7.24292C35.2996 4.44117 33.0047 2.26392 30.0906 0.730163L28.2276 4.26984ZM33.4766 9.25708C34.7117 11.3762 35.3636 13.9041 35.3636 16.9091H39.3636C39.3636 13.308 38.5762 10.0632 36.9325 7.24292L33.4766 9.25708ZM35.3636 16.9091C35.3636 19.9378 34.6921 22.4514 33.428 24.5283L36.8448 26.6081C38.5503 23.8061 39.3636 20.547 39.3636 16.9091H35.3636ZM33.4233 24.5361C32.1599 26.6331 30.3856 28.2549 28.0456 29.4116L29.8181 32.9975C32.8114 31.5178 35.1735 29.3821 36.8495 26.6003L33.4233 24.5361ZM28.0415 29.4136C25.716 30.5697 22.9332 31.1818 19.6364 31.1818V35.1818C23.4304 35.1818 26.8446 34.4757 29.8222 32.9954L28.0415 29.4136ZM19.6364 31.1818H7.63636V35.1818H19.6364V31.1818ZM9.63636 33.1818V23.3636H5.63636V33.1818H9.63636ZM7.63636 25.3636H17.0909V21.3636H7.63636V25.3636ZM17.0909 25.3636C18.8008 25.3636 20.3852 25.0675 21.7704 24.3849L20.0024 20.7969C19.2967 21.1446 18.3507 21.3636 17.0909 21.3636V25.3636ZM21.7808 24.3798C23.1699 23.6852 24.2814 22.6708 25.0497 21.3419L21.5867 19.3399C21.2338 19.9504 20.724 20.436 19.9919 20.8021L21.7808 24.3798ZM25.0379 21.362C25.8261 20.0345 26.1818 18.5252 26.1818 16.9091H22.1818C22.1818 17.9293 21.9618 18.708 21.5985 19.3198L25.0379 21.362ZM26.1818 16.9091C26.1818 15.2847 25.8289 13.7691 25.0234 12.4549L21.613 14.5451C21.959 15.1097 22.1818 15.8668 22.1818 16.9091H26.1818ZM25.0428 12.4872C24.2659 11.1645 23.1411 10.17 21.7392 9.50913L20.0335 13.1272C20.7528 13.4663 21.2492 13.9264 21.5936 14.5128L25.0428 12.4872ZM21.7704 9.52416C20.3852 8.84158 18.8008 8.54545 17.0909 8.54545V12.5455C18.3507 12.5455 19.2967 12.7645 20.0024 13.1122L21.7704 9.52416ZM17.0909 8.54545H12.6364V12.5455H17.0909V8.54545ZM10.6364 10.5455V47H14.6364V10.5455H10.6364ZM12.6364 45H0V49H12.6364V45ZM48.9175 46.4545L48.1159 48.2869L48.1257 48.2912L48.1356 48.2954L48.9175 46.4545ZM44.9175 43.0909L43.2379 44.1767L43.2379 44.1767L44.9175 43.0909ZM44.4402 32.4773L46.2411 33.3473L46.2448 33.3395L44.4402 32.4773ZM47.1675 29.1364L48.3575 30.7438L48.3575 30.7438L47.1675 29.1364ZM51.2357 27.1591L50.6764 25.2389L50.6713 25.2404L51.2357 27.1591ZM56.2811 26.2727L56.432 28.267L56.4357 28.2667L56.2811 26.2727ZM60.9857 25.7273L61.339 27.6958L61.3489 27.694L61.3588 27.6922L60.9857 25.7273ZM63.5766 24.7955L64.7692 26.4009L64.7838 26.3901L64.7982 26.379L63.5766 24.7955ZM63.3266 21L62.1845 22.6418L62.1845 22.6418L63.3266 21ZM57.713 21.0682L58.8531 22.7114L58.8599 22.7066L57.713 21.0682ZM56.372 23.4545V25.4545H58.1101L58.3525 23.7335L56.372 23.4545ZM44.8266 23.4545L42.8317 23.312L42.6786 25.4545H44.8266V23.4545ZM46.8493 17.5909L45.1895 16.4751L45.1874 16.4783L46.8493 17.5909ZM52.1448 13.2727L52.9867 15.0869L52.9964 15.0824L52.1448 13.2727ZM67.5539 12.5227L66.9832 14.4396L66.9967 14.4435L67.5539 12.5227ZM72.622 14.9545L71.422 16.5546L71.4333 16.5629L72.622 14.9545ZM75.8039 18.5909L74.0307 19.516L74.0367 19.5276L74.0429 19.5391L75.8039 18.5909ZM76.9175 47V49H78.9175V47H76.9175ZM65.1902 47H63.1902V49H65.1902V47ZM65.1902 42.0909H67.1902V40.0909H65.1902V42.0909ZM64.9175 42.0909V40.0909H63.7191L63.1539 41.1476L64.9175 42.0909ZM62.372 45.25L61.1198 43.6906L61.114 43.6952L61.1082 43.7L62.372 45.25ZM58.9857 47L58.4362 45.0769L58.4301 45.0787L58.9857 47ZM61.5993 39.0455L60.7571 37.2314L60.7446 37.2373L61.5993 39.0455ZM63.6675 37.3409L62.04 36.1784L62.04 36.1784L63.6675 37.3409ZM64.463 31.7273H66.463V28.7482L63.7057 29.8762L64.463 31.7273ZM63.3948 32.1136L62.7852 30.2088L62.7737 30.2125L62.7623 30.2163L63.3948 32.1136ZM62.213 32.4545L61.7279 30.5143L61.7194 30.5164L61.711 30.5186L62.213 32.4545ZM60.8948 32.75L60.5147 30.7864L60.5025 30.7888L60.8948 32.75ZM59.463 33L59.1633 31.0225L59.1542 31.024L59.463 33ZM57.0766 33.75L58.0404 35.5024L58.0478 35.4984L58.0551 35.4943L57.0766 33.75ZM55.713 35L54.0026 33.9634L53.9979 33.9711L53.9932 33.9789L55.713 35ZM56.3039 38.8636L57.5095 37.2679L57.5095 37.2679L56.3039 38.8636ZM54.8266 45.5455C52.816 45.5455 51.1205 45.2174 49.6994 44.6137L48.1356 48.2954C50.1387 49.1463 52.3826 49.5455 54.8266 49.5455V45.5455ZM49.7191 44.6222C48.3676 44.031 47.3455 43.1628 46.5971 42.0051L43.2379 44.1767C44.4289 46.019 46.0734 47.3933 48.1159 48.2869L49.7191 44.6222ZM46.5971 42.0051C45.8905 40.9121 45.463 39.4097 45.463 37.3636H41.463C41.463 39.9539 42.0051 42.2697 43.2379 44.1767L46.5971 42.0051ZM45.463 37.3636C45.463 35.6757 45.7515 34.3605 46.2411 33.3473L42.6394 31.6072C41.8259 33.291 41.463 35.2334 41.463 37.3636H45.463ZM46.2448 33.3395C46.7614 32.2582 47.4645 31.4049 48.3575 30.7438L45.9775 27.5289C44.5372 28.5951 43.422 29.9691 42.6356 31.6151L46.2448 33.3395ZM48.3575 30.7438C49.3159 30.0344 50.4551 29.4734 51.8 29.0778L50.6713 25.2404C48.9253 25.7539 47.3524 26.5111 45.9775 27.5289L48.3575 30.7438ZM51.795 29.0793C53.2084 28.6676 54.752 28.3941 56.432 28.267L56.1303 24.2784C54.2042 24.4241 52.3841 24.7415 50.6764 25.2389L51.795 29.0793ZM56.4357 28.2667C58.4209 28.1128 60.0635 27.9247 61.339 27.6958L60.6324 23.7587C59.5442 23.954 58.0504 24.1296 56.1266 24.2787L56.4357 28.2667ZM61.3588 27.6922C62.6427 27.4484 63.8692 27.0695 64.7692 26.4009L62.3839 23.19C62.2233 23.3093 61.7226 23.5516 60.6126 23.7624L61.3588 27.6922ZM64.7982 26.379C65.8167 25.5933 66.372 24.4718 66.372 23.1818H62.372C62.372 23.2155 62.3688 23.2292 62.3691 23.2277C62.3692 23.2272 62.37 23.224 62.3718 23.2187C62.3736 23.2135 62.3761 23.2074 62.3793 23.2009C62.3825 23.1945 62.3857 23.1889 62.3886 23.1845C62.3914 23.1802 62.3932 23.178 62.3932 23.1781C62.3931 23.1782 62.3906 23.1812 62.3847 23.1867C62.3788 23.1924 62.3693 23.2009 62.355 23.2119L64.7982 26.379ZM66.372 23.1818V23.0909H62.372V23.1818H66.372ZM66.372 23.0909C66.372 21.5817 65.7465 20.2471 64.4687 19.3582L62.1845 22.6418C62.2835 22.7107 62.3104 22.7579 62.3218 22.7808C62.3358 22.8088 62.372 22.8952 62.372 23.0909H66.372ZM64.4687 19.3582C63.3525 18.5817 62.028 18.2727 60.6448 18.2727V22.2727C61.4433 22.2727 61.9068 22.4486 62.1845 22.6418L64.4687 19.3582ZM60.6448 18.2727C59.1577 18.2727 57.7464 18.6035 56.566 19.4297L58.8599 22.7066C59.1947 22.4723 59.7379 22.2727 60.6448 22.2727V18.2727ZM56.5728 19.425C55.2809 20.3214 54.6038 21.6688 54.3916 23.1756L58.3525 23.7335C58.4433 23.0888 58.6602 22.8452 58.8531 22.7114L56.5728 19.425ZM56.372 21.4545H44.8266V25.4545H56.372V21.4545ZM46.8215 23.597C46.9479 21.8269 47.5053 20.2061 48.5112 18.7036L45.1874 16.4783C43.7994 18.5515 43.0083 20.8398 42.8317 23.312L46.8215 23.597ZM48.5091 18.7067C49.484 17.2566 50.9407 16.0363 52.9866 15.0869L51.3029 11.4585C48.7125 12.6606 46.6389 14.3191 45.1895 16.4751L48.5091 18.7067ZM52.9964 15.0824C54.9713 14.153 57.5525 13.6364 60.8266 13.6364V9.63636C57.1613 9.63636 53.9546 10.2106 51.2932 11.4631L52.9964 15.0824ZM60.8266 13.6364C63.1719 13.6364 65.2172 13.9138 66.9832 14.4396L68.1245 10.6059C65.9208 9.9498 63.4813 9.63636 60.8266 9.63636V13.6364ZM66.9967 14.4435C68.7918 14.9643 70.2535 15.6782 71.422 16.5545L73.822 13.3545C72.2027 12.14 70.2856 11.2327 68.111 10.6019L66.9967 14.4435ZM71.4333 16.5629C72.6084 17.4315 73.4577 18.4179 74.0307 19.516L77.577 17.6658C76.6955 15.9761 75.4235 14.5382 73.8108 13.3462L71.4333 16.5629ZM74.0429 19.5391C74.6228 20.616 74.9175 21.7886 74.9175 23.0909H78.9175C78.9175 21.1508 78.4698 19.3234 77.5648 17.6427L74.0429 19.5391ZM74.9175 23.0909V47H78.9175V23.0909H74.9175ZM76.9175 45H65.1902V49H76.9175V45ZM67.1902 47V42.0909H63.1902V47H67.1902ZM65.1902 40.0909H64.9175V44.0909H65.1902V40.0909ZM63.1539 41.1476C62.5649 42.2488 61.88 43.0801 61.1198 43.6906L63.6243 46.8094C64.8641 45.8138 65.8761 44.5391 66.6811 43.0342L63.1539 41.1476ZM61.1082 43.7C60.3424 44.3243 59.4591 44.7847 58.4362 45.077L59.5351 48.923C61.0577 48.488 62.4319 47.7817 63.6359 46.8L61.1082 43.7ZM58.4301 45.0787C57.3789 45.3827 56.1826 45.5455 54.8266 45.5455V49.5455C56.5009 49.5455 58.0773 49.3446 59.5412 48.9213L58.4301 45.0787ZM58.9175 41.6364C60.1568 41.6364 61.3439 41.3784 62.4541 40.8536L60.7446 37.2373C60.1881 37.5004 59.5873 37.6364 58.9175 37.6364V41.6364ZM62.4415 40.8595C63.5954 40.3238 64.5584 39.5346 65.295 38.5034L62.04 36.1784C61.716 36.6321 61.3002 36.9793 60.7571 37.2314L62.4415 40.8595ZM65.295 38.5034C66.1053 37.369 66.463 36.0439 66.463 34.6364H62.463C62.463 35.3501 62.2903 35.828 62.04 36.1784L65.295 38.5034ZM66.463 34.6364V31.7273H62.463V34.6364H66.463ZM63.7057 29.8762C63.4256 29.9908 63.1192 30.1019 62.7852 30.2088L64.0043 34.0185C64.428 33.8829 64.8337 33.7365 65.2202 33.5784L63.7057 29.8762ZM62.7623 30.2163C62.4534 30.3192 62.1092 30.4189 61.7279 30.5143L62.698 34.3948C63.1652 34.278 63.6088 34.1505 64.0272 34.011L62.7623 30.2163ZM61.711 30.5186C61.3471 30.6129 60.9487 30.7024 60.5147 30.7864L61.2748 34.7136C61.7802 34.6157 62.2606 34.5083 62.7149 34.3905L61.711 30.5186ZM60.5025 30.7888C60.0814 30.8731 59.6351 30.9511 59.1633 31.0226L59.7626 34.9774C60.2908 34.8974 60.7991 34.8087 61.287 34.7112L60.5025 30.7888ZM59.1542 31.024C58.0319 31.1993 56.9892 31.5058 56.0981 32.0057L58.0551 35.4943C58.4064 35.2972 58.9546 35.1037 59.7717 34.976L59.1542 31.024ZM56.1128 31.9976C55.2559 32.4688 54.5181 33.1127 54.0026 33.9634L57.4234 36.0366C57.5138 35.8873 57.6851 35.6978 58.0404 35.5024L56.1128 31.9976ZM53.9932 33.9789C53.5082 34.7959 53.2811 35.6988 53.2811 36.6364H57.2811C57.2811 36.3618 57.342 36.1738 57.4327 36.0211L53.9932 33.9789ZM53.2811 36.6364C53.2811 38.1366 53.8438 39.5116 55.0982 40.4594L57.5095 37.2679C57.4003 37.1854 57.2811 37.0755 57.2811 36.6364H53.2811ZM55.0982 40.4594C56.2038 41.2947 57.5286 41.6364 58.9175 41.6364V37.6364C58.1852 37.6364 57.7676 37.4629 57.5095 37.2679L55.0982 40.4594ZM94.4827 45.3864L93.5031 47.1301L93.5106 47.1342L94.4827 45.3864ZM88.2782 39.0682L86.5116 40.0058L86.5137 40.0099L88.2782 39.0682ZM88.2782 20.2273L90.0426 21.169L90.0448 21.1649L88.2782 20.2273ZM94.4827 13.9091L95.4549 15.657L95.4623 15.6528L94.4827 13.9091ZM113.096 13.5L112.206 15.291L112.213 15.2943L112.219 15.2974L113.096 13.5ZM118.937 18.7273L117.23 19.7697L117.234 19.7748L118.937 18.7273ZM121.028 26.6364V28.6364H123.038L123.028 26.6264L121.028 26.6364ZM109.392 26.6364L107.4 26.8174L107.565 28.6364H109.392V26.6364ZM107.801 22.4545L106.319 23.7976L106.33 23.8097L106.341 23.8217L107.801 22.4545ZM101.528 21.9545L102.738 23.5474L102.747 23.5404L102.756 23.5332L101.528 21.9545ZM99.6191 24.7955L101.5 25.4753L101.503 25.4681L99.6191 24.7955ZM99.6191 34.3182L97.7356 34.9909L97.7382 34.998L99.6191 34.3182ZM101.528 37.1591L100.3 38.7378L100.309 38.7449L100.319 38.752L101.528 37.1591ZM106.846 37.4545L107.87 39.1727L107.883 39.1648L107.897 39.1566L106.846 37.4545ZM108.574 35.5455L106.811 34.601L106.804 34.6126L108.574 35.5455ZM109.392 32.4545V30.4545H107.536L107.397 32.305L109.392 32.4545ZM121.028 32.4545L123.028 32.4841L123.058 30.4545H121.028V32.4545ZM118.915 40.5L120.63 41.529L120.633 41.524L118.915 40.5ZM113.119 45.7727L112.229 43.9817L112.225 43.9839L113.119 45.7727ZM104.21 45.6364C100.686 45.6364 97.794 44.9395 95.4548 43.6385L93.5106 47.1342C96.5654 48.8332 100.159 49.6364 104.21 49.6364V45.6364ZM95.4623 43.6427C93.0939 42.3121 91.3 40.4825 90.0426 38.1265L86.5137 40.0099C88.1351 43.0478 90.4776 45.4303 93.5031 47.13L95.4623 43.6427ZM90.0448 38.1306C88.7821 35.7514 88.1191 32.9392 88.1191 29.6364H84.1191C84.1191 33.485 84.8955 36.9607 86.5116 40.0058L90.0448 38.1306ZM88.1191 29.6364C88.1191 26.3332 88.7822 23.5306 90.0426 21.169L86.5137 19.2856C84.8954 22.3179 84.1191 25.788 84.1191 29.6364H88.1191ZM90.0448 21.1649C91.3022 18.7957 93.0936 16.9702 95.4548 15.6569L93.5106 12.1612C90.478 13.8479 88.133 16.2346 86.5116 19.2897L90.0448 21.1649ZM95.4623 15.6528C97.7999 14.3395 100.689 13.6364 104.21 13.6364V9.63636C100.155 9.63636 96.5595 10.4484 93.5031 12.1654L95.4623 15.6528ZM104.21 13.6364C107.394 13.6364 110.038 14.2137 112.206 15.291L113.986 11.709C111.154 10.3015 107.874 9.63636 104.21 9.63636V13.6364ZM112.219 15.2974C114.412 16.3675 116.062 17.857 117.23 19.7697L120.644 17.6848C119.055 15.0824 116.811 13.087 113.973 11.7026L112.219 15.2974ZM117.234 19.7748C118.393 21.6603 119.015 23.9261 119.028 26.6464L123.028 26.6264C123.011 23.286 122.239 20.2791 120.641 17.6797L117.234 19.7748ZM121.028 24.6364H109.392V28.6364H121.028V24.6364ZM111.384 26.4553C111.193 24.3553 110.562 22.4765 109.261 21.0874L106.341 23.8217C106.828 24.3417 107.258 25.2508 107.4 26.8174L111.384 26.4553ZM109.283 21.1115C107.998 19.6937 106.309 19 104.392 19V23C105.263 23 105.846 23.276 106.319 23.7976L109.283 21.1115ZM104.392 19C102.881 19 101.489 19.4514 100.3 20.3758L102.756 23.5332C103.204 23.1849 103.721 23 104.392 23V19ZM100.319 20.3617C99.1077 21.2812 98.2803 22.5978 97.7356 24.1228L101.503 25.4681C101.867 24.4477 102.312 23.8703 102.738 23.5474L100.319 20.3617ZM97.7382 24.1156C97.179 25.6628 96.9373 27.4954 96.9373 29.5455H100.937C100.937 27.7773 101.15 26.4433 101.5 25.4753L97.7382 24.1156ZM96.9373 29.5455C96.9373 31.5968 97.1793 33.4332 97.7356 34.9909L101.503 33.6455C101.15 32.6577 100.937 31.3123 100.937 29.5455H96.9373ZM97.7382 34.998C98.2844 36.5093 99.1088 37.8111 100.3 38.7378L102.756 35.5804C102.311 35.2344 101.863 34.6422 101.5 33.6383L97.7382 34.998ZM100.319 38.752C101.507 39.6543 102.893 40.0909 104.392 40.0909V36.0909C103.709 36.0909 103.186 35.9063 102.738 35.5662L100.319 38.752ZM104.392 40.0909C105.634 40.0909 106.814 39.802 107.87 39.1727L105.823 35.7363C105.455 35.9555 104.998 36.0909 104.392 36.0909V40.0909ZM107.897 39.1566C108.95 38.5069 109.758 37.587 110.343 36.4783L106.804 34.6126C106.51 35.1706 106.167 35.5234 105.796 35.7525L107.897 39.1566ZM110.337 36.4899C110.953 35.3399 111.28 34.0238 111.386 32.6041L107.397 32.305C107.322 33.3095 107.104 34.054 106.811 34.601L110.337 36.4899ZM109.392 34.4545H121.028V30.4545H109.392V34.4545ZM119.028 32.425C118.987 35.2053 118.355 37.5332 117.197 39.476L120.633 41.524C122.202 38.8911 122.978 35.8553 123.028 32.4841L119.028 32.425ZM117.2 39.471C116.043 41.3983 114.406 42.8998 112.229 43.9817L114.009 47.5637C116.832 46.1608 119.059 44.1472 120.63 41.529L117.2 39.471ZM112.225 43.9839C110.077 45.0578 107.428 45.6364 104.21 45.6364V49.6364C107.901 49.6364 111.192 48.9725 114.014 47.5616L112.225 43.9839ZM141.957 38.7273L139.957 38.7151L139.921 44.5736L143.532 39.9599L141.957 38.7273ZM142.048 23.8182V21.8182H140.06L140.048 23.806L142.048 23.8182ZM143.684 23.8182V25.8182H144.708L145.307 24.9878L143.684 23.8182ZM152.139 12.0909V10.0909H151.115L150.517 10.9213L152.139 12.0909ZM166.23 12.0909L167.81 13.3172L170.314 10.0909H166.23V12.0909ZM152.048 30.3636V32.3636H153.027L153.628 31.5899L152.048 30.3636ZM148.503 30.3636V28.3636H147.528L146.927 29.131L148.503 30.3636ZM130.684 47H128.684V49H130.684V47ZM130.684 0.454544V-1.54546H128.684V0.454544H130.684ZM143.23 0.454544H145.23V-1.54546H143.23V0.454544ZM143.23 47V49H145.23V47H143.23ZM152.23 47L150.499 48.0021L151.077 49H152.23V47ZM144.23 33.1818L142.757 31.829L141.762 32.9117L142.499 34.1839L144.23 33.1818ZM152.412 24.2727L154.108 23.2139L152.717 20.9837L150.939 22.9199L152.412 24.2727ZM166.593 47V49H170.199L168.29 45.9412L166.593 47ZM143.957 38.7395L144.048 23.8304L140.048 23.806L139.957 38.7151L143.957 38.7395ZM142.048 25.8182H143.684V21.8182H142.048V25.8182ZM145.307 24.9878L153.761 13.2605L150.517 10.9213L142.062 22.6486L145.307 24.9878ZM152.139 14.0909H166.23V10.0909H152.139V14.0909ZM164.65 10.8647L150.468 29.1374L153.628 31.5899L167.81 13.3172L164.65 10.8647ZM152.048 28.3636H148.503V32.3636H152.048V28.3636ZM146.927 29.131L140.382 37.4947L143.532 39.9599L150.078 31.5963L146.927 29.131ZM132.684 47V0.454544H128.684V47H132.684ZM130.684 2.45454H143.23V-1.54546H130.684V2.45454ZM141.23 0.454544V47H145.23V0.454544H141.23ZM143.23 45H130.684V49H143.23V45ZM153.961 45.9979L145.961 32.1797L142.499 34.1839L150.499 48.0021L153.961 45.9979ZM145.703 34.5346L153.885 25.6255L150.939 22.9199L142.757 31.829L145.703 34.5346ZM150.715 25.3315L164.897 48.0588L168.29 45.9412L154.108 23.2139L150.715 25.3315ZM166.593 45H152.23V49H166.593V45ZM177.795 46.4545L176.993 48.2869L177.003 48.2912L177.013 48.2954L177.795 46.4545ZM173.795 43.0909L172.115 44.1767L172.115 44.1767L173.795 43.0909ZM173.318 32.4773L175.119 33.3473L175.122 33.3395L173.318 32.4773ZM176.045 29.1364L177.235 30.7438L177.235 30.7438L176.045 29.1364ZM180.113 27.1591L179.554 25.2389L179.549 25.2404L180.113 27.1591ZM185.159 26.2727L185.309 28.267L185.313 28.2667L185.159 26.2727ZM189.863 25.7273L190.217 27.6958L190.226 27.694L190.236 27.6922L189.863 25.7273ZM192.454 24.7955L193.647 26.4009L193.661 26.3901L193.676 26.379L192.454 24.7955ZM192.204 21L191.062 22.6418L191.062 22.6418L192.204 21ZM186.59 21.0682L187.731 22.7114L187.737 22.7066L186.59 21.0682ZM185.25 23.4545V25.4545H186.988L187.23 23.7335L185.25 23.4545ZM173.704 23.4545L171.709 23.312L171.556 25.4545H173.704V23.4545ZM175.727 17.5909L174.067 16.4751L174.065 16.4783L175.727 17.5909ZM181.022 13.2727L181.864 15.0869L181.874 15.0824L181.022 13.2727ZM196.431 12.5227L195.861 14.4396L195.874 14.4435L196.431 12.5227ZM201.5 14.9545L200.3 16.5546L200.311 16.5629L201.5 14.9545ZM204.681 18.5909L202.908 19.516L202.914 19.5276L202.92 19.5391L204.681 18.5909ZM205.795 47V49H207.795V47H205.795ZM194.068 47H192.068V49H194.068V47ZM194.068 42.0909H196.068V40.0909H194.068V42.0909ZM193.795 42.0909V40.0909H192.597L192.031 41.1476L193.795 42.0909ZM191.25 45.25L189.997 43.6906L189.991 43.6952L189.986 43.7L191.25 45.25ZM187.863 47L187.314 45.0769L187.308 45.0787L187.863 47ZM190.477 39.0455L189.635 37.2314L189.622 37.2373L190.477 39.0455ZM192.545 37.3409L190.918 36.1784L190.918 36.1784L192.545 37.3409ZM193.34 31.7273H195.34V28.7482L192.583 29.8762L193.34 31.7273ZM192.272 32.1136L191.663 30.2088L191.651 30.2125L191.64 30.2163L192.272 32.1136ZM191.09 32.4545L190.605 30.5143L190.597 30.5164L190.589 30.5186L191.09 32.4545ZM189.772 32.75L189.392 30.7864L189.38 30.7888L189.772 32.75ZM188.34 33L188.041 31.0225L188.032 31.024L188.34 33ZM185.954 33.75L186.918 35.5024L186.925 35.4984L186.933 35.4943L185.954 33.75ZM184.59 35L182.88 33.9634L182.875 33.9711L182.871 33.9789L184.59 35ZM185.181 38.8636L186.387 37.2679L186.387 37.2679L185.181 38.8636ZM183.704 45.5455C181.694 45.5455 179.998 45.2174 178.577 44.6137L177.013 48.2954C179.016 49.1463 181.26 49.5455 183.704 49.5455V45.5455ZM178.597 44.6222C177.245 44.031 176.223 43.1628 175.475 42.0051L172.115 44.1767C173.306 46.019 174.951 47.3933 176.993 48.2869L178.597 44.6222ZM175.475 42.0051C174.768 40.9121 174.34 39.4097 174.34 37.3636H170.34C170.34 39.9539 170.883 42.2697 172.115 44.1767L175.475 42.0051ZM174.34 37.3636C174.34 35.6757 174.629 34.3605 175.119 33.3473L171.517 31.6072C170.703 33.291 170.34 35.2334 170.34 37.3636H174.34ZM175.122 33.3395C175.639 32.2582 176.342 31.4049 177.235 30.7438L174.855 27.5289C173.415 28.5951 172.3 29.9691 171.513 31.6151L175.122 33.3395ZM177.235 30.7438C178.193 30.0344 179.333 29.4734 180.678 29.0778L179.549 25.2404C177.803 25.7539 176.23 26.5111 174.855 27.5289L177.235 30.7438ZM180.672 29.0793C182.086 28.6676 183.63 28.3941 185.309 28.267L185.008 24.2784C183.082 24.4241 181.262 24.7415 179.554 25.2389L180.672 29.0793ZM185.313 28.2667C187.298 28.1128 188.941 27.9247 190.217 27.6958L189.51 23.7587C188.422 23.954 186.928 24.1296 185.004 24.2787L185.313 28.2667ZM190.236 27.6922C191.52 27.4484 192.747 27.0695 193.647 26.4009L191.261 23.19C191.101 23.3093 190.6 23.5516 189.49 23.7624L190.236 27.6922ZM193.676 26.379C194.694 25.5933 195.25 24.4718 195.25 23.1818H191.25C191.25 23.2155 191.246 23.2292 191.247 23.2277C191.247 23.2272 191.247 23.224 191.249 23.2187C191.251 23.2135 191.254 23.2074 191.257 23.2009C191.26 23.1945 191.263 23.1889 191.266 23.1845C191.269 23.1802 191.271 23.178 191.271 23.1781C191.271 23.1782 191.268 23.1812 191.262 23.1867C191.256 23.1924 191.247 23.2009 191.232 23.2119L193.676 26.379ZM195.25 23.1818V23.0909H191.25V23.1818H195.25ZM195.25 23.0909C195.25 21.5817 194.624 20.2471 193.346 19.3582L191.062 22.6418C191.161 22.7107 191.188 22.7579 191.199 22.7808C191.213 22.8088 191.25 22.8952 191.25 23.0909H195.25ZM193.346 19.3582C192.23 18.5817 190.906 18.2727 189.522 18.2727V22.2727C190.321 22.2727 190.784 22.4486 191.062 22.6418L193.346 19.3582ZM189.522 18.2727C188.035 18.2727 186.624 18.6035 185.444 19.4297L187.737 22.7066C188.072 22.4723 188.615 22.2727 189.522 22.2727V18.2727ZM185.45 19.425C184.158 20.3214 183.481 21.6688 183.269 23.1756L187.23 23.7335C187.321 23.0888 187.538 22.8452 187.731 22.7114L185.45 19.425ZM185.25 21.4545H173.704V25.4545H185.25V21.4545ZM175.699 23.597C175.825 21.8269 176.383 20.2061 177.389 18.7036L174.065 16.4783C172.677 18.5515 171.886 20.8398 171.709 23.312L175.699 23.597ZM177.387 18.7067C178.361 17.2566 179.818 16.0363 181.864 15.0869L180.18 11.4585C177.59 12.6606 175.516 14.3191 174.067 16.4751L177.387 18.7067ZM181.874 15.0824C183.849 14.153 186.43 13.6364 189.704 13.6364V9.63636C186.039 9.63636 182.832 10.2106 180.171 11.4631L181.874 15.0824ZM189.704 13.6364C192.049 13.6364 194.095 13.9138 195.861 14.4396L197.002 10.6059C194.798 9.9498 192.359 9.63636 189.704 9.63636V13.6364ZM195.874 14.4435C197.669 14.9643 199.131 15.6782 200.3 16.5545L202.7 13.3545C201.08 12.14 199.163 11.2327 196.989 10.6019L195.874 14.4435ZM200.311 16.5629C201.486 17.4315 202.335 18.4179 202.908 19.516L206.455 17.6658C205.573 15.9761 204.301 14.5382 202.688 13.3462L200.311 16.5629ZM202.92 19.5391C203.5 20.616 203.795 21.7886 203.795 23.0909H207.795C207.795 21.1508 207.347 19.3234 206.442 17.6427L202.92 19.5391ZM203.795 23.0909V47H207.795V23.0909H203.795ZM205.795 45H194.068V49H205.795V45ZM196.068 47V42.0909H192.068V47H196.068ZM194.068 40.0909H193.795V44.0909H194.068V40.0909ZM192.031 41.1476C191.442 42.2488 190.757 43.0801 189.997 43.6906L192.502 46.8094C193.742 45.8138 194.754 44.5391 195.559 43.0342L192.031 41.1476ZM189.986 43.7C189.22 44.3243 188.337 44.7847 187.314 45.077L188.413 48.923C189.935 48.488 191.309 47.7817 192.513 46.8L189.986 43.7ZM187.308 45.0787C186.256 45.3827 185.06 45.5455 183.704 45.5455V49.5455C185.378 49.5455 186.955 49.3446 188.419 48.9213L187.308 45.0787ZM187.795 41.6364C189.034 41.6364 190.221 41.3784 191.332 40.8536L189.622 37.2373C189.066 37.5004 188.465 37.6364 187.795 37.6364V41.6364ZM191.319 40.8595C192.473 40.3238 193.436 39.5346 194.172 38.5034L190.918 36.1784C190.593 36.6321 190.178 36.9793 189.635 37.2314L191.319 40.8595ZM194.172 38.5034C194.983 37.369 195.34 36.0439 195.34 34.6364H191.34C191.34 35.3501 191.168 35.828 190.918 36.1784L194.172 38.5034ZM195.34 34.6364V31.7273H191.34V34.6364H195.34ZM192.583 29.8762C192.303 29.9908 191.997 30.1019 191.663 30.2088L192.882 34.0185C193.305 33.8829 193.711 33.7365 194.098 33.5784L192.583 29.8762ZM191.64 30.2163C191.331 30.3192 190.987 30.4189 190.605 30.5143L191.576 34.3948C192.043 34.278 192.486 34.1505 192.905 34.011L191.64 30.2163ZM190.589 30.5186C190.225 30.6129 189.826 30.7024 189.392 30.7864L190.152 34.7136C190.658 34.6157 191.138 34.5083 191.592 34.3905L190.589 30.5186ZM189.38 30.7888C188.959 30.8731 188.513 30.9511 188.041 31.0226L188.64 34.9774C189.168 34.8974 189.677 34.8087 190.165 34.7112L189.38 30.7888ZM188.032 31.024C186.909 31.1993 185.867 31.5058 184.976 32.0057L186.933 35.4943C187.284 35.2972 187.832 35.1037 188.649 34.976L188.032 31.024ZM184.99 31.9976C184.133 32.4688 183.396 33.1127 182.88 33.9634L186.301 36.0366C186.391 35.8873 186.563 35.6978 186.918 35.5024L184.99 31.9976ZM182.871 33.9789C182.386 34.7959 182.159 35.6988 182.159 36.6364H186.159C186.159 36.3618 186.219 36.1738 186.31 36.0211L182.871 33.9789ZM182.159 36.6364C182.159 38.1366 182.721 39.5116 183.976 40.4594L186.387 37.2679C186.278 37.1854 186.159 37.0755 186.159 36.6364H182.159ZM183.976 40.4594C185.081 41.2947 186.406 41.6364 187.795 41.6364V37.6364C187.063 37.6364 186.645 37.4629 186.387 37.2679L183.976 40.4594ZM224.087 59.3182L224.83 57.4612L224.824 57.4589L224.087 59.3182ZM218.292 55.2273L216.722 56.4666L216.724 56.4683L218.292 55.2273ZM215.997 49.2727V47.2727H213.842L214.002 49.421L215.997 49.2727ZM228.087 49.2727L230.061 48.9505L229.787 47.2727H228.087V49.2727ZM228.997 51.0682L227.629 52.5273L227.629 52.5273L228.997 51.0682ZM230.86 52.0455L231.39 50.1168L231.377 50.1132L231.363 50.1098L230.86 52.0455ZM237.474 51.1818L236.292 49.5682L236.281 49.5763L237.474 51.1818ZM239.087 41H241.087V39H239.087V41ZM238.724 41V39H237.35L236.857 40.282L238.724 41ZM236.633 44.0227L237.947 45.5309L237.953 45.5249L237.96 45.5189L236.633 44.0227ZM233.247 45.9091L233.859 47.8129L233.869 47.8097L233.879 47.8065L233.247 45.9091ZM222.042 44.8182L221.072 46.5671L221.077 46.5701L222.042 44.8182ZM217.042 39.3409L215.251 40.231L215.255 40.2397L217.042 39.3409ZM217.133 19.2727L215.344 18.3783L215.34 18.3866L217.133 19.2727ZM222.224 13.4773L221.211 11.7524L221.206 11.7557L222.224 13.4773ZM233.36 12.5455L232.517 14.3589L232.525 14.3629L232.534 14.3669L233.36 12.5455ZM236.633 14.9318L235.131 16.252L235.136 16.2577L235.141 16.2634L236.633 14.9318ZM238.633 18.1818L236.766 18.8998L237.259 20.1818H238.633V18.1818ZM238.906 18.1818V20.1818H240.906V18.1818H238.906ZM238.906 12.0909V10.0909H236.906V12.0909H238.906ZM251.451 12.0909H253.451V10.0909H251.451V12.0909ZM249.156 54.4318L247.55 53.2394L247.545 53.246L247.54 53.2527L249.156 54.4318ZM242.747 59.1818L243.482 61.0416L243.482 61.0416L242.747 59.1818ZM236.497 36.6818L237.724 38.2605L237.728 38.2574L236.497 36.6818ZM238.406 33.9091L236.533 33.2068L236.528 33.2199L238.406 33.9091ZM238.406 25.1136L236.52 25.7805L236.525 25.7944L236.53 25.8083L238.406 25.1136ZM236.497 22.2727L235.233 23.8232L235.249 23.8359L235.265 23.8483L236.497 22.2727ZM230.587 22.2727L231.848 23.8259L231.851 23.8232L230.587 22.2727ZM228.724 25.1136L226.838 24.4468L226.836 24.4535L226.834 24.4602L228.724 25.1136ZM228.724 33.9545L226.836 34.6152L226.841 34.6295L226.846 34.6438L228.724 33.9545ZM230.587 36.7045L229.345 38.272L229.362 38.2849L229.378 38.2974L230.587 36.7045ZM233.087 58.8182C229.769 58.8182 227.035 58.3431 224.83 57.4612L223.345 61.1751C226.14 62.2933 229.406 62.8182 233.087 62.8182V58.8182ZM224.824 57.4589C222.6 56.5772 220.981 55.4021 219.86 53.9862L216.724 56.4683C218.361 58.5373 220.605 60.0894 223.351 61.1775L224.824 57.4589ZM219.862 53.988C218.751 52.5811 218.129 50.9782 217.991 49.1245L214.002 49.421C214.198 52.0521 215.106 54.4189 216.722 56.4666L219.862 53.988ZM215.997 51.2727H228.087V47.2727H215.997V51.2727ZM226.114 49.595C226.296 50.7125 226.78 51.7317 227.629 52.5273L230.364 49.6091C230.243 49.4956 230.121 49.3178 230.061 48.9505L226.114 49.595ZM227.629 52.5273C228.397 53.2479 229.334 53.715 230.357 53.9811L231.363 50.1098C230.872 49.982 230.565 49.7975 230.364 49.6091L227.629 52.5273ZM230.331 53.9741C231.305 54.2416 232.351 54.3636 233.451 54.3636V50.3636C232.642 50.3636 231.961 50.2736 231.39 50.1168L230.331 53.9741ZM233.451 54.3636C235.402 54.3636 237.189 53.8849 238.667 52.7873L236.281 49.5763C235.638 50.0545 234.742 50.3636 233.451 50.3636V54.3636ZM238.656 52.7954C240.478 51.4603 241.087 49.2497 241.087 46.9091H237.087C237.087 48.6896 236.621 49.3275 236.292 49.5683L238.656 52.7954ZM241.087 46.9091V41H237.087V46.9091H241.087ZM239.087 39H238.724V43H239.087V39ZM236.857 40.282C236.517 41.1676 236.004 41.9076 235.306 42.5266L237.96 45.5189C239.141 44.4712 240.022 43.196 240.591 41.718L236.857 40.282ZM235.319 42.5146C234.601 43.1404 233.711 43.6462 232.614 44.0117L233.879 47.8065C235.419 47.2932 236.786 46.5414 237.947 45.5309L235.319 42.5146ZM232.634 44.0053C231.539 44.3577 230.302 44.5455 228.906 44.5455V48.5455C230.661 48.5455 232.318 48.309 233.859 47.8129L232.634 44.0053ZM228.906 44.5455C226.744 44.5455 224.79 44.0483 223.007 43.0663L221.077 46.5701C223.476 47.8911 226.098 48.5455 228.906 48.5455V44.5455ZM223.012 43.0693C221.347 42.1455 219.939 40.6489 218.829 38.4422L215.255 40.2397C216.66 43.0329 218.585 45.1878 221.072 46.5671L223.012 43.0693ZM218.833 38.4508C217.775 36.3224 217.178 33.3942 217.178 29.5455H213.178C213.178 33.7574 213.824 37.3594 215.251 40.231L218.833 38.4508ZM217.178 29.5455C217.178 25.517 217.805 22.4269 218.926 20.1589L215.34 18.3866C213.855 21.3913 213.178 25.1497 213.178 29.5455H217.178ZM218.922 20.1672C220.106 17.798 221.564 16.1907 223.242 15.1989L221.206 11.7557C218.732 13.2184 216.796 15.4747 215.344 18.3783L218.922 20.1672ZM223.236 15.2021C225.037 14.1451 226.887 13.6364 228.815 13.6364V9.63636C226.137 9.63636 223.592 10.3549 221.211 11.7524L223.236 15.2021ZM228.815 13.6364C230.309 13.6364 231.526 13.898 232.517 14.3589L234.204 10.732C232.589 9.98078 230.776 9.63636 228.815 9.63636V13.6364ZM232.534 14.3669C233.598 14.8495 234.453 15.4808 235.131 16.252L238.135 13.6116C237.055 12.3828 235.728 11.4232 234.186 10.724L232.534 14.3669ZM235.141 16.2634C235.866 17.0757 236.402 17.9529 236.766 18.8998L240.5 17.4639C239.955 16.0471 239.158 14.7576 238.125 13.6002L235.141 16.2634ZM238.633 20.1818H238.906V16.1818H238.633V20.1818ZM240.906 18.1818V12.0909H236.906V18.1818H240.906ZM238.906 14.0909H251.451V10.0909H238.906V14.0909ZM249.451 12.0909V46.9091H253.451V12.0909H249.451ZM249.451 46.9091C249.451 49.5017 248.787 51.5741 247.55 53.2394L250.761 55.6242C252.585 53.1683 253.451 50.2256 253.451 46.9091H249.451ZM247.54 53.2527C246.281 54.9782 244.472 56.3484 242.011 57.3221L243.482 61.0416C246.536 59.8334 249 58.0369 250.771 55.611L247.54 53.2527ZM242.011 57.3221C239.537 58.3009 236.576 58.8182 233.087 58.8182V62.8182C236.962 62.8182 240.441 62.2445 243.482 61.0416L242.011 57.3221ZM233.542 39.6364C235.086 39.6364 236.516 39.2003 237.724 38.2605L235.269 35.1031C234.841 35.436 234.301 35.6364 233.542 35.6364V39.6364ZM237.728 38.2574C238.911 37.3332 239.742 36.0728 240.283 34.5983L236.528 33.2199C236.191 34.1393 235.749 34.7275 235.265 35.1062L237.728 38.2574ZM240.278 34.6113C240.839 33.1169 241.087 31.4117 241.087 29.5455H237.087C237.087 31.0731 236.882 32.277 236.533 33.2068L240.278 34.6113ZM241.087 29.5455C241.087 27.6526 240.84 25.927 240.281 24.419L236.53 25.8083C236.881 26.7548 237.087 27.9837 237.087 29.5455H241.087ZM240.291 24.4468C239.756 22.9335 238.928 21.6347 237.728 20.6971L235.265 23.8483C235.732 24.2138 236.177 24.8089 236.52 25.7805L240.291 24.4468ZM237.76 20.7223C236.552 19.7377 235.109 19.2727 233.542 19.2727V23.2727C234.278 23.2727 234.805 23.4744 235.233 23.8232L237.76 20.7223ZM233.542 19.2727C231.975 19.2727 230.532 19.7377 229.324 20.7223L231.851 23.8232C232.279 23.4744 232.806 23.2727 233.542 23.2727V19.2727ZM229.327 20.7196C228.17 21.659 227.367 22.951 226.838 24.4468L230.609 25.7805C230.959 24.7914 231.399 24.1895 231.848 23.8258L229.327 20.7196ZM226.834 24.4602C226.317 25.9542 226.087 27.6647 226.087 29.5455H230.087C230.087 27.9717 230.282 26.7276 230.614 25.7671L226.834 24.4602ZM226.087 29.5455C226.087 31.4251 226.317 33.1317 226.836 34.6152L230.612 33.2938C230.282 32.3532 230.087 31.1203 230.087 29.5455H226.087ZM226.846 34.6438C227.382 36.1023 228.191 37.3571 229.345 38.272L231.83 35.1371C231.378 34.7792 230.945 34.2007 230.601 33.2653L226.846 34.6438ZM229.378 38.2974C230.586 39.2145 232.009 39.6364 233.542 39.6364V35.6364C232.772 35.6364 232.225 35.437 231.797 35.1117L229.378 38.2974ZM269.403 45.5L268.457 47.2623L268.469 47.2685L269.403 45.5ZM263.198 39.3182L261.434 40.2599L261.44 40.2717L263.198 39.3182ZM263.221 20.1818L264.981 21.1312L264.981 21.1312L263.221 20.1818ZM269.38 13.8864L270.365 15.6271L270.365 15.6271L269.38 13.8864ZM285.925 12.8636L286.641 10.9959L286.641 10.9959L285.925 12.8636ZM291.403 16.4318L289.968 17.825L289.975 17.832L291.403 16.4318ZM294.903 22.0682L293.027 22.762L293.027 22.762L294.903 22.0682ZM296.13 32.4545V34.4545H298.13V32.4545H296.13ZM264.948 32.4545H262.948V34.4545H264.948V32.4545ZM264.948 25.5455V23.5455H262.948V25.5455H264.948ZM284.585 25.5455V27.5455H286.615L286.584 25.5152L284.585 25.5455ZM283.812 22.9091L282.118 23.9721L282.13 23.9916L282.143 24.0108L283.812 22.9091ZM281.835 21.1136L280.888 22.8756L280.908 22.886L280.927 22.896L281.835 21.1136ZM276.244 21.1136L277.138 22.9025L277.151 22.8961L277.163 22.8896L276.244 21.1136ZM274.198 22.8864L272.544 21.7617L272.537 21.7732L272.529 21.7847L274.198 22.8864ZM273.403 25.5455L271.404 25.4858L271.403 25.5156V25.5455H273.403ZM274.107 36L272.343 36.9428L272.343 36.9428L274.107 36ZM276.13 38.0682L275.141 39.8065L275.141 39.8065L276.13 38.0682ZM281.675 38.4545L281.043 36.5571L281.031 36.5612L281.675 38.4545ZM283.539 37.4091L284.862 38.9088L284.875 38.898L284.887 38.887L283.539 37.4091ZM284.675 35.7273V33.7273H283.286L282.801 35.0298L284.675 35.7273ZM296.13 35.7273L298.104 36.0481L298.481 33.7273H296.13V35.7273ZM293.335 42.0455L294.874 43.3219L294.88 43.3155L293.335 42.0455ZM287.494 46.1818L288.24 48.0372L288.246 48.0348L287.494 46.1818ZM279.039 45.6364C275.566 45.6364 272.689 44.9735 270.337 43.7315L268.469 47.2685C271.511 48.875 275.058 49.6364 279.039 49.6364V45.6364ZM270.349 43.7378C268.011 42.4834 266.225 40.7043 264.956 38.3647L261.44 40.2717C263.08 43.2957 265.43 45.6378 268.457 47.2622L270.349 43.7378ZM264.963 38.3765C263.709 36.0284 263.039 33.1398 263.039 29.6364H259.039C259.039 33.6481 259.808 37.214 261.434 40.2599L264.963 38.3765ZM263.039 29.6364C263.039 26.303 263.71 23.4888 264.981 21.1312L261.461 19.2324C259.823 22.2687 259.039 25.7576 259.039 29.6364H263.039ZM264.981 21.1312C266.258 18.7637 268.043 16.9405 270.365 15.6271L268.395 12.1456C265.414 13.8322 263.093 16.206 261.461 19.2324L264.981 21.1312ZM270.365 15.6271C272.665 14.3259 275.442 13.6364 278.766 13.6364V9.63636C274.879 9.63636 271.398 10.4469 268.395 12.1456L270.365 15.6271ZM278.766 13.6364C281.195 13.6364 283.334 14.0129 285.21 14.7313L286.641 10.9959C284.244 10.078 281.61 9.63636 278.766 9.63636V13.6364ZM285.21 14.7313C287.089 15.451 288.666 16.4838 289.968 17.825L292.838 15.0387C291.11 13.2587 289.034 11.9126 286.641 10.9959L285.21 14.7313ZM289.975 17.832C291.275 19.1586 292.298 20.7902 293.027 22.762L296.779 21.3744C295.871 18.9219 294.561 16.7959 292.831 15.0317L289.975 17.832ZM293.027 22.762C293.75 24.7168 294.13 26.9688 294.13 29.5455H298.13C298.13 26.5766 297.692 23.8438 296.779 21.3744L293.027 22.762ZM294.13 29.5455V32.4545H298.13V29.5455H294.13ZM296.13 30.4545H264.948V34.4545H296.13V30.4545ZM266.948 32.4545V25.5455H262.948V32.4545H266.948ZM264.948 27.5455H284.585V23.5455H264.948V27.5455ZM286.584 25.5152C286.564 24.1741 286.212 22.9153 285.481 21.8074L282.143 24.0108C282.411 24.418 282.575 24.9169 282.585 25.5758L286.584 25.5152ZM285.506 21.8461C284.824 20.7589 283.889 19.9154 282.742 19.3313L280.927 22.896C281.447 23.1603 281.83 23.5139 282.118 23.9721L285.506 21.8461ZM282.781 19.3516C281.637 18.7372 280.373 18.4545 279.039 18.4545V22.4545C279.796 22.4545 280.396 22.6112 280.888 22.8756L282.781 19.3516ZM279.039 18.4545C277.724 18.4545 276.474 18.7419 275.324 19.3376L277.163 22.8896C277.71 22.6066 278.323 22.4545 279.039 22.4545V18.4545ZM275.349 19.3248C274.206 19.8963 273.259 20.7112 272.544 21.7617L275.852 24.011C276.168 23.5463 276.584 23.1795 277.138 22.9025L275.349 19.3248ZM272.529 21.7847C271.801 22.8881 271.444 24.1448 271.404 25.4858L275.402 25.6051C275.422 24.9158 275.596 24.3998 275.867 23.988L272.529 21.7847ZM271.403 25.5455V33H275.403V25.5455H271.403ZM271.403 33C271.403 34.4083 271.7 35.7392 272.343 36.9428L275.871 35.0572C275.575 34.5032 275.403 33.8341 275.403 33H271.403ZM272.343 36.9428C272.994 38.1597 273.939 39.1227 275.141 39.8065L277.119 36.3299C276.563 36.0137 276.16 35.5979 275.871 35.0572L272.343 36.9428ZM275.141 39.8065C276.383 40.5131 277.801 40.8182 279.312 40.8182V36.8182C278.337 36.8182 277.635 36.6232 277.119 36.3299L275.141 39.8065ZM279.312 40.8182C280.363 40.8182 281.372 40.6705 282.32 40.3478L281.031 36.5612C280.555 36.7234 279.988 36.8182 279.312 36.8182V40.8182ZM282.308 40.3519C283.26 40.0345 284.124 39.5604 284.862 38.9088L282.216 35.9094C281.924 36.1669 281.545 36.3898 281.043 36.5572L282.308 40.3519ZM284.887 38.887C285.636 38.2034 286.196 37.3755 286.55 36.4247L282.801 35.0298C282.67 35.3821 282.472 35.6753 282.192 35.9312L284.887 38.887ZM284.675 37.7273H296.13V33.7273H284.675V37.7273ZM294.156 35.4065C293.815 37.5041 293.021 39.2773 291.79 40.7754L294.88 43.3155C296.587 41.2378 297.657 38.7989 298.104 36.0481L294.156 35.4065ZM291.795 40.769C290.563 42.2547 288.901 43.4512 286.741 44.3289L288.246 48.0348C290.934 46.9428 293.167 45.3817 294.874 43.3219L291.795 40.769ZM286.747 44.3265C284.625 45.1805 282.07 45.6364 279.039 45.6364V49.6364C282.462 49.6364 285.544 49.1225 288.24 48.0372L286.747 44.3265ZM337.638 23.4545V25.4545H339.722L339.637 23.3726L337.638 23.4545ZM326.093 23.4545L324.1 23.6241L324.256 25.4545H326.093V23.4545ZM325.343 21.6136L326.865 20.3157L326.865 20.3157L325.343 21.6136ZM323.638 20.4318L322.86 22.2743L322.885 22.2846L322.91 22.2943L323.638 20.4318ZM318.593 20.5909L317.685 18.8091L317.685 18.8091L318.593 20.5909ZM317.457 22.2727L319.456 22.3315L319.457 22.2813L319.456 22.2311L317.457 22.2727ZM318.116 23.7045L316.726 25.1425L316.737 25.1539L316.749 25.1651L318.116 23.7045ZM320.82 24.7273L320.462 26.695L320.467 26.6958L320.82 24.7273ZM327.911 26L328.27 24.0324L328.264 24.0315L327.911 26ZM335.888 29.2955L334.561 30.7917L334.568 30.7978L334.575 30.8038L335.888 29.2955ZM338.547 35.4545L340.547 35.4667L340.548 35.4548L340.547 35.4428L338.547 35.4545ZM336.32 41.9318L334.76 40.6809L334.758 40.6824L336.32 41.9318ZM330.343 46.1591L331.072 48.0214L331.078 48.0191L330.343 46.1591ZM309.207 44.3636L308.03 45.9811L308.034 45.9839L309.207 44.3636ZM304.184 35.7273V33.7273H301.979L302.193 35.9213L304.184 35.7273ZM316.638 35.7273L318.616 35.4293L318.36 33.7273H316.638V35.7273ZM318.275 38.2955L317.178 39.9679L317.194 39.9783L317.21 39.9884L318.275 38.2955ZM324.661 38.5909L323.738 36.8165L323.731 36.8203L323.724 36.8242L324.661 38.5909ZM325.82 36.9091L327.82 36.9507L327.821 36.9072L327.82 36.8636L325.82 36.9091ZM324.82 35.3182L323.768 37.0187L323.776 37.0242L323.785 37.0296L324.82 35.3182ZM321.82 34.3636L322.17 32.3945L322.168 32.3941L321.82 34.3636ZM315.638 33.2727L315.986 31.3032L315.982 31.3025L315.638 33.2727ZM307.638 29.7273L309.04 28.3009L309.04 28.3009L307.638 29.7273ZM305.002 23L307.002 23.011L307.002 22.9993L307.002 22.9875L305.002 23ZM306.911 16.8409L305.325 15.6229L305.323 15.6249L306.911 16.8409ZM312.479 12.9773L313.165 14.8562L313.171 14.8538L312.479 12.9773ZM333.025 14.7727L331.857 16.3968L331.861 16.3996L333.025 14.7727ZM337.638 21.4545H326.093V25.4545H337.638V21.4545ZM328.086 23.2849C327.992 22.1813 327.591 21.1668 326.865 20.3157L323.821 22.9115C323.974 23.0908 324.073 23.3035 324.1 23.6241L328.086 23.2849ZM326.865 20.3157C326.19 19.5244 325.338 18.9492 324.367 18.5693L322.91 22.2943C323.333 22.4599 323.617 22.6726 323.821 22.9115L326.865 20.3157ZM324.416 18.5893C323.459 18.1852 322.433 18 321.366 18V22C321.965 22 322.454 22.1027 322.86 22.2743L324.416 18.5893ZM321.366 18C320.049 18 318.798 18.2414 317.685 18.8091L319.501 22.3727C319.933 22.1526 320.531 22 321.366 22V18ZM317.685 18.8091C317.08 19.1175 316.497 19.558 316.072 20.1871C315.634 20.836 315.442 21.5703 315.457 22.3144L319.456 22.2311C319.456 22.2298 319.457 22.2569 319.444 22.302C319.431 22.3484 319.41 22.3921 319.386 22.4265C319.34 22.495 319.334 22.4583 319.501 22.3727L317.685 18.8091ZM315.457 22.2139C315.422 23.4157 315.965 24.4077 316.726 25.1425L319.506 22.2666C319.421 22.1851 319.414 22.1534 319.427 22.1808C319.433 22.1946 319.442 22.2178 319.448 22.2483C319.454 22.2789 319.456 22.3078 319.456 22.3315L315.457 22.2139ZM316.749 25.1651C317.674 26.0297 319.087 26.4449 320.462 26.695L321.178 22.7595C320.587 22.652 320.154 22.5333 319.851 22.4191C319.535 22.2993 319.456 22.2193 319.482 22.244L316.749 25.1651ZM320.467 26.6958L327.558 27.9685L328.264 24.0315L321.174 22.7587L320.467 26.6958ZM327.553 27.9676C330.953 28.5872 333.205 29.589 334.561 30.7917L337.216 27.7992C335.087 25.911 332.021 24.7158 328.27 24.0324L327.553 27.9676ZM334.575 30.8038C335.851 31.9147 336.535 33.3971 336.548 35.4663L340.547 35.4428C340.529 32.3604 339.441 29.7368 337.202 27.7871L334.575 30.8038ZM336.548 35.4423C336.535 37.5044 335.931 39.2203 334.76 40.6809L337.881 43.1828C339.649 40.9767 340.53 38.3744 340.547 35.4667L336.548 35.4423ZM334.758 40.6824C333.556 42.1858 331.869 43.4054 329.608 44.2991L331.078 48.0191C333.877 46.9128 336.176 45.3142 337.882 43.1812L334.758 40.6824ZM329.614 44.2968C327.371 45.1748 324.755 45.6364 321.729 45.6364V49.6364C325.159 49.6364 328.284 49.1131 331.072 48.0214L329.614 44.2968ZM321.729 45.6364C316.641 45.6364 312.934 44.5922 310.379 42.7434L308.034 45.9839C311.509 48.4987 316.151 49.6364 321.729 49.6364V45.6364ZM310.383 42.7462C307.828 40.8882 306.465 38.5192 306.174 35.5333L302.193 35.9213C302.599 40.0868 304.585 43.4755 308.03 45.9811L310.383 42.7462ZM304.184 37.7273H316.638V33.7273H304.184V37.7273ZM314.661 36.0253C314.911 37.6862 315.771 39.0456 317.178 39.9679L319.371 36.623C318.93 36.3332 318.699 35.9805 318.616 35.4293L314.661 36.0253ZM317.21 39.9884C318.547 40.8295 320.125 41.1818 321.82 41.1818V37.1818C320.667 37.1818 319.881 36.9432 319.34 36.6025L317.21 39.9884ZM321.82 41.1818C323.184 41.1818 324.481 40.9509 325.599 40.3576L323.724 36.8242C323.357 37.0188 322.76 37.1818 321.82 37.1818V41.1818ZM325.584 40.3653C326.855 39.7045 327.786 38.55 327.82 36.9507L323.821 36.8674C323.82 36.8761 323.82 36.8599 323.83 36.828C323.84 36.7951 323.856 36.764 323.872 36.7401C323.906 36.6913 323.899 36.7327 323.738 36.8165L325.584 40.3653ZM327.82 36.8636C327.787 35.4064 326.994 34.2955 325.855 33.6067L323.785 37.0296C323.843 37.0647 323.872 37.0891 323.881 37.0976C323.889 37.1052 323.88 37.0986 323.866 37.0757C323.851 37.052 323.837 37.0231 323.829 36.9937C323.821 36.9651 323.821 36.9497 323.821 36.9545L327.82 36.8636ZM325.873 33.6177C324.909 33.0212 323.608 32.6501 322.17 32.3945L321.47 36.3328C322.76 36.562 323.458 36.8273 323.768 37.0187L325.873 33.6177ZM322.168 32.3941L315.986 31.3032L315.291 35.2423L321.473 36.3332L322.168 32.3941ZM315.982 31.3025C312.648 30.7208 310.42 29.6566 309.04 28.3009L306.236 31.1536C308.403 33.2828 311.507 34.5822 315.295 35.243L315.982 31.3025ZM309.04 28.3009C307.695 26.9783 306.989 25.2748 307.002 23.011L303.002 22.989C302.984 26.2101 304.037 28.9914 306.236 31.1536L309.04 28.3009ZM307.002 22.9875C306.989 20.9399 307.519 19.3364 308.499 18.0569L305.323 15.6249C303.727 17.709 302.985 20.2116 303.002 23.0125L307.002 22.9875ZM308.497 18.059C309.527 16.7186 311.041 15.6309 313.165 14.8562L311.794 11.0984C309.099 12.0813 306.902 13.5692 305.325 15.6229L308.497 18.059ZM313.171 14.8538C315.321 14.061 317.947 13.6364 321.093 13.6364V9.63636C317.603 9.63636 314.486 10.1056 311.787 11.1008L313.171 14.8538ZM321.093 13.6364C325.885 13.6364 329.402 14.6319 331.857 16.3968L334.192 13.1487C330.829 10.7317 326.392 9.63636 321.093 9.63636V13.6364ZM331.861 16.3996C334.267 18.1197 335.513 20.4346 335.64 23.5364L339.637 23.3726C339.461 19.0805 337.631 15.6075 334.188 13.1458L331.861 16.3996ZM350.13 45.8864L348.716 47.3006L348.724 47.3092L348.733 47.3177L350.13 45.8864ZM348.289 41.3636L350.289 41.3807L350.289 41.3634L350.289 41.3461L348.289 41.3636ZM350.13 36.9318L348.733 35.5004L348.724 35.509L350.13 36.9318ZM359.062 36.9318L357.673 38.3715L357.682 38.3797L359.062 36.9318ZM361.016 41.3636L363.016 41.3893L363.016 41.3677L363.016 41.3461L361.016 41.3636ZM360.084 44.5909L358.388 43.5309L358.384 43.5382L360.084 44.5909ZM357.766 46.8864L358.779 48.6109L358.789 48.605L358.799 48.5989L357.766 46.8864ZM354.652 45.7273C353.417 45.7273 352.411 45.3176 351.527 44.455L348.733 47.3177C350.364 48.9097 352.373 49.7273 354.652 49.7273V45.7273ZM351.544 44.4722C350.685 43.6128 350.278 42.6225 350.289 41.3807L346.289 41.3465C346.269 43.6502 347.09 45.6751 348.716 47.3006L351.544 44.4722ZM350.289 41.3461C350.278 40.1663 350.673 39.2067 351.535 38.3547L348.724 35.509C347.102 37.1115 346.269 39.1065 346.289 41.3812L350.289 41.3461ZM351.527 38.3632C352.411 37.5006 353.417 37.0909 354.652 37.0909V33.0909C352.373 33.0909 350.364 33.9085 348.733 35.5005L351.527 38.3632ZM354.652 37.0909C355.768 37.0909 356.748 37.4796 357.673 38.3715L360.45 35.4921C358.829 33.9295 356.871 33.0909 354.652 33.0909V37.0909ZM357.682 38.3797C358.591 39.2462 359.006 40.2129 359.016 41.3812L363.016 41.3461C362.996 39.0599 362.108 37.0719 360.441 35.4839L357.682 38.3797ZM359.016 41.338C359.006 42.1666 358.794 42.8825 358.388 43.5309L361.78 45.6509C362.587 44.36 362.996 42.9243 363.016 41.3893L359.016 41.338ZM358.384 43.5382C357.959 44.2249 357.414 44.7631 356.733 45.1738L358.799 48.5989C360.027 47.8581 361.028 46.866 361.785 45.6436L358.384 43.5382ZM356.753 45.1618C356.11 45.5396 355.422 45.7273 354.652 45.7273V49.7273C356.125 49.7273 357.513 49.3543 358.779 48.6109L356.753 45.1618Z" fill="black" mask="url(#path-1-outside-1_63_205)"/>
</g>
<defs>
<filter id="filter0_d_63_205" x="0" y="0.45459" width="367.016" height="66.3635" filterUnits="userSpaceOnUse" color-interpolation-filters="sRGB">
<feFlood flood-opacity="0" result="BackgroundImageFix"/>
<feColorMatrix in="SourceAlpha" type="matrix" values="0 0 0 0 0 0 0 0 0 0 0 0 0 0 0 0 0 0 127 0" result="hardAlpha"/>
<feOffset dx="6" dy="6"/>
<feComposite in2="hardAlpha" operator="out"/>
<feColorMatrix type="matrix" values="0 0 0 0 0.0980392 0 0 0 0 0.164706 0 0 0 0 0.317647 0 0 0 1 0"/>
<feBlend mode="normal" in2="BackgroundImageFix" result="effect1_dropShadow_63_205"/>
<feBlend mode="normal" in="SourceGraphic" in2="effect1_dropShadow_63_205" result="shape"/>
</filter>
</defs>
</svg>
