<?xml version="1.0" encoding="UTF-8"?><svg xmlns="http://www.w3.org/2000/svg" viewBox="0 0 1450 850"><g id="PixelTiles"><rect width="200" height="200" fill="#fc98ad"/><rect y="250" width="200" height="200" fill="#fc98ad"/><rect y="500" width="200" height="200" fill="#fc98ad"/><rect x="250" width="200" height="200" fill="#fca8a3"/><rect x="250" y="250" width="200" height="200" fill="#fca8a3"/><rect x="250" y="500" width="200" height="200" fill="#fca8a3"/><rect x="500" width="200" height="200" fill="#fcb69a"/><rect x="500" y="250" width="200" height="200" fill="#fcb69a"/><rect x="500" y="500" width="200" height="200" fill="#fcb69a"/><rect x="750" width="200" height="200" fill="#fcc492"/><rect x="750" y="500" width="200" height="200" fill="#fcc492"/><rect x="1000" width="200" height="200" fill="#fcd289"/><rect x="1000" y="500" width="200" height="200" fill="#fcd289"/><rect x="1250" y="500" width="200" height="200" fill="#fce081"/><rect x="1250" y="700" width="50" height="50" fill="#fcd289"/><rect x="1300" y="700" width="50" height="50" fill="#fcd289"/><rect x="1350" y="700" width="50" height="50" fill="#fcd289"/><rect x="1250" y="750" width="50" height="50" fill="#fcc492"/><rect x="1300" y="750" width="50" height="50" fill="#fcc492"/><rect x="1250" y="800" width="50" height="50" fill="#fcb69a"/><rect x="1000" y="700" width="50" height="50" fill="#fcc492"/><rect x="1050" y="700" width="50" height="50" fill="#fcc492"/><rect x="1100" y="700" width="50" height="50" fill="#fcc492"/><rect x="1000" y="750" width="50" height="50" fill="#fcb69a"/><rect x="1050" y="750" width="50" height="50" fill="#fcb69a"/><rect x="1000" y="800" width="50" height="50" fill="#fca8a3"/><rect x="750" y="700" width="50" height="50" fill="#fcb69a"/><rect x="800" y="700" width="50" height="50" fill="#fcb69a"/><rect x="850" y="700" width="50" height="50" fill="#fcb69a"/><rect x="750" y="750" width="50" height="50" fill="#fca8a3"/><rect x="800" y="750" width="50" height="50" fill="#fca8a3"/><rect x="750" y="800" width="50" height="50" fill="#fc98ad"/><rect x="500" y="700" width="50" height="50" fill="#fca8a3"/><rect x="550" y="700" width="50" height="50" fill="#fca8a3"/><rect x="600" y="700" width="50" height="50" fill="#fca8a3"/><rect x="500" y="750" width="50" height="50" fill="#fc98ad"/><rect x="550" y="750" width="50" height="50" fill="#fc98ad"/><rect x="500" y="800" width="50" height="50" fill="#fc84bb"/><rect x="250" y="700" width="50" height="50" fill="#fc98ad"/><rect x="300" y="700" width="50" height="50" fill="#fc98ad"/><rect x="350" y="700" width="50" height="50" fill="#fc98ad"/><rect x="250" y="750" width="50" height="50" fill="#fc8ab7"/><rect x="300" y="750" width="50" height="50" fill="#fc8ab7"/><rect x="250" y="800" width="50" height="50" fill="#fc7ebe"/><rect y="700" width="50" height="50" fill="#fc8ab7"/><rect x="50" y="700" width="50" height="50" fill="#fc8ab7"/><rect x="100" y="700" width="50" height="50" fill="#fc8ab7"/><rect y="750" width="50" height="50" fill="#fc7ebe"/><rect x="50" y="750" width="50" height="50" fill="#fc7ebe"/><rect y="800" width="50" height="50" fill="#fc71c6"/><rect x="1000" y="200" width="50" height="50" fill="#fcc492"/><rect x="1050" y="200" width="50" height="50" fill="#fcc492"/><rect x="1100" y="200" width="50" height="50" fill="#fcc492"/><rect x="1000" y="250" width="50" height="50" fill="#fcb69a"/><rect x="1050" y="250" width="50" height="50" fill="#fcb69a"/><rect x="1000" y="300" width="50" height="50" fill="#fca8a3"/><rect x="750" y="200" width="50" height="50" fill="#fcb69a"/><rect x="800" y="200" width="50" height="50" fill="#fcb69a"/><rect x="850" y="200" width="50" height="50" fill="#fcb69a"/><rect x="750" y="250" width="50" height="50" fill="#fca8a3"/><rect x="800" y="250" width="50" height="50" fill="#fca8a3"/><rect x="750" y="300" width="50" height="50" fill="#fc98ad"/><rect x="500" y="200" width="50" height="50" fill="#fca8a3"/><rect x="550" y="200" width="50" height="50" fill="#fca8a3"/><rect x="600" y="200" width="50" height="50" fill="#fca8a3"/><rect x="500" y="450" width="50" height="50" fill="#fca8a3"/><rect x="550" y="450" width="50" height="50" fill="#fca8a3"/><rect x="600" y="450" width="50" height="50" fill="#fca8a3"/><rect x="250" y="200" width="50" height="50" fill="#fc98ad"/><rect x="300" y="200" width="50" height="50" fill="#fc98ad"/><rect x="350" y="200" width="50" height="50" fill="#fc98ad"/><rect x="250" y="450" width="50" height="50" fill="#fc98ad"/><rect x="300" y="450" width="50" height="50" fill="#fc98ad"/><rect x="350" y="450" width="50" height="50" fill="#fc98ad"/><rect y="200" width="50" height="50" fill="#fc8ab7"/><rect x="50" y="200" width="50" height="50" fill="#fc8ab7"/><rect x="100" y="200" width="50" height="50" fill="#fc8ab7"/><rect y="450" width="50" height="50" fill="#fc8ab7"/><rect x="50" y="450" width="50" height="50" fill="#fc8ab7"/><rect x="100" y="450" width="50" height="50" fill="#fc8ab7"/></g><g id="Pixel"><text transform="translate(37.5 168.75)" fill="#192a51" font-family="Karla-ExtraBold, Karla" font-size="200" font-variation-settings="&apos;wght&apos; 800" font-weight="700"><tspan x="0" y="0">P</tspan></text><text transform="translate(318.75 168.75)" fill="#192a51" font-family="Karla-ExtraBold, Karla" font-size="200" font-variation-settings="&apos;wght&apos; 800" font-weight="700"><tspan x="0" y="0">I</tspan></text><text transform="translate(528.697 168.75)" fill="#192a51" font-family="Karla-ExtraBold, Karla" font-size="200" font-variation-settings="&apos;wght&apos; 800" font-weight="700"><tspan x="0" y="0">X</tspan></text><text transform="translate(787.5 168.75)" fill="#192a51" font-family="Karla-ExtraBold, Karla" font-size="200" font-variation-settings="&apos;wght&apos; 800" font-weight="700"><tspan x="0" y="0">E</tspan></text><text transform="translate(1041.708 168.75)" fill="#192a51" font-family="Karla-ExtraBold, Karla" font-size="200" font-variation-settings="&apos;wght&apos; 800" font-weight="700"><tspan x="0" y="0">L</tspan></text></g><g id="Pop"><text transform="translate(537.5 418.75)" fill="#192a51" font-family="Karla-ExtraBold, Karla" font-size="200" font-variation-settings="&apos;wght&apos; 800" font-weight="700"><tspan x="0" y="0">P</tspan></text><text transform="translate(278.064 418.75)" fill="#192a51" font-family="Karla-ExtraBold, Karla" font-size="200" font-variation-settings="&apos;wght&apos; 800" font-weight="700"><tspan x="0" y="0">O</tspan></text><text transform="translate(37.5 418.75)" fill="#192a51" font-family="Karla-ExtraBold, Karla" font-size="198" font-variation-settings="&apos;wght&apos; 800" font-weight="700"><tspan x="0" y="0">P</tspan></text></g><g id="Studio"><text transform="translate(31.25 668.75)" fill="#192a51" font-family="Karla-ExtraBold, Karla" font-size="200" font-variation-settings="&apos;wght&apos; 800" font-weight="700"><tspan x="0" y="0">S</tspan></text><text transform="translate(293.75 668.75)" fill="#192a51" font-family="Karla-ExtraBold, Karla" font-size="200" font-variation-settings="&apos;wght&apos; 800" font-weight="700"><tspan x="0" y="0">T</tspan></text><text transform="translate(527.553 668.75)" fill="#192a51" font-family="Karla-ExtraBold, Karla" font-size="200" font-variation-settings="&apos;wght&apos; 800" font-weight="700"><tspan x="0" y="0">U</tspan></text><text transform="translate(775 668.75)" fill="#192a51" font-family="Karla-ExtraBold, Karla" font-size="200" font-variation-settings="&apos;wght&apos; 800" font-weight="700"><tspan x="0" y="0">D</tspan></text><text transform="translate(1068.751 668.75)" fill="#192a51" font-family="Karla-ExtraBold, Karla" font-size="200" font-variation-settings="&apos;wght&apos; 800" font-weight="700"><tspan x="0" y="0">I</tspan></text><text transform="translate(1279.085 665.686)" fill="#192a51" font-family="Karla-ExtraBold, Karla" font-size="200" font-variation-settings="&apos;wght&apos; 800" font-weight="700"><tspan x="0" y="0">O</tspan></text></g></svg>