<svg width="256" height="254" viewBox="0 0 256 254" fill="none" xmlns="http://www.w3.org/2000/svg">
<path d="M254 137C254 200.505 202.297 252 138.5 252C74.7031 252 23 200.505 23 137C23 73.4953 74.7031 22 138.5 22C202.297 22 254 73.4953 254 137Z" fill="#192A51" stroke="black" stroke-width="4"/>
<circle cx="117" cy="117" r="115" fill="#FB6FC6" stroke="black" stroke-width="4"/>
<mask id="path-3-outside-1_91_12" maskUnits="userSpaceOnUse" x="59" y="36" width="115" height="59" fill="black">
<rect fill="white" x="59" y="36" width="115" height="59"/>
<path d="M60.7871 57V38.8182H68.6351C69.9846 38.8182 71.1653 39.0845 72.1774 39.6172C73.1895 40.1499 73.9766 40.8986 74.5389 41.8633C75.1011 42.828 75.3823 43.9555 75.3823 45.2457C75.3823 46.5478 75.0923 47.6753 74.5123 48.6282C73.9382 49.5811 73.1303 50.315 72.0886 50.8299C71.0529 51.3448 69.8425 51.6023 68.4576 51.6023H63.7701V47.767H67.4632C68.0433 47.767 68.5375 47.6664 68.9458 47.4652C69.3601 47.258 69.6768 46.9651 69.8958 46.5863C70.1207 46.2075 70.2331 45.7607 70.2331 45.2457C70.2331 44.7249 70.1207 44.281 69.8958 43.9141C69.6768 43.5412 69.3601 43.2571 68.9458 43.0618C68.5375 42.8606 68.0433 42.7599 67.4632 42.7599H65.7232V57H60.7871ZM77.2644 57V43.3636H82.165V57H77.2644ZM79.7147 41.9432C79.0518 41.9432 78.4836 41.7242 78.0101 41.2862C77.5366 40.8482 77.2999 40.3215 77.2999 39.706C77.2999 39.0904 77.5366 38.5637 78.0101 38.1257C78.4836 37.6877 79.0518 37.4688 79.7147 37.4688C80.3835 37.4688 80.9516 37.6877 81.4192 38.1257C81.8927 38.5637 82.1294 39.0904 82.1294 39.706C82.1294 40.3215 81.8927 40.8482 81.4192 41.2862C80.9516 41.7242 80.3835 41.9432 79.7147 41.9432ZM88.8877 43.3636L90.8763 47.5895L92.9715 43.3636H97.8366L94.1789 50.1818L98.0141 57H93.1846L90.8763 52.6676L88.6391 57H83.7385L87.6093 50.1818L83.9871 43.3636H88.8877ZM105.649 57.2486C104.193 57.2486 102.938 56.9704 101.885 56.4141C100.837 55.8518 100.029 55.0469 99.4612 53.9993C98.8989 52.9458 98.6178 51.6851 98.6178 50.2173C98.6178 48.8087 98.9019 47.5777 99.4701 46.5241C100.038 45.4706 100.84 44.6509 101.876 44.065C102.912 43.479 104.134 43.1861 105.543 43.1861C106.572 43.1861 107.505 43.3459 108.339 43.6655C109.174 43.9851 109.887 44.4497 110.479 45.0593C111.07 45.663 111.526 46.3969 111.846 47.261C112.165 48.1251 112.325 49.0987 112.325 50.1818V51.3182H100.145V48.6193H107.815C107.809 48.2287 107.709 47.8854 107.513 47.5895C107.324 47.2876 107.067 47.0539 106.741 46.8881C106.421 46.7165 106.057 46.6307 105.649 46.6307C105.253 46.6307 104.889 46.7165 104.557 46.8881C104.226 47.0539 103.959 47.2847 103.758 47.5806C103.563 47.8765 103.459 48.2228 103.447 48.6193V51.5312C103.447 51.9692 103.539 52.3598 103.723 52.7031C103.906 53.0464 104.169 53.3157 104.513 53.511C104.856 53.7063 105.27 53.804 105.756 53.804C106.093 53.804 106.401 53.7566 106.679 53.6619C106.963 53.5672 107.206 53.4311 107.407 53.2536C107.608 53.0701 107.756 52.8511 107.851 52.5966H112.325C112.171 53.5436 111.807 54.3662 111.233 55.0646C110.659 55.7571 109.899 56.2957 108.952 56.6804C108.011 57.0592 106.91 57.2486 105.649 57.2486ZM119.225 38.8182V57H114.325V38.8182H119.225ZM126.632 57V38.8182H134.48C135.829 38.8182 137.01 39.0845 138.022 39.6172C139.034 40.1499 139.821 40.8986 140.384 41.8633C140.946 42.828 141.227 43.9555 141.227 45.2457C141.227 46.5478 140.937 47.6753 140.357 48.6282C139.783 49.5811 138.975 50.315 137.933 50.8299C136.898 51.3448 135.687 51.6023 134.302 51.6023H129.615V47.767H133.308C133.888 47.767 134.382 47.6664 134.791 47.4652C135.205 47.258 135.522 46.9651 135.741 46.5863C135.965 46.2075 136.078 45.7607 136.078 45.2457C136.078 44.7249 135.965 44.281 135.741 43.9141C135.522 43.5412 135.205 43.2571 134.791 43.0618C134.382 42.8606 133.888 42.7599 133.308 42.7599H131.568V57H126.632ZM149.386 57.2486C147.906 57.2486 146.64 56.9556 145.586 56.3697C144.533 55.7778 143.725 54.9551 143.162 53.9016C142.6 52.8422 142.319 51.6141 142.319 50.2173C142.319 48.8205 142.6 47.5954 143.162 46.5419C143.725 45.4825 144.533 44.6598 145.586 44.0739C146.64 43.482 147.906 43.1861 149.386 43.1861C150.865 43.1861 152.132 43.482 153.185 44.0739C154.239 44.6598 155.047 45.4825 155.609 46.5419C156.171 47.5954 156.453 48.8205 156.453 50.2173C156.453 51.6141 156.171 52.8422 155.609 53.9016C155.047 54.9551 154.239 55.7778 153.185 56.3697C152.132 56.9556 150.865 57.2486 149.386 57.2486ZM149.421 53.6264C149.836 53.6264 150.194 53.4873 150.495 53.2092C150.797 52.931 151.031 52.5344 151.197 52.0195C151.363 51.5046 151.445 50.892 151.445 50.1818C151.445 49.4657 151.363 48.8531 151.197 48.3441C151.031 47.8292 150.797 47.4326 150.495 47.1545C150.194 46.8763 149.836 46.7372 149.421 46.7372C148.983 46.7372 148.607 46.8763 148.294 47.1545C147.98 47.4326 147.74 47.8292 147.575 48.3441C147.409 48.8531 147.326 49.4657 147.326 50.1818C147.326 50.892 147.409 51.5046 147.575 52.0195C147.74 52.5344 147.98 52.931 148.294 53.2092C148.607 53.4873 148.983 53.6264 149.421 53.6264ZM158.441 62.1136V43.3636H163.306V45.7429H163.413C163.59 45.2812 163.851 44.8581 164.194 44.4734C164.537 44.0827 164.963 43.772 165.472 43.5412C165.981 43.3045 166.573 43.1861 167.248 43.1861C168.148 43.1861 169.003 43.4258 169.814 43.9052C170.63 44.3846 171.293 45.1392 171.802 46.169C172.317 47.1989 172.575 48.5365 172.575 50.1818C172.575 51.7562 172.329 53.0612 171.838 54.0969C171.352 55.1327 170.701 55.9051 169.885 56.4141C169.074 56.9231 168.183 57.1776 167.212 57.1776C166.573 57.1776 166.002 57.074 165.499 56.8668C165.002 56.6538 164.576 56.3667 164.221 56.0057C163.871 55.6387 163.602 55.2244 163.413 54.7628H163.342V62.1136H158.441ZM163.235 50.1818C163.235 50.8447 163.321 51.4188 163.493 51.9041C163.67 52.3835 163.919 52.7564 164.238 53.0227C164.564 53.2831 164.952 53.4134 165.401 53.4134C165.851 53.4134 166.233 53.2861 166.547 53.0316C166.866 52.7712 167.109 52.4013 167.275 51.9219C167.446 51.4366 167.532 50.8565 167.532 50.1818C167.532 49.5071 167.446 48.93 167.275 48.4506C167.109 47.9653 166.866 47.5954 166.547 47.3409C166.233 47.0805 165.851 46.9503 165.401 46.9503C164.952 46.9503 164.564 47.0805 164.238 47.3409C163.919 47.5954 163.67 47.9653 163.493 48.4506C163.321 48.93 163.235 49.5071 163.235 50.1818ZM96.627 93V74.8182H104.475C105.824 74.8182 107.005 75.0845 108.017 75.6172C109.029 76.1499 109.816 76.8986 110.379 77.8633C110.941 78.828 111.222 79.9555 111.222 81.2457C111.222 82.5478 110.932 83.6753 110.352 84.6282C109.778 85.5811 108.97 86.315 107.928 86.8299C106.893 87.3448 105.682 87.6023 104.297 87.6023H99.6099V83.767H103.303C103.883 83.767 104.377 83.6664 104.786 83.4652C105.2 83.258 105.517 82.9651 105.736 82.5863C105.961 82.2075 106.073 81.7607 106.073 81.2457C106.073 80.7249 105.961 80.281 105.736 79.9141C105.517 79.5412 105.2 79.2571 104.786 79.0618C104.377 78.8606 103.883 78.7599 103.303 78.7599H101.563V93H96.627ZM113.104 93V79.3636H117.863V81.956H118.005C118.253 80.9972 118.647 80.2958 119.186 79.8519C119.73 79.408 120.366 79.1861 121.094 79.1861C121.307 79.1861 121.517 79.2038 121.725 79.2393C121.938 79.2689 122.142 79.3133 122.337 79.3725V83.554C122.095 83.4711 121.796 83.409 121.441 83.3675C121.085 83.3261 120.781 83.3054 120.526 83.3054C120.047 83.3054 119.615 83.4149 119.23 83.6339C118.851 83.8469 118.552 84.1488 118.333 84.5394C118.114 84.9241 118.005 85.3769 118.005 85.8977V93H113.104ZM129.732 93.2486C128.253 93.2486 126.986 92.9556 125.933 92.3697C124.879 91.7778 124.071 90.9551 123.509 89.9016C122.947 88.8422 122.666 87.6141 122.666 86.2173C122.666 84.8205 122.947 83.5954 123.509 82.5419C124.071 81.4825 124.879 80.6598 125.933 80.0739C126.986 79.482 128.253 79.1861 129.732 79.1861C131.212 79.1861 132.479 79.482 133.532 80.0739C134.586 80.6598 135.394 81.4825 135.956 82.5419C136.518 83.5954 136.799 84.8205 136.799 86.2173C136.799 87.6141 136.518 88.8422 135.956 89.9016C135.394 90.9551 134.586 91.7778 133.532 92.3697C132.479 92.9556 131.212 93.2486 129.732 93.2486ZM129.768 89.6264C130.182 89.6264 130.54 89.4873 130.842 89.2092C131.144 88.931 131.378 88.5344 131.544 88.0195C131.709 87.5046 131.792 86.892 131.792 86.1818C131.792 85.4657 131.709 84.8531 131.544 84.3441C131.378 83.8292 131.144 83.4326 130.842 83.1545C130.54 82.8763 130.182 82.7372 129.768 82.7372C129.33 82.7372 128.954 82.8763 128.64 83.1545C128.327 83.4326 128.087 83.8292 127.921 84.3441C127.756 84.8531 127.673 85.4657 127.673 86.1818C127.673 86.892 127.756 87.5046 127.921 88.0195C128.087 88.5344 128.327 88.931 128.64 89.2092C128.954 89.4873 129.33 89.6264 129.768 89.6264Z"/>
</mask>
<path d="M60.7871 57V38.8182H68.6351C69.9846 38.8182 71.1653 39.0845 72.1774 39.6172C73.1895 40.1499 73.9766 40.8986 74.5389 41.8633C75.1011 42.828 75.3823 43.9555 75.3823 45.2457C75.3823 46.5478 75.0923 47.6753 74.5123 48.6282C73.9382 49.5811 73.1303 50.315 72.0886 50.8299C71.0529 51.3448 69.8425 51.6023 68.4576 51.6023H63.7701V47.767H67.4632C68.0433 47.767 68.5375 47.6664 68.9458 47.4652C69.3601 47.258 69.6768 46.9651 69.8958 46.5863C70.1207 46.2075 70.2331 45.7607 70.2331 45.2457C70.2331 44.7249 70.1207 44.281 69.8958 43.9141C69.6768 43.5412 69.3601 43.2571 68.9458 43.0618C68.5375 42.8606 68.0433 42.7599 67.4632 42.7599H65.7232V57H60.7871ZM77.2644 57V43.3636H82.165V57H77.2644ZM79.7147 41.9432C79.0518 41.9432 78.4836 41.7242 78.0101 41.2862C77.5366 40.8482 77.2999 40.3215 77.2999 39.706C77.2999 39.0904 77.5366 38.5637 78.0101 38.1257C78.4836 37.6877 79.0518 37.4688 79.7147 37.4688C80.3835 37.4688 80.9516 37.6877 81.4192 38.1257C81.8927 38.5637 82.1294 39.0904 82.1294 39.706C82.1294 40.3215 81.8927 40.8482 81.4192 41.2862C80.9516 41.7242 80.3835 41.9432 79.7147 41.9432ZM88.8877 43.3636L90.8763 47.5895L92.9715 43.3636H97.8366L94.1789 50.1818L98.0141 57H93.1846L90.8763 52.6676L88.6391 57H83.7385L87.6093 50.1818L83.9871 43.3636H88.8877ZM105.649 57.2486C104.193 57.2486 102.938 56.9704 101.885 56.4141C100.837 55.8518 100.029 55.0469 99.4612 53.9993C98.8989 52.9458 98.6178 51.6851 98.6178 50.2173C98.6178 48.8087 98.9019 47.5777 99.4701 46.5241C100.038 45.4706 100.84 44.6509 101.876 44.065C102.912 43.479 104.134 43.1861 105.543 43.1861C106.572 43.1861 107.505 43.3459 108.339 43.6655C109.174 43.9851 109.887 44.4497 110.479 45.0593C111.07 45.663 111.526 46.3969 111.846 47.261C112.165 48.1251 112.325 49.0987 112.325 50.1818V51.3182H100.145V48.6193H107.815C107.809 48.2287 107.709 47.8854 107.513 47.5895C107.324 47.2876 107.067 47.0539 106.741 46.8881C106.421 46.7165 106.057 46.6307 105.649 46.6307C105.253 46.6307 104.889 46.7165 104.557 46.8881C104.226 47.0539 103.959 47.2847 103.758 47.5806C103.563 47.8765 103.459 48.2228 103.447 48.6193V51.5312C103.447 51.9692 103.539 52.3598 103.723 52.7031C103.906 53.0464 104.169 53.3157 104.513 53.511C104.856 53.7063 105.27 53.804 105.756 53.804C106.093 53.804 106.401 53.7566 106.679 53.6619C106.963 53.5672 107.206 53.4311 107.407 53.2536C107.608 53.0701 107.756 52.8511 107.851 52.5966H112.325C112.171 53.5436 111.807 54.3662 111.233 55.0646C110.659 55.7571 109.899 56.2957 108.952 56.6804C108.011 57.0592 106.91 57.2486 105.649 57.2486ZM119.225 38.8182V57H114.325V38.8182H119.225ZM126.632 57V38.8182H134.48C135.829 38.8182 137.01 39.0845 138.022 39.6172C139.034 40.1499 139.821 40.8986 140.384 41.8633C140.946 42.828 141.227 43.9555 141.227 45.2457C141.227 46.5478 140.937 47.6753 140.357 48.6282C139.783 49.5811 138.975 50.315 137.933 50.8299C136.898 51.3448 135.687 51.6023 134.302 51.6023H129.615V47.767H133.308C133.888 47.767 134.382 47.6664 134.791 47.4652C135.205 47.258 135.522 46.9651 135.741 46.5863C135.965 46.2075 136.078 45.7607 136.078 45.2457C136.078 44.7249 135.965 44.281 135.741 43.9141C135.522 43.5412 135.205 43.2571 134.791 43.0618C134.382 42.8606 133.888 42.7599 133.308 42.7599H131.568V57H126.632ZM149.386 57.2486C147.906 57.2486 146.64 56.9556 145.586 56.3697C144.533 55.7778 143.725 54.9551 143.162 53.9016C142.6 52.8422 142.319 51.6141 142.319 50.2173C142.319 48.8205 142.6 47.5954 143.162 46.5419C143.725 45.4825 144.533 44.6598 145.586 44.0739C146.64 43.482 147.906 43.1861 149.386 43.1861C150.865 43.1861 152.132 43.482 153.185 44.0739C154.239 44.6598 155.047 45.4825 155.609 46.5419C156.171 47.5954 156.453 48.8205 156.453 50.2173C156.453 51.6141 156.171 52.8422 155.609 53.9016C155.047 54.9551 154.239 55.7778 153.185 56.3697C152.132 56.9556 150.865 57.2486 149.386 57.2486ZM149.421 53.6264C149.836 53.6264 150.194 53.4873 150.495 53.2092C150.797 52.931 151.031 52.5344 151.197 52.0195C151.363 51.5046 151.445 50.892 151.445 50.1818C151.445 49.4657 151.363 48.8531 151.197 48.3441C151.031 47.8292 150.797 47.4326 150.495 47.1545C150.194 46.8763 149.836 46.7372 149.421 46.7372C148.983 46.7372 148.607 46.8763 148.294 47.1545C147.98 47.4326 147.74 47.8292 147.575 48.3441C147.409 48.8531 147.326 49.4657 147.326 50.1818C147.326 50.892 147.409 51.5046 147.575 52.0195C147.74 52.5344 147.98 52.931 148.294 53.2092C148.607 53.4873 148.983 53.6264 149.421 53.6264ZM158.441 62.1136V43.3636H163.306V45.7429H163.413C163.59 45.2812 163.851 44.8581 164.194 44.4734C164.537 44.0827 164.963 43.772 165.472 43.5412C165.981 43.3045 166.573 43.1861 167.248 43.1861C168.148 43.1861 169.003 43.4258 169.814 43.9052C170.63 44.3846 171.293 45.1392 171.802 46.169C172.317 47.1989 172.575 48.5365 172.575 50.1818C172.575 51.7562 172.329 53.0612 171.838 54.0969C171.352 55.1327 170.701 55.9051 169.885 56.4141C169.074 56.9231 168.183 57.1776 167.212 57.1776C166.573 57.1776 166.002 57.074 165.499 56.8668C165.002 56.6538 164.576 56.3667 164.221 56.0057C163.871 55.6387 163.602 55.2244 163.413 54.7628H163.342V62.1136H158.441ZM163.235 50.1818C163.235 50.8447 163.321 51.4188 163.493 51.9041C163.67 52.3835 163.919 52.7564 164.238 53.0227C164.564 53.2831 164.952 53.4134 165.401 53.4134C165.851 53.4134 166.233 53.2861 166.547 53.0316C166.866 52.7712 167.109 52.4013 167.275 51.9219C167.446 51.4366 167.532 50.8565 167.532 50.1818C167.532 49.5071 167.446 48.93 167.275 48.4506C167.109 47.9653 166.866 47.5954 166.547 47.3409C166.233 47.0805 165.851 46.9503 165.401 46.9503C164.952 46.9503 164.564 47.0805 164.238 47.3409C163.919 47.5954 163.67 47.9653 163.493 48.4506C163.321 48.93 163.235 49.5071 163.235 50.1818ZM96.627 93V74.8182H104.475C105.824 74.8182 107.005 75.0845 108.017 75.6172C109.029 76.1499 109.816 76.8986 110.379 77.8633C110.941 78.828 111.222 79.9555 111.222 81.2457C111.222 82.5478 110.932 83.6753 110.352 84.6282C109.778 85.5811 108.97 86.315 107.928 86.8299C106.893 87.3448 105.682 87.6023 104.297 87.6023H99.6099V83.767H103.303C103.883 83.767 104.377 83.6664 104.786 83.4652C105.2 83.258 105.517 82.9651 105.736 82.5863C105.961 82.2075 106.073 81.7607 106.073 81.2457C106.073 80.7249 105.961 80.281 105.736 79.9141C105.517 79.5412 105.2 79.2571 104.786 79.0618C104.377 78.8606 103.883 78.7599 103.303 78.7599H101.563V93H96.627ZM113.104 93V79.3636H117.863V81.956H118.005C118.253 80.9972 118.647 80.2958 119.186 79.8519C119.73 79.408 120.366 79.1861 121.094 79.1861C121.307 79.1861 121.517 79.2038 121.725 79.2393C121.938 79.2689 122.142 79.3133 122.337 79.3725V83.554C122.095 83.4711 121.796 83.409 121.441 83.3675C121.085 83.3261 120.781 83.3054 120.526 83.3054C120.047 83.3054 119.615 83.4149 119.23 83.6339C118.851 83.8469 118.552 84.1488 118.333 84.5394C118.114 84.9241 118.005 85.3769 118.005 85.8977V93H113.104ZM129.732 93.2486C128.253 93.2486 126.986 92.9556 125.933 92.3697C124.879 91.7778 124.071 90.9551 123.509 89.9016C122.947 88.8422 122.666 87.6141 122.666 86.2173C122.666 84.8205 122.947 83.5954 123.509 82.5419C124.071 81.4825 124.879 80.6598 125.933 80.0739C126.986 79.482 128.253 79.1861 129.732 79.1861C131.212 79.1861 132.479 79.482 133.532 80.0739C134.586 80.6598 135.394 81.4825 135.956 82.5419C136.518 83.5954 136.799 84.8205 136.799 86.2173C136.799 87.6141 136.518 88.8422 135.956 89.9016C135.394 90.9551 134.586 91.7778 133.532 92.3697C132.479 92.9556 131.212 93.2486 129.732 93.2486ZM129.768 89.6264C130.182 89.6264 130.54 89.4873 130.842 89.2092C131.144 88.931 131.378 88.5344 131.544 88.0195C131.709 87.5046 131.792 86.892 131.792 86.1818C131.792 85.4657 131.709 84.8531 131.544 84.3441C131.378 83.8292 131.144 83.4326 130.842 83.1545C130.54 82.8763 130.182 82.7372 129.768 82.7372C129.33 82.7372 128.954 82.8763 128.64 83.1545C128.327 83.4326 128.087 83.8292 127.921 84.3441C127.756 84.8531 127.673 85.4657 127.673 86.1818C127.673 86.892 127.756 87.5046 127.921 88.0195C128.087 88.5344 128.327 88.931 128.64 89.2092C128.954 89.4873 129.33 89.6264 129.768 89.6264Z" fill="#FFF6E3"/>
<path d="M60.7871 57H59.5371V58.25H60.7871V57ZM60.7871 38.8182V37.5682H59.5371V38.8182H60.7871ZM72.1774 39.6172L71.5952 40.7233L71.5952 40.7233L72.1774 39.6172ZM74.5389 41.8633L75.6188 41.2339L75.6188 41.2339L74.5389 41.8633ZM74.5123 48.6282L73.4445 47.9783L73.4416 47.9831L74.5123 48.6282ZM72.0886 50.8299L71.5347 49.7093L71.5321 49.7106L72.0886 50.8299ZM63.7701 51.6023H62.5201V52.8523H63.7701V51.6023ZM63.7701 47.767V46.517H62.5201V47.767H63.7701ZM68.9458 47.4652L69.4984 48.5865L69.5049 48.5832L68.9458 47.4652ZM69.8958 46.5863L68.821 45.9481L68.8172 45.9544L68.8136 45.9607L69.8958 46.5863ZM69.8958 43.9141L68.8179 44.5471L68.8239 44.5572L68.83 44.5673L69.8958 43.9141ZM68.9458 43.0618L68.3933 44.1831L68.403 44.1878L68.4128 44.1924L68.9458 43.0618ZM65.7232 42.7599V41.5099H64.4732V42.7599H65.7232ZM65.7232 57V58.25H66.9732V57H65.7232ZM62.0371 57V38.8182H59.5371V57H62.0371ZM60.7871 40.0682H68.6351V37.5682H60.7871V40.0682ZM68.6351 40.0682C69.8181 40.0682 70.7923 40.3008 71.5952 40.7233L72.7596 38.511C71.5383 37.8683 70.151 37.5682 68.6351 37.5682V40.0682ZM71.5952 40.7233C72.4052 41.1497 73.0176 41.7355 73.4589 42.4927L75.6188 41.2339C74.9356 40.0616 73.9737 39.15 72.7596 38.511L71.5952 40.7233ZM73.4589 42.4927C73.8935 43.2383 74.1323 44.1418 74.1323 45.2457H76.6323C76.6323 43.7692 76.3088 42.4177 75.6188 41.2339L73.4589 42.4927ZM74.1323 45.2457C74.1323 46.3575 73.8866 47.252 73.4445 47.9783L75.58 49.2781C76.2979 48.0987 76.6323 46.7382 76.6323 45.2457H74.1323ZM73.4416 47.9831C72.9964 48.722 72.3722 49.2953 71.5347 49.7093L72.6425 51.9505C73.8883 51.3347 74.8799 50.4402 75.5829 49.2733L73.4416 47.9831ZM71.5321 49.7106C70.7002 50.1242 69.6871 50.3523 68.4576 50.3523V52.8523C69.9979 52.8523 71.4055 52.5654 72.6451 51.9492L71.5321 49.7106ZM68.4576 50.3523H63.7701V52.8523H68.4576V50.3523ZM65.0201 51.6023V47.767H62.5201V51.6023H65.0201ZM63.7701 49.017H67.4632V46.517H63.7701V49.017ZM67.4632 49.017C68.1839 49.017 68.8776 48.8923 69.4984 48.5865L68.3933 46.3439C68.1973 46.4405 67.9026 46.517 67.4632 46.517V49.017ZM69.5049 48.5832C70.1245 48.2734 70.6292 47.8152 70.9779 47.2119L68.8136 45.9607C68.7244 46.115 68.5958 46.2427 68.3868 46.3472L69.5049 48.5832ZM70.9706 47.2245C71.3283 46.622 71.4831 45.9469 71.4831 45.2457H68.9831C68.9831 45.5744 68.9131 45.793 68.821 45.9481L70.9706 47.2245ZM71.4831 45.2457C71.4831 44.543 71.33 43.8621 70.9615 43.2609L68.83 44.5673C68.9113 44.6999 68.9831 44.9068 68.9831 45.2457H71.4831ZM70.9736 43.281C70.6195 42.6781 70.1065 42.227 69.4789 41.9311L68.4128 44.1924C68.6138 44.2872 68.7341 44.4043 68.8179 44.5471L70.9736 43.281ZM69.4984 41.9405C68.8776 41.6347 68.1839 41.5099 67.4632 41.5099V44.0099C67.9026 44.0099 68.1973 44.0865 68.3933 44.1831L69.4984 41.9405ZM67.4632 41.5099H65.7232V44.0099H67.4632V41.5099ZM64.4732 42.7599V57H66.9732V42.7599H64.4732ZM65.7232 55.75H60.7871V58.25H65.7232V55.75ZM77.2644 57H76.0144V58.25H77.2644V57ZM77.2644 43.3636V42.1136H76.0144V43.3636H77.2644ZM82.165 43.3636H83.415V42.1136H82.165V43.3636ZM82.165 57V58.25H83.415V57H82.165ZM78.0101 41.2862L77.1613 42.2038L77.1613 42.2038L78.0101 41.2862ZM78.0101 38.1257L77.1613 37.2081L77.1613 37.2081L78.0101 38.1257ZM81.4192 38.1257L80.5647 39.038L80.5704 39.0433L81.4192 38.1257ZM81.4192 41.2862L80.5704 40.3686L80.5647 40.3739L81.4192 41.2862ZM78.5144 57V43.3636H76.0144V57H78.5144ZM77.2644 44.6136H82.165V42.1136H77.2644V44.6136ZM80.915 43.3636V57H83.415V43.3636H80.915ZM82.165 55.75H77.2644V58.25H82.165V55.75ZM79.7147 40.6932C79.3568 40.6932 79.0944 40.5864 78.8589 40.3686L77.1613 42.2038C77.8728 42.862 78.7468 43.1932 79.7147 43.1932V40.6932ZM78.8589 40.3686C78.6274 40.1544 78.5499 39.9547 78.5499 39.706H76.0499C76.0499 40.6883 76.4459 41.542 77.1613 42.2038L78.8589 40.3686ZM78.5499 39.706C78.5499 39.4572 78.6274 39.2575 78.8589 39.0433L77.1613 37.2081C76.4459 37.8699 76.0499 38.7236 76.0499 39.706H78.5499ZM78.8589 39.0433C79.0944 38.8255 79.3568 38.7188 79.7147 38.7188V36.2188C78.7468 36.2188 77.8728 36.55 77.1613 37.2081L78.8589 39.0433ZM79.7147 38.7188C80.0815 38.7188 80.3397 38.8273 80.5647 39.038L82.2738 37.2134C81.5636 36.5482 80.6855 36.2188 79.7147 36.2188V38.7188ZM80.5704 39.0433C80.8019 39.2575 80.8794 39.4572 80.8794 39.706H83.3794C83.3794 38.7236 82.9835 37.8699 82.268 37.2081L80.5704 39.0433ZM80.8794 39.706C80.8794 39.9547 80.8019 40.1544 80.5704 40.3686L82.268 42.2038C82.9835 41.542 83.3794 40.6883 83.3794 39.706H80.8794ZM80.5647 40.3739C80.3397 40.5846 80.0815 40.6932 79.7147 40.6932V43.1932C80.6855 43.1932 81.5636 42.8638 82.2738 42.1985L80.5647 40.3739ZM88.8877 43.3636L90.0187 42.8314L89.681 42.1136H88.8877V43.3636ZM90.8763 47.5895L89.7453 48.1217L90.847 50.4628L91.9962 48.1447L90.8763 47.5895ZM92.9715 43.3636V42.1136H92.196L91.8516 42.8084L92.9715 43.3636ZM97.8366 43.3636L98.9381 43.9545L99.9256 42.1136H97.8366V43.3636ZM94.1789 50.1818L93.0774 49.5909L92.7527 50.1961L93.0894 50.7946L94.1789 50.1818ZM98.0141 57V58.25H100.151L99.1036 56.3872L98.0141 57ZM93.1846 57L92.0814 57.5878L92.4342 58.25H93.1846V57ZM90.8763 52.6676L91.9795 52.0798L90.859 49.9768L89.7657 52.0941L90.8763 52.6676ZM88.6391 57V58.25H89.4005L89.7498 57.5735L88.6391 57ZM83.7385 57L82.6515 56.3829L81.5915 58.25H83.7385V57ZM87.6093 50.1818L88.6963 50.7989L89.0353 50.2018L88.7132 49.5954L87.6093 50.1818ZM83.9871 43.3636V42.1136H81.9076L82.8832 43.9501L83.9871 43.3636ZM87.7567 43.8959L89.7453 48.1217L92.0074 47.0572L90.0187 42.8314L87.7567 43.8959ZM91.9962 48.1447L94.0914 43.9189L91.8516 42.8084L89.7564 47.0342L91.9962 48.1447ZM92.9715 44.6136H97.8366V42.1136H92.9715V44.6136ZM96.7351 42.7727L93.0774 49.5909L95.2804 50.7727L98.9381 43.9545L96.7351 42.7727ZM93.0894 50.7946L96.9246 57.6128L99.1036 56.3872L95.2684 49.569L93.0894 50.7946ZM98.0141 55.75H93.1846V58.25H98.0141V55.75ZM94.2878 56.4122L91.9795 52.0798L89.7731 53.2554L92.0814 57.5878L94.2878 56.4122ZM89.7657 52.0941L87.5285 56.4265L89.7498 57.5735L91.987 53.2411L89.7657 52.0941ZM88.6391 55.75H83.7385V58.25H88.6391V55.75ZM84.8256 57.6171L88.6963 50.7989L86.5222 49.5647L82.6515 56.3829L84.8256 57.6171ZM88.7132 49.5954L85.091 42.7772L82.8832 43.9501L86.5054 50.7683L88.7132 49.5954ZM83.9871 44.6136H88.8877V42.1136H83.9871V44.6136ZM101.885 56.4141L101.294 57.5155L101.301 57.5194L101.885 56.4141ZM99.4612 53.9993L98.3584 54.5879L98.3624 54.5952L99.4612 53.9993ZM99.4701 46.5241L100.57 47.1175L100.57 47.1175L99.4701 46.5241ZM101.876 44.065L102.491 45.153L102.491 45.153L101.876 44.065ZM108.339 43.6655L108.786 42.4982L108.786 42.4982L108.339 43.6655ZM110.479 45.0593L109.582 45.93L109.586 45.9344L110.479 45.0593ZM111.846 47.261L110.673 47.6946L110.673 47.6946L111.846 47.261ZM112.325 51.3182V52.5682H113.575V51.3182H112.325ZM100.145 51.3182H98.8948V52.5682H100.145V51.3182ZM100.145 48.6193V47.3693H98.8948V48.6193H100.145ZM107.815 48.6193V49.8693H109.084L109.065 48.6004L107.815 48.6193ZM107.513 47.5895L106.455 48.2539L106.462 48.266L106.47 48.278L107.513 47.5895ZM106.741 46.8881L106.15 47.9894L106.162 47.9959L106.174 48.0021L106.741 46.8881ZM104.557 46.8881L105.116 48.0062L105.124 48.0022L105.132 47.9981L104.557 46.8881ZM103.758 47.5806L102.724 46.8777L102.72 46.8849L102.715 46.8921L103.758 47.5806ZM103.447 48.6193L102.198 48.582L102.197 48.6007V48.6193H103.447ZM103.723 52.7031L102.62 53.2923L102.62 53.2923L103.723 52.7031ZM104.513 53.511L103.895 54.5975L103.895 54.5975L104.513 53.511ZM106.679 53.6619L106.284 52.4761L106.276 52.4786L106.679 53.6619ZM107.407 53.2536L108.234 54.1908L108.242 54.1841L108.249 54.1772L107.407 53.2536ZM107.851 52.5966V51.3466H106.982L106.679 52.1607L107.851 52.5966ZM112.325 52.5966L113.559 52.7971L113.795 51.3466H112.325V52.5966ZM111.233 55.0646L112.196 55.8624L112.199 55.8584L111.233 55.0646ZM108.952 56.6804L109.418 57.84L109.422 57.8385L108.952 56.6804ZM105.649 55.9986C104.352 55.9986 103.306 55.7512 102.469 55.3087L101.301 57.5194C102.57 58.1896 104.034 58.4986 105.649 58.4986V55.9986ZM102.476 55.3127C101.644 54.866 101.012 54.2371 100.56 53.4033L98.3624 54.5952C99.0466 55.8567 100.031 56.8376 101.294 57.5154L102.476 55.3127ZM100.564 53.4107C100.118 52.5753 99.8678 51.5263 99.8678 50.2173H97.3678C97.3678 51.844 97.6798 53.3163 98.3584 54.5878L100.564 53.4107ZM99.8678 50.2173C99.8678 48.9792 100.116 47.9589 100.57 47.1175L98.3699 45.9308C97.6873 47.1964 97.3678 48.6382 97.3678 50.2173H99.8678ZM100.57 47.1175C101.027 46.2699 101.662 45.6222 102.491 45.153L101.26 42.977C100.019 43.6796 99.0491 44.6713 98.3699 45.9308L100.57 47.1175ZM102.491 45.153C103.308 44.6912 104.31 44.4361 105.543 44.4361V41.9361C103.958 41.9361 102.516 42.2669 101.26 42.977L102.491 45.153ZM105.543 44.4361C106.443 44.4361 107.22 44.5755 107.892 44.8328L108.786 42.4982C107.789 42.1162 106.702 41.9361 105.543 41.9361V44.4361ZM107.892 44.8328C108.566 45.0909 109.123 45.4575 109.582 45.93L111.375 44.1886C110.65 43.4419 109.781 42.8793 108.786 42.4982L107.892 44.8328ZM109.586 45.9344C110.044 46.4014 110.409 46.9808 110.673 47.6946L113.018 46.8274C112.643 45.813 112.097 44.9246 111.371 44.1842L109.586 45.9344ZM110.673 47.6946C110.934 48.3979 111.075 49.2213 111.075 50.1818H113.575C113.575 48.9762 113.397 47.8523 113.018 46.8274L110.673 47.6946ZM111.075 50.1818V51.3182H113.575V50.1818H111.075ZM112.325 50.0682H100.145V52.5682H112.325V50.0682ZM101.395 51.3182V48.6193H98.8948V51.3182H101.395ZM100.145 49.8693H107.815V47.3693H100.145V49.8693ZM109.065 48.6004C109.056 47.9966 108.896 47.4158 108.557 46.9009L106.47 48.278C106.521 48.355 106.563 48.4608 106.565 48.6383L109.065 48.6004ZM108.572 46.9251C108.26 46.4267 107.83 46.0398 107.308 45.7742L106.174 48.0021C106.303 48.0679 106.389 48.1486 106.455 48.2539L108.572 46.9251ZM107.332 45.7869C106.809 45.5059 106.238 45.3807 105.649 45.3807V47.8807C105.877 47.8807 106.034 47.9271 106.15 47.9894L107.332 45.7869ZM105.649 45.3807C105.065 45.3807 104.502 45.5088 103.982 45.7781L105.132 47.9981C105.275 47.9242 105.44 47.8807 105.649 47.8807V45.3807ZM103.998 45.7701C103.483 46.0278 103.05 46.3987 102.724 46.8777L104.792 48.2835C104.868 48.1707 104.969 48.0799 105.116 48.0062L103.998 45.7701ZM102.715 46.8921C102.377 47.4041 102.216 47.9818 102.198 48.582L104.697 48.6566C104.703 48.4637 104.749 48.349 104.801 48.2692L102.715 46.8921ZM102.197 48.6193V51.5312H104.697V48.6193H102.197ZM102.197 51.5312C102.197 52.1487 102.328 52.7461 102.62 53.2923L104.825 52.1139C104.75 51.9736 104.697 51.7898 104.697 51.5312H102.197ZM102.62 53.2923C102.917 53.847 103.349 54.2873 103.895 54.5975L105.131 52.4246C104.99 52.3441 104.895 52.2458 104.825 52.1139L102.62 53.2923ZM103.895 54.5975C104.465 54.9219 105.103 55.054 105.756 55.054V52.554C105.438 52.554 105.247 52.4907 105.131 52.4246L103.895 54.5975ZM105.756 55.054C106.21 55.054 106.656 54.9901 107.082 54.8452L106.276 52.4786C106.145 52.5232 105.976 52.554 105.756 52.554V55.054ZM107.074 54.8478C107.499 54.7062 107.893 54.4916 108.234 54.1908L106.58 52.3163C106.518 52.3706 106.427 52.4283 106.284 52.4761L107.074 54.8478ZM108.249 54.1772C108.597 53.8601 108.858 53.474 109.022 53.0325L106.679 52.1607C106.654 52.2281 106.619 52.28 106.565 52.3299L108.249 54.1772ZM107.851 53.8466H112.325V51.3466H107.851V53.8466ZM111.091 52.3961C110.971 53.1389 110.693 53.7536 110.268 54.2709L112.199 55.8584C112.922 54.9789 113.372 53.9482 113.559 52.7971L111.091 52.3961ZM110.271 54.2668C109.846 54.7799 109.263 55.2046 108.481 55.5223L109.422 57.8385C110.534 57.3868 111.473 56.7343 112.196 55.8624L110.271 54.2668ZM108.485 55.5208C107.723 55.8273 106.787 55.9986 105.649 55.9986V58.4986C107.032 58.4986 108.298 58.2911 109.418 57.84L108.485 55.5208ZM119.225 38.8182H120.475V37.5682H119.225V38.8182ZM119.225 57V58.25H120.475V57H119.225ZM114.325 57H113.075V58.25H114.325V57ZM114.325 38.8182V37.5682H113.075V38.8182H114.325ZM117.975 38.8182V57H120.475V38.8182H117.975ZM119.225 55.75H114.325V58.25H119.225V55.75ZM115.575 57V38.8182H113.075V57H115.575ZM114.325 40.0682H119.225V37.5682H114.325V40.0682ZM126.632 57H125.382V58.25H126.632V57ZM126.632 38.8182V37.5682H125.382V38.8182H126.632ZM138.022 39.6172L137.44 40.7233L137.44 40.7233L138.022 39.6172ZM140.384 41.8633L141.464 41.2339L141.464 41.2339L140.384 41.8633ZM140.357 48.6282L139.289 47.9783L139.286 47.9831L140.357 48.6282ZM137.933 50.8299L137.379 49.7093L137.377 49.7106L137.933 50.8299ZM129.615 51.6023H128.365V52.8523H129.615V51.6023ZM129.615 47.767V46.517H128.365V47.767H129.615ZM134.791 47.4652L135.343 48.5865L135.35 48.5832L134.791 47.4652ZM135.741 46.5863L134.666 45.9481L134.662 45.9544L134.658 45.9607L135.741 46.5863ZM135.741 43.9141L134.663 44.5471L134.669 44.5572L134.675 44.5673L135.741 43.9141ZM134.791 43.0618L134.238 44.1831L134.248 44.1878L134.258 44.1924L134.791 43.0618ZM131.568 42.7599V41.5099H130.318V42.7599H131.568ZM131.568 57V58.25H132.818V57H131.568ZM127.882 57V38.8182H125.382V57H127.882ZM126.632 40.0682H134.48V37.5682H126.632V40.0682ZM134.48 40.0682C135.663 40.0682 136.637 40.3008 137.44 40.7233L138.604 38.511C137.383 37.8683 135.996 37.5682 134.48 37.5682V40.0682ZM137.44 40.7233C138.25 41.1497 138.862 41.7355 139.304 42.4927L141.464 41.2339C140.78 40.0616 139.818 39.15 138.604 38.511L137.44 40.7233ZM139.304 42.4927C139.738 43.2383 139.977 44.1418 139.977 45.2457H142.477C142.477 43.7692 142.154 42.4177 141.464 41.2339L139.304 42.4927ZM139.977 45.2457C139.977 46.3575 139.731 47.252 139.289 47.9783L141.425 49.2781C142.143 48.0987 142.477 46.7382 142.477 45.2457H139.977ZM139.286 47.9831C138.841 48.722 138.217 49.2953 137.379 49.7093L138.487 51.9505C139.733 51.3347 140.725 50.4402 141.428 49.2733L139.286 47.9831ZM137.377 49.7106C136.545 50.1242 135.532 50.3523 134.302 50.3523V52.8523C135.843 52.8523 137.25 52.5654 138.49 51.9492L137.377 49.7106ZM134.302 50.3523H129.615V52.8523H134.302V50.3523ZM130.865 51.6023V47.767H128.365V51.6023H130.865ZM129.615 49.017H133.308V46.517H129.615V49.017ZM133.308 49.017C134.029 49.017 134.722 48.8923 135.343 48.5865L134.238 46.3439C134.042 46.4405 133.747 46.517 133.308 46.517V49.017ZM135.35 48.5832C135.969 48.2734 136.474 47.8152 136.823 47.2119L134.658 45.9607C134.569 46.115 134.441 46.2427 134.232 46.3472L135.35 48.5832ZM136.815 47.2245C137.173 46.622 137.328 45.9469 137.328 45.2457H134.828C134.828 45.5744 134.758 45.793 134.666 45.9481L136.815 47.2245ZM137.328 45.2457C137.328 44.543 137.175 43.8621 136.806 43.2609L134.675 44.5673C134.756 44.6999 134.828 44.9068 134.828 45.2457H137.328ZM136.818 43.281C136.464 42.6781 135.951 42.227 135.324 41.9311L134.258 44.1924C134.459 44.2872 134.579 44.4043 134.663 44.5471L136.818 43.281ZM135.343 41.9405C134.722 41.6347 134.029 41.5099 133.308 41.5099V44.0099C133.747 44.0099 134.042 44.0865 134.238 44.1831L135.343 41.9405ZM133.308 41.5099H131.568V44.0099H133.308V41.5099ZM130.318 42.7599V57H132.818V42.7599H130.318ZM131.568 55.75H126.632V58.25H131.568V55.75ZM145.586 56.3697L144.974 57.4595L144.978 57.4621L145.586 56.3697ZM143.162 53.9016L142.058 54.4876L142.06 54.4902L143.162 53.9016ZM143.162 46.5419L144.265 47.1305L144.267 47.1279L143.162 46.5419ZM145.586 44.0739L146.194 45.1663L146.198 45.1637L145.586 44.0739ZM153.185 44.0739L152.573 45.1637L152.578 45.1663L153.185 44.0739ZM155.609 46.5419L154.505 47.1279L154.506 47.1305L155.609 46.5419ZM155.609 53.9016L156.712 54.4902L156.713 54.4876L155.609 53.9016ZM153.185 56.3697L153.793 57.4621L153.798 57.4595L153.185 56.3697ZM150.495 53.2092L151.343 54.1284L151.343 54.1284L150.495 53.2092ZM151.197 52.0195L152.387 52.4025L152.387 52.4025L151.197 52.0195ZM151.197 48.3441L150.007 48.7271L150.008 48.7311L151.197 48.3441ZM150.495 47.1545L151.343 46.2353L151.343 46.2353L150.495 47.1545ZM147.575 48.3441L148.763 48.7311L148.765 48.7271L147.575 48.3441ZM147.575 52.0195L148.765 51.6366L148.765 51.6366L147.575 52.0195ZM148.294 53.2092L147.464 54.1444L148.294 53.2092ZM149.386 55.9986C148.071 55.9986 147.023 55.7388 146.194 55.2773L144.978 57.4621C146.256 58.1724 147.741 58.4986 149.386 58.4986V55.9986ZM146.198 55.2799C145.35 54.8034 144.714 54.1535 144.265 53.3131L142.06 54.4902C142.736 55.7568 143.715 56.7522 144.974 57.4595L146.198 55.2799ZM144.267 53.3156C143.815 52.4643 143.569 51.4435 143.569 50.2173H141.069C141.069 51.7847 141.386 53.2201 142.058 54.4876L144.267 53.3156ZM143.569 50.2173C143.569 48.9909 143.815 47.9744 144.265 47.1305L142.06 45.9533C141.385 47.2165 141.069 48.6502 141.069 50.2173H143.569ZM144.267 47.1279C144.715 46.2828 145.35 45.6355 146.194 45.1663L144.978 42.9815C143.715 43.6841 142.734 44.6821 142.058 45.9559L144.267 47.1279ZM146.198 45.1637C147.027 44.698 148.073 44.4361 149.386 44.4361V41.9361C147.739 41.9361 146.252 42.266 144.974 42.9841L146.198 45.1637ZM149.386 44.4361C150.699 44.4361 151.744 44.698 152.573 45.1637L153.798 42.9841C152.52 42.266 151.032 41.9361 149.386 41.9361V44.4361ZM152.578 45.1663C153.422 45.6355 154.056 46.2828 154.505 47.1279L156.713 45.9559C156.037 44.6821 155.056 43.6841 153.793 42.9815L152.578 45.1663ZM154.506 47.1305C154.957 47.9744 155.203 48.9909 155.203 50.2173H157.703C157.703 48.6502 157.386 47.2165 156.712 45.9533L154.506 47.1305ZM155.203 50.2173C155.203 51.4435 154.957 52.4643 154.505 53.3156L156.713 54.4876C157.386 53.2201 157.703 51.7847 157.703 50.2173H155.203ZM154.506 53.3131C154.058 54.1535 153.421 54.8034 152.573 55.2799L153.798 57.4595C155.057 56.7522 156.036 55.7568 156.712 54.4902L154.506 53.3131ZM152.578 55.2773C151.748 55.7388 150.701 55.9986 149.386 55.9986V58.4986C151.03 58.4986 152.516 58.1724 153.793 57.4621L152.578 55.2773ZM149.421 54.8764C150.146 54.8764 150.808 54.6214 151.343 54.1284L149.648 52.29C149.58 52.3532 149.525 52.3764 149.421 52.3764V54.8764ZM151.343 54.1284C151.846 53.6648 152.175 53.0595 152.387 52.4025L150.007 51.6366C149.887 52.0094 149.749 52.1972 149.648 52.29L151.343 54.1284ZM152.387 52.4025C152.602 51.732 152.695 50.9838 152.695 50.1818H150.195C150.195 50.8003 150.123 51.2772 150.007 51.6366L152.387 52.4025ZM152.695 50.1818C152.695 49.3757 152.603 48.6252 152.385 47.9571L150.008 48.7311C150.122 49.081 150.195 49.5556 150.195 50.1818H152.695ZM152.387 47.9612C152.175 47.3041 151.846 46.6989 151.343 46.2353L149.648 48.0737C149.749 48.1664 149.887 48.3542 150.007 48.7271L152.387 47.9612ZM151.343 46.2353C150.808 45.7422 150.146 45.4872 149.421 45.4872V47.9872C149.525 47.9872 149.58 48.0104 149.648 48.0737L151.343 46.2353ZM149.421 45.4872C148.693 45.4872 148.018 45.7286 147.464 46.2192L149.123 48.0897C149.197 48.024 149.274 47.9872 149.421 47.9872V45.4872ZM147.464 46.2192C146.941 46.6831 146.6 47.2938 146.385 47.9612L148.765 48.7271C148.881 48.3646 149.019 48.1822 149.123 48.0897L147.464 46.2192ZM146.386 47.9571C146.169 48.6252 146.076 49.3757 146.076 50.1818H148.576C148.576 49.5556 148.649 49.081 148.763 48.7311L146.386 47.9571ZM146.076 50.1818C146.076 50.9838 146.169 51.732 146.385 52.4025L148.765 51.6366C148.649 51.2772 148.576 50.8003 148.576 50.1818H146.076ZM146.385 52.4025C146.6 53.0699 146.941 53.6805 147.464 54.1444L149.123 52.2739C149.019 52.1814 148.881 51.999 148.765 51.6366L146.385 52.4025ZM147.464 54.1444C148.018 54.635 148.693 54.8764 149.421 54.8764V52.3764C149.274 52.3764 149.197 52.3396 149.123 52.2739L147.464 54.1444ZM158.441 62.1136H157.191V63.3636H158.441V62.1136ZM158.441 43.3636V42.1136H157.191V43.3636H158.441ZM163.306 43.3636H164.556V42.1136H163.306V43.3636ZM163.306 45.7429H162.056V46.9929H163.306V45.7429ZM163.413 45.7429V46.9929H164.271L164.579 46.1916L163.413 45.7429ZM164.194 44.4734L165.127 45.3056L165.133 45.2985L164.194 44.4734ZM165.472 43.5412L165.989 44.6797L166 44.6746L165.472 43.5412ZM169.814 43.9052L169.177 44.9812L169.181 44.9832L169.814 43.9052ZM171.802 46.169L170.682 46.7229L170.684 46.7281L171.802 46.169ZM171.838 54.0969L170.708 53.5613L170.706 53.5666L171.838 54.0969ZM169.885 56.4141L169.224 55.3532L169.22 55.3554L169.885 56.4141ZM165.499 56.8668L165.007 58.0158L165.015 58.0193L165.023 58.0227L165.499 56.8668ZM164.221 56.0057L163.315 56.8674L163.322 56.8749L163.329 56.8822L164.221 56.0057ZM163.413 54.7628L164.569 54.2883L164.251 53.5128H163.413V54.7628ZM163.342 54.7628V53.5128H162.092V54.7628H163.342ZM163.342 62.1136V63.3636H164.592V62.1136H163.342ZM163.493 51.9041L162.314 52.3209L162.317 52.3296L162.32 52.3383L163.493 51.9041ZM164.238 53.0227L163.438 53.983L163.448 53.991L163.458 53.9988L164.238 53.0227ZM166.547 53.0316L167.334 54.0023L167.336 54.0006L166.547 53.0316ZM167.275 51.9219L166.096 51.5051L166.093 51.5135L167.275 51.9219ZM167.275 48.4506L166.092 48.8546L166.095 48.8633L166.098 48.872L167.275 48.4506ZM166.547 47.3409L165.748 48.3027L165.758 48.3108L165.768 48.3188L166.547 47.3409ZM164.238 47.3409L165.017 48.3188L165.019 48.317L164.238 47.3409ZM163.493 48.4506L162.319 48.0212L162.316 48.0293L163.493 48.4506ZM159.691 62.1136V43.3636H157.191V62.1136H159.691ZM158.441 44.6136H163.306V42.1136H158.441V44.6136ZM162.056 43.3636V45.7429H164.556V43.3636H162.056ZM163.306 46.9929H163.413V44.4929H163.306V46.9929ZM164.579 46.1916C164.7 45.8768 164.88 45.5825 165.127 45.3056L163.261 43.6411C162.822 44.1336 162.48 44.6857 162.246 45.2942L164.579 46.1916ZM165.133 45.2985C165.351 45.0509 165.629 44.8427 165.989 44.6796L164.956 42.4028C164.298 42.7013 163.724 43.1146 163.255 43.6482L165.133 45.2985ZM166 44.6746C166.313 44.5286 166.719 44.4361 167.248 44.4361V41.9361C166.427 41.9361 165.649 42.0803 164.945 42.4078L166 44.6746ZM167.248 44.4361C167.913 44.4361 168.55 44.6101 169.177 44.9812L170.45 42.8292C169.456 42.2415 168.382 41.9361 167.248 41.9361V44.4361ZM169.181 44.9832C169.746 45.3151 170.257 45.8646 170.682 46.7229L172.923 45.6152C172.329 44.4138 171.514 43.4541 170.446 42.8272L169.181 44.9832ZM170.684 46.7281C171.083 47.5261 171.325 48.6529 171.325 50.1818H173.825C173.825 48.42 173.551 46.8716 172.92 45.61L170.684 46.7281ZM171.325 50.1818C171.325 51.6361 171.096 52.7433 170.708 53.5613L172.967 54.6326C173.562 53.3791 173.825 51.8762 173.825 50.1818H171.325ZM170.706 53.5666C170.303 54.4256 169.8 54.9943 169.224 55.3532L170.546 57.4749C171.603 56.8159 172.402 55.8398 172.97 54.6273L170.706 53.5666ZM169.22 55.3554C168.611 55.7375 167.951 55.9276 167.212 55.9276V58.4276C168.415 58.4276 169.536 58.1086 170.549 57.4728L169.22 55.3554ZM167.212 55.9276C166.708 55.9276 166.303 55.8461 165.975 55.711L165.023 58.0227C165.701 58.3019 166.438 58.4276 167.212 58.4276V55.9276ZM165.991 55.7179C165.633 55.5644 165.345 55.3666 165.112 55.1291L163.329 56.8822C163.806 57.3668 164.37 57.7431 165.007 58.0158L165.991 55.7179ZM165.126 55.144C164.882 54.8877 164.699 54.6042 164.569 54.2883L162.256 55.2372C162.505 55.8446 162.861 56.3898 163.315 56.8674L165.126 55.144ZM163.413 53.5128H163.342V56.0128H163.413V53.5128ZM162.092 54.7628V62.1136H164.592V54.7628H162.092ZM163.342 60.8636H158.441V63.3636H163.342V60.8636ZM161.985 50.1818C161.985 50.9479 162.084 51.6695 162.314 52.3209L164.671 51.4873C164.558 51.1681 164.485 50.7415 164.485 50.1818H161.985ZM162.32 52.3383C162.557 52.976 162.916 53.5481 163.438 53.983L165.039 52.0625C164.921 51.9647 164.784 51.7911 164.665 51.47L162.32 52.3383ZM163.458 53.9988C164.023 54.451 164.692 54.6634 165.401 54.6634V52.1634C165.211 52.1634 165.105 52.1153 165.019 52.0466L163.458 53.9988ZM165.401 54.6634C166.103 54.6634 166.772 54.4581 167.334 54.0023L165.759 52.0609C165.694 52.1141 165.599 52.1634 165.401 52.1634V54.6634ZM167.336 54.0006C167.873 53.5629 168.232 52.9788 168.456 52.3303L166.093 51.5135C165.986 51.8238 165.859 51.9795 165.757 52.0626L167.336 54.0006ZM168.453 52.3387C168.684 51.6852 168.782 50.9569 168.782 50.1818H166.282C166.282 50.7562 166.208 51.1879 166.096 51.5051L168.453 52.3387ZM168.782 50.1818C168.782 49.4074 168.684 48.6798 168.451 48.0293L166.098 48.872C166.208 49.1802 166.282 49.6068 166.282 50.1818H168.782ZM168.458 48.0467C168.234 47.3929 167.874 46.8001 167.325 46.3631L165.768 48.3188C165.858 48.3907 165.983 48.5378 166.092 48.8546L168.458 48.0467ZM167.345 46.3791C166.783 45.9129 166.111 45.7003 165.401 45.7003V48.2003C165.592 48.2003 165.682 48.2481 165.748 48.3027L167.345 46.3791ZM165.401 45.7003C164.692 45.7003 164.023 45.9127 163.458 46.3648L165.019 48.317C165.105 48.2483 165.211 48.2003 165.401 48.2003V45.7003ZM163.46 46.3631C162.919 46.7939 162.555 47.3767 162.319 48.0212L164.667 48.8801C164.786 48.5539 164.919 48.3969 165.017 48.3188L163.46 46.3631ZM162.316 48.0293C162.083 48.6798 161.985 49.4074 161.985 50.1818H164.485C164.485 49.6068 164.559 49.1802 164.669 48.872L162.316 48.0293ZM96.627 93H95.377V94.25H96.627V93ZM96.627 74.8182V73.5682H95.377V74.8182H96.627ZM108.017 75.6172L107.435 76.7233L107.435 76.7233L108.017 75.6172ZM110.379 77.8633L111.459 77.2339L111.459 77.2339L110.379 77.8633ZM110.352 84.6282L109.284 83.9783L109.281 83.9831L110.352 84.6282ZM107.928 86.8299L107.375 85.7093L107.372 85.7106L107.928 86.8299ZM99.6099 87.6023H98.3599V88.8523H99.6099V87.6023ZM99.6099 83.767V82.517H98.3599V83.767H99.6099ZM104.786 83.4652L105.338 84.5865L105.345 84.5832L104.786 83.4652ZM105.736 82.5863L104.661 81.9481L104.657 81.9544L104.653 81.9607L105.736 82.5863ZM105.736 79.9141L104.658 80.5471L104.664 80.5572L104.67 80.5673L105.736 79.9141ZM104.786 79.0618L104.233 80.1831L104.243 80.1878L104.253 80.1924L104.786 79.0618ZM101.563 78.7599V77.5099H100.313V78.7599H101.563ZM101.563 93V94.25H102.813V93H101.563ZM97.877 93V74.8182H95.377V93H97.877ZM96.627 76.0682H104.475V73.5682H96.627V76.0682ZM104.475 76.0682C105.658 76.0682 106.632 76.3008 107.435 76.7233L108.599 74.511C107.378 73.8683 105.991 73.5682 104.475 73.5682V76.0682ZM107.435 76.7233C108.245 77.1497 108.857 77.7355 109.299 78.4927L111.459 77.2339C110.775 76.0616 109.814 75.15 108.599 74.511L107.435 76.7233ZM109.299 78.4927C109.733 79.2383 109.972 80.1418 109.972 81.2457H112.472C112.472 79.7692 112.149 78.4177 111.459 77.2339L109.299 78.4927ZM109.972 81.2457C109.972 82.3575 109.726 83.252 109.284 83.9783L111.42 85.2781C112.138 84.0987 112.472 82.7382 112.472 81.2457H109.972ZM109.281 83.9831C108.836 84.722 108.212 85.2953 107.375 85.7093L108.482 87.9505C109.728 87.3347 110.72 86.4402 111.423 85.2733L109.281 83.9831ZM107.372 85.7106C106.54 86.1242 105.527 86.3523 104.297 86.3523V88.8523C105.838 88.8523 107.245 88.5654 108.485 87.9492L107.372 85.7106ZM104.297 86.3523H99.6099V88.8523H104.297V86.3523ZM100.86 87.6023V83.767H98.3599V87.6023H100.86ZM99.6099 85.017H103.303V82.517H99.6099V85.017ZM103.303 85.017C104.024 85.017 104.717 84.8923 105.338 84.5865L104.233 82.3439C104.037 82.4405 103.742 82.517 103.303 82.517V85.017ZM105.345 84.5832C105.964 84.2734 106.469 83.8152 106.818 83.2119L104.653 81.9607C104.564 82.115 104.436 82.2427 104.227 82.3472L105.345 84.5832ZM106.81 83.2245C107.168 82.622 107.323 81.9469 107.323 81.2457H104.823C104.823 81.5744 104.753 81.793 104.661 81.9481L106.81 83.2245ZM107.323 81.2457C107.323 80.543 107.17 79.8621 106.801 79.2609L104.67 80.5673C104.751 80.6999 104.823 80.9068 104.823 81.2457H107.323ZM106.813 79.281C106.459 78.6781 105.946 78.227 105.319 77.9311L104.253 80.1924C104.454 80.2872 104.574 80.4043 104.658 80.5471L106.813 79.281ZM105.338 77.9405C104.717 77.6347 104.024 77.5099 103.303 77.5099V80.0099C103.742 80.0099 104.037 80.0865 104.233 80.1831L105.338 77.9405ZM103.303 77.5099H101.563V80.0099H103.303V77.5099ZM100.313 78.7599V93H102.813V78.7599H100.313ZM101.563 91.75H96.627V94.25H101.563V91.75ZM113.104 93H111.854V94.25H113.104V93ZM113.104 79.3636V78.1136H111.854V79.3636H113.104ZM117.863 79.3636H119.113V78.1136H117.863V79.3636ZM117.863 81.956H116.613V83.206H117.863V81.956ZM118.005 81.956V83.206H118.972L119.215 82.2697L118.005 81.956ZM119.186 79.8519L118.396 78.8831L118.391 78.8873L119.186 79.8519ZM121.725 79.2393L121.513 80.4714L121.533 80.4747L121.553 80.4775L121.725 79.2393ZM122.337 79.3725H123.587V78.4452L122.7 78.1762L122.337 79.3725ZM122.337 83.554L121.933 84.7369L123.587 85.3017V83.554H122.337ZM121.441 83.3675L121.585 82.126L121.585 82.126L121.441 83.3675ZM119.23 83.6339L119.843 84.7234L119.848 84.7202L119.23 83.6339ZM118.333 84.5394L119.42 85.1578L119.424 85.1507L118.333 84.5394ZM118.005 93V94.25H119.255V93H118.005ZM114.354 93V79.3636H111.854V93H114.354ZM113.104 80.6136H117.863V78.1136H113.104V80.6136ZM116.613 79.3636V81.956H119.113V79.3636H116.613ZM117.863 83.206H118.005V80.706H117.863V83.206ZM119.215 82.2697C119.424 81.4627 119.715 81.0355 119.981 80.8165L118.391 78.8873C117.579 79.5561 117.083 80.5317 116.795 81.6423L119.215 82.2697ZM119.975 80.8208C120.288 80.5657 120.643 80.4361 121.094 80.4361V77.9361C120.09 77.9361 119.172 78.2503 118.396 78.8831L119.975 80.8208ZM121.094 80.4361C121.238 80.4361 121.377 80.448 121.513 80.4714L121.936 78.0073C121.658 77.9597 121.377 77.9361 121.094 77.9361V80.4361ZM121.553 80.4775C121.705 80.4986 121.845 80.5295 121.975 80.5688L122.7 78.1762C122.439 78.0972 122.171 78.0393 121.897 78.0012L121.553 80.4775ZM121.087 79.3725V83.554H123.587V79.3725H121.087ZM122.741 82.371C122.389 82.2507 121.997 82.174 121.585 82.126L121.296 84.6091C121.594 84.644 121.8 84.6915 121.933 84.7369L122.741 82.371ZM121.585 82.126C121.2 82.081 120.844 82.0554 120.526 82.0554V84.5554C120.717 84.5554 120.971 84.5712 121.296 84.6091L121.585 82.126ZM120.526 82.0554C119.848 82.0554 119.2 82.2125 118.612 82.5475L119.848 84.7202C120.029 84.6173 120.245 84.5554 120.526 84.5554V82.0554ZM118.617 82.5444C118.032 82.8736 117.571 83.3437 117.243 83.9282L119.424 85.1507C119.534 84.9539 119.67 84.8203 119.843 84.7233L118.617 82.5444ZM117.247 83.921C116.903 84.5251 116.755 85.1986 116.755 85.8977H119.255C119.255 85.5552 119.325 85.3232 119.42 85.1578L117.247 83.921ZM116.755 85.8977V93H119.255V85.8977H116.755ZM118.005 91.75H113.104V94.25H118.005V91.75ZM125.933 92.3697L125.32 93.4595L125.325 93.4621L125.933 92.3697ZM123.509 89.9016L122.405 90.4876L122.406 90.4902L123.509 89.9016ZM123.509 82.5419L124.612 83.1305L124.613 83.1279L123.509 82.5419ZM125.933 80.0739L126.54 81.1663L126.545 81.1637L125.933 80.0739ZM133.532 80.0739L132.92 81.1637L132.925 81.1663L133.532 80.0739ZM135.956 82.5419L134.852 83.1279L134.853 83.1305L135.956 82.5419ZM135.956 89.9016L137.059 90.4902L137.06 90.4876L135.956 89.9016ZM133.532 92.3697L134.14 93.4621L134.144 93.4595L133.532 92.3697ZM130.842 89.2092L131.689 90.1284L131.689 90.1284L130.842 89.2092ZM131.544 88.0195L132.733 88.4025L132.733 88.4025L131.544 88.0195ZM131.544 84.3441L130.354 84.7271L130.355 84.7311L131.544 84.3441ZM130.842 83.1545L131.689 82.2353L131.689 82.2353L130.842 83.1545ZM127.921 84.3441L129.11 84.7311L129.111 84.7271L127.921 84.3441ZM127.921 88.0195L129.111 87.6366L129.111 87.6366L127.921 88.0195ZM128.64 89.2092L127.811 90.1444L128.64 89.2092ZM129.732 91.9986C128.418 91.9986 127.37 91.7388 126.54 91.2773L125.325 93.4621C126.602 94.1724 128.088 94.4986 129.732 94.4986V91.9986ZM126.545 91.2799C125.697 90.8034 125.06 90.1535 124.612 89.3131L122.406 90.4902C123.082 91.7568 124.062 92.7522 125.32 93.4595L126.545 91.2799ZM124.613 89.3156C124.161 88.4643 123.916 87.4435 123.916 86.2173H121.416C121.416 87.7847 121.732 89.2201 122.405 90.4876L124.613 89.3156ZM123.916 86.2173C123.916 84.9909 124.161 83.9744 124.612 83.1305L122.406 81.9533C121.732 83.2165 121.416 84.6502 121.416 86.2173H123.916ZM124.613 83.1279C125.062 82.2828 125.697 81.6355 126.54 81.1663L125.325 78.9815C124.062 79.6841 123.081 80.6821 122.405 81.9559L124.613 83.1279ZM126.545 81.1637C127.374 80.698 128.419 80.4361 129.732 80.4361V77.9361C128.086 77.9361 126.599 78.266 125.32 78.9841L126.545 81.1637ZM129.732 80.4361C131.045 80.4361 132.091 80.698 132.92 81.1637L134.144 78.9841C132.866 78.266 131.379 77.9361 129.732 77.9361V80.4361ZM132.925 81.1663C133.768 81.6355 134.403 82.2828 134.852 83.1279L137.06 81.9559C136.384 80.6821 135.403 79.6841 134.14 78.9815L132.925 81.1663ZM134.853 83.1305C135.303 83.9744 135.549 84.9909 135.549 86.2173H138.049C138.049 84.6502 137.733 83.2165 137.059 81.9533L134.853 83.1305ZM135.549 86.2173C135.549 87.4435 135.303 88.4643 134.852 89.3156L137.06 90.4876C137.733 89.2201 138.049 87.7847 138.049 86.2173H135.549ZM134.853 89.3131C134.404 90.1535 133.768 90.8034 132.92 91.2799L134.144 93.4595C135.403 92.7522 136.383 91.7568 137.059 90.4902L134.853 89.3131ZM132.925 91.2773C132.095 91.7388 131.047 91.9986 129.732 91.9986V94.4986C131.377 94.4986 132.863 94.1724 134.14 93.4621L132.925 91.2773ZM129.768 90.8764C130.493 90.8764 131.154 90.6214 131.689 90.1284L129.995 88.29C129.926 88.3532 129.872 88.3764 129.768 88.3764V90.8764ZM131.689 90.1284C132.192 89.6648 132.522 89.0595 132.733 88.4025L130.354 87.6366C130.234 88.0094 130.096 88.1972 129.995 88.29L131.689 90.1284ZM132.733 88.4025C132.949 87.732 133.042 86.9838 133.042 86.1818H130.542C130.542 86.8003 130.469 87.2772 130.354 87.6366L132.733 88.4025ZM133.042 86.1818C133.042 85.3757 132.95 84.6252 132.732 83.9571L130.355 84.7311C130.469 85.081 130.542 85.5556 130.542 86.1818H133.042ZM132.733 83.9612C132.522 83.3041 132.192 82.6989 131.689 82.2353L129.995 84.0737C130.096 84.1664 130.234 84.3542 130.354 84.7271L132.733 83.9612ZM131.689 82.2353C131.154 81.7422 130.493 81.4872 129.768 81.4872V83.9872C129.872 83.9872 129.926 84.0104 129.995 84.0737L131.689 82.2353ZM129.768 81.4872C129.039 81.4872 128.364 81.7286 127.811 82.2192L129.47 84.0897C129.544 84.024 129.621 83.9872 129.768 83.9872V81.4872ZM127.811 82.2192C127.288 82.6831 126.946 83.2938 126.731 83.9612L129.111 84.7271C129.228 84.3646 129.366 84.1822 129.47 84.0897L127.811 82.2192ZM126.733 83.9571C126.515 84.6252 126.423 85.3757 126.423 86.1818H128.923C128.923 85.5556 128.996 85.081 129.11 84.7311L126.733 83.9571ZM126.423 86.1818C126.423 86.9838 126.516 87.732 126.731 88.4025L129.111 87.6366C128.996 87.2772 128.923 86.8003 128.923 86.1818H126.423ZM126.731 88.4025C126.946 89.0699 127.288 89.6805 127.811 90.1444L129.47 88.2739C129.366 88.1814 129.228 87.999 129.111 87.6366L126.731 88.4025ZM127.811 90.1444C128.364 90.635 129.039 90.8764 129.768 90.8764V88.3764C129.621 88.3764 129.544 88.3396 129.47 88.2739L127.811 90.1444Z" fill="black" mask="url(#path-3-outside-1_91_12)"/>
<path d="M30.54 122V111.818H33.3042V119.773H37.4207V122H30.54ZM42.2369 122.139C41.4216 122.139 40.719 121.983 40.129 121.672C39.5423 121.357 39.0899 120.906 38.7718 120.32C38.4569 119.73 38.2994 119.024 38.2994 118.202C38.2994 117.413 38.4585 116.723 38.7767 116.134C39.0949 115.544 39.544 115.085 40.124 114.756C40.704 114.428 41.3885 114.264 42.1773 114.264C42.754 114.264 43.276 114.354 43.7433 114.533C44.2107 114.712 44.6101 114.972 44.9415 115.313C45.2729 115.651 45.5281 116.062 45.7071 116.546C45.8861 117.03 45.9756 117.575 45.9756 118.182V118.818H39.1546V117.307H43.45C43.4467 117.088 43.3904 116.896 43.281 116.73C43.1749 116.561 43.0307 116.43 42.8485 116.337C42.6695 116.241 42.4656 116.193 42.2369 116.193C42.0149 116.193 41.811 116.241 41.6254 116.337C41.4398 116.43 41.2907 116.559 41.178 116.725C41.0686 116.891 41.0106 117.085 41.004 117.307V118.938C41.004 119.183 41.0554 119.402 41.1581 119.594C41.2609 119.786 41.4084 119.937 41.6006 120.046C41.7928 120.156 42.0248 120.21 42.2966 120.21C42.4855 120.21 42.6579 120.184 42.8137 120.131C42.9727 120.078 43.1086 120.001 43.2213 119.902C43.334 119.799 43.4169 119.677 43.4699 119.534H45.9756C45.8894 120.064 45.6856 120.525 45.3641 120.916C45.0426 121.304 44.6167 121.606 44.0864 121.821C43.5594 122.033 42.9429 122.139 42.2369 122.139ZM54.6001 114.364L52.0347 122H48.8529L46.2876 114.364H49.1711L50.404 119.415H50.4836L51.7165 114.364H54.6001ZM58.8073 122.139C57.9919 122.139 57.2893 121.983 56.6993 121.672C56.1127 121.357 55.6602 120.906 55.3421 120.32C55.0272 119.73 54.8698 119.024 54.8698 118.202C54.8698 117.413 55.0289 116.723 55.347 116.134C55.6652 115.544 56.1143 115.085 56.6943 114.756C57.2744 114.428 57.9588 114.264 58.7476 114.264C59.3243 114.264 59.8463 114.354 60.3137 114.533C60.781 114.712 61.1804 114.972 61.5118 115.313C61.8432 115.651 62.0985 116.062 62.2774 116.546C62.4564 117.03 62.5459 117.575 62.5459 118.182V118.818H55.7249V117.307H60.0203C60.017 117.088 59.9607 116.896 59.8513 116.73C59.7452 116.561 59.6011 116.43 59.4188 116.337C59.2398 116.241 59.036 116.193 58.8073 116.193C58.5852 116.193 58.3814 116.241 58.1958 116.337C58.0102 116.43 57.861 116.559 57.7483 116.725C57.6389 116.891 57.5809 117.085 57.5743 117.307V118.938C57.5743 119.183 57.6257 119.402 57.7284 119.594C57.8312 119.786 57.9787 119.937 58.1709 120.046C58.3631 120.156 58.5951 120.21 58.8669 120.21C59.0558 120.21 59.2282 120.184 59.384 120.131C59.5431 120.078 59.6789 120.001 59.7916 119.902C59.9043 119.799 59.9872 119.677 60.0402 119.534H62.5459C62.4597 120.064 62.2559 120.525 61.9344 120.916C61.6129 121.304 61.187 121.606 60.6567 121.821C60.1297 122.033 59.5132 122.139 58.8073 122.139ZM66.4101 111.818V122H63.6657V111.818H66.4101ZM75.5491 118.659V114.364H78.2934V122H75.6883V120.548H75.6088C75.443 121.036 75.153 121.417 74.7387 121.692C74.3244 121.964 73.8322 122.099 73.2622 122.099C72.7285 122.099 72.2612 121.977 71.8602 121.732C71.4624 121.486 71.1526 121.148 70.9305 120.717C70.7117 120.286 70.6007 119.793 70.5974 119.236V114.364H73.3417V118.659C73.345 119.037 73.4411 119.334 73.6301 119.549C73.8223 119.764 74.0908 119.872 74.4355 119.872C74.6642 119.872 74.8614 119.824 75.0271 119.728C75.1961 119.629 75.3254 119.489 75.4149 119.31C75.5077 119.128 75.5524 118.911 75.5491 118.659ZM79.6892 124.864V114.364H82.4136V115.696H82.4733C82.5727 115.437 82.7185 115.201 82.9108 114.985C83.103 114.766 83.3416 114.592 83.6267 114.463C83.9117 114.33 84.2432 114.264 84.621 114.264C85.1248 114.264 85.6037 114.398 86.0578 114.667C86.5152 114.935 86.8864 115.358 87.1714 115.935C87.4598 116.511 87.604 117.26 87.604 118.182C87.604 119.063 87.4664 119.794 87.1913 120.374C86.9195 120.954 86.555 121.387 86.0976 121.672C85.6435 121.957 85.1447 122.099 84.6011 122.099C84.2432 122.099 83.9233 122.041 83.6416 121.925C83.3632 121.806 83.1246 121.645 82.9257 121.443C82.7301 121.238 82.5793 121.006 82.4733 120.747H82.4335V124.864H79.6892ZM82.3738 118.182C82.3738 118.553 82.4219 118.875 82.518 119.146C82.6175 119.415 82.7567 119.624 82.9356 119.773C83.1179 119.919 83.335 119.991 83.5869 119.991C83.8388 119.991 84.0526 119.92 84.2282 119.778C84.4072 119.632 84.5431 119.425 84.6359 119.156C84.732 118.884 84.7801 118.56 84.7801 118.182C84.7801 117.804 84.732 117.481 84.6359 117.212C84.5431 116.941 84.4072 116.733 84.2282 116.591C84.0526 116.445 83.8388 116.372 83.5869 116.372C83.335 116.372 83.1179 116.445 82.9356 116.591C82.7567 116.733 82.6175 116.941 82.518 117.212C82.4219 117.481 82.3738 117.804 82.3738 118.182ZM93.2132 124.864C92.8983 124.864 92.5983 124.839 92.3133 124.789C92.0283 124.743 91.778 124.678 91.5626 124.595L92.1592 122.646C92.3846 122.726 92.5901 122.777 92.7757 122.8C92.9646 122.824 93.1253 122.81 93.2579 122.761C93.3938 122.711 93.4916 122.616 93.5512 122.477L93.6109 122.338L90.9262 114.364H93.7899L95.0228 119.653H95.1024L96.3552 114.364H99.2387L96.4546 122.636C96.3154 123.057 96.1133 123.435 95.8481 123.77C95.5863 124.108 95.2416 124.375 94.814 124.57C94.3865 124.766 93.8528 124.864 93.2132 124.864ZM103.466 122.139C102.637 122.139 101.928 121.975 101.338 121.647C100.748 121.316 100.296 120.855 99.9807 120.265C99.6659 119.672 99.5084 118.984 99.5084 118.202C99.5084 117.42 99.6659 116.733 99.9807 116.143C100.296 115.55 100.748 115.089 101.338 114.761C101.928 114.43 102.637 114.264 103.466 114.264C104.294 114.264 105.004 114.43 105.594 114.761C106.184 115.089 106.636 115.55 106.951 116.143C107.266 116.733 107.423 117.42 107.423 118.202C107.423 118.984 107.266 119.672 106.951 120.265C106.636 120.855 106.184 121.316 105.594 121.647C105.004 121.975 104.294 122.139 103.466 122.139ZM103.486 120.111C103.718 120.111 103.918 120.033 104.087 119.877C104.256 119.721 104.387 119.499 104.48 119.211C104.573 118.923 104.619 118.58 104.619 118.182C104.619 117.781 104.573 117.438 104.48 117.153C104.387 116.864 104.256 116.642 104.087 116.487C103.918 116.331 103.718 116.253 103.486 116.253C103.24 116.253 103.03 116.331 102.854 116.487C102.679 116.642 102.544 116.864 102.452 117.153C102.359 117.438 102.312 117.781 102.312 118.182C102.312 118.58 102.359 118.923 102.452 119.211C102.544 119.499 102.679 119.721 102.854 119.877C103.03 120.033 103.24 120.111 103.486 120.111ZM113.489 118.659V114.364H116.233V122H113.628V120.548H113.548C113.382 121.036 113.092 121.417 112.678 121.692C112.264 121.964 111.772 122.099 111.202 122.099C110.668 122.099 110.201 121.977 109.8 121.732C109.402 121.486 109.092 121.148 108.87 120.717C108.651 120.286 108.54 119.793 108.537 119.236V114.364H111.281V118.659C111.284 119.037 111.381 119.334 111.57 119.549C111.762 119.764 112.03 119.872 112.375 119.872C112.604 119.872 112.801 119.824 112.967 119.728C113.136 119.629 113.265 119.489 113.354 119.31C113.447 119.128 113.492 118.911 113.489 118.659ZM117.629 122V114.364H120.293V115.815H120.373C120.512 115.278 120.733 114.886 121.034 114.637C121.339 114.388 121.695 114.264 122.103 114.264C122.222 114.264 122.34 114.274 122.456 114.294C122.575 114.311 122.69 114.335 122.799 114.369V116.71C122.663 116.664 122.496 116.629 122.297 116.606C122.098 116.583 121.927 116.571 121.785 116.571C121.516 116.571 121.274 116.632 121.059 116.755C120.847 116.874 120.68 117.043 120.557 117.262C120.434 117.478 120.373 117.731 120.373 118.023V122H117.629ZM129.252 122.099C128.709 122.099 128.208 121.957 127.751 121.672C127.297 121.387 126.932 120.954 126.657 120.374C126.385 119.794 126.249 119.063 126.249 118.182C126.249 117.26 126.392 116.511 126.677 115.935C126.965 115.358 127.336 114.935 127.791 114.667C128.248 114.398 128.729 114.264 129.232 114.264C129.61 114.264 129.942 114.33 130.227 114.463C130.512 114.592 130.75 114.766 130.943 114.985C131.135 115.201 131.281 115.437 131.38 115.696H131.42V111.818H134.164V122H131.44V120.747H131.38C131.274 121.006 131.122 121.238 130.923 121.443C130.727 121.645 130.488 121.806 130.207 121.925C129.928 122.041 129.61 122.099 129.252 122.099ZM130.266 119.991C130.518 119.991 130.734 119.919 130.913 119.773C131.095 119.624 131.234 119.415 131.33 119.146C131.43 118.875 131.479 118.553 131.479 118.182C131.479 117.804 131.43 117.481 131.33 117.212C131.234 116.941 131.095 116.733 130.913 116.591C130.734 116.445 130.518 116.372 130.266 116.372C130.015 116.372 129.799 116.445 129.62 116.591C129.444 116.733 129.309 116.941 129.212 117.212C129.12 117.481 129.073 117.804 129.073 118.182C129.073 118.56 129.12 118.884 129.212 119.156C129.309 119.425 129.444 119.632 129.62 119.778C129.799 119.92 130.015 119.991 130.266 119.991ZM135.511 122V114.364H138.256V122H135.511ZM136.884 113.568C136.512 113.568 136.194 113.446 135.929 113.2C135.664 112.955 135.531 112.66 135.531 112.315C135.531 111.971 135.664 111.676 135.929 111.43C136.194 111.185 136.512 111.062 136.884 111.062C137.258 111.062 137.576 111.185 137.838 111.43C138.103 111.676 138.236 111.971 138.236 112.315C138.236 112.66 138.103 112.955 137.838 113.2C137.576 113.446 137.258 113.568 136.884 113.568ZM143.333 125.023C142.567 125.023 141.911 124.913 141.364 124.695C140.821 124.479 140.398 124.181 140.097 123.8C139.798 123.422 139.631 122.988 139.594 122.497H142.239C142.266 122.66 142.332 122.79 142.438 122.89C142.544 122.989 142.68 123.061 142.846 123.104C143.015 123.15 143.204 123.173 143.413 123.173C143.767 123.173 144.061 123.087 144.293 122.915C144.528 122.742 144.646 122.431 144.646 121.98V120.688H144.566C144.467 120.946 144.314 121.166 144.109 121.349C143.903 121.528 143.656 121.665 143.368 121.761C143.079 121.854 142.763 121.901 142.418 121.901C141.875 121.901 141.374 121.775 140.917 121.523C140.463 121.271 140.098 120.871 139.823 120.325C139.551 119.778 139.415 119.063 139.415 118.182C139.415 117.26 139.558 116.511 139.843 115.935C140.131 115.358 140.503 114.935 140.957 114.667C141.414 114.398 141.895 114.264 142.398 114.264C142.776 114.264 143.108 114.33 143.393 114.463C143.678 114.592 143.916 114.766 144.109 114.985C144.301 115.201 144.447 115.437 144.546 115.696H144.606V114.364H147.35V121.98C147.35 122.626 147.183 123.175 146.848 123.626C146.516 124.08 146.049 124.426 145.446 124.665C144.843 124.903 144.138 125.023 143.333 125.023ZM143.432 119.952C143.684 119.952 143.9 119.882 144.079 119.743C144.261 119.6 144.4 119.398 144.496 119.136C144.596 118.871 144.646 118.553 144.646 118.182C144.646 117.804 144.596 117.481 144.496 117.212C144.4 116.941 144.261 116.733 144.079 116.591C143.9 116.445 143.684 116.372 143.432 116.372C143.181 116.372 142.965 116.445 142.786 116.591C142.61 116.733 142.475 116.941 142.378 117.212C142.286 117.481 142.239 117.804 142.239 118.182C142.239 118.56 142.286 118.881 142.378 119.146C142.475 119.408 142.61 119.609 142.786 119.748C142.965 119.884 143.181 119.952 143.432 119.952ZM148.746 122V114.364H151.49V122H148.746ZM150.118 113.568C149.747 113.568 149.429 113.446 149.163 113.2C148.898 112.955 148.766 112.66 148.766 112.315C148.766 111.971 148.898 111.676 149.163 111.43C149.429 111.185 149.747 111.062 150.118 111.062C150.493 111.062 150.811 111.185 151.073 111.43C151.338 111.676 151.47 111.971 151.47 112.315C151.47 112.66 151.338 112.955 151.073 113.2C150.811 113.446 150.493 113.568 150.118 113.568ZM157.442 114.364V116.352H152.411V114.364H157.442ZM153.386 112.534H156.13V119.544C156.13 119.65 156.148 119.74 156.185 119.812C156.221 119.882 156.277 119.935 156.354 119.972C156.43 120.005 156.528 120.021 156.647 120.021C156.73 120.021 156.826 120.011 156.935 119.991C157.048 119.972 157.131 119.955 157.184 119.942L157.582 121.871C157.459 121.907 157.283 121.952 157.055 122.005C156.829 122.058 156.561 122.093 156.249 122.109C155.619 122.143 155.091 122.078 154.663 121.915C154.236 121.75 153.914 121.49 153.699 121.135C153.483 120.78 153.379 120.336 153.386 119.803V112.534ZM160.69 122.119C160.203 122.119 159.772 122.04 159.397 121.881C159.026 121.718 158.735 121.473 158.522 121.145C158.31 120.817 158.204 120.399 158.204 119.892C158.204 119.474 158.276 119.118 158.418 118.823C158.561 118.525 158.759 118.281 159.015 118.092C159.27 117.903 159.566 117.759 159.905 117.66C160.246 117.56 160.614 117.496 161.008 117.466C161.436 117.433 161.779 117.393 162.037 117.347C162.299 117.297 162.488 117.229 162.604 117.143C162.72 117.053 162.778 116.936 162.778 116.79V116.77C162.778 116.571 162.702 116.419 162.549 116.312C162.397 116.206 162.201 116.153 161.963 116.153C161.701 116.153 161.487 116.211 161.321 116.327C161.159 116.44 161.061 116.614 161.028 116.849H158.503C158.536 116.385 158.683 115.958 158.945 115.567C159.21 115.172 159.596 114.857 160.103 114.622C160.611 114.384 161.244 114.264 162.003 114.264C162.549 114.264 163.04 114.329 163.474 114.458C163.908 114.584 164.278 114.761 164.583 114.99C164.888 115.215 165.12 115.481 165.279 115.786C165.441 116.087 165.522 116.415 165.522 116.77V122H162.957V120.926H162.897C162.745 121.211 162.559 121.442 162.341 121.617C162.125 121.793 161.878 121.92 161.6 122C161.325 122.08 161.022 122.119 160.69 122.119ZM161.585 120.389C161.794 120.389 161.989 120.346 162.172 120.26C162.357 120.174 162.508 120.049 162.624 119.887C162.74 119.725 162.798 119.527 162.798 119.295V118.659C162.725 118.689 162.647 118.717 162.564 118.744C162.485 118.77 162.399 118.795 162.306 118.818C162.216 118.841 162.12 118.863 162.017 118.883C161.918 118.903 161.814 118.921 161.704 118.938C161.492 118.971 161.318 119.025 161.182 119.102C161.05 119.174 160.95 119.266 160.884 119.375C160.821 119.481 160.79 119.6 160.79 119.733C160.79 119.945 160.864 120.107 161.013 120.22C161.162 120.333 161.353 120.389 161.585 120.389ZM169.578 111.818V122H166.834V111.818H169.578ZM177.444 125.023C176.679 125.023 176.022 124.913 175.476 124.695C174.932 124.479 174.509 124.181 174.208 123.8C173.91 123.422 173.742 122.988 173.706 122.497H176.351C176.377 122.66 176.443 122.79 176.549 122.89C176.656 122.989 176.791 123.061 176.957 123.104C177.126 123.15 177.315 123.173 177.524 123.173C177.879 123.173 178.172 123.087 178.404 122.915C178.639 122.742 178.757 122.431 178.757 121.98V120.688H178.677C178.578 120.946 178.425 121.166 178.22 121.349C178.014 121.528 177.767 121.665 177.479 121.761C177.191 121.854 176.874 121.901 176.53 121.901C175.986 121.901 175.486 121.775 175.028 121.523C174.574 121.271 174.209 120.871 173.934 120.325C173.663 119.778 173.527 119.063 173.527 118.182C173.527 117.26 173.669 116.511 173.954 115.935C174.243 115.358 174.614 114.935 175.068 114.667C175.525 114.398 176.006 114.264 176.51 114.264C176.888 114.264 177.219 114.33 177.504 114.463C177.789 114.592 178.028 114.766 178.22 114.985C178.412 115.201 178.558 115.437 178.657 115.696H178.717V114.364H181.461V121.98C181.461 122.626 181.294 123.175 180.959 123.626C180.628 124.08 180.16 124.426 179.557 124.665C178.954 124.903 178.25 125.023 177.444 125.023ZM177.544 119.952C177.796 119.952 178.011 119.882 178.19 119.743C178.372 119.6 178.512 119.398 178.608 119.136C178.707 118.871 178.757 118.553 178.757 118.182C178.757 117.804 178.707 117.481 178.608 117.212C178.512 116.941 178.372 116.733 178.19 116.591C178.011 116.445 177.796 116.372 177.544 116.372C177.292 116.372 177.076 116.445 176.897 116.591C176.722 116.733 176.586 116.941 176.49 117.212C176.397 117.481 176.351 117.804 176.351 118.182C176.351 118.56 176.397 118.881 176.49 119.146C176.586 119.408 176.722 119.609 176.897 119.748C177.076 119.884 177.292 119.952 177.544 119.952ZM184.985 122.119C184.498 122.119 184.067 122.04 183.692 121.881C183.321 121.718 183.03 121.473 182.817 121.145C182.605 120.817 182.499 120.399 182.499 119.892C182.499 119.474 182.57 119.118 182.713 118.823C182.855 118.525 183.054 118.281 183.31 118.092C183.565 117.903 183.861 117.759 184.199 117.66C184.541 117.56 184.909 117.496 185.303 117.466C185.731 117.433 186.074 117.393 186.332 117.347C186.594 117.297 186.783 117.229 186.899 117.143C187.015 117.053 187.073 116.936 187.073 116.79V116.77C187.073 116.571 186.997 116.419 186.844 116.312C186.692 116.206 186.496 116.153 186.258 116.153C185.996 116.153 185.782 116.211 185.616 116.327C185.454 116.44 185.356 116.614 185.323 116.849H182.797C182.831 116.385 182.978 115.958 183.24 115.567C183.505 115.172 183.891 114.857 184.398 114.622C184.905 114.384 185.539 114.264 186.297 114.264C186.844 114.264 187.335 114.329 187.769 114.458C188.203 114.584 188.573 114.761 188.878 114.99C189.183 115.215 189.415 115.481 189.574 115.786C189.736 116.087 189.817 116.415 189.817 116.77V122H187.252V120.926H187.192C187.04 121.211 186.854 121.442 186.636 121.617C186.42 121.793 186.173 121.92 185.895 122C185.62 122.08 185.316 122.119 184.985 122.119ZM185.88 120.389C186.089 120.389 186.284 120.346 186.467 120.26C186.652 120.174 186.803 120.049 186.919 119.887C187.035 119.725 187.093 119.527 187.093 119.295V118.659C187.02 118.689 186.942 118.717 186.859 118.744C186.78 118.77 186.694 118.795 186.601 118.818C186.511 118.841 186.415 118.863 186.312 118.883C186.213 118.903 186.109 118.921 185.999 118.938C185.787 118.971 185.613 119.025 185.477 119.102C185.345 119.174 185.245 119.266 185.179 119.375C185.116 119.481 185.084 119.6 185.084 119.733C185.084 119.945 185.159 120.107 185.308 120.22C185.457 120.333 185.648 120.389 185.88 120.389ZM191.129 122V114.364H193.734V115.815H193.813C193.972 115.338 194.244 114.96 194.629 114.682C195.013 114.403 195.47 114.264 196.001 114.264C196.538 114.264 197 114.407 197.388 114.692C197.776 114.973 198.009 115.348 198.089 115.815H198.168C198.298 115.348 198.573 114.973 198.994 114.692C199.415 114.407 199.908 114.264 200.475 114.264C201.208 114.264 201.801 114.5 202.255 114.97C202.712 115.441 202.941 116.067 202.941 116.849V122H200.197V117.545C200.197 117.211 200.112 116.949 199.943 116.76C199.774 116.568 199.547 116.472 199.262 116.472C198.98 116.472 198.757 116.568 198.591 116.76C198.429 116.949 198.347 117.211 198.347 117.545V122H195.722V117.545C195.722 117.211 195.638 116.949 195.469 116.76C195.3 116.568 195.073 116.472 194.788 116.472C194.599 116.472 194.436 116.515 194.301 116.601C194.165 116.687 194.059 116.811 193.982 116.974C193.909 117.133 193.873 117.323 193.873 117.545V122H191.129ZM207.954 122.139C207.138 122.139 206.436 121.983 205.846 121.672C205.259 121.357 204.807 120.906 204.489 120.32C204.174 119.73 204.016 119.024 204.016 118.202C204.016 117.413 204.175 116.723 204.494 116.134C204.812 115.544 205.261 115.085 205.841 114.756C206.421 114.428 207.105 114.264 207.894 114.264C208.471 114.264 208.993 114.354 209.46 114.533C209.927 114.712 210.327 114.972 210.658 115.313C210.99 115.651 211.245 116.062 211.424 116.546C211.603 117.03 211.692 117.575 211.692 118.182V118.818H204.871V117.307H209.167C209.164 117.088 209.107 116.896 208.998 116.73C208.892 116.561 208.748 116.43 208.565 116.337C208.386 116.241 208.182 116.193 207.954 116.193C207.732 116.193 207.528 116.241 207.342 116.337C207.157 116.43 207.007 116.559 206.895 116.725C206.785 116.891 206.727 117.085 206.721 117.307V118.938C206.721 119.183 206.772 119.402 206.875 119.594C206.978 119.786 207.125 119.937 207.317 120.046C207.51 120.156 207.742 120.21 208.013 120.21C208.202 120.21 208.375 120.184 208.53 120.131C208.69 120.078 208.825 120.001 208.938 119.902C209.051 119.799 209.134 119.677 209.187 119.534H211.692C211.606 120.064 211.402 120.525 211.081 120.916C210.759 121.304 210.333 121.606 209.803 121.821C209.276 122.033 208.66 122.139 207.954 122.139ZM51.3256 142L49.4165 134.364H52.1609L53.0359 139.017H53.0955L54.07 134.364H56.7347L57.7489 138.977H57.8086L58.6438 134.364H61.3881L59.479 142H56.516L55.4421 137.903H55.3626L54.2887 142H51.3256ZM62.2234 142V134.364H64.9677V142H62.2234ZM63.5955 133.568C63.2243 133.568 62.9061 133.446 62.641 133.2C62.3758 132.955 62.2433 132.66 62.2433 132.315C62.2433 131.971 62.3758 131.676 62.641 131.43C62.9061 131.185 63.2243 131.062 63.5955 131.062C63.9701 131.062 64.2882 131.185 64.5501 131.43C64.8152 131.676 64.9478 131.971 64.9478 132.315C64.9478 132.66 64.8152 132.955 64.5501 133.2C64.2882 133.446 63.9701 133.568 63.5955 133.568ZM70.9199 134.364V136.352H65.8887V134.364H70.9199ZM66.8631 132.534H69.6074V139.544C69.6074 139.65 69.6257 139.74 69.6621 139.812C69.6986 139.882 69.7549 139.935 69.8311 139.972C69.9074 140.005 70.0051 140.021 70.1245 140.021C70.2073 140.021 70.3034 140.011 70.4128 139.991C70.5255 139.972 70.6084 139.955 70.6614 139.942L71.0591 141.871C70.9365 141.907 70.7608 141.952 70.5321 142.005C70.3068 142.058 70.0383 142.093 69.7267 142.109C69.097 142.143 68.5684 142.078 68.1408 141.915C67.7132 141.75 67.3917 141.49 67.1763 141.135C66.9609 140.78 66.8565 140.336 66.8631 139.803V132.534ZM74.9482 137.705V142H72.2038V131.818H74.8487V135.815H74.9283C75.1006 135.328 75.3873 134.949 75.7884 134.677C76.1894 134.402 76.6716 134.264 77.2351 134.264C77.7753 134.264 78.2443 134.387 78.642 134.632C79.0431 134.877 79.353 135.215 79.5717 135.646C79.7938 136.077 79.9032 136.571 79.8999 137.128V142H77.1555V137.705C77.1589 137.327 77.0644 137.03 76.8722 136.815C76.6832 136.599 76.4131 136.491 76.0618 136.491C75.8397 136.491 75.6442 136.541 75.4751 136.641C75.3094 136.737 75.1802 136.876 75.0874 137.058C74.9979 137.237 74.9515 137.453 74.9482 137.705ZM87.7227 142.139C86.8941 142.139 86.1848 141.975 85.5948 141.647C85.0049 141.316 84.5524 140.855 84.2376 140.265C83.9227 139.672 83.7653 138.984 83.7653 138.202C83.7653 137.42 83.9227 136.733 84.2376 136.143C84.5524 135.55 85.0049 135.089 85.5948 134.761C86.1848 134.43 86.8941 134.264 87.7227 134.264C88.4717 134.264 89.1197 134.4 89.6665 134.672C90.2167 134.94 90.6426 135.321 90.9442 135.815C91.2459 136.306 91.3983 136.883 91.4016 137.545H88.8562C88.8197 137.144 88.7037 136.839 88.5082 136.631C88.3159 136.419 88.0674 136.312 87.7624 136.312C87.5238 136.312 87.315 136.382 87.136 136.521C86.957 136.657 86.8178 136.864 86.7184 137.143C86.619 137.418 86.5692 137.764 86.5692 138.182C86.5692 138.599 86.619 138.947 86.7184 139.226C86.8178 139.501 86.957 139.708 87.136 139.847C87.315 139.983 87.5238 140.051 87.7624 140.051C87.9646 140.051 88.1436 140.005 88.2994 139.912C88.4551 139.816 88.5811 139.677 88.6772 139.494C88.7766 139.309 88.8363 139.083 88.8562 138.818H91.4016C91.3917 139.491 91.2376 140.078 90.9393 140.578C90.641 141.075 90.2184 141.46 89.6715 141.732C89.128 142.003 88.4783 142.139 87.7227 142.139ZM96.2129 142.139C95.3843 142.139 94.675 141.975 94.085 141.647C93.4951 141.316 93.0427 140.855 92.7278 140.265C92.4129 139.672 92.2555 138.984 92.2555 138.202C92.2555 137.42 92.4129 136.733 92.7278 136.143C93.0427 135.55 93.4951 135.089 94.085 134.761C94.675 134.43 95.3843 134.264 96.2129 134.264C97.0415 134.264 97.7508 134.43 98.3407 134.761C98.9307 135.089 99.3831 135.55 99.698 136.143C100.013 136.733 100.17 137.42 100.17 138.202C100.17 138.984 100.013 139.672 99.698 140.265C99.3831 140.855 98.9307 141.316 98.3407 141.647C97.7508 141.975 97.0415 142.139 96.2129 142.139ZM96.2328 140.111C96.4648 140.111 96.6653 140.033 96.8343 139.877C97.0034 139.721 97.1343 139.499 97.2271 139.211C97.3199 138.923 97.3663 138.58 97.3663 138.182C97.3663 137.781 97.3199 137.438 97.2271 137.153C97.1343 136.864 97.0034 136.642 96.8343 136.487C96.6653 136.331 96.4648 136.253 96.2328 136.253C95.9875 136.253 95.777 136.331 95.6014 136.487C95.4257 136.642 95.2915 136.864 95.1987 137.153C95.1059 137.438 95.0595 137.781 95.0595 138.182C95.0595 138.58 95.1059 138.923 95.1987 139.211C95.2915 139.499 95.4257 139.721 95.6014 139.877C95.777 140.033 95.9875 140.111 96.2328 140.111ZM101.284 142V134.364H103.889V135.815H103.969C104.128 135.338 104.399 134.96 104.784 134.682C105.168 134.403 105.626 134.264 106.156 134.264C106.693 134.264 107.155 134.407 107.543 134.692C107.931 134.973 108.165 135.348 108.244 135.815H108.324C108.453 135.348 108.728 134.973 109.149 134.692C109.57 134.407 110.064 134.264 110.631 134.264C111.363 134.264 111.956 134.5 112.41 134.97C112.868 135.441 113.096 136.067 113.096 136.849V142H110.352V137.545C110.352 137.211 110.268 136.949 110.099 136.76C109.93 136.568 109.702 136.472 109.417 136.472C109.136 136.472 108.912 136.568 108.746 136.76C108.584 136.949 108.503 137.211 108.503 137.545V142H105.878V137.545C105.878 137.211 105.793 136.949 105.624 136.76C105.455 136.568 105.228 136.472 104.943 136.472C104.754 136.472 104.592 136.515 104.456 136.601C104.32 136.687 104.214 136.811 104.138 136.974C104.065 137.133 104.028 137.323 104.028 137.545V142H101.284ZM114.45 144.864V134.364H117.174V135.696H117.234C117.333 135.437 117.479 135.201 117.672 134.985C117.864 134.766 118.102 134.592 118.387 134.463C118.672 134.33 119.004 134.264 119.382 134.264C119.886 134.264 120.364 134.398 120.819 134.667C121.276 134.935 121.647 135.358 121.932 135.935C122.221 136.511 122.365 137.26 122.365 138.182C122.365 139.063 122.227 139.794 121.952 140.374C121.68 140.954 121.316 141.387 120.858 141.672C120.404 141.957 119.905 142.099 119.362 142.099C119.004 142.099 118.684 142.041 118.402 141.925C118.124 141.806 117.885 141.645 117.686 141.443C117.491 141.238 117.34 141.006 117.234 140.747H117.194V144.864H114.45ZM117.135 138.182C117.135 138.553 117.183 138.875 117.279 139.146C117.378 139.415 117.517 139.624 117.696 139.773C117.879 139.919 118.096 139.991 118.348 139.991C118.6 139.991 118.813 139.92 118.989 139.778C119.168 139.632 119.304 139.425 119.397 139.156C119.493 138.884 119.541 138.56 119.541 138.182C119.541 137.804 119.493 137.481 119.397 137.212C119.304 136.941 119.168 136.733 118.989 136.591C118.813 136.445 118.6 136.372 118.348 136.372C118.096 136.372 117.879 136.445 117.696 136.591C117.517 136.733 117.378 136.941 117.279 137.212C117.183 137.481 117.135 137.804 117.135 138.182ZM123.514 142V134.364H126.179V135.815H126.259C126.398 135.278 126.618 134.886 126.92 134.637C127.225 134.388 127.581 134.264 127.989 134.264C128.108 134.264 128.226 134.274 128.342 134.294C128.461 134.311 128.575 134.335 128.685 134.369V136.71C128.549 136.664 128.382 136.629 128.183 136.606C127.984 136.583 127.813 136.571 127.671 136.571C127.402 136.571 127.16 136.632 126.945 136.755C126.733 136.874 126.565 137.043 126.443 137.262C126.32 137.478 126.259 137.731 126.259 138.023V142H123.514ZM132.806 142.139C131.991 142.139 131.288 141.983 130.698 141.672C130.112 141.357 129.659 140.906 129.341 140.32C129.026 139.73 128.869 139.024 128.869 138.202C128.869 137.413 129.028 136.723 129.346 136.134C129.664 135.544 130.113 135.085 130.693 134.756C131.273 134.428 131.958 134.264 132.747 134.264C133.323 134.264 133.845 134.354 134.313 134.533C134.78 134.712 135.179 134.972 135.511 135.313C135.842 135.651 136.097 136.062 136.276 136.546C136.455 137.03 136.545 137.575 136.545 138.182V138.818H129.724V137.307H134.019C134.016 137.088 133.96 136.896 133.85 136.73C133.744 136.561 133.6 136.43 133.418 136.337C133.239 136.241 133.035 136.193 132.806 136.193C132.584 136.193 132.38 136.241 132.195 136.337C132.009 136.43 131.86 136.559 131.747 136.725C131.638 136.891 131.58 137.085 131.573 137.307V138.938C131.573 139.183 131.625 139.402 131.727 139.594C131.83 139.786 131.978 139.937 132.17 140.046C132.362 140.156 132.594 140.21 132.866 140.21C133.055 140.21 133.227 140.184 133.383 140.131C133.542 140.078 133.678 140.001 133.791 139.902C133.903 139.799 133.986 139.677 134.039 139.534H136.545C136.459 140.064 136.255 140.525 135.933 140.916C135.612 141.304 135.186 141.606 134.656 141.821C134.129 142.033 133.512 142.139 132.806 142.139ZM140.409 137.705V142H137.665V131.818H140.31V135.815H140.389C140.562 135.328 140.848 134.949 141.249 134.677C141.65 134.402 142.133 134.264 142.696 134.264C143.236 134.264 143.705 134.387 144.103 134.632C144.504 134.877 144.814 135.215 145.033 135.646C145.255 136.077 145.364 136.571 145.361 137.128V142H142.616V137.705C142.62 137.327 142.525 137.03 142.333 136.815C142.144 136.599 141.874 136.491 141.523 136.491C141.301 136.491 141.105 136.541 140.936 136.641C140.77 136.737 140.641 136.876 140.548 137.058C140.459 137.237 140.412 137.453 140.409 137.705ZM150.375 142.139C149.559 142.139 148.857 141.983 148.267 141.672C147.68 141.357 147.228 140.906 146.909 140.32C146.595 139.73 146.437 139.024 146.437 138.202C146.437 137.413 146.596 136.723 146.914 136.134C147.233 135.544 147.682 135.085 148.262 134.756C148.842 134.428 149.526 134.264 150.315 134.264C150.892 134.264 151.414 134.354 151.881 134.533C152.348 134.712 152.748 134.972 153.079 135.313C153.411 135.651 153.666 136.062 153.845 136.546C154.024 137.03 154.113 137.575 154.113 138.182V138.818H147.292V137.307H151.588C151.584 137.088 151.528 136.896 151.419 136.73C151.313 136.561 151.168 136.43 150.986 136.337C150.807 136.241 150.603 136.193 150.375 136.193C150.153 136.193 149.949 136.241 149.763 136.337C149.578 136.43 149.428 136.559 149.316 136.725C149.206 136.891 149.148 137.085 149.142 137.307V138.938C149.142 139.183 149.193 139.402 149.296 139.594C149.399 139.786 149.546 139.937 149.738 140.046C149.931 140.156 150.163 140.21 150.434 140.21C150.623 140.21 150.796 140.184 150.951 140.131C151.11 140.078 151.246 140.001 151.359 139.902C151.472 139.799 151.555 139.677 151.608 139.534H154.113C154.027 140.064 153.823 140.525 153.502 140.916C153.18 141.304 152.754 141.606 152.224 141.821C151.697 142.033 151.081 142.139 150.375 142.139ZM157.977 137.705V142H155.233V134.364H157.838V135.815H157.918C158.084 135.331 158.375 134.952 158.793 134.677C159.214 134.402 159.704 134.264 160.264 134.264C160.805 134.264 161.274 134.388 161.671 134.637C162.072 134.882 162.382 135.22 162.601 135.651C162.823 136.082 162.932 136.574 162.929 137.128V142H160.185V137.705C160.188 137.327 160.092 137.03 159.896 136.815C159.704 136.599 159.436 136.491 159.091 136.491C158.866 136.491 158.669 136.541 158.499 136.641C158.334 136.737 158.206 136.876 158.117 137.058C158.027 137.237 157.981 137.453 157.977 137.705ZM171.264 136.849H168.738C168.725 136.694 168.671 136.559 168.574 136.447C168.478 136.334 168.354 136.248 168.202 136.188C168.052 136.125 167.887 136.094 167.704 136.094C167.469 136.094 167.267 136.137 167.098 136.223C166.929 136.309 166.846 136.432 166.849 136.591C166.846 136.704 166.894 136.808 166.993 136.904C167.096 137 167.293 137.075 167.585 137.128L169.136 137.406C169.918 137.549 170.5 137.789 170.881 138.127C171.266 138.462 171.46 138.911 171.463 139.474C171.46 140.018 171.297 140.49 170.976 140.891C170.657 141.289 170.222 141.597 169.668 141.816C169.118 142.031 168.49 142.139 167.784 142.139C166.617 142.139 165.704 141.901 165.045 141.423C164.388 140.946 164.022 140.316 163.946 139.534H166.67C166.707 139.776 166.826 139.963 167.028 140.096C167.234 140.225 167.492 140.29 167.804 140.29C168.056 140.29 168.263 140.247 168.425 140.161C168.591 140.074 168.675 139.952 168.679 139.793C168.675 139.647 168.603 139.531 168.46 139.445C168.321 139.358 168.102 139.289 167.804 139.236L166.452 138.997C165.673 138.861 165.089 138.603 164.702 138.222C164.314 137.84 164.122 137.35 164.125 136.75C164.122 136.22 164.261 135.771 164.542 135.403C164.827 135.031 165.233 134.75 165.76 134.558C166.291 134.362 166.919 134.264 167.645 134.264C168.748 134.264 169.618 134.493 170.255 134.95C170.894 135.408 171.231 136.041 171.264 136.849ZM172.514 142V134.364H175.259V142H172.514ZM173.887 133.568C173.515 133.568 173.197 133.446 172.932 133.2C172.667 132.955 172.534 132.66 172.534 132.315C172.534 131.971 172.667 131.676 172.932 131.43C173.197 131.185 173.515 131.062 173.887 131.062C174.261 131.062 174.579 131.185 174.841 131.43C175.106 131.676 175.239 131.971 175.239 132.315C175.239 132.66 175.106 132.955 174.841 133.2C174.579 133.446 174.261 133.568 173.887 133.568ZM184.353 134.364L181.788 142H178.606L176.04 134.364H178.924L180.157 139.415H180.237L181.469 134.364H184.353ZM188.56 142.139C187.745 142.139 187.042 141.983 186.452 141.672C185.866 141.357 185.413 140.906 185.095 140.32C184.78 139.73 184.623 139.024 184.623 138.202C184.623 137.413 184.782 136.723 185.1 136.134C185.418 135.544 185.867 135.085 186.447 134.756C187.027 134.428 187.712 134.264 188.501 134.264C189.077 134.264 189.599 134.354 190.067 134.533C190.534 134.712 190.933 134.972 191.265 135.313C191.596 135.651 191.851 136.062 192.03 136.546C192.209 137.03 192.299 137.575 192.299 138.182V138.818H185.478V137.307H189.773C189.77 137.088 189.714 136.896 189.604 136.73C189.498 136.561 189.354 136.43 189.172 136.337C188.993 136.241 188.789 136.193 188.56 136.193C188.338 136.193 188.134 136.241 187.949 136.337C187.763 136.43 187.614 136.559 187.501 136.725C187.392 136.891 187.334 137.085 187.327 137.307V138.938C187.327 139.183 187.379 139.402 187.481 139.594C187.584 139.786 187.732 139.937 187.924 140.046C188.116 140.156 188.348 140.21 188.62 140.21C188.809 140.21 188.981 140.184 189.137 140.131C189.296 140.078 189.432 140.001 189.545 139.902C189.657 139.799 189.74 139.677 189.793 139.534H192.299C192.213 140.064 192.009 140.525 191.687 140.916C191.366 141.304 190.94 141.606 190.41 141.821C189.883 142.033 189.266 142.139 188.56 142.139ZM69.1221 162.139C68.2935 162.139 67.5842 161.975 66.9942 161.647C66.4043 161.316 65.9519 160.855 65.637 160.265C65.3221 159.672 65.1647 158.984 65.1647 158.202C65.1647 157.42 65.3221 156.733 65.637 156.143C65.9519 155.55 66.4043 155.089 66.9942 154.761C67.5842 154.43 68.2935 154.264 69.1221 154.264C69.9507 154.264 70.6599 154.43 71.2499 154.761C71.8399 155.089 72.2923 155.55 72.6072 156.143C72.922 156.733 73.0795 157.42 73.0795 158.202C73.0795 158.984 72.922 159.672 72.6072 160.265C72.2923 160.855 71.8399 161.316 71.2499 161.647C70.6599 161.975 69.9507 162.139 69.1221 162.139ZM69.142 160.111C69.374 160.111 69.5745 160.033 69.7435 159.877C69.9126 159.721 70.0435 159.499 70.1363 159.211C70.2291 158.923 70.2755 158.58 70.2755 158.182C70.2755 157.781 70.2291 157.438 70.1363 157.153C70.0435 156.864 69.9126 156.642 69.7435 156.487C69.5745 156.331 69.374 156.253 69.142 156.253C68.8967 156.253 68.6862 156.331 68.5106 156.487C68.3349 156.642 68.2007 156.864 68.1079 157.153C68.0151 157.438 67.9687 157.781 67.9687 158.182C67.9687 158.58 68.0151 158.923 68.1079 159.211C68.2007 159.499 68.3349 159.721 68.5106 159.877C68.6862 160.033 68.8967 160.111 69.142 160.111ZM76.9374 157.705V162H74.1931V154.364H76.7982V155.815H76.8778C77.0435 155.331 77.3351 154.952 77.7528 154.677C78.1737 154.402 78.6642 154.264 79.2243 154.264C79.7646 154.264 80.2336 154.388 80.6313 154.637C81.0323 154.882 81.3422 155.22 81.561 155.651C81.7831 156.082 81.8924 156.574 81.8891 157.128V162H79.1448V157.705C79.1481 157.327 79.052 157.03 78.8564 156.815C78.6642 156.599 78.3957 156.491 78.051 156.491C77.8257 156.491 77.6285 156.541 77.4594 156.641C77.2937 156.737 77.1661 156.876 77.0766 157.058C76.9871 157.237 76.9407 157.453 76.9374 157.705ZM85.9882 151.818V162H83.2439V151.818H85.9882ZM87.3865 162V154.364H90.1308V162H87.3865ZM88.7586 153.568C88.3874 153.568 88.0692 153.446 87.8041 153.2C87.5389 152.955 87.4063 152.66 87.4063 152.315C87.4063 151.971 87.5389 151.676 87.8041 151.43C88.0692 151.185 88.3874 151.062 88.7586 151.062C89.1331 151.062 89.4513 151.185 89.7132 151.43C89.9783 151.676 90.1109 151.971 90.1109 152.315C90.1109 152.66 89.9783 152.955 89.7132 153.2C89.4513 153.446 89.1331 153.568 88.7586 153.568ZM94.2733 157.705V162H91.529V154.364H94.1341V155.815H94.2137C94.3794 155.331 94.6711 154.952 95.0887 154.677C95.5096 154.402 96.0001 154.264 96.5603 154.264C97.1005 154.264 97.5695 154.388 97.9672 154.637C98.3683 154.882 98.6782 155.22 98.8969 155.651C99.119 156.082 99.2284 156.574 99.2251 157.128V162H96.4807V157.705C96.484 157.327 96.3879 157.03 96.1924 156.815C96.0001 156.599 95.7317 156.491 95.387 156.491C95.1616 156.491 94.9644 156.541 94.7954 156.641C94.6296 156.737 94.502 156.876 94.4126 157.058C94.3231 157.237 94.2767 157.453 94.2733 157.705ZM104.239 162.139C103.424 162.139 102.721 161.983 102.131 161.672C101.544 161.357 101.092 160.906 100.774 160.32C100.459 159.73 100.301 159.024 100.301 158.202C100.301 157.413 100.46 156.723 100.779 156.134C101.097 155.544 101.546 155.085 102.126 154.756C102.706 154.428 103.39 154.264 104.179 154.264C104.756 154.264 105.278 154.354 105.745 154.533C106.213 154.712 106.612 154.972 106.943 155.313C107.275 155.651 107.53 156.062 107.709 156.546C107.888 157.03 107.978 157.575 107.978 158.182V158.818H101.157V157.307H105.452C105.449 157.088 105.392 156.896 105.283 156.73C105.177 156.561 105.033 156.43 104.85 156.337C104.671 156.241 104.468 156.193 104.239 156.193C104.017 156.193 103.813 156.241 103.627 156.337C103.442 156.43 103.293 156.559 103.18 156.725C103.071 156.891 103.013 157.085 103.006 157.307V158.938C103.006 159.183 103.057 159.402 103.16 159.594C103.263 159.786 103.41 159.937 103.603 160.046C103.795 160.156 104.027 160.21 104.299 160.21C104.487 160.21 104.66 160.184 104.816 160.131C104.975 160.078 105.111 160.001 105.223 159.902C105.336 159.799 105.419 159.677 105.472 159.534H107.978C107.891 160.064 107.688 160.525 107.366 160.916C107.045 161.304 106.619 161.606 106.088 161.821C105.561 162.033 104.945 162.139 104.239 162.139ZM118.867 156.849H116.341C116.328 156.694 116.273 156.559 116.177 156.447C116.081 156.334 115.957 156.248 115.804 156.188C115.655 156.125 115.489 156.094 115.307 156.094C115.072 156.094 114.869 156.137 114.7 156.223C114.531 156.309 114.448 156.432 114.452 156.591C114.448 156.704 114.497 156.808 114.596 156.904C114.699 157 114.896 157.075 115.188 157.128L116.739 157.406C117.521 157.549 118.103 157.789 118.484 158.127C118.868 158.462 119.062 158.911 119.065 159.474C119.062 160.018 118.9 160.49 118.578 160.891C118.26 161.289 117.824 161.597 117.271 161.816C116.72 162.031 116.092 162.139 115.386 162.139C114.22 162.139 113.307 161.901 112.647 161.423C111.991 160.946 111.625 160.316 111.548 159.534H114.273C114.309 159.776 114.429 159.963 114.631 160.096C114.836 160.225 115.095 160.29 115.406 160.29C115.658 160.29 115.865 160.247 116.028 160.161C116.194 160.074 116.278 159.952 116.281 159.793C116.278 159.647 116.205 159.531 116.063 159.445C115.923 159.358 115.705 159.289 115.406 159.236L114.054 158.997C113.275 158.861 112.692 158.603 112.304 158.222C111.916 157.84 111.724 157.35 111.727 156.75C111.724 156.22 111.863 155.771 112.145 155.403C112.43 155.031 112.836 154.75 113.363 154.558C113.893 154.362 114.521 154.264 115.247 154.264C116.351 154.264 117.221 154.493 117.857 154.95C118.497 155.408 118.833 156.041 118.867 156.849ZM123.796 162.139C122.967 162.139 122.258 161.975 121.668 161.647C121.078 161.316 120.626 160.855 120.311 160.265C119.996 159.672 119.839 158.984 119.839 158.202C119.839 157.42 119.996 156.733 120.311 156.143C120.626 155.55 121.078 155.089 121.668 154.761C122.258 154.43 122.967 154.264 123.796 154.264C124.624 154.264 125.334 154.43 125.924 154.761C126.514 155.089 126.966 155.55 127.281 156.143C127.596 156.733 127.753 157.42 127.753 158.202C127.753 158.984 127.596 159.672 127.281 160.265C126.966 160.855 126.514 161.316 125.924 161.647C125.334 161.975 124.624 162.139 123.796 162.139ZM123.816 160.111C124.048 160.111 124.248 160.033 124.417 159.877C124.586 159.721 124.717 159.499 124.81 159.211C124.903 158.923 124.949 158.58 124.949 158.182C124.949 157.781 124.903 157.438 124.81 157.153C124.717 156.864 124.586 156.642 124.417 156.487C124.248 156.331 124.048 156.253 123.816 156.253C123.571 156.253 123.36 156.331 123.184 156.487C123.009 156.642 122.874 156.864 122.782 157.153C122.689 157.438 122.642 157.781 122.642 158.182C122.642 158.58 122.689 158.923 122.782 159.211C122.874 159.499 123.009 159.721 123.184 159.877C123.36 160.033 123.571 160.111 123.816 160.111ZM131.611 151.818V162H128.867V151.818H131.611ZM137.961 158.659V154.364H140.706V162H138.1V160.548H138.021C137.855 161.036 137.565 161.417 137.151 161.692C136.737 161.964 136.244 162.099 135.674 162.099C135.141 162.099 134.673 161.977 134.272 161.732C133.875 161.486 133.565 161.148 133.343 160.717C133.124 160.286 133.013 159.793 133.009 159.236V154.364H135.754V158.659C135.757 159.037 135.853 159.334 136.042 159.549C136.234 159.764 136.503 159.872 136.848 159.872C137.076 159.872 137.273 159.824 137.439 159.728C137.608 159.629 137.737 159.489 137.827 159.31C137.92 159.128 137.965 158.911 137.961 158.659ZM146.655 154.364V156.352H141.624V154.364H146.655ZM142.598 152.534H145.343V159.544C145.343 159.65 145.361 159.74 145.397 159.812C145.434 159.882 145.49 159.935 145.566 159.972C145.643 160.005 145.741 160.021 145.86 160.021C145.943 160.021 146.039 160.011 146.148 159.991C146.261 159.972 146.344 159.955 146.397 159.942L146.794 161.871C146.672 161.907 146.496 161.952 146.267 162.005C146.042 162.058 145.774 162.093 145.462 162.109C144.832 162.143 144.304 162.078 143.876 161.915C143.449 161.75 143.127 161.49 142.912 161.135C142.696 160.78 142.592 160.336 142.598 159.803V152.534ZM147.775 162V154.364H150.519V162H147.775ZM149.147 153.568C148.776 153.568 148.458 153.446 148.193 153.2C147.928 152.955 147.795 152.66 147.795 152.315C147.795 151.971 147.928 151.676 148.193 151.43C148.458 151.185 148.776 151.062 149.147 151.062C149.522 151.062 149.84 151.185 150.102 151.43C150.367 151.676 150.5 151.971 150.5 152.315C150.5 152.66 150.367 152.955 150.102 153.2C149.84 153.446 149.522 153.568 149.147 153.568ZM155.597 162.139C154.768 162.139 154.059 161.975 153.469 161.647C152.879 161.316 152.426 160.855 152.112 160.265C151.797 159.672 151.639 158.984 151.639 158.202C151.639 157.42 151.797 156.733 152.112 156.143C152.426 155.55 152.879 155.089 153.469 154.761C154.059 154.43 154.768 154.264 155.597 154.264C156.425 154.264 157.135 154.43 157.725 154.761C158.314 155.089 158.767 155.55 159.082 156.143C159.397 156.733 159.554 157.42 159.554 158.202C159.554 158.984 159.397 159.672 159.082 160.265C158.767 160.855 158.314 161.316 157.725 161.647C157.135 161.975 156.425 162.139 155.597 162.139ZM155.617 160.111C155.849 160.111 156.049 160.033 156.218 159.877C156.387 159.721 156.518 159.499 156.611 159.211C156.704 158.923 156.75 158.58 156.75 158.182C156.75 157.781 156.704 157.438 156.611 157.153C156.518 156.864 156.387 156.642 156.218 156.487C156.049 156.331 155.849 156.253 155.617 156.253C155.371 156.253 155.161 156.331 154.985 156.487C154.81 156.642 154.675 156.864 154.582 157.153C154.49 157.438 154.443 157.781 154.443 158.182C154.443 158.58 154.49 158.923 154.582 159.211C154.675 159.499 154.81 159.721 154.985 159.877C155.161 160.033 155.371 160.111 155.617 160.111ZM163.412 157.705V162H160.668V154.364H163.273V155.815H163.352C163.518 155.331 163.81 154.952 164.227 154.677C164.648 154.402 165.139 154.264 165.699 154.264C166.239 154.264 166.708 154.388 167.106 154.637C167.507 154.882 167.817 155.22 168.036 155.651C168.258 156.082 168.367 156.574 168.364 157.128V162H165.619V157.705C165.623 157.327 165.527 157.03 165.331 156.815C165.139 156.599 164.87 156.491 164.526 156.491C164.3 156.491 164.103 156.541 163.934 156.641C163.768 156.737 163.641 156.876 163.551 157.058C163.462 157.237 163.415 157.453 163.412 157.705ZM176.699 156.849H174.173C174.16 156.694 174.105 156.559 174.009 156.447C173.913 156.334 173.789 156.248 173.636 156.188C173.487 156.125 173.321 156.094 173.139 156.094C172.904 156.094 172.701 156.137 172.532 156.223C172.363 156.309 172.281 156.432 172.284 156.591C172.281 156.704 172.329 156.808 172.428 156.904C172.531 157 172.728 157.075 173.02 157.128L174.571 157.406C175.353 157.549 175.935 157.789 176.316 158.127C176.7 158.462 176.894 158.911 176.897 159.474C176.894 160.018 176.732 160.49 176.41 160.891C176.092 161.289 175.656 161.597 175.103 161.816C174.553 162.031 173.924 162.139 173.218 162.139C172.052 162.139 171.139 161.901 170.479 161.423C169.823 160.946 169.457 160.316 169.38 159.534H172.105C172.141 159.776 172.261 159.963 172.463 160.096C172.668 160.225 172.927 160.29 173.238 160.29C173.49 160.29 173.697 160.247 173.86 160.161C174.026 160.074 174.11 159.952 174.113 159.793C174.11 159.647 174.037 159.531 173.895 159.445C173.755 159.358 173.537 159.289 173.238 159.236L171.886 158.997C171.107 158.861 170.524 158.603 170.136 158.222C169.748 157.84 169.556 157.35 169.559 156.75C169.556 156.22 169.695 155.771 169.977 155.403C170.262 155.031 170.668 154.75 171.195 154.558C171.725 154.362 172.353 154.264 173.079 154.264C174.183 154.264 175.053 154.493 175.689 154.95C176.329 155.408 176.665 156.041 176.699 156.849ZM106.935 202H99.0995V199.773H106.935V202ZM105.085 197.884H99.0796V195.815H105.085V197.884ZM102.898 194.562L103.057 198.739C103.073 199.216 102.948 199.59 102.679 199.862C102.414 200.131 101.97 200.379 101.347 200.608L99.9149 199.773C100.024 199.72 100.105 199.66 100.158 199.594C100.215 199.524 100.251 199.438 100.268 199.335C100.288 199.229 100.296 199.097 100.293 198.938L100.134 194.562C100.11 193.966 100.231 193.452 100.497 193.021C100.765 192.59 101.149 192.259 101.65 192.027C102.154 191.795 102.749 191.679 103.435 191.679C103.985 191.679 104.467 191.742 104.881 191.868C105.299 191.994 105.652 192.181 105.94 192.43C106.229 192.675 106.451 192.977 106.607 193.335C106.766 193.689 106.862 194.098 106.895 194.562L104.31 194.682C104.293 194.443 104.247 194.263 104.171 194.14C104.094 194.017 103.995 193.934 103.872 193.891C103.75 193.848 103.61 193.827 103.455 193.827C103.319 193.827 103.209 193.855 103.127 193.911C103.044 193.968 102.984 194.05 102.948 194.16C102.911 194.269 102.895 194.403 102.898 194.562ZM113.522 191.818V202H110.758V194.364H110.698L108.471 195.696V193.349L110.977 191.818H113.522ZM115.513 200.409V198.261L119.61 191.818H121.559V194.682H120.445L118.238 198.182V198.261H124.283V200.409H115.513ZM120.465 202V199.753L120.525 198.818V191.818H123.11V202H120.465ZM129.42 191.679C130.013 191.679 130.575 191.773 131.105 191.962C131.636 192.148 132.105 192.441 132.512 192.842C132.923 193.243 133.245 193.767 133.477 194.413C133.712 195.056 133.831 195.835 133.835 196.75C133.838 197.585 133.734 198.336 133.522 199.002C133.313 199.665 133.013 200.23 132.622 200.697C132.234 201.165 131.767 201.523 131.22 201.771C130.676 202.017 130.07 202.139 129.4 202.139C128.648 202.139 127.987 201.995 127.416 201.707C126.846 201.418 126.392 201.031 126.054 200.543C125.716 200.056 125.519 199.514 125.463 198.918H128.187C128.253 199.226 128.399 199.45 128.625 199.589C128.85 199.725 129.108 199.793 129.4 199.793C129.983 199.793 130.409 199.541 130.678 199.037C130.95 198.53 131.087 197.854 131.09 197.009H131.031C130.902 197.32 130.706 197.587 130.444 197.809C130.182 198.031 129.877 198.202 129.529 198.321C129.181 198.44 128.813 198.5 128.426 198.5C127.813 198.5 127.276 198.362 126.815 198.087C126.354 197.809 125.995 197.429 125.736 196.949C125.478 196.465 125.347 195.915 125.343 195.298C125.34 194.576 125.511 193.943 125.855 193.399C126.2 192.856 126.679 192.433 127.292 192.131C127.905 191.83 128.615 191.679 129.42 191.679ZM129.44 193.767C129.165 193.767 128.92 193.83 128.704 193.956C128.492 194.082 128.325 194.253 128.202 194.468C128.083 194.683 128.025 194.927 128.028 195.199C128.031 195.471 128.093 195.714 128.212 195.93C128.335 196.145 128.5 196.316 128.709 196.442C128.921 196.568 129.165 196.631 129.44 196.631C129.642 196.631 129.829 196.596 130.002 196.526C130.174 196.453 130.323 196.352 130.449 196.223C130.578 196.09 130.678 195.938 130.747 195.766C130.82 195.59 130.855 195.401 130.852 195.199C130.849 194.927 130.786 194.683 130.663 194.468C130.54 194.253 130.373 194.082 130.161 193.956C129.949 193.83 129.708 193.767 129.44 193.767ZM139.004 191.679C139.597 191.679 140.159 191.773 140.689 191.962C141.22 192.148 141.689 192.441 142.096 192.842C142.507 193.243 142.829 193.767 143.061 194.413C143.296 195.056 143.415 195.835 143.419 196.75C143.422 197.585 143.318 198.336 143.106 199.002C142.897 199.665 142.597 200.23 142.206 200.697C141.818 201.165 141.351 201.523 140.804 201.771C140.26 202.017 139.654 202.139 138.984 202.139C138.232 202.139 137.571 201.995 137 201.707C136.43 201.418 135.976 201.031 135.638 200.543C135.3 200.056 135.103 199.514 135.047 198.918H137.771C137.837 199.226 137.983 199.45 138.209 199.589C138.434 199.725 138.692 199.793 138.984 199.793C139.567 199.793 139.993 199.541 140.262 199.037C140.534 198.53 140.671 197.854 140.674 197.009H140.615C140.486 197.32 140.29 197.587 140.028 197.809C139.766 198.031 139.461 198.202 139.113 198.321C138.765 198.44 138.397 198.5 138.01 198.5C137.397 198.5 136.86 198.362 136.399 198.087C135.938 197.809 135.579 197.429 135.32 196.949C135.062 196.465 134.931 195.915 134.927 195.298C134.924 194.576 135.095 193.943 135.439 193.399C135.784 192.856 136.263 192.433 136.876 192.131C137.489 191.83 138.199 191.679 139.004 191.679ZM139.024 193.767C138.749 193.767 138.504 193.83 138.288 193.956C138.076 194.082 137.909 194.253 137.786 194.468C137.667 194.683 137.609 194.927 137.612 195.199C137.615 195.471 137.677 195.714 137.796 195.93C137.919 196.145 138.084 196.316 138.293 196.442C138.505 196.568 138.749 196.631 139.024 196.631C139.226 196.631 139.413 196.596 139.586 196.526C139.758 196.453 139.907 196.352 140.033 196.223C140.162 196.09 140.262 195.938 140.331 195.766C140.404 195.59 140.439 195.401 140.436 195.199C140.432 194.927 140.37 194.683 140.247 194.468C140.124 194.253 139.957 194.082 139.745 193.956C139.533 193.83 139.292 193.767 139.024 193.767Z" fill="#192A51"/>
</svg>

