<svg width="201" height="192" viewBox="0 0 201 192" fill="none" xmlns="http://www.w3.org/2000/svg">
<path d="M25.2549 136.404C27.3158 134.846 30.2928 135.212 31.8957 137.214C33.4987 139.217 33.1225 142.109 31.0615 143.667L9.63421 159.829L9.47064 181.109L35.2816 179.711L49.561 157.668C50.9513 155.523 53.8628 154.887 56.071 156.238C58.2791 157.589 58.9334 160.417 57.5431 162.563L42.0533 186.481C41.2845 187.768 39.8778 188.658 38.2258 188.754L4.97254 190.55C4.8744 190.55 4.79262 190.55 4.69448 190.55C2.09376 190.534 -0.0162623 188.484 9.4459e-05 185.957L0.212732 157.906C0.0982348 156.428 0.736147 154.919 2.02833 153.933L25.2549 136.404ZM65.885 85.5161C76.6641 54.2238 91.1725 32.0538 111.602 18.0684C132.817 3.57443 160.067 -1.92437 195.774 0.586646C198.244 0.761464 200.125 2.73213 200.174 5.08422C203.625 42.6541 196.134 69.2899 180.137 89.4733C164.729 108.878 141.649 122.005 112.976 133.019V169.683C112.976 171.479 111.913 173.036 110.359 173.799L81.1786 191.312C78.9704 192.647 76.0589 191.98 74.6849 189.818C74.3251 189.246 74.0961 188.627 74.0143 188.007C67.5534 140.027 60.6836 137.723 20.3152 124.151C15.5063 122.53 10.2885 120.782 6.77178 119.574C4.31827 118.731 3.02609 116.109 3.893 113.709C4.07292 113.201 4.35099 112.74 4.67812 112.343L23.9136 85.6909C24.8787 84.3559 26.4326 83.6726 28.0028 83.7361L65.885 85.5161ZM138.509 40.8741C144.005 40.8741 148.977 43.0355 152.576 46.5318C156.174 50.0282 158.399 54.8595 158.399 60.1994C158.399 65.5392 156.174 70.3706 152.576 73.8669C148.977 77.3632 144.005 79.5246 138.509 79.5246C133.013 79.5246 128.041 77.3632 124.442 73.8669C120.844 70.3706 118.619 65.5392 118.619 60.1994C118.619 54.8595 120.844 50.0282 124.442 46.5318C128.041 43.0355 133.013 40.8741 138.509 40.8741ZM147.996 50.9817C145.575 48.6296 142.222 47.1675 138.509 47.1675C134.812 47.1675 131.459 48.6296 129.022 50.9817C126.601 53.3338 125.096 56.5918 125.096 60.1994C125.096 63.7911 126.601 67.049 129.022 69.417C131.443 71.7691 134.796 73.2312 138.509 73.2312C142.206 73.2312 145.559 71.7691 147.996 69.417C150.417 67.0649 151.921 63.807 151.921 60.1994C151.921 56.5918 150.417 53.3338 147.996 50.9817ZM117.033 25.5855C97.7152 38.8081 84.0246 60.4536 73.8017 91.4281C73.2455 93.4782 71.2827 94.9562 69.0092 94.845L30.1292 93.0015L15.768 112.915C18.8103 113.948 21.1494 114.742 23.3902 115.489C66.4411 129.951 75.3883 132.955 82.389 179.806L103.506 167.14V129.904H103.522C103.522 128.06 104.683 126.328 106.548 125.629C135.107 114.949 157.924 102.426 172.645 83.8633C186.696 66.1432 193.5 42.6223 191.063 9.50233C159.609 7.81773 135.581 12.9192 117.033 25.5855Z" fill="#192A51"/>
</svg>
