<?xml version="1.0" encoding="UTF-8"?><svg id="a" xmlns="http://www.w3.org/2000/svg" xmlns:xlink="http://www.w3.org/1999/xlink" viewBox="0 0 331.396 605.807"><defs><linearGradient id="b" x1="5.015" y1="414.186" x2="269.784" y2="414.186" gradientTransform="translate(86.481 -132.804) rotate(7.468)" gradientUnits="userSpaceOnUse"><stop offset=".008" stop-color="#534d56"/><stop offset=".567" stop-color="#f5ecda"/><stop offset=".686" stop-color="#fff6e3"/><stop offset=".995" stop-color="#534d56"/></linearGradient><linearGradient id="c" x1="5.261" y1="193.802" x2="269.84" y2="193.802" gradientTransform="translate(86.481 -132.804) rotate(7.468)" gradientUnits="userSpaceOnUse"><stop offset="0" stop-color="#000"/><stop offset=".675" stop-color="#7b7675"/><stop offset=".995" stop-color="#000"/></linearGradient><linearGradient id="e" x1="5.505" y1="224.249" x2="269.874" y2="224.249" xlink:href="#c"/><linearGradient id="g" x1="5.293" y1="251.106" x2="269.825" y2="251.106" xlink:href="#c"/><linearGradient id="i" x1="5.381" y1="276.943" x2="270.054" y2="276.943" xlink:href="#c"/><linearGradient id="k" x1="5.162" y1="304.428" x2="270.054" y2="304.428" xlink:href="#c"/><linearGradient id="m" x1="5.162" y1="331.191" x2="270.381" y2="331.191" xlink:href="#c"/><linearGradient id="o" x1="5.345" y1="358.673" x2="269.793" y2="358.673" xlink:href="#c"/><linearGradient id="q" x1="5.359" y1="385.307" x2="270.185" y2="385.307" xlink:href="#c"/><linearGradient id="s" x1="5.162" y1="412.387" x2="270.007" y2="412.387" xlink:href="#c"/><linearGradient id="u" x1="5.555" y1="439.185" x2="270.381" y2="439.185" xlink:href="#c"/><linearGradient id="w" x1="6.054" y1="466.231" x2="269.956" y2="466.231" xlink:href="#c"/><linearGradient id="y" x1="6.34" y1="492.815" x2="270.381" y2="492.815" xlink:href="#c"/><linearGradient id="aa" x1="5.693" y1="520.483" x2="269.989" y2="520.483" xlink:href="#c"/><linearGradient id="ac" x1="5.862" y1="547.294" x2="269.85" y2="547.294" xlink:href="#c"/><linearGradient id="ae" x1="5.678" y1="574.449" x2="269.999" y2="574.449" xlink:href="#c"/><linearGradient id="ag" x1="5.58" y1="601.698" x2="269.981" y2="601.698" xlink:href="#c"/><linearGradient id="ai" x1="5.355" y1="629.112" x2="269.969" y2="629.112" xlink:href="#c"/></defs><path d="M261.706,605.807c-36.428-5.995-72.853-12.035-109.274-18.12-36.468-6.093-72.926-12.231-109.372-18.413,0,0-15.012-1.324-43.061-3.797,10.099-75.904,20.138-151.824,30.117-227.759,12.985-98.806,25.866-197.622,38.643-296.446,2.134-3.595,5.65-8.779,11.041-13.996,9.538-9.229,19.397-13.191,29.469-17.124,12.502-4.882,22.662-6.634,29.632-7.797C152.061.159,162.193.051,169.306.005c5.931-.038,19.363.105,38.277,2.934,19.343,2.893,42.411,6.344,68.693,19.306,10.397,5.128,21.364,10.648,32.973,21.845,11.438,11.032,18.238,22.5,22.147,30.424-23.23,177.098-46.46,354.196-69.69,531.294Z" fill="url(#b)"/><path id="d" d="M324.187,128.865c-5.593-11.662-12.247-19.188-16.813-23.586-4.766-4.591-9.588-8.022-12.262-9.923-6.325-4.5-11.597-7.373-15.673-9.578-6.754-3.654-12.098-5.986-15.551-7.483-7.674-3.328-13.715-5.431-15.73-6.121-10.007-3.425-17.828-5.218-22.924-6.371-2.884-.652-12.248-2.718-25.067-4.375-20.116-2.6-35.8-2.522-41.69-2.422-8.353.142-17.442.33-29.459,2.203-6.755,1.052-14.703,2.329-24.713,5.769-7.311,2.512-15.76,5.487-25.056,12.159-8.033,5.765-13.498,11.994-16.913,16.493.684-6.477,1.368-12.954,2.052-19.431,4.146-4.983,10.848-11.987,20.594-18.273,11.459-7.391,21.654-10.258,30.691-12.722,15.066-4.108,26.795-4.827,38.335-5.468,8.197-.456,26.519-1.069,49.71,2.161,5.278.735,20.057,2.957,38.499,8.346,7.677,2.243,16.76,4.937,28.17,10.194,10.72,4.94,17.824,9.531,20.132,11.054,4.741,3.129,10.079,6.691,16.166,12.613,2.765,2.689,7.385,7.238,11.979,14.341,3.803,5.879,6.164,11.307,7.637,15.357-.705,5.022-1.41,10.043-2.115,15.065Z" fill="url(#c)"/><path id="f" d="M320.733,154.75c-2.263-4.293-5.766-10.06-11.002-16.097-3.166-3.65-7.574-8.1-15.403-13.899-15.991-11.844-31.498-18.387-38.907-21.242-12.443-4.795-21.784-6.794-37.574-10.173-10.015-2.143-20.7-4.43-35.247-5.843-23.599-2.292-41.348-.73-46.866-.18-8.813.879-19.277,1.979-32.527,6.082-8.104,2.51-15.747,4.938-24.351,10.633-10.397,6.882-16.894,15.024-20.544,20.397.675-5.034,1.35-10.069,2.025-15.103,1.354-2.632,3.512-6.278,6.818-10.092,1.502-1.733,5.471-6.073,13.583-11.119,6.131-3.814,12.723-6.846,21.407-9.665,17.88-5.804,32.801-6.866,43.018-7.529,12.423-.805,21.892-.369,27.932-.073,15.35.754,26.834,2.622,35.502,4.06,9.516,1.579,19.619,3.289,32.743,7.135,4.84,1.418,11.682,3.445,20.414,7.039,17.302,7.122,28.736,14.93,31.773,17.049,6.501,4.535,11.483,8.009,17.02,14.217,6.374,7.147,10.184,14.215,12.419,19.172-.744,5.077-1.488,10.154-2.232,15.232Z" fill="url(#e)"/><path id="h" d="M317.535,180.561c-3.84-6.759-7.859-12.045-11.179-15.919-2.611-3.047-6.971-8.08-13.8-13.293-4.918-3.754-8.867-5.883-15.491-9.455-7.322-3.949-13.162-6.459-15.272-7.348-8.171-3.442-14.551-5.373-20.406-7.127-5.629-1.686-10.534-2.872-20.342-5.244-10.85-2.624-16.404-3.954-22.72-4.858-3.703-.53-7.354-.862-14.656-1.527-6.715-.612-11.391-1.037-17.743-1.336-8.647-.407-15.571-.351-19.466-.275-4.622.09-10.57.217-18.351.945-7.088.663-14.196,1.355-23.295,3.577-3.944.963-9.446,2.331-16.354,5.199-4.02,1.669-10.088,4.229-16.929,9.066-4.372,3.091-10.512,8.139-16.444,15.861.581-4.906,1.161-9.813,1.742-14.719,2.347-3.415,5.845-7.834,10.812-12.244,1.065-.946,6.205-5.449,14.242-9.716,7.126-3.783,13.011-5.512,17.524-6.81,8.394-2.415,14.891-3.211,22.224-4.077,9.568-1.129,16.775-1.336,22.76-1.493,6.674-.175,20.133-.326,37.273,1.107,6.783.567,15.197,1.292,26.206,3.237,6.634,1.172,11.805,2.363,19.553,4.147,7.929,1.826,12.002,2.773,17.338,4.44,5.892,1.841,10.023,3.503,15.862,5.852,8.295,3.336,13.178,5.301,19.55,8.701,5.349,2.854,10.382,5.54,16.362,10.362,7.67,6.185,12.422,12.277,14.388,14.942,3.918,5.31,6.565,10.288,8.335,14.168-.574,4.612-1.148,9.224-1.723,13.836Z" fill="url(#g)"/><path id="j" d="M314.266,207.258c-3.706-7.01-7.817-12.191-11.009-15.699-5.335-5.861-10.295-9.451-13.145-11.491-4.407-3.154-7.84-4.989-14.704-8.659-4.212-2.252-9.708-5.174-17.353-8.413-7.465-3.163-13.822-5.292-18.194-6.636-3.876-1.191-7.634-2.129-15.15-4.005-9.808-2.448-14.711-3.671-21.405-5.015-4.102-.824-11.135-2.221-20.521-3.405-3.973-.501-12.245-1.453-22.878-1.886-9.066-.369-15.887-.199-21.001-.062-8.087.216-12.803.342-19.487,1.117-7.997.927-13.936,2.218-19.348,3.395-6.326,1.375-9.753,2.134-14.492,3.842-2.571.926-6.934,2.638-12.054,5.426-5.803,3.159-9.89,6.236-11.512,7.496-3.01,2.338-6.531,5.406-10.14,9.328.604-4.495,1.208-8.991,1.811-13.486,2.166-3.112,5.506-7.313,10.333-11.496,4.633-4.015,8.693-6.33,11.971-8.176,2.7-1.521,8.734-4.734,17.29-7.477,2.005-.643,9.756-3.058,23.661-4.585,11.521-1.265,19.873-1.109,32.7-.868,6.022.113,16.029.43,28.368,1.514,7.118.625,13.461,1.196,21.964,2.615,5.266.879,9.51,1.812,17.997,3.679,10.051,2.211,15.076,3.316,21.884,5.245,5.325,1.509,10.946,3.117,18.227,5.953,3.435,1.338,10.634,4.271,19.41,9.012,6.077,3.283,10.838,5.854,16.723,10.376,3.285,2.523,7.945,6.146,12.902,12.042,4.445,5.286,7.384,10.324,9.278,14.097-.709,5.407-1.418,10.814-2.126,16.221Z" fill="url(#i)"/><path id="l" d="M310.755,234.042c-3.869-7.302-8.182-12.65-11.498-16.227-5.429-5.857-10.478-9.439-13.465-11.535-5.192-3.642-9.425-5.814-13.895-8.087-6.24-3.173-10.916-5.018-17.294-7.534-10.524-4.153-18.667-6.705-21.096-7.456-9.508-2.938-16.839-4.647-18.836-5.105-1.988-.456-10.442-2.371-22.037-4.041-3.785-.545-7.398-.948-14.624-1.755-11.218-1.252-16.827-1.879-22.876-2.207-3.181-.173-9.518-.454-17.579-.325-7.035.113-12.145.487-18.262.945-9.954.745-14.931,1.118-21.38,2.311-4.569.846-9.541,1.789-15.846,4.098-4.475,1.638-7.779,3.29-12.054,5.426-5.724,2.861-8.586,4.291-11.615,6.542-2.658,1.974-6.394,5.212-10.037,10.283.579-4.978,1.158-9.957,1.737-14.935,2.349-2.839,5.863-6.638,10.699-10.455,6.926-5.466,13.155-8.278,16.977-9.973,6.722-2.982,12.139-4.386,15.895-5.341,6.81-1.732,11.73-2.32,20.036-3.313,5.701-.682,13.039-1.54,22.802-1.763,8.019-.183,13.871.149,20.719.538,3.105.176,12.25.736,24.459,2.216,9.943,1.206,18.014,2.185,28.706,4.555,7.4,1.641,12.986,3.267,22.924,6.161,7.107,2.069,11.611,3.381,17.72,5.503,7.47,2.595,14.465,5.025,23.125,9.367,6.967,3.493,13.754,6.953,21.259,13.47,6.073,5.275,9.422,9.778,10.43,11.171,3.373,4.66,5.528,9.025,6.896,12.294-.663,5.057-1.326,10.113-1.989,15.17Z" fill="url(#k)"/><path id="n" d="M307.177,259.324c-1.359-2.579-3.477-6.146-6.612-9.974-4.565-5.575-8.95-8.851-13.272-12.035-7.475-5.508-13.767-8.647-19.848-11.71-6.6-3.324-11.794-5.421-16.466-7.306-7.478-3.019-13.331-4.991-15.529-5.719-2.712-.898-10.981-3.584-22.104-6.205-3.801-.896-12.667-2.899-24.24-4.57-3.517-.508-7.219-.924-14.624-1.755-11.069-1.243-16.604-1.864-22.876-2.207-3.53-.193-9.767-.456-17.579-.325-1.96.033-9.91.189-20.461,1.183-9.331.879-16.123,1.982-18.325,2.349-5.774.964-9.458,1.593-14.458,3.055-5.524,1.615-9.514,3.331-12.275,4.529-6.811,2.955-11.319,4.911-16.222,8.961-3.306,2.73-5.628,5.452-7.106,7.384.551-5.208,1.101-10.415,1.652-15.623,3.475-3.801,6.861-6.696,9.671-8.83,4.125-3.132,7.686-5.135,9.497-6.102,1.131-.604,5.188-2.73,11.34-4.828,5.851-1.995,10.252-2.824,16.791-4.027,8.981-1.653,15.999-2.395,18.611-2.655,8.75-.868,15.179-.984,22.841-1.126,6.746-.125,12.899-.239,21.159.2,7.893.419,13.493,1.119,21.415,2.11,10.754,1.344,17.901,2.238,27.429,4.277,7.634,1.634,13.156,3.235,24.201,6.439,7.558,2.192,12.399,3.596,19.056,5.954,5.051,1.789,12.025,4.28,20.716,8.405,8.217,3.9,14.732,7.039,22.305,12.902,6.87,5.319,10.61,9.784,12.129,11.688,2.72,3.408,4.653,6.544,5.961,8.899-.926,5.554-1.852,11.109-2.778,16.663Z" fill="url(#m)"/><path id="p" d="M303.948,283.848c-2.211-3.24-5.496-7.54-10.092-12.015-4.826-4.698-9.014-7.564-13.281-10.453-3.414-2.311-9.831-6.424-18.689-10.569-8.429-3.945-14.962-5.998-22.452-8.32-9.93-3.079-17.129-4.648-30.058-7.465-8.502-1.852-15.105-3.277-24.24-4.57-4.503-.637-8.333-1.06-14.624-1.755-2.783-.307-9.635-1.05-19.02-1.875-10.914-.96-16.372-1.44-20.625-1.504-5.455-.082-10.14.215-19.509.808-7.382.468-12.575.807-19.637,1.782-4.713.65-8.694,1.211-13.992,2.522-3.766.932-8.658,2.165-14.688,4.806-4.342,1.902-9.165,4.057-14.368,8.412-3.267,2.735-5.6,5.429-7.12,7.382.702-5.32,1.404-10.639,2.106-15.959,2.128-2.098,4.942-4.624,8.468-7.206,5.319-3.893,9.958-6.227,12.243-7.305,4.597-2.168,7.964-3.161,14.235-5.012,4.612-1.361,9.82-2.881,16.93-4.128,1.6-.281,8.841-1.52,18.794-1.932,4.495-.186,8.337-.084,16.022.12,6.169.164,13.279.361,22.42,1.027,6.16.449,11.107.99,20.749,2.055,14.998,1.656,22.497,2.484,27.845,3.456,11.263,2.047,19.939,4.559,26.284,6.415,6.487,1.898,11.035,3.467,19.975,6.55,10.112,3.488,15.169,5.233,19.779,7.373,2.863,1.329,10.118,4.831,18.588,10.752,5.696,3.982,9.669,6.806,13.686,11.892,3.113,3.941,5.025,7.687,6.172,10.313-.634,4.801-1.268,9.602-1.902,14.402Z" fill="url(#o)"/><path id="r" d="M300.888,308.981c-2.112-3.204-5.382-7.572-10.13-12.013-6.051-5.659-11.706-8.822-16.514-11.47-4.915-2.708-8.598-4.224-15.764-7.146-6.455-2.632-13.288-5.419-22.452-8.32-9.272-2.936-16.201-4.446-30.058-7.465-8.502-1.852-15.105-3.277-24.24-4.57-4.489-.635-8.3-1.056-14.624-1.755-3.972-.439-10.598-1.141-19.04-1.878-10.108-.882-15.161-1.324-20.8-1.526-5.592-.201-11.85-.409-19.921.081-1.898.115-5.5.417-12.702,1.02-7.514.629-8.428.75-9.22.867-4.319.635-7.513,1.532-13.899,3.326-5.804,1.63-8.86,2.5-13.028,4.232-3.726,1.548-6.17,2.884-7.4,3.584-1.716.977-3.916,2.241-6.503,4.295-1.714,1.361-3.889,3.299-6.128,5.928.634-5.329,1.268-10.657,1.903-15.986,2.05-1.807,4.749-4.023,8.073-6.347,2.08-1.455,5.665-3.941,10.504-6.333,6.148-3.04,11.21-4.39,15.281-5.452,5.516-1.44,9.646-1.989,17.905-3.087,7.25-.964,12.116-1.611,18.794-1.932,6.112-.293,11.12-.107,21.137.266,4.805.179,11.612.44,20.643,1.148,5.632.442,13.769,1.093,24.22,2.559,8.37,1.174,14.35,2.347,26.309,4.693,11.74,2.303,17.736,3.49,23.944,5.245,6.421,1.815,10.9,3.443,19.859,6.699,9.595,3.487,14.529,5.295,21.171,8.443,9.47,4.488,14.96,8.159,16.665,9.322,7.905,5.391,11.195,9.206,12.452,10.74,2.724,3.326,4.498,6.45,5.597,8.653-.678,4.727-1.356,9.453-2.034,14.18Z" fill="url(#q)"/><path id="t" d="M297.566,334.292c-1.917-2.424-4.791-5.75-8.704-9.26-5.985-5.368-11.364-8.442-16.345-11.25-6.96-3.924-12.533-6.214-16.778-7.941-8.617-3.506-15.092-5.373-23.719-7.861-2.534-.731-11.982-3.426-24.727-6.211-4.815-1.052-11.63-2.531-20.671-3.968-9.341-1.485-9.407-1.073-22.374-2.977-10.575-1.553-11.711-2-18.454-2.701-5.36-.558-9.489-.78-16.283-1.145-6.848-.368-10.946-.588-16.749-.612-8.813-.036-15.358.407-17.097.531-5.376.382-9.466.877-12.84,1.287-5.338.647-8.008.971-11.503,1.66-3.23.637-7.715,1.54-13.341,3.597-5.169,1.89-8.764,3.826-9.888,4.445-3.442,1.895-5.755,3.566-6.257,3.932-2.64,1.923-4.714,3.802-6.241,5.32.361-4.77.723-9.541,1.084-14.311,1.933-1.901,4.771-4.408,8.551-6.846,4.354-2.808,7.982-4.249,12.54-6.031,2.835-1.108,7.936-2.97,14.662-4.612,7.698-1.879,13.664-2.528,18.013-2.984,7.202-.757,12.399-.817,19.702-.903,9.517-.111,16.731.211,21.315.423,2.142.099,11.086.529,22.983,1.699,4.547.447,13.611,1.403,25.118,3.138,5.372.81,13.92,2.112,25.122,4.449,11.282,2.354,19.78,4.616,22.84,5.446,9.167,2.484,16.514,4.842,21.556,6.545,8.284,2.798,12.54,4.251,18.099,6.926,6.049,2.911,10.836,5.874,14.535,8.439,3.844,2.666,6.931,4.833,10.371,8.487,3.464,3.68,5.763,7.251,7.222,9.856-.581,4.478-1.162,8.956-1.743,13.434Z" fill="url(#s)"/><path id="v" d="M294.154,360.177c-2.193-2.078-5.12-4.732-8.706-7.665-2.901-2.374-5.761-4.714-9.841-7.41-5.052-3.338-9.224-5.405-12.655-7.091-2.151-1.056-5.576-2.671-10.627-4.691-8.885-3.553-15.904-5.602-22.88-7.619-3.593-1.039-12.544-3.569-24.411-6.199-10.701-2.371-18.931-3.75-21.825-4.222-10.867-1.775-19.292-2.665-22.374-2.977-5.781-.585-4.893-.351-18.207-1.49-10.594-.906-11.519-1.085-17.62-1.518-5.906-.419-11.335-.781-17.976-.815-11.97-.061-20.913,1.019-29.655,2.074-12.262,1.48-17.574,2.85-19.443,3.351-8.673,2.326-13.412,4.78-15.114,5.7-4.592,2.484-8.079,5.169-10.47,7.237.467-4.887.934-9.774,1.4-14.661,2.262-2.194,5.617-5.078,10.128-7.78,5.112-3.062,9.431-4.526,13.232-5.789,5.698-1.894,9.937-2.653,16.337-3.798,3.625-.649,9.495-1.683,17.327-2.282,7.684-.588,13.479-.468,18.459-.352,4.255.099,6.423.263,20.249,1.278,20.562,1.509,20.632,1.503,22.516,1.688,2.087.204,11.574,1.147,24.151,3.044,5.402.815,13.938,2.115,25.122,4.449,11.278,2.353,19.773,4.614,22.84,5.446,11.374,3.082,19.607,5.878,21.556,6.545,9.818,3.359,15.955,5.992,18.099,6.926,8.73,3.806,12.563,6.189,13.751,6.941,5.846,3.702,9.608,7.176,10.617,8.124,3.655,3.433,6.36,6.76,8.271,9.4-.751,4.719-1.501,9.439-2.252,14.158Z" fill="url(#u)"/><path id="x" d="M290.83,385.279c-6.568-7.097-12.956-11.602-17.493-14.355-5.97-3.622-11.149-5.675-15.46-7.384-1.632-.647-5.089-1.979-17.668-5.682-6.301-1.854-12.615-3.707-21.438-6.002-7.238-1.883-14.06-3.657-23.199-5.546-8.424-1.742-14.44-2.676-24.958-4.31-8.95-1.391-15.784-2.452-25.279-3.508-12.518-1.393-21.978-1.921-24.873-2.073-5.213-.274-13.174-.678-23.689-.532-9.764.136-16.75.677-18.434.811-8.038.642-13.474,1.098-20.645,2.778-3.444.807-7.893,1.869-13.418,4.181-6.703,2.804-11.82,6.121-15.287,8.684.736-5.38,1.471-10.76,2.207-16.14,5.022-3.762,9.682-6.196,13.284-7.783,2.798-1.233,8.336-3.477,20.634-5.582,6.838-1.17,18.47-2.763,34.166-2.702,4.747.018,10.836.299,22.998,1.117,13.519.909,20.279,1.364,26.045,1.947,5.154.521,11.487,1.362,24.151,3.044,14.453,1.919,21.787,2.9,27.018,3.906,9.995,1.922,17.582,3.983,22.468,5.321,11.52,3.155,20.016,6.146,22.822,7.15,7.902,2.826,13.7,4.922,21.23,8.723,4.384,2.213,9.165,4.653,14.873,8.88,5.125,3.794,8.998,7.548,11.699,10.443-.584,4.872-1.168,9.744-1.751,14.616Z" fill="url(#w)"/><path id="z" d="M287.985,410.253c-3.275-2.45-8.152-5.867-14.407-9.412-7.904-4.48-14.304-7.152-18.817-9.001-6.996-2.866-12.237-4.523-18.929-6.639-5.722-1.809-12.382-3.915-21.003-5.921-6.736-1.567-7.419-1.346-24.373-4.383-17.166-3.075-16.698-3.209-23.983-4.332-10.702-1.65-19.13-2.503-25.33-3.123-10.79-1.078-9.335-.625-24.289-1.996-11.298-1.036-14.824-1.542-22.779-1.851-8.187-.318-13.219-.123-15.849.014-6.411.335-11.228.987-14.379,1.422-8.544,1.178-13.377,1.845-19.152,3.671-4.672,1.477-11.297,4.135-18.645,9.191.649-5.26,1.298-10.52,1.946-15.78,3.389-2.143,8.416-5.008,14.85-7.557,3.938-1.56,12.778-4.735,32.1-6.413,16.47-1.431,29.01-.772,44.762.056,6.285.33,13.752.736,23.705,1.92,6.44.766,12.904,1.849,25.831,4.014,5.383.902,14.298,2.422,25.716,4.525,10.97,2.02,16.456,3.03,21.991,4.27,8.744,1.959,15.19,3.404,23.748,6.279,7.258,2.439,12.148,4.6,21.857,8.892,9.483,4.192,12.397,5.915,14.619,7.373,5.706,3.745,9.821,7.69,12.477,10.545-.556,4.745-1.112,9.49-1.668,14.235Z" fill="url(#y)"/><path id="ab" d="M283.83,436.24c-7.286-5.925-13.9-9.535-18.697-11.758-3.982-1.845-8.381-3.367-17.177-6.41-2.699-.934-8.242-2.825-15.553-5.092-5.217-1.618-12.481-3.86-21.983-6.294-4.319-1.106-10.464-2.671-18.235-4.208-2.985-.59-7.92-1.515-28.746-4.225-10.359-1.348-9.413-1.155-26.68-3.33-17.38-2.19-18.403-2.393-23.205-2.785-9.515-.777-17.148-.928-23.863-1.062-7.106-.141-10.865-.208-16.286.07-2.388.122-8.824.502-17.261,1.763-7.507,1.122-12.675,1.894-19.249,4.03-6.507,2.114-11.589,4.653-14.976,6.55.691-5.123,1.383-10.246,2.074-15.369,5.754-3.659,10.945-5.725,14.782-6.945,5.054-1.607,8.99-2.138,16.317-3.127,6.242-.842,10.916-1.159,15.906-1.488,4.738-.312,11.706-.759,20.738-.745,9.297.014,16.163.509,23.607,1.06,9.119.675,15.822,1.454,24.439,2.466,5.381.632,6.169.775,25.694,3.368,19.823,2.633,21.229,2.78,26.054,3.589,10.68,1.792,18.735,3.578,22.458,4.432,6.097,1.398,12.242,2.82,20.344,5.307,1.58.485,9.103,2.811,19,6.703,8.63,3.393,13.115,5.157,18.894,8.417,6.17,3.481,10.875,7.009,13.993,9.556-.796,5.176-1.592,10.352-2.388,15.527Z" fill="url(#aa)"/><path id="ad" d="M280.502,462.887c-7.702-6.239-14.619-9.919-19.486-12.115-3.564-1.608-7.839-3.089-16.388-6.052-4.535-1.571-9.231-3.187-15.553-5.092-11.615-3.5-20.796-5.572-24.497-6.378-7.611-1.659-13.207-2.579-19.458-3.607-3.473-.571-7.037-1.121-25.659-3.628-13.389-1.802-20.167-2.712-24.266-3.181-6.229-.712-14.412-1.638-25.293-2.392-10.918-.757-19.371-.982-23.032-1.061-8.184-.177-14.031-.09-21.181.017-10.556.157-14.243.433-16.617.644-6.031.537-9.94.886-14.909,2.219-4.161,1.116-9.523,3.046-15.392,6.563.711-5.055,1.422-10.11,2.132-15.165,2.322-1.21,5.733-2.842,10.014-4.366,6.702-2.385,11.917-3.218,18.439-4.26,8.686-1.387,15.452-1.721,18.317-1.827,4.491-.166,7.743-.076,14.249.104,5.428.15,9.344.37,15.612.727,6.33.36,11.434.651,18.19,1.197,9.033.73,15.828,1.496,20.458,2.022,8.853,1.006,15.002,1.868,25.823,3.385,11.751,1.647,17.627,2.471,24.617,3.666,7.695,1.315,13.062,2.401,23.798,4.574,9.889,2.002,14.945,3.032,20.403,4.477,4.147,1.098,10.161,2.707,17.866,5.539,10.899,4.006,18.538,8.019,20.21,8.906,5.744,3.048,10.41,6.002,13.847,8.333-.748,5.584-1.495,11.167-2.243,16.751Z" fill="url(#ac)"/><path id="af" d="M277.385,487.87c-5.711-3.573-12.653-7.363-20.807-10.779-5.84-2.447-10.58-3.857-19.192-6.498-5.673-1.74-10.775-3.31-17.719-4.94-2.82-.662-4.619-1.023-18.635-3.598-11.541-2.12-17.312-3.18-19.434-3.538-8.918-1.503-15.712-2.463-24.073-3.651-3.617-.514-9.288-1.318-16.816-2.272-5.709-.724-13.42-1.696-23.513-2.698-7.426-.738-13.094-1.189-17.865-1.568-7.473-.595-11.209-.892-16.075-1.154-5.927-.319-14.089-.626-23.846-.549-11.934.094-16.836.689-18.869.958-6.438.854-10.647,1.974-11.783,2.283-5.699,1.553-10.3,3.489-13.602,5.081.641-4.888,1.282-9.776,1.922-14.663,3.439-1.82,8.192-4.015,14.093-5.808,7.123-2.164,12.811-2.8,16.868-3.232,4.725-.504,8.606-.519,16.175-.539,8.639-.022,15.652.222,20.194.421,8.156.358,13.863.813,23.257,1.564,9.05.723,15.649,1.25,24.751,2.255,7.522.83,13.611,1.682,25.791,3.381,13.288,1.854,19.932,2.781,26.214,3.931,1.754.321,7.816,1.447,17.191,3.147,4.08.74,3.604.646,4.374.792,9.531,1.804,16.891,3.546,21.378,4.661,5.689,1.414,11.054,2.76,18.121,5.114,7.052,2.349,11.328,4.213,12.326,4.652,3.389,1.49,7.448,3.293,12.364,6.373,3.87,2.424,6.922,4.795,9.114,6.64-.635,4.745-1.271,9.49-1.906,14.235Z" fill="url(#ae)"/><path id="ah" d="M273.668,514.871c-7.385-5.182-14.034-8.443-18.918-10.499-7.748-3.262-14.375-4.887-22.75-6.942-4.181-1.026-7.965-1.799-15.534-3.344-6.613-1.35-11.479-2.261-18.227-3.522-10.306-1.925-15.459-2.888-20.977-3.802-8.536-1.415-15.835-2.452-22.938-3.462-4.654-.662-8.496-1.182-9.593-1.33-6.439-.87-8.425-1.092-13.528-1.768-11.058-1.464-10.336-1.559-16.526-2.31-4.984-.605-5.048-.494-17.303-1.674-13.995-1.348-13.124-1.417-17.887-1.751-7.529-.528-13.097-.595-20.304-.682-9.074-.109-13.611-.163-19.366.303-8.568.694-14.123,1.92-15.39,2.206-5.145,1.16-9.412,2.566-12.593,3.757.626-4.945,1.252-9.889,1.879-14.834,2.734-1.307,6.709-2.983,11.69-4.305,6.358-1.688,11.369-2.007,18.362-2.414,6.545-.381,11.343-.322,17.059-.239,7.261.105,12.583.417,22.932,1.026,9.251.544,13.876.816,20.312,1.376,6.923.602,12.487,1.268,23.616,2.601,14.472,1.733,25.007,3.176,27.326,3.495,10.707,1.472,16.061,2.209,23.841,3.505,8.347,1.391,14.512,2.596,23.974,4.445,10.485,2.049,14.452,2.961,16.451,3.431.855.201,5.123,1.277,13.625,3.42,8.438,2.127,9.666,2.441,11.906,3.115,2.694.811,6.7,2.028,11.822,4.111,2.236.909,6.6,2.762,11.904,5.614,3.004,1.615,5.517,3.125,7.449,4.342-.771,5.377-1.542,10.753-2.312,16.13Z" fill="url(#ag)"/><path id="aj" d="M270.251,541.087c-9.517-6.022-17.889-9.436-23.96-11.458-5.704-1.899-11.44-3.255-18.27-4.87-3.835-.907-7.66-1.702-15.309-3.294-9.04-1.881-13.56-2.821-19.675-3.965-8.619-1.612-13.479-2.531-20.432-3.474-5.671-.769-5.814-.623-13.25-1.635-3.123-.425-3.465-.5-14.962-2.159-6.758-.976-8.09-1.159-9.72-1.373-4.45-.585-5.932-.718-10.913-1.332-5.986-.738-7.102-.947-11.971-1.569-1.768-.226-9.156-1.161-17.463-1.953-7.814-.745-5.656-.479-19.317-1.452-16.478-1.174-17.398-1.334-23.152-1.58-3.539-.152-10.172-.39-18.59-.16-7.167.196-10.336.587-13.217,1.138-5.04.964-9.067,2.391-11.78,3.503.627-4.932,1.254-9.864,1.88-14.796,2.114-.916,5.076-2.071,8.716-3.084,5.302-1.476,9.474-1.936,12.773-2.285,4.848-.513,8.287-.523,14.17-.54,2.395-.007,7.094.013,14.07.342,5.038.237,8.873.523,18.051,1.292,12.805,1.073,19.207,1.61,22.898,2.004,7.228.772,7.112.924,24.041,3.134,15.603,2.037,15.845,1.926,26.45,3.381,7.354,1.008,12.717,1.819,23.442,3.439,12.25,1.851,18.487,2.807,24.041,3.88,5.432,1.049,5.706,1.227,17.045,3.502,9.898,1.985,10.148,1.942,14.584,2.921,6.968,1.539,12.106,2.688,18.763,4.91,3.69,1.232,7.672,2.577,12.698,5.055,4.477,2.207,8.058,4.461,10.653,6.248-.765,5.411-1.529,10.821-2.294,16.232Z" fill="url(#ai)"/></svg>