<svg xmlns="http://www.w3.org/2000/svg" xmlns:xlink="http://www.w3.org/1999/xlink" width="500" zoomAndPan="magnify" viewBox="0 0 375 374.999991" height="500" preserveAspectRatio="xMidYMid meet" version="1.0"><defs><clipPath id="df3dd23461"><path d="M 0 0.1875 L 375 0.1875 L 375 372 L 0 372 Z M 0 0.1875 " clip-rule="nonzero"/></clipPath></defs><g clip-path="url(#df3dd23461)"><path fill="#d7d6dc" d="M 333.734375 248.570312 C 333.855469 248.441406 333.976562 248.3125 334.097656 248.179688 C 334.402344 247.847656 334.394531 247.367188 334.089844 247.039062 C 333.953125 246.890625 333.71875 246.804688 333.527344 246.804688 C 333.308594 246.804688 333.101562 246.898438 332.945312 247.042969 C 332.8125 247.167969 332.683594 247.285156 332.554688 247.40625 C 332.394531 247.554688 332.324219 247.773438 332.3125 247.984375 C 332.304688 248.210938 332.414062 248.421875 332.5625 248.582031 C 332.859375 248.902344 333.441406 248.890625 333.734375 248.570312 Z M 280.664062 283.855469 C 280.660156 284.386719 281.210938 284.875 281.746094 284.699219 C 281.898438 284.644531 282.054688 284.601562 282.195312 284.527344 C 282.3125 284.46875 282.40625 284.375 282.476562 284.261719 C 282.523438 284.226562 282.566406 284.179688 282.605469 284.128906 C 282.75 283.957031 282.746094 283.757812 282.605469 283.589844 C 282.5625 283.539062 282.523438 283.496094 282.476562 283.457031 C 282.40625 283.347656 282.308594 283.253906 282.191406 283.1875 C 282.058594 283.113281 281.898438 283.074219 281.753906 283.023438 C 281.21875 282.847656 280.667969 283.324219 280.664062 283.855469 Z M 310.964844 351.25 C 311.585938 351.25 311.589844 350.285156 310.96875 350.285156 C 310.34375 350.285156 310.34375 351.25 310.964844 351.25 Z M 322.257812 337.160156 C 322.90625 337.160156 322.90625 336.15625 322.257812 336.15625 C 321.609375 336.15625 321.605469 337.160156 322.257812 337.160156 Z M 322.710938 328.515625 C 322.601562 328.597656 322.511719 328.671875 322.421875 328.769531 C 322.289062 328.929688 322.207031 329.082031 322.179688 329.285156 C 322.152344 329.480469 322.183594 329.679688 322.285156 329.855469 C 322.441406 330.132812 322.746094 330.289062 323.058594 330.304688 C 323.417969 330.324219 323.757812 330.066406 323.890625 329.746094 C 323.960938 329.570312 323.992188 329.363281 323.933594 329.175781 C 323.886719 329.019531 323.800781 328.886719 323.695312 328.761719 C 323.613281 328.664062 323.523438 328.59375 323.410156 328.515625 C 323.230469 328.382812 322.894531 328.386719 322.710938 328.515625 Z M 336.367188 340.003906 C 337.125 340 337.257812 339.082031 336.722656 338.6875 L 336.632812 338.621094 C 336.5 338.523438 336.242188 338.527344 336.109375 338.621094 C 336.078125 338.644531 336.050781 338.667969 336.015625 338.691406 C 335.488281 339.078125 335.613281 340.007812 336.367188 340.003906 Z M 226.953125 347.269531 C 226.777344 347.125 226.59375 347.132812 226.414062 347.273438 C 226.339844 347.335938 226.269531 347.394531 226.21875 347.472656 C 226.160156 347.570312 226.152344 347.6875 226.132812 347.796875 C 226.097656 348.003906 226.128906 348.199219 226.285156 348.355469 C 226.386719 348.457031 226.539062 348.515625 226.6875 348.515625 C 226.839844 348.519531 226.984375 348.453125 227.097656 348.347656 C 227.25 348.203125 227.277344 347.996094 227.242188 347.796875 C 227.222656 347.6875 227.207031 347.578125 227.152344 347.472656 C 227.105469 347.382812 227.035156 347.328125 226.953125 347.269531 Z M 362.988281 293.574219 C 362.003906 293.574219 361.996094 295.105469 362.980469 295.105469 C 363.96875 295.105469 363.976562 293.574219 362.988281 293.574219 Z M 368.628906 271.675781 C 369.550781 271.675781 369.554688 270.246094 368.632812 270.246094 C 367.710938 270.246094 367.703125 271.675781 368.628906 271.675781 Z M 363.394531 264.398438 C 362.203125 264.398438 362.199219 266.242188 363.382812 266.242188 C 364.574219 266.242188 364.578125 264.398438 363.394531 264.398438 Z M 364.414062 358.214844 C 364.226562 358.179688 364.171875 358.179688 363.984375 358.210938 C 363.710938 358.261719 363.429688 358.539062 363.382812 358.808594 C 363.371094 358.875 363.359375 358.9375 363.347656 359.003906 C 363.304688 359.152344 363.304688 359.300781 363.34375 359.453125 C 363.382812 359.605469 363.464844 359.742188 363.578125 359.855469 C 363.734375 360.011719 363.96875 360.105469 364.191406 360.109375 C 364.429688 360.109375 364.648438 360.007812 364.824219 359.847656 C 365.054688 359.628906 365.097656 359.304688 365.042969 359.007812 C 365.035156 358.945312 365.023438 358.878906 365.011719 358.816406 C 364.964844 358.542969 364.683594 358.261719 364.414062 358.214844 Z M 369.808594 328.640625 C 369.867188 328.714844 369.925781 328.792969 369.984375 328.867188 C 370.128906 329.054688 370.417969 329.125 370.640625 329.136719 C 370.894531 329.152344 371.136719 329.027344 371.316406 328.855469 C 371.488281 328.703125 371.589844 328.425781 371.589844 328.203125 C 371.59375 327.984375 371.488281 327.664062 371.308594 327.523438 C 371.234375 327.464844 371.15625 327.40625 371.082031 327.347656 C 371 327.285156 370.90625 327.199219 370.820312 327.148438 C 370.601562 327.023438 370.375 327.015625 370.132812 327.066406 C 369.851562 327.121094 369.574219 327.390625 369.519531 327.675781 C 369.46875 327.921875 369.476562 328.148438 369.605469 328.375 C 369.652344 328.457031 369.746094 328.554688 369.808594 328.640625 Z M 358.789062 271.0625 C 358.789062 271.082031 358.789062 271.097656 358.789062 271.117188 C 358.777344 271.371094 358.882812 271.617188 359.03125 271.808594 C 359.183594 272.003906 359.386719 272.152344 359.628906 272.214844 C 360.019531 272.324219 360.433594 272.1875 360.726562 271.917969 C 360.90625 271.753906 361.003906 271.507812 361.03125 271.273438 C 361.058594 271.179688 361.058594 271.082031 361.035156 270.984375 C 361.035156 270.882812 361.007812 270.785156 360.957031 270.699219 C 360.863281 270.472656 360.703125 270.253906 360.480469 270.140625 C 360.390625 270.101562 360.304688 270.066406 360.214844 270.03125 C 360.117188 270.019531 360.023438 270.007812 359.925781 269.992188 C 359.910156 269.996094 359.890625 269.996094 359.875 269.996094 C 359.574219 270.007812 359.320312 270.113281 359.097656 270.316406 C 358.902344 270.5 358.800781 270.800781 358.789062 271.0625 Z M 288.320312 270.25 C 288.445312 270.222656 288.578125 270.207031 288.707031 270.1875 C 288.882812 270.148438 289.035156 270.070312 289.164062 269.953125 C 289.304688 269.859375 289.417969 269.738281 289.5 269.582031 C 289.601562 269.386719 289.65625 269.175781 289.667969 268.953125 C 289.675781 268.78125 289.640625 268.617188 289.558594 268.464844 C 289.53125 268.351562 289.472656 268.253906 289.390625 268.167969 C 289.296875 268.027344 289.175781 267.914062 289.019531 267.832031 C 288.921875 267.792969 288.816406 267.75 288.714844 267.710938 C 288.585938 267.691406 288.457031 267.671875 288.328125 267.644531 C 287.855469 267.546875 287.375 267.644531 287.023438 268.003906 C 286.785156 268.246094 286.632812 268.601562 286.632812 268.941406 C 286.632812 269.3125 286.789062 269.640625 287.035156 269.90625 C 287.363281 270.257812 287.871094 270.34375 288.320312 270.25 Z M 329.519531 284.941406 C 328.832031 284.941406 328.828125 286.003906 329.515625 286.003906 C 330.199219 286.003906 330.203125 284.941406 329.519531 284.941406 Z M 332.078125 280.132812 C 332.242188 280.003906 332.371094 279.832031 332.410156 279.617188 C 332.417969 279.558594 332.429688 279.492188 332.4375 279.429688 C 332.429688 279.351562 332.417969 279.277344 332.40625 279.199219 C 332.351562 278.902344 332.054688 278.621094 331.765625 278.558594 C 331.535156 278.507812 331.285156 278.515625 331.082031 278.648438 C 330.882812 278.777344 330.726562 278.957031 330.664062 279.195312 C 330.601562 279.417969 330.636719 279.675781 330.753906 279.875 C 331.023438 280.34375 331.652344 280.460938 332.078125 280.132812 Z M 338.761719 290.625 C 338.425781 290.65625 338.207031 290.816406 337.992188 291.066406 C 337.6875 291.421875 337.722656 291.976562 338.152344 292.21875 C 338.546875 292.445312 339.113281 292.234375 339.222656 291.769531 C 339.292969 291.460938 339.347656 291.148438 339.171875 290.863281 C 339.089844 290.726562 338.925781 290.609375 338.761719 290.625 Z M 324.804688 271.949219 C 325.566406 271.949219 326.136719 271.335938 326.171875 270.59375 C 326.191406 270.25 326.007812 269.855469 325.769531 269.617188 C 325.527344 269.378906 325.160156 269.226562 324.820312 269.226562 C 324.054688 269.226562 323.484375 269.839844 323.449219 270.582031 C 323.429688 270.925781 323.613281 271.320312 323.855469 271.558594 C 324.097656 271.796875 324.464844 271.949219 324.804688 271.949219 Z M 321.433594 279.421875 C 321.265625 279.613281 321.15625 279.824219 321.125 280.078125 C 321.089844 280.339844 321.140625 280.578125 321.257812 280.808594 C 321.316406 280.925781 321.40625 281.019531 321.503906 281.101562 C 321.660156 281.351562 321.929688 281.515625 322.253906 281.527344 C 322.476562 281.539062 322.738281 281.421875 322.894531 281.261719 C 322.949219 281.207031 322.992188 281.144531 323.03125 281.074219 C 323.117188 280.996094 323.195312 280.910156 323.257812 280.804688 C 323.402344 280.578125 323.453125 280.199219 323.371094 279.941406 C 323.292969 279.691406 323.160156 279.480469 322.949219 279.320312 C 322.746094 279.167969 322.515625 279.09375 322.265625 279.082031 C 321.984375 279.066406 321.621094 279.21875 321.433594 279.421875 Z M 348.058594 297.695312 C 348.757812 297.699219 349.253906 296.898438 348.878906 296.289062 C 348.847656 296.238281 348.816406 296.1875 348.789062 296.140625 C 348.453125 295.59375 347.675781 295.597656 347.339844 296.140625 C 347.3125 296.195312 347.28125 296.242188 347.25 296.292969 C 346.878906 296.898438 347.371094 297.691406 348.058594 297.695312 Z M 356.089844 335.285156 C 355.917969 335.410156 355.835938 335.476562 355.726562 335.652344 C 355.703125 335.6875 355.683594 335.722656 355.664062 335.757812 C 355.28125 336.410156 355.785156 337.253906 356.527344 337.257812 C 357.28125 337.261719 357.789062 336.410156 357.402344 335.757812 C 357.382812 335.722656 357.359375 335.6875 357.339844 335.652344 C 357.230469 335.46875 357.144531 335.40625 356.972656 335.285156 C 356.742188 335.121094 356.320312 335.125 356.089844 335.285156 Z M 329.617188 370.636719 C 329.59375 370.703125 329.566406 370.765625 329.539062 370.828125 C 329.523438 370.917969 329.503906 371.007812 329.488281 371.097656 C 329.429688 371.40625 329.484375 371.707031 329.714844 371.9375 C 329.871094 372.085938 330.101562 372.183594 330.316406 372.183594 C 330.554688 372.183594 330.769531 372.085938 330.9375 371.925781 C 331.164062 371.714844 331.214844 371.394531 331.160156 371.101562 C 331.140625 371.015625 331.125 370.925781 331.105469 370.835938 C 331.070312 370.644531 330.894531 370.425781 330.722656 370.335938 C 330.601562 370.273438 330.464844 370.234375 330.328125 370.230469 C 330.148438 370.222656 329.96875 370.300781 329.832031 370.40625 C 329.742188 370.464844 329.667969 370.539062 329.617188 370.636719 Z M 333.554688 360.320312 C 332.359375 360.320312 332.351562 362.171875 333.542969 362.171875 C 334.738281 362.171875 334.746094 360.320312 333.554688 360.320312 Z M 323.472656 353.105469 C 322.332031 353.105469 322.328125 354.871094 323.464844 354.871094 C 324.601562 354.871094 324.605469 353.105469 323.472656 353.105469 Z M 322.664062 360.980469 C 321.28125 360.980469 321.277344 363.121094 322.652344 363.121094 C 324.035156 363.121094 324.046875 360.980469 322.664062 360.980469 Z M 260.152344 291.34375 C 260.964844 291.34375 260.972656 290.082031 260.160156 290.082031 C 259.347656 290.082031 259.34375 291.34375 260.152344 291.34375 Z M 253.300781 288.621094 C 253.414062 288.613281 253.550781 288.621094 253.660156 288.589844 C 253.785156 288.554688 253.898438 288.429688 253.898438 288.292969 C 253.902344 288.160156 253.785156 288.035156 253.664062 288 C 253.554688 287.96875 253.417969 287.972656 253.300781 287.96875 C 253.121094 287.953125 252.984375 288.125 252.972656 288.292969 C 252.964844 288.457031 253.128906 288.632812 253.300781 288.621094 Z M 258.140625 298.621094 C 258.984375 298.621094 258.988281 297.3125 258.144531 297.3125 C 257.296875 297.3125 257.292969 298.621094 258.140625 298.621094 Z M 249.667969 325.597656 C 250.476562 325.597656 250.476562 324.347656 249.675781 324.347656 C 248.871094 324.347656 248.867188 325.597656 249.667969 325.597656 Z M 248.230469 339.351562 C 248.167969 339.230469 248.050781 339.140625 247.933594 339.074219 C 247.769531 338.972656 247.539062 338.976562 247.378906 339.074219 C 247.261719 339.144531 247.148438 339.234375 247.078125 339.351562 C 247.050781 339.402344 247.027344 339.460938 247.003906 339.511719 C 246.890625 339.757812 246.867188 340.015625 247.007812 340.257812 C 247.140625 340.484375 247.390625 340.632812 247.652344 340.632812 C 247.921875 340.636719 248.175781 340.484375 248.304688 340.253906 C 248.445312 340.011719 248.421875 339.753906 248.304688 339.507812 C 248.28125 339.453125 248.261719 339.402344 248.230469 339.351562 Z M 273.460938 337.742188 C 274.339844 337.742188 274.34375 336.382812 273.46875 336.382812 C 272.589844 336.382812 272.585938 337.742188 273.460938 337.742188 Z M 280.722656 332.445312 C 279.96875 332.445312 279.964844 333.617188 280.71875 333.617188 C 281.476562 333.617188 281.480469 332.445312 280.722656 332.445312 Z M 274.273438 325.777344 C 273.234375 325.777344 273.230469 327.390625 274.269531 327.390625 C 275.308594 327.390625 275.3125 325.777344 274.273438 325.777344 Z M 272.25 317.777344 C 272.851562 317.777344 272.855469 316.847656 272.257812 316.847656 C 271.65625 316.847656 271.652344 317.777344 272.25 317.777344 Z M 281.933594 306.65625 C 281.1875 306.65625 281.183594 307.816406 281.929688 307.816406 C 282.675781 307.816406 282.683594 306.65625 281.933594 306.65625 Z M 280.316406 320.730469 C 281.089844 320.730469 281.09375 319.535156 280.320312 319.535156 C 279.550781 319.535156 279.546875 320.730469 280.316406 320.730469 Z M 275.476562 312.261719 C 276.242188 312.261719 276.246094 311.078125 275.484375 311.078125 C 274.71875 311.078125 274.714844 312.261719 275.476562 312.261719 Z M 274.265625 303.3125 C 275.445312 303.3125 275.453125 301.484375 274.277344 301.484375 C 273.097656 301.484375 273.089844 303.3125 274.265625 303.3125 Z M 289.195312 314.234375 C 288.339844 314.234375 288.335938 315.558594 289.1875 315.558594 C 290.042969 315.558594 290.046875 314.234375 289.195312 314.234375 Z M 339.671875 212.054688 C 340.128906 212.03125 340.542969 211.667969 340.527344 211.1875 C 340.523438 210.957031 340.550781 210.679688 340.472656 210.460938 C 340.40625 210.285156 340.324219 210.144531 340.171875 210.023438 C 340.03125 209.914062 339.847656 209.832031 339.660156 209.84375 C 339.515625 209.851562 339.378906 209.890625 339.25 209.953125 C 339.046875 210.058594 338.929688 210.261719 338.855469 210.46875 C 338.78125 210.683594 338.808594 210.96875 338.804688 211.195312 C 338.792969 211.648438 339.214844 212.074219 339.671875 212.054688 Z M 362.050781 249.375 C 362.421875 249.359375 362.757812 249.066406 362.746094 248.675781 C 362.738281 248.398438 362.761719 248.089844 362.605469 247.847656 C 362.335938 247.433594 361.765625 247.425781 361.492188 247.84375 C 361.332031 248.09375 361.355469 248.398438 361.347656 248.679688 C 361.335938 249.046875 361.683594 249.394531 362.050781 249.375 Z M 320.742188 228.140625 C 320.816406 228.21875 320.898438 228.28125 320.988281 228.328125 C 320.992188 228.328125 320.992188 228.332031 320.996094 228.335938 C 320.996094 228.335938 320.992188 228.332031 320.992188 228.332031 C 320.996094 228.335938 321 228.339844 321.003906 228.339844 C 321.003906 228.339844 321.003906 228.339844 321.007812 228.34375 C 321.152344 228.429688 321.304688 228.480469 321.46875 228.488281 C 321.726562 228.519531 322.007812 228.488281 322.234375 228.347656 C 322.414062 228.234375 322.601562 228.078125 322.699219 227.886719 C 322.707031 227.871094 322.710938 227.855469 322.71875 227.839844 C 322.742188 227.804688 322.761719 227.773438 322.785156 227.742188 C 322.921875 227.554688 322.953125 227.199219 322.882812 226.984375 C 322.828125 226.796875 322.722656 226.605469 322.570312 226.472656 C 322.515625 226.410156 322.453125 226.355469 322.378906 226.308594 C 322.257812 226.195312 322.109375 226.117188 321.945312 226.078125 C 321.628906 226.011719 321.308594 226.042969 321.023438 226.203125 C 321.019531 226.207031 321.015625 226.207031 321.015625 226.207031 C 320.929688 226.273438 320.84375 226.335938 320.757812 226.402344 C 320.632812 226.519531 320.542969 226.65625 320.492188 226.8125 C 320.4375 226.910156 320.410156 227.015625 320.410156 227.125 C 320.378906 227.285156 320.386719 227.4375 320.433594 227.597656 C 320.503906 227.816406 320.578125 227.972656 320.742188 228.140625 Z M 184.644531 360.457031 C 184.503906 360.375 184.351562 360.335938 184.191406 360.335938 C 183.851562 360.335938 183.609375 360.523438 183.421875 360.785156 C 183.222656 361.0625 183.242188 361.421875 183.226562 361.75 C 183.203125 362.257812 183.695312 362.738281 184.203125 362.710938 C 184.449219 362.699219 184.707031 362.621094 184.878906 362.433594 C 185.050781 362.25 185.179688 362 185.164062 361.738281 C 185.152344 361.414062 185.171875 361.0625 184.976562 360.789062 C 184.894531 360.648438 184.785156 360.535156 184.644531 360.457031 Z M 89.5 340.445312 C 89.476562 340.453125 89.449219 340.460938 89.421875 340.472656 C 89.265625 340.527344 89.148438 340.601562 89.015625 340.703125 C 88.960938 340.746094 88.902344 340.789062 88.847656 340.832031 C 88.742188 340.917969 88.648438 341.019531 88.550781 341.109375 C 88.183594 341.449219 88.167969 342.117188 88.539062 342.460938 C 88.910156 342.804688 89.527344 342.863281 89.894531 342.472656 C 89.988281 342.375 90.082031 342.28125 90.171875 342.175781 C 90.253906 342.074219 90.328125 341.96875 90.40625 341.867188 C 90.488281 341.761719 90.535156 341.632812 90.570312 341.507812 C 90.757812 340.886719 90.117188 340.257812 89.5 340.445312 Z M 17.242188 337.917969 C 18.480469 337.917969 18.476562 335.988281 17.230469 335.988281 C 15.992188 335.988281 15.996094 337.917969 17.242188 337.917969 Z M 20.859375 366.296875 C 19.71875 366.296875 19.722656 368.074219 20.867188 368.074219 C 22.011719 368.074219 22.003906 366.296875 20.859375 366.296875 Z M 35.378906 347.761719 C 34.996094 347.78125 34.644531 348.089844 34.660156 348.492188 C 34.664062 348.679688 34.671875 348.863281 34.675781 349.050781 C 34.691406 349.417969 35 349.769531 35.386719 349.75 C 35.78125 349.734375 36.078125 349.4375 36.089844 349.042969 C 36.09375 348.855469 36.101562 348.667969 36.105469 348.484375 C 36.121094 348.105469 35.761719 347.746094 35.378906 347.761719 Z M 44.574219 346.503906 C 44.824219 346.738281 45.160156 346.761719 45.4375 346.59375 C 45.515625 346.601562 45.59375 346.613281 45.671875 346.621094 C 45.96875 346.632812 46.308594 346.476562 46.511719 346.277344 C 46.734375 346.058594 46.871094 345.722656 46.871094 345.410156 C 46.867188 345.121094 46.738281 344.773438 46.523438 344.574219 C 46.292969 344.359375 45.984375 344.199219 45.660156 344.214844 C 45.355469 344.230469 45.035156 344.332031 44.820312 344.5625 C 44.636719 344.761719 44.519531 344.992188 44.484375 345.273438 C 44.453125 345.398438 44.457031 345.53125 44.488281 345.664062 C 44.335938 345.929688 44.332031 346.28125 44.574219 346.503906 Z M 41.675781 355.261719 C 41.664062 355.320312 41.652344 355.375 41.640625 355.4375 C 41.578125 355.785156 41.628906 356.164062 41.90625 356.421875 C 42.109375 356.609375 42.363281 356.734375 42.648438 356.730469 C 42.90625 356.730469 43.183594 356.617188 43.371094 356.429688 C 43.648438 356.15625 43.707031 355.800781 43.640625 355.429688 C 43.628906 355.371094 43.617188 355.3125 43.609375 355.25 C 43.566406 355.042969 43.472656 354.890625 43.34375 354.726562 C 43.171875 354.515625 42.914062 354.378906 42.636719 354.378906 C 42.371094 354.382812 42.117188 354.511719 41.953125 354.71875 C 41.8125 354.890625 41.714844 355.039062 41.675781 355.261719 Z M 67.164062 39.664062 C 67.347656 39.855469 67.734375 39.933594 67.976562 39.828125 C 68.15625 39.746094 68.273438 39.683594 68.402344 39.535156 C 68.472656 39.453125 68.550781 39.355469 68.59375 39.261719 C 68.664062 39.113281 68.703125 38.921875 68.75 38.761719 C 68.8125 38.542969 68.730469 38.234375 68.609375 38.050781 C 68.472656 37.851562 68.226562 37.671875 67.984375 37.636719 C 67.742188 37.601562 67.476562 37.628906 67.269531 37.777344 C 67.070312 37.921875 66.882812 38.144531 66.855469 38.402344 C 66.835938 38.5625 66.800781 38.753906 66.8125 38.917969 C 66.820312 39.023438 66.847656 39.128906 66.882812 39.230469 C 66.945312 39.417969 67.03125 39.523438 67.164062 39.664062 Z M 57.472656 23.117188 C 57.585938 23.21875 57.722656 23.28125 57.871094 23.3125 C 58.011719 23.335938 58.15625 23.328125 58.296875 23.28125 C 58.582031 23.1875 58.800781 22.9375 58.859375 22.640625 C 58.914062 22.351562 58.808594 22.042969 58.582031 21.847656 C 58.46875 21.75 58.335938 21.679688 58.1875 21.65625 C 58.042969 21.625 57.898438 21.636719 57.757812 21.679688 C 57.648438 21.703125 57.53125 21.71875 57.425781 21.769531 C 57.210938 21.871094 56.972656 22.003906 56.933594 22.269531 C 56.898438 22.527344 57.019531 22.710938 57.183594 22.894531 C 57.269531 22.988281 57.371094 23.046875 57.472656 23.117188 Z M 92.703125 16.742188 C 92.84375 16.890625 93.042969 16.996094 93.308594 17.027344 C 93.335938 17.03125 93.367188 17.035156 93.402344 17.039062 C 94.167969 17.136719 94.585938 16.667969 94.667969 16.140625 C 94.796875 15.621094 94.585938 15.03125 93.824219 14.824219 C 93.792969 14.816406 93.761719 14.808594 93.734375 14.800781 C 93.476562 14.730469 93.253906 14.753906 93.066406 14.84375 C 92.167969 14.953125 91.917969 16.300781 92.703125 16.742188 Z M 99.476562 7.457031 C 99.441406 7.726562 99.5 7.984375 99.683594 8.226562 C 99.953125 8.574219 100.421875 8.664062 100.761719 8.363281 C 101.085938 8.082031 101.066406 7.578125 100.890625 7.21875 C 100.867188 7.148438 100.832031 7.09375 100.78125 7.050781 C 100.773438 7.042969 100.773438 7.039062 100.765625 7.03125 C 100.765625 7.023438 100.761719 7.019531 100.757812 7.007812 C 100.746094 6.976562 100.738281 6.949219 100.726562 6.917969 C 100.683594 6.777344 100.636719 6.640625 100.589844 6.507812 C 100.480469 6.175781 100.101562 5.988281 99.777344 6.101562 C 99.417969 6.222656 99.296875 6.574219 99.371094 6.914062 C 99.410156 7.089844 99.464844 7.273438 99.476562 7.457031 Z M 52.5625 2.027344 C 52.761719 2.132812 53.082031 2.152344 53.292969 2.074219 C 53.351562 2.050781 53.402344 2.023438 53.453125 1.992188 C 53.832031 2.035156 54.242188 1.8125 54.300781 1.410156 C 54.363281 0.996094 54.121094 0.660156 53.730469 0.554688 C 53.566406 0.347656 53.332031 0.210938 53.042969 0.195312 C 52.828125 0.179688 52.632812 0.230469 52.449219 0.34375 C 52.25 0.460938 52.066406 0.738281 52.03125 0.972656 C 51.964844 1.414062 52.167969 1.816406 52.5625 2.027344 Z M 0.945312 33.449219 C 1.492188 33.742188 2.175781 33.546875 2.476562 33 C 2.773438 32.453125 2.570312 31.769531 2.023438 31.472656 C 1.476562 31.171875 0.792969 31.375 0.496094 31.921875 C 0.199219 32.46875 0.398438 33.152344 0.945312 33.449219 Z M 82.1875 27.4375 C 82.800781 27.347656 83.21875 26.769531 83.125 26.15625 C 83.035156 25.539062 82.457031 25.121094 81.84375 25.214844 C 81.226562 25.304688 80.804688 25.882812 80.898438 26.5 C 80.992188 27.113281 81.570312 27.53125 82.1875 27.4375 Z M 20.027344 32.792969 C 20.574219 33.089844 21.257812 32.886719 21.554688 32.339844 C 21.855469 31.796875 21.65625 31.113281 21.105469 30.8125 C 20.5625 30.515625 19.878906 30.71875 19.578125 31.261719 C 19.277344 31.808594 19.480469 32.492188 20.027344 32.792969 Z M 96.164062 46.558594 C 96.660156 46.484375 97 46.023438 96.921875 45.527344 C 96.847656 45.03125 96.386719 44.691406 95.890625 44.769531 C 95.398438 44.84375 95.058594 45.308594 95.132812 45.800781 C 95.210938 46.296875 95.671875 46.632812 96.164062 46.558594 Z M 29.214844 29.03125 C 29.523438 29.089844 29.820312 28.890625 29.878906 28.585938 C 29.9375 28.28125 29.742188 27.984375 29.4375 27.925781 C 29.128906 27.867188 28.832031 28.066406 28.773438 28.367188 C 28.714844 28.675781 28.914062 28.96875 29.214844 29.03125 Z M 11.578125 174.476562 C 11.671875 174.53125 11.777344 174.585938 11.878906 174.613281 C 12.039062 174.652344 12.234375 174.652344 12.402344 174.667969 C 12.628906 174.6875 12.914062 174.542969 13.074219 174.390625 C 13.242188 174.222656 13.371094 173.941406 13.359375 173.699219 C 13.347656 173.453125 13.265625 173.199219 13.082031 173.027344 C 12.902344 172.859375 12.648438 172.714844 12.390625 172.738281 C 12.226562 172.753906 12.03125 172.753906 11.875 172.796875 C 11.773438 172.824219 11.671875 172.875 11.578125 172.925781 C 11.410156 173.027344 11.324219 173.128906 11.207031 173.285156 C 11.054688 173.503906 11.054688 173.898438 11.207031 174.117188 C 11.320312 174.273438 11.40625 174.375 11.578125 174.476562 Z M 26.3125 161.851562 C 26.613281 161.847656 26.894531 161.683594 27.039062 161.429688 C 27.117188 161.296875 27.152344 161.152344 27.152344 161 C 27.152344 160.855469 27.113281 160.714844 27.042969 160.585938 C 27 160.480469 26.964844 160.371094 26.894531 160.277344 C 26.753906 160.089844 26.570312 159.878906 26.304688 159.890625 C 26.046875 159.902344 25.886719 160.0625 25.742188 160.257812 C 25.664062 160.359375 25.625 160.46875 25.578125 160.582031 C 25.5 160.714844 25.464844 160.859375 25.464844 161.011719 C 25.464844 161.15625 25.503906 161.296875 25.574219 161.425781 C 25.722656 161.683594 26.011719 161.851562 26.3125 161.851562 Z M 39.621094 195.710938 C 40.152344 195.734375 40.6875 195.417969 40.746094 194.628906 C 40.746094 194.597656 40.75 194.566406 40.753906 194.535156 C 40.769531 194.269531 40.703125 194.054688 40.582031 193.886719 C 40.300781 193.03125 38.929688 193.042969 38.648438 193.898438 C 38.527344 194.066406 38.464844 194.28125 38.480469 194.546875 C 38.484375 194.578125 38.488281 194.609375 38.492188 194.640625 C 38.542969 195.414062 39.085938 195.730469 39.621094 195.710938 Z M 48.425781 200.179688 C 48.769531 200.445312 49.261719 200.332031 49.582031 200.089844 C 49.640625 200.054688 49.6875 200.007812 49.722656 199.949219 C 49.730469 199.941406 49.734375 199.9375 49.738281 199.929688 C 49.746094 199.925781 49.75 199.921875 49.757812 199.917969 C 49.785156 199.902344 49.8125 199.886719 49.839844 199.867188 C 49.96875 199.796875 50.09375 199.726562 50.21875 199.65625 C 50.523438 199.484375 50.632812 199.078125 50.460938 198.777344 C 50.273438 198.453125 49.902344 198.398438 49.582031 198.539062 C 49.417969 198.613281 49.246094 198.699219 49.070312 198.746094 C 48.800781 198.765625 48.558594 198.871094 48.355469 199.101562 C 48.070312 199.429688 48.070312 199.90625 48.425781 200.179688 Z M 55.269531 191.304688 C 55.558594 191.570312 55.945312 191.664062 56.3125 191.511719 C 56.652344 191.371094 56.929688 191.011719 56.910156 190.628906 C 56.894531 190.296875 56.722656 189.972656 56.429688 189.804688 C 56.054688 189.589844 55.589844 189.667969 55.277344 189.949219 C 55.070312 190.140625 54.816406 190.320312 54.816406 190.636719 C 54.820312 190.945312 55.0625 191.117188 55.269531 191.304688 Z M 66.945312 187.105469 C 67.035156 187.28125 67.207031 187.40625 67.382812 187.480469 C 67.398438 187.484375 67.417969 187.488281 67.429688 187.492188 C 67.453125 187.515625 67.472656 187.535156 67.492188 187.554688 C 67.789062 187.839844 68.308594 187.875 68.597656 187.5625 C 68.890625 187.246094 68.910156 186.773438 68.605469 186.457031 C 68.585938 186.4375 68.5625 186.414062 68.542969 186.390625 C 68.535156 186.371094 68.53125 186.355469 68.523438 186.335938 C 68.449219 186.164062 68.324219 185.996094 68.15625 185.90625 C 68.113281 185.886719 68.074219 185.863281 68.03125 185.84375 C 67.878906 185.769531 67.746094 185.742188 67.574219 185.730469 C 67.15625 185.699219 66.742188 186.125 66.769531 186.539062 C 66.78125 186.703125 66.8125 186.832031 66.882812 186.984375 C 66.90625 187.027344 66.925781 187.066406 66.945312 187.105469 Z M 85.5 116.4375 C 85.585938 116.746094 85.859375 116.988281 86.203125 116.988281 C 86.542969 116.988281 86.804688 116.75 86.890625 116.441406 C 86.96875 116.371094 87.035156 116.289062 87.074219 116.210938 C 87.207031 115.957031 87.214844 115.726562 87.175781 115.445312 C 87.132812 115.113281 87.015625 114.902344 86.808594 114.640625 C 86.539062 114.308594 85.867188 114.296875 85.597656 114.632812 C 85.382812 114.902344 85.261719 115.113281 85.214844 115.449219 C 85.179688 115.710938 85.171875 115.96875 85.320312 116.207031 C 85.367188 116.285156 85.429688 116.363281 85.5 116.4375 Z M 108.988281 21.945312 C 109.003906 22.15625 109.070312 22.351562 109.21875 22.503906 C 109.359375 22.644531 109.589844 22.75 109.796875 22.742188 C 110.25 22.71875 110.5625 22.386719 110.589844 21.9375 C 110.589844 21.9375 110.589844 21.933594 110.589844 21.933594 C 110.714844 21.761719 110.800781 21.535156 110.792969 21.332031 C 110.769531 20.828125 110.425781 20.417969 109.914062 20.351562 C 109.691406 20.324219 109.492188 20.367188 109.296875 20.464844 C 109.078125 20.578125 108.871094 20.847656 108.820312 21.085938 C 108.757812 21.378906 108.820312 21.695312 108.988281 21.929688 C 108.988281 21.933594 108.988281 21.941406 108.988281 21.945312 Z M 57.039062 125.902344 L 57.042969 125.941406 C 57.058594 126.320312 57.367188 126.679688 57.769531 126.664062 C 58.179688 126.644531 58.46875 126.339844 58.488281 125.933594 C 58.488281 125.929688 58.488281 125.925781 58.488281 125.921875 C 58.621094 125.761719 58.699219 125.527344 58.695312 125.328125 C 58.695312 124.839844 58.265625 124.375 57.761719 124.402344 C 57.273438 124.425781 56.808594 124.816406 56.832031 125.335938 C 56.84375 125.542969 56.902344 125.726562 57.027344 125.890625 C 57.03125 125.894531 57.035156 125.898438 57.039062 125.902344 Z M 46.265625 150.964844 C 45.820312 150.988281 45.464844 151.265625 45.332031 151.695312 C 45.265625 151.910156 45.308594 152.226562 45.429688 152.417969 C 45.460938 152.46875 45.496094 152.515625 45.539062 152.558594 C 45.570312 152.9375 45.867188 153.296875 46.273438 153.277344 C 46.691406 153.257812 46.972656 152.957031 47.007812 152.554688 C 47.179688 152.351562 47.265625 152.09375 47.226562 151.808594 C 47.199219 151.59375 47.109375 151.417969 46.964844 151.253906 C 46.808594 151.082031 46.5 150.953125 46.265625 150.964844 Z M 269.734375 219.265625 C 269.863281 219.550781 270.273438 219.625 270.527344 219.480469 C 270.789062 219.328125 270.90625 218.957031 270.742188 218.6875 C 270.597656 218.460938 270.472656 218.210938 270.296875 218.011719 C 270.222656 217.929688 270.15625 217.839844 270.085938 217.757812 C 269.996094 217.652344 269.875 217.585938 269.761719 217.515625 C 269.558594 217.378906 269.304688 217.5625 269.300781 217.78125 C 269.289062 218.3125 269.523438 218.789062 269.734375 219.265625 Z M 277.355469 231.949219 C 276.835938 231.949219 276.835938 232.753906 277.359375 232.753906 C 277.878906 232.753906 277.875 231.949219 277.355469 231.949219 Z M 289.699219 223.886719 L 289.675781 223.515625 C 289.671875 223.375 289.664062 223.28125 289.5625 223.175781 C 289.507812 223.121094 289.40625 223.117188 289.351562 223.175781 C 289.246094 223.28125 289.242188 223.378906 289.234375 223.519531 C 289.222656 223.640625 289.214844 223.765625 289.210938 223.890625 C 289.1875 224.203125 289.722656 224.203125 289.699219 223.886719 Z M 280.992188 214.722656 C 281.644531 214.722656 281.640625 213.703125 280.984375 213.703125 C 280.328125 213.703125 280.328125 214.722656 280.992188 214.722656 Z M 268.890625 200.878906 C 269.628906 200.878906 269.625 199.734375 268.882812 199.734375 C 268.148438 199.734375 268.148438 200.878906 268.890625 200.878906 Z M 262.746094 163.511719 C 262.902344 163.53125 263.074219 163.511719 263.210938 163.425781 C 263.367188 163.328125 263.539062 163.15625 263.5625 162.960938 C 263.574219 162.882812 263.585938 162.804688 263.597656 162.722656 C 263.585938 162.644531 263.574219 162.566406 263.5625 162.484375 C 263.554688 162.441406 263.546875 162.398438 263.539062 162.355469 C 263.519531 162.25 263.503906 162.148438 263.480469 162.042969 C 263.433594 161.765625 263.109375 161.535156 262.832031 161.546875 C 262.554688 161.5625 262.242188 161.75 262.191406 162.046875 C 262.175781 162.144531 262.160156 162.242188 262.140625 162.335938 C 262.117188 162.476562 262.070312 162.636719 262.089844 162.777344 C 262.113281 162.972656 262.152344 163.160156 262.304688 163.300781 C 262.429688 163.417969 262.574219 163.492188 262.746094 163.511719 Z M 273.839844 169.617188 C 273.910156 169.832031 274.09375 170.003906 274.335938 169.992188 C 274.574219 169.980469 274.757812 169.835938 274.824219 169.625 C 274.945312 169.550781 275.054688 169.457031 275.125 169.320312 C 275.21875 169.140625 275.257812 168.949219 275.230469 168.746094 C 275.171875 168.3125 274.78125 167.929688 274.328125 167.953125 C 273.90625 167.976562 273.570312 168.230469 273.449219 168.636719 C 273.386719 168.839844 273.425781 169.136719 273.539062 169.320312 C 273.617188 169.449219 273.722656 169.542969 273.839844 169.617188 Z M 278.570312 162.449219 C 279.648438 162.449219 279.644531 160.773438 278.5625 160.773438 C 277.484375 160.773438 277.488281 162.449219 278.570312 162.449219 Z M 265.867188 170.898438 C 266.929688 170.898438 266.921875 169.25 265.859375 169.25 C 264.796875 169.25 264.800781 170.898438 265.867188 170.898438 Z M 254.375 166.214844 C 255.632812 166.214844 255.625 164.261719 254.367188 164.261719 C 253.109375 164.261719 253.113281 166.214844 254.375 166.214844 Z M 254.320312 156.949219 C 254.164062 157.175781 254.160156 157.578125 254.320312 157.804688 C 254.464844 158.011719 254.644531 158.207031 254.910156 158.25 C 254.976562 158.261719 255.042969 158.265625 255.113281 158.277344 C 255.273438 158.316406 255.429688 158.316406 255.585938 158.277344 C 255.660156 158.242188 255.734375 158.214844 255.808594 158.183594 C 256.066406 158.050781 256.226562 157.773438 256.261719 157.492188 C 256.292969 157.246094 256.234375 157.023438 256.082031 156.824219 C 255.917969 156.609375 255.625 156.414062 255.34375 156.449219 C 255.261719 156.460938 255.1875 156.46875 255.109375 156.480469 C 254.949219 156.5 254.8125 156.527344 254.667969 156.597656 C 254.515625 156.675781 254.414062 156.8125 254.320312 156.949219 Z M 263.800781 158.441406 C 263.847656 158.421875 263.917969 158.410156 264.003906 158.375 C 264.121094 158.40625 264.253906 158.414062 264.347656 158.417969 C 264.355469 158.417969 264.355469 158.417969 264.363281 158.417969 C 264.433594 158.441406 264.503906 158.460938 264.574219 158.476562 C 264.707031 158.511719 264.828125 158.527344 264.949219 158.519531 C 265.445312 158.824219 266.078125 158.398438 265.957031 157.785156 C 265.933594 157.675781 265.898438 157.574219 265.851562 157.476562 C 265.699219 156.644531 264.5625 156.316406 263.851562 156.71875 C 263.773438 156.765625 263.691406 156.839844 263.625 156.90625 C 263.574219 156.957031 263.386719 157.15625 263.546875 157.011719 C 263.453125 157.097656 263.371094 157.171875 263.292969 157.277344 C 263.101562 157.53125 263.027344 157.84375 263.109375 158.15625 C 263.195312 158.464844 263.53125 158.574219 263.800781 158.441406 Z M 290.746094 122.617188 C 290.800781 122.640625 290.855469 122.660156 290.910156 122.683594 C 291 122.78125 291.125 122.839844 291.273438 122.832031 C 291.417969 122.824219 291.535156 122.773438 291.625 122.6875 C 291.761719 122.628906 291.890625 122.5625 292.011719 122.453125 C 292.207031 122.277344 292.324219 121.960938 292.324219 121.699219 C 292.320312 121.4375 292.207031 121.15625 292.019531 120.964844 C 291.835938 120.78125 291.53125 120.640625 291.265625 120.652344 C 291 120.664062 290.71875 120.757812 290.53125 120.957031 C 290.34375 121.160156 290.203125 121.429688 290.21875 121.710938 C 290.230469 121.941406 290.296875 122.148438 290.441406 122.332031 C 290.511719 122.453125 290.617188 122.550781 290.746094 122.617188 Z M 301.125 106.855469 C 301.324219 106.523438 301.277344 106.203125 301.222656 105.84375 C 301.195312 105.773438 301.164062 105.699219 301.136719 105.625 C 301.078125 105.519531 300.996094 105.429688 300.894531 105.367188 C 300.742188 105.246094 300.542969 105.160156 300.339844 105.167969 C 300.183594 105.175781 300.035156 105.21875 299.894531 105.285156 C 299.707031 105.382812 299.496094 105.636719 299.464844 105.847656 C 299.410156 106.199219 299.371094 106.527344 299.558594 106.851562 C 299.90625 107.445312 300.777344 107.453125 301.125 106.855469 Z M 337.660156 229.023438 C 337.671875 229.125 337.6875 229.230469 337.699219 229.335938 C 337.722656 229.527344 337.765625 229.71875 337.917969 229.859375 C 338.042969 229.976562 338.1875 230.050781 338.363281 230.074219 C 338.519531 230.089844 338.691406 230.074219 338.828125 229.984375 C 338.988281 229.886719 339.164062 229.71875 339.1875 229.519531 C 339.210938 229.347656 339.210938 229.148438 339.265625 228.980469 C 339.421875 228.460938 338.972656 227.933594 338.449219 227.933594 C 337.925781 227.9375 337.492188 228.46875 337.648438 228.988281 C 337.652344 229 337.652344 229.011719 337.660156 229.023438 Z M 338.460938 258.027344 C 338.964844 258 339.304688 257.632812 339.335938 257.136719 C 339.359375 256.761719 339.328125 256.34375 339.121094 256.023438 C 339.054688 255.851562 338.988281 255.699219 338.855469 255.539062 C 338.679688 255.324219 338.238281 255.316406 338.058594 255.535156 C 337.925781 255.699219 337.855469 255.855469 337.785156 256.03125 C 337.582031 256.355469 337.550781 256.765625 337.574219 257.144531 C 337.605469 257.605469 337.964844 258.050781 338.460938 258.027344 Z M 362.65625 121.441406 C 363.871094 121.441406 363.867188 119.550781 362.648438 119.550781 C 361.433594 119.550781 361.4375 121.441406 362.65625 121.441406 Z M 373.546875 123.292969 C 374.808594 123.292969 374.804688 121.328125 373.535156 121.328125 C 372.269531 121.328125 372.277344 123.292969 373.546875 123.292969 Z M 371.730469 102.457031 C 371.789062 102.46875 371.847656 102.476562 371.90625 102.484375 C 372.167969 102.523438 372.441406 102.5 372.628906 102.292969 C 372.769531 102.144531 372.859375 101.957031 372.855469 101.75 C 372.855469 101.558594 372.773438 101.359375 372.636719 101.21875 C 372.429688 101.011719 372.175781 100.980469 371.902344 101.023438 C 371.84375 101.03125 371.78125 101.035156 371.722656 101.046875 C 371.566406 101.078125 371.453125 101.152344 371.335938 101.261719 C 371.070312 101.503906 371.058594 101.992188 371.324219 102.238281 C 371.449219 102.351562 371.566406 102.425781 371.730469 102.457031 Z M 346.324219 30.609375 C 347.359375 30.609375 347.355469 28.996094 346.316406 28.996094 C 345.277344 28.996094 345.28125 30.609375 346.324219 30.609375 Z M 350.324219 24.03125 C 350.519531 24.140625 350.679688 24.164062 350.890625 24.195312 C 351.070312 24.242188 351.253906 24.242188 351.4375 24.191406 C 351.621094 24.140625 351.78125 24.050781 351.914062 23.917969 C 352.113281 23.707031 352.238281 23.441406 352.238281 23.144531 C 352.234375 22.875 352.117188 22.585938 351.925781 22.394531 C 351.785156 22.253906 351.621094 22.160156 351.429688 22.109375 C 351.246094 22.0625 351.066406 22.0625 350.878906 22.109375 C 350.679688 22.136719 350.519531 22.160156 350.332031 22.269531 C 350.007812 22.460938 349.765625 22.761719 349.769531 23.15625 C 349.773438 23.539062 350.007812 23.84375 350.324219 24.03125 Z M 352.371094 34.59375 C 353.09375 34.59375 353.089844 33.476562 352.363281 33.476562 C 351.644531 33.476562 351.648438 34.59375 352.371094 34.59375 Z M 364.066406 20.484375 C 364.085938 20.472656 364.105469 20.460938 364.125 20.445312 C 364.453125 20.503906 364.851562 20.269531 364.90625 19.933594 C 364.929688 19.796875 364.957031 19.660156 364.953125 19.519531 C 364.941406 19.25 364.734375 19.050781 364.464844 19.039062 C 364.324219 19.03125 364.1875 19.0625 364.050781 19.082031 C 363.890625 19.109375 363.699219 19.269531 363.628906 19.410156 C 363.554688 19.546875 363.515625 19.710938 363.546875 19.867188 C 363.53125 19.882812 363.519531 19.90625 363.507812 19.921875 C 363.292969 20.261719 363.726562 20.699219 364.066406 20.484375 Z M 160.636719 297.890625 C 161.230469 298.078125 161.863281 297.75 162.050781 297.15625 C 162.238281 296.5625 161.90625 295.929688 161.316406 295.746094 C 160.722656 295.558594 160.085938 295.886719 159.898438 296.480469 C 159.714844 297.074219 160.042969 297.703125 160.636719 297.890625 Z M 255.714844 255.730469 C 255.898438 255.136719 255.570312 254.503906 254.976562 254.320312 C 254.382812 254.132812 253.75 254.460938 253.5625 255.054688 C 253.375 255.648438 253.707031 256.277344 254.296875 256.464844 C 254.890625 256.652344 255.527344 256.324219 255.714844 255.730469 Z M 258.070312 210.519531 C 258.367188 210.613281 258.683594 210.445312 258.777344 210.152344 C 258.871094 209.855469 258.707031 209.539062 258.40625 209.445312 C 258.113281 209.351562 257.796875 209.519531 257.703125 209.8125 C 257.609375 210.109375 257.773438 210.425781 258.070312 210.519531 Z M 326.042969 179.03125 C 325.855469 179.625 326.1875 180.257812 326.78125 180.445312 C 327.375 180.632812 328.007812 180.300781 328.195312 179.707031 C 328.378906 179.113281 328.050781 178.480469 327.457031 178.292969 C 326.863281 178.105469 326.230469 178.4375 326.042969 179.03125 Z M 325.371094 171.617188 C 325.960938 171.800781 326.597656 171.472656 326.78125 170.878906 C 326.96875 170.285156 326.640625 169.652344 326.042969 169.464844 C 325.449219 169.28125 324.820312 169.609375 324.632812 170.203125 C 324.445312 170.796875 324.777344 171.429688 325.371094 171.617188 Z M 358.359375 59.296875 C 358.953125 59.484375 359.585938 59.15625 359.773438 58.5625 C 359.957031 57.96875 359.628906 57.335938 359.035156 57.148438 C 358.441406 56.964844 357.808594 57.292969 357.625 57.886719 C 357.433594 58.480469 357.765625 59.109375 358.359375 59.296875 Z M 158.03125 255.171875 C 158.65625 255.183594 159.167969 254.6875 159.179688 254.066406 C 159.191406 253.445312 158.695312 252.929688 158.074219 252.917969 C 157.449219 252.90625 156.9375 253.402344 156.925781 254.023438 C 156.914062 254.644531 157.410156 255.160156 158.03125 255.171875 Z M 147.457031 268.152344 C 147.769531 268.15625 148.027344 267.910156 148.03125 267.597656 C 148.039062 267.285156 147.789062 267.03125 147.480469 267.027344 C 147.167969 267.019531 146.910156 267.265625 146.90625 267.578125 C 146.902344 267.886719 147.148438 268.144531 147.457031 268.152344 Z M 163.421875 183.84375 C 164.324219 183.578125 164.84375 182.632812 164.578125 181.730469 C 164.3125 180.828125 163.363281 180.3125 162.460938 180.574219 C 161.558594 180.839844 161.039062 181.789062 161.304688 182.691406 C 161.570312 183.59375 162.519531 184.109375 163.421875 183.84375 Z M 162.773438 257.816406 C 162.175781 257.992188 161.835938 258.617188 162.011719 259.214844 C 162.1875 259.8125 162.8125 260.152344 163.410156 259.972656 C 164.007812 259.800781 164.347656 259.175781 164.171875 258.578125 C 163.996094 257.980469 163.371094 257.636719 162.773438 257.816406 Z M 174.273438 164.105469 C 174.871094 163.929688 175.214844 163.300781 175.039062 162.703125 C 174.863281 162.109375 174.234375 161.765625 173.636719 161.941406 C 173.042969 162.117188 172.699219 162.742188 172.875 163.34375 C 173.050781 163.9375 173.679688 164.28125 174.273438 164.105469 Z M 188.417969 222.511719 C 189.015625 222.335938 189.355469 221.710938 189.183594 221.113281 C 189.007812 220.515625 188.378906 220.175781 187.78125 220.355469 C 187.183594 220.527344 186.84375 221.152344 187.019531 221.75 C 187.195312 222.347656 187.824219 222.6875 188.417969 222.511719 Z M 182.550781 216.832031 C 182.851562 216.746094 183.019531 216.433594 182.933594 216.132812 C 182.84375 215.835938 182.53125 215.664062 182.234375 215.753906 C 181.933594 215.839844 181.761719 216.152344 181.851562 216.449219 C 181.9375 216.75 182.25 216.921875 182.550781 216.832031 Z M 158.390625 207.214844 C 158.984375 207.039062 159.328125 206.410156 159.152344 205.8125 C 158.972656 205.21875 158.347656 204.875 157.75 205.050781 C 157.15625 205.226562 156.8125 205.855469 156.988281 206.449219 C 157.164062 207.046875 157.789062 207.386719 158.390625 207.214844 Z M 224.539062 34.3125 C 225.132812 34.5 225.765625 34.171875 225.953125 33.578125 C 226.140625 32.984375 225.808594 32.351562 225.214844 32.167969 C 224.621094 31.980469 223.988281 32.304688 223.800781 32.902344 C 223.613281 33.496094 223.945312 34.125 224.539062 34.3125 Z M 183.988281 2.941406 C 184.496094 3.105469 185.039062 2.820312 185.195312 2.316406 C 185.355469 1.808594 185.070312 1.269531 184.566406 1.109375 C 184.0625 0.949219 183.519531 1.230469 183.359375 1.738281 C 183.203125 2.246094 183.480469 2.785156 183.988281 2.941406 Z M 214.699219 19.800781 C 214.996094 19.894531 215.3125 19.734375 215.40625 19.433594 C 215.5 19.140625 215.335938 18.824219 215.039062 18.730469 C 214.742188 18.636719 214.425781 18.800781 214.332031 19.097656 C 214.238281 19.394531 214.402344 19.710938 214.699219 19.800781 Z M 130.589844 32.640625 C 131.183594 32.828125 131.816406 32.496094 132 31.902344 C 132.1875 31.308594 131.859375 30.675781 131.265625 30.488281 C 130.671875 30.300781 130.039062 30.632812 129.851562 31.226562 C 129.664062 31.820312 129.996094 32.453125 130.589844 32.640625 Z M 35.253906 46.222656 C 36.148438 46.503906 37.105469 46.003906 37.390625 45.109375 C 37.671875 44.210938 37.171875 43.257812 36.277344 42.972656 C 35.378906 42.6875 34.421875 43.1875 34.140625 44.085938 C 33.855469 44.984375 34.355469 45.9375 35.253906 46.222656 Z M 5.25 108.5625 C 5.84375 108.746094 6.476562 108.417969 6.660156 107.824219 C 6.847656 107.234375 6.515625 106.597656 5.925781 106.410156 C 5.332031 106.226562 4.699219 106.554688 4.511719 107.148438 C 4.324219 107.742188 4.65625 108.375 5.25 108.5625 Z M 137.003906 310.699219 C 136.410156 310.511719 135.78125 310.84375 135.59375 311.433594 C 135.40625 312.027344 135.738281 312.664062 136.328125 312.847656 C 136.921875 313.035156 137.558594 312.707031 137.746094 312.113281 C 137.929688 311.515625 137.597656 310.886719 137.003906 310.699219 Z M 26.113281 185.652344 C 26.324219 186.238281 26.96875 186.539062 27.554688 186.332031 C 28.140625 186.117188 28.441406 185.472656 28.230469 184.886719 C 28.019531 184.304688 27.375 184 26.789062 184.210938 C 26.203125 184.421875 25.902344 185.070312 26.113281 185.652344 Z M 48.894531 232.527344 C 48.300781 232.339844 47.667969 232.671875 47.480469 233.261719 C 47.292969 233.855469 47.621094 234.492188 48.21875 234.675781 C 48.8125 234.863281 49.441406 234.53125 49.628906 233.9375 C 49.816406 233.34375 49.488281 232.714844 48.894531 232.527344 Z M 82.042969 295.269531 C 81.585938 295.128906 81.101562 295.378906 80.957031 295.835938 C 80.816406 296.289062 81.070312 296.777344 81.523438 296.917969 C 81.976562 297.0625 82.464844 296.808594 82.609375 296.355469 C 82.753906 295.898438 82.5 295.414062 82.042969 295.269531 Z M 36.730469 330.949219 C 36.636719 331.246094 36.804688 331.5625 37.101562 331.65625 C 37.398438 331.75 37.714844 331.582031 37.808594 331.285156 C 37.902344 330.988281 37.738281 330.671875 37.4375 330.578125 C 37.144531 330.484375 36.828125 330.652344 36.730469 330.949219 Z M 65.800781 213.757812 C 66.210938 213.886719 66.644531 213.660156 66.777344 213.25 C 66.902344 212.84375 66.675781 212.40625 66.265625 212.277344 C 65.859375 212.148438 65.417969 212.375 65.292969 212.785156 C 65.164062 213.191406 65.390625 213.628906 65.800781 213.757812 Z M 194.675781 325.539062 C 195.269531 325.726562 195.90625 325.398438 196.089844 324.804688 C 196.277344 324.210938 195.949219 323.578125 195.351562 323.394531 C 194.757812 323.207031 194.128906 323.535156 193.941406 324.128906 C 193.753906 324.722656 194.082031 325.351562 194.675781 325.539062 Z M 128.679688 270.832031 C 128.976562 270.925781 129.292969 270.757812 129.386719 270.460938 C 129.480469 270.164062 129.316406 269.847656 129.019531 269.753906 C 128.722656 269.660156 128.40625 269.828125 128.3125 270.125 C 128.21875 270.421875 128.382812 270.738281 128.679688 270.832031 Z M 117.246094 346.476562 C 117.058594 347.066406 117.386719 347.703125 117.984375 347.890625 C 118.574219 348.078125 119.207031 347.746094 119.394531 347.152344 C 119.582031 346.558594 119.25 345.925781 118.65625 345.738281 C 118.0625 345.550781 117.429688 345.882812 117.246094 346.476562 Z M 152.96875 338.5625 C 152.375 338.375 151.738281 338.703125 151.550781 339.296875 C 151.363281 339.890625 151.695312 340.519531 152.289062 340.707031 C 152.886719 340.894531 153.515625 340.566406 153.703125 339.972656 C 153.890625 339.378906 153.558594 338.746094 152.96875 338.5625 Z M 227.019531 288.511719 C 227.179688 288 226.894531 287.449219 226.382812 287.289062 C 225.871094 287.128906 225.324219 287.414062 225.160156 287.925781 C 225 288.441406 225.285156 288.988281 225.796875 289.148438 C 226.3125 289.308594 226.859375 289.023438 227.019531 288.511719 Z M 224.609375 316.824219 C 224.316406 316.734375 223.996094 316.898438 223.902344 317.195312 C 223.808594 317.492188 223.976562 317.808594 224.269531 317.902344 C 224.570312 317.996094 224.886719 317.832031 224.980469 317.53125 C 225.074219 317.238281 224.910156 316.917969 224.609375 316.824219 Z M 224.351562 275.699219 C 224.863281 275.859375 225.410156 275.578125 225.570312 275.0625 C 225.734375 274.550781 225.445312 274.007812 224.933594 273.84375 C 224.421875 273.683594 223.875 273.964844 223.714844 274.480469 C 223.550781 274.992188 223.835938 275.539062 224.351562 275.699219 Z M 198.820312 336.265625 C 199.414062 336.453125 200.046875 336.121094 200.234375 335.527344 C 200.421875 334.9375 200.089844 334.304688 199.496094 334.117188 C 198.902344 333.929688 198.269531 334.257812 198.082031 334.855469 C 197.898438 335.445312 198.226562 336.078125 198.820312 336.265625 Z M 178.511719 308.277344 C 178.808594 308.371094 179.125 308.203125 179.21875 307.910156 C 179.3125 307.613281 179.148438 307.296875 178.847656 307.203125 C 178.554688 307.109375 178.238281 307.273438 178.144531 307.570312 C 178.050781 307.867188 178.214844 308.183594 178.511719 308.277344 Z M 148.742188 331.140625 C 149.039062 331.234375 149.355469 331.070312 149.449219 330.773438 C 149.542969 330.476562 149.378906 330.160156 149.082031 330.066406 C 148.785156 329.972656 148.46875 330.136719 148.375 330.433594 C 148.28125 330.730469 148.445312 331.046875 148.742188 331.140625 Z M 196.71875 268.515625 C 197.019531 268.605469 197.332031 268.445312 197.425781 268.144531 C 197.519531 267.851562 197.355469 267.53125 197.058594 267.4375 C 196.765625 267.34375 196.445312 267.511719 196.351562 267.808594 C 196.257812 268.105469 196.425781 268.421875 196.71875 268.515625 Z M 181.542969 272.234375 C 182.410156 272.511719 183.332031 272.027344 183.609375 271.160156 C 183.878906 270.292969 183.398438 269.371094 182.53125 269.09375 C 181.664062 268.824219 180.738281 269.304688 180.464844 270.171875 C 180.195312 271.039062 180.675781 271.964844 181.542969 272.234375 Z M 96.484375 257.238281 C 95.886719 257.054688 95.257812 257.378906 95.070312 257.972656 C 94.882812 258.570312 95.214844 259.199219 95.804688 259.386719 C 96.398438 259.574219 97.035156 259.242188 97.222656 258.652344 C 97.40625 258.058594 97.078125 257.425781 96.484375 257.238281 Z M 88.664062 264.238281 C 89.148438 264.386719 89.664062 264.121094 89.8125 263.636719 C 89.964844 263.15625 89.699219 262.640625 89.214844 262.488281 C 88.734375 262.335938 88.21875 262.605469 88.066406 263.089844 C 87.914062 263.570312 88.183594 264.085938 88.664062 264.238281 Z M 65.46875 271.511719 C 66.0625 271.699219 66.695312 271.367188 66.882812 270.773438 C 67.066406 270.183594 66.742188 269.546875 66.148438 269.359375 C 65.554688 269.175781 64.921875 269.503906 64.734375 270.097656 C 64.546875 270.691406 64.875 271.324219 65.46875 271.511719 Z M 9.582031 127.144531 C 10.171875 127.332031 10.808594 127.003906 10.996094 126.410156 C 11.183594 125.816406 10.851562 125.183594 10.257812 124.996094 C 9.664062 124.8125 9.03125 125.140625 8.84375 125.734375 C 8.65625 126.328125 8.988281 126.960938 9.582031 127.144531 Z M 363.769531 66.675781 C 364.363281 66.863281 364.996094 66.535156 365.183594 65.941406 C 365.371094 65.347656 365.042969 64.714844 364.449219 64.527344 C 363.851562 64.34375 363.222656 64.671875 363.035156 65.261719 C 362.847656 65.855469 363.175781 66.488281 363.769531 66.675781 Z M 67.765625 238.289062 C 67.605469 238.792969 67.890625 239.335938 68.394531 239.496094 C 68.902344 239.652344 69.441406 239.371094 69.601562 238.863281 C 69.761719 238.359375 69.480469 237.816406 68.972656 237.660156 C 68.464844 237.5 67.925781 237.78125 67.765625 238.289062 Z M 10.589844 201.902344 C 10.121094 202.070312 9.875 202.589844 10.046875 203.058594 C 10.21875 203.527344 10.734375 203.773438 11.207031 203.601562 C 11.675781 203.433594 11.917969 202.914062 11.75 202.441406 C 11.578125 201.976562 11.058594 201.730469 10.589844 201.902344 Z M 67.734375 35.015625 C 68.328125 35.203125 68.960938 34.871094 69.148438 34.277344 C 69.332031 33.683594 69.003906 33.054688 68.410156 32.867188 C 67.816406 32.679688 67.183594 33.011719 66.996094 33.605469 C 66.8125 34.195312 67.136719 34.828125 67.734375 35.015625 Z M 46.902344 91.390625 C 47.496094 91.578125 48.128906 91.246094 48.316406 90.652344 C 48.503906 90.058594 48.175781 89.425781 47.578125 89.242188 C 46.984375 89.054688 46.355469 89.386719 46.167969 89.980469 C 45.980469 90.570312 46.308594 91.203125 46.902344 91.390625 Z M 45.199219 83.40625 C 45.496094 83.5 45.8125 83.335938 45.90625 83.039062 C 46 82.738281 45.835938 82.421875 45.539062 82.332031 C 45.238281 82.238281 44.925781 82.402344 44.832031 82.699219 C 44.738281 82.996094 44.902344 83.3125 45.199219 83.40625 Z M 30.503906 61.957031 C 31.097656 62.144531 31.730469 61.8125 31.917969 61.21875 C 32.105469 60.625 31.773438 59.992188 31.179688 59.808594 C 30.585938 59.621094 29.953125 59.953125 29.765625 60.546875 C 29.578125 61.136719 29.910156 61.769531 30.503906 61.957031 Z M 131.390625 71.066406 C 131.203125 71.660156 131.535156 72.292969 132.125 72.480469 C 132.722656 72.667969 133.355469 72.335938 133.542969 71.742188 C 133.726562 71.148438 133.398438 70.515625 132.804688 70.328125 C 132.210938 70.140625 131.578125 70.472656 131.390625 71.066406 Z M 131.941406 177.347656 C 131.753906 177.941406 132.085938 178.574219 132.679688 178.761719 C 133.273438 178.949219 133.902344 178.617188 134.089844 178.023438 C 134.277344 177.429688 133.949219 176.796875 133.355469 176.609375 C 132.761719 176.425781 132.128906 176.753906 131.941406 177.347656 Z M 221.433594 99.621094 C 222.382812 99.917969 223.398438 99.386719 223.695312 98.4375 C 223.992188 97.488281 223.464844 96.476562 222.515625 96.175781 C 221.566406 95.878906 220.550781 96.40625 220.253906 97.355469 C 219.953125 98.308594 220.480469 99.320312 221.433594 99.621094 Z M 152.980469 132.089844 C 153.273438 132.183594 153.589844 132.019531 153.683594 131.71875 C 153.777344 131.425781 153.613281 131.105469 153.316406 131.011719 C 153.019531 130.917969 152.699219 131.085938 152.609375 131.382812 C 152.515625 131.679688 152.679688 131.996094 152.980469 132.089844 Z M 90.777344 232.398438 C 91.558594 232.644531 92.390625 232.210938 92.636719 231.433594 C 92.878906 230.652344 92.445312 229.820312 91.667969 229.578125 C 90.886719 229.332031 90.058594 229.765625 89.8125 230.542969 C 89.566406 231.324219 90 232.152344 90.777344 232.398438 Z M 144.414062 18.816406 C 144.710938 18.910156 145.027344 18.746094 145.121094 18.445312 C 145.214844 18.152344 145.050781 17.832031 144.753906 17.738281 C 144.457031 17.648438 144.140625 17.8125 144.046875 18.109375 C 143.953125 18.40625 144.121094 18.722656 144.414062 18.816406 Z M 125.269531 214.875 C 125.566406 214.964844 125.882812 214.800781 125.976562 214.503906 C 126.070312 214.207031 125.902344 213.890625 125.609375 213.796875 C 125.308594 213.703125 124.996094 213.871094 124.902344 214.167969 C 124.808594 214.464844 124.972656 214.78125 125.269531 214.875 Z M 171.09375 94.527344 C 171.386719 94.621094 171.703125 94.457031 171.796875 94.160156 C 171.890625 93.863281 171.726562 93.546875 171.429688 93.453125 C 171.132812 93.359375 170.8125 93.523438 170.722656 93.820312 C 170.628906 94.117188 170.792969 94.433594 171.09375 94.527344 Z M 168.75 130.894531 C 169.046875 130.988281 169.363281 130.824219 169.457031 130.523438 C 169.546875 130.230469 169.386719 129.914062 169.085938 129.820312 C 168.792969 129.726562 168.476562 129.890625 168.382812 130.1875 C 168.289062 130.484375 168.453125 130.800781 168.75 130.894531 Z M 277.355469 192.847656 C 277.992188 193.046875 278.667969 192.695312 278.867188 192.058594 C 279.0625 191.425781 278.714844 190.75 278.078125 190.550781 C 277.445312 190.351562 276.769531 190.703125 276.570312 191.339844 C 276.371094 191.972656 276.722656 192.648438 277.355469 192.847656 Z M 208.992188 289.605469 C 209.585938 289.789062 210.222656 289.460938 210.40625 288.867188 C 210.59375 288.273438 210.265625 287.640625 209.671875 287.453125 C 209.078125 287.269531 208.445312 287.597656 208.257812 288.191406 C 208.074219 288.785156 208.398438 289.417969 208.992188 289.605469 Z M 241.039062 199.269531 C 241.128906 198.976562 240.96875 198.65625 240.667969 198.5625 C 240.375 198.472656 240.058594 198.636719 239.964844 198.929688 C 239.871094 199.230469 240.035156 199.542969 240.332031 199.636719 C 240.628906 199.730469 240.945312 199.566406 241.039062 199.269531 Z M 201.417969 303.960938 C 201.710938 304.054688 202.03125 303.886719 202.121094 303.589844 C 202.214844 303.292969 202.050781 302.976562 201.753906 302.882812 C 201.457031 302.789062 201.140625 302.953125 201.050781 303.253906 C 200.957031 303.546875 201.117188 303.867188 201.417969 303.960938 Z M 240.953125 236.835938 C 240.765625 237.429688 241.097656 238.0625 241.6875 238.246094 C 242.28125 238.433594 242.917969 238.105469 243.105469 237.511719 C 243.289062 236.917969 242.960938 236.289062 242.367188 236.101562 C 241.773438 235.914062 241.140625 236.242188 240.953125 236.835938 Z M 239.769531 174.453125 C 240.363281 174.640625 240.992188 174.308594 241.179688 173.714844 C 241.367188 173.121094 241.039062 172.488281 240.445312 172.300781 C 239.851562 172.117188 239.21875 172.449219 239.03125 173.039062 C 238.84375 173.632812 239.175781 174.265625 239.769531 174.453125 Z M 313.960938 206.035156 C 314.257812 206.128906 314.574219 205.960938 314.667969 205.667969 C 314.761719 205.371094 314.59375 205.054688 314.300781 204.960938 C 314 204.867188 313.6875 205.035156 313.59375 205.328125 C 313.5 205.625 313.664062 205.941406 313.960938 206.035156 Z M 84.734375 242.796875 C 85.355469 242.796875 85.859375 242.292969 85.859375 241.671875 C 85.859375 241.050781 85.355469 240.542969 84.734375 240.542969 C 84.113281 240.542969 83.605469 241.050781 83.605469 241.671875 C 83.605469 242.292969 84.113281 242.796875 84.734375 242.796875 Z M 152.375 319.664062 C 153 319.664062 153.503906 319.160156 153.503906 318.539062 C 153.503906 317.917969 153 317.414062 152.375 317.414062 C 151.753906 317.414062 151.25 317.917969 151.25 318.539062 C 151.25 319.160156 151.753906 319.664062 152.375 319.664062 Z M 196.796875 308.910156 C 197.109375 308.910156 197.359375 308.65625 197.359375 308.347656 C 197.359375 308.035156 197.109375 307.785156 196.796875 307.785156 C 196.484375 307.785156 196.234375 308.035156 196.234375 308.347656 C 196.234375 308.65625 196.484375 308.910156 196.796875 308.910156 Z M 246.683594 363.703125 C 246.0625 363.703125 245.558594 364.207031 245.558594 364.832031 C 245.558594 365.453125 246.0625 365.957031 246.683594 365.957031 C 247.308594 365.957031 247.8125 365.453125 247.8125 364.832031 C 247.8125 364.207031 247.308594 363.703125 246.683594 363.703125 Z M 254.6875 359.710938 C 254.066406 359.710938 253.558594 360.210938 253.558594 360.835938 C 253.558594 361.457031 254.066406 361.960938 254.6875 361.960938 C 255.308594 361.960938 255.8125 361.457031 255.8125 360.835938 C 255.8125 360.210938 255.308594 359.710938 254.6875 359.710938 Z M 371.78125 357.457031 C 371.160156 357.457031 370.652344 357.960938 370.652344 358.582031 C 370.652344 359.203125 371.160156 359.710938 371.78125 359.710938 C 372.40625 359.710938 372.90625 359.203125 372.90625 358.582031 C 372.90625 357.960938 372.40625 357.457031 371.78125 357.457031 Z M 355.464844 224.621094 C 356.089844 224.621094 356.59375 224.121094 356.59375 223.496094 C 356.59375 222.875 356.089844 222.371094 355.464844 222.371094 C 354.84375 222.371094 354.339844 222.875 354.339844 223.496094 C 354.339844 224.121094 354.84375 224.621094 355.464844 224.621094 Z M 373.074219 174.460938 C 372.542969 174.460938 372.113281 174.890625 372.113281 175.421875 C 372.113281 175.953125 372.542969 176.382812 373.074219 176.382812 C 373.601562 176.382812 374.035156 175.953125 374.035156 175.421875 C 374.035156 174.890625 373.601562 174.460938 373.074219 174.460938 Z M 365.800781 210.324219 C 366.113281 210.324219 366.363281 210.074219 366.363281 209.761719 C 366.363281 209.449219 366.113281 209.199219 365.800781 209.199219 C 365.488281 209.199219 365.234375 209.449219 365.234375 209.761719 C 365.234375 210.074219 365.488281 210.324219 365.800781 210.324219 Z M 328.871094 134.546875 C 329.492188 134.546875 330 134.042969 330 133.421875 C 330 132.796875 329.492188 132.292969 328.871094 132.292969 C 328.25 132.292969 327.746094 132.796875 327.746094 133.421875 C 327.746094 134.042969 328.25 134.546875 328.871094 134.546875 Z M 292.441406 59.925781 C 293.378906 59.925781 294.140625 59.164062 294.140625 58.222656 C 294.140625 57.28125 293.378906 56.519531 292.441406 56.519531 C 291.5 56.519531 290.734375 57.28125 290.734375 58.222656 C 290.734375 59.164062 291.5 59.925781 292.441406 59.925781 Z M 218.800781 37.828125 C 219.421875 37.828125 219.925781 37.324219 219.925781 36.699219 C 219.925781 36.078125 219.421875 35.574219 218.800781 35.574219 C 218.175781 35.574219 217.671875 36.078125 217.671875 36.699219 C 217.671875 37.324219 218.175781 37.828125 218.800781 37.828125 Z M 190.785156 22.398438 C 191.40625 22.398438 191.910156 21.894531 191.910156 21.273438 C 191.910156 20.648438 191.40625 20.148438 190.785156 20.148438 C 190.160156 20.148438 189.660156 20.648438 189.660156 21.273438 C 189.660156 21.894531 190.160156 22.398438 190.785156 22.398438 Z M 62.039062 222.984375 C 62.039062 223.605469 62.542969 224.109375 63.167969 224.109375 C 63.785156 224.109375 64.292969 223.605469 64.292969 222.984375 C 64.292969 222.359375 63.785156 221.855469 63.167969 221.855469 C 62.542969 221.855469 62.039062 222.359375 62.039062 222.984375 Z M 169.773438 28.0625 C 170.097656 27.8125 170.160156 27.355469 169.914062 27.03125 C 169.664062 26.707031 169.203125 26.648438 168.882812 26.894531 C 168.5625 27.136719 168.496094 27.601562 168.746094 27.921875 C 168.992188 28.246094 169.453125 28.308594 169.773438 28.0625 Z M 151.722656 81.519531 C 152.21875 81.140625 152.3125 80.433594 151.933594 79.941406 C 151.558594 79.445312 150.851562 79.351562 150.355469 79.726562 C 149.863281 80.105469 149.765625 80.8125 150.144531 81.308594 C 150.519531 81.800781 151.226562 81.894531 151.722656 81.519531 Z M 110.203125 115.515625 C 110.203125 116.136719 110.707031 116.640625 111.328125 116.640625 C 111.953125 116.640625 112.457031 116.136719 112.457031 115.515625 C 112.457031 114.894531 111.953125 114.386719 111.328125 114.386719 C 110.707031 114.386719 110.203125 114.894531 110.203125 115.515625 Z M 61.660156 166.8125 C 62.136719 166.8125 62.523438 166.425781 62.523438 165.949219 C 62.523438 165.472656 62.136719 165.082031 61.660156 165.082031 C 61.179688 165.082031 60.796875 165.472656 60.796875 165.949219 C 60.796875 166.425781 61.179688 166.8125 61.660156 166.8125 Z M 162.5 11.410156 C 162.820312 11.164062 162.882812 10.703125 162.636719 10.382812 C 162.390625 10.058594 161.929688 9.996094 161.605469 10.242188 C 161.28125 10.484375 161.222656 10.949219 161.464844 11.269531 C 161.714844 11.59375 162.175781 11.65625 162.5 11.410156 Z M 14.875 134.582031 C 15.1875 134.582031 15.4375 134.328125 15.4375 134.019531 C 15.4375 133.707031 15.1875 133.457031 14.875 133.457031 C 14.5625 133.457031 14.3125 133.707031 14.3125 134.019531 C 14.3125 134.328125 14.5625 134.582031 14.875 134.582031 Z M 132.277344 50.757812 C 133.191406 50.058594 133.367188 48.75 132.667969 47.835938 C 131.96875 46.917969 130.660156 46.746094 129.746094 47.441406 C 128.828125 48.140625 128.652344 49.449219 129.351562 50.363281 C 130.046875 51.28125 131.359375 51.457031 132.277344 50.757812 Z M 136.222656 126.777344 C 136.652344 126.777344 136.996094 126.429688 136.996094 126.003906 C 136.996094 125.574219 136.652344 125.226562 136.222656 125.226562 C 135.792969 125.226562 135.445312 125.574219 135.445312 126.003906 C 135.445312 126.429688 135.792969 126.777344 136.222656 126.777344 Z M 75.066406 282.304688 C 75.6875 282.304688 76.195312 281.796875 76.195312 281.175781 C 76.195312 280.554688 75.6875 280.050781 75.066406 280.050781 C 74.441406 280.050781 73.941406 280.554688 73.941406 281.175781 C 73.941406 281.796875 74.441406 282.304688 75.066406 282.304688 Z M 100.410156 202.519531 C 100.097656 202.519531 99.847656 202.769531 99.847656 203.078125 C 99.847656 203.390625 100.097656 203.644531 100.410156 203.644531 C 100.71875 203.644531 100.972656 203.390625 100.972656 203.078125 C 100.972656 202.769531 100.71875 202.519531 100.410156 202.519531 Z M 24.21875 217.132812 C 24.839844 217.132812 25.34375 216.625 25.34375 216.003906 C 25.34375 215.382812 24.839844 214.878906 24.21875 214.878906 C 23.597656 214.878906 23.089844 215.382812 23.089844 216.003906 C 23.089844 216.625 23.597656 217.132812 24.21875 217.132812 Z M 40.238281 246.5625 C 40.238281 247.179688 40.742188 247.6875 41.363281 247.6875 C 41.988281 247.6875 42.492188 247.179688 42.492188 246.5625 C 42.492188 245.941406 41.988281 245.433594 41.363281 245.433594 C 40.742188 245.433594 40.238281 245.941406 40.238281 246.5625 Z M 112.480469 300.199219 C 111.945312 300.199219 111.507812 300.636719 111.507812 301.171875 C 111.507812 301.710938 111.945312 302.144531 112.480469 302.144531 C 113.019531 302.144531 113.453125 301.710938 113.453125 301.171875 C 113.453125 300.636719 113.019531 300.199219 112.480469 300.199219 Z M 84.171875 308.910156 C 84.484375 308.910156 84.734375 308.65625 84.734375 308.347656 C 84.734375 308.035156 84.484375 307.785156 84.171875 307.785156 C 83.859375 307.785156 83.605469 308.035156 83.605469 308.347656 C 83.605469 308.65625 83.859375 308.910156 84.171875 308.910156 Z M 124.878906 296.730469 C 125.417969 296.730469 125.855469 296.292969 125.855469 295.757812 C 125.855469 295.21875 125.417969 294.78125 124.878906 294.78125 C 124.34375 294.78125 123.90625 295.21875 123.90625 295.757812 C 123.90625 296.292969 124.34375 296.730469 124.878906 296.730469 Z M 58.441406 289.59375 C 58.441406 290.214844 58.949219 290.714844 59.570312 290.714844 C 60.195312 290.714844 60.695312 290.214844 60.695312 289.59375 C 60.695312 288.96875 60.195312 288.464844 59.570312 288.464844 C 58.949219 288.464844 58.441406 288.96875 58.441406 289.59375 Z M 79.625 262.394531 C 79.933594 262.394531 80.1875 262.140625 80.1875 261.828125 C 80.1875 261.515625 79.933594 261.265625 79.625 261.265625 C 79.3125 261.265625 79.0625 261.515625 79.0625 261.828125 C 79.0625 262.140625 79.3125 262.394531 79.625 262.394531 Z M 48.867188 239.742188 C 48.558594 239.742188 48.304688 239.996094 48.304688 240.308594 C 48.304688 240.621094 48.558594 240.871094 48.867188 240.871094 C 49.179688 240.871094 49.429688 240.621094 49.429688 240.308594 C 49.429688 239.996094 49.179688 239.742188 48.867188 239.742188 Z M 123.035156 267.820312 C 123.347656 267.820312 123.601562 267.566406 123.601562 267.257812 C 123.601562 266.949219 123.347656 266.695312 123.035156 266.695312 C 122.726562 266.695312 122.472656 266.949219 122.472656 267.257812 C 122.472656 267.566406 122.726562 267.820312 123.035156 267.820312 Z M 116.011719 255.546875 C 116.925781 255.546875 117.660156 254.8125 117.660156 253.902344 C 117.660156 252.992188 116.925781 252.257812 116.011719 252.257812 C 115.101562 252.257812 114.367188 252.992188 114.367188 253.902344 C 114.367188 254.8125 115.101562 255.546875 116.011719 255.546875 Z M 102.027344 169.429688 C 102.648438 169.429688 103.15625 168.925781 103.15625 168.304688 C 103.15625 167.683594 102.648438 167.175781 102.027344 167.175781 C 101.40625 167.175781 100.902344 167.683594 100.902344 168.304688 C 100.902344 168.925781 101.40625 169.429688 102.027344 169.429688 Z M 94.132812 162.949219 C 94.132812 163.457031 94.539062 163.863281 95.042969 163.863281 C 95.550781 163.863281 95.960938 163.457031 95.960938 162.949219 C 95.960938 162.445312 95.550781 162.035156 95.042969 162.035156 C 94.539062 162.035156 94.132812 162.445312 94.132812 162.949219 Z M 138.765625 34.566406 C 139.257812 34.1875 139.351562 33.480469 138.976562 32.984375 C 138.597656 32.492188 137.890625 32.394531 137.398438 32.773438 C 136.902344 33.152344 136.804688 33.859375 137.183594 34.351562 C 137.558594 34.84375 138.269531 34.941406 138.765625 34.566406 Z M 81.351562 144.144531 C 81.976562 144.144531 82.480469 143.640625 82.480469 143.015625 C 82.480469 142.394531 81.976562 141.894531 81.351562 141.894531 C 80.730469 141.894531 80.226562 142.394531 80.226562 143.015625 C 80.226562 143.640625 80.730469 144.144531 81.351562 144.144531 Z M 202.359375 47.535156 C 202.984375 47.535156 203.488281 47.03125 203.488281 46.40625 C 203.488281 45.785156 202.984375 45.285156 202.359375 45.285156 C 201.738281 45.285156 201.234375 45.785156 201.234375 46.40625 C 201.234375 47.03125 201.738281 47.535156 202.359375 47.535156 Z M 366.363281 367.082031 C 366.984375 367.082031 367.492188 366.578125 367.492188 365.957031 C 367.492188 365.335938 366.984375 364.832031 366.363281 364.832031 C 365.742188 364.832031 365.234375 365.335938 365.234375 365.957031 C 365.234375 366.578125 365.742188 367.082031 366.363281 367.082031 Z M 111.660156 136.199219 C 111.660156 136.730469 112.09375 137.160156 112.621094 137.160156 C 113.152344 137.160156 113.582031 136.730469 113.582031 136.199219 C 113.582031 135.667969 113.152344 135.238281 112.621094 135.238281 C 112.09375 135.238281 111.660156 135.667969 111.660156 136.199219 Z M 130.023438 71.074219 C 130.417969 70.769531 130.496094 70.199219 130.191406 69.804688 C 129.886719 69.410156 129.320312 69.328125 128.921875 69.632812 C 128.527344 69.9375 128.449219 70.503906 128.753906 70.902344 C 129.054688 71.300781 129.625 71.375 130.023438 71.074219 Z M 307.742188 75.332031 C 308.363281 75.332031 308.871094 74.828125 308.871094 74.207031 C 308.871094 73.582031 308.363281 73.078125 307.742188 73.078125 C 307.117188 73.078125 306.613281 73.582031 306.613281 74.207031 C 306.613281 74.828125 307.117188 75.332031 307.742188 75.332031 Z M 247.6875 72.386719 C 248.308594 72.386719 248.8125 71.886719 248.8125 71.265625 C 248.8125 70.640625 248.308594 70.136719 247.6875 70.136719 C 247.0625 70.136719 246.558594 70.640625 246.558594 71.265625 C 246.558594 71.886719 247.0625 72.386719 247.6875 72.386719 Z M 254.230469 67.804688 C 254.542969 67.804688 254.796875 67.554688 254.796875 67.242188 C 254.796875 66.929688 254.542969 66.679688 254.230469 66.679688 C 253.921875 66.679688 253.671875 66.929688 253.671875 67.242188 C 253.671875 67.554688 253.921875 67.804688 254.230469 67.804688 Z M 270.855469 47.917969 C 271.480469 47.917969 271.984375 47.417969 271.984375 46.792969 C 271.984375 46.171875 271.480469 45.667969 270.855469 45.667969 C 270.234375 45.667969 269.730469 46.171875 269.730469 46.792969 C 269.730469 47.417969 270.234375 47.917969 270.855469 47.917969 Z M 291.3125 147.96875 C 291.933594 147.96875 292.441406 147.464844 292.441406 146.839844 C 292.441406 146.222656 291.933594 145.714844 291.3125 145.714844 C 290.6875 145.714844 290.183594 146.222656 290.183594 146.839844 C 290.183594 147.464844 290.6875 147.96875 291.3125 147.96875 Z M 190.042969 180.386719 C 190.664062 180.386719 191.167969 179.882812 191.167969 179.261719 C 191.167969 178.640625 190.664062 178.136719 190.042969 178.136719 C 189.417969 178.136719 188.914062 178.640625 188.914062 179.261719 C 188.914062 179.882812 189.417969 180.386719 190.042969 180.386719 Z M 291.082031 240.132812 C 291.082031 241.128906 291.890625 241.9375 292.886719 241.9375 C 293.882812 241.9375 294.691406 241.128906 294.691406 240.132812 C 294.691406 239.136719 293.882812 238.328125 292.886719 238.328125 C 291.890625 238.328125 291.082031 239.136719 291.082031 240.132812 Z M 240.675781 184.609375 C 240.675781 184.300781 240.421875 184.046875 240.113281 184.046875 C 239.800781 184.046875 239.550781 184.300781 239.550781 184.609375 C 239.550781 184.921875 239.800781 185.171875 240.113281 185.171875 C 240.421875 185.171875 240.675781 184.921875 240.675781 184.609375 Z M 126.628906 156.886719 C 127.445312 156.886719 128.109375 156.226562 128.109375 155.410156 C 128.109375 154.59375 127.445312 153.933594 126.628906 153.933594 C 125.808594 153.933594 125.148438 154.59375 125.148438 155.410156 C 125.148438 156.226562 125.808594 156.886719 126.628906 156.886719 Z M 345.652344 143.015625 C 345.960938 143.015625 346.214844 142.765625 346.214844 142.453125 C 346.214844 142.144531 345.960938 141.894531 345.652344 141.894531 C 345.339844 141.894531 345.085938 142.144531 345.085938 142.453125 C 345.085938 142.765625 345.339844 143.015625 345.652344 143.015625 Z M 152.792969 183.597656 C 153.101562 183.597656 153.351562 183.347656 153.351562 183.035156 C 153.351562 182.726562 153.101562 182.472656 152.792969 182.472656 C 152.480469 182.472656 152.226562 182.726562 152.226562 183.035156 C 152.226562 183.347656 152.480469 183.597656 152.792969 183.597656 Z M 281.398438 191.171875 C 281.710938 191.171875 281.960938 190.917969 281.960938 190.609375 C 281.960938 190.296875 281.710938 190.042969 281.398438 190.042969 C 281.085938 190.042969 280.832031 190.296875 280.832031 190.609375 C 280.832031 190.917969 281.085938 191.171875 281.398438 191.171875 Z M 245.984375 199.855469 C 246.296875 199.855469 246.550781 199.601562 246.550781 199.289062 C 246.550781 198.976562 246.296875 198.726562 245.984375 198.726562 C 245.675781 198.726562 245.425781 198.976562 245.425781 199.289062 C 245.425781 199.601562 245.675781 199.855469 245.984375 199.855469 Z M 218.886719 321.429688 C 218.886719 322.097656 219.429688 322.632812 220.089844 322.632812 C 220.757812 322.632812 221.296875 322.097656 221.296875 321.429688 C 221.296875 320.765625 220.757812 320.226562 220.089844 320.226562 C 219.429688 320.226562 218.886719 320.765625 218.886719 321.429688 Z M 107.15625 286.414062 C 107.777344 286.414062 108.285156 285.910156 108.285156 285.289062 C 108.285156 284.667969 107.777344 284.160156 107.15625 284.160156 C 106.535156 284.160156 106.03125 284.667969 106.03125 285.289062 C 106.03125 285.910156 106.535156 286.414062 107.15625 286.414062 Z M 201.859375 287.605469 C 201.546875 287.605469 201.292969 287.855469 201.292969 288.167969 C 201.292969 288.480469 201.546875 288.730469 201.859375 288.730469 C 202.167969 288.730469 202.421875 288.480469 202.421875 288.167969 C 202.421875 287.855469 202.167969 287.605469 201.859375 287.605469 Z M 90.617188 281.804688 C 90.308594 281.804688 90.054688 282.058594 90.054688 282.371094 C 90.054688 282.683594 90.308594 282.933594 90.617188 282.933594 C 90.929688 282.933594 91.183594 282.683594 91.183594 282.371094 C 91.183594 282.058594 90.929688 281.804688 90.617188 281.804688 Z M 165.984375 302.175781 C 166.605469 302.175781 167.109375 301.671875 167.109375 301.050781 C 167.109375 300.425781 166.605469 299.921875 165.984375 299.921875 C 165.359375 299.921875 164.855469 300.425781 164.855469 301.050781 C 164.855469 301.671875 165.359375 302.175781 165.984375 302.175781 Z M 225.164062 280.070312 C 225.164062 280.691406 225.667969 281.199219 226.292969 281.199219 C 226.914062 281.199219 227.417969 280.691406 227.417969 280.070312 C 227.417969 279.449219 226.914062 278.945312 226.292969 278.945312 C 225.667969 278.945312 225.164062 279.449219 225.164062 280.070312 Z M 217.285156 360.289062 C 217.285156 359.976562 217.535156 359.722656 217.851562 359.722656 C 218.160156 359.722656 218.410156 359.976562 218.410156 360.289062 C 218.410156 360.597656 218.160156 360.851562 217.851562 360.851562 C 217.535156 360.851562 217.285156 360.597656 217.285156 360.289062 " fill-opacity="1" fill-rule="nonzero"/></g></svg>