<svg xmlns="http://www.w3.org/2000/svg" xmlns:xlink="http://www.w3.org/1999/xlink" width="500" zoomAndPan="magnify" viewBox="0 0 375 374.999991" height="500" preserveAspectRatio="xMidYMid meet" version="1.0"><path fill="#d7d6dc" d="M 41.265625 123.617188 C 41.144531 123.746094 41.023438 123.875 40.902344 124.007812 C 40.597656 124.339844 40.605469 124.820312 40.910156 125.148438 C 41.046875 125.296875 41.28125 125.382812 41.472656 125.382812 C 41.691406 125.382812 41.898438 125.289062 42.054688 125.144531 C 42.1875 125.019531 42.316406 124.902344 42.445312 124.78125 C 42.605469 124.632812 42.675781 124.414062 42.6875 124.203125 C 42.695312 123.976562 42.585938 123.765625 42.4375 123.605469 C 42.140625 123.285156 41.558594 123.296875 41.265625 123.617188 Z M 94.335938 88.332031 C 94.339844 87.800781 93.789062 87.3125 93.253906 87.488281 C 93.101562 87.542969 92.945312 87.585938 92.804688 87.660156 C 92.6875 87.71875 92.59375 87.8125 92.523438 87.925781 C 92.476562 87.960938 92.433594 88.007812 92.394531 88.058594 C 92.25 88.230469 92.253906 88.429688 92.394531 88.597656 C 92.4375 88.648438 92.476562 88.691406 92.523438 88.730469 C 92.59375 88.839844 92.691406 88.933594 92.808594 89 C 92.941406 89.074219 93.101562 89.113281 93.246094 89.164062 C 93.78125 89.339844 94.332031 88.863281 94.335938 88.332031 Z M 64.035156 20.9375 C 63.414062 20.9375 63.410156 21.902344 64.03125 21.902344 C 64.65625 21.902344 64.65625 20.9375 64.035156 20.9375 Z M 52.742188 35.027344 C 52.09375 35.027344 52.09375 36.03125 52.742188 36.03125 C 53.390625 36.03125 53.394531 35.027344 52.742188 35.027344 Z M 52.289062 43.671875 C 52.398438 43.589844 52.488281 43.515625 52.578125 43.417969 C 52.710938 43.257812 52.792969 43.105469 52.820312 42.902344 C 52.847656 42.707031 52.816406 42.507812 52.714844 42.332031 C 52.558594 42.054688 52.253906 41.898438 51.941406 41.882812 C 51.582031 41.863281 51.242188 42.121094 51.109375 42.441406 C 51.039062 42.617188 51.007812 42.824219 51.066406 43.011719 C 51.113281 43.167969 51.199219 43.300781 51.300781 43.425781 C 51.386719 43.523438 51.476562 43.59375 51.589844 43.671875 C 51.769531 43.804688 52.105469 43.800781 52.289062 43.671875 Z M 38.632812 32.183594 C 37.875 32.1875 37.742188 33.105469 38.277344 33.5 L 38.367188 33.566406 C 38.5 33.664062 38.757812 33.660156 38.890625 33.566406 C 38.921875 33.542969 38.949219 33.519531 38.984375 33.496094 C 39.511719 33.109375 39.386719 32.179688 38.632812 32.183594 Z M 148.046875 24.917969 C 148.222656 25.0625 148.40625 25.054688 148.585938 24.914062 C 148.660156 24.851562 148.730469 24.792969 148.78125 24.714844 C 148.839844 24.617188 148.847656 24.5 148.867188 24.390625 C 148.902344 24.183594 148.871094 23.988281 148.714844 23.832031 C 148.613281 23.730469 148.460938 23.671875 148.3125 23.671875 C 148.160156 23.667969 148.015625 23.734375 147.902344 23.839844 C 147.75 23.984375 147.722656 24.191406 147.757812 24.390625 C 147.777344 24.5 147.792969 24.609375 147.847656 24.714844 C 147.894531 24.804688 147.964844 24.859375 148.046875 24.917969 Z M 12.011719 78.613281 C 12.996094 78.613281 13.003906 77.082031 12.019531 77.082031 C 11.03125 77.082031 11.023438 78.613281 12.011719 78.613281 Z M 6.371094 100.511719 C 5.449219 100.511719 5.445312 101.941406 6.367188 101.941406 C 7.289062 101.941406 7.296875 100.511719 6.371094 100.511719 Z M 11.605469 107.789062 C 12.796875 107.789062 12.800781 105.945312 11.617188 105.945312 C 10.425781 105.945312 10.421875 107.789062 11.605469 107.789062 Z M 10.585938 13.972656 C 10.773438 14.007812 10.828125 14.007812 11.015625 13.976562 C 11.289062 13.925781 11.570312 13.648438 11.617188 13.378906 C 11.628906 13.3125 11.640625 13.25 11.652344 13.183594 C 11.695312 13.035156 11.695312 12.886719 11.65625 12.734375 C 11.617188 12.582031 11.535156 12.445312 11.421875 12.332031 C 11.265625 12.175781 11.03125 12.082031 10.808594 12.078125 C 10.570312 12.078125 10.351562 12.179688 10.175781 12.339844 C 9.945312 12.558594 9.902344 12.882812 9.957031 13.179688 C 9.964844 13.242188 9.976562 13.308594 9.988281 13.371094 C 10.035156 13.644531 10.316406 13.925781 10.585938 13.972656 Z M 5.191406 43.546875 C 5.132812 43.472656 5.074219 43.394531 5.015625 43.320312 C 4.871094 43.132812 4.582031 43.0625 4.359375 43.050781 C 4.101562 43.035156 3.863281 43.160156 3.683594 43.332031 C 3.511719 43.484375 3.410156 43.761719 3.410156 43.984375 C 3.40625 44.203125 3.511719 44.523438 3.691406 44.664062 C 3.765625 44.722656 3.84375 44.78125 3.917969 44.839844 C 4 44.902344 4.09375 44.988281 4.179688 45.039062 C 4.398438 45.164062 4.625 45.171875 4.867188 45.121094 C 5.148438 45.066406 5.425781 44.796875 5.480469 44.511719 C 5.53125 44.265625 5.523438 44.039062 5.394531 43.8125 C 5.347656 43.730469 5.253906 43.632812 5.191406 43.546875 Z M 16.210938 101.125 C 16.210938 101.105469 16.210938 101.089844 16.210938 101.070312 C 16.222656 100.816406 16.117188 100.570312 15.96875 100.378906 C 15.816406 100.183594 15.613281 100.035156 15.371094 99.972656 C 14.980469 99.863281 14.566406 100 14.273438 100.269531 C 14.09375 100.433594 13.996094 100.679688 13.96875 100.914062 C 13.941406 101.007812 13.941406 101.105469 13.964844 101.203125 C 13.964844 101.304688 13.992188 101.402344 14.042969 101.488281 C 14.136719 101.714844 14.296875 101.933594 14.519531 102.046875 C 14.609375 102.085938 14.695312 102.121094 14.785156 102.15625 C 14.882812 102.167969 14.976562 102.179688 15.074219 102.195312 C 15.089844 102.191406 15.109375 102.191406 15.125 102.191406 C 15.425781 102.179688 15.679688 102.074219 15.902344 101.871094 C 16.097656 101.6875 16.199219 101.386719 16.210938 101.125 Z M 86.679688 101.9375 C 86.554688 101.964844 86.421875 101.980469 86.292969 102 C 86.117188 102.039062 85.964844 102.117188 85.835938 102.234375 C 85.695312 102.328125 85.582031 102.449219 85.5 102.605469 C 85.398438 102.800781 85.34375 103.011719 85.332031 103.234375 C 85.324219 103.40625 85.359375 103.570312 85.4375 103.722656 C 85.46875 103.835938 85.527344 103.933594 85.609375 104.019531 C 85.703125 104.160156 85.824219 104.273438 85.980469 104.355469 C 86.078125 104.394531 86.183594 104.4375 86.285156 104.476562 C 86.414062 104.496094 86.542969 104.515625 86.671875 104.542969 C 87.144531 104.640625 87.625 104.542969 87.976562 104.183594 C 88.214844 103.941406 88.367188 103.585938 88.367188 103.246094 C 88.367188 102.875 88.210938 102.546875 87.964844 102.28125 C 87.636719 101.929688 87.128906 101.84375 86.679688 101.9375 Z M 45.480469 87.246094 C 46.167969 87.246094 46.171875 86.183594 45.484375 86.183594 C 44.800781 86.183594 44.796875 87.246094 45.480469 87.246094 Z M 42.921875 92.054688 C 42.757812 92.183594 42.628906 92.355469 42.589844 92.570312 C 42.582031 92.628906 42.570312 92.695312 42.5625 92.757812 C 42.570312 92.835938 42.582031 92.910156 42.59375 92.988281 C 42.648438 93.285156 42.945312 93.566406 43.234375 93.628906 C 43.464844 93.679688 43.714844 93.671875 43.917969 93.539062 C 44.117188 93.410156 44.273438 93.230469 44.335938 92.992188 C 44.398438 92.769531 44.363281 92.511719 44.246094 92.3125 C 43.976562 91.84375 43.347656 91.726562 42.921875 92.054688 Z M 36.238281 81.5625 C 36.574219 81.53125 36.792969 81.371094 37.007812 81.121094 C 37.3125 80.765625 37.277344 80.210938 36.847656 79.96875 C 36.453125 79.742188 35.886719 79.953125 35.777344 80.417969 C 35.707031 80.726562 35.652344 81.039062 35.828125 81.324219 C 35.910156 81.460938 36.074219 81.578125 36.238281 81.5625 Z M 50.195312 100.238281 C 49.433594 100.238281 48.863281 100.851562 48.828125 101.59375 C 48.808594 101.933594 48.992188 102.332031 49.230469 102.570312 C 49.472656 102.808594 49.839844 102.960938 50.179688 102.960938 C 50.945312 102.960938 51.515625 102.347656 51.550781 101.605469 C 51.570312 101.261719 51.386719 100.867188 51.144531 100.628906 C 50.902344 100.390625 50.535156 100.238281 50.195312 100.238281 Z M 53.566406 92.765625 C 53.734375 92.574219 53.84375 92.363281 53.875 92.109375 C 53.910156 91.847656 53.859375 91.609375 53.742188 91.378906 C 53.683594 91.261719 53.59375 91.167969 53.496094 91.085938 C 53.339844 90.835938 53.070312 90.671875 52.746094 90.660156 C 52.523438 90.648438 52.261719 90.765625 52.105469 90.925781 C 52.050781 90.980469 52.007812 91.042969 51.96875 91.113281 C 51.882812 91.191406 51.804688 91.277344 51.742188 91.382812 C 51.597656 91.609375 51.546875 91.988281 51.628906 92.246094 C 51.707031 92.496094 51.839844 92.707031 52.050781 92.867188 C 52.253906 93.019531 52.484375 93.09375 52.734375 93.105469 C 53.015625 93.121094 53.378906 92.96875 53.566406 92.765625 Z M 26.941406 74.492188 C 26.242188 74.488281 25.746094 75.289062 26.121094 75.898438 C 26.152344 75.949219 26.183594 76 26.210938 76.046875 C 26.546875 76.59375 27.324219 76.589844 27.660156 76.046875 C 27.6875 75.992188 27.71875 75.945312 27.75 75.894531 C 28.121094 75.289062 27.628906 74.496094 26.941406 74.492188 Z M 18.910156 36.902344 C 19.082031 36.777344 19.164062 36.710938 19.273438 36.535156 C 19.296875 36.5 19.316406 36.464844 19.335938 36.429688 C 19.71875 35.777344 19.214844 34.933594 18.472656 34.929688 C 17.71875 34.925781 17.210938 35.777344 17.597656 36.429688 C 17.617188 36.464844 17.640625 36.5 17.660156 36.535156 C 17.769531 36.71875 17.855469 36.78125 18.027344 36.902344 C 18.257812 37.066406 18.679688 37.0625 18.910156 36.902344 Z M 45.382812 1.550781 C 45.40625 1.484375 45.433594 1.421875 45.460938 1.359375 C 45.476562 1.269531 45.496094 1.179688 45.511719 1.089844 C 45.570312 0.78125 45.515625 0.480469 45.285156 0.25 C 45.128906 0.101562 44.898438 0.00390625 44.683594 0.00390625 C 44.445312 0.00390625 44.230469 0.101562 44.0625 0.261719 C 43.835938 0.472656 43.785156 0.792969 43.839844 1.085938 C 43.859375 1.171875 43.875 1.261719 43.894531 1.351562 C 43.929688 1.542969 44.105469 1.761719 44.277344 1.851562 C 44.398438 1.914062 44.535156 1.953125 44.671875 1.957031 C 44.851562 1.964844 45.03125 1.886719 45.167969 1.78125 C 45.257812 1.722656 45.332031 1.648438 45.382812 1.550781 Z M 41.445312 11.867188 C 42.640625 11.867188 42.648438 10.015625 41.457031 10.015625 C 40.261719 10.015625 40.253906 11.867188 41.445312 11.867188 Z M 51.527344 19.082031 C 52.667969 19.082031 52.671875 17.316406 51.535156 17.316406 C 50.398438 17.316406 50.394531 19.082031 51.527344 19.082031 Z M 52.335938 11.207031 C 53.71875 11.207031 53.722656 9.066406 52.347656 9.066406 C 50.964844 9.066406 50.953125 11.207031 52.335938 11.207031 Z M 114.847656 80.84375 C 114.035156 80.84375 114.027344 82.105469 114.839844 82.105469 C 115.652344 82.105469 115.65625 80.84375 114.847656 80.84375 Z M 121.699219 83.566406 C 121.585938 83.574219 121.449219 83.566406 121.339844 83.597656 C 121.214844 83.632812 121.101562 83.757812 121.101562 83.894531 C 121.097656 84.027344 121.214844 84.152344 121.335938 84.1875 C 121.445312 84.21875 121.582031 84.214844 121.699219 84.21875 C 121.878906 84.234375 122.015625 84.0625 122.027344 83.894531 C 122.035156 83.730469 121.871094 83.554688 121.699219 83.566406 Z M 116.859375 73.566406 C 116.015625 73.566406 116.011719 74.875 116.855469 74.875 C 117.703125 74.875 117.707031 73.566406 116.859375 73.566406 Z M 125.332031 46.589844 C 124.523438 46.589844 124.523438 47.839844 125.324219 47.839844 C 126.128906 47.839844 126.132812 46.589844 125.332031 46.589844 Z M 126.769531 32.835938 C 126.832031 32.957031 126.949219 33.046875 127.066406 33.113281 C 127.230469 33.214844 127.460938 33.210938 127.621094 33.113281 C 127.738281 33.042969 127.851562 32.953125 127.921875 32.835938 C 127.949219 32.785156 127.972656 32.726562 127.996094 32.675781 C 128.109375 32.429688 128.132812 32.171875 127.992188 31.929688 C 127.859375 31.699219 127.609375 31.554688 127.347656 31.554688 C 127.078125 31.550781 126.824219 31.699219 126.695312 31.933594 C 126.554688 32.175781 126.578125 32.433594 126.695312 32.679688 C 126.71875 32.730469 126.738281 32.785156 126.769531 32.835938 Z M 101.539062 34.445312 C 100.660156 34.445312 100.65625 35.804688 101.53125 35.804688 C 102.410156 35.804688 102.414062 34.445312 101.539062 34.445312 Z M 94.277344 39.742188 C 95.03125 39.742188 95.035156 38.570312 94.28125 38.570312 C 93.523438 38.570312 93.519531 39.742188 94.277344 39.742188 Z M 100.726562 46.410156 C 101.765625 46.410156 101.769531 44.796875 100.730469 44.796875 C 99.691406 44.796875 99.6875 46.410156 100.726562 46.410156 Z M 102.75 54.410156 C 102.148438 54.410156 102.144531 55.339844 102.742188 55.339844 C 103.34375 55.339844 103.347656 54.410156 102.75 54.410156 Z M 93.066406 65.53125 C 93.8125 65.53125 93.816406 64.371094 93.070312 64.371094 C 92.324219 64.371094 92.316406 65.53125 93.066406 65.53125 Z M 94.683594 51.457031 C 93.910156 51.457031 93.90625 52.652344 94.679688 52.652344 C 95.449219 52.652344 95.453125 51.457031 94.683594 51.457031 Z M 99.523438 59.925781 C 98.757812 59.925781 98.753906 61.109375 99.515625 61.109375 C 100.28125 61.109375 100.285156 59.925781 99.523438 59.925781 Z M 100.734375 68.875 C 99.554688 68.875 99.546875 70.703125 100.722656 70.703125 C 101.902344 70.703125 101.910156 68.875 100.734375 68.875 Z M 85.804688 57.953125 C 86.660156 57.953125 86.664062 56.628906 85.8125 56.628906 C 84.957031 56.628906 84.953125 57.953125 85.804688 57.953125 Z M 35.328125 160.132812 C 34.871094 160.15625 34.457031 160.519531 34.472656 161 C 34.476562 161.230469 34.449219 161.507812 34.527344 161.726562 C 34.59375 161.902344 34.675781 162.042969 34.828125 162.164062 C 34.96875 162.273438 35.152344 162.355469 35.339844 162.34375 C 35.484375 162.335938 35.621094 162.296875 35.75 162.234375 C 35.953125 162.128906 36.070312 161.925781 36.144531 161.71875 C 36.21875 161.503906 36.191406 161.21875 36.195312 160.992188 C 36.207031 160.539062 35.785156 160.113281 35.328125 160.132812 Z M 12.949219 122.8125 C 12.578125 122.828125 12.242188 123.121094 12.253906 123.511719 C 12.261719 123.789062 12.238281 124.097656 12.394531 124.339844 C 12.664062 124.753906 13.234375 124.761719 13.507812 124.34375 C 13.667969 124.09375 13.644531 123.789062 13.652344 123.507812 C 13.664062 123.140625 13.316406 122.792969 12.949219 122.8125 Z M 54.257812 144.046875 C 54.183594 143.96875 54.101562 143.90625 54.011719 143.859375 C 54.007812 143.859375 54.007812 143.855469 54.003906 143.851562 C 54.003906 143.851562 54.007812 143.855469 54.007812 143.855469 C 54.003906 143.851562 54 143.847656 53.996094 143.847656 C 53.996094 143.847656 53.996094 143.847656 53.992188 143.84375 C 53.847656 143.757812 53.695312 143.707031 53.53125 143.699219 C 53.273438 143.667969 52.992188 143.699219 52.765625 143.839844 C 52.585938 143.953125 52.398438 144.109375 52.300781 144.300781 C 52.292969 144.316406 52.289062 144.332031 52.28125 144.347656 C 52.257812 144.382812 52.238281 144.414062 52.214844 144.445312 C 52.078125 144.632812 52.046875 144.988281 52.117188 145.203125 C 52.171875 145.390625 52.277344 145.582031 52.429688 145.714844 C 52.484375 145.777344 52.546875 145.832031 52.621094 145.878906 C 52.742188 145.992188 52.890625 146.070312 53.054688 146.109375 C 53.371094 146.175781 53.691406 146.144531 53.976562 145.984375 C 53.980469 145.980469 53.984375 145.980469 53.984375 145.980469 C 54.070312 145.914062 54.15625 145.851562 54.242188 145.785156 C 54.367188 145.667969 54.457031 145.53125 54.507812 145.375 C 54.5625 145.277344 54.589844 145.171875 54.589844 145.0625 C 54.621094 144.902344 54.613281 144.75 54.566406 144.589844 C 54.496094 144.371094 54.421875 144.214844 54.257812 144.046875 Z M 190.355469 11.730469 C 190.496094 11.8125 190.648438 11.851562 190.808594 11.851562 C 191.148438 11.851562 191.390625 11.664062 191.578125 11.402344 C 191.777344 11.125 191.757812 10.765625 191.773438 10.4375 C 191.796875 9.929688 191.304688 9.449219 190.796875 9.476562 C 190.550781 9.488281 190.292969 9.566406 190.121094 9.753906 C 189.949219 9.9375 189.820312 10.1875 189.835938 10.449219 C 189.847656 10.773438 189.828125 11.125 190.023438 11.398438 C 190.105469 11.539062 190.214844 11.652344 190.355469 11.730469 Z M 285.5 31.742188 C 285.523438 31.734375 285.550781 31.726562 285.578125 31.714844 C 285.734375 31.660156 285.851562 31.585938 285.984375 31.484375 C 286.039062 31.441406 286.097656 31.398438 286.152344 31.351562 C 286.257812 31.269531 286.351562 31.167969 286.449219 31.078125 C 286.816406 30.738281 286.832031 30.070312 286.460938 29.726562 C 286.089844 29.382812 285.472656 29.324219 285.105469 29.714844 C 285.011719 29.8125 284.917969 29.90625 284.828125 30.011719 C 284.746094 30.113281 284.671875 30.21875 284.59375 30.320312 C 284.511719 30.425781 284.464844 30.554688 284.429688 30.679688 C 284.242188 31.300781 284.882812 31.929688 285.5 31.742188 Z M 357.757812 34.269531 C 356.519531 34.269531 356.523438 36.195312 357.769531 36.195312 C 359.007812 36.195312 359.003906 34.269531 357.757812 34.269531 Z M 354.140625 5.890625 C 355.28125 5.890625 355.277344 4.113281 354.132812 4.113281 C 352.988281 4.113281 352.996094 5.890625 354.140625 5.890625 Z M 339.621094 24.425781 C 340.003906 24.40625 340.355469 24.097656 340.339844 23.695312 C 340.335938 23.507812 340.328125 23.324219 340.324219 23.136719 C 340.308594 22.769531 340 22.417969 339.613281 22.4375 C 339.21875 22.453125 338.921875 22.75 338.910156 23.144531 C 338.90625 23.332031 338.898438 23.519531 338.894531 23.703125 C 338.878906 24.082031 339.238281 24.441406 339.621094 24.425781 Z M 330.425781 25.683594 C 330.175781 25.449219 329.839844 25.425781 329.5625 25.59375 C 329.484375 25.585938 329.40625 25.574219 329.328125 25.566406 C 329.03125 25.554688 328.691406 25.710938 328.488281 25.910156 C 328.265625 26.128906 328.128906 26.464844 328.128906 26.777344 C 328.132812 27.066406 328.261719 27.414062 328.476562 27.613281 C 328.707031 27.828125 329.015625 27.988281 329.339844 27.972656 C 329.644531 27.957031 329.964844 27.855469 330.179688 27.625 C 330.363281 27.425781 330.480469 27.195312 330.515625 26.914062 C 330.546875 26.789062 330.542969 26.65625 330.511719 26.523438 C 330.664062 26.257812 330.667969 25.90625 330.425781 25.683594 Z M 333.324219 16.925781 C 333.335938 16.867188 333.347656 16.8125 333.359375 16.75 C 333.421875 16.402344 333.371094 16.023438 333.09375 15.765625 C 332.890625 15.578125 332.636719 15.453125 332.351562 15.457031 C 332.09375 15.457031 331.816406 15.570312 331.628906 15.757812 C 331.351562 16.03125 331.292969 16.386719 331.359375 16.757812 C 331.371094 16.816406 331.382812 16.875 331.390625 16.9375 C 331.433594 17.144531 331.527344 17.296875 331.65625 17.460938 C 331.828125 17.671875 332.085938 17.808594 332.363281 17.808594 C 332.628906 17.804688 332.882812 17.675781 333.046875 17.46875 C 333.1875 17.296875 333.285156 17.148438 333.324219 16.925781 Z M 307.835938 332.523438 C 307.652344 332.332031 307.265625 332.253906 307.023438 332.359375 C 306.84375 332.441406 306.726562 332.503906 306.597656 332.652344 C 306.527344 332.734375 306.449219 332.832031 306.40625 332.925781 C 306.335938 333.074219 306.296875 333.265625 306.25 333.425781 C 306.1875 333.644531 306.269531 333.953125 306.390625 334.136719 C 306.527344 334.335938 306.773438 334.515625 307.015625 334.550781 C 307.257812 334.585938 307.523438 334.558594 307.730469 334.410156 C 307.929688 334.265625 308.117188 334.042969 308.144531 333.785156 C 308.164062 333.625 308.199219 333.433594 308.1875 333.269531 C 308.179688 333.164062 308.152344 333.058594 308.117188 332.957031 C 308.054688 332.769531 307.96875 332.664062 307.835938 332.523438 Z M 317.527344 349.070312 C 317.414062 348.96875 317.277344 348.90625 317.128906 348.875 C 316.988281 348.851562 316.84375 348.859375 316.703125 348.90625 C 316.417969 349 316.199219 349.25 316.140625 349.546875 C 316.085938 349.835938 316.191406 350.144531 316.417969 350.339844 C 316.53125 350.4375 316.664062 350.507812 316.8125 350.53125 C 316.957031 350.5625 317.101562 350.550781 317.242188 350.507812 C 317.351562 350.484375 317.46875 350.46875 317.574219 350.417969 C 317.789062 350.316406 318.027344 350.183594 318.066406 349.917969 C 318.101562 349.660156 317.980469 349.476562 317.816406 349.292969 C 317.730469 349.199219 317.628906 349.140625 317.527344 349.070312 Z M 282.296875 355.445312 C 282.15625 355.296875 281.957031 355.191406 281.691406 355.160156 C 281.664062 355.15625 281.632812 355.152344 281.597656 355.148438 C 280.832031 355.050781 280.414062 355.519531 280.332031 356.046875 C 280.203125 356.566406 280.414062 357.15625 281.175781 357.363281 C 281.207031 357.371094 281.238281 357.378906 281.265625 357.386719 C 281.523438 357.457031 281.746094 357.433594 281.933594 357.34375 C 282.832031 357.234375 283.082031 355.886719 282.296875 355.445312 Z M 275.523438 364.730469 C 275.558594 364.460938 275.5 364.203125 275.316406 363.960938 C 275.046875 363.613281 274.578125 363.523438 274.238281 363.824219 C 273.914062 364.105469 273.933594 364.609375 274.109375 364.96875 C 274.132812 365.039062 274.167969 365.09375 274.21875 365.136719 C 274.222656 365.144531 274.226562 365.148438 274.234375 365.15625 C 274.234375 365.164062 274.238281 365.167969 274.242188 365.179688 C 274.253906 365.210938 274.261719 365.238281 274.273438 365.269531 C 274.316406 365.410156 274.363281 365.546875 274.410156 365.679688 C 274.519531 366.011719 274.898438 366.199219 275.222656 366.085938 C 275.582031 365.964844 275.703125 365.613281 275.628906 365.273438 C 275.589844 365.097656 275.535156 364.914062 275.523438 364.730469 Z M 322.4375 370.160156 C 322.238281 370.054688 321.917969 370.035156 321.707031 370.113281 C 321.648438 370.136719 321.597656 370.164062 321.546875 370.195312 C 321.167969 370.152344 320.757812 370.375 320.699219 370.777344 C 320.636719 371.191406 320.878906 371.527344 321.269531 371.632812 C 321.433594 371.839844 321.667969 371.976562 321.957031 371.992188 C 322.171875 372.007812 322.367188 371.957031 322.550781 371.84375 C 322.75 371.726562 322.933594 371.445312 322.96875 371.214844 C 323.035156 370.773438 322.832031 370.371094 322.4375 370.160156 Z M 374.054688 338.738281 C 373.507812 338.445312 372.824219 338.640625 372.523438 339.1875 C 372.226562 339.734375 372.429688 340.417969 372.976562 340.714844 C 373.523438 341.015625 374.207031 340.8125 374.503906 340.265625 C 374.800781 339.71875 374.601562 339.035156 374.054688 338.738281 Z M 292.8125 344.75 C 292.199219 344.839844 291.78125 345.417969 291.875 346.03125 C 291.964844 346.648438 292.542969 347.066406 293.15625 346.972656 C 293.773438 346.878906 294.195312 346.304688 294.101562 345.6875 C 294.007812 345.074219 293.429688 344.65625 292.8125 344.75 Z M 354.972656 339.394531 C 354.425781 339.097656 353.742188 339.300781 353.445312 339.847656 C 353.144531 340.390625 353.34375 341.074219 353.894531 341.375 C 354.4375 341.671875 355.121094 341.46875 355.421875 340.925781 C 355.722656 340.378906 355.519531 339.695312 354.972656 339.394531 Z M 278.835938 325.628906 C 278.339844 325.703125 278 326.164062 278.078125 326.660156 C 278.152344 327.15625 278.613281 327.496094 279.109375 327.417969 C 279.601562 327.34375 279.941406 326.878906 279.867188 326.386719 C 279.789062 325.890625 279.328125 325.554688 278.835938 325.628906 Z M 345.785156 343.15625 C 345.476562 343.097656 345.179688 343.296875 345.121094 343.601562 C 345.0625 343.90625 345.257812 344.203125 345.5625 344.261719 C 345.871094 344.320312 346.167969 344.121094 346.226562 343.820312 C 346.285156 343.511719 346.085938 343.21875 345.785156 343.15625 Z M 363.421875 197.710938 C 363.328125 197.65625 363.222656 197.601562 363.121094 197.574219 C 362.960938 197.535156 362.765625 197.535156 362.597656 197.519531 C 362.371094 197.5 362.085938 197.644531 361.925781 197.796875 C 361.757812 197.964844 361.628906 198.246094 361.640625 198.488281 C 361.652344 198.734375 361.734375 198.988281 361.917969 199.160156 C 362.097656 199.328125 362.351562 199.472656 362.609375 199.449219 C 362.773438 199.433594 362.96875 199.433594 363.125 199.390625 C 363.226562 199.363281 363.328125 199.3125 363.421875 199.261719 C 363.589844 199.160156 363.675781 199.058594 363.792969 198.902344 C 363.945312 198.683594 363.945312 198.289062 363.792969 198.070312 C 363.679688 197.914062 363.59375 197.8125 363.421875 197.710938 Z M 348.6875 210.335938 C 348.386719 210.339844 348.105469 210.503906 347.960938 210.757812 C 347.882812 210.890625 347.847656 211.035156 347.847656 211.1875 C 347.847656 211.332031 347.886719 211.472656 347.957031 211.601562 C 348 211.707031 348.035156 211.816406 348.105469 211.910156 C 348.246094 212.097656 348.429688 212.308594 348.695312 212.296875 C 348.953125 212.285156 349.113281 212.125 349.257812 211.929688 C 349.335938 211.828125 349.375 211.71875 349.421875 211.601562 C 349.5 211.472656 349.535156 211.328125 349.535156 211.175781 C 349.535156 211.03125 349.496094 210.890625 349.425781 210.761719 C 349.277344 210.503906 348.988281 210.335938 348.6875 210.335938 Z M 335.378906 176.476562 C 334.847656 176.453125 334.3125 176.769531 334.253906 177.558594 C 334.253906 177.589844 334.25 177.621094 334.246094 177.652344 C 334.230469 177.917969 334.296875 178.132812 334.417969 178.300781 C 334.699219 179.15625 336.070312 179.144531 336.351562 178.289062 C 336.472656 178.121094 336.535156 177.90625 336.519531 177.640625 C 336.515625 177.609375 336.511719 177.578125 336.507812 177.546875 C 336.457031 176.773438 335.914062 176.457031 335.378906 176.476562 Z M 326.574219 172.007812 C 326.230469 171.742188 325.738281 171.855469 325.417969 172.097656 C 325.359375 172.132812 325.3125 172.179688 325.277344 172.238281 C 325.269531 172.246094 325.265625 172.25 325.261719 172.257812 C 325.253906 172.261719 325.25 172.265625 325.242188 172.269531 C 325.214844 172.285156 325.1875 172.300781 325.160156 172.320312 C 325.03125 172.390625 324.90625 172.460938 324.78125 172.53125 C 324.476562 172.703125 324.367188 173.109375 324.539062 173.410156 C 324.726562 173.734375 325.097656 173.789062 325.417969 173.648438 C 325.582031 173.574219 325.753906 173.488281 325.929688 173.441406 C 326.199219 173.421875 326.441406 173.316406 326.644531 173.085938 C 326.929688 172.757812 326.929688 172.28125 326.574219 172.007812 Z M 319.730469 180.882812 C 319.441406 180.617188 319.054688 180.523438 318.6875 180.675781 C 318.347656 180.816406 318.070312 181.175781 318.089844 181.558594 C 318.105469 181.890625 318.277344 182.214844 318.570312 182.382812 C 318.945312 182.597656 319.410156 182.519531 319.722656 182.238281 C 319.929688 182.046875 320.183594 181.867188 320.183594 181.550781 C 320.179688 181.242188 319.9375 181.070312 319.730469 180.882812 Z M 308.054688 185.082031 C 307.964844 184.90625 307.792969 184.78125 307.617188 184.707031 C 307.601562 184.703125 307.582031 184.699219 307.570312 184.695312 C 307.546875 184.671875 307.527344 184.652344 307.507812 184.632812 C 307.210938 184.347656 306.691406 184.3125 306.402344 184.625 C 306.109375 184.941406 306.089844 185.414062 306.394531 185.730469 C 306.414062 185.75 306.4375 185.773438 306.457031 185.796875 C 306.464844 185.816406 306.46875 185.832031 306.476562 185.851562 C 306.550781 186.023438 306.675781 186.191406 306.84375 186.28125 C 306.886719 186.300781 306.925781 186.324219 306.96875 186.34375 C 307.121094 186.417969 307.253906 186.445312 307.425781 186.457031 C 307.84375 186.488281 308.257812 186.0625 308.230469 185.648438 C 308.21875 185.484375 308.1875 185.355469 308.117188 185.203125 C 308.09375 185.160156 308.074219 185.121094 308.054688 185.082031 Z M 289.5 255.75 C 289.414062 255.441406 289.140625 255.195312 288.796875 255.199219 C 288.457031 255.199219 288.195312 255.4375 288.109375 255.746094 C 288.03125 255.816406 287.964844 255.898438 287.925781 255.976562 C 287.792969 256.230469 287.785156 256.460938 287.824219 256.742188 C 287.867188 257.074219 287.984375 257.285156 288.191406 257.546875 C 288.460938 257.878906 289.132812 257.890625 289.402344 257.554688 C 289.617188 257.285156 289.738281 257.074219 289.785156 256.738281 C 289.816406 256.476562 289.828125 256.21875 289.679688 255.980469 C 289.632812 255.902344 289.570312 255.824219 289.5 255.75 Z M 266.011719 350.242188 C 265.996094 350.03125 265.929688 349.835938 265.78125 349.683594 C 265.640625 349.542969 265.410156 349.4375 265.203125 349.445312 C 264.75 349.46875 264.4375 349.800781 264.410156 350.25 C 264.410156 350.25 264.410156 350.253906 264.410156 350.253906 C 264.285156 350.425781 264.199219 350.652344 264.207031 350.855469 C 264.230469 351.359375 264.574219 351.769531 265.085938 351.835938 C 265.308594 351.863281 265.507812 351.820312 265.703125 351.722656 C 265.921875 351.609375 266.128906 351.339844 266.179688 351.101562 C 266.242188 350.808594 266.179688 350.492188 266.011719 350.257812 C 266.011719 350.253906 266.011719 350.246094 266.011719 350.242188 Z M 317.960938 246.285156 L 317.957031 246.246094 C 317.941406 245.867188 317.632812 245.507812 317.230469 245.523438 C 316.820312 245.542969 316.53125 245.847656 316.511719 246.253906 C 316.511719 246.257812 316.511719 246.261719 316.511719 246.265625 C 316.378906 246.425781 316.300781 246.660156 316.304688 246.859375 C 316.304688 247.347656 316.734375 247.8125 317.238281 247.785156 C 317.726562 247.761719 318.191406 247.371094 318.167969 246.851562 C 318.15625 246.644531 318.097656 246.460938 317.972656 246.296875 C 317.96875 246.292969 317.964844 246.289062 317.960938 246.285156 Z M 328.734375 221.222656 C 329.179688 221.199219 329.535156 220.921875 329.667969 220.492188 C 329.734375 220.277344 329.691406 219.960938 329.570312 219.769531 C 329.539062 219.71875 329.503906 219.671875 329.460938 219.628906 C 329.429688 219.25 329.132812 218.890625 328.726562 218.910156 C 328.308594 218.929688 328.027344 219.230469 327.992188 219.632812 C 327.820312 219.835938 327.734375 220.09375 327.773438 220.378906 C 327.800781 220.59375 327.890625 220.769531 328.035156 220.933594 C 328.191406 221.105469 328.5 221.234375 328.734375 221.222656 Z M 105.265625 152.921875 C 105.136719 152.636719 104.726562 152.5625 104.472656 152.707031 C 104.210938 152.859375 104.09375 153.230469 104.257812 153.5 C 104.398438 153.726562 104.527344 153.976562 104.703125 154.175781 C 104.777344 154.257812 104.84375 154.347656 104.914062 154.429688 C 105.003906 154.535156 105.125 154.601562 105.238281 154.671875 C 105.441406 154.808594 105.695312 154.625 105.699219 154.40625 C 105.710938 153.875 105.476562 153.398438 105.265625 152.921875 Z M 97.644531 140.238281 C 98.164062 140.238281 98.164062 139.433594 97.640625 139.433594 C 97.121094 139.433594 97.125 140.238281 97.644531 140.238281 Z M 85.300781 148.300781 L 85.324219 148.671875 C 85.328125 148.8125 85.335938 148.90625 85.4375 149.011719 C 85.492188 149.066406 85.59375 149.070312 85.648438 149.011719 C 85.753906 148.90625 85.757812 148.808594 85.765625 148.667969 C 85.777344 148.546875 85.785156 148.421875 85.789062 148.296875 C 85.8125 147.984375 85.277344 147.984375 85.300781 148.300781 Z M 94.007812 157.464844 C 93.355469 157.464844 93.359375 158.484375 94.015625 158.484375 C 94.671875 158.484375 94.671875 157.464844 94.007812 157.464844 Z M 106.109375 171.308594 C 105.371094 171.308594 105.375 172.453125 106.117188 172.453125 C 106.851562 172.453125 106.851562 171.308594 106.109375 171.308594 Z M 112.253906 208.675781 C 112.097656 208.65625 111.925781 208.675781 111.789062 208.761719 C 111.632812 208.859375 111.460938 209.03125 111.4375 209.226562 C 111.425781 209.304688 111.414062 209.382812 111.402344 209.464844 C 111.414062 209.542969 111.425781 209.621094 111.4375 209.703125 C 111.445312 209.746094 111.453125 209.789062 111.460938 209.832031 C 111.480469 209.9375 111.496094 210.039062 111.519531 210.144531 C 111.5625 210.421875 111.890625 210.652344 112.167969 210.640625 C 112.445312 210.625 112.757812 210.4375 112.808594 210.140625 C 112.824219 210.042969 112.839844 209.945312 112.859375 209.851562 C 112.882812 209.710938 112.929688 209.550781 112.910156 209.410156 C 112.886719 209.214844 112.847656 209.027344 112.695312 208.886719 C 112.570312 208.769531 112.425781 208.695312 112.253906 208.675781 Z M 101.160156 202.570312 C 101.089844 202.355469 100.90625 202.183594 100.664062 202.195312 C 100.425781 202.207031 100.242188 202.351562 100.175781 202.5625 C 100.054688 202.636719 99.945312 202.730469 99.875 202.867188 C 99.78125 203.046875 99.742188 203.238281 99.769531 203.441406 C 99.828125 203.875 100.21875 204.257812 100.671875 204.234375 C 101.09375 204.210938 101.429688 203.957031 101.550781 203.550781 C 101.613281 203.347656 101.574219 203.050781 101.460938 202.867188 C 101.382812 202.738281 101.277344 202.644531 101.160156 202.570312 Z M 96.429688 209.738281 C 95.351562 209.738281 95.355469 211.414062 96.4375 211.414062 C 97.515625 211.414062 97.511719 209.738281 96.429688 209.738281 Z M 109.132812 201.289062 C 108.070312 201.289062 108.078125 202.9375 109.140625 202.9375 C 110.203125 202.9375 110.199219 201.289062 109.132812 201.289062 Z M 120.625 205.972656 C 119.367188 205.972656 119.375 207.925781 120.632812 207.925781 C 121.890625 207.925781 121.886719 205.972656 120.625 205.972656 Z M 120.679688 215.238281 C 120.835938 215.011719 120.839844 214.609375 120.679688 214.382812 C 120.535156 214.175781 120.355469 213.980469 120.089844 213.9375 C 120.023438 213.925781 119.957031 213.921875 119.886719 213.910156 C 119.726562 213.871094 119.570312 213.871094 119.414062 213.910156 C 119.339844 213.945312 119.265625 213.972656 119.191406 214.003906 C 118.933594 214.136719 118.773438 214.414062 118.738281 214.695312 C 118.707031 214.941406 118.765625 215.164062 118.917969 215.363281 C 119.082031 215.578125 119.375 215.773438 119.65625 215.738281 C 119.738281 215.726562 119.8125 215.71875 119.890625 215.707031 C 120.050781 215.6875 120.1875 215.660156 120.332031 215.589844 C 120.484375 215.511719 120.585938 215.375 120.679688 215.238281 Z M 111.199219 213.746094 C 111.152344 213.765625 111.082031 213.777344 110.996094 213.8125 C 110.878906 213.78125 110.746094 213.773438 110.652344 213.769531 C 110.644531 213.769531 110.644531 213.769531 110.636719 213.769531 C 110.566406 213.746094 110.496094 213.726562 110.425781 213.710938 C 110.292969 213.675781 110.171875 213.660156 110.050781 213.667969 C 109.554688 213.363281 108.921875 213.789062 109.042969 214.402344 C 109.066406 214.511719 109.101562 214.613281 109.148438 214.710938 C 109.300781 215.542969 110.4375 215.871094 111.144531 215.46875 C 111.226562 215.421875 111.308594 215.347656 111.375 215.28125 C 111.425781 215.230469 111.613281 215.03125 111.453125 215.175781 C 111.546875 215.089844 111.628906 215.015625 111.707031 214.910156 C 111.898438 214.65625 111.972656 214.34375 111.890625 214.03125 C 111.804688 213.722656 111.46875 213.613281 111.199219 213.746094 Z M 84.253906 249.570312 C 84.199219 249.546875 84.144531 249.527344 84.089844 249.503906 C 84 249.40625 83.875 249.347656 83.726562 249.355469 C 83.582031 249.363281 83.464844 249.414062 83.375 249.5 C 83.238281 249.558594 83.109375 249.625 82.988281 249.734375 C 82.792969 249.910156 82.675781 250.226562 82.675781 250.488281 C 82.679688 250.75 82.792969 251.03125 82.980469 251.222656 C 83.164062 251.40625 83.46875 251.546875 83.734375 251.535156 C 84 251.523438 84.28125 251.429688 84.46875 251.230469 C 84.65625 251.027344 84.796875 250.757812 84.78125 250.476562 C 84.769531 250.246094 84.703125 250.039062 84.558594 249.855469 C 84.488281 249.734375 84.382812 249.636719 84.253906 249.570312 Z M 73.875 265.332031 C 73.675781 265.664062 73.722656 265.984375 73.777344 266.34375 C 73.804688 266.414062 73.835938 266.488281 73.863281 266.5625 C 73.921875 266.667969 74.003906 266.757812 74.105469 266.820312 C 74.257812 266.941406 74.457031 267.027344 74.660156 267.019531 C 74.816406 267.011719 74.964844 266.96875 75.105469 266.902344 C 75.292969 266.804688 75.503906 266.550781 75.535156 266.339844 C 75.589844 265.988281 75.628906 265.660156 75.441406 265.335938 C 75.09375 264.742188 74.222656 264.734375 73.875 265.332031 Z M 37.339844 143.164062 C 37.328125 143.0625 37.3125 142.957031 37.300781 142.851562 C 37.277344 142.660156 37.234375 142.46875 37.082031 142.328125 C 36.957031 142.210938 36.8125 142.136719 36.636719 142.113281 C 36.480469 142.097656 36.308594 142.113281 36.171875 142.203125 C 36.011719 142.300781 35.835938 142.46875 35.8125 142.667969 C 35.789062 142.839844 35.789062 143.039062 35.734375 143.207031 C 35.578125 143.726562 36.027344 144.253906 36.550781 144.253906 C 37.074219 144.25 37.507812 143.71875 37.351562 143.199219 C 37.347656 143.1875 37.347656 143.175781 37.339844 143.164062 Z M 36.539062 114.160156 C 36.035156 114.1875 35.695312 114.554688 35.664062 115.050781 C 35.640625 115.425781 35.671875 115.84375 35.878906 116.164062 C 35.945312 116.335938 36.011719 116.488281 36.144531 116.648438 C 36.320312 116.863281 36.761719 116.871094 36.941406 116.652344 C 37.074219 116.488281 37.144531 116.332031 37.214844 116.15625 C 37.417969 115.832031 37.449219 115.421875 37.425781 115.042969 C 37.394531 114.582031 37.035156 114.136719 36.539062 114.160156 Z M 12.34375 250.746094 C 11.128906 250.746094 11.132812 252.636719 12.351562 252.636719 C 13.566406 252.636719 13.5625 250.746094 12.34375 250.746094 Z M 1.453125 248.894531 C 0.191406 248.894531 0.195312 250.859375 1.464844 250.859375 C 2.730469 250.859375 2.722656 248.894531 1.453125 248.894531 Z M 3.269531 269.726562 C 3.210938 269.71875 3.152344 269.710938 3.09375 269.703125 C 2.832031 269.664062 2.558594 269.6875 2.371094 269.894531 C 2.230469 270.042969 2.140625 270.230469 2.144531 270.4375 C 2.144531 270.628906 2.226562 270.828125 2.363281 270.96875 C 2.570312 271.175781 2.824219 271.207031 3.097656 271.164062 C 3.15625 271.15625 3.21875 271.152344 3.277344 271.140625 C 3.433594 271.109375 3.546875 271.035156 3.664062 270.925781 C 3.929688 270.683594 3.941406 270.195312 3.675781 269.949219 C 3.550781 269.835938 3.433594 269.761719 3.269531 269.726562 Z M 28.675781 341.578125 C 27.640625 341.578125 27.644531 343.191406 28.683594 343.191406 C 29.722656 343.191406 29.71875 341.578125 28.675781 341.578125 Z M 24.675781 348.15625 C 24.480469 348.046875 24.320312 348.023438 24.109375 347.992188 C 23.929688 347.945312 23.746094 347.945312 23.5625 347.996094 C 23.378906 348.046875 23.21875 348.136719 23.085938 348.269531 C 22.886719 348.480469 22.761719 348.746094 22.761719 349.042969 C 22.765625 349.3125 22.882812 349.601562 23.074219 349.792969 C 23.214844 349.933594 23.378906 350.027344 23.570312 350.078125 C 23.753906 350.125 23.933594 350.125 24.121094 350.078125 C 24.320312 350.050781 24.480469 350.027344 24.667969 349.917969 C 24.992188 349.726562 25.234375 349.425781 25.230469 349.03125 C 25.226562 348.648438 24.992188 348.34375 24.675781 348.15625 Z M 22.628906 337.59375 C 21.90625 337.59375 21.910156 338.710938 22.636719 338.710938 C 23.355469 338.710938 23.351562 337.59375 22.628906 337.59375 Z M 10.933594 351.703125 C 10.914062 351.714844 10.894531 351.726562 10.875 351.742188 C 10.546875 351.683594 10.148438 351.917969 10.09375 352.253906 C 10.070312 352.390625 10.042969 352.527344 10.046875 352.667969 C 10.058594 352.9375 10.265625 353.136719 10.535156 353.148438 C 10.675781 353.15625 10.8125 353.125 10.949219 353.101562 C 11.109375 353.078125 11.300781 352.917969 11.371094 352.777344 C 11.445312 352.640625 11.484375 352.476562 11.453125 352.320312 C 11.46875 352.304688 11.480469 352.28125 11.492188 352.265625 C 11.707031 351.925781 11.273438 351.488281 10.933594 351.703125 Z M 214.363281 74.296875 C 213.769531 74.109375 213.136719 74.4375 212.949219 75.03125 C 212.761719 75.625 213.09375 76.257812 213.683594 76.441406 C 214.277344 76.628906 214.914062 76.300781 215.101562 75.707031 C 215.285156 75.113281 214.957031 74.484375 214.363281 74.296875 Z M 119.285156 116.457031 C 119.101562 117.050781 119.429688 117.683594 120.023438 117.867188 C 120.617188 118.054688 121.25 117.726562 121.4375 117.132812 C 121.625 116.539062 121.292969 115.910156 120.703125 115.722656 C 120.109375 115.535156 119.472656 115.863281 119.285156 116.457031 Z M 116.929688 161.667969 C 116.632812 161.574219 116.316406 161.742188 116.222656 162.035156 C 116.128906 162.332031 116.292969 162.648438 116.59375 162.742188 C 116.886719 162.835938 117.203125 162.667969 117.296875 162.375 C 117.390625 162.078125 117.226562 161.761719 116.929688 161.667969 Z M 48.957031 193.15625 C 49.144531 192.5625 48.8125 191.929688 48.21875 191.742188 C 47.625 191.554688 46.992188 191.886719 46.804688 192.480469 C 46.621094 193.074219 46.949219 193.707031 47.542969 193.894531 C 48.136719 194.082031 48.769531 193.75 48.957031 193.15625 Z M 49.628906 200.570312 C 49.039062 200.386719 48.402344 200.714844 48.21875 201.308594 C 48.03125 201.902344 48.359375 202.535156 48.957031 202.722656 C 49.550781 202.90625 50.179688 202.578125 50.367188 201.984375 C 50.554688 201.390625 50.222656 200.757812 49.628906 200.570312 Z M 16.640625 312.890625 C 16.046875 312.703125 15.414062 313.03125 15.226562 313.625 C 15.042969 314.21875 15.371094 314.851562 15.964844 315.039062 C 16.558594 315.222656 17.191406 314.894531 17.375 314.300781 C 17.566406 313.707031 17.234375 313.078125 16.640625 312.890625 Z M 216.96875 117.015625 C 216.34375 117.003906 215.832031 117.496094 215.820312 118.121094 C 215.808594 118.742188 216.304688 119.257812 216.925781 119.269531 C 217.550781 119.28125 218.0625 118.785156 218.074219 118.164062 C 218.085938 117.542969 217.589844 117.027344 216.96875 117.015625 Z M 227.542969 104.035156 C 227.230469 104.03125 226.972656 104.277344 226.96875 104.589844 C 226.960938 104.902344 227.210938 105.15625 227.519531 105.160156 C 227.832031 105.167969 228.089844 104.921875 228.09375 104.609375 C 228.097656 104.300781 227.851562 104.042969 227.542969 104.035156 Z M 211.578125 188.34375 C 210.675781 188.609375 210.15625 189.554688 210.421875 190.457031 C 210.6875 191.359375 211.636719 191.875 212.539062 191.613281 C 213.441406 191.347656 213.960938 190.398438 213.695312 189.496094 C 213.429688 188.59375 212.480469 188.078125 211.578125 188.34375 Z M 212.226562 114.371094 C 212.824219 114.195312 213.164062 113.570312 212.988281 112.972656 C 212.8125 112.375 212.1875 112.035156 211.589844 112.214844 C 210.992188 112.386719 210.652344 113.011719 210.828125 113.609375 C 211.003906 114.207031 211.628906 114.550781 212.226562 114.371094 Z M 200.726562 208.082031 C 200.128906 208.257812 199.785156 208.886719 199.960938 209.484375 C 200.136719 210.078125 200.765625 210.421875 201.363281 210.246094 C 201.957031 210.070312 202.300781 209.445312 202.125 208.84375 C 201.949219 208.25 201.320312 207.90625 200.726562 208.082031 Z M 186.582031 149.675781 C 185.984375 149.851562 185.644531 150.476562 185.816406 151.074219 C 185.992188 151.671875 186.621094 152.011719 187.21875 151.832031 C 187.816406 151.660156 188.15625 151.035156 187.980469 150.4375 C 187.804688 149.839844 187.175781 149.5 186.582031 149.675781 Z M 192.449219 155.355469 C 192.148438 155.441406 191.980469 155.753906 192.066406 156.054688 C 192.15625 156.351562 192.46875 156.523438 192.765625 156.433594 C 193.066406 156.347656 193.238281 156.035156 193.148438 155.738281 C 193.0625 155.4375 192.75 155.265625 192.449219 155.355469 Z M 216.609375 164.972656 C 216.015625 165.148438 215.671875 165.777344 215.847656 166.375 C 216.027344 166.96875 216.652344 167.3125 217.25 167.136719 C 217.84375 166.960938 218.1875 166.332031 218.011719 165.738281 C 217.835938 165.140625 217.210938 164.800781 216.609375 164.972656 Z M 150.460938 337.875 C 149.867188 337.6875 149.234375 338.015625 149.046875 338.609375 C 148.859375 339.203125 149.191406 339.835938 149.785156 340.019531 C 150.378906 340.207031 151.011719 339.882812 151.199219 339.285156 C 151.386719 338.691406 151.054688 338.0625 150.460938 337.875 Z M 191.011719 369.246094 C 190.503906 369.082031 189.960938 369.367188 189.804688 369.871094 C 189.644531 370.378906 189.929688 370.917969 190.433594 371.078125 C 190.9375 371.238281 191.480469 370.957031 191.640625 370.449219 C 191.796875 369.941406 191.519531 369.402344 191.011719 369.246094 Z M 160.300781 352.386719 C 160.003906 352.292969 159.6875 352.453125 159.59375 352.753906 C 159.5 353.046875 159.664062 353.363281 159.960938 353.457031 C 160.257812 353.550781 160.574219 353.386719 160.667969 353.089844 C 160.761719 352.792969 160.597656 352.476562 160.300781 352.386719 Z M 244.410156 339.546875 C 243.816406 339.359375 243.183594 339.691406 243 340.285156 C 242.8125 340.878906 243.140625 341.511719 243.734375 341.699219 C 244.328125 341.886719 244.960938 341.554688 245.148438 340.960938 C 245.335938 340.367188 245.003906 339.734375 244.410156 339.546875 Z M 339.746094 325.964844 C 338.851562 325.683594 337.894531 326.183594 337.609375 327.078125 C 337.328125 327.976562 337.828125 328.929688 338.722656 329.214844 C 339.621094 329.5 340.578125 329 340.859375 328.101562 C 341.144531 327.203125 340.644531 326.25 339.746094 325.964844 Z M 369.75 263.625 C 369.15625 263.441406 368.523438 263.769531 368.339844 264.363281 C 368.152344 264.953125 368.484375 265.589844 369.074219 265.777344 C 369.667969 265.960938 370.300781 265.632812 370.488281 265.039062 C 370.675781 264.445312 370.34375 263.8125 369.75 263.625 Z M 237.996094 61.488281 C 238.589844 61.675781 239.21875 61.34375 239.40625 60.753906 C 239.59375 60.160156 239.261719 59.523438 238.671875 59.339844 C 238.078125 59.152344 237.441406 59.480469 237.253906 60.074219 C 237.070312 60.671875 237.402344 61.300781 237.996094 61.488281 Z M 348.886719 186.535156 C 348.675781 185.949219 348.03125 185.648438 347.445312 185.855469 C 346.859375 186.070312 346.558594 186.714844 346.769531 187.300781 C 346.980469 187.882812 347.625 188.1875 348.210938 187.976562 C 348.796875 187.765625 349.097656 187.117188 348.886719 186.535156 Z M 326.105469 139.660156 C 326.699219 139.847656 327.332031 139.515625 327.519531 138.925781 C 327.707031 138.332031 327.378906 137.695312 326.78125 137.511719 C 326.1875 137.324219 325.558594 137.65625 325.371094 138.25 C 325.183594 138.84375 325.511719 139.472656 326.105469 139.660156 Z M 292.957031 76.917969 C 293.414062 77.058594 293.898438 76.808594 294.042969 76.351562 C 294.183594 75.898438 293.929688 75.410156 293.476562 75.269531 C 293.023438 75.125 292.535156 75.378906 292.390625 75.832031 C 292.246094 76.289062 292.5 76.773438 292.957031 76.917969 Z M 338.269531 41.238281 C 338.363281 40.941406 338.195312 40.625 337.898438 40.53125 C 337.601562 40.4375 337.285156 40.605469 337.191406 40.902344 C 337.097656 41.199219 337.261719 41.515625 337.5625 41.609375 C 337.855469 41.703125 338.171875 41.535156 338.269531 41.238281 Z M 309.199219 158.429688 C 308.789062 158.300781 308.355469 158.527344 308.222656 158.9375 C 308.097656 159.34375 308.324219 159.78125 308.734375 159.910156 C 309.140625 160.039062 309.582031 159.8125 309.707031 159.402344 C 309.835938 158.996094 309.609375 158.558594 309.199219 158.429688 Z M 180.324219 46.648438 C 179.730469 46.460938 179.09375 46.789062 178.910156 47.382812 C 178.722656 47.976562 179.050781 48.609375 179.648438 48.792969 C 180.242188 48.980469 180.871094 48.652344 181.058594 48.058594 C 181.246094 47.464844 180.917969 46.835938 180.324219 46.648438 Z M 246.320312 101.355469 C 246.023438 101.261719 245.707031 101.429688 245.613281 101.726562 C 245.519531 102.023438 245.683594 102.339844 245.980469 102.433594 C 246.277344 102.527344 246.59375 102.359375 246.6875 102.0625 C 246.78125 101.765625 246.617188 101.449219 246.320312 101.355469 Z M 257.753906 25.710938 C 257.941406 25.117188 257.613281 24.484375 257.015625 24.296875 C 256.425781 24.109375 255.792969 24.441406 255.605469 25.035156 C 255.417969 25.628906 255.75 26.261719 256.34375 26.449219 C 256.9375 26.636719 257.570312 26.304688 257.753906 25.710938 Z M 222.03125 33.625 C 222.625 33.8125 223.261719 33.484375 223.449219 32.890625 C 223.636719 32.296875 223.304688 31.667969 222.710938 31.480469 C 222.113281 31.292969 221.484375 31.621094 221.296875 32.214844 C 221.109375 32.808594 221.441406 33.441406 222.03125 33.625 Z M 147.980469 83.675781 C 147.820312 84.1875 148.105469 84.738281 148.617188 84.898438 C 149.128906 85.058594 149.675781 84.773438 149.839844 84.261719 C 150 83.746094 149.714844 83.199219 149.203125 83.039062 C 148.6875 82.878906 148.140625 83.164062 147.980469 83.675781 Z M 150.390625 55.363281 C 150.683594 55.453125 151.003906 55.289062 151.097656 54.992188 C 151.191406 54.695312 151.023438 54.378906 150.730469 54.285156 C 150.429688 54.191406 150.113281 54.355469 150.019531 54.65625 C 149.925781 54.949219 150.089844 55.269531 150.390625 55.363281 Z M 150.648438 96.488281 C 150.136719 96.328125 149.589844 96.609375 149.429688 97.125 C 149.265625 97.636719 149.554688 98.179688 150.066406 98.34375 C 150.578125 98.503906 151.125 98.222656 151.285156 97.707031 C 151.449219 97.195312 151.164062 96.648438 150.648438 96.488281 Z M 176.179688 35.921875 C 175.585938 35.734375 174.953125 36.066406 174.765625 36.660156 C 174.578125 37.25 174.910156 37.882812 175.503906 38.070312 C 176.097656 38.257812 176.730469 37.929688 176.917969 37.332031 C 177.101562 36.742188 176.773438 36.109375 176.179688 35.921875 Z M 196.488281 63.910156 C 196.191406 63.816406 195.875 63.984375 195.78125 64.277344 C 195.6875 64.574219 195.851562 64.890625 196.152344 64.984375 C 196.445312 65.078125 196.761719 64.914062 196.855469 64.617188 C 196.949219 64.320312 196.785156 64.003906 196.488281 63.910156 Z M 226.257812 41.046875 C 225.960938 40.953125 225.644531 41.117188 225.550781 41.414062 C 225.457031 41.710938 225.621094 42.027344 225.917969 42.121094 C 226.214844 42.214844 226.53125 42.050781 226.625 41.753906 C 226.71875 41.457031 226.554688 41.140625 226.257812 41.046875 Z M 178.28125 103.671875 C 177.980469 103.582031 177.667969 103.742188 177.574219 104.042969 C 177.480469 104.335938 177.644531 104.65625 177.941406 104.75 C 178.234375 104.84375 178.554688 104.675781 178.648438 104.378906 C 178.742188 104.082031 178.574219 103.765625 178.28125 103.671875 Z M 193.457031 99.953125 C 192.589844 99.675781 191.667969 100.160156 191.390625 101.027344 C 191.121094 101.894531 191.601562 102.816406 192.46875 103.09375 C 193.335938 103.363281 194.261719 102.882812 194.535156 102.015625 C 194.804688 101.148438 194.324219 100.222656 193.457031 99.953125 Z M 278.515625 114.949219 C 279.113281 115.132812 279.742188 114.808594 279.929688 114.214844 C 280.117188 113.617188 279.785156 112.988281 279.195312 112.800781 C 278.601562 112.613281 277.964844 112.945312 277.777344 113.535156 C 277.59375 114.128906 277.921875 114.761719 278.515625 114.949219 Z M 286.335938 107.949219 C 285.851562 107.800781 285.335938 108.066406 285.183594 108.550781 C 285.035156 109.03125 285.300781 109.546875 285.785156 109.699219 C 286.265625 109.851562 286.78125 109.582031 286.933594 109.097656 C 287.085938 108.617188 286.816406 108.101562 286.335938 107.949219 Z M 309.53125 100.675781 C 308.9375 100.488281 308.304688 100.820312 308.117188 101.414062 C 307.933594 102.003906 308.257812 102.640625 308.851562 102.828125 C 309.445312 103.011719 310.078125 102.683594 310.265625 102.089844 C 310.453125 101.496094 310.125 100.863281 309.53125 100.675781 Z M 365.417969 245.042969 C 364.824219 244.855469 364.191406 245.183594 364.003906 245.777344 C 363.816406 246.371094 364.148438 247.003906 364.742188 247.191406 C 365.335938 247.375 365.96875 247.046875 366.15625 246.453125 C 366.34375 245.859375 366.011719 245.226562 365.417969 245.042969 Z M 11.230469 305.511719 C 10.636719 305.324219 10.003906 305.652344 9.816406 306.246094 C 9.628906 306.839844 9.957031 307.472656 10.550781 307.660156 C 11.148438 307.84375 11.777344 307.515625 11.964844 306.925781 C 12.152344 306.332031 11.824219 305.699219 11.230469 305.511719 Z M 307.234375 133.898438 C 307.394531 133.394531 307.109375 132.851562 306.605469 132.691406 C 306.097656 132.535156 305.558594 132.816406 305.398438 133.324219 C 305.238281 133.828125 305.519531 134.371094 306.027344 134.527344 C 306.535156 134.6875 307.074219 134.40625 307.234375 133.898438 Z M 364.40625 170.285156 C 364.878906 170.117188 365.125 169.597656 364.953125 169.128906 C 364.78125 168.660156 364.265625 168.414062 363.792969 168.585938 C 363.324219 168.753906 363.082031 169.273438 363.25 169.746094 C 363.421875 170.210938 363.941406 170.457031 364.40625 170.285156 Z M 307.265625 337.171875 C 306.671875 336.984375 306.039062 337.316406 305.851562 337.910156 C 305.667969 338.503906 305.996094 339.132812 306.589844 339.320312 C 307.183594 339.507812 307.816406 339.175781 308.003906 338.582031 C 308.1875 337.992188 307.863281 337.359375 307.265625 337.171875 Z M 328.097656 280.796875 C 327.503906 280.609375 326.871094 280.941406 326.683594 281.535156 C 326.496094 282.128906 326.824219 282.761719 327.421875 282.945312 C 328.015625 283.132812 328.644531 282.800781 328.832031 282.207031 C 329.019531 281.617188 328.691406 280.984375 328.097656 280.796875 Z M 329.800781 288.78125 C 329.503906 288.6875 329.1875 288.851562 329.09375 289.148438 C 329 289.449219 329.164062 289.765625 329.460938 289.855469 C 329.761719 289.949219 330.074219 289.785156 330.167969 289.488281 C 330.261719 289.191406 330.097656 288.875 329.800781 288.78125 Z M 344.496094 310.230469 C 343.902344 310.042969 343.269531 310.375 343.082031 310.96875 C 342.894531 311.5625 343.226562 312.195312 343.820312 312.378906 C 344.414062 312.566406 345.046875 312.234375 345.234375 311.640625 C 345.421875 311.050781 345.089844 310.417969 344.496094 310.230469 Z M 243.609375 301.121094 C 243.796875 300.527344 243.464844 299.894531 242.875 299.707031 C 242.277344 299.519531 241.644531 299.851562 241.457031 300.445312 C 241.273438 301.039062 241.601562 301.671875 242.195312 301.859375 C 242.789062 302.046875 243.421875 301.714844 243.609375 301.121094 Z M 243.058594 194.839844 C 243.246094 194.246094 242.914062 193.613281 242.320312 193.425781 C 241.726562 193.238281 241.097656 193.570312 240.910156 194.164062 C 240.722656 194.757812 241.050781 195.390625 241.644531 195.578125 C 242.238281 195.761719 242.871094 195.433594 243.058594 194.839844 Z M 153.566406 272.566406 C 152.617188 272.269531 151.601562 272.800781 151.304688 273.75 C 151.007812 274.699219 151.535156 275.710938 152.484375 276.011719 C 153.433594 276.308594 154.449219 275.78125 154.746094 274.832031 C 155.046875 273.878906 154.519531 272.867188 153.566406 272.566406 Z M 222.019531 240.097656 C 221.726562 240.003906 221.410156 240.167969 221.316406 240.46875 C 221.222656 240.761719 221.386719 241.082031 221.683594 241.175781 C 221.980469 241.269531 222.300781 241.101562 222.390625 240.804688 C 222.484375 240.507812 222.320312 240.191406 222.019531 240.097656 Z M 284.222656 139.789062 C 283.441406 139.542969 282.609375 139.976562 282.363281 140.753906 C 282.121094 141.535156 282.554688 142.367188 283.332031 142.609375 C 284.113281 142.855469 284.941406 142.421875 285.1875 141.644531 C 285.433594 140.863281 285 140.035156 284.222656 139.789062 Z M 230.585938 353.371094 C 230.289062 353.277344 229.972656 353.441406 229.878906 353.742188 C 229.785156 354.035156 229.949219 354.355469 230.246094 354.449219 C 230.542969 354.539062 230.859375 354.375 230.953125 354.078125 C 231.046875 353.78125 230.878906 353.464844 230.585938 353.371094 Z M 249.730469 157.3125 C 249.433594 157.222656 249.117188 157.386719 249.023438 157.683594 C 248.929688 157.980469 249.097656 158.296875 249.390625 158.390625 C 249.691406 158.484375 250.003906 158.316406 250.097656 158.019531 C 250.191406 157.722656 250.027344 157.40625 249.730469 157.3125 Z M 203.90625 277.660156 C 203.613281 277.566406 203.296875 277.730469 203.203125 278.027344 C 203.109375 278.324219 203.273438 278.640625 203.570312 278.734375 C 203.867188 278.828125 204.1875 278.664062 204.277344 278.367188 C 204.371094 278.070312 204.207031 277.753906 203.90625 277.660156 Z M 206.25 241.292969 C 205.953125 241.199219 205.636719 241.363281 205.542969 241.664062 C 205.453125 241.957031 205.613281 242.273438 205.914062 242.367188 C 206.207031 242.460938 206.523438 242.296875 206.617188 242 C 206.710938 241.703125 206.546875 241.386719 206.25 241.292969 Z M 97.644531 179.339844 C 97.007812 179.140625 96.332031 179.492188 96.132812 180.128906 C 95.9375 180.761719 96.285156 181.4375 96.921875 181.636719 C 97.554688 181.835938 98.230469 181.484375 98.429688 180.847656 C 98.628906 180.214844 98.277344 179.539062 97.644531 179.339844 Z M 166.007812 82.582031 C 165.414062 82.398438 164.777344 82.726562 164.59375 83.320312 C 164.40625 83.914062 164.734375 84.546875 165.328125 84.734375 C 165.921875 84.917969 166.554688 84.589844 166.742188 83.996094 C 166.925781 83.402344 166.601562 82.769531 166.007812 82.582031 Z M 133.960938 172.917969 C 133.871094 173.210938 134.03125 173.53125 134.332031 173.625 C 134.625 173.714844 134.941406 173.550781 135.035156 173.257812 C 135.128906 172.957031 134.964844 172.644531 134.667969 172.550781 C 134.371094 172.457031 134.054688 172.621094 133.960938 172.917969 Z M 173.582031 68.226562 C 173.289062 68.132812 172.96875 68.300781 172.878906 68.597656 C 172.785156 68.894531 172.949219 69.210938 173.246094 69.304688 C 173.542969 69.398438 173.859375 69.234375 173.949219 68.933594 C 174.042969 68.640625 173.882812 68.320312 173.582031 68.226562 Z M 134.046875 135.351562 C 134.234375 134.757812 133.902344 134.125 133.3125 133.941406 C 132.71875 133.753906 132.082031 134.082031 131.894531 134.675781 C 131.710938 135.269531 132.039062 135.898438 132.632812 136.085938 C 133.226562 136.273438 133.859375 135.945312 134.046875 135.351562 Z M 135.230469 197.734375 C 134.636719 197.546875 134.007812 197.878906 133.820312 198.472656 C 133.632812 199.066406 133.960938 199.699219 134.554688 199.886719 C 135.148438 200.070312 135.78125 199.738281 135.96875 199.144531 C 136.15625 198.554688 135.824219 197.921875 135.230469 197.734375 Z M 61.039062 166.152344 C 60.742188 166.058594 60.425781 166.226562 60.332031 166.519531 C 60.238281 166.816406 60.40625 167.132812 60.699219 167.226562 C 60.996094 167.320312 61.3125 167.152344 61.40625 166.859375 C 61.5 166.5625 61.335938 166.246094 61.039062 166.152344 Z M 290.265625 129.390625 C 289.644531 129.390625 289.140625 129.894531 289.140625 130.515625 C 289.140625 131.136719 289.644531 131.644531 290.265625 131.644531 C 290.886719 131.644531 291.394531 131.136719 291.394531 130.515625 C 291.394531 129.894531 290.886719 129.390625 290.265625 129.390625 Z M 222.625 52.523438 C 222 52.523438 221.496094 53.027344 221.496094 53.648438 C 221.496094 54.269531 222 54.773438 222.625 54.773438 C 223.246094 54.773438 223.75 54.269531 223.75 53.648438 C 223.75 53.027344 223.246094 52.523438 222.625 52.523438 Z M 178.203125 63.277344 C 177.890625 63.277344 177.640625 63.53125 177.640625 63.839844 C 177.640625 64.152344 177.890625 64.402344 178.203125 64.402344 C 178.515625 64.402344 178.765625 64.152344 178.765625 63.839844 C 178.765625 63.53125 178.515625 63.277344 178.203125 63.277344 Z M 128.316406 8.484375 C 128.9375 8.484375 129.441406 7.980469 129.441406 7.355469 C 129.441406 6.734375 128.9375 6.230469 128.316406 6.230469 C 127.691406 6.230469 127.1875 6.734375 127.1875 7.355469 C 127.1875 7.980469 127.691406 8.484375 128.316406 8.484375 Z M 120.3125 12.476562 C 120.933594 12.476562 121.441406 11.976562 121.441406 11.351562 C 121.441406 10.730469 120.933594 10.226562 120.3125 10.226562 C 119.691406 10.226562 119.1875 10.730469 119.1875 11.351562 C 119.1875 11.976562 119.691406 12.476562 120.3125 12.476562 Z M 3.21875 14.730469 C 3.839844 14.730469 4.347656 14.226562 4.347656 13.605469 C 4.347656 12.984375 3.839844 12.476562 3.21875 12.476562 C 2.59375 12.476562 2.09375 12.984375 2.09375 13.605469 C 2.09375 14.226562 2.59375 14.730469 3.21875 14.730469 Z M 19.535156 147.566406 C 18.910156 147.566406 18.40625 148.066406 18.40625 148.691406 C 18.40625 149.3125 18.910156 149.816406 19.535156 149.816406 C 20.15625 149.816406 20.660156 149.3125 20.660156 148.691406 C 20.660156 148.066406 20.15625 147.566406 19.535156 147.566406 Z M 1.925781 197.726562 C 2.457031 197.726562 2.886719 197.296875 2.886719 196.765625 C 2.886719 196.234375 2.457031 195.804688 1.925781 195.804688 C 1.398438 195.804688 0.964844 196.234375 0.964844 196.765625 C 0.964844 197.296875 1.398438 197.726562 1.925781 197.726562 Z M 9.199219 161.863281 C 8.886719 161.863281 8.636719 162.113281 8.636719 162.425781 C 8.636719 162.738281 8.886719 162.988281 9.199219 162.988281 C 9.511719 162.988281 9.765625 162.738281 9.765625 162.425781 C 9.765625 162.113281 9.511719 161.863281 9.199219 161.863281 Z M 46.128906 237.640625 C 45.507812 237.640625 45 238.144531 45 238.765625 C 45 239.390625 45.507812 239.894531 46.128906 239.894531 C 46.75 239.894531 47.253906 239.390625 47.253906 238.765625 C 47.253906 238.144531 46.75 237.640625 46.128906 237.640625 Z M 82.558594 312.261719 C 81.621094 312.261719 80.859375 313.023438 80.859375 313.964844 C 80.859375 314.90625 81.621094 315.667969 82.558594 315.667969 C 83.5 315.667969 84.265625 314.90625 84.265625 313.964844 C 84.265625 313.023438 83.5 312.261719 82.558594 312.261719 Z M 156.199219 334.359375 C 155.578125 334.359375 155.074219 334.863281 155.074219 335.488281 C 155.074219 336.109375 155.578125 336.613281 156.199219 336.613281 C 156.824219 336.613281 157.328125 336.109375 157.328125 335.488281 C 157.328125 334.863281 156.824219 334.359375 156.199219 334.359375 Z M 184.214844 349.789062 C 183.59375 349.789062 183.089844 350.292969 183.089844 350.914062 C 183.089844 351.539062 183.59375 352.039062 184.214844 352.039062 C 184.839844 352.039062 185.339844 351.539062 185.339844 350.914062 C 185.339844 350.292969 184.839844 349.789062 184.214844 349.789062 Z M 312.960938 149.203125 C 312.960938 148.582031 312.457031 148.078125 311.832031 148.078125 C 311.214844 148.078125 310.707031 148.582031 310.707031 149.203125 C 310.707031 149.828125 311.214844 150.332031 311.832031 150.332031 C 312.457031 150.332031 312.960938 149.828125 312.960938 149.203125 Z M 205.226562 344.125 C 204.902344 344.375 204.839844 344.832031 205.085938 345.15625 C 205.335938 345.480469 205.796875 345.539062 206.117188 345.292969 C 206.4375 345.050781 206.503906 344.585938 206.253906 344.265625 C 206.007812 343.941406 205.546875 343.878906 205.226562 344.125 Z M 223.277344 290.667969 C 222.78125 291.046875 222.6875 291.753906 223.066406 292.246094 C 223.441406 292.742188 224.148438 292.835938 224.644531 292.460938 C 225.136719 292.082031 225.234375 291.375 224.855469 290.878906 C 224.480469 290.386719 223.773438 290.292969 223.277344 290.667969 Z M 264.796875 256.671875 C 264.796875 256.050781 264.292969 255.542969 263.671875 255.542969 C 263.046875 255.542969 262.542969 256.050781 262.542969 256.671875 C 262.542969 257.292969 263.046875 257.800781 263.671875 257.800781 C 264.292969 257.800781 264.796875 257.292969 264.796875 256.671875 Z M 313.339844 205.375 C 312.863281 205.375 312.476562 205.761719 312.476562 206.238281 C 312.476562 206.714844 312.863281 207.105469 313.339844 207.105469 C 313.820312 207.105469 314.203125 206.714844 314.203125 206.238281 C 314.203125 205.761719 313.820312 205.375 313.339844 205.375 Z M 212.5 360.777344 C 212.179688 361.023438 212.117188 361.484375 212.363281 361.804688 C 212.609375 362.128906 213.070312 362.191406 213.394531 361.945312 C 213.71875 361.703125 213.777344 361.238281 213.535156 360.917969 C 213.285156 360.59375 212.824219 360.53125 212.5 360.777344 Z M 360.125 237.605469 C 359.8125 237.605469 359.5625 237.859375 359.5625 238.167969 C 359.5625 238.480469 359.8125 238.730469 360.125 238.730469 C 360.4375 238.730469 360.6875 238.480469 360.6875 238.167969 C 360.6875 237.859375 360.4375 237.605469 360.125 237.605469 Z M 242.722656 321.429688 C 241.808594 322.128906 241.632812 323.4375 242.332031 324.351562 C 243.03125 325.269531 244.339844 325.441406 245.253906 324.746094 C 246.171875 324.046875 246.347656 322.738281 245.648438 321.824219 C 244.953125 320.90625 243.640625 320.730469 242.722656 321.429688 Z M 238.777344 245.410156 C 238.347656 245.410156 238.003906 245.757812 238.003906 246.183594 C 238.003906 246.613281 238.347656 246.960938 238.777344 246.960938 C 239.207031 246.960938 239.554688 246.613281 239.554688 246.183594 C 239.554688 245.757812 239.207031 245.410156 238.777344 245.410156 Z M 299.933594 89.882812 C 299.3125 89.882812 298.804688 90.390625 298.804688 91.011719 C 298.804688 91.632812 299.3125 92.136719 299.933594 92.136719 C 300.558594 92.136719 301.058594 91.632812 301.058594 91.011719 C 301.058594 90.390625 300.558594 89.882812 299.933594 89.882812 Z M 274.589844 169.667969 C 274.902344 169.667969 275.152344 169.417969 275.152344 169.109375 C 275.152344 168.796875 274.902344 168.542969 274.589844 168.542969 C 274.28125 168.542969 274.027344 168.796875 274.027344 169.109375 C 274.027344 169.417969 274.28125 169.667969 274.589844 169.667969 Z M 350.78125 155.054688 C 350.160156 155.054688 349.65625 155.5625 349.65625 156.183594 C 349.65625 156.804688 350.160156 157.308594 350.78125 157.308594 C 351.402344 157.308594 351.910156 156.804688 351.910156 156.183594 C 351.910156 155.5625 351.402344 155.054688 350.78125 155.054688 Z M 334.761719 125.625 C 334.761719 125.007812 334.257812 124.5 333.636719 124.5 C 333.011719 124.5 332.507812 125.007812 332.507812 125.625 C 332.507812 126.246094 333.011719 126.753906 333.636719 126.753906 C 334.257812 126.753906 334.761719 126.246094 334.761719 125.625 Z M 262.519531 71.988281 C 263.054688 71.988281 263.492188 71.550781 263.492188 71.015625 C 263.492188 70.476562 263.054688 70.042969 262.519531 70.042969 C 261.980469 70.042969 261.546875 70.476562 261.546875 71.015625 C 261.546875 71.550781 261.980469 71.988281 262.519531 71.988281 Z M 290.828125 63.277344 C 290.515625 63.277344 290.265625 63.53125 290.265625 63.839844 C 290.265625 64.152344 290.515625 64.402344 290.828125 64.402344 C 291.140625 64.402344 291.394531 64.152344 291.394531 63.839844 C 291.394531 63.53125 291.140625 63.277344 290.828125 63.277344 Z M 250.121094 75.457031 C 249.582031 75.457031 249.144531 75.894531 249.144531 76.429688 C 249.144531 76.96875 249.582031 77.40625 250.121094 77.40625 C 250.65625 77.40625 251.09375 76.96875 251.09375 76.429688 C 251.09375 75.894531 250.65625 75.457031 250.121094 75.457031 Z M 316.558594 82.59375 C 316.558594 81.972656 316.050781 81.472656 315.429688 81.472656 C 314.804688 81.472656 314.304688 81.972656 314.304688 82.59375 C 314.304688 83.21875 314.804688 83.722656 315.429688 83.722656 C 316.050781 83.722656 316.558594 83.21875 316.558594 82.59375 Z M 295.375 109.792969 C 295.066406 109.792969 294.8125 110.046875 294.8125 110.359375 C 294.8125 110.671875 295.066406 110.921875 295.375 110.921875 C 295.6875 110.921875 295.9375 110.671875 295.9375 110.359375 C 295.9375 110.046875 295.6875 109.792969 295.375 109.792969 Z M 326.132812 132.445312 C 326.441406 132.445312 326.695312 132.191406 326.695312 131.878906 C 326.695312 131.566406 326.441406 131.316406 326.132812 131.316406 C 325.820312 131.316406 325.570312 131.566406 325.570312 131.878906 C 325.570312 132.191406 325.820312 132.445312 326.132812 132.445312 Z M 251.964844 104.367188 C 251.652344 104.367188 251.398438 104.621094 251.398438 104.929688 C 251.398438 105.238281 251.652344 105.492188 251.964844 105.492188 C 252.273438 105.492188 252.527344 105.238281 252.527344 104.929688 C 252.527344 104.621094 252.273438 104.367188 251.964844 104.367188 Z M 258.988281 116.640625 C 258.074219 116.640625 257.339844 117.375 257.339844 118.285156 C 257.339844 119.195312 258.074219 119.929688 258.988281 119.929688 C 259.894531 119.929688 260.632812 119.195312 260.632812 118.285156 C 260.632812 117.375 259.894531 116.640625 258.988281 116.640625 Z M 272.972656 202.757812 C 272.351562 202.757812 271.84375 203.261719 271.84375 203.882812 C 271.84375 204.503906 272.351562 205.011719 272.972656 205.011719 C 273.59375 205.011719 274.097656 204.503906 274.097656 203.882812 C 274.097656 203.261719 273.59375 202.757812 272.972656 202.757812 Z M 280.867188 209.238281 C 280.867188 208.730469 280.460938 208.324219 279.957031 208.324219 C 279.449219 208.324219 279.039062 208.730469 279.039062 209.238281 C 279.039062 209.742188 279.449219 210.152344 279.957031 210.152344 C 280.460938 210.152344 280.867188 209.742188 280.867188 209.238281 Z M 236.234375 337.621094 C 235.742188 338 235.648438 338.707031 236.023438 339.203125 C 236.402344 339.695312 237.109375 339.792969 237.601562 339.414062 C 238.097656 339.035156 238.195312 338.328125 237.816406 337.835938 C 237.441406 337.34375 236.730469 337.246094 236.234375 337.621094 Z M 293.648438 228.042969 C 293.023438 228.042969 292.519531 228.546875 292.519531 229.171875 C 292.519531 229.792969 293.023438 230.292969 293.648438 230.292969 C 294.269531 230.292969 294.773438 229.792969 294.773438 229.171875 C 294.773438 228.546875 294.269531 228.042969 293.648438 228.042969 Z M 172.640625 324.652344 C 172.015625 324.652344 171.511719 325.15625 171.511719 325.777344 C 171.511719 326.402344 172.015625 326.902344 172.640625 326.902344 C 173.261719 326.902344 173.765625 326.402344 173.765625 325.777344 C 173.765625 325.15625 173.261719 324.652344 172.640625 324.652344 Z M 8.636719 5.105469 C 8.015625 5.105469 7.507812 5.609375 7.507812 6.230469 C 7.507812 6.851562 8.015625 7.355469 8.636719 7.355469 C 9.257812 7.355469 9.765625 6.851562 9.765625 6.230469 C 9.765625 5.609375 9.257812 5.105469 8.636719 5.105469 Z M 263.339844 235.988281 C 263.339844 235.457031 262.90625 235.027344 262.378906 235.027344 C 261.847656 235.027344 261.417969 235.457031 261.417969 235.988281 C 261.417969 236.519531 261.847656 236.949219 262.378906 236.949219 C 262.90625 236.949219 263.339844 236.519531 263.339844 235.988281 Z M 244.976562 301.113281 C 244.582031 301.417969 244.503906 301.988281 244.808594 302.382812 C 245.113281 302.777344 245.679688 302.859375 246.078125 302.554688 C 246.472656 302.25 246.550781 301.683594 246.246094 301.285156 C 245.945312 300.886719 245.375 300.8125 244.976562 301.113281 Z M 67.257812 296.855469 C 66.636719 296.855469 66.128906 297.359375 66.128906 297.980469 C 66.128906 298.605469 66.636719 299.109375 67.257812 299.109375 C 67.882812 299.109375 68.386719 298.605469 68.386719 297.980469 C 68.386719 297.359375 67.882812 296.855469 67.257812 296.855469 Z M 127.3125 299.800781 C 126.691406 299.800781 126.1875 300.300781 126.1875 300.921875 C 126.1875 301.546875 126.691406 302.050781 127.3125 302.050781 C 127.9375 302.050781 128.441406 301.546875 128.441406 300.921875 C 128.441406 300.300781 127.9375 299.800781 127.3125 299.800781 Z M 120.769531 304.382812 C 120.457031 304.382812 120.203125 304.632812 120.203125 304.945312 C 120.203125 305.257812 120.457031 305.507812 120.769531 305.507812 C 121.078125 305.507812 121.328125 305.257812 121.328125 304.945312 C 121.328125 304.632812 121.078125 304.382812 120.769531 304.382812 Z M 104.144531 324.269531 C 103.519531 324.269531 103.015625 324.769531 103.015625 325.394531 C 103.015625 326.015625 103.519531 326.519531 104.144531 326.519531 C 104.765625 326.519531 105.269531 326.015625 105.269531 325.394531 C 105.269531 324.769531 104.765625 324.269531 104.144531 324.269531 Z M 83.6875 224.21875 C 83.066406 224.21875 82.558594 224.722656 82.558594 225.347656 C 82.558594 225.964844 83.066406 226.472656 83.6875 226.472656 C 84.3125 226.472656 84.816406 225.964844 84.816406 225.347656 C 84.816406 224.722656 84.3125 224.21875 83.6875 224.21875 Z M 184.957031 191.800781 C 184.335938 191.800781 183.832031 192.304688 183.832031 192.921875 C 183.832031 193.546875 184.335938 194.050781 184.957031 194.050781 C 185.582031 194.050781 186.085938 193.546875 186.085938 192.921875 C 186.085938 192.304688 185.582031 191.800781 184.957031 191.800781 Z M 83.917969 132.054688 C 83.917969 131.058594 83.109375 130.25 82.113281 130.25 C 81.117188 130.25 80.308594 131.058594 80.308594 132.054688 C 80.308594 133.050781 81.117188 133.859375 82.113281 133.859375 C 83.109375 133.859375 83.917969 133.050781 83.917969 132.054688 Z M 134.324219 187.578125 C 134.324219 187.886719 134.578125 188.140625 134.886719 188.140625 C 135.199219 188.140625 135.449219 187.886719 135.449219 187.578125 C 135.449219 187.265625 135.199219 187.015625 134.886719 187.015625 C 134.578125 187.015625 134.324219 187.265625 134.324219 187.578125 Z M 248.371094 215.300781 C 247.554688 215.300781 246.890625 215.960938 246.890625 216.777344 C 246.890625 217.59375 247.554688 218.253906 248.371094 218.253906 C 249.191406 218.253906 249.851562 217.59375 249.851562 216.777344 C 249.851562 215.960938 249.191406 215.300781 248.371094 215.300781 Z M 29.347656 229.171875 C 29.039062 229.171875 28.785156 229.421875 28.785156 229.734375 C 28.785156 230.042969 29.039062 230.292969 29.347656 230.292969 C 29.660156 230.292969 29.914062 230.042969 29.914062 229.734375 C 29.914062 229.421875 29.660156 229.171875 29.347656 229.171875 Z M 222.207031 188.589844 C 221.898438 188.589844 221.648438 188.839844 221.648438 189.152344 C 221.648438 189.460938 221.898438 189.714844 222.207031 189.714844 C 222.519531 189.714844 222.773438 189.460938 222.773438 189.152344 C 222.773438 188.839844 222.519531 188.589844 222.207031 188.589844 Z M 93.601562 181.015625 C 93.289062 181.015625 93.039062 181.269531 93.039062 181.578125 C 93.039062 181.890625 93.289062 182.144531 93.601562 182.144531 C 93.914062 182.144531 94.167969 181.890625 94.167969 181.578125 C 94.167969 181.269531 93.914062 181.015625 93.601562 181.015625 Z M 129.015625 172.332031 C 128.703125 172.332031 128.449219 172.585938 128.449219 172.898438 C 128.449219 173.210938 128.703125 173.460938 129.015625 173.460938 C 129.324219 173.460938 129.574219 173.210938 129.574219 172.898438 C 129.574219 172.585938 129.324219 172.332031 129.015625 172.332031 Z M 156.113281 50.757812 C 156.113281 50.089844 155.570312 49.554688 154.910156 49.554688 C 154.242188 49.554688 153.703125 50.089844 153.703125 50.757812 C 153.703125 51.421875 154.242188 51.960938 154.910156 51.960938 C 155.570312 51.960938 156.113281 51.421875 156.113281 50.757812 Z M 267.84375 85.773438 C 267.222656 85.773438 266.714844 86.277344 266.714844 86.898438 C 266.714844 87.519531 267.222656 88.027344 267.84375 88.027344 C 268.464844 88.027344 268.96875 87.519531 268.96875 86.898438 C 268.96875 86.277344 268.464844 85.773438 267.84375 85.773438 Z M 173.140625 84.582031 C 173.453125 84.582031 173.707031 84.332031 173.707031 84.019531 C 173.707031 83.707031 173.453125 83.457031 173.140625 83.457031 C 172.832031 83.457031 172.578125 83.707031 172.578125 84.019531 C 172.578125 84.332031 172.832031 84.582031 173.140625 84.582031 Z M 284.382812 90.382812 C 284.691406 90.382812 284.945312 90.128906 284.945312 89.816406 C 284.945312 89.503906 284.691406 89.253906 284.382812 89.253906 C 284.070312 89.253906 283.816406 89.503906 283.816406 89.816406 C 283.816406 90.128906 284.070312 90.382812 284.382812 90.382812 Z M 209.015625 70.011719 C 208.394531 70.011719 207.890625 70.515625 207.890625 71.136719 C 207.890625 71.761719 208.394531 72.265625 209.015625 72.265625 C 209.640625 72.265625 210.144531 71.761719 210.144531 71.136719 C 210.144531 70.515625 209.640625 70.011719 209.015625 70.011719 Z M 149.835938 92.117188 C 149.835938 91.496094 149.332031 90.988281 148.707031 90.988281 C 148.085938 90.988281 147.582031 91.496094 147.582031 92.117188 C 147.582031 92.738281 148.085938 93.242188 148.707031 93.242188 C 149.332031 93.242188 149.835938 92.738281 149.835938 92.117188 Z M 157.714844 11.898438 C 157.714844 12.210938 157.464844 12.464844 157.148438 12.464844 C 156.839844 12.464844 156.589844 12.210938 156.589844 11.898438 C 156.589844 11.589844 156.839844 11.335938 157.148438 11.335938 C 157.464844 11.335938 157.714844 11.589844 157.714844 11.898438 " fill-opacity="1" fill-rule="nonzero"/></svg>