<svg width="52" height="58" viewBox="0 0 52 58" fill="none" xmlns="http://www.w3.org/2000/svg">
<circle cx="30.5616" cy="36.5412" r="20.5959" fill="#192A51"/>
<circle cx="23.5856" cy="23.5856" r="22.0856" fill="#FB6FC6" stroke="black" stroke-width="3"/>
<path d="M15.715 17.4403L23.285 9.31029C23.3767 9.21314 23.4872 9.13557 23.6097 9.08225C23.7322 9.02893 23.8643 9.00096 23.9979 9.00002C24.1315 8.99909 24.2639 9.02521 24.3871 9.07682C24.5104 9.12842 24.6219 9.20444 24.715 9.30029L32.285 17.4303C32.845 18.0263 32.405 18.9933 31.575 18.9933H27.935C27.585 18.9933 27.295 19.2773 27.295 19.6183V24.8133C27.295 25.4583 26.765 25.9763 26.105 25.9763H21.885C21.235 25.9763 20.695 25.4583 20.705 24.8233V19.6283C20.7018 19.4609 20.6329 19.3015 20.5132 19.1845C20.3934 19.0676 20.2324 19.0025 20.065 19.0033H16.425C15.595 19.0033 15.155 18.0463 15.715 17.4403ZM20.44 27.8183H14C13.45 27.8183 13 28.2683 13 28.8183C13 29.3683 13.45 29.8183 14 29.8183H16.22V35.9883C16.22 36.5383 16.67 36.9883 17.22 36.9883C17.77 36.9883 18.22 36.5383 18.22 35.9883V29.8183H20.44C20.99 29.8183 21.44 29.3683 21.44 28.8183C21.44 28.2583 20.99 27.8183 20.44 27.8183ZM29.83 27.8283H32.6C34.11 27.8283 35.34 29.0583 35.34 30.5683C35.34 32.0783 34.11 33.3083 32.6 33.3083H30.83V35.9983C30.83 36.5483 30.38 36.9983 29.83 36.9983C29.28 36.9983 28.83 36.5483 28.83 35.9983V28.8283C28.83 28.2783 29.28 27.8283 29.83 27.8283ZM30.83 31.3083H32.6C33.01 31.3083 33.34 30.9783 33.34 30.5683C33.34 30.1583 33.01 29.8283 32.6 29.8283H30.83V31.3083ZM21.44 33.8583C21.44 35.5883 22.85 36.9983 24.59 36.9983C26.32 36.9983 27.74 35.5883 27.74 33.8583V30.9783C27.74 29.2483 26.33 27.8383 24.59 27.8383C22.85 27.8383 21.44 29.2483 21.44 30.9783V33.8583ZM23.44 30.9783C23.44 30.6733 23.5612 30.3808 23.7768 30.1651C23.9925 29.9495 24.285 29.8283 24.59 29.8283C24.895 29.8283 25.1875 29.9495 25.4032 30.1651C25.6188 30.3808 25.74 30.6733 25.74 30.9783V33.8583C25.74 34.4983 25.22 35.0083 24.59 35.0083C23.96 35.0083 23.44 34.4883 23.44 33.8583V30.9783Z" fill="black"/>
</svg>
