<svg width="512" height="294" viewBox="0 0 512 294" fill="none" xmlns="http://www.w3.org/2000/svg">
<g clip-path="url(#clip0_175_218)">
<path fill-rule="evenodd" clip-rule="evenodd" d="M12.9299 267.59H60.6899C59.1299 265.97 58.1599 263.78 58.1599 261.37V8.97C58.1599 4.04 62.1999 0 67.1299 0H442.51C447.44 0 451.48 4.04 451.48 8.97V261.37C451.48 263.78 450.51 265.97 448.95 267.59H499.07C502.63 267.59 505.87 269.04 508.21 271.38C509.411 272.579 510.365 274.002 511.015 275.57C511.666 277.137 512 278.818 512 280.515C512 282.212 511.666 283.893 511.015 285.46C510.365 287.028 509.411 288.451 508.21 289.65C505.87 291.99 502.63 293.45 499.07 293.45H12.9299C9.36993 293.45 6.12993 291.99 3.78993 289.65C2.58841 288.451 1.63515 287.028 0.984729 285.46C0.334309 283.893 -0.000488281 282.212 -0.000488281 280.515C-0.000488281 278.818 0.334309 277.137 0.984729 275.57C1.63515 274.002 2.58841 272.579 3.78993 271.38C6.12993 269.04 9.36993 267.59 12.9299 267.59ZM339 181.33C339.67 178.42 342.59 176.61 345.5 177.28C348.41 177.96 350.22 180.87 349.55 183.79L338.96 229.13C338.634 230.528 337.766 231.738 336.547 232.496C335.328 233.254 333.858 233.496 332.46 233.17C331.767 233.01 331.112 232.715 330.533 232.302C329.953 231.888 329.462 231.365 329.085 230.761C328.709 230.157 328.456 229.485 328.34 228.783C328.224 228.081 328.248 227.363 328.41 226.67L339 181.33ZM97.7899 82.82C94.2699 82.82 91.4199 79.97 91.4199 76.45C91.4199 72.94 94.2699 70.08 97.7899 70.08H258.25C261.76 70.08 264.61 72.94 264.61 76.45C264.61 79.97 261.76 82.82 258.25 82.82H97.7899ZM97.7899 123.39C94.2699 123.39 91.4199 120.53 91.4199 117.02C91.4199 113.5 94.2699 110.65 97.7899 110.65H246.36C249.87 110.65 252.72 113.5 252.72 117.02C252.72 120.53 249.87 123.39 246.36 123.39H97.7899ZM97.7899 204.52C94.2699 204.52 91.4199 201.67 91.4199 198.15C91.4199 194.63 94.2699 191.78 97.7899 191.78H202.42C205.93 191.78 208.79 194.63 208.79 198.15C208.79 201.67 205.93 204.52 202.42 204.52H97.7899ZM97.7899 163.95C96.1018 163.95 94.4829 163.279 93.2892 162.086C92.0955 160.892 91.4249 159.273 91.4249 157.585C91.4249 155.897 92.0955 154.278 93.2892 153.084C94.4829 151.891 96.1018 151.22 97.7899 151.22H212.76C214.448 151.22 216.067 151.891 217.261 153.084C218.454 154.278 219.125 155.897 219.125 157.585C219.125 159.273 218.454 160.892 217.261 162.086C216.067 163.279 214.448 163.95 212.76 163.95H97.7899ZM324.91 79.19C324.91 74.88 326.15 70.89 328.27 67.48H365.97C368.09 70.86 369.32 74.88 369.32 79.19C369.32 91.45 359.38 101.4 347.12 101.4C334.86 101.4 324.91 91.45 324.91 79.19ZM411.2 80.03V84.68C411.2 89.03 407.65 92.59 403.3 92.59H395.2C394.185 97.0907 392.542 101.426 390.32 105.47L395.72 110.87C398.79 113.95 398.79 118.98 395.72 122.05L389.14 128.64C386.07 131.71 381.04 131.71 377.96 128.64L373.04 123.71C368.94 126.26 364.45 128.22 359.68 129.49V136.21C359.68 140.56 356.11 144.12 351.77 144.12H342.47C338.12 144.12 334.56 140.56 334.56 136.21V129.58C329.799 128.354 325.249 126.422 321.06 123.85L316.27 128.64C313.2 131.71 308.16 131.71 305.09 128.64L298.51 122.06C295.44 118.98 295.44 113.95 298.51 110.87L303.69 105.7C301.402 101.592 299.715 97.1769 298.68 92.59H290.94C286.59 92.59 283.03 89.03 283.03 84.68V75.38C283.03 71.16 286.39 67.68 290.56 67.48H317.04C315.8 70.88 315.13 74.55 315.13 78.38C315.13 78.94 315.14 79.49 315.17 80.03C315.14 80.58 315.13 81.13 315.13 81.68C315.13 99.25 329.37 113.5 346.94 113.5C364.51 113.5 378.76 99.25 378.76 81.68C378.76 81.13 378.75 80.58 378.71 80.03C378.75 79.49 378.76 78.94 378.76 78.38C378.76 74.55 378.08 70.88 376.84 67.48H403.67C407.85 67.68 411.2 71.16 411.2 75.38V80.03ZM320.94 217.39C323.18 219.36 323.41 222.78 321.45 225.02C320.505 226.098 319.171 226.758 317.74 226.853C316.31 226.949 314.9 226.473 313.82 225.53L295.29 209.3C293.05 207.33 292.82 203.91 294.78 201.67L295.31 201.14L313.82 184.93C316.06 182.96 319.48 183.19 321.45 185.44C323.41 187.68 323.18 191.1 320.94 193.07L307.06 205.23L320.94 217.39ZM365.39 225.53C364.31 226.473 362.9 226.949 361.469 226.853C360.039 226.758 358.705 226.098 357.76 225.02C355.8 222.78 356.03 219.36 358.27 217.39L372.15 205.23L358.27 193.07C356.03 191.1 355.8 187.68 357.76 185.44C359.73 183.19 363.15 182.96 365.39 184.93L383.9 201.14L384.43 201.67C386.39 203.91 386.16 207.33 383.91 209.3L365.39 225.53ZM437.43 37.28H73.4899V256.7H437.43V37.28ZM117.67 14.45C120.66 14.45 123.07 16.87 123.07 19.85C123.07 22.83 120.66 25.25 117.67 25.25C114.69 25.25 112.27 22.83 112.27 19.85C112.27 16.87 114.69 14.45 117.67 14.45ZM98.7999 14.45C101.78 14.45 104.19 16.87 104.19 19.85C104.19 22.83 101.78 25.25 98.7999 25.25C95.8099 25.25 93.3899 22.83 93.3899 19.85C93.3899 16.87 95.8099 14.45 98.7999 14.45ZM79.9199 14.45C82.8999 14.45 85.3199 16.87 85.3199 19.85C85.3199 22.83 82.8999 25.25 79.9199 25.25C76.9299 25.25 74.5199 22.83 74.5199 19.85C74.5199 16.87 76.9299 14.45 79.9199 14.45ZM241.27 273.96H270.73C273.49 273.96 275.75 276.22 275.75 278.98C275.75 281.74 273.49 284 270.73 284H241.27C238.51 284 236.25 281.74 236.25 278.98C236.25 276.22 238.51 273.96 241.27 273.96Z" fill="#192A51"/>
</g>
<defs>
<clipPath id="clip0_175_218">
<rect width="512" height="293.45" fill="white"/>
</clipPath>
</defs>
</svg>
